<svg width="26" height="26" viewBox="0 0 26 26" fill="none" xmlns="http://www.w3.org/2000/svg">
<path d="M23.7617 21.9874C24.545 20.9373 25.0826 19.7247 25.3347 18.4392C25.5869 17.1536 25.5471 15.8278 25.2183 14.5596C24.8896 13.2914 24.2803 12.1133 23.4354 11.1121C22.5905 10.1109 21.5315 9.31214 20.3367 8.77488C20.0764 7.27751 19.4783 5.85916 18.5877 4.6276C17.6971 3.39604 16.5376 2.38367 15.1971 1.66742C13.8566 0.951173 12.3705 0.549887 10.8517 0.494055C9.33294 0.438223 7.8214 0.729314 6.43196 1.34521C5.04252 1.9611 3.81175 2.8856 2.83316 4.04845C1.85457 5.2113 1.1539 6.58191 0.784407 8.05613C0.414912 9.53035 0.386305 11.0694 0.700761 12.5563C1.01522 14.0433 1.66446 15.439 2.59916 16.6374L0.861665 18.3624C0.688218 18.5382 0.570722 18.7614 0.524005 19.0039C0.477287 19.2464 0.50344 19.4972 0.599165 19.7249C0.69294 19.9532 0.852187 20.1486 1.05684 20.2865C1.26149 20.4244 1.50238 20.4987 1.74916 20.4999H8.86166C9.56997 21.9931 10.6867 23.2553 12.0826 24.1401C13.4785 25.025 15.0964 25.4964 16.7492 25.4999H24.2492C24.4959 25.4987 24.7368 25.4244 24.9415 25.2865C25.1461 25.1486 25.3054 24.9532 25.3992 24.7249C25.4949 24.4972 25.521 24.2464 25.4743 24.0039C25.4276 23.7614 25.3101 23.5382 25.1367 23.3624L23.7617 21.9874ZM7.99916 16.7499C8.00088 17.1685 8.03431 17.5863 8.09916 17.9999H4.76166L5.19916 17.5749C5.31633 17.4587 5.40932 17.3204 5.47278 17.1681C5.53624 17.0158 5.56891 16.8524 5.56891 16.6874C5.56891 16.5224 5.53624 16.359 5.47278 16.2067C5.40932 16.0543 5.31633 15.9161 5.19916 15.7999C4.49861 15.107 3.94323 14.2814 3.56548 13.3714C3.18774 12.4614 2.99521 11.4852 2.99916 10.4999C2.99916 8.51076 3.78934 6.60311 5.19586 5.19658C6.60239 3.79006 8.51004 2.99988 10.4992 2.99988C12.0513 2.99056 13.5673 3.46786 14.8341 4.36471C16.1009 5.26156 17.0548 6.53285 17.5617 7.99988H16.7492C14.4285 7.99988 12.2029 8.92176 10.562 10.5627C8.92104 12.2036 7.99916 14.4292 7.99916 16.7499ZM21.1742 22.9999L21.2367 23.0624H16.7492C15.3033 23.0598 13.9031 22.556 12.7871 21.6369C11.671 20.7177 10.9081 19.4401 10.6284 18.0216C10.3487 16.6031 10.5694 15.1314 11.253 13.8574C11.9366 12.5834 13.0407 11.5858 14.3774 11.0345C15.714 10.4832 17.2004 10.4124 18.5833 10.8342C19.9663 11.2559 21.1603 12.144 21.9618 13.3473C22.7634 14.5506 23.123 15.9946 22.9794 17.4333C22.8358 18.8719 22.1978 20.2163 21.1742 21.2374C20.9386 21.4682 20.8039 21.7827 20.7992 22.1124C20.7999 22.2778 20.8334 22.4414 20.8977 22.5937C20.9621 22.7461 21.0561 22.8841 21.1742 22.9999Z" fill="#CCCCCC"/>
</svg>
