<svg width="18" height="22" viewBox="0 0 18 22" fill="none" xmlns="http://www.w3.org/2000/svg">
<path d="M15.0009 3.4804C13.4096 1.8891 11.2513 0.995117 9.00091 0.995117C6.75047 0.995117 4.59221 1.8891 3.00091 3.4804C1.40961 5.0717 0.515625 7.22996 0.515625 9.4804C0.515625 11.7308 1.40961 13.8891 3.00091 15.4804L8.27091 20.7604C8.36387 20.8541 8.47447 20.9285 8.59633 20.9793C8.71819 21.0301 8.84889 21.0562 8.98091 21.0562C9.11292 21.0562 9.24362 21.0301 9.36548 20.9793C9.48734 20.9285 9.59794 20.8541 9.69091 20.7604L15.0009 15.4304C16.5856 13.8457 17.4758 11.6965 17.4758 9.4554C17.4758 7.21434 16.5856 5.06508 15.0009 3.4804ZM13.5709 14.0004L9.00091 18.5904L4.43091 14.0004C3.52805 13.0967 2.91338 11.9456 2.6646 10.6927C2.41582 9.43973 2.54409 8.14115 3.03321 6.96108C3.52233 5.78101 4.35032 4.77245 5.41254 4.06288C6.47475 3.3533 7.72349 2.97458 9.00091 2.97458C10.2783 2.97458 11.5271 3.3533 12.5893 4.06288C13.6515 4.77245 14.4795 5.78101 14.9686 6.96108C15.4577 8.14115 15.586 9.43973 15.3372 10.6927C15.0884 11.9456 14.4738 13.0967 13.5709 14.0004ZM6.00091 6.4104C5.19362 7.22017 4.7403 8.31697 4.7403 9.4604C4.7403 10.6038 5.19362 11.7006 6.00091 12.5104C6.60067 13.1112 7.36449 13.5215 8.19656 13.6898C9.02862 13.8581 9.89186 13.777 10.678 13.4566C11.4641 13.1361 12.1381 12.5907 12.6154 11.8886C13.0927 11.1866 13.352 10.3593 13.3609 9.5104C13.3654 8.9436 13.2562 8.38166 13.0398 7.85779C12.8234 7.33392 12.5041 6.85875 12.1009 6.4604C11.7046 6.05498 11.232 5.73194 10.7103 5.50986C10.1887 5.28779 9.62825 5.17107 9.06131 5.16643C8.49437 5.16178 7.93211 5.2693 7.40688 5.48279C6.88165 5.69628 6.40383 6.01153 6.00091 6.4104ZM10.6909 11.0904C10.3119 11.4751 9.81112 11.7163 9.27403 11.7727C8.73695 11.829 8.19697 11.697 7.74641 11.3993C7.29586 11.1016 6.9627 10.6566 6.80391 10.1405C6.64512 9.62432 6.67056 9.06904 6.87586 8.56955C7.08117 8.07007 7.45361 7.65741 7.92949 7.40213C8.40538 7.14686 8.95516 7.06481 9.48484 7.17002C10.0145 7.27522 10.4912 7.56116 10.8334 7.97893C11.1756 8.3967 11.3621 8.92037 11.3609 9.4604C11.3464 10.0777 11.0874 10.6639 10.6409 11.0904H10.6909Z" fill="#D4A59A"/>
</svg>
