<svg width="11" height="11" viewBox="0 0 11 11" fill="none" xmlns="http://www.w3.org/2000/svg">
<path d="M10.0497 4.3232C10.019 4.23414 9.96303 4.15591 9.8887 4.098C9.81437 4.04009 9.72484 4.005 9.63096 3.99696L6.8604 3.59282L5.61876 1.07546C5.57889 0.993133 5.51663 0.923705 5.43913 0.875126C5.36162 0.826546 5.272 0.800781 5.18053 0.800781C5.08906 0.800781 4.99944 0.826546 4.92193 0.875126C4.84443 0.923705 4.78218 0.993133 4.74231 1.07546L3.50066 3.58795L0.730101 3.99696C0.639983 4.00977 0.55526 4.04759 0.485546 4.10611C0.415832 4.16464 0.363919 4.24153 0.335697 4.32807C0.309864 4.41263 0.307546 4.50264 0.328991 4.58842C0.350437 4.6742 0.394837 4.75253 0.457427 4.81499L2.4684 6.76266L1.98148 9.52835C1.9641 9.61964 1.9732 9.71399 2.00771 9.80027C2.04222 9.88655 2.1007 9.96116 2.17625 10.0153C2.24988 10.0679 2.33672 10.099 2.42703 10.105C2.51734 10.111 2.60755 10.0918 2.68751 10.0494L5.18053 8.74928L7.66381 10.0542C7.73215 10.0928 7.80933 10.1129 7.8878 10.1127C7.99094 10.113 8.09153 10.0806 8.17508 10.0201C8.25062 9.96602 8.3091 9.89142 8.34361 9.80514C8.37813 9.71886 8.38723 9.62451 8.36984 9.53322L7.88293 6.76753L9.8939 4.81986C9.9642 4.7603 10.0162 4.68201 10.0437 4.5941C10.0713 4.50618 10.0734 4.41224 10.0497 4.3232Z" fill="#FCC02A"/>
</svg>
