<svg width="30" height="30" viewBox="0 0 30 30" fill="none" xmlns="http://www.w3.org/2000/svg">
<path d="M27.6031 19.9768C26.9247 20.4494 26.145 20.7566 25.3266 20.8738C24.5082 20.991 23.6736 20.915 22.8898 20.6518C22.8188 20.6265 22.7428 20.6187 22.6681 20.6291C22.5934 20.6395 22.5224 20.6677 22.4609 20.7114L20.3516 22.2071L20.8944 22.9717L22.8083 21.6123C23.7028 21.8736 24.6443 21.9321 25.5643 21.7834C26.4843 21.6348 27.3595 21.2828 28.1262 20.7531C28.4025 20.5664 28.6643 20.3593 28.9095 20.1334L28.2739 19.4443C28.0641 19.6386 27.8399 19.8166 27.6031 19.9768Z" fill="#BC4639"/>
<path d="M22.8864 12.9805C22.2155 13.4092 21.6781 14.0172 21.335 14.7356C20.9919 15.4541 20.8569 16.2543 20.9453 17.0455L15.003 20.8546L9.05971 17.0478C9.15001 16.2563 9.01567 15.4554 8.67206 14.7367C8.32845 14.018 7.78945 13.4105 7.11674 12.9838C6.22377 12.3683 5.1379 12.0975 4.06049 12.2216C3.55227 12.2713 3.06131 12.4327 2.62265 12.6941C2.184 12.9555 1.80847 13.3106 1.52288 13.7339C1.2373 14.1572 1.0487 14.6384 0.970548 15.143C0.8924 15.6476 0.926633 16.1633 1.0708 16.6532C1.3596 17.6981 2.01765 18.6028 2.92283 19.1994C3.57096 19.664 4.33691 19.9365 5.13285 19.9857C5.92878 20.0349 6.72245 19.8587 7.42283 19.4774L12.0358 22.7525L7.64596 25.5674C7.43846 25.6992 7.25953 25.8714 7.11978 26.0736C6.98004 26.2759 6.88231 26.5041 6.83239 26.7449C6.78247 26.9856 6.78137 27.2339 6.82917 27.475C6.87697 27.7162 6.97268 27.9453 7.11064 28.1488C7.24807 28.3518 7.42469 28.5254 7.63012 28.6592C7.83556 28.793 8.06566 28.8845 8.30693 28.9281C8.54819 28.9718 8.79575 28.9668 9.03506 28.9135C9.27437 28.8601 9.50061 28.7595 9.70049 28.6175L15.003 24.8572L20.3055 28.6203C20.5056 28.7667 20.7332 28.8712 20.9746 28.9275C21.2161 28.9839 21.4664 28.9909 21.7106 28.9482C21.9549 28.9054 22.1879 28.8138 22.3959 28.6789C22.6039 28.5439 22.7825 28.3684 22.921 28.1627C23.0595 27.9571 23.1551 27.7256 23.2021 27.4822C23.249 27.2387 23.2463 26.9883 23.1941 26.7459C23.1419 26.5036 23.0414 26.2742 22.8985 26.0716C22.7556 25.869 22.5732 25.6973 22.3624 25.5669L17.9674 22.7544L22.5836 19.4778C23.2839 19.8593 24.0775 20.0356 24.8735 19.9866C25.6694 19.9376 26.4354 19.6653 27.0836 19.2008C29.0102 17.9005 29.6392 15.4471 28.4847 13.7314C27.3302 12.0158 24.8172 11.6802 22.8864 12.9805ZM9.15768 27.8549C8.95739 27.9897 8.71234 28.0409 8.47484 27.9975C8.23733 27.9542 8.02617 27.8197 7.88643 27.6228C7.81878 27.5231 7.77186 27.4107 7.74845 27.2924C7.72504 27.1742 7.72562 27.0524 7.75014 26.9344C7.77466 26.8164 7.82264 26.7045 7.89122 26.6053C7.95981 26.5062 8.0476 26.4218 8.14939 26.3572L12.8599 23.3366L14.1906 24.2807L9.15768 27.8549ZM22.2546 26.9347C22.2913 27.1126 22.2736 27.2974 22.2039 27.465C22.1342 27.6327 22.0156 27.7755 21.8636 27.8749C21.7116 27.9743 21.5332 28.0256 21.3516 28.0222C21.17 28.0188 20.9937 27.9608 20.8455 27.8558L7.70221 18.5277C7.62207 18.4709 7.52609 18.4406 7.42785 18.4413C7.32961 18.442 7.23406 18.4735 7.15471 18.5314C6.5994 18.8938 5.94649 19.0776 5.28368 19.0581C4.62087 19.0386 3.9799 18.8167 3.44689 18.4222C2.72975 17.9518 2.20748 17.2374 1.97689 16.4113C1.86656 16.0504 1.8383 15.6695 1.89418 15.2963C1.95006 14.9231 2.08867 14.5671 2.29987 14.2544C2.51107 13.9417 2.78951 13.6802 3.11481 13.489C3.44012 13.2977 3.80407 13.1817 4.18002 13.1492C5.03223 13.0536 5.89022 13.2701 6.59502 13.7586C7.16001 14.1054 7.60538 14.6167 7.87133 15.224C8.13728 15.8312 8.21109 16.5053 8.08283 17.1557C8.05874 17.251 8.06524 17.3515 8.10141 17.4429C8.13758 17.5344 8.2016 17.6121 8.28439 17.6652L21.8566 26.3567C21.9584 26.4214 22.0461 26.5059 22.1145 26.6052C22.1829 26.7045 22.2305 26.8166 22.2546 26.9347ZM26.5577 18.4213C26.0245 18.8156 25.3834 19.0374 24.7205 19.0568C24.0576 19.0761 23.4047 18.8921 22.8494 18.5296C22.77 18.4716 22.6745 18.4401 22.5762 18.4394C22.478 18.4388 22.382 18.469 22.3019 18.5258L17.1161 22.2074L15.873 21.4105L21.7202 17.6605C21.8028 17.6075 21.8667 17.5299 21.9028 17.4387C21.939 17.3474 21.9456 17.2471 21.9217 17.1519C21.796 16.5014 21.8712 15.828 22.1373 15.2213C22.4034 14.6145 22.8478 14.1031 23.4114 13.7549C24.9114 12.7438 26.8399 12.9669 27.7066 14.2508C28.5733 15.5347 28.0572 17.4102 26.5577 18.4213Z" fill="#BC4639"/>
<path d="M6.05922 1.79656L5.54032 1.01562C4.408 1.76591 3.55883 2.87301 3.12765 4.16109C2.69648 5.44917 2.70803 6.84439 3.16047 8.12516L4.04407 7.81203C3.66149 6.72814 3.65204 5.54749 4.01723 4.45761C4.38242 3.36774 5.1013 2.43113 6.05969 1.79656H6.05922Z" fill="#BC4639"/>
<path d="M5.04141 9.50062C4.8157 9.24458 4.61568 8.967 4.44422 8.67188L3.63281 9.14063C3.83526 9.48954 4.07155 9.81769 4.33828 10.1203L5.04141 9.50062Z" fill="#BC4639"/>
<path d="M20.1473 16.9687L21.4818 10.2965C22.5668 10.2021 23.5732 9.69176 24.2906 8.87226C25.0079 8.05275 25.3805 6.9876 25.3304 5.89966C25.2803 4.81172 24.8114 3.78529 24.0219 3.03515C23.2323 2.28502 22.1832 1.86929 21.0941 1.87495C20.1463 1.8716 19.2256 2.19155 18.4841 2.78199C18.0979 2.21373 17.5786 1.74857 16.9713 1.42707C16.3641 1.10558 15.6875 0.9375 15.0004 0.9375C14.3133 0.9375 13.6367 1.10558 13.0294 1.42707C12.4222 1.74857 11.9029 2.21373 11.5166 2.78199C10.7752 2.19155 9.85449 1.8716 8.90664 1.87495C7.82129 1.87485 6.77765 2.29306 5.9927 3.04263C5.20775 3.7922 4.74189 4.81546 4.69197 5.89967C4.64205 6.98388 5.01191 8.04562 5.72466 8.86414C6.43742 9.68267 7.43821 10.195 8.51899 10.2946L9.85352 16.9687L10.7723 16.7849L10.5098 15.4687H19.491L19.2285 16.7812L20.1473 16.9687ZM17.8846 14.5312L18.277 11.7853L17.3488 11.6521L16.9377 14.5312H15.4691V9.37495H14.5316V14.5312H13.063L12.652 11.6521L11.7238 11.7853L12.1162 14.5312H10.3223L9.36602 9.74995C9.34441 9.64407 9.28688 9.54891 9.20317 9.48058C9.11945 9.41224 9.0147 9.37493 8.90664 9.37495C8.0364 9.37495 7.2018 9.02925 6.58645 8.4139C5.9711 7.79854 5.62539 6.96394 5.62539 6.0937C5.62539 5.22346 5.9711 4.38886 6.58645 3.77351C7.2018 3.15816 8.0364 2.81245 8.90664 2.81245C9.35335 2.81131 9.7955 2.9023 10.2055 3.07973C10.6154 3.25717 10.9844 3.51724 11.2893 3.8437C11.3414 3.8988 11.4061 3.94043 11.4778 3.96503C11.5495 3.98963 11.6262 3.99646 11.7011 3.98494C11.7761 3.97342 11.8471 3.94388 11.9081 3.89887C11.9691 3.85386 12.0183 3.79472 12.0515 3.72652C12.3193 3.17195 12.738 2.70413 13.2596 2.37676C13.7812 2.04939 14.3846 1.87574 15.0004 1.87574C15.6162 1.87574 16.2196 2.04939 16.7412 2.37676C17.2628 2.70413 17.6815 3.17195 17.9493 3.72652C17.9824 3.79472 18.0316 3.85386 18.0927 3.89887C18.1537 3.94388 18.2247 3.97342 18.2997 3.98494C18.3746 3.99646 18.4512 3.98963 18.523 3.96503C18.5947 3.94043 18.6594 3.8988 18.7115 3.8437C19.0164 3.51724 19.3854 3.25717 19.7953 3.07973C20.2053 2.9023 20.6474 2.81131 21.0941 2.81245C21.9644 2.81245 22.799 3.15816 23.4143 3.77351C24.0297 4.38886 24.3754 5.22346 24.3754 6.0937C24.3754 6.96394 24.0297 7.79854 23.4143 8.4139C22.799 9.02925 21.9644 9.37495 21.0941 9.37495C20.9861 9.37493 20.8813 9.41224 20.7976 9.48058C20.7139 9.54891 20.6564 9.64407 20.6348 9.74995L19.6785 14.5312H17.8846Z" fill="#BC4639"/>
</svg>
