<svg width="30" height="30" viewBox="0 0 30 30" fill="none" xmlns="http://www.w3.org/2000/svg">
<path d="M22.3958 13.5368C20.2041 13.5368 18.2264 14.4692 16.8374 15.9577C16.7137 16.0092 16.5968 16.0613 16.4831 16.1122C15.9418 16.3549 15.5142 16.5466 14.5617 16.5466C13.6092 16.5466 13.1817 16.3549 12.6404 16.1122C12.1776 15.9048 11.6684 15.6766 10.8787 15.5764V14.0023H15.1752C17.51 14.0023 19.4095 12.1029 19.4095 9.76813V7.87504C19.4095 7.39007 19.0163 6.9969 18.5313 6.9969H13.3567C12.4318 6.9969 11.576 7.29576 10.8787 7.80087V5.29711H12.3989C14.7337 5.29711 16.6331 3.39764 16.6331 1.0629V0.87814C16.6331 0.393172 16.24 0 15.755 0H13.3567C11.9912 0 10.7754 0.65035 10.0006 1.65687C9.22573 0.65035 8.00992 0 6.64447 0H4.24616C3.76119 0 3.36802 0.393172 3.36802 0.87814V1.0629C3.36802 3.39764 5.26749 5.29711 7.60223 5.29711H9.12241V7.80081C8.42516 7.2957 7.56927 6.99684 6.64447 6.99684H1.46983C0.984863 6.99684 0.59169 7.39001 0.59169 7.87498V9.76807C0.59169 12.1028 2.49116 14.0023 4.8259 14.0023H9.12241V15.5763C8.33267 15.6765 7.8234 15.9047 7.36068 16.1122C6.81934 16.3549 6.3918 16.5465 5.43931 16.5465C4.48682 16.5465 4.05929 16.3549 3.51794 16.1122C2.90313 15.8365 2.20624 15.5242 0.87814 15.5242C0.393172 15.5242 0 15.9173 0 16.4023V19.9994C0 20.8558 0.108362 21.6872 0.311798 22.481C0.318589 22.5147 0.327663 22.5476 0.338259 22.5799C1.47908 26.8475 5.37831 29.9999 10.0005 29.9999C11.5929 29.9999 13.1154 29.6365 14.5258 28.9197C15.5715 28.3883 16.5249 27.6657 17.3269 26.8041C18.6731 28.0104 20.4501 28.7452 22.3957 28.7452C26.5887 28.7452 29.9999 25.3339 29.9999 21.141C30 16.948 26.5887 13.5368 22.3958 13.5368V13.5368ZM13.3566 8.75318H17.6531V9.76813C17.6531 11.1345 16.5415 12.2461 15.1752 12.2461H10.8787V11.2311C10.8787 9.86479 11.9903 8.75318 13.3566 8.75318V8.75318ZM13.3566 1.75628H14.7781C14.4774 2.78622 13.5246 3.54083 12.3989 3.54083H10.9774C11.2781 2.51095 12.2309 1.75628 13.3566 1.75628V1.75628ZM7.60223 3.54083C6.47651 3.54083 5.52367 2.78616 5.223 1.75628H6.64447C7.77025 1.75628 8.72303 2.51095 9.0237 3.54083H7.60223ZM2.34797 9.76813V8.75318H6.64447C8.0108 8.75318 9.12241 9.86479 9.12241 11.2311V12.2461H4.8259C3.45958 12.2461 2.34797 11.1344 2.34797 9.76813V9.76813ZM1.75634 17.3529C2.16461 17.4302 2.45967 17.5624 2.79951 17.7148C3.41432 17.9905 4.11122 18.3029 5.43931 18.3029C6.76741 18.3029 7.4643 17.9905 8.07912 17.7149C8.62046 17.4722 9.04806 17.2805 10.0005 17.2805C10.953 17.2805 11.3806 17.4722 11.9219 17.7148C12.5367 17.9905 13.2336 18.3029 14.5617 18.3029C14.8565 18.3029 15.1201 18.2874 15.3587 18.2604C14.9935 19.1494 14.7915 20.122 14.7915 21.141C14.7915 21.2374 14.7939 21.3332 14.7975 21.4288H1.88062C1.79913 20.9644 1.75628 20.4868 1.75628 19.9995V17.3529H1.75634ZM12.8663 27.7358C12.8128 27.5049 12.6679 27.2973 12.458 27.174C12.1501 26.9934 11.7544 27.018 11.4721 27.2377C11.1945 27.4539 11.0741 27.8262 11.1661 28.1625C10.7837 28.216 10.3945 28.2437 10.0005 28.2437C8.08778 28.2437 6.32512 27.5888 4.92484 26.4916C5.01125 26.5203 5.10269 26.5358 5.19648 26.5358C5.6102 26.5358 5.97568 26.2349 6.05764 25.8298C6.13017 25.4711 5.96151 25.0918 5.64732 24.9047C5.33212 24.7171 4.92373 24.7464 4.63974 24.9791C4.35663 25.211 4.24504 25.609 4.36997 25.9536C4.3832 25.9901 4.39919 26.0251 4.41687 26.059C3.55295 25.2623 2.85911 24.284 2.39691 23.1849H7.75145C7.71451 23.3404 7.71879 23.5058 7.77089 23.6613C7.88985 24.0162 8.22852 24.2643 8.60425 24.2643C9.00339 24.2643 9.35892 23.984 9.45592 23.5982C9.49041 23.461 9.48888 23.3192 9.45692 23.185H15.071C15.2348 23.7711 15.4673 24.3288 15.7591 24.8489C15.4637 24.7269 15.1151 24.7731 14.8637 24.9791C14.5806 25.211 14.4689 25.609 14.5939 25.9536C14.6819 26.1965 14.8735 26.3855 15.1075 26.4763C14.4288 27.0144 13.6737 27.4382 12.8663 27.7358V27.7358ZM22.3958 26.989C19.1712 26.989 16.5478 24.3656 16.5478 21.141C16.5478 17.9164 19.1712 15.293 22.3958 15.293C25.6204 15.293 28.2437 17.9164 28.2437 21.141C28.2437 24.3656 25.6203 26.989 22.3958 26.989Z" fill="#BC4639"/>
</svg>
