<svg width="30" height="30" viewBox="0 0 30 30" fill="none" xmlns="http://www.w3.org/2000/svg">
<path d="M20.8712 9.88807C21.4028 10.3067 22.0675 10.5198 22.7434 10.4883C22.952 10.7345 23.2122 10.9319 23.5056 11.0663C23.799 11.2008 24.1184 11.269 24.4411 11.2663C24.7638 11.2636 25.082 11.1899 25.3731 11.0505C25.6641 10.9111 25.921 10.7094 26.1254 10.4597C26.3298 10.21 26.4768 9.91834 26.556 9.60547C26.6352 9.29261 26.6446 8.96616 26.5835 8.64926C26.5225 8.33236 26.3925 8.03276 26.2027 7.7717C26.013 7.51064 25.7682 7.29451 25.4856 7.13862C25.3633 6.39989 24.9609 5.73673 24.3622 5.28705C24.3604 4.78955 24.2303 4.30092 23.9845 3.86837C23.7387 3.43582 23.3855 3.07397 22.959 2.81778C22.5326 2.56159 22.0472 2.41972 21.5499 2.40586C21.0526 2.39201 20.5601 2.50664 20.12 2.73869C19.9741 2.13684 19.6388 1.59775 19.1635 1.20074C18.6882 0.803731 18.098 0.569787 17.4798 0.533336C16.8615 0.496885 16.2479 0.659853 15.7293 0.998256C15.2106 1.33666 14.8143 1.83262 14.5986 2.41315C14.1028 1.93033 13.4992 1.57233 12.8378 1.36866C12.1764 1.165 11.476 1.12152 10.7944 1.2418C10.1129 1.36207 9.46972 1.64267 8.91796 2.06044C8.3662 2.47821 7.92167 3.02118 7.62104 3.64455C7.08844 3.51237 6.53067 3.52042 6.00211 3.66794C5.47354 3.81546 4.99222 4.0974 4.60504 4.48629C4.21786 4.87518 3.93805 5.35775 3.79286 5.88695C3.64768 6.41616 3.64208 6.97396 3.77662 7.50598C3.91116 8.03799 4.18124 8.52607 4.56053 8.92265C4.93983 9.31923 5.4154 9.61078 5.9409 9.76887C6.4664 9.92696 7.02389 9.94621 7.55904 9.82473C8.09419 9.70325 8.58873 9.4452 8.99448 9.07573C9.32665 9.31528 9.69104 9.50663 10.0768 9.64408C9.96454 9.9962 9.9278 10.3681 9.96901 10.7353C10.0782 11.7197 10.8486 12.2614 11.5937 12.7866C12.2893 13.2769 13.0091 13.7839 13.4146 14.6895C13.4931 14.8234 13.5264 14.9792 13.5095 15.1335C13.4926 15.2879 13.4265 15.4328 13.3208 15.5466C12.5754 15.0842 11.7609 14.744 10.9081 14.5388C10.7157 14.1811 10.3928 13.9114 10.0065 13.786C9.92143 13.4862 9.76307 13.2124 9.54572 12.9892C9.32836 12.766 9.05885 12.6004 8.7615 12.5074C8.46415 12.4143 8.14832 12.3968 7.84251 12.4564C7.53669 12.5159 7.25051 12.6507 7.00979 12.8485C6.55215 12.7338 6.06812 12.7954 5.65375 13.0209C5.23937 13.2465 4.92493 13.6196 4.77281 14.0662C4.62069 14.5128 4.64201 15.0002 4.83254 15.4318C5.02306 15.8634 5.36887 16.2077 5.80135 16.3962C5.84888 16.5465 5.91544 16.6901 5.9994 16.8235C5.85945 17.047 5.76812 17.2975 5.73133 17.5586C5.69455 17.8198 5.71314 18.0858 5.7859 18.3393C5.85866 18.5928 5.98396 18.8281 6.15365 19.03C6.32333 19.2319 6.53361 19.3958 6.77081 19.5111C7.00801 19.6264 7.26682 19.6905 7.53041 19.6992C7.794 19.7079 8.05647 19.661 8.30076 19.5616C8.54504 19.4622 8.76568 19.3125 8.94831 19.1223C9.13094 18.932 9.27149 18.7054 9.36081 18.4573C9.56161 18.4013 9.74933 18.3061 9.91311 18.1771C10.0769 18.0481 10.2135 17.888 10.3149 17.7059C10.4731 17.7359 10.6309 17.7659 10.786 17.7996C10.5523 18.1846 10.4219 18.6235 10.4078 19.0737C9.74406 19.3699 9.13345 19.773 8.60026 20.2669H5.95792C5.65924 20.2669 5.37279 20.3855 5.16159 20.5967C4.95039 20.8079 4.83174 21.0944 4.83174 21.3931C4.83174 21.6917 4.95039 21.9782 5.16159 22.1894C5.37279 22.4006 5.65924 22.5192 5.95792 22.5192H6.01135L7.37401 26.2301C7.5296 26.6505 7.79696 27.0204 8.14728 27.3001C8.49759 27.5797 8.91758 27.7585 9.36198 27.8171C9.3091 27.9539 9.28147 28.0992 9.28042 28.246C9.28079 28.5712 9.41018 28.8831 9.64021 29.1131C9.87023 29.343 10.1821 29.4724 10.5074 29.4727H12.2164C12.5417 29.4724 12.8535 29.343 13.0835 29.113C13.3135 28.8831 13.4428 28.5712 13.4431 28.246C13.4417 28.1072 13.4165 27.9696 13.3686 27.8393H15.8966C15.8487 27.9696 15.8235 28.1072 15.8221 28.246C15.8224 28.5712 15.9517 28.8831 16.1817 29.113C16.4117 29.343 16.7235 29.4724 17.0488 29.4727H18.7578C18.9562 29.4739 19.1519 29.4267 19.3279 29.3352C19.5039 29.2436 19.6549 29.1105 19.7678 28.9473C19.8806 28.7842 19.952 28.596 19.9756 28.399C19.9992 28.202 19.9743 28.0023 19.9032 27.8171C20.3476 27.7585 20.7675 27.5798 21.1177 27.3002C21.4679 27.0206 21.7352 26.6507 21.8907 26.2303L23.2541 22.5176C23.5525 22.5153 23.8377 22.3946 24.047 22.182C24.2564 21.9694 24.3727 21.6823 24.3704 21.3839C24.3681 21.0856 24.2474 20.8003 24.0348 20.591C23.8222 20.3816 23.5351 20.2653 23.2367 20.2676H20.6638C19.9687 19.6342 19.1541 19.1461 18.2678 18.8318C18.4265 18.6318 18.574 18.4294 18.7103 18.2246C19.7614 17.698 20.8838 17.3276 22.0419 17.1251C22.1432 17.3078 22.2798 17.4686 22.4438 17.598C22.6077 17.7275 22.7958 17.8231 22.997 17.8793C23.0863 18.1275 23.2268 18.354 23.4095 18.5443C23.5921 18.7346 23.8127 18.8843 24.057 18.9837C24.3013 19.0831 24.5638 19.1299 24.8274 19.1212C25.091 19.1125 25.3498 19.0485 25.587 18.9332C25.8242 18.8179 26.0345 18.6539 26.2041 18.4521C26.3738 18.2502 26.4991 18.0148 26.5719 17.7613C26.6446 17.5078 26.6632 17.2418 26.6264 16.9807C26.5897 16.7195 26.4983 16.469 26.3584 16.2455C26.4423 16.1121 26.5089 15.9685 26.5564 15.8182C26.9892 15.6299 27.3354 15.2858 27.5262 14.8541C27.7169 14.4223 27.7384 13.9347 27.5862 13.4879C27.434 13.0411 27.1193 12.6679 26.7047 12.4424C26.29 12.2169 25.8057 12.1556 25.348 12.2707C25.1073 12.0729 24.8211 11.9381 24.5153 11.8785C24.2094 11.8189 23.8936 11.8364 23.5962 11.9294C23.2989 12.0225 23.0293 12.1881 22.812 12.4113C22.5946 12.6346 22.4363 12.9085 22.3513 13.2082C21.9625 13.3338 21.6378 13.6057 21.4459 13.9664C20.8166 14.1199 20.207 14.3448 19.6288 14.6367C19.6093 14.5467 19.5875 14.4577 19.5608 14.3698C19.0733 12.7566 17.9757 12.1854 16.9841 11.8685C17.6598 11.2555 18.4839 10.8293 19.3747 10.6322C19.9266 10.5094 20.4402 10.254 20.8712 9.88807ZM12.6228 28.246C12.6227 28.3537 12.5799 28.457 12.5037 28.5332C12.4275 28.6094 12.3242 28.6522 12.2164 28.6524H10.5074C10.4532 28.6537 10.3992 28.6441 10.3488 28.6243C10.2983 28.6044 10.2523 28.5747 10.2135 28.5368C10.1747 28.4989 10.1439 28.4537 10.1229 28.4037C10.1018 28.3537 10.091 28.3001 10.091 28.2458C10.091 28.1916 10.1018 28.1379 10.1229 28.088C10.1439 28.038 10.1747 27.9928 10.2135 27.9549C10.2523 27.917 10.2983 27.8873 10.3488 27.8674C10.3992 27.8476 10.4532 27.838 10.5074 27.8393H12.2164C12.3242 27.8395 12.4275 27.8824 12.5037 27.9586C12.5799 28.0349 12.6227 28.1382 12.6228 28.246ZM18.7578 28.6524H17.0488C16.9426 28.6498 16.8417 28.6059 16.7676 28.5299C16.6934 28.454 16.6519 28.352 16.6519 28.2458C16.6519 28.1397 16.6934 28.0377 16.7676 27.9618C16.8417 27.8858 16.9426 27.8419 17.0488 27.8393H18.7578C18.864 27.8419 18.9649 27.8858 19.039 27.9618C19.1132 28.0377 19.1547 28.1397 19.1547 28.2458C19.1547 28.352 19.1132 28.454 19.039 28.5299C18.9649 28.6059 18.864 28.6498 18.7578 28.6524ZM21.1206 25.9477C21.0048 26.2613 20.7959 26.5321 20.5218 26.7236C20.2477 26.9151 19.9216 27.0182 19.5873 27.019H9.67838C9.34395 27.0182 9.01777 26.9151 8.74361 26.7235C8.46946 26.532 8.26045 26.2612 8.14463 25.9474L6.88534 22.5192H22.3796L21.1206 25.9477ZM23.5419 21.3919C23.5422 21.4321 23.5346 21.472 23.5194 21.5092C23.5042 21.5465 23.4818 21.5803 23.4535 21.6089C23.4252 21.6374 23.3915 21.6601 23.3544 21.6755C23.3172 21.691 23.2774 21.6989 23.2372 21.6989H5.95792C5.8768 21.6989 5.799 21.6667 5.74164 21.6093C5.68428 21.552 5.65206 21.4742 5.65206 21.3931C5.65206 21.312 5.68428 21.2342 5.74164 21.1768C5.799 21.1194 5.8768 21.0872 5.95792 21.0872H23.2367C23.2768 21.0872 23.3165 21.095 23.3535 21.1103C23.3905 21.1256 23.4242 21.148 23.4525 21.1763C23.4808 21.2046 23.5033 21.2382 23.5187 21.2752C23.534 21.3122 23.5419 21.3518 23.5419 21.3919ZM16.0742 11.6128C15.4743 11.4898 14.8968 11.2755 14.3619 10.9772C14.6964 10.6411 15.1365 10.4304 15.6081 10.3805C16.3266 10.2804 17.024 10.0643 17.6732 9.74041C17.9032 9.87801 18.15 9.98545 18.4074 10.0601C17.5214 10.3928 16.7232 10.9239 16.0742 11.6128ZM15.3711 9.58994C14.8212 9.67446 14.3075 9.91629 13.892 10.2863C13.8719 9.99994 13.9261 9.71327 14.0492 9.45401C14.4724 9.60364 14.9252 9.65024 15.3699 9.58994H15.3711ZM15.6242 9.54588C16.0564 9.45132 16.4609 9.25817 16.8062 8.98151C16.8566 9.04526 16.9096 9.10619 16.9642 9.16572C16.5327 9.34211 16.0829 9.46963 15.6231 9.54588H15.6242ZM8.64456 8.25682C8.33211 8.62336 7.91471 8.88518 7.44872 9.00694C6.98273 9.12869 6.4906 9.10451 6.0388 8.93765C5.58699 8.7708 5.19727 8.46931 4.92227 8.0739C4.64727 7.67849 4.50024 7.20822 4.50104 6.72658C4.50172 6.10206 4.7501 5.50331 5.19168 5.06169C5.63326 4.62006 6.23199 4.37162 6.85651 4.37088C7.14549 4.37023 7.43204 4.42357 7.70143 4.52815C7.75202 4.54784 7.80601 4.5573 7.86027 4.55598C7.91454 4.55466 7.96801 4.54259 8.01758 4.52047C8.06715 4.49834 8.11184 4.4666 8.14905 4.42708C8.18627 4.38757 8.21528 4.34106 8.2344 4.29026C8.46367 3.68131 8.85612 3.14722 9.36876 2.74651C9.8814 2.34579 10.4945 2.09391 11.1407 2.01846C11.787 1.94301 12.4416 2.04691 13.0328 2.31876C13.6239 2.59062 14.1288 3.01995 14.4922 3.55971C14.5407 3.63156 14.6106 3.68622 14.6921 3.71585C14.7735 3.74548 14.8622 3.74856 14.9455 3.72464C15.0288 3.70072 15.1024 3.65103 15.1557 3.58271C15.209 3.51438 15.2393 3.43093 15.2422 3.34432C15.2605 2.80161 15.4913 2.28783 15.885 1.91382C16.2787 1.53981 16.8036 1.33556 17.3466 1.34512C17.8895 1.35469 18.4069 1.57731 18.7872 1.96495C19.1674 2.3526 19.38 2.87419 19.3792 3.41721C19.3696 3.50565 19.3883 3.59485 19.4325 3.67205C19.4767 3.74925 19.5442 3.8105 19.6253 3.84705C19.6984 3.87897 19.7792 3.8889 19.8579 3.87562C19.9365 3.86234 20.0096 3.82643 20.0682 3.77229C20.375 3.48972 20.7599 3.30633 21.1725 3.24613C21.5852 3.18592 22.0065 3.25171 22.3811 3.43487C22.7558 3.61803 23.0665 3.91003 23.2725 4.27267C23.4784 4.6353 23.5701 5.05167 23.5356 5.46729C23.5304 5.54144 23.5454 5.61562 23.579 5.68191C23.6127 5.7482 23.6637 5.80412 23.7266 5.84369C24.0016 6.01606 24.2325 6.25035 24.4008 6.52785C24.5691 6.80535 24.6702 7.11837 24.696 7.4419C24.7017 7.51777 24.7285 7.59054 24.7732 7.65208C24.818 7.71362 24.8789 7.76152 24.9493 7.79041C25.1486 7.87266 25.3258 8.00043 25.4668 8.16348C25.6077 8.32653 25.7086 8.52034 25.7612 8.72937C25.8138 8.93841 25.8167 9.15686 25.7697 9.36722C25.7227 9.57759 25.6271 9.77402 25.4905 9.94077C25.3539 10.1075 25.1802 10.24 24.9832 10.3275C24.7862 10.4151 24.5715 10.4552 24.3562 10.4449C24.1409 10.4345 23.931 10.3738 23.7434 10.2677C23.5557 10.1616 23.3955 10.0131 23.2757 9.83393C23.2336 9.77082 23.1748 9.72062 23.1059 9.68892C23.0371 9.65722 22.9607 9.64527 22.8854 9.6544C22.5724 9.69444 22.2544 9.66154 21.9563 9.55826C21.6581 9.45499 21.3879 9.28414 21.1667 9.05908C21.102 8.97636 21.0084 8.92116 20.9047 8.90456C20.801 8.88795 20.6948 8.91117 20.6075 8.96955C20.2205 9.2306 19.764 9.3694 19.2971 9.36799C18.8755 9.36779 18.4617 9.25463 18.0986 9.0403C17.7356 8.82596 17.4366 8.51828 17.2328 8.14924C17.2008 8.09123 17.1553 8.04182 17.1 8.00526C17.0448 7.96869 16.9815 7.94606 16.9156 7.93928C16.8498 7.93251 16.7832 7.9418 16.7217 7.96637C16.6602 7.99093 16.6055 8.03004 16.5624 8.08034C16.2437 8.45024 15.8042 8.69526 15.3219 8.77189C14.8396 8.84852 14.3458 8.75181 13.9281 8.49893C13.8618 8.4583 13.7853 8.43739 13.7076 8.43863C13.6298 8.43988 13.554 8.46323 13.4891 8.50596C12.8433 8.92768 12.0776 9.1272 11.3081 9.07424C10.5387 9.02129 9.80748 8.71874 9.22557 8.21252C9.18455 8.17695 9.13689 8.14987 9.08534 8.13283C9.03379 8.1158 8.97938 8.10914 8.92524 8.11326C8.8711 8.11738 8.81832 8.13219 8.76994 8.15683C8.72156 8.18147 8.67855 8.21546 8.64338 8.25682H8.64456ZM11.3633 17.0928C11.087 17.0239 10.8036 16.9613 10.5158 16.9053C10.5131 16.7852 10.4973 16.6657 10.4689 16.549C10.6441 16.4166 10.79 16.2494 10.8976 16.058C11.0051 15.8665 11.0719 15.6549 11.0938 15.4364C11.6414 15.5985 12.1684 15.8237 12.6641 16.1074C12.208 16.4053 11.7731 16.7343 11.3624 17.0921L11.3633 17.0928ZM9.00221 17.6928C8.9127 17.6997 8.82793 17.7358 8.76091 17.7955C8.69389 17.8553 8.64832 17.9353 8.6312 18.0235C8.59995 18.1842 8.53183 18.3356 8.43219 18.4656C8.33255 18.5955 8.20411 18.7006 8.05697 18.7726C7.90983 18.8445 7.74801 18.8813 7.58423 18.8801C7.42045 18.8789 7.25918 18.8398 7.11311 18.7657C6.96704 18.6916 6.84015 18.5846 6.74242 18.4532C6.64469 18.3218 6.57879 18.1695 6.5499 18.0082C6.52101 17.847 6.52991 17.6813 6.57592 17.5241C6.62192 17.3669 6.70377 17.2226 6.81502 17.1024C6.88558 17.0264 6.9248 16.9266 6.9248 16.823C6.9248 16.7193 6.88558 16.6195 6.81502 16.5436C6.67737 16.3968 6.58557 16.2129 6.55088 16.0146C6.53766 15.9384 6.50316 15.8675 6.45136 15.8101C6.39957 15.7526 6.33259 15.711 6.25815 15.69C6.01291 15.6191 5.80152 15.4621 5.66282 15.2477C5.52412 15.0334 5.46743 14.7762 5.50318 14.5235C5.53893 14.2707 5.66472 14.0393 5.85741 13.8719C6.05011 13.7044 6.29677 13.6122 6.55206 13.6121C6.69084 13.6117 6.8283 13.6392 6.95635 13.6927C7.03492 13.7255 7.12176 13.7331 7.20483 13.7144C7.2879 13.6957 7.36309 13.6515 7.41995 13.5881C7.51784 13.4784 7.638 13.3908 7.77241 13.3311C7.90683 13.2715 8.05242 13.2412 8.19948 13.2422C8.45855 13.2418 8.70874 13.3366 8.90243 13.5086C9.09613 13.6807 9.21981 13.9179 9.24995 14.1753C9.26058 14.2675 9.30222 14.3534 9.36804 14.419C9.43386 14.4845 9.51998 14.5257 9.61229 14.536C9.75233 14.5523 9.88494 14.6078 9.99497 14.6959C10.105 14.7841 10.188 14.9014 10.2346 15.0345C10.2999 15.2183 10.2915 15.4203 10.211 15.598C10.1306 15.7757 9.98434 15.9153 9.80307 15.9874C9.74864 16.0093 9.69951 16.0425 9.65899 16.0849C9.61846 16.1272 9.58748 16.1778 9.56812 16.2332C9.54876 16.2885 9.54147 16.3474 9.54675 16.4058C9.55202 16.4642 9.56973 16.5208 9.5987 16.5717C9.65995 16.6821 9.6926 16.8061 9.69366 16.9323C9.69472 17.0585 9.66415 17.183 9.60475 17.2944C9.54535 17.4058 9.45901 17.5006 9.3536 17.57C9.24819 17.6395 9.12706 17.6814 9.00127 17.6921L9.00221 17.6928ZM9.9301 20.2664C11.1582 19.4759 12.7229 19.0946 14.188 19.0331C15.9008 18.9521 17.8724 19.3224 19.3389 20.2664H9.9301ZM19.7035 15.525C20.1972 15.2442 20.7214 15.0209 21.2659 14.8594C21.2879 15.0777 21.3548 15.2891 21.4623 15.4803C21.5698 15.6716 21.7157 15.8385 21.8907 15.9708C21.8641 16.0879 21.848 16.2071 21.8427 16.3271C20.9954 16.486 20.164 16.7201 19.3583 17.0264C19.5558 16.5486 19.6723 16.0412 19.7031 15.525H19.7035ZM22.7457 13.9571C22.838 13.9468 22.9241 13.9056 22.9899 13.8401C23.0557 13.7746 23.0973 13.6888 23.1081 13.5966C23.1379 13.3392 23.2615 13.1017 23.4552 12.9296C23.6489 12.7575 23.8992 12.6627 24.1583 12.6633C24.3055 12.6623 24.4511 12.6927 24.5856 12.7525C24.7201 12.8123 24.8402 12.9 24.9381 13.0099C24.9949 13.0734 25.0701 13.1175 25.1532 13.1362C25.2363 13.1549 25.3231 13.1472 25.4017 13.1142C25.5348 13.0594 25.6778 13.0323 25.8217 13.0345C25.9657 13.0368 26.1077 13.0684 26.2391 13.1273C26.3705 13.1863 26.4885 13.2714 26.5858 13.3775C26.6832 13.4836 26.7579 13.6085 26.8054 13.7444C26.8529 13.8803 26.8723 14.0245 26.8622 14.1682C26.8521 14.3118 26.8128 14.4519 26.7468 14.5799C26.6808 14.7079 26.5894 14.821 26.4781 14.9125C26.3669 15.0039 26.2382 15.0718 26.0999 15.1118C26.0254 15.1327 25.9584 15.1743 25.9066 15.2317C25.8548 15.2891 25.8203 15.36 25.8071 15.4362C25.7726 15.6345 25.6808 15.8184 25.543 15.9652C25.4724 16.0411 25.4332 16.1409 25.4332 16.2446C25.4332 16.3482 25.4724 16.448 25.543 16.5239C25.6544 16.6441 25.7364 16.7885 25.7825 16.9458C25.8287 17.1031 25.8377 17.2689 25.8088 17.4302C25.78 17.5915 25.7141 17.744 25.6163 17.8755C25.5185 18.007 25.3916 18.1141 25.2454 18.1882C25.0992 18.2623 24.9379 18.3015 24.774 18.3027C24.6101 18.3039 24.4482 18.267 24.301 18.1949C24.1538 18.1229 24.0253 18.0177 23.9257 17.8875C23.826 17.7574 23.758 17.6059 23.7268 17.445C23.71 17.3568 23.6647 17.2765 23.5979 17.2165C23.531 17.1566 23.4463 17.1203 23.3567 17.1131C23.2309 17.1027 23.1096 17.0608 23.0041 16.9914C22.8986 16.922 22.8122 16.8272 22.7527 16.7158C22.6933 16.6043 22.6628 16.4798 22.6639 16.3535C22.6651 16.2272 22.6979 16.1032 22.7593 15.9928C22.7883 15.9419 22.8061 15.8853 22.8114 15.827C22.8166 15.7686 22.8094 15.7097 22.79 15.6544C22.7706 15.5991 22.7396 15.5486 22.6991 15.5062C22.6585 15.4639 22.6094 15.4307 22.5549 15.409C22.3986 15.3469 22.2675 15.2344 22.1823 15.0893C22.0971 14.9443 22.0627 14.775 22.0846 14.6082C22.1065 14.4414 22.1834 14.2867 22.3032 14.1685C22.4229 14.0504 22.5787 13.9755 22.7457 13.9559V13.9571ZM18.7759 14.606C19.0944 15.6546 18.6873 16.7555 18.0856 17.6829C17.8867 17.9899 17.6675 18.2832 17.4294 18.5609C15.4045 18.0311 13.2706 18.0896 11.2778 18.7294C11.5508 17.5995 12.8462 17.0888 13.6466 16.3812C13.8997 16.1599 14.6703 15.4864 14.1622 14.3531C13.6644 13.2422 12.8148 12.6422 12.0653 12.1151C11.3157 11.588 10.8486 11.2301 10.7832 10.6442C10.7529 10.3753 10.7828 10.1031 10.8706 9.84729C11.6339 9.96322 12.4142 9.87915 13.1352 9.6033C12.9121 10.5214 13.2362 11.2296 13.9185 11.6658C15.6847 12.7969 18.0399 12.1709 18.7759 14.606Z" fill="#5C2018"/>
</svg>
