<svg xmlns="http://www.w3.org/2000/svg" xmlns:xlink="http://www.w3.org/1999/xlink" width="60" height="60" xml:space="preserve"><defs><path id="a" d="M647.27.32a21.85 21.85 0 0 1-17.13-25.74l7.89-39.29a61.93 61.93 0 0 0-28.16-64.82 21.84 21.84 0 0 0-42.31-8.5c-24.46 2.86-45.74 22.83-50.98 48.92l-7.89 39.3a21.87 21.87 0 0 1-25.74 17.13l60.73 12.2a21.87 21.87 0 0 0 42.86 8.6l-21.43-4.31L647.27.32z"/></defs><clipPath id="b"><use xlink:href="#a" overflow="visible"/></clipPath><g clip-path="url(#b)"><defs><path id="c" d="M-1571.11-795.61h3202.23V855.54h-3202.23z"/></defs></g><g><path fill="#E3E6E9" d="M1.23 31.1C-.61 15.79 11.22 1.43 28.02 3.14c15.34 1.57 29.62 12.41 31.47 27.72 1.85 15.31-12.8 26.28-28.11 28.12C16.07 60.83 3.08 46.42 1.23 31.1z"/><defs><path id="d" d="M51.05 42.86a4.77 4.77 0 0 1-4.77-4.76l-.01-8.73c0-5.8-3.67-10.73-8.81-12.63a4.76 4.76 0 0 0-9.4.01c-5.1 1.66-8.79 6.85-8.78 12.65l.01 8.73a4.77 4.77 0 0 1-4.76 4.77l13.5-.01a4.76 4.76 0 1 0 9.53-.01l13.49-.02z"/></defs><clipPath id="e"><use xlink:href="#d" overflow="visible"/></clipPath><g clip-path="url(#e)"><defs><path id="f" transform="rotate(-11.4 -79.53 75.77)" d="M-428.47-104.13h697.86v359.84h-697.86z"/></defs><clipPath id="g"><use xlink:href="#f" overflow="visible"/></clipPath><g clip-path="url(#g)"><path fill="#FFF" d="m2.94 13.06 45.8-9.24 8.97 44.46-45.8 9.23z"/></g></g><g><path fill="#2E3D56" d="m48.13 41.37-.1.01-36.53.03c-.29 0-.53-.24-.53-.53s.24-.53.53-.53c2.33 0 4.23-1.9 4.23-4.24l-.01-8.73c0-5.87 3.62-11.19 8.85-13.05a5.34 5.34 0 0 1 5.17-4.17 5.25 5.25 0 0 1 5.17 4.17 14.09 14.09 0 0 1 8.87 13.02l.01 8.73c0 2.33 1.9 4.23 4.24 4.23.29 0 .53.24.53.53 0 .27-.18.49-.43.53zm-33.45-1.02 30.18-.02a5.27 5.27 0 0 1-2.12-4.23l-.01-8.73c0-5.38-3.41-10.26-8.46-12.14a.54.54 0 0 1-.34-.42 4.2 4.2 0 0 0-4.18-3.58 4.25 4.25 0 0 0-4.18 3.59.52.52 0 0 1-.36.42c-4.96 1.62-8.42 6.61-8.42 12.14l.01 8.73a5.35 5.35 0 0 1-2.12 4.24z"/><path fill="#2E3D56" d="M30.82 46.06a5.26 5.26 0 0 1-6.35-5.19c0-.29.24-.53.53-.53.29 0 .53.24.53.53a4.2 4.2 0 0 0 7.23 2.99 4.2 4.2 0 0 0 1.24-3c0-.29.24-.53.53-.53.29 0 .53.24.53.53a5.3 5.3 0 0 1-4.24 5.2z"/></g></g></svg>
