<svg xmlns="http://www.w3.org/2000/svg" viewBox="115.029 58.1333 155.9 268.8">
  <path d="M 189.00,58.42
           C 196.54,57.51 206.72,58.87 214.00,61.04
             263.59,75.76 280.01,137.11 245.27,174.91
             240.01,180.64 232.97,186.14 226.00,189.63
             214.95,195.16 204.25,197.14 192.00,197.00
             140.94,196.40 109.95,140.63 132.27,96.00
             140.41,79.73 155.53,66.72 173.00,61.44
             179.90,59.35 182.28,59.40 189.00,58.42 Z
           M 193.00,98.32
           C 184.45,99.49 178.27,101.18 172.33,108.04
             156.29,126.53 167.80,155.44 193.00,156.91
             225.14,158.78 235.30,113.47 206.00,100.88
             201.90,99.12 197.44,98.23 193.00,98.32 Z
           M 169.00,253.00
           C 154.80,249.23 129.28,242.11 119.53,230.82
             108.77,218.35 118.64,198.95 135.00,200.10
             141.62,200.56 150.38,207.12 157.00,210.22
             166.27,214.57 180.76,217.88 191.00,218.00
             205.25,218.16 216.94,215.70 230.00,210.00
             238.33,206.36 244.27,199.42 254.00,200.10
             264.66,200.84 271.63,209.51 270.90,220.00
             270.32,228.37 265.75,232.73 259.00,236.94
             249.25,243.00 230.45,251.44 219.00,252.00
             223.76,258.65 243.92,277.92 251.00,285.00
             255.42,289.42 263.18,296.18 265.15,302.00
             270.41,317.57 255.07,331.79 240.00,325.03
             235.25,322.90 231.81,318.61 228.00,315.17
             228.00,315.17 207.00,295.00 207.00,295.00
             204.65,292.65 196.81,283.99 194.00,283.62
             190.29,283.13 183.64,292.28 180.99,295.00
             180.99,295.00 159.00,318.00 159.00,318.00
             153.91,323.02 148.70,327.56 141.00,326.80
             130.93,325.81 123.39,317.13 124.10,307.00
             124.75,297.58 131.00,293.34 136.91,287.00
             136.91,287.00 158.91,264.00 158.91,264.00
             158.91,264.00 169.00,253.00 169.00,253.00 Z" fill="#f7931e"/>
</svg>