<svg xmlns="http://www.w3.org/2000/svg" viewBox="92.2132 145.6 263.9 156.8">
  <path d="M 97.3 145.999 C 97.3 145.999 128.8 145.6 128.8 145.6 C 131.425 145.607 134.057 145.509 136.493 146.699 C 141.925 149.359 144.48 159.677 146.524 165.2 C 151.935 179.837 162.47 201.495 171.304 214.2 C 175.196 219.8 181.342 228.13 186.9 231.945 C 191.268 234.941 195.37 233.527 196.623 228.2 C 196.735 226.856 196.7 224.714 196.623 223.3 C 196.623 223.3 196.623 181.3 196.623 181.3 C 196.693 175.49 195.524 169.512 192.451 164.5 C 190.036 160.559 184.94 155.995 185.668 151.2 C 186.48 145.831 190.974 145.607 195.3 145.6 C 195.3 145.6 235.9 145.6 235.9 145.6 C 245.301 145.614 246.295 149.492 246.491 158.2 C 246.491 158.2 246.491 211.4 246.491 211.4 C 246.4 212.863 246.351 214.907 246.491 216.3 C 247.688 220.682 250.635 222.523 254.8 220.5 C 258.51 218.694 265.041 211.862 267.792 208.6 C 278.887 195.447 288.274 177.807 295.925 162.4 C 300.349 153.496 300.909 145.747 312.9 145.6 C 312.9 145.6 341.6 145.6 341.6 145.6 C 343.007 145.621 344.442 145.621 345.8 146.055 C 355.334 149.086 348.075 162.386 345.275 168 C 337.673 183.197 328.377 197.281 318.969 211.4 C 316.421 215.215 308.343 225.554 308.602 229.6 C 308.917 234.619 318.395 242.795 322 246.4 C 331.513 255.913 343.854 270.151 351.162 281.4 C 355.152 287.553 360.451 298.809 350 301.847 C 348.243 302.358 346.892 302.379 345.1 302.4 C 345.1 302.4 317.8 302.4 317.8 302.4 C 307.118 302.274 303.373 296.31 296.744 289.1 C 287.658 279.223 278.488 268.835 267.4 261.128 C 262.507 257.726 250.348 250.88 246.918 259.7 C 246.309 261.268 246.4 263.613 246.4 265.3 C 246.4 265.3 246.4 287.7 246.4 287.7 C 246.393 290.668 246.414 294.119 244.902 296.786 C 242.144 301.679 233.996 302.337 228.9 302.4 C 202.265 302.708 179.445 292.306 159.6 274.897 C 146.293 263.228 136.08 248.654 126.665 233.8 C 115.43 216.09 107.478 201.516 99.68 182 C 96.929 175.119 93.562 165.445 92.344 158.2 C 91.392 152.544 95.9 148.4 97.3 145.999 Z" fill="#5181b8"/>
</svg>