<svg width="200" height="45" viewBox="0 0 200 45" fill="none" xmlns="http://www.w3.org/2000/svg">
<path d="M31.9019 25.6104V32.0501L27.9049 29.0893L23.9079 32.0501V38.4897H31.9019V32.1241H39.8959V25.6104L35.8989 22.6497L31.9019 25.6104Z" fill="#C99D56"/>
<path d="M15.988 38.4897V32.0501L11.991 29.0893L7.99402 32.0501V25.6104L3.99702 22.6497L0 25.6104V32.1241H7.99402V38.4897H15.988Z" fill="#C99D56"/>
<path d="M15.9877 38.5637V45.0033H23.9077V38.5637L19.9847 35.6029L15.9877 38.5637Z" fill="#C99D56"/>
<path d="M31.9019 12.9533V6.58768H23.9079V13.0273L27.9049 15.988L31.9019 13.0273V19.4669L35.8989 22.3536L39.8959 19.4669V12.9533H31.9019Z" fill="#C99D56"/>
<path d="M7.99402 19.4669V13.0273L11.991 15.988L15.988 13.0273V6.58768H7.99402V12.9533H0V19.4669L3.99702 22.3536L7.99402 19.4669Z" fill="#C99D56"/>
<path d="M23.9077 6.51363V0H15.9877V6.51363L19.9847 9.47437L23.9077 6.51363Z" fill="#C99D56"/>
<path d="M193.115 19.0968H195.335C195.705 19.0968 196.001 19.1708 196.223 19.3188C196.52 19.4669 196.668 19.689 196.816 19.911C196.964 20.1331 197.038 20.4291 197.038 20.7992C197.038 21.0213 196.964 21.2434 196.89 21.4654C196.816 21.6875 196.668 21.8355 196.52 21.9835C196.372 22.1316 196.149 22.2056 196.001 22.2796L197.186 24.2041H196.149L195.113 22.4276H195.039H194.965H194.077V24.2041H193.115V19.0968ZM195.261 21.5394C195.409 21.5394 195.557 21.5394 195.705 21.4654C195.853 21.3914 195.927 21.3174 196.001 21.1693C196.075 21.0213 196.149 20.8733 196.149 20.7252C196.149 20.5772 196.075 20.4291 196.001 20.2811C195.927 20.1331 195.853 20.0591 195.705 19.985C195.557 19.911 195.409 19.911 195.261 19.911H194.003V21.6134H195.261V21.5394Z" fill="black"/>
<path d="M195.113 26.4986C192.374 26.4986 190.228 24.2781 190.228 21.6134C190.228 18.8747 192.448 16.7282 195.113 16.7282C197.852 16.7282 199.998 18.9487 199.998 21.6134C200.072 24.3521 197.852 26.4986 195.113 26.4986ZM195.113 17.2463C192.67 17.2463 190.746 19.2448 190.746 21.6134C190.746 24.056 192.744 25.9805 195.113 25.9805C197.556 25.9805 199.48 23.982 199.48 21.6134C199.48 19.1708 197.556 17.2463 195.113 17.2463Z" fill="black"/>
<path d="M66.0245 12.6572C64.3221 11.6949 62.5457 11.2508 60.5472 11.2508C58.5487 11.2508 56.7722 11.6949 55.0698 12.6572C53.3674 13.6194 52.109 14.8777 51.0728 16.5061C50.1105 18.1346 49.5924 19.911 49.5924 21.8355C49.5924 23.76 50.1105 25.5364 51.0728 27.1648C52.035 28.7932 53.3674 30.0516 55.0698 31.0138C56.7722 31.976 58.5487 32.4202 60.5472 32.4202C62.5457 32.4202 64.3221 31.976 66.0245 31.0138C67.727 30.0516 68.9853 28.7932 70.0215 27.1648C70.9838 25.5364 71.5019 23.76 71.5019 21.8355C71.5019 19.911 70.9838 18.1346 70.0215 16.5061C68.9853 14.9518 67.727 13.6194 66.0245 12.6572ZM66.8387 25.5364C66.1726 26.6467 65.2843 27.4609 64.2481 28.1271C63.1378 28.7192 61.9535 29.0893 60.6212 29.0893C59.2888 29.0893 58.1045 28.7932 56.9942 28.1271C55.884 27.5349 54.9957 26.6467 54.4036 25.5364C53.7374 24.4262 53.4414 23.2418 53.4414 21.9095C53.4414 20.5772 53.7374 19.3188 54.4036 18.2086C55.0698 17.0983 55.884 16.2841 56.9942 15.6179C58.1045 15.0258 59.2888 14.6557 60.6212 14.6557C61.9535 14.6557 63.1378 14.9517 64.2481 15.6179C65.3584 16.2101 66.2466 17.0983 66.8387 18.2086C67.5049 19.3188 67.801 20.5031 67.801 21.9095C67.801 23.3159 67.4309 24.4262 66.8387 25.5364Z" fill="black"/>
<path d="M92.5233 25.2403L92.1532 27.0168H92.0792L91.7831 25.3884L87.7121 11.769H83.7891L79.7921 25.3884L79.4961 27.0168H79.422L79.0519 25.4624L74.7588 11.769H70.8359L77.4975 31.976H81.1245L85.7876 16.8022L90.4508 31.976H94.0777L100.739 11.769H96.8164L92.5233 25.2403Z" fill="black"/>
<path d="M116.357 22.9458C116.949 22.3536 117.467 21.6874 117.764 20.9473C118.134 20.133 118.282 19.3188 118.282 18.3566C118.282 17.0243 117.986 15.914 117.393 14.8777C116.801 13.9155 115.987 13.1013 114.877 12.5832C113.841 12.065 112.582 11.769 111.25 11.769H102.516V31.976H106.217V24.7962H109.696C109.844 24.7962 109.918 24.7962 110.066 24.7962C110.214 24.7962 110.362 24.7962 110.436 24.7962L114.433 31.976H118.652L114.063 24.2041C115.025 23.982 115.765 23.5379 116.357 22.9458ZM112.952 21.2433C112.434 21.5394 111.842 21.6874 111.176 21.6874H106.291V15.0258H111.176C111.842 15.0258 112.434 15.1738 112.952 15.4699C113.47 15.766 113.915 16.1361 114.211 16.6542C114.507 17.1723 114.655 17.6904 114.655 18.2826C114.655 18.9487 114.507 19.5409 114.211 20.059C113.915 20.5772 113.47 21.0213 112.952 21.2433Z" fill="black"/>
<path d="M131.605 17.3203C130.421 16.5802 129.089 16.2841 127.608 16.2841C126.128 16.2841 124.721 16.6542 123.537 17.3944C122.353 18.1346 121.391 19.0968 120.724 20.3551C120.058 21.6134 119.688 22.9458 119.688 24.4261C119.688 25.9065 120.058 27.2388 120.724 28.4972C121.391 29.7555 122.353 30.7177 123.537 31.4579C124.721 32.1981 126.128 32.5682 127.608 32.5682C128.792 32.5682 129.977 32.3461 130.939 31.828C131.975 31.3839 132.789 30.7177 133.456 29.9035C134.122 29.0893 134.64 28.2011 134.862 27.3129H130.939C130.791 27.757 130.495 28.1271 130.199 28.4231C129.903 28.7192 129.533 28.9413 129.014 29.0893C128.57 29.2373 128.052 29.3113 127.46 29.3113C126.646 29.3113 125.906 29.0893 125.24 28.7192C124.573 28.3491 124.055 27.757 123.685 27.0168C123.463 26.4987 123.315 25.9805 123.241 25.3884H135.158C135.158 25.1663 135.158 24.9443 135.232 24.7222C135.232 24.5001 135.232 24.3521 135.232 24.13C135.232 22.7237 134.936 21.4654 134.27 20.2071C133.752 18.9487 132.789 17.9865 131.605 17.3203ZM123.463 22.5016C123.537 22.1316 123.685 21.8355 123.833 21.5394C124.203 20.7992 124.795 20.2811 125.462 19.911C126.128 19.5409 126.868 19.3929 127.608 19.3929C128.274 19.3929 128.94 19.5409 129.533 19.837C130.125 20.133 130.643 20.5031 131.013 20.9473C131.383 21.3914 131.605 21.9835 131.679 22.5016H123.463Z" fill="black"/>
<path d="M149.147 19.3188C148.851 18.6527 148.407 18.1345 147.815 17.6904C147.297 17.2463 146.631 16.8762 145.89 16.6542C145.15 16.4321 144.41 16.2841 143.596 16.2841C142.264 16.2841 141.005 16.6542 139.969 17.3944C138.859 18.1346 138.044 19.0968 137.378 20.3551C136.712 21.6134 136.416 22.9458 136.416 24.4261C136.416 25.9065 136.712 27.2388 137.378 28.4972C137.97 29.7555 138.859 30.7177 139.969 31.4579C141.079 32.1981 142.264 32.5682 143.67 32.5682C144.484 32.5682 145.298 32.4201 145.964 32.1981C146.705 31.976 147.297 31.6059 147.889 31.1618C148.407 30.7177 148.851 30.1996 149.221 29.5334V32.1241H152.626V16.8022H149.221V19.3188H149.147ZM148.407 26.7947C148.037 27.5349 147.445 28.1271 146.779 28.4972C146.112 28.9413 145.298 29.0893 144.484 29.0893C143.67 29.0893 142.93 28.8673 142.264 28.4972C141.597 28.1271 141.005 27.5349 140.635 26.7947C140.265 26.0545 140.043 25.2403 140.043 24.2781C140.043 23.3158 140.265 22.5016 140.635 21.7615C141.005 21.0213 141.597 20.5031 142.264 20.059C142.93 19.6889 143.67 19.4669 144.558 19.4669C145.372 19.4669 146.112 19.6889 146.853 20.133C147.519 20.5772 148.111 21.1693 148.481 21.8355C148.851 22.5757 149.073 23.3899 149.073 24.2041C148.999 25.2403 148.777 26.0545 148.407 26.7947Z" fill="black"/>
<path d="M159.658 11.0288H156.031V31.976H159.658V11.0288Z" fill="black"/>
<path d="M167.874 12.2131H164.247V16.7282H161.064V19.837H164.247V26.2026C164.247 27.757 164.469 29.0153 164.987 29.8295C165.505 30.7177 166.097 31.2358 166.838 31.5319C167.578 31.828 168.392 31.976 169.354 31.976H172.463V29.0153H170.094C169.65 29.0153 169.28 28.9413 168.984 28.7932C168.688 28.6452 168.392 28.3491 168.17 27.979C167.948 27.6089 167.874 27.0168 167.874 26.3506V19.837H172.463V16.7282H167.874V12.2131Z" fill="black"/>
<path d="M184.455 16.7282L180.902 25.9805L180.532 27.5349L180.161 25.9805L176.535 16.7282H172.76L178.607 31.3098L178.459 31.828C178.237 32.4201 178.015 32.9383 177.793 33.2343C177.571 33.5304 177.275 33.8265 176.905 33.9745C176.535 34.1226 176.09 34.2706 175.572 34.2706H173.056V37.2313H175.646C176.757 37.2313 177.645 37.0833 178.311 36.8612C178.977 36.6392 179.643 36.2691 180.161 35.6769C180.68 35.0848 181.272 34.2706 181.79 33.0863C181.864 32.8642 182.012 32.6422 182.086 32.3461C182.16 32.124 182.308 31.828 182.382 31.6059L188.378 16.6542L184.455 16.7282Z" fill="black"/>
<path d="M69.5769 41.4505C69.0587 41.4505 68.6146 41.3025 68.3186 41.0804C67.9485 40.8583 67.8004 40.4882 67.6524 40.0441H68.3186C68.5406 40.6363 68.9107 40.9323 69.5769 40.9323C70.021 40.9323 70.3171 40.8583 70.5391 40.6363C70.7612 40.4882 70.8352 40.2662 70.8352 39.9701C70.8352 39.8221 70.7612 39.6 70.6871 39.526C70.6131 39.452 70.3911 39.304 70.243 39.2299C70.095 39.1559 69.8729 39.0819 69.6509 39.0819C69.4288 39.0079 69.2068 39.0079 68.9847 38.9338C68.7627 38.8598 68.5406 38.7858 68.3926 38.7118C68.2445 38.6378 68.0965 38.4897 67.9485 38.2677C67.8004 38.0456 67.8004 37.8236 67.8004 37.5275C67.8004 37.0834 67.9485 36.7873 68.2445 36.4912C68.5406 36.1952 68.9847 36.0471 69.5769 36.0471C70.021 36.0471 70.4651 36.1211 70.7612 36.3432C71.0572 36.5652 71.2793 36.8613 71.3533 37.3054H70.6871C70.5391 36.8613 70.095 36.5653 69.5029 36.5653C69.1328 36.5653 68.8367 36.6393 68.6887 36.7873C68.4666 36.9353 68.3926 37.1574 68.3926 37.3795C68.3926 37.6015 68.4666 37.7495 68.6146 37.8976C68.7627 38.0456 68.9847 38.1196 69.2068 38.1937C69.4288 38.2677 69.6509 38.3417 69.947 38.4157C70.243 38.4897 70.4651 38.5638 70.6871 38.6378C70.9092 38.7118 71.1313 38.8598 71.2793 39.0819C71.4273 39.3039 71.5014 39.526 71.5014 39.8221C71.5014 40.2662 71.3533 40.5623 70.9832 40.8583C70.6872 41.3024 70.169 41.4505 69.5769 41.4505Z" fill="black"/>
<path d="M74.0177 41.4505C73.4996 41.4505 73.0555 41.3024 72.6854 40.9323C72.3893 40.5622 72.1672 40.0441 72.1672 39.4519C72.1672 38.7858 72.3153 38.3417 72.6854 37.9716C72.9815 37.6015 73.4256 37.4534 73.9437 37.4534C74.2398 37.4534 74.4618 37.5275 74.7579 37.6015C74.9799 37.7495 75.202 37.8976 75.3501 38.0456C75.4981 38.1936 75.5721 38.4157 75.6461 38.6377C75.7201 38.8598 75.7201 39.0819 75.7201 39.2299L75.6461 39.6H72.6854C72.6854 40.0441 72.8334 40.3402 73.0555 40.6362C73.2775 40.8583 73.5736 41.0063 73.9437 41.0063C74.3878 41.0063 74.7579 40.7843 74.98 40.4142H75.5721C75.4241 40.7843 75.202 41.0063 74.98 41.2284C74.6839 41.3764 74.3878 41.4505 74.0177 41.4505ZM72.7594 39.0818H75.202C75.202 38.7118 75.054 38.4157 74.8319 38.1936C74.6099 37.9716 74.3138 37.8975 74.0177 37.8975C73.7216 37.8975 73.4256 37.9716 73.2035 38.1936C72.9074 38.4157 72.7594 38.7118 72.7594 39.0818Z" fill="black"/>
<path d="M76.6084 41.3764V37.4534H77.0525L77.1265 37.9716H77.2005C77.4226 37.6015 77.7927 37.4534 78.2368 37.4534H78.6809V37.9716H78.2368C77.9407 37.9716 77.7186 38.0456 77.4966 38.2676C77.2745 38.4897 77.2005 38.7117 77.2005 38.9338V41.3764H76.6084Z" fill="black"/>
<path d="M80.3096 41.3764L78.7552 37.4534H79.3473L80.6057 40.6362H80.6797L81.938 37.4534H82.5301L80.9757 41.3764H80.3096Z" fill="black"/>
<path d="M83.6401 36.7873C83.5661 36.8613 83.4921 36.9354 83.3441 36.9354C83.27 36.9354 83.122 36.8613 83.048 36.7873C82.974 36.7133 82.8999 36.6393 82.8999 36.4912C82.8999 36.3432 82.974 36.2692 83.048 36.1952C83.122 36.1211 83.196 36.0471 83.3441 36.0471C83.4181 36.0471 83.5661 36.1211 83.6401 36.1952C83.7141 36.2692 83.7882 36.3432 83.7882 36.4912C83.7882 36.6393 83.7141 36.7133 83.6401 36.7873ZM83.122 41.3765V37.4535H83.7141V41.3765H83.122Z" fill="black"/>
<path d="M86.3052 41.4505C85.7871 41.4505 85.343 41.3024 84.9729 40.9323C84.6768 40.5622 84.4548 40.0441 84.4548 39.4519C84.4548 38.7858 84.6028 38.3417 84.9729 37.9716C85.269 37.6015 85.7131 37.4534 86.3052 37.4534C86.6753 37.4534 87.0454 37.5275 87.3415 37.7495C87.6376 37.9716 87.8596 38.1936 87.9336 38.5637H87.3415C87.1194 38.1936 86.7493 37.9716 86.3052 37.9716C85.9351 37.9716 85.6391 38.1196 85.417 38.3417C85.195 38.6377 85.0469 39.0078 85.0469 39.4519C85.0469 39.8961 85.195 40.2661 85.417 40.5622C85.6391 40.8583 85.9351 40.9323 86.3052 40.9323C86.7493 40.9323 87.1194 40.7103 87.3415 40.3402H87.9336C87.7856 40.7103 87.5635 40.9323 87.3415 41.1544C87.0454 41.3764 86.7493 41.4505 86.3052 41.4505Z" fill="black"/>
<path d="M90.3763 41.4505C89.8581 41.4505 89.414 41.3024 89.0439 40.9323C88.7479 40.5622 88.5258 40.0441 88.5258 39.4519C88.5258 38.7858 88.6738 38.3417 89.0439 37.9716C89.34 37.6015 89.7841 37.4534 90.3022 37.4534C90.5983 37.4534 90.8204 37.5275 91.1164 37.6015C91.3385 37.7495 91.5606 37.8976 91.7086 38.0456C91.8566 38.1936 91.9307 38.4157 92.0047 38.6377C92.0787 38.8598 92.0787 39.0819 92.0787 39.2299L92.0047 39.6H89.0439C89.0439 40.0441 89.192 40.3402 89.414 40.6362C89.6361 40.8583 89.9321 41.0063 90.3022 41.0063C90.7463 41.0063 91.1165 40.7843 91.3385 40.4142H91.9307C91.7826 40.7843 91.5606 41.0063 91.3385 41.2284C91.1165 41.3764 90.7463 41.4505 90.3763 41.4505ZM89.118 39.0818H91.5606C91.5606 38.7118 91.4125 38.4157 91.1905 38.1936C90.9684 37.9716 90.6723 37.8975 90.3763 37.8975C90.0802 37.8975 89.7841 37.9716 89.562 38.1936C89.266 38.4157 89.192 38.7118 89.118 39.0818Z" fill="black"/>
<path d="M93.5589 41.3025C93.4849 41.3765 93.4109 41.4505 93.2628 41.4505C93.1888 41.4505 93.0408 41.3765 92.9667 41.3025C92.8927 41.2285 92.8187 41.1544 92.8187 41.0064C92.8187 40.9324 92.8927 40.7844 92.9667 40.7103C93.0408 40.6363 93.1148 40.5623 93.2628 40.5623C93.3368 40.5623 93.4849 40.6363 93.5589 40.7103C93.6329 40.7844 93.7069 40.8584 93.7069 41.0064C93.7069 41.1544 93.6329 41.2285 93.5589 41.3025Z" fill="black"/>
<path d="M96.4459 41.3765V36.1212H99.7768V36.7133H97.1121V38.4898H99.6287V39.0819H97.1121V40.9324H99.8508V41.5245H96.4459V41.3765Z" fill="black"/>
<path d="M100.221 41.3765L101.627 39.3039L100.295 37.3795H100.961L101.997 38.8598L103.033 37.3795H103.699L102.367 39.3039L103.773 41.3765H103.107L101.997 39.748L100.887 41.3765H100.221Z" fill="black"/>
<path d="M104.218 42.9308V37.5275H104.662L104.736 38.0456H104.81C105.106 37.6755 105.55 37.4534 106.068 37.4534C106.586 37.4534 106.957 37.6015 107.327 37.9716C107.623 38.3417 107.771 38.8598 107.771 39.4519C107.771 40.1181 107.623 40.5622 107.327 40.9323C107.031 41.3024 106.586 41.4505 106.068 41.4505C105.55 41.4505 105.106 41.2284 104.81 40.8583H104.736V42.8568H104.218V42.9308ZM105.106 40.5622C105.328 40.8583 105.624 40.9323 105.994 40.9323C106.364 40.9323 106.66 40.7843 106.883 40.5622C107.105 40.2661 107.179 39.8961 107.179 39.4519C107.179 38.9338 107.105 38.5637 106.883 38.3417C106.66 38.0456 106.364 37.9716 105.994 37.9716C105.624 37.9716 105.328 38.1196 105.106 38.3417C104.884 38.6377 104.81 39.0078 104.81 39.4519C104.81 39.8961 104.884 40.2661 105.106 40.5622Z" fill="black"/>
<path d="M110.287 41.4505C109.769 41.4505 109.325 41.3024 108.955 40.9323C108.658 40.5622 108.436 40.0441 108.436 39.4519C108.436 38.7858 108.584 38.3417 108.955 37.9716C109.251 37.6015 109.695 37.4534 110.213 37.4534C110.509 37.4534 110.731 37.5275 111.027 37.6015C111.249 37.7495 111.471 37.8976 111.619 38.0456C111.767 38.1936 111.841 38.4157 111.915 38.6377C111.989 38.8598 111.989 39.0819 111.989 39.2299L111.915 39.6H108.955C108.955 40.0441 109.103 40.3402 109.325 40.6362C109.547 40.8583 109.843 41.0063 110.213 41.0063C110.657 41.0063 111.027 40.7843 111.249 40.4142H111.841C111.693 40.7843 111.471 41.0063 111.249 41.2284C111.027 41.3764 110.657 41.4505 110.287 41.4505ZM109.029 39.0818H111.471C111.471 38.7118 111.323 38.4157 111.101 38.1936C110.879 37.9716 110.583 37.8975 110.287 37.8975C109.991 37.8975 109.695 37.9716 109.473 38.1936C109.177 38.4157 109.103 38.7118 109.029 39.0818Z" fill="black"/>
<path d="M112.877 41.3764V37.4534H113.322L113.396 37.9716H113.47C113.692 37.6015 114.062 37.4534 114.506 37.4534H114.95V37.9716H114.506C114.21 37.9716 113.988 38.0456 113.766 38.2676C113.544 38.4897 113.47 38.7117 113.47 38.9338V41.3764H112.877Z" fill="black"/>
<path d="M116.801 41.3765C116.505 41.3765 116.282 41.3024 116.134 41.0804C115.912 40.8583 115.838 40.6363 115.838 40.4142V37.9716H115.246V37.4535H115.838L115.912 36.4172H116.431V37.4535H117.467V37.9716H116.431V40.4142C116.431 40.5622 116.505 40.6363 116.579 40.7103C116.653 40.7843 116.801 40.8583 116.875 40.8583H117.467V41.3765H116.801Z" fill="black"/>
<path d="M118.799 36.7873C118.725 36.8613 118.651 36.9354 118.503 36.9354C118.429 36.9354 118.281 36.8613 118.207 36.7873C118.133 36.7133 118.059 36.6393 118.059 36.4912C118.059 36.3432 118.133 36.2692 118.207 36.1952C118.281 36.1211 118.355 36.0471 118.503 36.0471C118.577 36.0471 118.725 36.1211 118.799 36.1952C118.873 36.2692 118.947 36.3432 118.947 36.4912C118.947 36.6393 118.873 36.7133 118.799 36.7873ZM118.281 41.3765V37.4535H118.873V41.3765H118.281Z" fill="black"/>
<path d="M121.094 41.4505C120.724 41.4505 120.354 41.3764 120.132 41.1544C119.836 40.9323 119.688 40.7103 119.614 40.3402H120.206C120.28 40.4882 120.354 40.6362 120.502 40.7843C120.65 40.8583 120.872 40.9323 121.094 40.9323C121.39 40.9323 121.612 40.8583 121.76 40.7843C121.908 40.7102 121.982 40.5622 121.982 40.3402C121.982 40.1921 121.908 40.0441 121.834 39.9701C121.686 39.8961 121.538 39.822 121.39 39.748C121.242 39.674 121.02 39.674 120.798 39.6C120.576 39.526 120.428 39.4519 120.206 39.4519C120.058 39.3779 119.91 39.3039 119.762 39.0818C119.614 38.8598 119.614 38.7118 119.614 38.4897C119.614 38.1936 119.762 37.9716 119.984 37.7495C120.206 37.5275 120.576 37.4534 121.02 37.4534C121.39 37.4534 121.686 37.5275 121.982 37.6755C122.278 37.8235 122.426 38.1196 122.5 38.4157H121.908C121.76 38.1196 121.464 37.9716 121.094 37.9716C120.798 37.9716 120.576 38.0456 120.502 38.1196C120.428 38.1936 120.28 38.3417 120.28 38.5637C120.28 38.7858 120.354 38.8598 120.502 39.0078C120.65 39.0818 120.872 39.1559 121.094 39.2299C121.316 39.3039 121.538 39.3039 121.76 39.3779C121.982 39.4519 122.204 39.526 122.352 39.748C122.5 39.896 122.574 40.1181 122.574 40.4142C122.574 40.7102 122.426 41.0063 122.13 41.2284C121.982 41.3764 121.612 41.4505 121.094 41.4505Z" fill="black"/>
<path d="M125.091 41.4505C124.572 41.4505 124.128 41.3024 123.758 40.9323C123.462 40.5622 123.24 40.0441 123.24 39.4519C123.24 38.7858 123.388 38.3417 123.758 37.9716C124.054 37.6015 124.498 37.4534 125.017 37.4534C125.313 37.4534 125.535 37.5275 125.831 37.6015C126.053 37.7495 126.275 37.8976 126.423 38.0456C126.571 38.1936 126.645 38.4157 126.719 38.6377C126.793 38.8598 126.793 39.0819 126.793 39.2299L126.719 39.6H123.758C123.758 40.0441 123.906 40.3402 124.128 40.6362C124.35 40.8583 124.646 41.0063 125.017 41.0063C125.461 41.0063 125.831 40.7843 126.053 40.4142H126.645C126.497 40.7843 126.275 41.0063 126.053 41.2284C125.757 41.3764 125.461 41.4505 125.091 41.4505ZM123.832 39.0818H126.275C126.275 38.7118 126.127 38.4157 125.905 38.1936C125.683 37.9716 125.387 37.8975 125.091 37.8975C124.794 37.8975 124.498 37.9716 124.276 38.1936C123.98 38.4157 123.832 38.7118 123.832 39.0818Z" fill="black"/>
<path d="M128.274 41.3025C128.2 41.3765 128.126 41.4505 127.978 41.4505C127.904 41.4505 127.756 41.3765 127.682 41.3025C127.608 41.2285 127.534 41.1544 127.534 41.0064C127.534 40.9324 127.608 40.7844 127.682 40.7103C127.756 40.6363 127.83 40.5623 127.978 40.5623C128.052 40.5623 128.2 40.6363 128.274 40.7103C128.348 40.7844 128.422 40.8584 128.422 41.0064C128.348 41.1544 128.348 41.2285 128.274 41.3025Z" fill="black"/>
<path d="M132.122 41.3765V36.6393H130.42V36.1212H134.491V36.7133H132.789V41.4505H132.122V41.3765Z" fill="black"/>
<path d="M136.193 41.4505C135.675 41.4505 135.231 41.3024 134.861 40.9323C134.565 40.5622 134.343 40.0441 134.343 39.4519C134.343 38.7858 134.491 38.3417 134.861 37.9716C135.157 37.6015 135.601 37.4534 136.119 37.4534C136.415 37.4534 136.637 37.5275 136.934 37.6015C137.23 37.6755 137.378 37.8976 137.526 38.0456C137.674 38.1936 137.748 38.4157 137.822 38.6377C137.896 38.8598 137.896 39.0819 137.896 39.2299L137.822 39.6H134.861C134.861 40.0441 135.009 40.3402 135.231 40.6362C135.453 40.8583 135.749 41.0063 136.119 41.0063C136.563 41.0063 136.934 40.7843 137.156 40.4142H137.748C137.6 40.7843 137.378 41.0063 137.156 41.2284C136.934 41.3764 136.563 41.4505 136.193 41.4505ZM134.935 39.0818H137.378C137.378 38.7118 137.23 38.4157 137.008 38.1936C136.785 37.9716 136.489 37.8975 136.193 37.8975C135.897 37.8975 135.601 37.9716 135.379 38.1936C135.083 38.4157 135.009 38.7118 134.935 39.0818Z" fill="black"/>
<path d="M140.413 41.4505C139.894 41.4505 139.45 41.3024 139.08 40.9323C138.784 40.5622 138.562 40.0441 138.562 39.4519C138.562 38.7858 138.71 38.3417 139.08 37.9716C139.376 37.6015 139.82 37.4534 140.413 37.4534C140.783 37.4534 141.153 37.5275 141.449 37.7495C141.745 37.9716 141.967 38.1936 142.041 38.5637H141.449C141.227 38.1936 140.857 37.9716 140.413 37.9716C140.042 37.9716 139.746 38.1196 139.524 38.3417C139.302 38.6377 139.154 39.0078 139.154 39.4519C139.154 39.8961 139.302 40.2661 139.524 40.5622C139.746 40.8583 140.042 40.9323 140.413 40.9323C140.857 40.9323 141.227 40.7103 141.449 40.3402H142.041C141.893 40.7103 141.671 40.9323 141.449 41.1544C141.153 41.3764 140.783 41.4505 140.413 41.4505Z" fill="black"/>
<path d="M142.855 41.3765V36.1212H143.447V37.9716H143.521C143.743 37.6015 144.113 37.3795 144.631 37.3795C145.076 37.3795 145.372 37.5275 145.668 37.8236C145.964 38.1196 146.112 38.4897 146.112 39.0079V41.4505H145.52V39.0079C145.52 38.7118 145.446 38.4157 145.224 38.1937C145.076 37.9716 144.78 37.8976 144.483 37.8976C144.187 37.8976 143.965 37.9716 143.743 38.1937C143.521 38.4157 143.447 38.6378 143.447 38.9339V41.3765H142.855Z" fill="black"/>
<path d="M147.074 41.3765V37.4535H147.518L147.592 37.9716H147.666C147.888 37.6015 148.259 37.3795 148.777 37.3795C149.221 37.3795 149.517 37.5275 149.813 37.8235C150.109 38.1196 150.257 38.4897 150.257 39.0079V41.4505H149.665V39.0079C149.665 38.7118 149.591 38.4157 149.369 38.1936C149.221 37.9716 148.925 37.8976 148.629 37.8976C148.333 37.8976 148.11 37.9716 147.888 38.1936C147.666 38.4157 147.592 38.6378 147.592 38.9338V41.3765H147.074Z" fill="black"/>
<path d="M154.18 40.9323C153.884 41.3024 153.44 41.4505 152.848 41.4505C152.329 41.4505 151.885 41.3024 151.515 40.9323C151.219 40.5622 150.997 40.0441 150.997 39.4519C150.997 38.7858 151.145 38.3417 151.515 37.9716C151.811 37.6015 152.255 37.4534 152.848 37.4534C153.366 37.4534 153.81 37.6015 154.18 37.9716C154.476 38.3417 154.698 38.8598 154.698 39.4519C154.698 40.1181 154.55 40.5622 154.18 40.9323ZM151.959 40.5622C152.181 40.8583 152.477 40.9323 152.848 40.9323C153.218 40.9323 153.514 40.7843 153.736 40.5622C153.958 40.2661 154.106 39.8961 154.106 39.4519C154.106 39.0078 153.958 38.6377 153.736 38.3417C153.514 38.0456 153.218 37.9716 152.848 37.9716C152.477 37.9716 152.181 38.1196 151.959 38.3417C151.737 38.6377 151.589 39.0078 151.589 39.4519C151.663 39.8961 151.737 40.2661 151.959 40.5622Z" fill="black"/>
<path d="M155.586 41.3765V36.1212H156.178V41.3765H155.586Z" fill="black"/>
<path d="M160.176 40.9323C159.88 41.3024 159.436 41.4505 158.843 41.4505C158.325 41.4505 157.881 41.3024 157.511 40.9323C157.215 40.5622 156.993 40.0441 156.993 39.4519C156.993 38.7858 157.141 38.3417 157.511 37.9716C157.807 37.6015 158.251 37.4534 158.843 37.4534C159.362 37.4534 159.806 37.6015 160.176 37.9716C160.472 38.3417 160.694 38.8598 160.694 39.4519C160.694 40.1181 160.546 40.5622 160.176 40.9323ZM158.029 40.5622C158.251 40.8583 158.547 40.9323 158.917 40.9323C159.288 40.9323 159.584 40.7843 159.806 40.5622C160.028 40.2661 160.176 39.8961 160.176 39.4519C160.176 39.0078 160.028 38.6377 159.806 38.3417C159.584 38.0456 159.288 37.9716 158.917 37.9716C158.547 37.9716 158.251 38.1196 158.029 38.3417C157.807 38.6377 157.659 39.0078 157.659 39.4519C157.659 39.8961 157.733 40.2661 158.029 40.5622Z" fill="black"/>
<path d="M163.211 42.9309C162.767 42.9309 162.471 42.8568 162.1 42.6348C161.804 42.4127 161.582 42.1167 161.434 41.7466H162.026C162.248 42.1907 162.619 42.4127 163.137 42.4127C163.507 42.4127 163.803 42.3387 163.951 42.1167C164.173 41.9686 164.247 41.6725 164.247 41.3025V40.6363H164.173C163.877 41.0064 163.507 41.1544 162.915 41.1544C162.396 41.1544 162.026 41.0064 161.656 40.6363C161.36 40.2662 161.212 39.8221 161.212 39.2299C161.212 38.6378 161.36 38.1937 161.656 37.8236C161.952 37.4535 162.396 37.3055 162.915 37.3055C163.507 37.3055 163.877 37.5275 164.173 37.8976H164.247L164.321 37.3795H164.765V41.2284C164.765 41.7466 164.617 42.1167 164.321 42.4127C164.173 42.7828 163.729 42.9309 163.211 42.9309ZM162.322 40.2662C162.545 40.4883 162.841 40.6363 163.211 40.6363C163.581 40.6363 163.877 40.4883 164.099 40.2662C164.321 40.0441 164.395 39.6741 164.395 39.2299C164.395 38.7858 164.321 38.4897 164.099 38.1937C163.877 37.9716 163.581 37.8236 163.211 37.8236C162.841 37.8236 162.545 37.9716 162.322 38.1937C162.1 38.4157 162.026 38.7858 162.026 39.2299C161.952 39.7481 162.1 40.0441 162.322 40.2662Z" fill="black"/>
<path d="M166.541 42.9309L167.134 41.4505L165.505 37.5275H166.097L167.356 40.6363H167.43L168.688 37.5275H169.28L167.134 42.9309H166.541Z" fill="black"/>
<path d="M170.168 41.3025C170.094 41.3765 170.02 41.4505 169.872 41.4505C169.724 41.4505 169.65 41.3765 169.576 41.3025C169.502 41.2285 169.428 41.1544 169.428 41.0064C169.428 40.9324 169.502 40.7844 169.576 40.7103C169.65 40.6363 169.724 40.5623 169.872 40.5623C169.946 40.5623 170.094 40.6363 170.168 40.7103C170.242 40.7844 170.316 40.8584 170.316 41.0064C170.242 41.1544 170.242 41.2285 170.168 41.3025Z" fill="black"/>
</svg>
