<svg id="Ebene_1" data-name="Ebene 1" xmlns="http://www.w3.org/2000/svg" width="320" height="180" viewBox="0 0 320 180"><defs><style>.cls-1{fill:#fff;}</style></defs><title>img_freeprofile-white</title><g id="Page-1"><g id="Artboard"><polygon id="Path" class="cls-1" points="315.65 79.22 240.6 28.93 240.27 55.25 181.7 78.34 181.68 89.94 278.55 57.56 279.09 87.73 182.09 113.64 182.22 124.02 239.25 111.58 315.5 137.09 315.65 79.22"/><polygon id="Path-2" class="cls-1" points="315.15 156.68 240.42 140.03 182.5 149.25 182.25 159.16 239.94 151.9 239.52 180.1 315.19 180.81 315.15 156.68"/><path id="Path-5" class="cls-1" d="M111.42,94.75c2.33,1.67,1.33,7.89,1.33,7.89a.78.78,0,0,1,.46.95c-.27.8-.53,1.77-1.16,1.85-1.32.17-1.2,4.38-.15,6.63a4.59,4.59,0,0,0,3,2.63s4.31,1.46,4.88,3.07,2.35,14.67,2.35,14.67l9,11.74s-9.9,11.13-10.38,12c-.37.64-.65,25.57-.65,25.57l-12.54-.25-.42-7-5.06,6.86-9.61.13-.07-18.49a4.54,4.54,0,0,1-3.33-3.38c-4.2-17-1.62-40.54-1.62-40.54s-.16-1.88,3.86-2.84,9.75-.76,11.33-3.72c1.74-3.26-.15-7.11-.15-7.11s-.82-.41-1.17-2.35c-.18-1,.38-1,.38-1s-.6-3.53.08-5.21C103.08,93.7,109.08,93.08,111.42,94.75Z"/><path id="Path-4" class="cls-1" d="M16.93,78.93C22.17,78.64,25,85.7,25.69,88s2.39,8.76,2.39,8.76l5.09,1.1s4-.14,3.74,14.26-.19,26.33-1.52,27.12a17.42,17.42,0,0,1-2.9,1.32s-2.5,19.23-2.24,23.06S33.5,181,33.5,181l-16.34-.59s-3.89-16.49-4.4-19.58-3.84-21-3.84-21L4.56,128.77s-1.12-16,0-19.47c1-3,7.45-6.91,7.45-6.91a3.8,3.8,0,0,0,1.29-2.48,6.16,6.16,0,0,0-1.38-3.22,6.1,6.1,0,0,1-1-3.31c0-2-.55-6.67.17-7.71S12.39,79.18,16.93,78.93Z"/><path id="Path-3" class="cls-1" d="M60.65,35.73A9.62,9.62,0,0,1,70.55,44a62.65,62.65,0,0,1,.07,7.7,1.06,1.06,0,0,1,1.45,1.12A12.77,12.77,0,0,1,70.62,57s-.88,4.58-1.85,4.81-1,2.75-1,2.75l0,5.94s3.14-.27,2.22,1.53c-1,2,.39,4.58,1.59,5.24,4.57,2.52,7.55,3.06,10.41,5.29,4,3.16,2,7.67,4.64,14.12a9.72,9.72,0,0,0,2.8,3.82s-1,11.57-.16,17.38c.25,1.73,3.84,2.19,3.84,2.19L108,121.5l-5,40.64-6.71-1.83c-2.38-.65-2.44-1.67-4.76-1.3-1.89.3-2.34.29-3.65,2.63-1.43,2.53-1.51,3.33-1.84,7.12a70.26,70.26,0,0,0,.19,11.89l-37-.16a96.34,96.34,0,0,0-3.54-13.7C44.22,162.46,41,155.65,41,155.65s-3-.56-3.71-3c-1.86-6.37-7-57.61-7-57.61s0-.27,0-.73A30.6,30.6,0,0,1,31,86.78c.77-2.83,1-3.34,2.7-4.46,8.29-5.55,7.93-3.37,16.22-8.88,1.51-1,2.45-1.25,3.37-4.14.87-2.72.21-7.06.21-7.06a17.48,17.48,0,0,1-2.31-2.18,6.15,6.15,0,0,1-1.3-3.13,7.75,7.75,0,0,1-.73-3.23c.1-1.29,1.16-1.26,1.16-1.26s-1.64-5.76-1.18-8.09C50.38,38.1,52.83,35.73,60.65,35.73Z"/></g></g></svg>