<?xml version="1.0" standalone="no"?>
<!DOCTYPE svg PUBLIC "-//W3C//DTD SVG 20010904//EN"
 "http://www.w3.org/TR/2001/REC-SVG-20010904/DTD/svg10.dtd">
<svg version="1.0" xmlns="http://www.w3.org/2000/svg"
 width="2000.000000pt" height="2000.000000pt" viewBox="0 0 2000.000000 2000.000000"
 preserveAspectRatio="xMidYMid meet">
<metadata>
Created by potrace 1.11, written by Peter Selinger 2001-2013
</metadata>
<g transform="translate(0.000000,2000.000000) scale(0.100000,-0.100000)"
fill="#000000" stroke="none">
<path d="M4740 18085 c1053 -1053 1918 -1915 1922 -1915 5 0 8 862 8 1915 l0
1915 -1922 0 -1923 0 1915 -1915z"/>
<path d="M8000 16000 l0 -4000 -4000 0 -4000 0 0 -2000 0 -2000 4000 0 4000 0
0 -4000 0 -4000 2000 0 2000 0 0 4000 0 4000 4000 0 4000 0 0 2000 0 2000
-4000 0 -4000 0 0 4000 0 4000 -2000 0 -2000 0 0 -4000z"/>
<path d="M13330 18085 c0 -1053 3 -1915 8 -1915 4 0 869 862 1922 1915 l1915
1915 -1923 0 -1922 0 0 -1915z"/>
<path d="M15722 17607 l-2392 -2392 2 -938 3 -937 3330 3330 3330 3330 -940 0
-940 0 -2393 -2393z"/>
<path d="M0 19055 l0 -940 2393 -2393 2392 -2392 938 2 937 3 -3330 3330
-3330 3330 0 -940z"/>
<path d="M0 15252 l0 -1922 1915 0 c1053 0 1915 3 1915 8 0 4 -862 869 -1915
1922 l-1915 1915 0 -1923z"/>
<path d="M18082 15257 c-1051 -1051 -1912 -1915 -1912 -1920 0 -4 862 -7 1915
-7 l1915 0 0 1920 c0 1056 -1 1920 -3 1920 -1 0 -863 -861 -1915 -1913z"/>
<path d="M0 4748 l0 -1923 1915 1915 c1053 1053 1915 1918 1915 1922 0 5 -862
8 -1915 8 l-1915 0 0 -1922z"/>
<path d="M16665 3340 l3330 -3330 3 937 2 938 -2392 2392 -2393 2393 -940 0
-940 0 3330 -3330z"/>
<path d="M16170 6662 c0 -4 862 -869 1915 -1922 l1915 -1915 0 1923 0 1922
-1915 0 c-1053 0 -1915 -3 -1915 -8z"/>
<path d="M3335 3330 l-3330 -3330 940 0 940 0 2393 2393 2392 2392 -2 938 -3
937 -3330 -3330z"/>
<path d="M4740 1915 l-1915 -1915 1923 0 1922 0 0 1915 c0 1053 -3 1915 -8
1915 -4 0 -869 -862 -1922 -1915z"/>
<path d="M13330 1915 l0 -1915 1922 0 1923 0 -1915 1915 c-1053 1053 -1918
1915 -1922 1915 -5 0 -8 -862 -8 -1915z"/>
</g>
</svg>
