<?xml version="1.0" encoding="utf-8"?>
<!-- Generator: Adobe Illustrator 25.4.1, SVG Export Plug-In . SVG Version: 6.00 Build 0)  -->
<svg version="1.1" id="Capa_1" xmlns="http://www.w3.org/2000/svg" xmlns:xlink="http://www.w3.org/1999/xlink" x="0px" y="0px"
	 viewBox="0 0 45.7 45.7" style="enable-background:new 0 0 45.7 45.7;" xml:space="preserve">
<g>
	<path d="M34.2,0.5c-3.9,0-7.4,2.3-9.5,5.9c0,0-0.7,1.2-1.8,1.2c-1.1,0-1.8-1.2-1.8-1.2c-2.1-3.5-5.6-5.9-9.5-5.9
		C5.2,0.5,0,6.6,0,14.1c0,1.8,0.3,3.5,0.8,5c3.2,11.8,17.7,25.7,22.1,26.2c4.4-0.5,18.8-14.4,22.1-26.2c0.5-1.5,0.8-3.2,0.8-5
		C45.7,6.6,40.6,0.5,34.2,0.5z"/>
</g>
</svg>
