<svg xmlns="http://www.w3.org/2000/svg" viewBox="0.96 2.0592 16.09 13.28">
  <path d="M16.34 4.16H12v-.54a1.6 1.6 0 0 0-1.65-1.56h-2.7c-.91 0-1.65.7-1.65 1.56v.54H1.66a.7.7 0 0 0-.7.7v9.78c0 .39.31.7.7.7h14.69a.7.7 0 0 0 .7-.7V4.86a.72.72 0 0 0-.71-.7zM7 3.62c0-.3.3-.56.65-.56h2.7c.35 0 .65.26.65.56v.54H7v-.54zm9.04 1.54v2.82h-5.47v-.43a.6.6 0 0 0-.6-.6H8.04a.6.6 0 0 0-.6.6v.43H1.96V5.16h14.08zM9.57 7.95v1.13H8.44V7.95h1.13zm-7.61 6.39V8.99h5.48v.5c0 .33.27.6.6.6h1.93a.6.6 0 0 0 .6-.6v-.5h5.47v5.35H1.96z" fill="#000000"/>
</svg>