<svg xmlns="http://www.w3.org/2000/svg" viewBox="0.97 2.15 15.6 13.7">
  <path d="M6.29 12.24h4.95c.28 0 .5-.22.5-.5s-.22-.5-.5-.5H6.29a.5.5 0 0 0-.5.5c0 .27.22.5.5.5zm0 1.91h4.95c.28 0 .5-.22.5-.5s-.22-.5-.5-.5H6.29c-.28 0-.5.22-.5.5s.22.5.5.5z
M15 5.26h-1.31V2.65a.5.5 0 0 0-.5-.5H4.35a.5.5 0 0 0-.5.5v2.61H2.54c-.87 0-1.57.71-1.57 1.57v4.79c0 .87.71 1.57 1.57 1.57h1.31v2.16c0 .28.22.5.5.5h8.84a.5.5 0 0 0 .5-.5v-2.16H15c.87 0 1.57-.71 1.57-1.57V6.83c0-.87-.71-1.57-1.57-1.57zM4.85 3.15h7.84v2.11H4.85V3.15zm7.84 11.7H4.85v-4.37h7.84v4.37zm2.88-3.23c0 .32-.26.57-.57.57h-1.31V9.98a.5.5 0 0 0-.5-.5H4.35a.5.5 0 0 0-.5.5v2.21H2.54a.57.57 0 0 1-.57-.57V6.83c0-.32.26-.57.57-.57H15c.32 0 .57.26.57.57v4.79z" fill="#000000"/>
</svg>