<?xml version="1.0" encoding="utf-8"?>
<!-- Generator: Adobe Illustrator 25.4.1, SVG Export Plug-In . SVG Version: 6.00 Build 0)  -->
<svg version="1.1" id="Слой_1" xmlns="http://www.w3.org/2000/svg" xmlns:xlink="http://www.w3.org/1999/xlink" x="0px" y="0px"
	 viewBox="0 0 17.4 18" style="enable-background:new 0 0 17.4 18;" xml:space="preserve">
<path d="M3.8,17.4c-0.2,0-0.4-0.1-0.5-0.2C3,17,2.9,16.6,3,16.2L4.7,11L0.5,7.4c-0.3-0.2-0.4-0.6-0.3-1c0.1-0.3,0.5-0.6,0.8-0.6h5
	l1.8-4.7C8,0.8,8.3,0.6,8.7,0.6c0.4,0,0.7,0.2,0.8,0.6l1.8,4.7h5c0.4,0,0.7,0.2,0.8,0.6c0.1,0.3,0,0.7-0.3,1L12.7,11l1.9,5.3
	c0.1,0.3,0,0.7-0.3,0.9c-0.3,0.3-0.8,0.2-1,0.1l-0.1,0l-4.5-3.2l-4.3,3.2C4.2,17.3,4,17.4,3.8,17.4z"/>
</svg>
