<?xml version="1.0" encoding="utf-8"?>
<!-- Generator: Adobe Illustrator 25.4.1, SVG Export Plug-In . SVG Version: 6.00 Build 0)  -->
<svg version="1.1" id="Слой_1" xmlns="http://www.w3.org/2000/svg" xmlns:xlink="http://www.w3.org/1999/xlink" x="0px" y="0px"
	 viewBox="0 0 18 26" style="enable-background:new 0 0 18 26;" xml:space="preserve">
<style type="text/css">
	.st0{fill:#FFBB94;}
</style>
<path class="st0" d="M1.7,25.8l-1.7-1l0.3-0.4c0,0,0-0.1,0-0.2v-20c0-1,0.4-1.9,1.1-2.7C2.1,0.9,3,0.5,4,0.5h10c1,0,1.9,0.4,2.7,1.1
	c0.7,0.7,1.1,1.6,1.1,2.7v20c0,0.2-0.1,0.4-0.2,0.6c-0.1,0.2-0.3,0.4-0.4,0.5c-0.4,0.2-0.9,0.2-1.2,0l-6.9-4l-6.9,4
	c0,0-0.1,0-0.1,0.1L1.7,25.8z M4,2.5C3.5,2.5,3.1,2.7,2.8,3C2.4,3.3,2.2,3.8,2.2,4.2V23L9,19.1l6.8,3.9V4.2c0-0.5-0.2-0.9-0.5-1.2
	c-0.3-0.3-0.8-0.5-1.2-0.5H4z"/>
</svg>
