<svg width="23" height="20" viewBox="0 0 23 20" fill="none" xmlns="http://www.w3.org/2000/svg">
<path d="M13.4667 2.22222L15.5 4.44444H20V17.7778H2.22222V4.44444H6.72222L8.75556 2.22222H13.4667ZM14.4444 0H7.77778L5.74444 2.22222H2.22222C1 2.22222 0 3.22222 0 4.44444V17.7778C0 19 1 20 2.22222 20H20C21.2222 20 22.2222 19 22.2222 17.7778V4.44444C22.2222 3.22222 21.2222 2.22222 20 2.22222H16.4778L14.4444 0ZM11.1111 7.77778C12.9444 7.77778 14.4444 9.27778 14.4444 11.1111C14.4444 12.9444 12.9444 14.4444 11.1111 14.4444C9.27778 14.4444 7.77778 12.9444 7.77778 11.1111C7.77778 9.27778 9.27778 7.77778 11.1111 7.77778ZM11.1111 5.55556C8.04444 5.55556 5.55556 8.04445 5.55556 11.1111C5.55556 14.1778 8.04444 16.6667 11.1111 16.6667C14.1778 16.6667 16.6667 14.1778 16.6667 11.1111C16.6667 8.04445 14.1778 5.55556 11.1111 5.55556Z" fill="#999999"/>
</svg>
