<svg width="19" height="19" viewBox="0 0 19 19" fill="none" xmlns="http://www.w3.org/2000/svg">
<path d="M7.22494 15.9047C6.93939 15.9047 6.66026 15.9894 6.42284 16.148C6.18542 16.3067 6.00037 16.5322 5.8911 16.796C5.78183 17.0598 5.75324 17.3501 5.80894 17.6301C5.86465 17.9102 6.00215 18.1674 6.20406 18.3693C6.40597 18.5713 6.66322 18.7088 6.94328 18.7645C7.22334 18.8202 7.51362 18.7916 7.77743 18.6823C8.04124 18.573 8.26672 18.388 8.42536 18.1506C8.584 17.9131 8.66867 17.634 8.66867 17.3485C8.66867 16.9656 8.51657 16.5983 8.24581 16.3276C7.97506 16.0568 7.60784 15.9047 7.22494 15.9047ZM17.3311 13.0173H5.7812C5.52593 13.0173 5.28112 12.9159 5.10062 12.7354C4.92012 12.5549 4.81871 12.31 4.81871 12.0548C4.81871 11.7995 4.92012 11.5547 5.10062 11.3742C5.28112 11.1937 5.52593 11.0923 5.7812 11.0923H13.9537C14.5808 11.0903 15.1903 10.8852 15.6909 10.5076C16.1916 10.13 16.5563 9.60028 16.7305 8.9979L18.256 3.65608C18.2968 3.51292 18.3039 3.36225 18.2766 3.21592C18.2493 3.06959 18.1884 2.93158 18.0988 2.81274C18.0091 2.6939 17.8932 2.59748 17.76 2.53104C17.6267 2.46461 17.4799 2.42997 17.3311 2.42986H5.53095C5.33154 1.86875 4.96389 1.3828 4.47815 1.03831C3.99241 0.693809 3.41223 0.507533 2.81673 0.504883H1.93124C1.67597 0.504883 1.43116 0.606288 1.25066 0.78679C1.07015 0.967292 0.96875 1.21211 0.96875 1.46737C0.96875 1.72264 1.07015 1.96746 1.25066 2.14796C1.43116 2.32846 1.67597 2.42986 1.93124 2.42986H2.81769C3.0267 2.43053 3.22987 2.49888 3.39678 2.62467C3.5637 2.75046 3.68538 2.92694 3.74361 3.12767L3.8928 3.65223V3.65704L5.47224 9.18366C4.73706 9.26226 4.06004 9.61989 3.58071 10.1828C3.10138 10.7458 2.85626 11.4712 2.89587 12.2095C2.93548 12.9478 3.25681 13.6428 3.79362 14.1512C4.33043 14.6596 5.04183 14.9428 5.7812 14.9422H17.3311C17.5864 14.9422 17.8312 14.8408 18.0117 14.6603C18.1922 14.4798 18.2936 14.235 18.2936 13.9798C18.2936 13.7245 18.1922 13.4797 18.0117 13.2992C17.8312 13.1187 17.5864 13.0173 17.3311 13.0173ZM16.0548 4.35485L14.8806 8.46853C14.8225 8.6696 14.7007 8.8464 14.5336 8.97239C14.3665 9.09839 14.163 9.16678 13.9537 9.1673H7.46941L7.22397 8.30876L6.09497 4.35485H16.0548ZM14.9249 15.9047C14.6393 15.9047 14.3602 15.9894 14.1228 16.148C13.8853 16.3067 13.7003 16.5322 13.591 16.796C13.4817 17.0598 13.4532 17.3501 13.5089 17.6301C13.5646 17.9102 13.7021 18.1674 13.904 18.3693C14.1059 18.5713 14.3631 18.7088 14.6432 18.7645C14.9233 18.8202 15.2135 18.7916 15.4774 18.6823C15.7412 18.573 15.9666 18.388 16.1253 18.1506C16.2839 17.9131 16.3686 17.634 16.3686 17.3485C16.3686 16.9656 16.2165 16.5983 15.9457 16.3276C15.675 16.0568 15.3078 15.9047 14.9249 15.9047Z" fill="#443E3E"/>
</svg>
