<svg width="21" height="20" viewBox="0 0 21 20" fill="none" xmlns="http://www.w3.org/2000/svg">
<path d="M11.0008 0C9.68762 0 8.38726 0.258658 7.17401 0.761205C5.96075 1.26375 4.85836 2.00035 3.92977 2.92893C2.05441 4.8043 1.00084 7.34784 1.00084 10C0.9921 12.3091 1.79164 14.5485 3.26084 16.33L1.26084 18.33C1.12208 18.4706 1.02809 18.6492 0.990715 18.8432C0.95334 19.0372 0.974263 19.2379 1.05084 19.42C1.1339 19.5999 1.26855 19.7511 1.43769 19.8544C1.60683 19.9577 1.80284 20.0083 2.00084 20H11.0008C13.653 20 16.1965 18.9464 18.0719 17.0711C19.9473 15.1957 21.0008 12.6522 21.0008 10C21.0008 7.34784 19.9473 4.8043 18.0719 2.92893C16.1965 1.05357 13.653 0 11.0008 0Z" fill="#5C2018"/>
</svg>
