<svg width="30" height="31" viewBox="0 0 30 31" fill="none" xmlns="http://www.w3.org/2000/svg">
<g clip-path="url(#clip0_256_200)">
<path d="M4.86328 23.915C5.39314 23.915 5.94681 23.8207 6.47392 23.6518C6.30524 24.1792 6.21094 24.7328 6.21094 25.2627C6.21094 27.8987 8.35762 30.126 10.8984 30.126C12.6379 30.126 14.1923 29.0818 15 27.5776C15.8077 29.0818 17.3621 30.126 19.1016 30.126C21.6424 30.126 23.7891 27.8987 23.7891 25.2627C23.7891 24.7388 23.6874 24.1842 23.5062 23.6518C24.0424 23.8201 24.6048 23.915 25.1367 23.915C27.7728 23.915 30 21.7684 30 19.2275C30 17.4645 29.0211 15.9261 27.5787 15.126C29.0211 14.3258 30 12.7875 30 11.0244C30 8.4836 27.7728 6.33691 25.1367 6.33691C24.5936 6.33691 24.0502 6.42252 23.5398 6.5777C23.6998 6.06203 23.7891 5.51843 23.7891 4.98926C23.7891 2.35323 21.6424 0.125977 19.1016 0.125977C17.3621 0.125977 15.8077 1.17014 15 2.67435C14.1923 1.17014 12.6379 0.125977 10.8984 0.125977C8.35762 0.125977 6.21094 2.35323 6.21094 4.98926C6.21094 5.51912 6.30524 6.07278 6.47415 6.5999C5.94681 6.43121 5.39314 6.33691 4.86328 6.33691C3.94958 6.33691 3.04871 6.59807 2.25815 7.092C1.98372 7.26343 1.90041 7.62483 2.07184 7.89926C2.24327 8.17392 2.6049 8.257 2.8791 8.0858C3.48335 7.70837 4.16931 7.50879 4.86328 7.50879C5.83786 7.50879 6.9944 7.95442 7.61398 8.56851L11.7149 12.6694C11.302 13.2196 11.0369 13.8593 10.9403 14.54H4.86328C3.09334 14.54 1.49048 13.2249 1.21445 11.5463C1.16203 11.227 0.860367 11.0102 0.541306 11.0631C0.221786 11.1157 0.00572204 11.4169 0.058136 11.7365C0.237808 12.8291 0.83107 13.8376 1.72829 14.5757C1.98532 14.7872 2.26135 14.9701 2.5502 15.1248C1.04485 15.9323 0 17.4874 0 19.2275C0 21.7684 2.22702 23.915 4.86328 23.915ZM10.8984 28.9541C8.99277 28.9541 7.38281 27.2636 7.38281 25.2627C7.38281 24.2881 7.82867 23.1311 8.44299 22.5118L12.5434 18.4111C13.0936 18.824 13.7334 19.0891 14.4141 19.1857V25.2627C14.4141 27.2636 12.8041 28.9541 10.8984 28.9541ZM15 12.1963C16.6168 12.1963 17.9297 13.5043 17.9297 15.126C17.9297 16.7428 16.6216 18.0557 15 18.0557C13.3836 18.0557 12.0703 16.7481 12.0703 15.126C12.0703 13.503 13.3843 12.1963 15 12.1963ZM19.1016 28.9541C17.1959 28.9541 15.5859 27.2636 15.5859 25.2627V19.1857C16.2653 19.0891 16.9041 18.8249 17.4536 18.4132L21.4982 22.5113C22.1466 23.165 22.6172 24.322 22.6172 25.2627C22.6172 27.2636 21.0072 28.9541 19.1016 28.9541ZM28.8281 19.2275C28.8281 21.1332 27.1376 22.7432 25.1367 22.7432C24.1443 22.7432 22.936 22.2872 22.3267 21.6828L18.2829 17.5853C18.6969 17.0346 18.9629 16.3938 19.0597 15.7119H25.3125C27.2511 15.7119 28.8281 17.2889 28.8281 19.2275ZM28.8281 11.0244C28.8281 12.963 27.2511 14.54 25.3125 14.54H19.0597C18.9631 13.8596 18.698 13.2196 18.2851 12.6696C19.9374 11.0175 22.2883 8.66739 22.4448 8.50992C22.4451 8.50946 22.4453 8.50923 22.4455 8.509C23.0532 7.90132 24.1095 7.50879 25.1367 7.50879C27.1376 7.50879 28.8281 9.11874 28.8281 11.0244ZM19.1016 1.29785C21.0072 1.29785 22.6172 2.98837 22.6172 4.98926C22.6172 5.97643 22.2132 7.05927 21.6115 7.68594C21.5158 7.7823 19.0423 10.2556 17.4566 11.8408C16.9066 11.4279 16.2666 11.1629 15.5859 11.0661V4.98926C15.5859 2.98837 17.1959 1.29785 19.1016 1.29785ZM10.8984 1.29785C12.8041 1.29785 14.4141 2.98837 14.4141 4.98926V11.0663C13.7336 11.1629 13.0936 11.4279 12.5436 11.8408L8.44322 7.74065C7.8289 7.12129 7.38281 5.96407 7.38281 4.98926C7.38281 2.98837 8.99277 1.29785 10.8984 1.29785ZM4.86328 15.7119H10.9403C11.0369 16.3924 11.302 17.0323 11.7149 17.5823L7.61467 21.6828C6.99532 22.2973 5.83809 22.7432 4.86328 22.7432C2.8624 22.7432 1.17188 21.1332 1.17188 19.2275C1.17188 17.3219 2.8624 15.7119 4.86328 15.7119Z" fill="#BC4639"/>
<path d="M0.996094 8.73926C0.672684 8.73926 0.410156 9.00179 0.410156 9.3252C0.410156 9.64861 0.672684 9.91113 0.996094 9.91113C1.3195 9.91113 1.58203 9.64861 1.58203 9.3252C1.58203 9.00179 1.3195 8.73926 0.996094 8.73926Z" fill="#BC4639"/>
</g>
<defs>
<clipPath id="clip0_256_200">
<rect width="30" height="30" fill="white" transform="translate(0 0.125977)"/>
</clipPath>
</defs>
</svg>
