<svg width="30" height="30" viewBox="0 0 30 30" fill="none" xmlns="http://www.w3.org/2000/svg">
<path d="M1.87496 21.5624C2.2458 21.5624 2.6083 21.4525 2.91664 21.2465C3.22497 21.0404 3.46529 20.7476 3.60721 20.405C3.74912 20.0624 3.78625 19.6854 3.7139 19.3217C3.64156 18.958 3.46298 18.6239 3.20076 18.3617C2.93855 18.0994 2.60446 17.9209 2.24075 17.8485C1.87704 17.7762 1.50005 17.8133 1.15745 17.9552C0.814841 18.0971 0.522012 18.3375 0.315988 18.6458C0.109965 18.9541 0 19.3166 0 19.6875C0.000573772 20.1846 0.198298 20.6611 0.549798 21.0126C0.901298 21.3641 1.37787 21.5619 1.87496 21.5624ZM1.87496 18.75C2.06038 18.75 2.24163 18.805 2.3958 18.908C2.54997 19.011 2.67013 19.1574 2.74108 19.3287C2.81204 19.5 2.83061 19.6885 2.79443 19.8704C2.75826 20.0522 2.66897 20.2193 2.53786 20.3504C2.40675 20.4815 2.23971 20.5708 2.05786 20.6069C1.876 20.6431 1.68751 20.6245 1.51621 20.5536C1.3449 20.4826 1.19849 20.3625 1.09548 20.2083C0.992464 20.0541 0.937482 19.8729 0.937482 19.6875C0.937761 19.4389 1.03662 19.2006 1.21237 19.0249C1.38812 18.8491 1.62641 18.7503 1.87496 18.75Z" fill="#BC4639"/>
<path d="M17.0073 10.9646L16.2717 9.61976C16.2313 9.54597 16.1718 9.4844 16.0995 9.4415C16.0271 9.39861 15.9446 9.37598 15.8605 9.37598C15.7763 9.37598 15.6938 9.39861 15.6214 9.4415C15.5491 9.4844 15.4896 9.54597 15.4492 9.61976L14.7137 10.9646L13.3688 11.7002C13.295 11.7406 13.2334 11.8001 13.1905 11.8724C13.1476 11.9448 13.125 12.0273 13.125 12.1114C13.125 12.1956 13.1476 12.2781 13.1905 12.3505C13.2334 12.4228 13.295 12.4823 13.3688 12.5227L14.7137 13.2582L15.4492 14.6031C15.4896 14.6769 15.5491 14.7385 15.6214 14.7814C15.6938 14.8243 15.7763 14.8469 15.8605 14.8469C15.9446 14.8469 16.0271 14.8243 16.0995 14.7814C16.1718 14.7385 16.2313 14.6769 16.2717 14.6031L17.0073 13.2582L18.3521 12.5227C18.4259 12.4823 18.4875 12.4228 18.5304 12.3505C18.5733 12.2781 18.5959 12.1956 18.5959 12.1114C18.5959 12.0273 18.5733 11.9448 18.5304 11.8724C18.4875 11.8001 18.4259 11.7406 18.3521 11.7002L17.0073 10.9646ZM16.437 12.5016C16.3583 12.5446 16.2937 12.6093 16.2507 12.6879L15.8605 13.4013L15.4703 12.6878C15.4273 12.6092 15.3626 12.5445 15.284 12.5015L14.5706 12.1114L15.284 11.7212C15.3626 11.6782 15.4273 11.6135 15.4703 11.5349L15.8605 10.8214L16.2507 11.5349C16.2937 11.6135 16.3583 11.6782 16.437 11.7212L17.1504 12.1114L16.437 12.5016Z" fill="#BC4639"/>
<path d="M10.5563 22.5207L11.9012 23.2563L12.6367 24.6012C12.6771 24.675 12.7366 24.7365 12.8089 24.7794C12.8813 24.8223 12.9638 24.845 13.048 24.845C13.1321 24.845 13.2146 24.8223 13.287 24.7794C13.3593 24.7365 13.4188 24.675 13.4592 24.6012L14.1948 23.2563L15.5396 22.5207C15.6134 22.4804 15.675 22.4209 15.7179 22.3485C15.7608 22.2762 15.7834 22.1936 15.7834 22.1095C15.7834 22.0254 15.7608 21.9428 15.7179 21.8705C15.675 21.7981 15.6134 21.7386 15.5396 21.6983L14.1948 20.9627L13.4592 19.6178C13.4188 19.544 13.3593 19.4824 13.287 19.4396C13.2146 19.3967 13.1321 19.374 13.048 19.374C12.9638 19.374 12.8813 19.3967 12.8089 19.4396C12.7366 19.4824 12.6771 19.544 12.6367 19.6178L11.9012 20.9627L10.5563 21.6983C10.4825 21.7386 10.4209 21.7981 10.378 21.8705C10.3351 21.9428 10.3125 22.0254 10.3125 22.1095C10.3125 22.1936 10.3351 22.2762 10.378 22.3485C10.4209 22.4209 10.4825 22.4804 10.5563 22.5207ZM12.4715 21.7193C12.5501 21.6763 12.6148 21.6116 12.6578 21.533L13.048 20.8195L13.4382 21.533C13.4812 21.6116 13.5458 21.6763 13.6245 21.7193L14.3379 22.1095L13.6245 22.4996C13.5458 22.5426 13.4812 22.6073 13.4382 22.686L13.048 23.3994L12.6578 22.686C12.6148 22.6073 12.5501 22.5426 12.4715 22.4996L11.7581 22.1095L12.4715 21.7193Z" fill="#BC4639"/>
<path d="M22.9688 1.87598H23.9062V2.81346H22.9688V1.87598Z" fill="#BC4639"/>
<path d="M11.7188 4.21973H12.6562V5.15721H11.7188V4.21973Z" fill="#BC4639"/>
<path d="M22.7812 8.4834H23.4393V9.42088H22.7812V8.4834Z" fill="#BC4639"/>
<path d="M2.34443 12.6565C2.502 12.6565 2.65919 12.6408 2.81364 12.6096C2.81337 12.6252 2.81321 12.6409 2.81317 12.6565C2.81309 13.2017 3.00314 13.7299 3.35059 14.1501C3.69804 14.5703 4.18114 14.8562 4.71669 14.9585C5.25224 15.0608 5.8067 14.9732 6.2846 14.7107C6.76249 14.4482 7.13388 14.0273 7.33482 13.5204L8.53591 15.4689H7.03184C6.90752 15.4689 6.7883 15.5183 6.70039 15.6062C6.61249 15.6941 6.5631 15.8133 6.5631 15.9377V21.2684C6.5631 22.501 9.21811 28.5264 9.75054 29.7218C9.78738 29.8045 9.84742 29.8749 9.92339 29.9242C9.99937 29.9736 10.088 29.9999 10.1786 29.9999H14.3111C14.4028 29.9999 14.4925 29.973 14.5691 29.9226C14.6456 29.8721 14.7057 29.8003 14.7419 29.716C15.2547 28.5211 17.8129 22.4979 17.8129 21.2684V15.9377C17.8129 15.8133 17.7635 15.6941 17.6756 15.6062C17.5877 15.5183 17.4685 15.4689 17.3441 15.4689H12.6567V9.32841C13.1858 9.21966 13.6611 8.93183 14.0027 8.51344C14.3442 8.09504 14.5311 7.57168 14.5317 7.03158C14.5317 7.016 14.5317 7.00053 14.5312 6.98471C14.8716 7.05364 15.223 7.04608 15.56 6.96259C15.8971 6.8791 16.2113 6.72176 16.4801 6.50194C16.7489 6.28212 16.9655 6.00532 17.1143 5.69155C17.263 5.37778 17.3402 5.03488 17.3402 4.68765C17.3402 4.34041 17.263 3.99751 17.1143 3.68374C16.9655 3.36997 16.7489 3.09317 16.4801 2.87335C16.2113 2.65353 15.8971 2.49619 15.56 2.4127C15.223 2.32921 14.8716 2.32165 14.5312 2.39058C14.5312 2.37499 14.5317 2.35953 14.5317 2.34371C14.5317 1.72212 14.2848 1.12599 13.8452 0.686455C13.4057 0.246925 12.8096 0 12.188 0C11.5664 0 10.9703 0.246925 10.5307 0.686455C10.0912 1.12599 9.84429 1.72212 9.84429 2.34371C9.84429 2.35929 9.84429 2.37476 9.84476 2.39058C9.50443 2.32165 9.15304 2.32921 8.81599 2.4127C8.47894 2.49619 8.16465 2.65353 7.89585 2.87335C7.62705 3.09317 7.41045 3.36997 7.26171 3.68374C7.11297 3.99751 7.03582 4.34041 7.03582 4.68765C7.03582 5.03488 7.11297 5.37778 7.26171 5.69155C7.41045 6.00532 7.62705 6.28212 7.89585 6.50194C8.16465 6.72176 8.47894 6.8791 8.81599 6.96259C9.15304 7.04608 9.50443 7.05364 9.84476 6.98471C9.84476 7.0003 9.84429 7.01576 9.84429 7.03158C9.84493 7.57168 10.0318 8.09504 10.3733 8.51344C10.7149 8.93183 11.1902 9.21966 11.7193 9.32841V15.4689H9.63728L7.90294 12.6548C7.92515 12.6554 7.94729 12.6565 7.96962 12.6565C8.29704 12.6561 8.62075 12.5871 8.91988 12.4539C9.21901 12.3208 9.48692 12.1264 9.70635 11.8834C9.92577 11.6404 10.0918 11.3541 10.1938 11.0429C10.2959 10.7318 10.3315 10.4028 10.2986 10.077C10.2657 9.75124 10.1648 9.43599 10.0026 9.15157C9.84039 8.86716 9.62037 8.61989 9.35674 8.42571C9.09311 8.23153 8.79171 8.09474 8.47198 8.02416C8.15225 7.95359 7.82129 7.95079 7.50041 8.01594C7.50068 8.00032 7.50084 7.98469 7.50088 7.96907C7.50088 7.34748 7.25395 6.75135 6.81442 6.31182C6.37489 5.87229 5.77876 5.62536 5.15717 5.62536C4.53558 5.62536 3.93945 5.87229 3.49992 6.31182C3.06039 6.75135 2.81346 7.34748 2.81346 7.96907C2.81346 7.98465 2.81346 8.00012 2.81393 8.01594C2.49283 7.95024 2.16151 7.95261 1.84138 8.0229C1.52125 8.09318 1.21942 8.22982 0.955368 8.424C0.691319 8.61817 0.470926 8.86556 0.308418 9.15019C0.145909 9.43482 0.0448982 9.75037 0.011906 10.0765C-0.0210861 10.4026 0.014674 10.7319 0.116878 11.0434C0.219081 11.3548 0.385457 11.6413 0.605262 11.8844C0.825067 12.1276 1.09342 12.3219 1.39298 12.4549C1.69255 12.5878 2.01667 12.6565 2.34443 12.6565ZM10.7818 7.03158C10.7812 6.8069 10.835 6.58542 10.9388 6.38613C10.9877 6.29133 11.0029 6.18267 10.9817 6.07811C10.9605 5.97354 10.9043 5.87933 10.8224 5.81103C10.7404 5.74273 10.6376 5.70444 10.5309 5.70247C10.4243 5.7005 10.3201 5.73498 10.2357 5.8002C9.98995 5.99167 9.68707 6.09516 9.37555 6.0941C9.00259 6.0941 8.64491 5.94595 8.3812 5.68223C8.11748 5.41851 7.96932 5.06083 7.96932 4.68788C7.96932 4.31493 8.11748 3.95725 8.3812 3.69353C8.64491 3.42981 9.00259 3.28166 9.37555 3.28166C9.68704 3.2807 9.98985 3.38427 10.2355 3.57579C10.3199 3.64102 10.4241 3.67549 10.5307 3.67353C10.6374 3.67156 10.7402 3.63326 10.8222 3.56496C10.9041 3.49666 10.9603 3.40245 10.9815 3.29789C11.0027 3.19332 10.9876 3.08467 10.9386 2.98986C10.8349 2.79049 10.7811 2.56892 10.7818 2.34417C10.7818 1.97122 10.9299 1.61354 11.1936 1.34982C11.4574 1.08611 11.815 0.937951 12.188 0.937951C12.5609 0.937951 12.9186 1.08611 13.1823 1.34982C13.4461 1.61354 13.5942 1.97122 13.5942 2.34417C13.5948 2.56886 13.5409 2.79034 13.4372 2.98963C13.3883 3.08443 13.3731 3.19309 13.3943 3.29765C13.4155 3.40222 13.4717 3.49643 13.5536 3.56473C13.6356 3.63303 13.7384 3.67132 13.8451 3.67329C13.9517 3.67526 14.0559 3.64078 14.1403 3.57556C14.386 3.38408 14.6889 3.2806 15.0004 3.28166C15.3734 3.28166 15.7311 3.42981 15.9948 3.69353C16.2585 3.95725 16.4067 4.31493 16.4067 4.68788C16.4067 5.06083 16.2585 5.41851 15.9948 5.68223C15.7311 5.94595 15.3734 6.0941 15.0004 6.0941C14.6889 6.09506 14.3861 5.99149 14.1405 5.79997C14.0561 5.73474 13.9519 5.70026 13.8452 5.70223C13.7386 5.7042 13.6358 5.7425 13.5538 5.8108C13.4719 5.8791 13.4156 5.97331 13.3945 6.07787C13.3733 6.18244 13.3884 6.29109 13.4374 6.38589C13.5411 6.58527 13.5949 6.80684 13.5942 7.03158C13.5942 7.40454 13.4461 7.76222 13.1823 8.02593C12.9186 8.28965 12.5609 8.43781 12.188 8.43781C11.815 8.43781 11.4574 8.28965 11.1936 8.02593C10.9299 7.76222 10.7818 7.40454 10.7818 7.03158ZM16.8754 21.2684C16.8754 21.9623 15.417 25.7439 14.0018 29.0624H10.4834C9.01485 25.7438 7.50058 21.9606 7.50058 21.2684V16.4064H16.8754V21.2684ZM2.34443 8.90655C2.65594 8.90559 2.95877 9.00916 3.20445 9.20068C3.28889 9.26603 3.39311 9.3006 3.49987 9.29866C3.60663 9.29671 3.70952 9.25838 3.79153 9.19C3.87354 9.12162 3.92974 9.02729 3.95084 8.92262C3.97194 8.81795 3.95667 8.70922 3.90756 8.61441C3.80383 8.41515 3.74999 8.1937 3.75065 7.96907C3.75065 7.59611 3.89881 7.23843 4.16253 6.97472C4.42624 6.711 4.78392 6.56284 5.15688 6.56284C5.52983 6.56284 5.88751 6.711 6.15123 6.97472C6.41495 7.23843 6.5631 7.59611 6.5631 7.96907C6.56371 8.19377 6.50983 8.41527 6.40607 8.61458C6.35714 8.70938 6.34201 8.81804 6.36318 8.9226C6.38435 9.02717 6.44056 9.12138 6.52252 9.18968C6.60447 9.25798 6.70728 9.29627 6.81395 9.29824C6.92061 9.30021 7.02476 9.26573 7.10918 9.20051C7.35493 9.00904 7.65779 8.90553 7.96932 8.90655C8.34228 8.90655 8.69996 9.0547 8.96367 9.31842C9.22739 9.58214 9.37555 9.93982 9.37555 10.3128C9.37555 10.6857 9.22739 11.0434 8.96367 11.3071C8.69996 11.5708 8.34228 11.719 7.96932 11.719C7.65781 11.72 7.35498 11.6164 7.1093 11.4249C7.02486 11.3595 6.92064 11.3249 6.81388 11.3269C6.70713 11.3288 6.60423 11.3672 6.52222 11.4355C6.44022 11.5039 6.38401 11.5983 6.36291 11.7029C6.34181 11.8076 6.35708 11.9163 6.40619 12.0111C6.50992 12.2104 6.56376 12.4318 6.5631 12.6565C6.5631 13.0294 6.41495 13.3871 6.15123 13.6508C5.88751 13.9145 5.52983 14.0627 5.15688 14.0627C4.78392 14.0627 4.42624 13.9145 4.16253 13.6508C3.89881 13.3871 3.75065 13.0294 3.75065 12.6565C3.75005 12.4318 3.80393 12.2103 3.90768 12.011C3.95662 11.9162 3.97175 11.8075 3.95058 11.7029C3.9294 11.5984 3.8732 11.5042 3.79124 11.4359C3.70928 11.3676 3.60648 11.3293 3.49981 11.3273C3.39314 11.3253 3.28899 11.3598 3.20457 11.425C2.95883 11.6165 2.65596 11.72 2.34443 11.719C1.97148 11.719 1.6138 11.5708 1.35008 11.3071C1.08636 11.0434 0.938208 10.6857 0.938208 10.3128C0.938208 9.93982 1.08636 9.58214 1.35008 9.31842C1.6138 9.0547 1.97148 8.90655 2.34443 8.90655Z" fill="#BC4639"/>
<path d="M4.6875 9.84473H5.62498V10.7822H4.6875V9.84473Z" fill="#BC4639"/>
<path d="M8.4375 17.3438H9.37498V19.2187H8.4375V17.3438Z" fill="#BC4639"/>
<path d="M29.9195 19.4278L29.9177 19.4251L28.0446 16.6155C27.9887 16.5316 27.9072 16.4679 27.8122 16.4339L24.0255 15.0815L23.6628 12.7608C24.1597 13.0173 24.7319 13.0876 25.2761 12.9592C25.8203 12.8308 26.3007 12.5121 26.6306 12.0606C26.9604 11.6091 27.118 11.0545 27.0749 10.497C27.0317 9.93952 26.7907 9.4158 26.3954 9.02039C26.3844 9.00944 26.3733 8.9986 26.3621 8.98776C26.4933 8.90055 26.6155 8.80045 26.7268 8.68893C26.9471 8.47189 27.1222 8.2134 27.2422 7.92837C27.3621 7.64333 27.4244 7.33738 27.4255 7.02814C27.4267 6.71891 27.3666 6.4125 27.2488 6.12659C27.131 5.84067 26.9578 5.5809 26.7391 5.36224C26.5204 5.14357 26.2607 4.97035 25.9748 4.85253C25.6888 4.73472 25.3824 4.67466 25.0732 4.6758C24.764 4.67694 24.458 4.73927 24.173 4.85919C23.8879 4.97911 23.6295 5.15425 23.4124 5.37452C23.3009 5.48586 23.2008 5.60807 23.1136 5.73932C23.1028 5.72811 23.092 5.717 23.0809 5.70598C22.6414 5.26645 22.0453 5.01952 21.4237 5.01952C20.8021 5.01952 20.206 5.26645 19.7664 5.70598C19.3269 6.14551 19.08 6.74165 19.08 7.36324C19.08 7.98484 19.3269 8.58098 19.7664 9.02051C19.7775 9.03149 19.7886 9.04236 19.7998 9.05314C19.5102 9.2452 19.2669 9.49914 19.0875 9.79663C18.908 10.0941 18.7968 10.4277 18.7619 10.7734C18.727 11.1191 18.7692 11.4682 18.8856 11.7956C19.002 12.1229 19.1897 12.4204 19.435 12.6664C19.867 13.0987 20.4508 13.345 21.0618 13.3528C21.6729 13.3606 22.2628 13.1292 22.7057 12.7082L23.0205 14.7226L21.2499 14.0902C21.1663 14.0603 21.076 14.0548 20.9894 14.0743C20.9028 14.0938 20.8235 14.1374 20.7607 14.2002C20.734 14.2269 20.1063 14.8664 20.2186 15.7781C20.3015 16.4519 20.7535 17.0644 21.5609 17.6015V21.2549C21.5594 21.7165 21.6872 22.1693 21.9299 22.562C22.1726 22.9547 22.5204 23.2715 22.934 23.4765L23.4358 23.7274V24.8439C23.4358 24.9079 23.4489 24.9711 23.4743 25.0298L24.2459 26.8158V30.0001H25.1834V26.7189C25.1834 26.655 25.1704 26.5917 25.145 26.533L24.3733 24.747V20.2864L24.7527 20.4381C24.5513 21.3586 24.2968 23.5552 25.9168 25.1754L26.5798 24.5125C24.9379 22.8706 25.7474 20.3292 25.7555 20.3048C25.7933 20.1914 25.7864 20.0678 25.7361 19.9593C25.6858 19.8509 25.5959 19.7657 25.4849 19.7214L23.1889 18.803C22.795 18.5273 22.6245 18.1921 22.6674 17.7798C22.6788 17.676 22.7012 17.5738 22.7342 17.4747L29.0607 20.0051V30.0001H29.9982V19.6878C29.9982 19.5952 29.9707 19.5048 29.9193 19.4279L29.9195 19.4278ZM22.0865 12.0036C21.9283 12.1619 21.7347 12.2801 21.5217 12.3485C21.3086 12.4169 21.0824 12.4335 20.8616 12.3969C20.6409 12.3603 20.4321 12.2716 20.2526 12.138C20.073 12.0045 19.9279 11.8301 19.8293 11.6293C19.7308 11.4284 19.6815 11.2069 19.6857 10.9832C19.6899 10.7595 19.7474 10.54 19.8535 10.343C19.9596 10.146 20.1111 9.97718 20.2955 9.8505C20.48 9.72383 20.692 9.64299 20.9139 9.6147C21.0199 9.60126 21.1181 9.55203 21.1922 9.47517C21.2664 9.3983 21.3121 9.29841 21.3217 9.19204C21.3314 9.08566 21.3044 8.97918 21.2453 8.89023C21.1862 8.80127 21.0984 8.73517 20.9966 8.70288C20.7823 8.63533 20.5876 8.5168 20.4292 8.35747C20.1691 8.09303 20.0239 7.7365 20.0254 7.36553C20.0269 6.99456 20.175 6.63922 20.4373 6.3769C20.6996 6.11459 21.0549 5.96655 21.4259 5.96504C21.7969 5.96353 22.1534 6.10867 22.4179 6.36884C22.5772 6.52726 22.6957 6.72196 22.7633 6.93625C22.7956 7.03806 22.8617 7.12579 22.9506 7.18492C23.0396 7.24404 23.146 7.27101 23.2524 7.26135C23.3588 7.2517 23.4587 7.20601 23.5355 7.13184C23.6124 7.05767 23.6616 6.95948 23.6751 6.85352C23.7134 6.54438 23.8543 6.25702 24.0752 6.03744C24.2054 5.90511 24.3605 5.79987 24.5316 5.72779C24.7026 5.6557 24.8863 5.6182 25.0719 5.61745C25.2575 5.61669 25.4415 5.65269 25.6131 5.72338C25.7848 5.79407 25.9407 5.89805 26.072 6.02931C26.2032 6.16057 26.3072 6.31652 26.3779 6.48817C26.4486 6.65981 26.4846 6.84375 26.4838 7.02938C26.4831 7.21501 26.4456 7.39866 26.3735 7.56972C26.3014 7.74079 26.1962 7.89589 26.0638 8.02607C25.8443 8.24701 25.5569 8.38788 25.2478 8.42615C25.1419 8.43957 25.0436 8.48878 24.9695 8.56564C24.8953 8.64249 24.8496 8.74238 24.8399 8.84875C24.8302 8.95513 24.8572 9.06162 24.9163 9.15059C24.9754 9.23955 25.0632 9.30566 25.165 9.33796C25.3949 9.41119 25.6021 9.54234 25.7667 9.71881C25.9313 9.89528 26.0477 10.1111 26.1047 10.3456C26.1617 10.5801 26.1574 10.8253 26.0923 11.0576C26.0271 11.2899 25.9032 11.5016 25.7326 11.6722C25.562 11.8429 25.3503 11.9667 25.118 12.0319C24.8857 12.097 24.6405 12.1013 24.406 12.0443C24.1715 11.9873 23.9557 11.8709 23.7792 11.7063C23.6027 11.5417 23.4716 11.3345 23.3983 11.1046C23.366 11.0028 23.2999 10.915 23.211 10.8559C23.122 10.7968 23.0155 10.7699 22.9091 10.7795C22.8028 10.7892 22.7029 10.8349 22.626 10.9091C22.5492 10.9833 22.5 11.0815 22.4865 11.1874C22.4483 11.4966 22.3074 11.784 22.0865 12.0036ZM27.3507 17.2646L28.3024 18.6921L24.3422 17.1081L24.1902 16.1359L27.3507 17.2646ZM22.7071 19.6091C22.7341 19.6271 22.7629 19.6422 22.7931 19.6543L23.4358 19.9114V22.6793L23.3532 22.6379C23.0957 22.5103 22.8791 22.313 22.7281 22.0686C22.577 21.8241 22.4974 21.5422 22.4984 21.2548V19.4546C22.5633 19.5075 22.6324 19.5592 22.7071 19.609V19.6091ZM22.6724 16.4402C22.5726 16.4002 22.462 16.3958 22.3593 16.4277C22.2566 16.4596 22.168 16.5259 22.1084 16.6154C22.075 16.6654 22.0429 16.7191 22.0122 16.7753C21.4958 16.4174 21.199 16.0394 21.15 15.6722C21.1277 15.4713 21.1685 15.2684 21.2667 15.0918L23.1852 15.7769L23.33 16.7031L22.6724 16.4402Z" fill="#BC4639"/>
</svg>
