<svg width="30" height="30" viewBox="0 0 30 30" fill="none" xmlns="http://www.w3.org/2000/svg">
<path d="M15.5427 0H7.41048C7.09767 0 6.84375 0.253924 6.84375 0.566725V29.4234C6.84375 29.7362 7.09767 29.9901 7.41048 29.9901H15.5427C15.8555 29.9901 16.1094 29.7362 16.1094 29.4234V0.566725C16.1094 0.253924 15.8555 0 15.5427 0ZM14.976 3.82524H13.5763C13.2635 3.82524 13.0095 4.07917 13.0095 4.39197C13.0095 4.70477 13.2635 4.95869 13.5763 4.95869H14.976V6.85149H13.5763C13.2635 6.85149 13.0095 7.10541 13.0095 7.41821C13.0095 7.73101 13.2635 7.98494 13.5763 7.98494H14.976V9.89473H12.3012C11.9884 9.89473 11.7345 10.1487 11.7345 10.4615C11.7345 10.7743 11.9884 11.0282 12.3012 11.0282H14.976V12.921H13.5763C13.2635 12.921 13.0095 13.1749 13.0095 13.4877C13.0095 13.8005 13.2635 14.0544 13.5763 14.0544H14.976V15.9529H13.5763C13.2635 15.9529 13.0095 16.2068 13.0095 16.5196C13.0095 16.8324 13.2635 17.0863 13.5763 17.0863H14.976V18.9621H12.3012C11.9884 18.9621 11.7345 19.2161 11.7345 19.5289C11.7345 19.8417 11.9884 20.0956 12.3012 20.0956H14.976V21.9884H13.5763C13.2635 21.9884 13.0095 22.2423 13.0095 22.5551C13.0095 22.8679 13.2635 23.1218 13.5763 23.1218H14.976V25.0146H13.5763C13.2635 25.0146 13.0095 25.2685 13.0095 25.5813C13.0095 25.8941 13.2635 26.1481 13.5763 26.1481H14.976V28.8399H7.9772V1.13345H14.976V3.82524Z" fill="#BC4639"/>
<path d="M22.5868 5.55926C22.8996 5.55926 23.1536 5.30533 23.1536 4.99253C23.1536 4.85758 23.1054 4.72667 23.0176 4.62409L21.2664 1.57519C21.1094 1.30447 20.7626 1.21261 20.4919 1.36962C20.4061 1.41878 20.3353 1.49021 20.2861 1.57519L18.4783 4.70927C18.3219 4.97999 18.4148 5.32698 18.6857 5.48318C18.7725 5.53316 18.871 5.55986 18.9714 5.55926H20.2125V24.4305H18.9714C18.6586 24.4293 18.4034 24.6822 18.4024 24.995C18.4018 25.0954 18.4283 25.1939 18.4783 25.2805L20.2861 28.4146C20.4431 28.6853 20.7899 28.7772 21.0609 28.6202C21.1464 28.571 21.2173 28.4996 21.2664 28.4146L23.0742 25.2805C23.2306 25.0098 23.1378 24.6628 22.8669 24.5066C22.7801 24.4566 22.6815 24.4299 22.5812 24.4305H21.3401V5.55926H22.5868ZM21.6065 25.564L20.7792 26.9977L19.9517 25.564H21.6065ZM19.9517 4.42581L20.7792 2.9921L21.6065 4.42581H19.9517Z" fill="#BC4639"/>
</svg>
