<svg width="50" height="50" viewBox="0 0 50 50" fill="none" xmlns="http://www.w3.org/2000/svg">
<rect width="50" height="50" rx="25" fill="#EE8208"/>
<path d="M25.0009 13.3758C26.9651 13.3758 28.5628 14.9735 28.5628 16.9377C28.5628 18.9003 26.9647 20.498 25.0009 20.498C23.038 20.498 21.4398 18.9003 21.4398 16.9377C21.4394 14.9731 23.0384 13.3758 25.0009 13.3758ZM25.0009 25.5373C29.7455 25.5373 33.6038 21.6802 33.6038 16.9377C33.6038 12.1928 29.7459 8.33398 25.0009 8.33398C20.2568 8.33398 16.398 12.1932 16.398 16.9377C16.398 21.6802 20.2568 25.5373 25.0009 25.5373ZM28.4813 32.5545C30.251 32.1514 31.9399 31.4521 33.4766 30.4861C34.0423 30.1302 34.4435 29.5641 34.5918 28.9124C34.7401 28.2607 34.6235 27.5768 34.2676 27.0111C34.0916 26.7307 33.862 26.4878 33.592 26.2962C33.3221 26.1046 33.0169 25.9681 32.6942 25.8945C32.3714 25.8209 32.0372 25.8117 31.7109 25.8673C31.3845 25.923 31.0724 26.0424 30.7922 26.2188C27.2678 28.4346 22.7316 28.433 19.2101 26.2188C18.93 26.0424 18.6178 25.9229 18.2915 25.8672C17.9651 25.8116 17.631 25.8208 17.3083 25.8944C16.9855 25.968 16.6804 26.1045 16.4105 26.2961C16.1405 26.4877 15.911 26.7307 15.735 27.0111C15.379 27.5767 15.2622 28.2605 15.4103 28.9122C15.5584 29.5638 15.9593 30.13 16.5248 30.4861C18.0614 31.4518 19.7499 32.1511 21.5193 32.5545L16.7101 37.3645C16.2375 37.8373 15.9721 38.4784 15.9722 39.1469C15.9723 39.8154 16.238 40.4565 16.7108 40.9291C17.1835 41.4017 17.8247 41.6671 18.4932 41.667C19.1617 41.6669 19.8027 41.4012 20.2753 40.9284L25.0001 36.2029L29.7278 40.9289C29.9615 41.163 30.2391 41.3487 30.5447 41.4754C30.8503 41.6021 31.1779 41.6673 31.5087 41.6673C31.8395 41.6673 32.1671 41.6021 32.4727 41.4754C32.7783 41.3487 33.0559 41.163 33.2896 40.9289C33.5241 40.6951 33.7101 40.4174 33.837 40.1117C33.9639 39.8059 34.0293 39.4781 34.0293 39.1471C34.0293 38.816 33.9639 38.4882 33.837 38.1825C33.7101 37.8767 33.5241 37.599 33.2896 37.3653L28.4813 32.5545Z" fill="white"/>
</svg>
