<svg width="50" height="50" viewBox="0 0 50 50" fill="none" xmlns="http://www.w3.org/2000/svg">
<rect width="50" height="50" rx="25" fill="#5181B8"/>
<path fill-rule="evenodd" clip-rule="evenodd" d="M40.9006 17.2232C41.1324 16.4507 40.9006 15.8828 39.7977 15.8828H36.151C35.2237 15.8828 34.7965 16.3733 34.5647 16.9143C34.5647 16.9143 32.7101 21.4344 30.0829 24.3705C29.233 25.2204 28.8467 25.4905 28.3831 25.4905C28.1512 25.4905 27.8157 25.2204 27.8157 24.4478V17.2232C27.8157 16.2959 27.5467 15.8828 26.7738 15.8828H21.0433C20.464 15.8828 20.1155 16.3131 20.1155 16.721C20.1155 17.6001 21.4288 17.8028 21.5643 20.2752V25.6455C21.5643 26.8229 21.3517 27.0365 20.8881 27.0365C19.6519 27.0365 16.6449 22.4958 14.8612 17.3006C14.5116 16.2907 14.161 15.8828 13.229 15.8828H9.58232C8.54041 15.8828 8.33203 16.3733 8.33203 16.9143C8.33203 17.8802 9.56852 22.6709 14.0886 29.0067C17.1023 33.3332 21.3476 35.6791 25.211 35.6791C27.5292 35.6791 27.8157 35.1581 27.8157 34.2608V30.9905C27.8157 29.9486 28.0353 29.7407 28.7691 29.7407C29.3104 29.7407 30.2374 30.0111 32.4012 32.0973C34.8736 34.5695 35.281 35.6791 36.672 35.6791H40.3187C41.3606 35.6791 41.8815 35.1581 41.5809 34.13C41.2522 33.1053 40.0717 31.619 38.5052 29.8566C37.6553 28.852 36.3802 27.7702 35.9942 27.2295C35.4532 26.534 35.6077 26.2251 35.9942 25.6072C35.9942 25.6072 40.4369 19.3485 40.9006 17.2235V17.2232Z" fill="white"/>
</svg>
