<svg width="20" height="21" viewBox="0 0 20 21" fill="none" xmlns="http://www.w3.org/2000/svg">
<path d="M19 2.00095H15.816C15.6124 1.4164 15.2318 0.909717 14.7273 0.551174C14.2227 0.192631 13.619 0 13 0C12.381 0 11.7773 0.192631 11.2727 0.551174C10.7682 0.909717 10.3876 1.4164 10.184 2.00095H1C0.734784 2.00095 0.48043 2.1063 0.292893 2.29384C0.105357 2.48137 0 2.73573 0 3.00095C0 3.26616 0.105357 3.52052 0.292893 3.70805C0.48043 3.89559 0.734784 4.00095 1 4.00095H10.184C10.3876 4.58549 10.7682 5.09217 11.2727 5.45072C11.7773 5.80926 12.381 6.00189 13 6.00189C13.619 6.00189 14.2227 5.80926 14.7273 5.45072C15.2318 5.09217 15.6124 4.58549 15.816 4.00095H19C19.2652 4.00095 19.5196 3.89559 19.7071 3.70805C19.8946 3.52052 20 3.26616 20 3.00095C20 2.73573 19.8946 2.48137 19.7071 2.29384C19.5196 2.1063 19.2652 2.00095 19 2.00095ZM13 4.00095C12.8022 4.00095 12.6089 3.9423 12.4444 3.83241C12.28 3.72253 12.1518 3.56635 12.0761 3.38363C12.0004 3.2009 11.9806 2.99984 12.0192 2.80585C12.0578 2.61187 12.153 2.43369 12.2929 2.29384C12.4327 2.15399 12.6109 2.05874 12.8049 2.02016C12.9989 1.98157 13.2 2.00138 13.3827 2.07707C13.5654 2.15275 13.7216 2.28093 13.8315 2.44537C13.9414 2.60982 14 2.80316 14 3.00095C13.9997 3.26608 13.8943 3.52028 13.7068 3.70776C13.5193 3.89524 13.2651 4.00068 13 4.00095Z" fill="#443E3E"/>
<path d="M1 9.00192H4.184C4.38765 8.41738 4.76816 7.91069 5.27275 7.55215C5.77734 7.19361 6.381 7.00098 7 7.00098C7.619 7.00098 8.22266 7.19361 8.72725 7.55215C9.23184 7.91069 9.61235 8.41738 9.816 9.00192H19C19.2652 9.00192 19.5196 9.10728 19.7071 9.29482C19.8946 9.48235 20 9.73671 20 10.0019C20 10.2671 19.8946 10.5215 19.7071 10.709C19.5196 10.8966 19.2652 11.0019 19 11.0019H9.816C9.61235 11.5865 9.23184 12.0931 8.72725 12.4517C8.22266 12.8102 7.619 13.0029 7 13.0029C6.381 13.0029 5.77734 12.8102 5.27275 12.4517C4.76816 12.0931 4.38765 11.5865 4.184 11.0019H1C0.734783 11.0019 0.480429 10.8966 0.292892 10.709C0.105356 10.5215 0 10.2671 0 10.0019C0 9.73671 0.105356 9.48235 0.292892 9.29482C0.480429 9.10728 0.734783 9.00192 1 9.00192ZM7 11.0019C7.19778 11.0019 7.39112 10.9433 7.55557 10.8334C7.72002 10.7235 7.84819 10.5673 7.92388 10.3846C7.99957 10.2019 8.01937 10.0008 7.98079 9.80683C7.9422 9.61285 7.84696 9.43467 7.70711 9.29482C7.56725 9.15496 7.38907 9.05972 7.19509 9.02114C7.00111 8.98255 6.80004 9.00235 6.61732 9.07804C6.43459 9.15373 6.27841 9.2819 6.16853 9.44635C6.05865 9.6108 6 9.80414 6 10.0019C6.00027 10.2671 6.10571 10.5213 6.29319 10.7087C6.48066 10.8962 6.73487 11.0017 7 11.0019Z" fill="#443E3E"/>
<path d="M19 16.0019H15.816C15.6124 15.4174 15.2318 14.9107 14.7273 14.5522C14.2227 14.1936 13.619 14.001 13 14.001C12.381 14.001 11.7773 14.1936 11.2727 14.5522C10.7682 14.9107 10.3876 15.4174 10.184 16.0019H1C0.734784 16.0019 0.48043 16.1073 0.292893 16.2948C0.105357 16.4824 0 16.7367 0 17.0019C0 17.2671 0.105357 17.5215 0.292893 17.709C0.48043 17.8966 0.734784 18.0019 1 18.0019H10.184C10.3876 18.5865 10.7682 19.0931 11.2727 19.4517C11.7773 19.8102 12.381 20.0029 13 20.0029C13.619 20.0029 14.2227 19.8102 14.7273 19.4517C15.2318 19.0931 15.6124 18.5865 15.816 18.0019H19C19.2652 18.0019 19.5196 17.8966 19.7071 17.709C19.8946 17.5215 20 17.2671 20 17.0019C20 16.7367 19.8946 16.4824 19.7071 16.2948C19.5196 16.1073 19.2652 16.0019 19 16.0019ZM13 18.0019C12.8022 18.0019 12.6089 17.9433 12.4444 17.8334C12.28 17.7235 12.1518 17.5673 12.0761 17.3846C12.0004 17.2019 11.9806 17.0008 12.0192 16.8068C12.0578 16.6129 12.153 16.4347 12.2929 16.2948C12.4327 16.155 12.6109 16.0597 12.8049 16.0211C12.9989 15.9826 13.2 16.0024 13.3827 16.078C13.5654 16.1537 13.7216 16.2819 13.8315 16.4464C13.9414 16.6108 14 16.8041 14 17.0019C13.9997 17.2671 13.8943 17.5213 13.7068 17.7087C13.5193 17.8962 13.2651 18.0017 13 18.0019Z" fill="#443E3E"/>
</svg>
