<svg width="30" height="30" viewBox="0 0 30 30" fill="none" xmlns="http://www.w3.org/2000/svg">
<g clip-path="url(#clip0_869_768)">
<path d="M13.1406 11.688L14.0761 11.7495C14.3021 8.31522 17.1784 5.625 20.6242 5.625C21.7548 5.62542 22.8662 5.91783 23.8506 6.47391C24.835 7.02998 25.6591 7.83086 26.2431 8.79898C26.8271 9.7671 27.1512 10.8696 27.1839 11.9998C27.2167 13.1299 26.957 14.2494 26.4301 15.2497L27.2589 15.6878C27.8613 14.5446 28.1583 13.2652 28.1211 11.9735C28.0838 10.6819 27.7136 9.42169 27.0462 8.31515C26.3788 7.20861 25.4369 6.29321 24.3118 5.65765C23.1866 5.02209 21.9164 4.68791 20.6242 4.6875C16.6861 4.6875 13.399 7.76247 13.1406 11.688Z" fill="#5C2018"/>
<path d="M21.5625 14.0625C20.0791 14.0625 18.6291 14.5024 17.3957 15.3265C16.1624 16.1506 15.2011 17.3219 14.6334 18.6924C14.0657 20.0628 13.9172 21.5708 14.2066 23.0257C14.496 24.4805 15.2103 25.8169 16.2592 26.8658C17.3081 27.9147 18.6445 28.629 20.0993 28.9184C21.5542 29.2078 23.0622 29.0593 24.4326 28.4916C25.8031 27.9239 26.9744 26.9626 27.7985 25.7293C28.6226 24.4959 29.0625 23.0459 29.0625 21.5625C29.0603 19.5741 28.2694 17.6677 26.8633 16.2617C25.4573 14.8556 23.5509 14.0648 21.5625 14.0625ZM21.5625 28.125C20.2646 28.125 18.9958 27.7401 17.9166 27.019C16.8374 26.2979 15.9962 25.273 15.4995 24.0739C15.0028 22.8747 14.8729 21.5552 15.1261 20.2822C15.3793 19.0092 16.0043 17.8399 16.9221 16.9221C17.8399 16.0043 19.0092 15.3793 20.2822 15.1261C21.5552 14.8729 22.8747 15.0028 24.0739 15.4995C25.273 15.9962 26.2979 16.8374 27.019 17.9166C27.7401 18.9958 28.125 20.2646 28.125 21.5625C28.123 23.3024 27.431 24.9704 26.2007 26.2007C24.9704 27.431 23.3024 28.123 21.5625 28.125Z" fill="#5C2018"/>
<path d="M14.2618 16.0816L15.1539 15.7934C14.722 14.4566 13.8727 13.2936 12.7308 12.4753C11.5888 11.6571 10.2145 11.2269 8.80982 11.2478C7.40515 11.2687 6.04426 11.7398 4.92722 12.5917C3.81018 13.4436 2.99592 14.6314 2.60415 15.9805C2.21239 17.3296 2.26378 18.7688 2.75079 20.0865C3.23779 21.4042 4.13471 22.5309 5.30967 23.301C6.48464 24.071 7.87567 24.4438 9.27825 24.3645C10.6808 24.2852 12.021 23.758 13.1016 22.8604L12.5022 22.1396C11.5761 22.9083 10.4278 23.3596 9.22612 23.4271C8.02445 23.4947 6.8328 23.1751 5.8263 22.5151C4.81981 21.8552 4.05156 20.8898 3.63448 19.7608C3.2174 18.6318 3.17349 17.3988 3.50919 16.243C3.8449 15.0872 4.54252 14.0696 5.49952 13.3397C6.45652 12.6098 7.62241 12.2062 8.82584 12.1881C10.0293 12.17 11.2068 12.5385 12.1852 13.2393C13.1637 13.9402 13.8915 14.9364 14.2618 16.0816Z" fill="#5C2018"/>
<path d="M23.5535 8.99855C23.6572 8.82573 23.704 8.62473 23.6874 8.42388C23.6708 8.22304 23.5916 8.03246 23.4609 7.87903C23.3302 7.7256 23.1547 7.61705 22.9591 7.56867C22.7634 7.52029 22.5575 7.53453 22.3704 7.60938L21.6553 7.89539C21.6512 7.89705 21.6467 7.89758 21.6423 7.89692C21.6379 7.89627 21.6338 7.89446 21.6303 7.89167L20.5193 7.00295C20.3672 6.88121 20.1816 6.80852 19.9873 6.79449C19.7929 6.78046 19.5988 6.82575 19.4307 6.92436C19.2627 7.02298 19.1285 7.17029 19.0459 7.34681C18.9633 7.52333 18.9362 7.72076 18.9683 7.91299L19.1901 9.24365C19.1907 9.24701 19.1905 9.25044 19.1897 9.25375C19.1889 9.25705 19.1874 9.26015 19.1854 9.26288L18.6457 9.98245C18.5303 10.1363 18.4636 10.3212 18.4543 10.5133C18.4449 10.7054 18.4933 10.8959 18.5932 11.0602C18.6931 11.2245 18.8399 11.3552 19.0148 11.4353C19.1896 11.5154 19.3844 11.5413 19.5741 11.5097L20.9911 11.2735C20.997 11.2726 21.0031 11.2737 21.0082 11.2768L21.9386 11.8351C22.1109 11.9406 22.3123 11.9886 22.5136 11.9719C22.7149 11.9553 22.9057 11.8749 23.0582 11.7425C23.2133 11.613 23.323 11.4374 23.3715 11.2414C23.42 11.0453 23.4047 10.8388 23.3278 10.652L23.0259 9.8972C23.0245 9.89358 23.0239 9.88969 23.0242 9.88582C23.0245 9.88194 23.0257 9.87819 23.0277 9.87485L23.5535 8.99855ZM22.7496 8.51621L22.2238 9.39251C22.1478 9.51993 22.1021 9.66311 22.0903 9.81099C22.0784 9.95887 22.1007 10.1075 22.1555 10.2454L22.4574 11.0002C22.4623 11.0124 22.4641 11.017 22.4504 11.0287C22.4364 11.0405 22.4323 11.0379 22.421 11.0312L21.4907 10.473C21.2944 10.3552 21.0627 10.3112 20.837 10.3488L19.42 10.585C19.4092 10.5868 19.4032 10.5878 19.3943 10.5732C19.3855 10.5586 19.3891 10.5538 19.3957 10.545L19.9354 9.82535V9.82533C20.0133 9.72105 20.0693 9.60214 20.1002 9.47569C20.131 9.34925 20.136 9.21789 20.1149 9.08947L19.8931 7.75883C19.8911 7.74745 19.8902 7.74173 19.9051 7.73294C19.9203 7.72413 19.9247 7.72776 19.9336 7.735L21.0446 8.62378C21.1777 8.72999 21.3365 8.79909 21.5049 8.82404C21.6734 8.84899 21.8454 8.8289 22.0035 8.76583L22.7186 8.47982C22.7307 8.47495 22.7354 8.47306 22.7472 8.48691C22.7589 8.5007 22.7564 8.50493 22.7496 8.51621V8.51621Z" fill="#5C2018"/>
<path d="M12.2408 14.9715C12.1697 14.8385 12.0638 14.7272 11.9345 14.6497C11.8051 14.5722 11.657 14.5314 11.5062 14.5315H10.5061L9.59461 13.62C9.50127 13.5266 9.38709 13.4568 9.26147 13.4163C9.13586 13.3757 9.0024 13.3656 8.87211 13.3867C8.74181 13.4079 8.6184 13.4597 8.51205 13.5378C8.4057 13.616 8.31944 13.7184 8.2604 13.8364V13.8365L7.63578 15.0857L7.12039 15.2575C6.97245 15.3068 6.84131 15.3967 6.74191 15.5169C6.64251 15.637 6.57884 15.7827 6.55815 15.9373C6.53745 16.0918 6.56056 16.2491 6.62485 16.3912C6.68914 16.5333 6.79202 16.6545 6.92178 16.741L7.49948 17.1261V18.0216C7.49919 18.1764 7.54209 18.3283 7.62337 18.4601C7.70464 18.5918 7.82106 18.6983 7.95955 18.7676C8.09803 18.8368 8.25308 18.8661 8.40727 18.852C8.56147 18.838 8.70868 18.7812 8.83237 18.6881L9.89272 17.8928L10.8001 18.3465C10.9426 18.4178 11.1025 18.4467 11.261 18.4298C11.4194 18.4129 11.5697 18.351 11.694 18.2513C11.8182 18.1516 11.9113 18.0183 11.9622 17.8673C12.013 17.7163 12.0195 17.5539 11.9809 17.3993L11.7545 16.494L12.1994 15.8267C12.2832 15.7013 12.3313 15.5555 12.3386 15.4048C12.3459 15.2542 12.312 15.1044 12.2408 14.9715ZM10.9488 16.0124C10.8845 16.109 10.8411 16.218 10.8213 16.3324C10.8015 16.4467 10.8058 16.5639 10.8338 16.6766L11.0163 17.4065L10.2543 17.0255C10.1161 16.9557 9.96104 16.9262 9.80684 16.9401C9.65263 16.954 9.50541 17.0108 9.38186 17.1041L8.43698 17.8128V17.0702C8.43713 16.9331 8.40334 16.798 8.33861 16.677C8.27388 16.5561 8.18024 16.4531 8.06602 16.3771L7.61947 16.0794L7.97332 15.9614C8.07724 15.9271 8.17331 15.8725 8.25598 15.8008C8.33866 15.7291 8.40628 15.6417 8.45494 15.5436L9.03413 14.3853L9.87378 15.225C9.95096 15.3026 10.0428 15.3641 10.1439 15.406C10.245 15.4479 10.3534 15.4693 10.4629 15.469H11.3111L10.9488 16.0124Z" fill="#5C2018"/>
<path d="M9.375 2.53793L11.2878 4.45075C11.574 4.73532 11.8008 5.0738 11.9552 5.44662C12.1096 5.81944 12.1886 6.21919 12.1875 6.62272C12.1875 6.77731 12.1965 6.93177 12.2143 7.08532L13.1455 6.97718C13.1319 6.85951 13.125 6.74115 13.125 6.62269C13.1264 6.09601 13.0234 5.57426 12.8218 5.08766C12.6203 4.60106 12.3242 4.15927 11.9508 3.78785L10.0379 1.875H11.25C12.2698 1.87743 13.2612 2.21121 14.0748 2.82603C14.8885 3.44086 15.4803 4.30344 15.7611 5.28382L16.6632 5.02868C16.3263 3.85214 15.6162 2.81694 14.6399 2.07904C13.6635 1.34115 12.4738 0.940512 11.25 0.9375H8.90625C8.78193 0.937501 8.6627 0.986888 8.5748 1.0748C8.48689 1.1627 8.4375 1.28193 8.4375 1.40625V5.15625H9.375V2.53793Z" fill="#5C2018"/>
<path d="M3.98403 12.3095L4.45347 11.498C3.67388 11.0456 3.02593 10.3975 2.57375 9.61775C2.12157 8.83804 1.88083 7.95377 1.87536 7.05244L4.10099 8.78349C4.98539 9.46904 6.07219 9.84193 7.19118 9.84375C8.08961 9.8454 8.96286 10.1408 9.67775 10.685L10.247 9.94003C9.36843 9.27132 8.29528 8.90827 7.19118 8.90625C6.28059 8.90476 5.39621 8.60132 4.67651 8.04345L2.77243 6.5625H7.03125C8.03448 6.56257 9.01593 6.85513 9.85545 7.40439C10.695 7.95365 11.3561 8.73576 11.758 9.65498L12.617 9.27936C12.1421 8.1931 11.3608 7.26887 10.3687 6.61982C9.37659 5.97077 8.21679 5.62506 7.03125 5.625H1.40625C1.28193 5.625 1.1627 5.67439 1.0748 5.7623C0.986888 5.8502 0.937501 5.96943 0.9375 6.09375V7.03125C0.939593 8.10059 1.222 9.15069 1.75656 10.0768C2.29111 11.003 3.05914 11.7728 3.98403 12.3095Z" fill="#5C2018"/>
<path d="M25.0476 18.5772C24.9852 18.4525 24.892 18.3458 24.7768 18.2672C24.6616 18.1886 24.5282 18.1408 24.3893 18.1283C24.2505 18.1158 24.1107 18.139 23.9833 18.1957C23.8559 18.2524 23.7451 18.3407 23.6614 18.4522L22.7349 19.6875H21.6736C21.5019 19.6875 21.3345 19.7416 21.1952 19.842C21.0559 19.9424 20.9517 20.084 20.8974 20.2469C20.8432 20.4098 20.8415 20.5857 20.8927 20.7496C20.9439 20.9135 21.0454 21.0571 21.1827 21.1601L21.9319 21.722L21.513 22.7693C21.4494 22.9283 21.4373 23.1033 21.4784 23.2696C21.5195 23.4358 21.6117 23.585 21.7421 23.696C21.8725 23.8071 22.0344 23.8744 22.2051 23.8885C22.3758 23.9026 22.5466 23.8628 22.6935 23.7747L23.8342 23.0903L24.854 24.1101C24.9684 24.2245 25.1142 24.3025 25.2729 24.334C25.4316 24.3656 25.596 24.3494 25.7455 24.2875C25.895 24.2256 26.0228 24.1207 26.1127 23.9862C26.2026 23.8516 26.2506 23.6935 26.2506 23.5317V22.2254L27.0832 21.3928C27.1856 21.2904 27.259 21.1627 27.2959 21.0227C27.3327 20.8827 27.3318 20.7355 27.2932 20.5959C27.2545 20.4564 27.1796 20.3296 27.0759 20.2286C26.9723 20.1275 26.8436 20.0557 26.7032 20.0206L25.6359 19.7538L25.0476 18.5772ZM25.5526 21.5975C25.4764 21.6733 25.416 21.7635 25.3749 21.8628C25.3338 21.9621 25.3128 22.0685 25.3131 22.176V23.2434L24.4312 22.3614C24.3023 22.2322 24.1338 22.1499 23.9527 22.1276C23.7715 22.1053 23.5882 22.1443 23.4318 22.2384L22.5151 22.7884L22.8363 21.9853C22.9029 21.8182 22.9127 21.6338 22.8642 21.4606C22.8156 21.2874 22.7114 21.135 22.5676 21.0269L22.0318 20.625H22.7946C22.9216 20.6247 23.0468 20.595 23.1603 20.5383C23.2739 20.4815 23.3727 20.3992 23.4492 20.2978L24.2955 19.1693L24.8219 20.2222C24.8747 20.3278 24.9496 20.4207 25.0417 20.4946C25.1338 20.5684 25.2407 20.6214 25.3552 20.65L26.2712 20.879L25.5526 21.5975Z" fill="#5C2018"/>
</g>
<defs>
<clipPath id="clip0_869_768">
<rect width="30" height="30" fill="white"/>
</clipPath>
</defs>
</svg>
