<svg width="30" height="21" viewBox="0 0 30 21" fill="none" xmlns="http://www.w3.org/2000/svg">
<path d="M28.0945 12.4283C28.0523 12.0823 27.9647 11.7462 27.8311 11.4303C28.6069 10.7239 29.0625 9.71422 29.0625 8.65625C29.0625 7.25047 28.2731 5.96703 27.0333 5.32625C26.6067 3.96359 25.3519 3.03125 23.9062 3.03125C23.0484 3.03125 22.2253 3.37062 21.6136 3.96922C21.5967 3.96875 21.5798 3.96875 21.5625 3.96875C21.5498 3.96875 21.5381 3.97109 21.5255 3.97109C21.2977 2.3825 19.9317 1.15625 18.2812 1.15625C17.9859 1.15625 17.6939 1.19656 17.4089 1.27578C16.7887 0.599844 15.9281 0.21875 15 0.21875C14.0719 0.21875 13.2113 0.599844 12.5911 1.27578C12.3061 1.19656 12.0141 1.15625 11.7188 1.15625C10.0678 1.15625 8.70141 2.38344 8.47453 3.9725C8.445 3.9725 8.41641 3.96828 8.38641 3.96922C7.77469 3.37062 6.95156 3.03125 6.09375 3.03125C4.64813 3.03125 3.39328 3.96359 2.96672 5.32625C1.72688 5.96703 0.9375 7.25047 0.9375 8.65625C0.9375 9.71422 1.39312 10.7239 2.16844 11.4303C2.03531 11.7462 1.94766 12.0823 1.905 12.4283C1.09688 12.5366 0.46875 13.2233 0.46875 14.0609C0.46875 14.2648 0.505781 14.4641 0.578906 14.6553L2.61234 19.9423C2.82047 20.4819 3.34781 20.8438 3.92531 20.8438H26.0752C26.6527 20.8438 27.18 20.4819 27.3877 19.9423L29.4216 14.6548C29.4942 14.4645 29.5312 14.2648 29.5312 14.0609C29.5312 13.2233 28.9031 12.5366 28.0945 12.4283ZM10.7812 6.3125C11.3456 6.3125 11.8894 6.47844 12.3544 6.79297C12.5442 6.92094 12.7997 6.89375 12.9577 6.72641C13.4958 6.15734 14.2209 5.84375 15 5.84375C15.7791 5.84375 16.5042 6.15734 17.0419 6.72688C17.1994 6.89422 17.4548 6.92187 17.6452 6.79344C18.1106 6.47844 18.6544 6.3125 19.2188 6.3125C20.0095 6.3125 20.7427 6.635 21.2831 7.22047C21.4022 7.34891 21.5831 7.40141 21.7519 7.35406C23.5467 6.86516 25.2253 8.18328 25.3055 9.93172C25.3134 10.1052 25.4166 10.2598 25.5736 10.3339C26.4098 10.7291 26.9902 11.5138 27.1439 12.4062H2.85656C3.01031 11.5138 3.59016 10.7291 4.42688 10.3339C4.58391 10.2598 4.68703 10.1052 4.695 9.93172C4.77562 8.18328 6.45422 6.86516 8.24859 7.35406C8.41687 7.40141 8.59828 7.34891 8.71734 7.22047C9.25734 6.635 9.99047 6.3125 10.7812 6.3125ZM21.7678 4.91703C21.9155 4.93063 22.0566 4.87016 22.1536 4.76047C22.5998 4.2575 23.2388 3.96875 23.9062 3.96875C24.9933 3.96875 25.9294 4.7075 26.1825 5.76547C26.2167 5.90797 26.3152 6.02609 26.4487 6.08516C27.4673 6.53609 28.125 7.54531 28.125 8.65625C28.125 9.38188 27.8372 10.0747 27.3436 10.5941C27.0413 10.2008 26.6611 9.86422 26.2191 9.61344C25.9969 7.74172 24.4134 6.3125 22.5 6.3125C22.2605 6.3125 22.0172 6.33734 21.7744 6.38562C21.2541 5.90047 20.6072 5.57375 19.9158 5.44156C20.3888 5.09938 20.962 4.90625 21.5625 4.90625C21.6267 4.90625 21.6895 4.91141 21.7678 4.91703ZM11.7188 2.09375C12.0103 2.09375 12.2981 2.14906 12.5752 2.25828C12.7716 2.33562 12.9961 2.27141 13.1227 2.10219C13.5712 1.50078 14.2552 1.15625 15 1.15625C15.7448 1.15625 16.4288 1.50078 16.8773 2.10219C17.0039 2.27141 17.2275 2.33516 17.4248 2.25828C17.7019 2.14906 17.9897 2.09375 18.2812 2.09375C19.4578 2.09375 20.4253 2.96844 20.5908 4.1C19.8047 4.31094 19.1053 4.77687 18.5986 5.43266C18.1964 5.49969 17.8078 5.62531 17.4478 5.81891C16.7677 5.22781 15.9117 4.90625 15 4.90625C14.0883 4.90625 13.2323 5.22781 12.5522 5.81844C12.1922 5.62531 11.8036 5.49969 11.4014 5.43219C10.8947 4.775 10.1953 4.30437 9.40969 4.09484C9.57703 2.96562 10.5436 2.09375 11.7188 2.09375ZM1.875 8.65625C1.875 7.54531 2.53266 6.53609 3.55125 6.08516C3.68484 6.02609 3.78328 5.90797 3.8175 5.76547C4.07063 4.7075 5.00672 3.96875 6.09375 3.96875C6.76125 3.96875 7.40016 4.2575 7.84594 4.76047C7.94344 4.87016 8.10422 4.92734 8.24766 4.91609C8.31047 4.91141 8.37328 4.90625 8.4375 4.90625C9.03797 4.90625 9.61125 5.09938 10.0842 5.44156C9.39281 5.57422 8.74594 5.90047 8.22563 6.38562C7.98281 6.33734 7.73953 6.3125 7.5 6.3125C5.58656 6.3125 4.00312 7.74172 3.78094 9.61344C3.33891 9.86422 2.95875 10.2003 2.65641 10.5941C2.16281 10.0747 1.875 9.38188 1.875 8.65625ZM2.12344 13.3438H27.8766C28.2722 13.3438 28.5938 13.6658 28.5938 14.0609C28.5938 14.1364 28.5764 14.2095 28.553 14.2812H1.44703C1.42406 14.2095 1.40625 14.1364 1.40625 14.0609C1.40625 13.6658 1.72828 13.3438 2.12344 13.3438ZM26.0747 19.9062H3.92531C3.73266 19.9062 3.55687 19.7853 3.4875 19.6053L3.24234 18.9688H26.7572L26.5125 19.6053C26.4431 19.7853 26.2673 19.9062 26.0747 19.9062ZM27.1181 18.0312H2.88187L1.8 15.2188H28.2L27.1181 18.0312Z" fill="#5C2018"/>
</svg>
