<svg width="30" height="30" viewBox="0 0 30 30" fill="none" xmlns="http://www.w3.org/2000/svg">
<path d="M26.7188 13.5938C26.719 13.1798 26.6096 12.7732 26.4016 12.4153C26.1936 12.0574 25.8944 11.7611 25.5346 11.5564C25.1749 11.3517 24.7673 11.246 24.3533 11.2501C23.9394 11.2542 23.534 11.3679 23.1783 11.5796C22.9321 11.0994 22.5266 10.7198 22.0313 10.5057V9.19596L23.9251 10.1429C24.1701 10.2654 24.4422 10.3232 24.7158 10.3109C24.9893 10.2986 25.2552 10.2165 25.4881 10.0726C25.7211 9.92862 25.9133 9.72751 26.0467 9.48834C26.18 9.24918 26.25 8.97989 26.25 8.70606C26.2494 8.3999 26.1689 8.0992 26.0164 7.83371C25.8639 7.56822 25.6448 7.34714 25.3806 7.19235L14.7675 1.00136C14.6958 0.959538 14.6143 0.937501 14.5313 0.9375H9.60938C9.17426 0.9375 8.75696 1.11035 8.44928 1.41803C8.14161 1.7257 7.96876 2.143 7.96876 2.57812C7.96876 3.01325 8.14161 3.43055 8.44928 3.73822C8.75696 4.0459 9.17426 4.21875 9.60938 4.21875H12.2632C11.3159 5.20642 10.7852 6.52094 10.7813 7.8895V9.64031L8.36421 5.84209C8.31967 5.77211 8.25737 5.7152 8.18365 5.67717C8.10993 5.63914 8.02744 5.62136 7.9446 5.62563C7.86176 5.6299 7.78154 5.65608 7.71213 5.7015C7.64271 5.74691 7.5866 5.80993 7.5495 5.88412L6.78017 7.42281L5.26995 7.04524C5.20084 7.02797 5.12871 7.02667 5.05902 7.04145C4.98934 7.05623 4.92394 7.0867 4.86779 7.13054C4.81165 7.17438 4.76623 7.23043 4.73499 7.29445C4.70375 7.35847 4.68751 7.42877 4.68751 7.5V9.00902L3.16756 9.38899C3.08358 9.40998 3.00706 9.45382 2.94647 9.51564C2.88588 9.57746 2.84359 9.65485 2.82429 9.73923C2.80499 9.82362 2.80943 9.91169 2.83713 9.99371C2.86482 10.0757 2.91469 10.1485 2.98119 10.2039L4.79903 11.7188H3.28126C3.20848 11.7187 3.1367 11.7357 3.0716 11.7682L1.1966 12.7057C1.12317 12.7425 1.06067 12.7978 1.01536 12.8663C0.970051 12.9348 0.943519 13.0139 0.93842 13.0959C0.933321 13.1778 0.949835 13.2597 0.986308 13.3332C1.02278 13.4068 1.07793 13.4695 1.14625 13.515L2.07671 14.1353L1.07478 15.1373C1.01829 15.1938 0.97717 15.2638 0.955339 15.3407C0.933507 15.4175 0.931683 15.4987 0.95004 15.5764C0.968396 15.6542 1.00632 15.726 1.06022 15.785C1.11412 15.8439 1.1822 15.8882 1.258 15.9134L2.19264 16.225L1.43979 18.1072C1.4089 18.1844 1.3991 18.2684 1.41141 18.3507C1.42372 18.4329 1.45769 18.5104 1.50984 18.5752C1.56198 18.64 1.63043 18.6897 1.70814 18.7193C1.78586 18.7489 1.87005 18.7573 1.95208 18.7436L4.76458 18.2749C4.87531 18.2564 4.97573 18.1988 5.0476 18.1126L5.92335 17.0617L5.17606 19.5528C5.15398 19.6263 5.1503 19.7041 5.16536 19.7794L5.63411 22.1232C5.6492 22.1987 5.68267 22.2693 5.73155 22.3288C5.78044 22.3883 5.84322 22.4349 5.91437 22.4643C5.98551 22.4938 6.06282 22.5053 6.13945 22.4978C6.21609 22.4903 6.2897 22.464 6.35377 22.4213L7.24938 21.8242L7.52404 22.6482C7.54683 22.7166 7.58509 22.7788 7.63583 22.83C7.68658 22.8812 7.74844 22.92 7.81662 22.9434C7.8848 22.9668 7.95745 22.9741 8.02893 22.9649C8.10041 22.9556 8.16879 22.93 8.22877 22.89L9.27745 22.1909L10.884 24.1991C10.9279 24.254 10.9836 24.2983 11.0469 24.3287C11.1103 24.3592 11.1797 24.375 11.25 24.375C11.3203 24.375 11.3897 24.3592 11.4531 24.3287C11.5164 24.2983 11.5721 24.254 11.616 24.1991L13.2226 22.1909L14.2713 22.89L14.7913 22.11L13.385 21.1725C13.2874 21.1074 13.169 21.0813 13.0531 21.0993C12.9372 21.1173 12.8322 21.1781 12.759 21.2697L11.7188 22.57V12.6941L12.3634 13.2098L12.9491 12.4777L11.7188 11.4934V11.3864L14.4822 7.04375L15.0495 8.17826C15.0972 8.27362 15.1761 8.34986 15.2729 8.39442C15.3698 8.43898 15.479 8.4492 15.5825 8.4234L16.875 8.10024V9.37489C16.875 9.47942 16.91 9.58096 16.9743 9.66336C17.0386 9.74576 17.1286 9.80429 17.2301 9.82965L18.1676 10.064L18.395 9.1545L17.8125 9.0089V7.49989C17.8125 7.42865 17.7963 7.35836 17.765 7.29434C17.7338 7.23032 17.6884 7.17426 17.6322 7.13042C17.5761 7.08658 17.5107 7.05612 17.441 7.04134C17.3713 7.02656 17.2992 7.02785 17.2301 7.04513L15.7198 7.4227L14.9505 5.88401C14.9134 5.80982 14.8573 5.7468 14.7879 5.70138C14.7185 5.65597 14.6382 5.62979 14.5554 5.62552C14.4726 5.62124 14.3901 5.63903 14.3164 5.67706C14.2426 5.71509 14.1803 5.772 14.1358 5.84198L11.7188 9.6402V7.8895C11.7209 7.18467 11.8929 6.49074 12.2203 5.86656C12.5477 5.24238 13.0208 4.70636 13.5995 4.30396L19.2188 7.76193V11.25H19.2225C19.1434 11.3545 19.0732 11.4654 19.0127 11.5816C18.6764 11.3807 18.2952 11.2673 17.9038 11.2518C17.5124 11.2364 17.1234 11.3193 16.7723 11.4931C16.4213 11.6669 16.1194 11.9259 15.8944 12.2465C15.6693 12.5671 15.5283 12.9391 15.4842 13.3283C15.1923 13.1983 14.877 13.1294 14.5575 13.1258C14.238 13.1222 13.9212 13.1839 13.6264 13.3072C13.3317 13.4306 13.0653 13.6129 12.8436 13.8429C12.6219 14.073 12.4495 14.3459 12.3372 14.645C12.2248 14.9441 12.1748 15.263 12.1902 15.5821C12.2056 15.9013 12.2861 16.2139 12.4268 16.5007C12.5674 16.7876 12.7653 17.0427 13.0081 17.2503C13.251 17.4579 13.5337 17.6137 13.8389 17.7081C13.679 18.0296 13.5951 18.3837 13.5938 18.7429C13.5925 19.1021 13.6738 19.4567 13.8315 19.7795C13.9891 20.1022 14.2189 20.3844 14.503 20.6041C14.7871 20.8239 15.1179 20.9753 15.4699 21.0468C15.4696 21.0625 15.4688 21.078 15.4688 21.0938C15.4687 21.4147 15.5347 21.7323 15.6628 22.0267C15.7908 22.321 15.9781 22.5858 16.213 22.8046C16.0392 23.1306 15.9449 23.4931 15.9379 23.8625C15.9309 24.2319 16.0114 24.5977 16.1728 24.9301C16.3342 25.2624 16.572 25.5519 16.8666 25.7748C17.1612 25.9978 17.5044 26.1478 17.8681 26.2128C17.797 26.5343 17.7945 26.8671 17.8606 27.1897C17.9267 27.5122 18.0601 27.8172 18.252 28.0847C18.4438 28.3523 18.69 28.5764 18.9742 28.7425C19.2585 28.9086 19.5746 29.0129 19.9019 29.0486C20.2292 29.0844 20.5604 29.0508 20.8738 28.95C21.1873 28.8492 21.476 28.6835 21.7211 28.4637C21.9662 28.2439 22.1623 27.9749 22.2965 27.6742C22.4307 27.3736 22.5 27.048 22.5 26.7188C22.5 26.7026 22.4991 26.6866 22.4988 26.6705C22.9289 26.7589 23.3752 26.7246 23.7868 26.5716C24.1984 26.4185 24.5587 26.1528 24.8265 25.8048C25.0943 25.4568 25.2589 25.0405 25.3015 24.6035C25.344 24.1664 25.2629 23.7262 25.0673 23.3331C25.4802 23.2055 25.8498 22.9663 26.1352 22.6417C26.4206 22.3172 26.6107 21.9201 26.6844 21.4942C26.7581 21.0684 26.7126 20.6305 26.553 20.2289C26.3933 19.8273 26.1256 19.4777 25.7796 19.2188C26.1063 18.9734 26.3637 18.6474 26.5264 18.2726C26.5903 18.2778 26.6544 18.2812 26.7188 18.2812C27.3404 18.2812 27.9365 18.0343 28.376 17.5948C28.8156 17.1552 29.0625 16.5591 29.0625 15.9375C29.0625 15.3159 28.8156 14.7198 28.376 14.2802C27.9365 13.8407 27.3404 13.5937 26.7188 13.5937L26.7188 13.5938ZM11.25 11.25L11.2501 11.2499L11.2502 11.25H11.25ZM9.115 21.1725L8.21938 21.7696L7.94473 20.9455C7.92193 20.8771 7.88368 20.8149 7.83293 20.7638C7.78219 20.7126 7.72032 20.6738 7.65215 20.6504C7.58397 20.627 7.51132 20.6196 7.43984 20.6289C7.36835 20.6381 7.29997 20.6638 7.24 20.7037L6.41614 21.253L6.1076 19.7102L7.48021 15.1347C7.51126 15.0312 7.50562 14.9202 7.46424 14.8204C7.42287 14.7207 7.3483 14.6382 7.25315 14.5871C7.158 14.536 7.04811 14.5193 6.94206 14.5398C6.83601 14.5604 6.74032 14.6169 6.67117 14.6999L4.43883 17.3787L2.61962 17.6819L3.24773 16.1116C3.27146 16.0523 3.28282 15.9888 3.28111 15.9249C3.27939 15.8611 3.26465 15.7982 3.23778 15.7403C3.2109 15.6823 3.17247 15.6305 3.12483 15.5879C3.0772 15.5454 3.02136 15.513 2.96077 15.4928L2.274 15.2639L3.14399 14.3939C3.19302 14.3449 3.23056 14.2856 3.2539 14.2203C3.27724 14.155 3.2858 14.0853 3.27897 14.0163C3.27213 13.9473 3.25007 13.8807 3.21437 13.8212C3.17867 13.7617 3.13022 13.711 3.07252 13.6725L2.33838 13.183L3.39192 12.6562H6.09376C6.19009 12.6563 6.28409 12.6266 6.36296 12.5713C6.44183 12.5159 6.50174 12.4377 6.53453 12.3471C6.56733 12.2565 6.57141 12.158 6.54623 12.065C6.52106 11.972 6.46784 11.889 6.39382 11.8274L4.29051 10.0746L5.26995 9.82976C5.37137 9.8044 5.4614 9.74587 5.52573 9.66348C5.59007 9.58108 5.62501 9.47954 5.62501 9.375V8.10036L6.91756 8.42351C7.02103 8.44936 7.13022 8.43916 7.22711 8.3946C7.32401 8.35003 7.40281 8.27376 7.45051 8.17838L8.0178 7.04387L10.7813 11.3865V11.4935L8.61346 13.2277L9.19905 13.9598L10.7813 12.694V14.306L8.61346 16.0402L9.19905 16.7723L10.7813 15.5065V17.1185L8.61346 18.8527L9.19905 19.5848L10.7813 18.319V22.57L9.74105 21.2697C9.66778 21.1781 9.56283 21.1173 9.44693 21.0993C9.33102 21.0813 9.21258 21.1074 9.115 21.1725ZM25.7813 13.5938C25.7813 13.8719 25.6988 14.1438 25.5443 14.375C25.3897 14.6063 25.1701 14.7865 24.9132 14.893C24.6562 14.9994 24.3734 15.0272 24.1007 14.973C23.8279 14.9187 23.5773 14.7848 23.3806 14.5881C23.184 14.3915 23.05 14.1409 22.9958 13.8681C22.9415 13.5953 22.9694 13.3126 23.0758 13.0556C23.1822 12.7986 23.3625 12.579 23.5937 12.4245C23.825 12.27 24.0969 12.1875 24.375 12.1875C24.7478 12.1879 25.1053 12.3362 25.3689 12.5999C25.6325 12.8635 25.7808 13.2209 25.7813 13.5938ZM16.4063 21.0938C16.4063 20.8156 16.4887 20.5437 16.6433 20.3125C16.7978 20.0812 17.0174 19.901 17.2744 19.7945C17.5313 19.6881 17.8141 19.6603 18.0869 19.7145C18.3596 19.7688 18.6102 19.9027 18.8069 20.0994C19.0035 20.296 19.1375 20.5466 19.1917 20.8194C19.246 21.0922 19.2181 21.3749 19.1117 21.6319C19.0053 21.8889 18.825 22.1085 18.5938 22.263C18.3625 22.4175 18.0906 22.5 17.8125 22.5C17.4397 22.4996 17.0822 22.3513 16.8186 22.0876C16.555 21.824 16.4067 21.4666 16.4063 21.0938ZM16.4063 17.3438C16.4063 17.0656 16.4887 16.7937 16.6433 16.5625C16.7978 16.3312 17.0174 16.151 17.2744 16.0445C17.5313 15.9381 17.8141 15.9103 18.0869 15.9645C18.3596 16.0188 18.6102 16.1527 18.8069 16.3494C19.0035 16.546 19.1375 16.7966 19.1917 17.0694C19.246 17.3422 19.2181 17.6249 19.1117 17.8819C19.0053 18.1389 18.825 18.3585 18.5938 18.513C18.3625 18.6675 18.0906 18.75 17.8125 18.75C17.4397 18.7496 17.0822 18.6013 16.8186 18.3376C16.555 18.074 16.4067 17.7166 16.4063 17.3438ZM19.6875 19.2188C19.6875 18.9406 19.77 18.6687 19.9245 18.4375C20.079 18.2062 20.2986 18.026 20.5556 17.9195C20.8126 17.8131 21.0953 17.7853 21.3681 17.8395C21.6409 17.8938 21.8915 18.0277 22.0881 18.2244C22.2848 18.421 22.4187 18.6716 22.473 18.9444C22.5272 19.2172 22.4994 19.4999 22.393 19.7569C22.2865 20.0139 22.1063 20.2335 21.875 20.388C21.6438 20.5425 21.3719 20.625 21.0938 20.625C20.7209 20.6246 20.3635 20.4763 20.0999 20.2126C19.8362 19.949 19.6879 19.5916 19.6875 19.2188ZM22.5 15.4687C22.5 15.7469 22.4175 16.0188 22.263 16.25C22.1085 16.4813 21.8889 16.6615 21.6319 16.768C21.3749 16.8744 21.0922 16.9022 20.8194 16.848C20.5466 16.7937 20.2961 16.6598 20.0994 16.4631C19.9027 16.2665 19.7688 16.0159 19.7145 15.7431C19.6603 15.4703 19.6881 15.1876 19.7945 14.9306C19.901 14.6736 20.0812 14.454 20.3125 14.2995C20.5437 14.145 20.8156 14.0625 21.0938 14.0625C21.4666 14.0629 21.824 14.2112 22.0877 14.4749C22.3513 14.7385 22.4996 15.0959 22.5 15.4687ZM21.0938 24.375C20.8156 24.375 20.5437 24.2925 20.3125 24.138C20.0812 23.9835 19.901 23.7639 19.7945 23.5069C19.6881 23.2499 19.6603 22.9672 19.7145 22.6944C19.7688 22.4216 19.9027 22.171 20.0994 21.9744C20.2961 21.7777 20.5466 21.6438 20.8194 21.5895C21.0922 21.5353 21.3749 21.5631 21.6319 21.6695C21.8889 21.776 22.1085 21.9562 22.263 22.1875C22.4175 22.4187 22.5 22.6906 22.5 22.9688C22.4996 23.3416 22.3513 23.699 22.0877 23.9626C21.824 24.2263 21.4666 24.3746 21.0938 24.375ZM22.4445 12.2668C22.2265 12.5825 22.0899 12.9471 22.0467 13.3283C21.7469 13.1943 21.4222 13.125 21.0938 13.125C20.7653 13.125 20.4406 13.1943 20.1408 13.3283C20.0977 12.9474 19.9612 12.583 19.7435 12.2675C19.829 11.9751 20.0066 11.7181 20.2499 11.5348C20.4932 11.3515 20.7891 11.2516 21.0938 11.25C21.3991 11.2487 21.6964 11.3474 21.9403 11.531C22.1842 11.7146 22.3613 11.9731 22.4445 12.2668ZM13.8394 3.35077C13.7655 3.30531 13.6805 3.28125 13.5938 3.28125H9.60938C9.4229 3.28125 9.24406 3.20717 9.1122 3.07531C8.98034 2.94345 8.90626 2.76461 8.90626 2.57812C8.90626 2.39164 8.98034 2.2128 9.1122 2.08094C9.24406 1.94908 9.4229 1.875 9.60938 1.875H14.4045L24.9082 8.00214C25.031 8.07411 25.133 8.17692 25.2039 8.30038C25.2748 8.42384 25.3122 8.56368 25.3125 8.70606C25.3125 8.82009 25.2834 8.93221 25.2278 9.0318C25.1723 9.13139 25.0923 9.21514 24.9953 9.27509C24.8983 9.33503 24.7876 9.36919 24.6737 9.37432C24.5598 9.37945 24.4464 9.35538 24.3445 9.30439L22.0313 8.14779V7.03125H21.0938V10.3125C20.7708 10.3127 20.4515 10.3804 20.1563 10.5112V7.5C20.1563 7.41994 20.1357 7.34122 20.0967 7.27133C20.0576 7.20145 20.0013 7.14273 19.9332 7.10077L13.8394 3.35077ZM17.8125 12.1875C18.0906 12.1875 18.3625 12.27 18.5938 12.4245C18.825 12.579 19.0053 12.7986 19.1117 13.0556C19.2181 13.3126 19.246 13.5953 19.1917 13.8681C19.1375 14.1409 19.0035 14.3915 18.8069 14.5881C18.6102 14.7848 18.3596 14.9187 18.0869 14.973C17.8141 15.0272 17.5313 14.9994 17.2744 14.893C17.0174 14.7865 16.7978 14.6063 16.6433 14.375C16.4887 14.1438 16.4063 13.8719 16.4063 13.5938C16.4067 13.2209 16.555 12.8635 16.8186 12.5999C17.0822 12.3362 17.4397 12.1879 17.8125 12.1875ZM13.125 15.4687C13.125 15.1906 13.2075 14.9187 13.362 14.6875C13.5165 14.4562 13.7361 14.276 13.9931 14.1695C14.2501 14.0631 14.5328 14.0353 14.8056 14.0895C15.0784 14.1438 15.329 14.2777 15.5256 14.4744C15.7223 14.671 15.8562 14.9216 15.9105 15.1944C15.9647 15.4672 15.9369 15.7499 15.8305 16.0069C15.724 16.2639 15.5438 16.4835 15.3125 16.638C15.0813 16.7925 14.8094 16.875 14.5313 16.875C14.1584 16.8746 13.801 16.7263 13.5374 16.4626C13.2737 16.199 13.1254 15.8416 13.125 15.4687ZM15.6762 20.1315C15.4277 20.0846 15.1963 19.9715 15.0067 19.8041C14.817 19.6367 14.6761 19.4213 14.5987 19.1804C14.5213 18.9396 14.5103 18.6823 14.5669 18.4358C14.6235 18.1892 14.7456 17.9625 14.9203 17.7796C15.1147 17.747 15.3042 17.6897 15.4842 17.6092C15.5205 17.9262 15.6212 18.2325 15.78 18.5093C15.9388 18.786 16.1525 19.0275 16.4079 19.2188C16.0912 19.4567 15.8396 19.7706 15.6762 20.1315H15.6762ZM18.2813 25.3125C18.0434 25.3127 17.8094 25.2525 17.6011 25.1375C17.3929 25.0226 17.2172 24.8566 17.0906 24.6553C16.964 24.4539 16.8906 24.2236 16.8772 23.9861C16.8639 23.7486 16.911 23.5117 17.0143 23.2974C17.5842 23.504 18.212 23.4814 18.7655 23.2342C18.8198 23.7124 19.0207 24.1621 19.3405 24.5217C18.9196 24.679 18.5526 24.9534 18.2826 25.3125L18.2813 25.3125ZM20.1563 28.125C19.8781 28.125 19.6062 28.0425 19.375 27.888C19.1437 27.7335 18.9635 27.5139 18.857 27.2569C18.7506 26.9999 18.7228 26.7172 18.777 26.4444C18.8313 26.1716 18.9652 25.921 19.1619 25.7244C19.3586 25.5277 19.6091 25.3938 19.8819 25.3395C20.1547 25.2853 20.4374 25.3131 20.6944 25.4195C20.9514 25.526 21.171 25.7062 21.3255 25.9375C21.48 26.1687 21.5625 26.4406 21.5625 26.7188C21.5621 27.0916 21.4138 27.449 21.1502 27.7126C20.8865 27.9763 20.5291 28.1246 20.1563 28.125ZM22.9688 25.7812C22.6876 25.781 22.4129 25.6966 22.1801 25.5389C22.1023 25.406 22.0117 25.281 21.9096 25.1658C22.3151 25.0144 22.671 24.7539 22.9379 24.4131C23.2048 24.0722 23.3724 23.6643 23.4221 23.2342C23.602 23.3147 23.7915 23.372 23.986 23.4046C24.1761 23.6037 24.3036 23.8543 24.3526 24.1252C24.4016 24.3961 24.3699 24.6755 24.2616 24.9286C24.1533 25.1817 23.973 25.3974 23.7432 25.549C23.5134 25.7006 23.2441 25.7813 22.9688 25.7812ZM25.7813 21.0938C25.7813 21.3719 25.6988 21.6438 25.5443 21.875C25.3897 22.1063 25.1701 22.2865 24.9132 22.393C24.6562 22.4994 24.3734 22.5272 24.1007 22.473C23.8279 22.4187 23.5773 22.2848 23.3806 22.0881C23.184 21.8915 23.05 21.6409 22.9958 21.3681C22.9415 21.0953 22.9694 20.8126 23.0758 20.5556C23.1822 20.2986 23.3625 20.079 23.5937 19.9245C23.825 19.77 24.0969 19.6875 24.375 19.6875C24.7478 19.6879 25.1053 19.8362 25.3689 20.0999C25.6325 20.3635 25.7808 20.7209 25.7813 21.0938ZM24.375 18.75C24.0969 18.75 23.825 18.6675 23.5937 18.513C23.3625 18.3585 23.1822 18.1389 23.0758 17.8819C22.9694 17.6249 22.9415 17.3422 22.9958 17.0694C23.05 16.7966 23.184 16.546 23.3806 16.3494C23.5773 16.1527 23.8279 16.0188 24.1007 15.9645C24.3734 15.9103 24.6562 15.9381 24.9132 16.0445C25.1701 16.151 25.3897 16.3312 25.5443 16.5625C25.6988 16.7937 25.7813 17.0656 25.7813 17.3438C25.7808 17.7166 25.6325 18.074 25.3689 18.3376C25.1053 18.6013 24.7478 18.7496 24.375 18.75ZM26.7188 17.3438C26.7187 16.9797 26.6338 16.6207 26.4708 16.2952C26.3078 15.9698 26.0711 15.6868 25.7796 15.4687C26.0993 15.2286 26.3526 14.911 26.5158 14.546C26.583 14.5362 26.6508 14.5313 26.7188 14.5312C27.0917 14.5312 27.4494 14.6794 27.7131 14.9431C27.9769 15.2069 28.125 15.5645 28.125 15.9375C28.125 16.3105 27.9769 16.6681 27.7131 16.9319C27.4494 17.1956 27.0917 17.3438 26.7188 17.3438H26.7188Z" fill="#5C2018"/>
</svg>
