<svg width="30" height="30" viewBox="0 0 30 30" fill="none" xmlns="http://www.w3.org/2000/svg">
<path d="M21.7807 11.0251C21.1782 10.4896 20.5016 10.0436 19.7719 9.70107C20.5568 9.47777 21.2476 9.00493 21.7398 8.35408C22.232 7.70323 22.4989 6.90977 22.5 6.09375C22.5 5.96943 22.4506 5.85021 22.3627 5.7623C22.2748 5.67439 22.1556 5.62501 22.0313 5.625H18.75V3.28125C18.75 3.15693 18.7006 3.03771 18.6127 2.9498C18.5248 2.86189 18.4056 2.81251 18.2813 2.8125H17.8125C16.946 2.81352 16.1149 3.15692 15.5004 3.76792C14.8859 4.37891 14.5377 5.20797 14.5317 6.07451L14.2661 5.10046C14.2258 4.95285 14.2222 4.79761 14.2558 4.64831C14.2893 4.49901 14.3589 4.36021 14.4585 4.24404L15.6462 2.85719C15.8341 2.63764 15.9375 2.35816 15.9375 2.06915C15.9375 1.84533 15.8711 1.62654 15.7468 1.44044C15.6224 1.25435 15.4457 1.1093 15.2389 1.02365C15.0321 0.937996 14.8046 0.915581 14.5851 0.959239C14.3656 1.0029 14.1639 1.11067 14.0056 1.26892L12.6539 2.6207C12.285 2.99137 12.0096 3.44451 11.8505 3.94266C11.6915 4.44082 11.6532 4.96968 11.739 5.48554C11.1432 4.97104 10.3823 4.68781 9.59514 4.6875H7.96876C7.88714 4.68751 7.80694 4.70883 7.73608 4.74935C7.66523 4.78987 7.60619 4.84819 7.56479 4.91854C7.5234 4.98889 7.50109 5.06882 7.50008 5.15044C7.49906 5.23205 7.51938 5.31252 7.55901 5.38387L9.0991 8.15598C9.43706 8.76412 9.95957 9.24911 10.5912 9.5409C9.72303 9.89933 8.92125 10.4011 8.21933 11.0251C7.12606 11.9969 6.40291 13.3172 6.17269 14.7617C5.94247 16.2062 6.21939 17.6859 6.95642 18.9494L11.7754 27.2104C12.1041 27.774 12.5749 28.2416 13.1407 28.5665C13.7065 28.8915 14.3475 29.0625 15 29.0625C15.6525 29.0625 16.2936 28.8915 16.8594 28.5665C17.4252 28.2416 17.8959 27.774 18.2247 27.2104L23.0436 18.9494C23.7806 17.6859 24.0576 16.2062 23.8273 14.7617C23.5971 13.3172 22.874 11.9969 21.7807 11.0251ZM21.5234 6.5625C21.4118 7.2175 21.0722 7.81196 20.5647 8.24084C20.0572 8.66972 19.4145 8.9054 18.75 8.90625H18.2113L18.7795 8.45169C19.1706 8.13963 19.6559 7.96938 20.1563 7.96875V7.03125C19.6238 7.03192 19.1001 7.1674 18.6342 7.42507C18.711 7.14399 18.75 6.8539 18.75 6.5625H21.5234ZM17.8125 3.75V6.5625C17.8121 6.99293 17.6933 7.41495 17.469 7.78234C17.2448 8.14974 16.9237 8.44835 16.5411 8.64547C17.0648 7.72479 17.3414 6.68422 17.3438 5.625H16.4063C16.4037 6.68529 16.0766 7.71939 15.4688 8.58818V6.09375C15.4695 5.47237 15.7166 4.87664 16.156 4.43725C16.5954 3.99787 17.1911 3.75071 17.8125 3.75ZM13.3168 3.28365L14.6686 1.93188C14.6957 1.90472 14.7303 1.88623 14.768 1.87873C14.8057 1.87124 14.8447 1.87508 14.8802 1.88978C14.9156 1.90447 14.946 1.92936 14.9673 1.96128C14.9886 1.99321 15 2.03075 15 2.06915C15 2.13452 14.9767 2.19773 14.9342 2.24739L13.7465 3.63419C13.5473 3.86654 13.408 4.14417 13.3409 4.44279C13.2739 4.7414 13.281 5.05191 13.3617 5.34714L14.3323 8.90625H13.9221L12.7714 5.74185C12.62 5.32254 12.5909 4.86884 12.6875 4.43362C12.784 3.9984 13.0023 3.59958 13.3168 3.28365L13.3168 3.28365ZM9.91861 7.70073L8.76544 5.625H9.59514C10.0131 5.62515 10.4234 5.73698 10.7836 5.94893C11.1438 6.16088 11.4408 6.46525 11.6439 6.83052L11.9379 7.35978C11.4903 7.0243 10.9915 6.7632 10.4607 6.58653L10.1643 7.47597C10.965 7.74183 11.6686 8.23967 12.1857 8.90625H11.9674C11.5494 8.90611 11.1391 8.79427 10.7789 8.58232C10.4187 8.37037 10.1217 8.06601 9.91861 7.70073V7.70073ZM22.2338 18.4769L17.4149 26.738C17.1687 27.16 16.8162 27.5102 16.3924 27.7536C15.9687 27.9969 15.4886 28.125 15 28.125C14.5114 28.125 14.0313 27.9969 13.6076 27.7536C13.1839 27.5102 12.8313 27.16 12.5851 26.738L7.7662 18.4769C7.13829 17.4005 6.90237 16.1399 7.09851 14.9092C7.29465 13.6786 7.91075 12.5538 8.84217 11.7258C10.2057 10.5128 11.9674 9.84305 13.7924 9.84375H16.2077C18.0327 9.84305 19.7943 10.5128 21.1579 11.7258H21.1579C22.0893 12.5538 22.7054 13.6786 22.9015 14.9093C23.0977 16.1399 22.8617 17.4005 22.2338 18.4769H22.2338Z" fill="#5C2018"/>
<path d="M14.9981 22.9688C14.77 22.968 14.5463 23.0311 14.3523 23.1511C14.1583 23.271 14.0018 23.4428 13.9005 23.6472C13.7851 23.8786 13.7329 24.1363 13.7489 24.3944C13.765 24.6525 13.8489 24.9018 13.992 25.1171L14.6081 26.0413C14.6509 26.1055 14.7089 26.1581 14.7769 26.1945C14.845 26.231 14.9209 26.25 14.9981 26.25C15.0753 26.25 15.1513 26.231 15.2193 26.1945C15.2873 26.1581 15.3453 26.1055 15.3881 26.0413L16.0042 25.1171C16.1474 24.9017 16.2312 24.6525 16.2473 24.3944C16.2634 24.1363 16.2111 23.8785 16.0957 23.647C15.9944 23.4427 15.8379 23.2709 15.6439 23.151C15.4499 23.0311 15.2262 22.968 14.9981 22.9688ZM15.2242 24.5971L14.9981 24.9362L14.772 24.5971C14.7204 24.5193 14.6901 24.4294 14.6843 24.3362C14.6785 24.2431 14.6973 24.15 14.7389 24.0665C14.763 24.0183 14.8 23.9779 14.8457 23.9496C14.8915 23.9213 14.9442 23.9063 14.9981 23.9063C15.0519 23.9062 15.1046 23.9212 15.1504 23.9495C15.1962 23.9778 15.2332 24.0182 15.2573 24.0664C15.2989 24.1499 15.3178 24.243 15.312 24.3362C15.3061 24.4293 15.2759 24.5193 15.2242 24.5971V24.5971Z" fill="#5C2018"/>
<path d="M13.752 20.8345C13.65 20.6307 13.4934 20.4593 13.2995 20.3395C13.1056 20.2197 12.8822 20.1562 12.6543 20.1563C12.4264 20.1563 12.203 20.2197 12.0092 20.3396C11.8153 20.4594 11.6586 20.6308 11.5567 20.8347C11.4414 21.0661 11.3891 21.3238 11.4052 21.5819C11.4213 21.84 11.5051 22.0893 11.6483 22.3046L12.2644 23.2288C12.3072 23.293 12.3652 23.3456 12.4332 23.382C12.5012 23.4184 12.5772 23.4375 12.6544 23.4375C12.7315 23.4375 12.8075 23.4184 12.8756 23.382C12.9436 23.3456 13.0016 23.293 13.0444 23.2288L13.6605 22.3046C13.8036 22.0892 13.8875 21.8399 13.9036 21.5818C13.9196 21.3237 13.8673 21.066 13.752 20.8345ZM12.8805 21.7846L12.6544 22.1237L12.4283 21.7846C12.3766 21.7068 12.3464 21.6169 12.3405 21.5237C12.3347 21.4306 12.3536 21.3375 12.3952 21.254C12.4192 21.2058 12.4562 21.1654 12.502 21.1371C12.5478 21.1088 12.6005 21.0938 12.6543 21.0937C12.7081 21.0937 12.7609 21.1087 12.8067 21.137C12.8524 21.1653 12.8894 21.2057 12.9135 21.2538C12.9552 21.3374 12.974 21.4305 12.9682 21.5236C12.9624 21.6168 12.9321 21.7068 12.8805 21.7846H12.8805Z" fill="#5C2018"/>
<path d="M11.6483 16.6796L12.2644 17.6038C12.3072 17.668 12.3652 17.7206 12.4332 17.757C12.5012 17.7934 12.5772 17.8125 12.6544 17.8125C12.7315 17.8125 12.8075 17.7934 12.8756 17.757C12.9436 17.7206 13.0016 17.668 13.0444 17.6038L13.6605 16.6796C13.8036 16.4642 13.8875 16.2149 13.9036 15.9568C13.9196 15.6987 13.8673 15.441 13.752 15.2095C13.65 15.0057 13.4934 14.8343 13.2995 14.7145C13.1056 14.5947 12.8822 14.5312 12.6543 14.5313C12.4264 14.5313 12.203 14.5947 12.0092 14.7146C11.8153 14.8344 11.6586 15.0058 11.5567 15.2097C11.4414 15.4411 11.3891 15.6988 11.4052 15.9569C11.4213 16.215 11.5051 16.4643 11.6483 16.6796ZM12.3952 15.629C12.4192 15.5808 12.4562 15.5404 12.502 15.5121C12.5478 15.4838 12.6005 15.4688 12.6543 15.4687C12.7081 15.4687 12.7609 15.4837 12.8067 15.512C12.8524 15.5403 12.8894 15.5807 12.9135 15.6288C12.9552 15.7124 12.974 15.8055 12.9682 15.8986C12.9624 15.9918 12.9321 16.0818 12.8805 16.1596L12.6544 16.4987L12.4283 16.1596C12.3766 16.0818 12.3464 15.9919 12.3405 15.8987C12.3347 15.8056 12.3536 15.7125 12.3952 15.629Z" fill="#5C2018"/>
<path d="M9.92061 14.7912C9.96341 14.8555 10.0214 14.9081 10.0894 14.9445C10.1575 14.9809 10.2335 15 10.3106 15C10.3878 15 10.4638 14.9809 10.5318 14.9445C10.5998 14.9081 10.6578 14.8555 10.7006 14.7912L11.3167 13.8671C11.4599 13.6517 11.5437 13.4024 11.5598 13.1443C11.5759 12.8862 11.5236 12.6285 11.4082 12.397C11.3063 12.1932 11.1496 12.0218 10.9557 11.902C10.7619 11.7822 10.5385 11.7187 10.3106 11.7188C10.0827 11.7188 9.85926 11.7822 9.6654 11.9021C9.47154 12.0219 9.31488 12.1933 9.21296 12.3972C9.09763 12.6286 9.04536 12.8863 9.06144 13.1444C9.07751 13.4025 9.16136 13.6518 9.30452 13.8671L9.92061 14.7912ZM10.0514 12.8165C10.0755 12.7683 10.1125 12.7278 10.1582 12.6995C10.204 12.6713 10.2567 12.6563 10.3106 12.6562C10.3644 12.6562 10.4171 12.6712 10.4629 12.6995C10.5087 12.7278 10.5457 12.7682 10.5698 12.8163C10.6114 12.8999 10.6303 12.993 10.6245 13.0861C10.6187 13.1793 10.5884 13.2693 10.5367 13.3471L10.3106 13.6862L10.0845 13.3471C10.0329 13.2693 10.0026 13.1794 9.99679 13.0862C9.99097 12.9931 10.0098 12.9 10.0514 12.8165Z" fill="#5C2018"/>
<path d="M19.6856 11.7188C19.4576 11.718 19.2338 11.7811 19.0398 11.9011C18.8458 12.021 18.6893 12.1928 18.588 12.3972C18.4726 12.6286 18.4204 12.8863 18.4364 13.1444C18.4525 13.4025 18.5364 13.6518 18.6795 13.8671L19.2956 14.7913C19.3384 14.8555 19.3964 14.9081 19.4645 14.9445C19.5325 14.981 19.6085 15 19.6856 15C19.7628 15 19.8388 14.981 19.9068 14.9445C19.9749 14.9081 20.0329 14.8555 20.0757 14.7913L20.6918 13.8671C20.8349 13.6517 20.9188 13.4025 20.9348 13.1444C20.9509 12.8863 20.8986 12.6285 20.7832 12.397C20.6819 12.1927 20.5254 12.0209 20.3314 11.901C20.1374 11.7811 19.9137 11.718 19.6856 11.7188ZM19.9117 13.3471L19.6856 13.6862L19.4596 13.3471C19.4079 13.2693 19.3776 13.1794 19.3718 13.0862C19.366 12.9931 19.3848 12.9 19.4264 12.8165C19.4505 12.7683 19.4875 12.7279 19.5332 12.6996C19.579 12.6713 19.6318 12.6563 19.6856 12.6563C19.7394 12.6562 19.7921 12.6712 19.8379 12.6995C19.8837 12.7278 19.9207 12.7682 19.9448 12.8164C19.9864 12.8999 20.0053 12.993 19.9995 13.0862C19.9937 13.1793 19.9634 13.2693 19.9117 13.3471V13.3471Z" fill="#5C2018"/>
<path d="M17.3419 20.1563C17.1138 20.1555 16.8901 20.2186 16.6961 20.3386C16.5021 20.4585 16.3455 20.6303 16.2442 20.8347C16.1289 21.0661 16.0766 21.3238 16.0927 21.5819C16.1088 21.84 16.1926 22.0893 16.3358 22.3046L16.9519 23.2288C16.9947 23.293 17.0527 23.3456 17.1207 23.382C17.1887 23.4185 17.2647 23.4375 17.3419 23.4375C17.4191 23.4375 17.495 23.4185 17.5631 23.382C17.6311 23.3456 17.6891 23.293 17.7319 23.2288L18.348 22.3046C18.4912 22.0892 18.575 21.84 18.5911 21.5819C18.6071 21.3238 18.5549 21.066 18.4395 20.8345C18.3382 20.6302 18.1816 20.4584 17.9876 20.3385C17.7936 20.2186 17.5699 20.1555 17.3419 20.1563ZM17.568 21.7846L17.3419 22.1237L17.1158 21.7846C17.0641 21.7069 17.0339 21.6169 17.028 21.5237C17.0222 21.4306 17.0411 21.3375 17.0827 21.254C17.1067 21.2058 17.1437 21.1654 17.1895 21.1371C17.2353 21.1088 17.288 21.0938 17.3418 21.0938C17.3956 21.0937 17.4484 21.1087 17.4942 21.137C17.54 21.1653 17.577 21.2057 17.601 21.2539C17.6427 21.3374 17.6615 21.4305 17.6557 21.5237C17.6499 21.6168 17.6196 21.7068 17.568 21.7846V21.7846Z" fill="#5C2018"/>
<path d="M14.9981 17.3438C14.77 17.343 14.5463 17.4061 14.3523 17.5261C14.1583 17.646 14.0018 17.8178 13.9005 18.0222C13.7851 18.2536 13.7329 18.5113 13.7489 18.7694C13.765 19.0275 13.8489 19.2768 13.992 19.4921L14.6081 20.4163C14.6509 20.4805 14.7089 20.5331 14.7769 20.5695C14.845 20.606 14.9209 20.625 14.9981 20.625C15.0753 20.625 15.1513 20.606 15.2193 20.5695C15.2873 20.5331 15.3453 20.4805 15.3881 20.4163L16.0042 19.4921C16.1474 19.2767 16.2312 19.0275 16.2473 18.7694C16.2634 18.5113 16.2111 18.2535 16.0957 18.022C15.9944 17.8177 15.8379 17.6459 15.6439 17.526C15.4499 17.4061 15.2262 17.343 14.9981 17.3438ZM15.2242 18.9721L14.9981 19.3112L14.772 18.9721C14.7204 18.8944 14.6901 18.8044 14.6843 18.7112C14.6785 18.6181 14.6973 18.525 14.7389 18.4415C14.763 18.3933 14.8 18.3529 14.8457 18.3246C14.8915 18.2963 14.9442 18.2813 14.9981 18.2813C15.0519 18.2812 15.1046 18.2962 15.1504 18.3245C15.1962 18.3528 15.2332 18.3932 15.2573 18.4414C15.2989 18.5249 15.3178 18.618 15.312 18.7112C15.3061 18.8043 15.2759 18.8943 15.2242 18.9721V18.9721Z" fill="#5C2018"/>
<path d="M14.6081 14.7912C14.6509 14.8555 14.7089 14.9081 14.7769 14.9445C14.845 14.9809 14.9209 15 14.9981 15C15.0753 15 15.1513 14.9809 15.2193 14.9445C15.2873 14.9081 15.3453 14.8555 15.3881 14.7912L16.0042 13.8671C16.1474 13.6517 16.2312 13.4024 16.2473 13.1443C16.2634 12.8862 16.2111 12.6285 16.0957 12.397C15.9938 12.1932 15.8371 12.0218 15.6432 11.902C15.4494 11.7822 15.226 11.7187 14.9981 11.7188C14.7702 11.7188 14.5468 11.7822 14.3529 11.9021C14.159 12.0219 14.0024 12.1933 13.9005 12.3972C13.7851 12.6286 13.7329 12.8863 13.7489 13.1444C13.765 13.4025 13.8489 13.6518 13.992 13.8671L14.6081 14.7912ZM14.7389 12.8165C14.763 12.7683 14.8 12.7278 14.8457 12.6995C14.8915 12.6713 14.9442 12.6563 14.9981 12.6562C15.0519 12.6562 15.1046 12.6712 15.1504 12.6995C15.1962 12.7278 15.2332 12.7682 15.2573 12.8163C15.2989 12.8999 15.3178 12.993 15.3119 13.0861C15.3061 13.1793 15.2759 13.2693 15.2242 13.3471L14.9981 13.6862L14.772 13.3471C14.7204 13.2693 14.6901 13.1794 14.6843 13.0862C14.6785 12.9931 14.6973 12.9 14.7389 12.8165Z" fill="#5C2018"/>
<path d="M16.3358 16.6796L16.9519 17.6038C16.9947 17.668 17.0527 17.7206 17.1207 17.757C17.1887 17.7934 17.2647 17.8125 17.3419 17.8125C17.4191 17.8125 17.495 17.7934 17.5631 17.757C17.6311 17.7206 17.6891 17.668 17.7319 17.6038L18.348 16.6796C18.4912 16.4642 18.575 16.2149 18.5911 15.9568C18.6071 15.6987 18.5549 15.441 18.4395 15.2095C18.3376 15.0057 18.1809 14.8343 17.987 14.7145C17.7931 14.5947 17.5697 14.5312 17.3418 14.5313C17.1139 14.5313 16.8905 14.5947 16.6967 14.7146C16.5028 14.8344 16.3461 15.0058 16.2442 15.2097C16.1289 15.4411 16.0766 15.6988 16.0927 15.9569C16.1088 16.215 16.1926 16.4643 16.3358 16.6796ZM17.0827 15.629C17.1067 15.5808 17.1437 15.5404 17.1895 15.5121C17.2353 15.4838 17.288 15.4688 17.3418 15.4687C17.3956 15.4687 17.4484 15.4837 17.4942 15.512C17.54 15.5403 17.577 15.5807 17.601 15.6288C17.6427 15.7124 17.6615 15.8055 17.6557 15.8986C17.6499 15.9918 17.6196 16.0818 17.568 16.1596L17.3419 16.4987L17.1158 16.1596C17.0641 16.0818 17.0339 15.9919 17.028 15.8987C17.0222 15.8056 17.0411 15.7125 17.0827 15.629Z" fill="#5C2018"/>
<path d="M19.6856 17.3438C19.4576 17.343 19.2338 17.4061 19.0398 17.5261C18.8458 17.646 18.6893 17.8178 18.588 18.0222C18.4726 18.2536 18.4204 18.5113 18.4364 18.7694C18.4525 19.0275 18.5364 19.2768 18.6795 19.4921L19.2956 20.4163C19.3384 20.4805 19.3964 20.5331 19.4645 20.5695C19.5325 20.606 19.6085 20.625 19.6856 20.625C19.7628 20.625 19.8388 20.606 19.9068 20.5695C19.9749 20.5331 20.0329 20.4805 20.0757 20.4163L20.6918 19.4921C20.8349 19.2767 20.9188 19.0275 20.9348 18.7694C20.9509 18.5113 20.8986 18.2535 20.7832 18.022C20.6819 17.8177 20.5254 17.6459 20.3314 17.526C20.1374 17.4061 19.9137 17.343 19.6856 17.3438ZM19.9117 18.9721L19.6856 19.3112L19.4596 18.9721C19.4079 18.8944 19.3776 18.8044 19.3718 18.7112C19.366 18.6181 19.3848 18.525 19.4264 18.4415C19.4505 18.3933 19.4875 18.3529 19.5332 18.3246C19.579 18.2963 19.6318 18.2813 19.6856 18.2813C19.7394 18.2812 19.7921 18.2962 19.8379 18.3245C19.8837 18.3528 19.9207 18.3932 19.9448 18.4414C19.9864 18.5249 20.0053 18.618 19.9995 18.7112C19.9937 18.8043 19.9634 18.8943 19.9117 18.9721V18.9721Z" fill="#5C2018"/>
<path d="M11.4082 18.022C11.3063 17.8182 11.1496 17.6468 10.9557 17.527C10.7619 17.4072 10.5385 17.3437 10.3106 17.3438C10.0827 17.3438 9.85926 17.4072 9.6654 17.5271C9.47154 17.6469 9.31488 17.8183 9.21296 18.0222C9.09763 18.2536 9.04536 18.5113 9.06144 18.7694C9.07751 19.0275 9.16136 19.2768 9.30452 19.4921L9.92061 20.4163C9.96341 20.4805 10.0214 20.5331 10.0894 20.5695C10.1575 20.6059 10.2335 20.625 10.3106 20.625C10.3878 20.625 10.4638 20.6059 10.5318 20.5695C10.5998 20.5331 10.6578 20.4805 10.7006 20.4163L11.3167 19.4921C11.4599 19.2767 11.5437 19.0274 11.5598 18.7693C11.5759 18.5112 11.5236 18.2535 11.4082 18.022ZM10.5367 18.9721L10.3106 19.3112L10.0845 18.9721C10.0329 18.8943 10.0026 18.8044 9.99679 18.7112C9.99097 18.6181 10.0098 18.525 10.0514 18.4415C10.0755 18.3933 10.1125 18.3529 10.1582 18.3246C10.204 18.2963 10.2567 18.2813 10.3106 18.2812C10.3644 18.2812 10.4171 18.2962 10.4629 18.3245C10.5087 18.3528 10.5457 18.3932 10.5698 18.4413C10.6114 18.5249 10.6303 18.618 10.6245 18.7111C10.6187 18.8043 10.5884 18.8943 10.5367 18.9721H10.5367Z" fill="#5C2018"/>
</svg>
