<?xml version="1.0" encoding="utf-8"?>
<!-- Generator: Adobe Illustrator 25.4.1, SVG Export Plug-In . SVG Version: 6.00 Build 0)  -->
<svg version="1.1" id="Слой_1" xmlns="http://www.w3.org/2000/svg" xmlns:xlink="http://www.w3.org/1999/xlink" x="0px" y="0px"
	 viewBox="0 0 16 16" style="enable-background:new 0 0 16 16;" xml:space="preserve">
<path d="M9.1,3.2c-2.4,0-4.7,0.5-6.3,1.2C1.7,5,0.9,5.6,0.4,6.5C0.3,6.6,0.2,6.7,0.2,6.9c0,0,0,0,0,0.1c0,0.1-0.1,0.2-0.1,0.3
	c0,0,0,0,0,0C0,7.5,0,7.6,0,7.8c0,0,0,0,0,0.1c0,0,0,0.1,0,0.1c0,0,0,0,0,0c0.1,1.2,1.1,2.2,2.3,2.2c1.3,0,2.4-1.1,2.4-2.3
	c0-1.1-0.8-2-1.8-2.2c0.1,0,0.2-0.1,0.3-0.2c1.5-0.7,3.6-1.2,5.9-1.2c2.1,0,4.1,0.4,5.7,1.1c0.3,0.1,0.6,0,0.7-0.2
	c0.1-0.3,0-0.6-0.2-0.7c0,0,0,0,0,0C13.5,3.6,11.4,3.2,9.1,3.2L9.1,3.2z M13.6,5.4c-1.3,0-2.4,1.1-2.4,2.3c0,1.1,0.8,2,1.8,2.3
	c-0.1,0.1-0.2,0.1-0.3,0.2c-1.5,0.7-3.6,1.1-5.9,1.1c-2.1,0-4.1-0.4-5.7-1c-0.3-0.1-0.6,0-0.7,0.3c-0.1,0.2,0,0.5,0.2,0.7
	c1.7,0.7,3.9,1.1,6.1,1.1c2.4,0,4.7-0.5,6.3-1.2c1.1-0.5,1.9-1.2,2.4-2c0.1-0.1,0.1-0.2,0.2-0.3c0,0,0-0.1,0-0.1
	C15.9,8.4,16,8.1,16,7.8c0,0,0-0.1,0-0.1c0,0,0,0,0-0.1C15.9,6.4,14.8,5.4,13.6,5.4L13.6,5.4z M2.1,6.4c0.1,0,0.2,0,0.3,0
	c0.8,0,1.4,0.6,1.4,1.3S3.1,9.1,2.4,9.1C1.6,9.1,1,8.6,1,7.9c0,0,0-0.1,0-0.1c0-0.1,0-0.2,0-0.3c0,0,0,0,0,0c0-0.1,0-0.1,0-0.2
	c0,0,0,0,0-0.1c0-0.1,0.1-0.1,0.1-0.2C1.4,6.7,1.7,6.5,2.1,6.4L2.1,6.4z M13.3,6.4c0.1,0,0.2,0,0.3,0c0.7,0,1.3,0.5,1.4,1.2
	c0,0,0,0.1,0,0.1v0c0,0.1,0,0.2,0,0.3c0,0,0,0,0,0c-0.1,0.6-0.7,1-1.3,1c-0.8,0-1.4-0.6-1.4-1.3C12.2,7.1,12.7,6.6,13.3,6.4z"/>
</svg>
