<svg xmlns="http://www.w3.org/2000/svg" viewBox="0.25 1036.36 16 15.76">
  <path d="M.25 1036.375v1c.661 0 1.098.051 1.469.25.37.199.737.575 1.187 1.344 1.088 1.859 1.344 5.486 1.344 7.906v.5h1v-.5c0-2.42.256-6.047 1.344-7.906.38-.651.689-1.031.968-1.25.28-.22.533-.305.97-.344.116-.011.5 0 .5 0h.03c.174 0 .241.025.376.281.134.256.243.701.312 1.281.139 1.161.125 2.797.188 4.438.057 1.496.215 2.958.624 4.219-.19.312-.426.591-.593.906-.386.728-.763 1.43-1.156 1.906-.394.476-.758.719-1.313.719v1c.888 0 1.591-.486 2.094-1.094.502-.607.87-1.347 1.25-2.062.069-.13.148-.217.219-.344.213.373.394.795.718 1.062.518.428 1.183.657 1.969.657 1.374 0 2.5-1.126 2.5-2.5s-1.126-2.5-2.5-2.5c-.995 0-1.788.438-2.375 1.031-.198-.951-.394-1.902-.438-3.031-.061-1.607-.035-3.225-.187-4.5-.076-.638-.2-1.202-.438-1.657-.32-.52-.789-.812-1.218-.812h-.031c-.033 0-.326-.024-.594 0-.556.05-1.091.187-1.531.531-.44.345-.779.863-1.188 1.563-.526.9-.78 2.1-1 3.281-.22-1.18-.443-2.382-.969-3.281-.499-.853-1.003-1.402-1.594-1.719-.59-.316-1.223-.375-1.937-.375zm13.5 9.969c.834 0 1.5.666 1.5 1.5 0 .833-.666 1.5-1.5 1.5-.589 0-1-.154-1.344-.438-.318-.262-.573-.66-.781-1.156.147-.211.276-.49.438-.656.458-.474.95-.75 1.687-.75z" fill="#000"/>
</svg>