<svg xmlns="http://www.w3.org/2000/svg" viewBox="3.5 -0.000183866 9.906 15.98">
  <path d="M8.813 0a3.748 3.748 0 0 0-3.126 1.625 3.724 3.724 0 0 0-.093 4.125C4.426 5.951 3.5 6.973 3.5 8.188c0 1.352 1.148 2.5 2.5 2.5s2.5-1.148 2.5-2.5C8.428 7.117 7.878 6.457 7.187 6A2.724 2.724 0 0 1 6.5 2.187a2.724 2.724 0 0 1 3.813-.687 2.753 2.753 0 0 1 1.062 3.125l-.285.578-2.965 6.516-.031.062a2.843 2.843 0 0 0 .312 3.188 2.806 2.806 0 0 0 3.125.844 2.833 2.833 0 0 0 1.875-2.657c0-.266-.234-.5-.5-.5s-.5.234-.5.5a1.87 1.87 0 0 1-1.219 1.75 1.83 1.83 0 0 1-2.03-.562c-.499-.595-.404-1.609-.157-2.125.967-2.18 1.999-4.404 3-6.594 0 0 .211-.467.313-.688a3.742 3.742 0 0 0-1.438-4.25C10.238.247 9.53.01 8.812 0zM6 6.688c.744 0 1.5.752 1.5 1.5 0 .747-.756 1.5-1.5 1.5s-1.5-.753-1.5-1.5c0-.748.756-1.5 1.5-1.5z" fill="#000"/>
</svg>