<svg xmlns="http://www.w3.org/2000/svg" viewBox="1.31518 1036.36 13.37 16.01">
  <path d="M1.803 1036.362a.5.497 0 0 0-.094.031.5.497 0 0 0-.311.25.5.497 0 0 0 .124.653c1.811 1.386 2.91 3.912 3.052 6.57H2.052a.498.498 0 0 0-.156 0 .504.504 0 1 0 .156.997h2.553a10.042 10.042 0 0 1-.81 3.613c-.541 1.243-1.36 2.26-2.273 2.958a.522.52 0 1 0 .654.81c1.068-.817 1.922-1.985 2.523-3.364.556-1.276.842-2.648.903-4.017h4.795c.06 1.37.347 2.74.903 4.017.601 1.38 1.456 2.547 2.523 3.363a.522.52 0 1 0 .654-.81c-.912-.697-1.732-1.714-2.274-2.957a10.042 10.042 0 0 1-.81-3.613h2.554a.498.498 0 1 0 0-.996h-2.522c.142-2.659 1.24-5.185 3.052-6.57a.5.497 0 0 0 .124-.655.5.497 0 0 0-.311-.249.5.497 0 0 0-.467.125c-2.125 1.626-3.308 4.421-3.426 7.349H5.602c-.118-2.928-1.3-5.723-3.426-7.35a.5.497 0 0 0-.373-.155z" fill="#000"/>
</svg>