<svg xmlns="http://www.w3.org/2000/svg" viewBox="7 8 23.18 21.72">
  <path d="M7.38 8a.38.38 0 0 0-.38.38v14.55c0 .1.04.19.11.27.07.07.17.11.27.11h2.99a.38.38 0 1 0 0-.76H7.75V8.75h18.76v1.74a.38.38 0 1 0 .76 0V8.38a.38.38 0 0 0-.38-.38H7.38zm19.48 3.84a1.97 1.97 0 1 0 0 3.95 1.97 1.97 0 0 0 0-3.95zm0 .75c.67 0 1.22.55 1.22 1.22 0 .67-.55 1.22-1.22 1.22s-1.22-.55-1.22-1.22.55-1.22 1.22-1.22zm-1.34 3.46a1.6 1.6 0 0 0-1.56 1.41l-.36 4.12c-.02.21.14.39.34.41.22.03.39-.14.41-.34l.36-4.11c.04-.4.41-.73.81-.73h2.68c.4 0 .77.34.81.72l.39 5.44-.22-.03c-.3-.05-.67-.11-.99.01a.38.38 0 0 0-.25.34l-.14 5.96c0 .21.16.38.38.38.2 0 .37-.16.38-.37l.14-5.64.38.05c.34.06.68.11.92-.11a.6.6 0 0 0 .17-.51l-.4-5.58a1.6 1.6 0 0 0-1.56-1.41l-2.69-.01zm-9.03 2.16c-.46.02-.91.2-1.25.54l-.11.12a1.88 1.88 0 0 0 .22 2.66 1.88 1.88 0 0 0 2.66-.22c.33-.39.48-.87.44-1.38a1.87 1.87 0 0 0-1.96-1.72zm-.01.75c.29-.02.59.06.83.27a1.14 1.14 0 0 1 .13 1.61 1.13 1.13 0 0 1-2-.74 1.14 1.14 0 0 1 1.04-1.14zm-3.09 3.44c-.5.04-.96.28-1.29.66a1.9 1.9 0 0 0 .22 2.66 1.88 1.88 0 0 0 2.66-.22c.33-.38.48-.87.44-1.38a1.87 1.87 0 0 0-2.03-1.72zm6.05 0a1.9 1.9 0 0 0-1.06 3.32 1.88 1.88 0 0 0 2.66-.22c.33-.39.48-.87.44-1.38s-.28-.96-.66-1.28a1.88 1.88 0 0 0-1.38-.44zm3.38.15a.38.38 0 1 0 0 .76h3.3a.38.38 0 1 0 0-.76h-3.3zm-9.27.59a1.13 1.13 0 0 1 1.13 1.05c.02.3-.07.6-.27.83-.4.48-1.12.54-1.6.13a1.14 1.14 0 0 1-.21-1.5l.08-.11c.2-.23.47-.37.78-.4h.09zm6.05 0c.27 0 .53.09.73.27a1.14 1.14 0 0 1 .13 1.61c-.41.48-1.12.54-1.6.13a1.14 1.14 0 0 1-.21-1.5l.08-.11c.2-.23.47-.37.77-.4h.1zm-7.61 3.24c-.91 0-1.6.62-1.67 1.5l-.17 1.39c-.02.21.12.39.33.42.2.02.39-.12.42-.33l.17-1.4c.05-.61.53-.83.93-.83h3.11c.4 0 .88.22.93.85l.17 1.39.01.02a.3.3 0 0 0 .11.2l.03.03c.05.04.11.07.19.08h.03l.01.01h.05l.03-.01.07-.03.06-.03a.12.12 0 0 0 .05-.05l.04-.05.03-.06a.19.19 0 0 0 .02-.07l.01-.03.17-1.4c.05-.61.53-.83.93-.83h3.11c.4 0 .87.22.93.85l.17 1.39c.02.19.18.33.37.33h.05c.2-.03.35-.21.33-.42l-.17-1.38a1.61 1.61 0 0 0-1.67-1.52h-3.11c-.66 0-1.19.33-1.47.84a1.64 1.64 0 0 0-1.47-.84l-3.13-.02z" fill="#000000"/>
</svg>