<svg xmlns="http://www.w3.org/2000/svg" viewBox="9.08661 8.99528 19.43 18.72">
  <path d="M24.9 9a.36.36 0 0 0-.16.01l-3.72.97a.38.38 0 0 0-.27.46.37.37 0 0 0 .46.27l2.68-.7c-1.44 2-3.46 4.08-5.14 5.25a17.14 17.14 0 0 1-7 2.96.38.38 0 0 0 .14.74 17.88 17.88 0 0 0 7.29-3.09 24.66 24.66 0 0 0 5.28-5.36v2.75a.38.38 0 0 0 .75 0V9.38a.38.38 0 0 0-.3-.37zm-.08 8.23a.38.38 0 0 0-.37.37v9.2c0 .06.02.12.05.17h-5.34v-6.2a.38.38 0 0 0-.75 0v6.2H13.1l.02-.09V22.9a.38.38 0 0 0-.75 0v3.98c0 .03 0 .06.02.1H9.38a.38.38 0 0 0 0 .74H28.2a.38.38 0 0 0 0-.75h-3.05a.36.36 0 0 0 .05-.18V17.6a.38.38 0 0 0-.38-.37z" fill="#000000"/>
</svg>