<?xml version="1.0" encoding="utf-8"?>
<!-- Generator: Adobe Illustrator 25.4.1, SVG Export Plug-In . SVG Version: 6.00 Build 0)  -->
<svg version="1.1" id="Capa_1" xmlns="http://www.w3.org/2000/svg" xmlns:xlink="http://www.w3.org/1999/xlink" x="0px" y="0px"
	 viewBox="0 0 45.7 45.7" style="enable-background:new 0 0 45.7 45.7;" xml:space="preserve">
<style type="text/css">
	.st0{fill:#050000;}
</style>
<g>
	<g>
		<path class="st0" d="M22.9,45l-0.2,0C17.6,44.5,4.1,30.7,1.1,19.8c-0.6-1.6-0.9-3.4-0.9-5.1c0-7.7,5.4-14,12.1-14
			c4.1,0,7.9,2.3,10.1,6.2c0.1,0.1,0.3,0.3,0.4,0.4c0.1,0,0.3-0.2,0.4-0.4c2.2-3.7,6.1-6.1,10.1-6.1c6.7,0,12.2,6.3,12.3,14
			c0,1.7-0.3,3.5-0.9,5.1c-3.2,11.4-17,24.7-21.6,25.2L22.9,45z M12.3,3.7c-5,0-9.1,4.9-9.1,11c0,1.4,0.2,2.8,0.7,4.1l0,0.1
			C6.8,29.2,19.4,41.3,22.9,42c3.6-0.8,16.2-12.9,19-23.1l0-0.1c0.5-1.3,0.7-2.7,0.7-4.1c-0.1-6.1-4.3-11-9.3-11
			c-2.9,0-5.8,1.8-7.5,4.7c-0.1,0.2-1.2,1.8-3,1.8s-2.8-1.6-3-1.8C18.1,5.4,15.4,3.7,12.3,3.7z"/>
	</g>
</g>
</svg>
