<svg xmlns="http://www.w3.org/2000/svg" viewBox="0 0 16 18"><path fill="currentColor" d="M7.99 15.69c-.09 0-.18-.02-.26-.07C7.46 15.45.99 11.47 1 6.56 1 3.8 2.83 2.44 4.54 2.35c1.28-.05 2.72.57 3.47 2.08.8-1.55 2.29-2.19 3.61-2.11C13.25 2.43 15 3.7 15 6.23c0 4.56-6.44 9.18-6.72 9.37-.08.06-.19.09-.29.09zM4.74 3.34h-.15C3.3 3.42 2 4.44 2 6.56c-.01 3.82 4.76 7.22 5.97 8.02C9.18 13.67 14 9.79 14 6.23c0-1.9-1.23-2.83-2.45-2.91-1.32-.1-2.77.78-3.06 2.92-.03.25-.24.42-.5.43-.25 0-.46-.19-.49-.44-.23-2.01-1.53-2.89-2.76-2.89z"></path></svg>