<svg xmlns="http://www.w3.org/2000/svg" viewBox="0 0 17.61 18">
<path fill="currentColor" d="M15.16 3.73H2.45c-.8 0-1.45.67-1.45 1.5v7.98c0 .83.65 1.5 1.45 1.5h12.7c.8 0 1.45-.67 1.45-1.5V5.23c.01-.83-.64-1.5-1.44-1.5zM2 5.39L5.99 8.8 2 12.95V5.39zm6.81 4.5L2.77 4.73h12.07L8.81 9.89zm-2.06-.44l1.73 1.48a.49.49 0 0 0 .64 0l1.73-1.48 4.09 4.26H2.66l4.09-4.26zm4.88-.66l3.99-3.41v7.56l-3.99-4.15z"></path>
<path fill="#fff" d="M14.17 8.46c-1.48 0-2.69 1.24-2.69 2.76v.38c-.65.2-1.12.82-1.12 1.54v2.94c0 .89.71 1.61 1.59 1.61h4.43c.88 0 1.59-.72 1.59-1.61v-2.94c0-.72-.47-1.33-1.12-1.54v-.38c0-1.52-1.2-2.76-2.68-2.76z"></path> <path fill="#619f00" d="M16.38 12.35h-.35v-1.13c0-1.07-.84-1.94-1.86-1.94-1.03 0-1.87.87-1.87 1.94v1.13h-.35c-.42 0-.77.35-.77.79v2.94c0 .43.34.79.77.79h4.43c.42 0 .77-.35.77-.79v-2.94c0-.44-.35-.79-.77-.79zm-3.17-1.13c0-.56.43-1.02.95-1.02s.95.46.95 1.02v1.13h-1.9v-1.13z"></path>
</svg>