<svg xmlns="http://www.w3.org/2000/svg" viewBox="0 0 17.21 18"><path fill="currentColor" d="M15.94 2.5c-.4-.34-.97-.12-1.53.09-.95.36-12.11 4.94-12.57 5.13-.76.3-.86.74-.85.98.01.24.13.67.9.93l3 1.01 1.18 3.71c.16.54.47.72.7.77.23.06.58.04.96-.34l1.54-1.45 2.8 2.14c.38.32.74.48 1.07.48.11 0 .23-.02.33-.06.42-.15.7-.57.82-1.25.12-.63.55-3.21.97-5.72.4-2.38.81-4.85.9-5.27.05-.27.16-.83-.22-1.15zM5.9 10.55l4.46-2.95-3.25 3.08c-.19.18-.33.47-.33.69l-.18 1.38-.7-2.2zm9.27-7.09c-.08.44-.48 2.8-.9 5.29-.42 2.5-.85 5.07-.97 5.7-.07.39-.17.48-.17.49-.01 0-.14-.01-.45-.26l-3.16-2.41a.492.492 0 0 0-.64.04L7.51 13.6l.29-2.19 5.35-5.07c.25-.23.91-.84.52-1.34-.38-.5-1.1-.05-1.49.2L5.32 9.73 2.2 8.68c-.01 0-.02-.01-.03-.01.01 0 .02-.01.04-.01.12-.05 11.62-4.78 12.56-5.13.18-.07.32-.11.42-.14-.01.01-.01.04-.02.07z"></path>
<path fill="#fff" d="M14.17 8.46c-1.48 0-2.69 1.24-2.69 2.76v.38c-.65.2-1.12.82-1.12 1.54v2.94c0 .89.71 1.61 1.59 1.61h4.43c.88 0 1.59-.72 1.59-1.61v-2.94c0-.72-.47-1.33-1.12-1.54v-.38c0-1.52-1.2-2.76-2.68-2.76z"></path> <path fill="#619f00" d="M16.38 12.35h-.35v-1.13c0-1.07-.84-1.94-1.86-1.94-1.03 0-1.87.87-1.87 1.94v1.13h-.35c-.42 0-.77.35-.77.79v2.94c0 .43.34.79.77.79h4.43c.42 0 .77-.35.77-.79v-2.94c0-.44-.35-.79-.77-.79zm-3.17-1.13c0-.56.43-1.02.95-1.02s.95.46.95 1.02v1.13h-1.9v-1.13z"></path></svg>