<svg width="203" height="193" viewBox="0 0 203 193" fill="none" xmlns="http://www.w3.org/2000/svg">
<g clip-path="url(#clip0_2_1218)">
<path d="M18.5765 159.474C17.8703 157.979 16.6123 156.819 15.0687 156.237C14.2084 155.853 14.3049 154.995 14.3117 154.337C14.4086 153.788 14.3367 153.222 14.1054 152.715C14.0505 152.547 14.0381 152.369 14.0694 152.195C14.1007 152.022 14.1746 151.859 14.2845 151.721C14.8927 151.039 15.5615 150.413 16.2827 149.851C19.0949 148.114 22.1503 146.807 25.3482 145.973C28.5368 144.901 31.7977 144.059 35.1063 143.452C36.1456 143.297 36.1425 143.277 36.592 144.496C34.7907 144.903 32.9795 145.246 31.2085 145.732C29.8029 146.117 28.446 146.676 26.9422 147.2C27.1164 147.366 27.3355 147.476 27.5718 147.518C27.8082 147.559 28.0514 147.53 28.271 147.433C31.2481 146.302 34.326 145.457 37.4632 144.909L37.7395 145.742L37.28 146.053L38.3152 146.332L38.1843 148.339C37.7686 148.835 36.6943 148.835 36.3216 149.735C35.3157 149.432 34.5739 150.182 33.7133 150.43C32.7269 150.766 31.7628 151.164 30.8269 151.622C30.747 152.243 30.7103 152.714 30.6196 153.174C30.3065 154.794 30.2677 154.738 29.1317 155.496C27.8734 156.336 26.3154 156.722 25.3225 157.975C25.2806 158.019 25.2294 158.052 25.1729 158.072C25.1164 158.093 25.0559 158.101 24.996 158.095C23.9653 157.864 23.4434 158.336 22.936 159.227C22.5131 159.975 21.6071 159.975 20.7654 159.789C20.1199 159.646 19.4546 159.593 18.5759 159.468" fill="#35B8BE"/>
<path d="M174.745 49.3519C173.873 50.3368 173.873 50.3368 174.899 51.2694C174.959 52.1146 174.171 52.9147 174.697 53.811C174.253 54.5285 173.846 55.2694 173.481 56.0305C172.957 57.2802 171.777 57.6803 170.734 58.1849C170.03 58.5277 169.316 58.8939 168.573 59.1808C167.704 59.5166 166.883 59.9763 166.015 60.3145C165.228 60.6206 164.408 60.843 163.598 61.0849C163.378 61.1792 163.135 61.2083 162.898 61.1688C162.662 61.0807 162.409 61.0509 162.159 61.0819C161.91 61.113 161.672 61.2041 161.465 61.3474C160.522 61.887 159.443 61.5341 158.443 61.5414C157.479 61.46 156.535 61.2147 155.652 60.8161C155.306 60.6917 154.563 60.4417 155.328 59.8105C155.382 59.7661 155.164 59.4152 155.105 59.197C155.045 58.9788 154.912 58.5699 154.992 58.5157C155.933 57.8864 155.471 57.5462 154.858 56.977C153.955 56.1398 154.123 55.8222 154.785 54.4048C155.189 53.5425 155.476 52.5907 156.399 52.2705C158.904 51.4087 161.4 50.5093 164.165 51.0378C164.728 51.186 165.314 51.2205 165.889 51.1393C166.465 51.0581 167.018 50.8629 167.518 50.565C168.399 49.9736 169.501 49.7192 170.155 48.7625C170.352 48.4748 170.794 48.343 171.14 48.1709C171.851 47.7981 172.677 47.7071 173.454 47.9158C174.326 48.1353 174.334 48.8786 174.742 49.3502" fill="#35B8BE"/>
<path d="M71.3756 151.948C72.5493 151.27 73.6643 150.734 74.6599 150.029C77.5143 148 80.8949 147.589 84.1537 146.796C85.6158 146.44 86.996 147.027 88.3686 147.429C88.6063 147.499 88.7503 147.893 88.9496 148.154L86.9881 148.565L89.5446 149.254C89.5953 149.818 89.7175 150.373 89.9084 150.906C90.0151 151.139 90.058 151.397 90.0324 151.652C90.0069 151.908 89.9139 152.151 89.763 152.358C89.4194 152.805 89.0118 153.198 88.5533 153.525C87.319 153.003 85.9335 152.974 84.6798 153.442C84.6815 154.072 84.081 154.652 84.5252 155.402C84.5598 155.525 84.5635 155.656 84.5361 155.781C84.5086 155.906 84.4508 156.023 84.3678 156.12C83.1158 157.325 82.1902 158.969 80.2228 159.219C79.8677 159.263 79.4161 159.297 79.2042 159.522C78.8843 159.86 78.3106 159.324 78.103 159.998C77.9324 160.552 77.4577 160.041 77.1212 160.058C76.7049 160.104 76.2858 160.121 75.8671 160.107C75.4865 160.043 75.112 159.947 74.7472 159.82C73.8714 158.103 72.5915 156.626 71.0184 155.516L71.3744 151.949" fill="#35B8BE"/>
<path d="M200.379 19.0739C200.753 19.5415 201.069 19.9116 201.355 20.3048C201.452 20.4625 201.52 20.6366 201.554 20.8186C201.682 21.3258 200.902 21.4533 201.074 22.0283C201.228 22.4825 201.279 22.965 201.226 23.4413C201.163 23.8171 200.578 24.2409 200.668 24.4754C200.866 24.9984 200.891 25.2859 200.363 25.5519C200.266 25.6015 200.255 25.8774 200.252 26.0495C200.222 27.3236 200.223 27.3226 198.894 27.6526L199.682 28.1873C199.227 28.2575 198.767 28.296 198.307 28.3027C197.81 28.2595 197.317 28.1776 196.832 28.0577C196.336 27.8936 195.807 27.8529 195.292 27.939L197.043 28.6057L196.999 28.8012C196.669 28.7643 196.341 28.7106 196.017 28.6402C194.395 28.2145 192.793 27.7008 191.155 27.3579C189.751 27.1233 188.47 26.412 187.525 25.3432C187.895 25.1196 188.408 24.9509 187.802 24.4187C187.14 23.8372 187.359 23.2504 187.916 22.5653C187.121 22.2124 186.161 21.8912 186.84 20.6006L188.906 21.1575L189.035 20.8968L187.067 19.6596C187.642 19.1545 188.209 18.7673 189.051 19.1008C189.286 19.1932 189.627 18.9814 189.921 18.9633C191.202 18.8848 191.203 18.8943 191.493 17.9205C191.549 17.7344 191.593 17.5463 191.643 17.3587L191.78 16.8453C192.38 16.4982 192.949 16.1936 193.493 15.8489C194.62 15.2201 195.938 15.0261 197.199 15.3035C197.837 15.3926 198.438 15.6966 199.075 15.775C199.681 15.9047 200.215 16.2626 200.567 16.7749C201.347 17.6412 201.286 17.9823 200.376 19.0731" fill="#35B8BE"/>
<path d="M156.321 124.558C155.992 123.612 155.653 122.695 155.378 121.759C155.351 121.669 155.708 121.466 155.999 121.221C155.732 120.993 155.483 120.745 155.253 120.479C155.039 120.155 154.842 119.821 154.662 119.477C154.26 118.803 153.791 118.13 154.825 117.572C154.903 117.529 154.889 117.33 154.936 117.211C155.266 116.36 155.269 115.465 156.207 114.772C156.918 114.108 157.674 113.494 158.47 112.935C159.264 112.433 160.125 112.047 161.027 111.79C162.424 111.303 163.945 111.3 165.345 111.781C165.738 112.031 166.1 112.326 166.423 112.662L165.161 113.566C166.091 114.144 167.282 114.398 167.924 115.577L166.74 116.514L168.102 116.881C168.114 118.139 167.981 119.394 167.704 120.62C167.517 121.273 167.102 121.836 166.535 122.206C165.882 122.723 165.171 123.162 164.417 123.515C163.665 123.768 162.977 124.205 162.197 124.471C160.916 124.768 159.613 124.96 158.301 125.044C157.615 125.014 156.943 124.849 156.321 124.558Z" fill="#35B8BE"/>
<path d="M141.798 35.4424L137.78 34.3596C138.7 34.9094 139.703 35.3031 140.75 35.5248C141.159 35.6433 141.721 35.5875 141.832 36.1553C141.975 36.7353 142.028 37.3338 141.99 37.9297C141.966 38.1306 141.418 38.3706 141.093 38.4C140.707 38.3681 140.329 38.2743 139.973 38.1222C140.02 38.4684 140.121 38.6936 140.059 38.854C139.929 39.1859 139.487 39.5715 139.568 39.7811C140.024 40.9487 139.269 41.8905 139.056 42.9131C138.988 43.1753 138.861 43.4185 138.686 43.6246C138.511 43.8308 138.291 43.9945 138.044 44.1037C136.991 44.3952 136.424 45.4032 135.203 45.6825C134.614 45.5177 133.987 45.5585 133.424 45.798C132.932 46.0531 132.391 46.2003 131.838 46.2298C131.284 46.2593 130.73 46.1704 130.213 45.969C129.637 45.7593 129.046 45.5944 128.445 45.4759C128.029 43.9925 127.649 42.4629 127.166 40.9667C126.662 39.4007 127.564 38.342 128.46 37.3657C129.115 36.6541 129.615 35.5958 130.846 35.6249C132.173 33.9999 134.21 34.1954 135.946 33.603C137.072 33.3654 138.235 33.3747 139.358 33.6301C140.265 33.7077 141.104 34.5921 141.974 35.1166L141.798 35.4424Z" fill="#35B8BE"/>
<path d="M111.846 66.3168L115.095 64.4387C115.8 64.5888 116.493 64.7875 117.171 65.0334C117.428 65.1422 117.596 65.6029 117.677 65.9335C117.708 66.0591 117.38 66.2682 117.212 66.4466C117.677 66.8644 118.363 67.2202 117.94 68.0938C117.843 68.2574 117.81 68.4515 117.849 68.6381C118.014 68.8866 118.116 69.1715 118.146 69.4683C118.177 69.7651 118.134 70.0647 118.023 70.3412C117.568 71.386 116.885 72.3153 116.025 73.061C114.225 74.4078 112.127 75.2999 109.909 75.6619C108.546 75.8395 107.169 75.8848 105.796 75.7972C105.444 75.7716 105.106 75.6469 104.821 75.4374C104.536 75.2279 104.316 74.942 104.186 74.6128C103.725 73.3485 103.194 72.1039 102.777 70.8244C102.624 70.3619 102.618 69.8635 102.761 69.3983C103.122 68.098 103.923 66.9646 105.026 66.1916C106.129 65.4186 107.466 65.054 108.809 65.1602C109.28 65.0801 109.762 65.0861 110.232 65.178C110.81 65.498 111.351 65.8801 111.846 66.3178" fill="#35B8BE"/>
<path d="M43.0078 52.8022L44.1934 52.8823C42.7036 52.4808 42.5676 50.7495 41.3933 50.0651C41.2996 50.0017 41.2209 49.9184 41.163 49.8211C41.105 49.7238 41.0691 49.615 41.0579 49.5023C41.0467 49.3896 41.0604 49.2758 41.098 49.1691C41.1357 49.0624 41.1964 48.9654 41.2757 48.8849C41.8058 48.5417 41.5899 48.1529 41.4914 47.8516C41.3616 47.512 41.3427 47.14 41.4374 46.7892C41.5321 46.4384 41.7354 46.127 42.0182 45.8999C43.7208 44.2122 45.3459 42.4351 47.8019 41.8315C48.9504 40.6163 50.6215 40.621 52.0423 40.0596C52.8194 39.8623 53.6184 39.7642 54.4203 39.7677C55.0411 40.4957 54.637 41.2004 53.9346 41.9958C54.3089 42.0792 54.695 42.0937 55.0743 42.0387C55.4781 41.878 55.5395 42.1827 55.5614 42.341C55.5869 43.0698 55.7507 43.7873 56.0442 44.455C56.1356 44.6164 55.9894 44.9709 55.8578 45.181C55.6264 45.5561 55.2728 45.835 55.5197 46.3866C55.5886 46.543 55.2705 46.9061 55.0848 47.1369C53.6295 49.2126 51.5539 50.7706 49.157 51.5863C48.7562 51.7579 48.3767 51.9756 48.0262 52.2351C46.9874 52.888 45.7686 52.7347 44.7197 53.1734C44.4321 53.2954 44.1138 53.3253 43.8082 53.2591C43.5027 53.1929 43.2249 53.0338 43.0126 52.8035" fill="#35B8BE"/>
<path d="M99.7892 190.228C100.122 190.37 100.454 190.511 100.82 190.67C100.687 190.781 100.614 190.89 100.529 190.903C99.2364 191.148 97.9258 191.283 96.6106 191.307C95.7739 191.272 94.959 191.295 94.5467 190.363C94.267 189.729 92.9227 189.934 93.3031 188.779C92.5639 187.987 92.8889 187.125 93.1759 186.294C92.6414 185.99 92.1278 185.652 91.6387 185.279C91.1348 184.842 91.2087 183.898 91.7408 183.008C91.8624 182.804 92.1324 182.649 92.1686 182.443C92.4491 180.845 92.4368 180.845 93.8414 180.518C94.5318 180.318 95.2329 180.157 95.9415 180.035C96.3427 180.001 96.7316 179.881 97.082 179.683C97.4324 179.484 97.736 179.212 97.9722 178.886C98.3569 178.389 98.8621 177.998 99.4398 177.752C100.018 177.506 100.649 177.412 101.273 177.479C101.848 177.559 102.389 177.797 102.838 178.166C103.287 178.535 103.626 179.02 103.819 179.569L101.226 180.64C102.131 180.883 102.742 181.038 103.348 181.212C103.955 181.385 103.81 181.42 103.984 182.495C104.109 183.265 103.471 184.157 104.314 184.807L103.85 186.859C103.565 188.122 103.133 189.195 101.592 189.403C100.954 189.591 100.347 189.868 99.789 190.229" fill="#35B8BE"/>
<path d="M140.142 2.70115C140.385 2.1688 140.797 1.73178 141.313 1.45733C141.829 1.18287 142.421 1.08618 142.998 1.18214C144.247 1.20283 145.489 1.36616 146.7 1.66896C148.285 2.22508 149.908 2.66058 151.558 2.97175C152.354 3.12431 152.799 3.78295 153.533 3.96839C153.726 4.02038 154.021 4.38061 153.981 4.50349C153.668 5.45533 154.59 6.19382 154.326 7.20844C154.15 7.87912 154.599 8.71508 154.791 9.57391C153.853 10.116 154.346 11.9409 152.555 12.1007C151.514 11.3984 150.246 12.1072 148.983 12.1234C148.807 12.1256 148.614 12.2582 148.459 12.2185C146.606 11.7357 144.758 11.2315 142.749 10.69L143.616 10.1176C143.156 10.0973 142.823 9.99182 142.675 10.1106C142.528 10.2294 142.557 10.6063 142.422 10.8103C142.362 10.9027 142.079 10.8855 141.91 10.8514C141.832 10.8367 141.709 10.6252 141.737 10.5686C141.947 10.1382 142.19 9.72392 142.442 9.26658L140.625 7.74805L141.009 6.64741C140.328 7.03692 140.299 6.37014 140.028 6.05987C139.744 5.76131 139.445 5.47737 139.132 5.20917C139.575 4.06319 140.451 3.82794 141.541 3.78587L140.14 2.70598" fill="#35B8BE"/>
<path d="M17.1874 117.749C17.4723 116.789 17.9807 115.938 17.0321 115.179C18.2854 114.667 19.0491 114.774 19.6579 115.802C20.1759 116.459 20.6257 117.167 21 117.915C21.2697 118.656 22.1609 119.141 22.6317 119.838C22.9392 120.429 23.1767 121.054 23.3396 121.7L22.566 122.158L22.1768 121.109L21.9262 121.145L21.7802 122.538C21.5532 122.613 21.0234 122.63 20.7736 122.904C19.2326 124.394 17.34 125.468 15.2721 126.026C14.5738 126.176 13.8661 126.279 13.1539 126.334C11.424 126.679 11.0892 126.798 9.76147 126.194C8.72011 125.84 7.81469 125.168 7.17172 124.273C6.94747 123.841 6.58687 123.494 6.14612 123.288C5.11439 122.965 5.10068 122.346 5.37789 121.516C5.45498 121.279 5.49335 121.03 5.49155 120.78C5.48903 119.2 5.571 119.059 6.89276 118.628C8.86172 118.117 10.8872 117.856 12.9217 117.851C14.3508 117.757 15.7895 117.779 17.1879 117.751" fill="#35B8BE"/>
<path d="M44.0882 99.3887C44.8881 98.459 45.8128 97.645 46.8359 96.97C48.853 95.817 50.7988 94.5203 52.8892 93.5227C54.9982 92.3435 57.2672 91.4775 59.6251 90.9518C60.4282 91.2718 59.2589 92.1155 60.2309 92.3992C60.5082 92.4801 60.5947 93.2373 60.7578 93.6886C61.1624 94.8082 61.1321 95.3638 60.2195 95.8538C59.4174 96.3168 58.7883 97.0297 58.4275 97.8843C57.7726 99.1765 56.4709 99.8383 55.5118 100.836C54.4167 101.796 53.2024 102.609 51.899 103.257C51.3007 103.712 50.6751 104.129 50.0256 104.507C49.344 104.84 48.5973 105.018 47.8387 105.028C47.5765 104.968 47.3288 104.855 47.1101 104.698C46.8915 104.54 46.7062 104.341 46.5652 104.111C46.2121 103.593 45.6007 103.229 45.563 102.479C45.5421 102.045 45.0821 101.982 44.7364 101.805C44.3394 101.603 43.8586 101.347 44.5825 100.757C45.0876 100.345 44.6796 99.773 44.0912 99.3812" fill="#35B8BE"/>
<path d="M34.7149 177.882C36.164 175.981 38.0387 175.501 39.8742 175.016C41.4858 174.582 43.1261 174.262 44.7829 174.059C46.4362 173.862 48.1263 173.205 49.8811 174.175C48.5794 175.275 46.8123 174.677 45.2639 175.652C47.224 175.925 48.961 175.333 51.0924 175.379L50.0883 176.43C50.4042 176.575 50.7316 176.732 51.0533 176.883L50.9154 178.756C50.5899 178.856 50.1168 178.974 49.663 179.144C47.8946 179.808 47.9014 179.81 46.7016 181.559C46.5582 181.749 46.3946 181.923 46.2136 182.078C44.9554 183.391 43.355 184.324 41.5936 184.771C40.7566 184.958 39.891 184.98 39.0452 184.835C38.8654 184.813 38.6837 184.852 38.528 184.944C38.4609 184.99 38.3831 185.017 38.3022 185.024C38.2213 185.03 38.1401 185.015 38.0666 184.981C37.993 184.946 37.9297 184.893 37.8829 184.827C37.836 184.76 37.8072 184.683 37.7993 184.602C37.5495 183.631 36.7139 183.015 36.3549 182.116C36.2735 181.948 36.157 181.799 36.0133 181.68C35.8697 181.561 35.7022 181.475 35.5223 181.426C35.2373 181.204 35.0214 180.905 34.9001 180.564C34.7788 180.223 34.7573 179.855 34.8379 179.503C34.9893 179.218 35.5974 179.172 35.2975 178.648C35.1207 178.378 34.9267 178.12 34.7165 177.876" fill="#35B8BE"/>
<path d="M94.5637 128.813L94.6761 127.616L93.6937 127.845L91.6648 124.325C91.7271 124.156 91.7735 123.982 91.8036 123.805C91.9789 121.597 93.5414 120.515 95.2903 119.735C96.6689 119.115 98.1217 118.675 99.6129 118.428C100.575 118.165 101.6 118.269 102.49 118.721L98.1272 119.451L98.1427 119.78C98.3901 119.821 98.6409 119.836 98.8914 119.827C99.8967 119.69 100.893 119.494 101.9 119.381C102.346 119.332 102.939 119.125 102.894 120.044C102.881 120.327 103.415 120.639 103.701 120.935C103.952 121.195 104.209 121.449 104.412 121.656C104.259 122.555 103.491 122.357 103.03 122.819L104.739 122.827L105.28 124.077C104.982 124.251 104.524 124.463 105.136 124.94C105.797 125.457 105.963 126.002 105.273 126.621C105.21 126.678 105.138 126.811 105.163 126.866C105.649 127.936 104.792 128.258 104.136 128.515C102.536 129.006 100.877 129.28 99.2031 129.331C98.8136 129.372 97.9067 129.446 98.1323 128.437C98.1473 128.381 97.8465 128.256 97.6897 128.158C97.5841 128.353 97.3388 128.628 97.3968 128.729C97.4653 128.806 97.5057 128.904 97.5113 129.008C97.517 129.111 97.4876 129.213 97.4279 129.297C97.3683 129.381 97.2819 129.442 97.1829 129.471C97.0839 129.499 96.9781 129.493 96.8829 129.454C96.1845 128.905 95.2145 129.479 94.5594 128.81" fill="#35B8BE"/>
<path d="M136.3 132.772L135.322 133.338C135.835 133.541 136.257 133.71 136.719 133.895C136.674 134.712 136.666 135.56 136.568 136.4C136.509 136.914 136.375 137.417 136.17 137.891C136.013 138.247 135.4 137.77 135.155 138.447C134.996 138.884 134.146 139.024 133.533 139.2C133.034 139.343 132.21 138.705 132.002 139.702C131.386 139.572 130.769 139.443 130.152 139.313C130.091 139.303 130.03 139.295 129.968 139.291L126.443 141.329C126.383 141.64 126.298 141.945 126.19 142.243C125.991 142.689 125.397 143.066 125.175 142.75C124.682 142.048 123.989 142.881 123.571 142.364C123.435 141.278 123.626 140.176 124.119 139.201C123.403 139.325 122.779 139.432 121.993 139.567C121.863 139.329 121.489 138.962 121.555 138.718C121.98 137.174 122.022 135.443 123.484 134.36C123.848 134.027 124.247 133.734 124.675 133.486C125.679 133.047 126.722 132.691 127.756 132.323C128.265 132.141 128.794 132.011 129.311 131.843C130.103 131.585 131.049 131.981 131.751 131.3C132.518 131.506 133.328 131.486 134.084 131.241C134.33 131.19 134.584 131.189 134.83 131.238C135.077 131.288 135.311 131.388 135.518 131.531C135.725 131.674 135.901 131.858 136.036 132.071C136.17 132.284 136.26 132.522 136.3 132.771" fill="#35B8BE"/>
<path d="M179.516 82.2919L179.055 84.0229C178.876 84.6921 178.794 85.4463 177.787 85.3397C177.705 85.3577 177.629 85.3965 177.567 85.4522C177.505 85.508 177.457 85.5789 177.43 85.6582C177.336 86.4829 176.534 86.4863 176.075 86.8831C174.833 87.957 173.311 87.7541 171.864 87.7196C171.042 87.6992 170.549 87.2979 170.257 86.2708C169.929 85.119 169.888 83.7769 168.998 82.8063C169.147 82.2017 168.339 81.4564 169.278 80.9569C169.422 80.8433 169.519 80.6808 169.552 80.5C170.138 78.1205 171.89 77.0056 174.03 76.2535C175.063 75.7415 176.188 75.4394 177.339 75.3645C177.83 75.3914 178.319 75.4539 178.802 75.5515C178.96 75.5828 179.204 75.7469 179.214 75.8698C179.3 76.91 179.925 77.8237 180.01 78.8345C180.112 80.0101 179.943 81.1929 179.516 82.2919Z" fill="#35B8BE"/>
<path d="M89.5672 54.8697L87.9718 55.3725C88.6005 55.6363 88.8144 55.7302 89.0315 55.8156C89.7517 56.0968 89.7513 56.0946 89.5961 57.0602C89.5772 57.1815 89.5164 57.3589 89.5681 57.4174C89.8212 57.6701 89.9784 58.0034 90.0125 58.3597C90.0466 58.716 89.9555 59.0728 89.755 59.3685C89.352 60.105 88.8074 60.7539 88.1526 61.2779C85.5652 62.9305 82.5953 63.8853 79.53 64.05C78.9718 64.0056 78.4248 63.8674 77.9121 63.6409L78.1833 62.946C77.4953 62.8114 77.0419 62.5265 77.0936 61.6968C77.08 61.5418 77.029 61.3924 76.9451 61.2614C76.8611 61.1304 76.7466 61.0219 76.6116 60.9451C75.8242 60.6479 76.4399 59.9215 76.0966 59.518C76.9565 59.2523 76.2766 58.2192 76.9436 57.8352C77.5806 57.4711 78.1517 56.8923 78.8311 56.7219C80.3231 56.3071 81.8556 56.0547 83.4021 55.9692C83.7386 55.9844 84.0747 55.9317 84.3903 55.8141C84.7058 55.6966 84.9946 55.5166 85.2392 55.2849C85.9665 54.5167 86.9179 53.9993 87.9572 53.8067C88.8587 53.6528 88.8553 53.6342 89.5672 54.8697Z" fill="#35B8BE"/>
<path d="M101.924 95.9043C102.155 95.9403 102.381 96.0067 102.595 96.1018C102.74 96.1842 102.774 96.4785 102.917 96.543C103.06 96.6075 103.308 96.4732 103.488 96.5218C103.646 96.5642 103.78 96.8367 103.907 96.8244C104.154 96.7879 104.387 96.6886 104.584 96.5362C104.72 96.3804 104.828 96.2024 104.904 96.0099C104.468 96.0177 104.116 96.0234 103.761 96.0304C104.342 95.4719 104.861 94.8188 105.745 95.4084L105.136 96.1834C106.272 96.6046 105.958 95.3559 106.622 95.0862C106.387 95.6788 106.699 96.2002 106.453 96.7943C106.338 97.0743 106.846 97.6038 107.143 98.1534L104.888 99.7805L106.058 100.311L105.854 103.212C105.114 103.531 104.458 103.752 103.856 104.08C103.336 104.364 102.915 104.834 102.387 105.102C100.89 105.746 99.2667 106.045 97.6377 105.975C97.0589 105.989 96.1641 105.936 96.2942 104.87C95.3101 104.605 95.4387 103.529 94.9405 102.892C94.6502 102.454 94.5188 101.929 94.568 101.406C94.6173 100.882 94.8443 100.392 95.2111 100.017C96.3687 98.6765 97.8449 97.651 99.5033 97.0347C100.285 96.6692 101.049 96.2283 101.923 95.904" fill="#35B8BE"/>
<path d="M69.3966 120.316L68.833 121.162C70.3894 121.653 71.266 120.143 72.7755 120.306C72.6109 120.559 72.4186 120.792 72.2021 121.002C71.8135 121.26 71.4119 121.498 70.9988 121.714C71.5769 121.829 72.1765 121.733 72.69 121.444C73.6197 122.758 73.6197 122.758 73.3103 123.918C72.3454 124.261 71.4347 124.741 70.6058 125.343C69.8114 126.1 68.7977 126.113 67.9443 126.595C67.0748 127.015 66.1472 127.303 65.1923 127.449C64.666 127.589 64.1097 127.571 63.593 127.397C63.0168 127.138 62.2008 126.643 62.1438 126.17C62.0493 125.392 61.5124 125.417 61.1451 125.08C60.8622 124.871 60.6344 124.597 60.4815 124.28C60.3285 123.963 60.255 123.613 60.2674 123.261C60.3134 122.798 60.1166 122.179 60.3491 121.893C60.8997 121.166 61.5848 120.552 62.3671 120.084C63.8503 119.311 65.3819 118.635 66.9522 118.06C67.3424 117.915 67.8889 118.181 68.557 118.285L67.8015 118.838C68.7931 118.958 68.8971 119.882 69.3975 120.317" fill="#35B8BE"/>
<path d="M3.42191 91.9774L4.23638 91.1262C2.82822 90.2948 2.77696 90.169 3.65746 89.0703C2.8056 89.1931 2.12444 89.2925 1.38331 89.3996L1.0698 88.2485L3.47397 86.8619C2.66954 86.2098 1.95071 87.2142 1.09437 86.8652C1.2229 85.8251 2.05813 85.4272 2.8383 85.0187C3.26394 84.7955 3.78643 84.756 4.20262 84.5178C6.05631 83.4772 7.98492 82.5766 9.97245 81.8233C10.1496 81.7433 10.3193 81.6479 10.4798 81.5382C10.8808 81.2027 11.3458 80.9523 11.8464 80.8021C12.347 80.652 12.8729 80.6053 13.3924 80.6648C13.6437 81.514 12.8533 81.7166 12.2964 82.0983C12.9945 82.8274 13.4167 81.6902 14.0164 81.9078C14.7456 82.152 13.4247 83.3082 14.7303 83.2755L14.1887 85.3062C13.6258 85.7764 13.0639 86.2582 12.49 86.7233C11.8418 87.0964 11.2323 87.5331 10.6705 88.0271C10.1576 88.6279 9.24847 88.8762 8.55397 89.3358C8.10016 89.6375 7.55454 89.7599 7.22955 90.3502C6.99466 90.7771 6.23664 90.835 6.14119 91.5535C6.11469 91.7537 5.67327 92.0089 5.39925 92.0397C4.73955 92.0639 4.07892 92.0431 3.42191 91.9774Z" fill="#35B8BE"/>
<path d="M131.995 112.746C131.781 113.379 131.994 113.915 131.413 114.391L131.354 113.567C130.545 113.586 129.734 113.632 128.925 113.608C128.719 113.602 128.361 113.396 128.34 113.243C128.222 112.41 127.475 111.96 127.186 111.254C127.085 110.907 127.073 110.539 127.152 110.186C127.179 110.011 127.488 109.88 127.516 109.705C127.505 109.463 127.45 109.225 127.354 109.002C128.575 108.986 128.616 109.015 129.385 107.864C129.846 107.174 130.632 107.217 131.243 106.81L130.56 106.233C130.811 106.093 131.076 105.821 131.255 105.869C133.483 106.48 133.533 106.491 135.142 105.831C134.287 104.984 133.409 105.929 132.407 105.723C132.522 105.462 132.598 105.049 132.729 105.03C134.019 104.865 135.314 104.432 136.507 105.556C136.878 105.905 137.093 106.009 136.964 106.534C136.912 106.89 136.953 107.254 137.083 107.59C137.354 108.459 137.673 109.313 138.002 110.253L137.458 110.442C136.855 110.951 137.854 111.921 136.606 111.697C136.251 111.633 136.873 112.635 135.962 112.39C135.611 112.295 135.086 112.847 134.674 113.085L133.884 112.507L133.617 112.732L134.484 113.536C133.826 113.717 133.445 113.824 132.946 113.963L131.995 112.746Z" fill="#35B8BE"/>
<path d="M92.9694 34.6068L94.7339 33.8459L93.8856 33.1064C94.4027 32.5361 95.0617 32.1139 95.7953 31.8829C97.3238 31.3165 98.9306 30.9919 100.466 30.4128C100.95 30.2645 101.461 30.2217 101.964 30.2874C102.467 30.353 102.95 30.5256 103.382 30.7934C103.327 31.6947 102.275 31.6102 101.831 32.2544L103.653 32.7456L103.17 36.7257C101.839 37.6101 100.323 38.1746 98.7379 38.3752C97.8545 38.4926 97.0768 39.0199 96.1074 38.9825C95.7256 38.9677 95.3655 38.3753 94.9444 38.8764C94.8083 38.7854 94.6771 38.6874 94.5511 38.5828C95.1325 37.7445 93.8721 37.0691 94.3265 36.2339C94.3565 36.1798 94.0541 35.9293 93.8887 35.7894C93.6918 35.656 93.5029 35.5109 93.3231 35.3551C93.1768 35.1216 93.0577 34.8722 92.9681 34.6116" fill="#35B8BE"/>
<path d="M59.2366 70.1105L57.325 70.3913C57.7465 70.6956 57.94 70.8348 58.1444 70.9832C58.0709 71.0535 57.9985 71.1812 57.9261 71.1814C57.2519 71.1735 56.5875 71.3412 55.9979 71.6681C55.6152 71.8533 55.2088 71.9847 54.7902 72.0588C54.4371 72.1156 54.1035 72.2587 53.8189 72.4756C53.5343 72.6925 53.3075 72.9764 53.1586 73.3022L53.6888 73.7685L52.6425 74.5893C52.4091 74.5264 52.302 74.5245 52.2904 74.4944C52.1609 74.0957 52.0454 73.6915 51.9361 73.322C51.3989 73.2809 50.9149 73.2344 50.1872 73.171L51.1796 72.0289L49.861 70.862L49.9999 69.9262L49.1683 69.7021C49.0503 69.4863 48.9777 69.2486 48.9548 69.0038C48.9318 68.7589 48.9591 68.512 49.0349 68.2783C49.1107 68.0446 49.2335 67.8289 49.3956 67.6447C49.5577 67.4604 49.7558 67.3114 49.9776 67.2068C51.0256 66.5347 51.9773 65.7154 53.1848 65.0655L53.6372 66.4249C54.462 66.413 55.2747 66.2258 56.0216 65.8756C56.8594 65.5897 57.7237 65.3886 58.6017 65.2754C59.1306 66.0067 58.515 66.3061 58.1691 66.7539C58.3564 66.8272 58.5261 66.9662 58.6817 66.9449C59.6265 66.7954 60.0007 67.0714 59.8249 67.878C59.6597 68.6367 59.4316 69.3795 59.2366 70.1105Z" fill="#35B8BE"/>
<path d="M66.1124 14.6868L64.5577 15.2233C64.7941 15.3761 64.9316 15.5313 65.0774 15.5468C65.7868 15.6012 66.4996 15.6192 67.309 15.6477L67.0181 16.7383L65.9915 16.9311L67.5206 17.3432C67.5136 17.536 67.5316 17.729 67.5743 17.9173C67.713 18.2656 68.0808 18.8601 68.0296 18.897C67.5108 19.2681 67.5906 19.9187 67.2902 20.3352C67.1055 20.6781 66.8148 20.9515 66.4616 21.1144C66.1085 21.2773 65.712 21.3209 65.3316 21.2386C65.0692 21.1679 64.8715 20.7384 64.6395 20.7318C64.4487 20.726 64.2808 21.1968 64.0397 21.2863C63.916 21.317 63.7866 21.3162 63.6632 21.284C63.5398 21.2518 63.4263 21.1893 63.333 21.102C63.076 20.5146 62.5455 20.4836 62.0679 20.3901C61.8145 20.3687 61.5794 20.249 61.4125 20.0565C61.2456 19.864 61.1601 19.614 61.1742 19.3595C61.1646 18.76 60.8434 18.5335 60.343 18.2733C59.9925 18.1238 59.7132 17.8441 59.5635 17.4929C59.4139 17.1417 59.4056 16.7462 59.5405 16.3895C59.6405 16.0907 59.7024 15.7804 59.7247 15.466C59.7605 14.6766 60.1906 13.7852 60.7971 13.702C62.2803 13.4913 63.7576 13.0085 65.2846 13.5838C65.8793 13.8083 65.9546 14.2235 66.1124 14.6868Z" fill="#35B8BE"/>
<path d="M83.6836 83.9453L82.8161 85.3751C83.0422 85.6083 83.3388 85.76 83.6596 85.8065C83.9804 85.853 84.3074 85.7918 84.5895 85.6323C85.0104 86.4505 83.9943 86.6462 83.9197 87.3175C84.2321 87.4649 84.5573 87.622 84.8748 87.777C85.2796 88.4271 84.1633 88.6145 84.4695 89.351C84.7757 90.0875 83.7043 89.9823 83.4441 90.4812C83.2306 90.7683 82.9351 90.9835 82.5968 91.0986C81.5461 91.571 80.2974 91.3516 79.2915 92.0984C79.0514 92.2772 78.4652 91.9897 77.8989 91.891C78.6948 90.9778 77.0464 90.4651 77.7108 89.56C77.2902 89.1129 76.3 89.1611 76.4959 87.9888L77.6326 87.6743L76.8097 86.9674C76.8284 86.2884 77.4565 86.1436 77.8618 86.0279C79.1785 85.6614 80.3797 84.9642 81.3518 84.002C81.496 83.8366 81.6729 83.7031 81.8713 83.6098C82.0697 83.5166 82.2853 83.4657 82.5045 83.4604C82.7237 83.455 82.9417 83.4954 83.1447 83.5789C83.3476 83.6623 83.5311 83.7871 83.6836 83.9453Z" fill="#35B8BE"/>
<path d="M135.834 88.177L134.606 85.2938L135.027 83.7179C136.076 83.3427 137.293 83.4573 138.266 82.7495C139.522 82.9875 140.516 82.3392 141.572 81.8332C141.91 81.6663 142.418 81.8538 142.953 81.8944C142.956 82.1854 142.878 82.4526 142.973 82.6253C143.932 84.4299 142.814 85.5875 141.589 86.4823C140.507 87.2377 139.316 87.8206 138.057 88.2102C137.319 88.3278 136.567 88.3165 135.833 88.1768" fill="#35B8BE"/>
</g>
<defs>
<clipPath id="clip0_2_1218">
<rect width="203" height="193" fill="white"/>
</clipPath>
</defs>
</svg>
