<svg width="40" height="41" viewBox="0 0 40 41" fill="none" xmlns="http://www.w3.org/2000/svg">
<g clip-path="url(#clip0_256_171)">
<path d="M34.375 23.251H33.125V24.501H34.375V23.251Z" fill="#BC4639"/>
<path d="M34.375 28.251H33.125V29.501H34.375V28.251Z" fill="#BC4639"/>
<path d="M34.375 33.251H33.125V34.501H34.375V33.251Z" fill="#BC4639"/>
<path d="M38.125 18.251H35.3231C35.0044 16.7916 34.3187 15.4397 33.3175 14.3147C32.8631 13.8041 32.3325 13.3922 31.7644 13.096C32.9038 12.3054 33.6525 10.9897 33.6525 9.50098V8.87598H30.5275C28.935 8.87598 27.5431 9.7341 26.7775 11.0091V9.50098C26.7775 8.12223 27.8988 7.00098 29.2775 7.00098V5.75098C27.2094 5.75098 25.5275 7.43285 25.5275 9.50098V12.9691C23.6781 12.2991 21.5987 12.8004 20.27 14.2779C20.1094 14.4566 19.9587 14.6422 19.8144 14.8322L19.8688 14.5716C19.9556 14.1529 20 13.7235 20 13.251C20 11.4954 19.27 9.9091 18.1006 8.77285L20.2919 5.54785C20.3387 5.47848 20.3813 5.40535 20.4206 5.32723C20.8975 4.37285 20.5094 3.20785 19.555 2.73098L19.3988 2.65285C18.9369 2.4216 18.4125 2.3841 17.9219 2.54785C17.4312 2.7116 17.0338 3.05598 16.7975 3.52723C16.7638 3.5941 16.7344 3.66348 16.7094 3.73285L15.435 7.23785C15.3487 7.21348 15.2612 7.19098 15.1737 7.17035L15.615 2.75223C15.6219 2.69098 15.625 2.62848 15.625 2.5666C15.625 1.56535 14.81 0.750977 13.8094 0.750977H13.6912C12.69 0.750977 11.875 1.56535 11.875 2.5666C11.875 2.6291 11.8781 2.69098 11.8844 2.74785L12.3263 7.1716C12.2381 7.19223 12.1513 7.21473 12.065 7.2391L10.7913 3.73473C10.7656 3.6641 10.7362 3.59473 10.6981 3.51848C10.4669 3.05598 10.0694 2.7116 9.57875 2.54785C9.08875 2.3841 8.56438 2.4216 8.10188 2.65285L7.94563 2.73098C6.99188 3.20848 6.60375 4.37285 7.08125 5.32973C7.12 5.40535 7.16188 5.47785 7.21 5.5491L9.4025 8.77598C8.23125 9.91848 7.5 11.5166 7.5 13.296C7.5 13.7235 7.54438 14.1529 7.63188 14.571L8.39875 18.251H7.5C6.81063 18.251 6.25 18.8116 6.25 19.501V19.551C6.045 19.5216 5.8375 19.501 5.625 19.501H2.5V20.126C2.5 21.6147 3.24875 22.9304 4.38812 23.721C3.81938 24.0172 3.28875 24.4291 2.835 24.9404C1.41 26.5416 0.625 28.6054 0.625 30.751C0.625 33.1522 1.57813 35.3916 3.30875 37.0572C4.955 38.641 7.09625 39.5016 9.37125 39.5016C9.48812 39.5016 9.60437 39.4991 9.72188 39.4947C11.9462 39.4091 13.9694 38.4697 15.4737 37.0016H33.75C35.4731 37.0016 36.875 35.5997 36.875 33.8766V22.001H38.125C38.8144 22.001 39.375 21.4404 39.375 20.751V19.501C39.375 18.8116 38.8144 18.251 38.125 18.251ZM30.5275 10.126H32.3394C32.0487 11.5504 30.7869 12.626 29.2775 12.626H27.4656C27.7556 11.2016 29.0181 10.126 30.5275 10.126ZM21.1987 15.1135C22.2169 13.9822 23.9013 13.6091 25.295 14.2054C25.37 14.2372 25.4494 14.2622 25.5275 14.2891V15.6235C24.9069 15.3922 24.3175 14.9054 24.0938 14.6829L23.2106 15.5679C23.3569 15.7147 24.6856 17.001 26.1525 17.001C27.6194 17.001 28.9481 15.7147 29.0944 15.5679L28.2113 14.6829C27.9875 14.9047 27.3981 15.3916 26.7775 15.6235V13.876H29.2775C29.4894 13.876 29.6956 13.856 29.8994 13.8266C30.775 13.8891 31.7013 14.3791 32.3837 15.1454C33.1806 16.0404 33.7412 17.1035 34.0369 18.251H19.5181C19.8169 17.0897 20.3875 16.0154 21.1987 15.1135ZM17.8844 4.1591C17.8931 4.13535 17.9025 4.11223 17.9206 4.07723C18.0025 3.91348 18.1425 3.7916 18.3169 3.73348C18.4919 3.67535 18.6762 3.6891 18.84 3.77098L18.9963 3.8491C19.3344 4.01785 19.4719 4.43035 19.3037 4.76598C19.29 4.7941 19.2731 4.82223 19.2569 4.8466L17.1181 7.9941C16.95 7.88598 16.7769 7.78598 16.5988 7.6941L17.8844 4.1591ZM13.125 2.5666C13.125 2.25473 13.3788 2.00098 13.6906 2.00098H13.8088C14.1206 2.00098 14.3744 2.25473 14.3713 2.62285L13.9325 7.01035C13.8719 7.00848 13.8119 7.00098 13.75 7.00098C13.6881 7.00098 13.6281 7.00848 13.5669 7.01035L13.125 2.5666ZM8.24438 4.84848C8.22687 4.82223 8.21 4.79473 8.1975 4.76848C8.02813 4.43035 8.16563 4.01785 8.50375 3.8491L8.66 3.77098C8.82312 3.68973 9.00875 3.67535 9.18312 3.73348C9.35687 3.7916 9.4975 3.91348 9.58562 4.0891C9.5975 4.1116 9.60687 4.13473 9.61625 4.15973L10.9019 7.69535C10.7238 7.78723 10.5506 7.88723 10.3831 7.99535L8.24438 4.84848ZM13.75 8.25098C16.5069 8.25098 18.75 10.4941 18.75 13.296C18.75 13.6379 18.7144 13.981 18.645 14.316L17.825 18.251H10.8638C11.3031 17.8666 11.8713 17.626 12.5 17.626V16.376C11.3188 16.376 10.265 16.926 9.57687 17.7822L8.85437 14.316C8.78562 13.981 8.75 13.6379 8.75 13.251C8.75 10.4941 10.9931 8.25098 13.75 8.25098ZM7.5 19.501H8.80625C8.77188 19.7047 8.75 19.9129 8.75 20.126V20.8204C8.39125 20.4535 7.96812 20.1529 7.5 19.9297V19.501ZM5.625 20.751C7.13438 20.751 8.39687 21.8266 8.68688 23.251H6.875C5.36562 23.251 4.10312 22.1754 3.81312 20.751H5.625ZM9.67375 38.2454C7.6 38.3197 5.65875 37.5829 4.17563 36.156C2.6925 34.7285 1.875 32.8091 1.875 30.751C1.875 28.9116 2.5475 27.1435 3.76812 25.7704C4.45062 25.0035 5.37687 24.5135 6.25313 24.4516C6.45687 24.481 6.66313 24.501 6.875 24.501H8.75V26.2485C8.12937 26.0172 7.54 25.5304 7.31625 25.3079L6.43313 26.1929C6.57938 26.3397 7.90812 27.626 9.375 27.626C10.8419 27.626 12.1706 26.3397 12.3169 26.1929L11.4338 25.3079C11.21 25.5297 10.6206 26.0166 10 26.2485V25.0716C10.2994 25.0235 10.5894 24.9454 10.8575 24.8304C12.2506 24.2329 13.9356 24.6079 14.9531 25.7385C16.275 27.2079 16.955 29.1091 16.8675 31.0916C16.6969 34.9541 13.5363 38.096 9.67375 38.2454ZM18.115 30.751C18.115 29.4372 17.8344 28.1616 17.2825 27.001H35.625V30.751H18.115ZM33.75 35.751H16.5394C17.3094 34.6547 17.8356 33.3779 18.035 32.001H35.625V33.876C35.625 34.9097 34.7837 35.751 33.75 35.751ZM38.125 20.751H35.625V25.751H16.5469C16.3419 25.4579 16.125 25.1722 15.8825 24.9029C14.4906 23.356 12.2725 22.866 10.3663 23.6816C10.2519 23.7304 10.1262 23.7622 10.0006 23.7935V22.001H34.3756V20.751H10V20.126C10 19.9091 10.0363 19.7022 10.0887 19.501H38.125V20.751Z" fill="#BC4639"/>
<path d="M4.375 30.751H3.125C3.125 34.1972 5.92875 37.001 9.375 37.001V35.751C6.61813 35.751 4.375 33.5079 4.375 30.751Z" fill="#BC4639"/>
<path d="M16.875 10.751H15.625V12.001H16.875V10.751Z" fill="#BC4639"/>
<path d="M16.875 13.251H15.625V14.501H16.875V13.251Z" fill="#BC4639"/>
<path d="M16.875 15.751H15.625V17.001H16.875V15.751Z" fill="#BC4639"/>
</g>
<defs>
<clipPath id="clip0_256_171">
<rect width="40" height="40" fill="white" transform="translate(0 0.125977)"/>
</clipPath>
</defs>
</svg>
