<?xml version="1.0" encoding="utf-8"?>
<!-- Generator: Adobe Illustrator 25.4.1, SVG Export Plug-In . SVG Version: 6.00 Build 0)  -->
<svg version="1.1" id="Слой_1" xmlns="http://www.w3.org/2000/svg" xmlns:xlink="http://www.w3.org/1999/xlink" x="0px" y="0px"
	 viewBox="0 0 16 16" style="enable-background:new 0 0 16 16;" xml:space="preserve">
<path d="M4.3,3.2L3.8,3.6L0,6.6l0.6,0.8L4,4.7l1.1,2.2l0.2,0.6l0.5-0.4l3-2.4L10,6.9l0.3,0.6l0.5-0.4l3-2.4l1.3,2.6L16,6.9l-1.6-3.1
	l-0.3-0.5l-0.5,0.4l-3,2.4L9.5,3.7L9.2,3.2L8.8,3.6L5.7,6L4.6,3.7L4.3,3.2L4.3,3.2z M4.3,8.9L3.8,9.3l-3.8,3l0.6,0.8L4,10.5l1.1,2.2
	l0.2,0.6l0.5-0.4l3-2.4l1.1,2.2l0.3,0.6l0.5-0.4l3-2.4l1.3,2.6l0.9-0.4l-1.6-3.1l-0.3-0.5l-0.5,0.4l-3,2.3L9.5,9.5L9.2,8.9L8.8,9.3
	l-3,2.3L4.6,9.5L4.3,8.9L4.3,8.9z"/>
</svg>
