<svg xmlns="http://www.w3.org/2000/svg" viewBox="1.25 1.53073 13.75 12.88">
  <path d="M5.344 1.531a.902.902 0 0 0-.438.125c-.336.14-.614.375-.843.625-.184.2-.346.418-.5.625A3.55 3.55 0 0 0 3 2.344c-.49-.38-1.034-.657-1.25-.781l-.5.875c.284.163.74.388 1.125.687C2.761 3.424 3 3.75 3 4v8h1V4c.283-.356.55-.744.813-1.031.18-.196.356-.329.468-.375.156-.113.278.064.407.094 0 0 .614.342.875.562.27.23.437.431.437.75v8h1V4c.283-.356.55-.744.813-1.031.18-.196.356-.329.468-.375.113-.047.25 0 .25 0l.156.094s.615.342.876.562c.27.23.437.431.437.75v8c.008.305.073.593.156.844-.371.116-.76.187-1.156.187-.264 0-.5.236-.5.5s.236.504.5.5a5 5 0 0 0 1.688-.312c.041.042.08.088.124.125.493.41 1.105.562 1.688.562v-1c-.313 0-.606-.038-.844-.156.249-.157.5-.33.719-.531 2.035-1.858 2.17-5.028.313-7.063a.508.508 0 0 0-.407-.187.51.51 0 0 0-.375.218l-.906.72V4c0-.68-.384-1.196-.781-1.531-.397-.336-1.063-.656-1.063-.656-.406-.182-.787-.28-1.25-.157-.336.14-.614.375-.844.625a8.03 8.03 0 0 0-.5.594c-.11-.142-.218-.3-.343-.406-.397-.336-1.063-.656-1.063-.656-.064-.016-.395-.292-.812-.282zm7.906 5.157a3.996 3.996 0 0 1-.563 5.28 4.273 4.273 0 0 1-.624.47A2.328 2.328 0 0 1 12 12c-.001-.032 0-.06 0-.094V7.687l1.25-1z" fill="#000"/>
</svg>