<svg width="40" height="40" viewBox="0 0 40 40" fill="none" xmlns="http://www.w3.org/2000/svg">
<path d="M33.3346 17.5003C32.8926 17.5003 32.4687 17.6759 32.1561 17.9885C31.8436 18.301 31.668 18.725 31.668 19.167V30.8337C31.668 31.2757 31.4924 31.6996 31.1798 32.0122C30.8673 32.3247 30.4433 32.5003 30.0013 32.5003H6.66797C6.22594 32.5003 5.80202 32.3247 5.48946 32.0122C5.1769 31.6996 5.0013 31.2757 5.0013 30.8337V17.5003C5.0013 17.0583 5.1769 16.6344 5.48946 16.3218C5.80202 16.0093 6.22594 15.8337 6.66797 15.8337H10.0013C10.3647 15.8526 10.7244 15.7521 11.0254 15.5475C11.3263 15.3428 11.552 15.0453 11.668 14.7003L12.568 11.967C12.6798 11.636 12.8928 11.3484 13.1769 11.1451C13.461 10.9417 13.8019 10.8328 14.1513 10.8337H23.3346C23.7767 10.8337 24.2006 10.6581 24.5131 10.3455C24.8257 10.0329 25.0013 9.60902 25.0013 9.16699C25.0013 8.72496 24.8257 8.30104 24.5131 7.98848C24.2006 7.67592 23.7767 7.50033 23.3346 7.50033H14.068C13.0205 7.50228 12.0002 7.83313 11.1509 8.44617C10.3016 9.0592 9.66632 9.92347 9.33463 10.917L8.8013 12.5837H6.66797C5.34189 12.5837 4.07012 13.1104 3.13243 14.0481C2.19475 14.9858 1.66797 16.2576 1.66797 17.5837V30.917C1.66797 32.2431 2.19475 33.5148 3.13243 34.4525C4.07012 35.3902 5.34189 35.917 6.66797 35.917H30.0013C31.3274 35.917 32.5992 35.3902 33.5368 34.4525C34.4745 33.5148 35.0013 32.2431 35.0013 30.917V19.2503C35.0126 19.0245 34.9779 18.7988 34.8992 18.5869C34.8205 18.375 34.6995 18.1813 34.5436 18.0176C34.3877 17.8539 34.2001 17.7236 33.9923 17.6347C33.7845 17.5458 33.5607 17.5 33.3346 17.5003V17.5003ZM18.3346 15.8337C17.0161 15.8337 15.7272 16.2247 14.6308 16.9572C13.5345 17.6897 12.68 18.7309 12.1754 19.9491C11.6709 21.1673 11.5388 22.5077 11.7961 23.8009C12.0533 25.0941 12.6882 26.282 13.6206 27.2144C14.5529 28.1467 15.7408 28.7817 17.034 29.0389C18.3272 29.2961 19.6677 29.1641 20.8859 28.6595C22.104 28.1549 23.1452 27.3005 23.8778 26.2041C24.6103 25.1078 25.0013 23.8189 25.0013 22.5003C25.0013 20.7322 24.2989 19.0365 23.0487 17.7863C21.7984 16.536 20.1027 15.8337 18.3346 15.8337V15.8337ZM18.3346 25.8337C17.6754 25.8337 17.0309 25.6382 16.4827 25.2719C15.9346 24.9056 15.5073 24.385 15.255 23.7759C15.0027 23.1668 14.9367 22.4966 15.0653 21.85C15.194 21.2034 15.5114 20.6095 15.9776 20.1433C16.4438 19.6771 17.0377 19.3597 17.6843 19.231C18.3309 19.1024 19.0012 19.1684 19.6102 19.4207C20.2193 19.673 20.7399 20.1003 21.1062 20.6484C21.4725 21.1966 21.668 21.8411 21.668 22.5003C21.668 23.3844 21.3168 24.2322 20.6917 24.8573C20.0665 25.4825 19.2187 25.8337 18.3346 25.8337ZM36.668 7.50033H35.0013V5.83366C35.0013 5.39163 34.8257 4.96771 34.5131 4.65515C34.2006 4.34259 33.7767 4.16699 33.3346 4.16699C32.8926 4.16699 32.4687 4.34259 32.1561 4.65515C31.8436 4.96771 31.668 5.39163 31.668 5.83366V7.50033H30.0013C29.5593 7.50033 29.1353 7.67592 28.8228 7.98848C28.5102 8.30104 28.3346 8.72496 28.3346 9.16699C28.3346 9.60902 28.5102 10.0329 28.8228 10.3455C29.1353 10.6581 29.5593 10.8337 30.0013 10.8337H31.668V12.5003C31.668 12.9424 31.8436 13.3663 32.1561 13.6788C32.4687 13.9914 32.8926 14.167 33.3346 14.167C33.7767 14.167 34.2006 13.9914 34.5131 13.6788C34.8257 13.3663 35.0013 12.9424 35.0013 12.5003V10.8337H36.668C37.11 10.8337 37.5339 10.6581 37.8465 10.3455C38.159 10.0329 38.3346 9.60902 38.3346 9.16699C38.3346 8.72496 38.159 8.30104 37.8465 7.98848C37.5339 7.67592 37.11 7.50033 36.668 7.50033Z" fill="#D4A59A"/>
</svg>
