<svg width="941" height="663" viewBox="0 0 941 663" fill="none" xmlns="http://www.w3.org/2000/svg">
<g style="mix-blend-mode:darken">
<path d="M871.871 0.940939C905.391 -4.5275 937.343 18.2352 939.222 52.1458C944.666 150.452 924.918 248.891 881.379 337.954C828.804 445.501 744.133 534.071 639.06 591.431C533.987 648.792 413.696 672.113 294.8 658.173C196.339 646.629 102.858 610.004 23.1127 552.26C-4.39539 532.341 -6.26171 493.154 16.4657 467.916C39.193 442.679 77.882 441.045 105.952 460.164C166.322 501.286 235.976 527.445 309.122 536.021C402.719 546.994 497.414 528.635 580.129 483.48C662.844 438.325 729.498 368.602 770.886 283.939C803.23 217.775 818.896 145.038 816.956 72.0191C816.054 38.0686 838.352 6.4094 871.871 0.940939Z" fill="url(#paint0_linear_1_142)"/>
</g>
<defs>
<linearGradient id="paint0_linear_1_142" x1="955.5" y1="84" x2="104" y2="587" gradientUnits="userSpaceOnUse">
<stop stop-color="#312749"/>
<stop offset="1" stop-color="#3E3457"/>
</linearGradient>
</defs>
</svg>
