<svg width="1600" height="867" viewBox="0 0 1600 867" fill="none" xmlns="http://www.w3.org/2000/svg">
<path opacity="0.2" d="M27.4047 836.205C24.7195 833.121 25.0562 828.375 28.1497 825.705L282.98 605.723L37.6499 836.71C34.6896 839.498 30.0738 839.27 27.4047 836.205Z" fill="#BE416C"/>
<line opacity="0.1" y1="-2" x2="659.534" y2="-2" transform="matrix(0.717244 -0.696822 0.681075 0.732214 0 463)" stroke="#FD556F" stroke-width="4"/>
<line opacity="0.1" y1="-2" x2="367.944" y2="-2" transform="matrix(0.72865 -0.684886 0.668929 0.743326 11.7417 255)" stroke="#FD556F" stroke-width="4"/>
<path opacity="0.2" d="M106.58 269.805C103.916 266.745 104.377 262.008 107.58 259.53L190.414 195.433L116.555 270.115C113.75 272.951 109.196 272.81 106.58 269.805Z" fill="#2C8CC9"/>
<path opacity="0.2" d="M445.943 827.095C443.279 824.035 443.74 819.298 446.943 816.819L529.777 752.723L455.918 827.405C453.113 830.241 448.56 830.1 445.943 827.095Z" fill="#2C8CC9"/>
<path opacity="0.2" d="M69.5233 533.095C66.859 530.035 67.32 525.298 70.5231 522.819L153.357 458.723L79.4982 533.405C76.6933 536.241 72.1398 536.1 69.5233 533.095Z" fill="#3698D1"/>
<path opacity="0.2" d="M435.43 247.045C432.745 243.961 433.081 239.216 436.175 236.545L691.005 16.5638L445.675 247.551C442.715 250.338 438.099 250.11 435.43 247.045Z" fill="#BE416C"/>
<path opacity="0.2" d="M1572.6 6.57846C1575.28 9.66224 1574.94 14.4076 1571.85 17.0781L1317.02 237.06L1562.35 6.07253C1565.31 3.28531 1569.93 3.51324 1572.6 6.57846Z" fill="#BE416C"/>
<line opacity="0.1" y1="-2" x2="659.534" y2="-2" transform="matrix(-0.717244 0.696822 -0.681075 -0.732214 1600 379.783)" stroke="#FD556F" stroke-width="4"/>
<line opacity="0.1" y1="-2" x2="367.944" y2="-2" transform="matrix(-0.72865 0.684886 -0.668929 -0.743326 1588.26 587.783)" stroke="#FD556F" stroke-width="4"/>
<path opacity="0.2" d="M1493.42 572.978C1496.08 576.038 1495.62 580.775 1492.42 583.254L1409.59 647.35L1483.44 572.668C1486.25 569.832 1490.8 569.974 1493.42 572.978Z" fill="#2C8CC9"/>
<path opacity="0.2" d="M1530.48 309.688C1533.14 312.748 1532.68 317.485 1529.48 319.964L1446.64 384.06L1520.5 309.378C1523.31 306.542 1527.86 306.684 1530.48 309.688Z" fill="#3698D1"/>
<path opacity="0.2" d="M1164.57 595.738C1167.26 598.822 1166.92 603.568 1163.83 606.238L908.995 826.22L1154.33 595.232C1157.29 592.445 1161.9 592.673 1164.57 595.738Z" fill="#BE416C"/>
<path opacity="0.2" d="M604.707 848.204C602.021 845.12 602.358 840.375 605.452 837.705L860.282 617.723L614.952 848.71C611.991 851.497 607.376 851.269 604.707 848.204Z" fill="#BE416C"/>
<line opacity="0.1" y1="-2" x2="659.534" y2="-2" transform="matrix(0.717244 -0.696822 0.681075 0.732214 577.302 475)" stroke="#FD556F" stroke-width="4"/>
<line opacity="0.1" y1="-2" x2="367.944" y2="-2" transform="matrix(0.72865 -0.684886 0.668929 0.743326 589.044 267)" stroke="#FD556F" stroke-width="4"/>
<line opacity="0.1" x1="238.641" y1="865.532" x2="721.641" y2="418.532" stroke="#FD556F" stroke-width="4"/>
<path opacity="0.2" d="M683.883 281.804C681.218 278.745 681.679 274.008 684.882 271.529L767.716 207.433L693.857 282.115C691.053 284.951 686.499 284.809 683.883 281.804Z" fill="#2C8CC9"/>
<path opacity="0.2" d="M646.825 545.095C644.16 542.035 644.621 537.298 647.824 534.819L730.659 470.723L656.8 545.405C653.995 548.241 649.441 548.099 646.825 545.095Z" fill="#3698D1"/>
<path opacity="0.2" d="M1012.73 259.045C1010.05 255.961 1010.38 251.215 1013.48 248.545L1268.31 28.5633L1022.98 259.551C1020.02 262.338 1015.4 262.11 1012.73 259.045Z" fill="#BE416C"/>
</svg>
