<svg width="30" height="30" viewBox="0 0 30 30" fill="none" xmlns="http://www.w3.org/2000/svg">
<path d="M26.321 9.81055H23.7715C23.5289 9.81055 23.332 10.0074 23.332 10.25C23.332 10.4926 23.5289 10.6895 23.7715 10.6895H26.321C26.5636 10.6895 26.7605 10.4926 26.7605 10.25C26.7605 10.0074 26.5636 9.81055 26.321 9.81055Z" fill="#BC4639"/>
<path d="M23.7715 7.12793H24.9289C25.1718 7.12793 25.3684 6.93109 25.3684 6.68848C25.3684 6.44563 25.1718 6.24902 24.9289 6.24902H23.7715C23.5289 6.24902 23.332 6.44563 23.332 6.68848C23.332 6.93109 23.5289 7.12793 23.7715 7.12793Z" fill="#BC4639"/>
<path d="M23.7715 3.56641H25.3393C25.5819 3.56641 25.7788 3.3698 25.7788 3.12695C25.7788 2.88434 25.5819 2.6875 25.3393 2.6875H23.7715C23.5289 2.6875 23.332 2.88434 23.332 3.12695C23.332 3.3698 23.5289 3.56641 23.7715 3.56641Z" fill="#BC4639"/>
<path d="M25.3393 16.9346H23.7715C23.5289 16.9346 23.332 17.1312 23.332 17.374C23.332 17.6166 23.5289 17.8135 23.7715 17.8135H25.3393C25.5819 17.8135 25.7788 17.6166 25.7788 17.374C25.7788 17.1312 25.5819 16.9346 25.3393 16.9346Z" fill="#BC4639"/>
<path d="M23.7715 14.251H24.9289C25.1718 14.251 25.3684 14.0544 25.3684 13.8115C25.3684 13.5689 25.1718 13.3721 24.9289 13.3721H23.7715C23.5289 13.3721 23.332 13.5689 23.332 13.8115C23.332 14.0544 23.5289 14.251 23.7715 14.251Z" fill="#BC4639"/>
<path d="M10.6705 9.53976C11.3974 9.92795 11.4411 10.0158 11.6345 10.0158C12.0868 10.0158 12.2427 9.41296 11.8497 9.19278L11.0996 8.77301L11.6512 8.5471C11.8758 8.45509 11.9834 8.19829 11.8913 7.97376C11.7993 7.74922 11.5428 7.64188 11.3182 7.73366L10.12 8.22438L8.54807 7.3441L10.12 6.46382C11.3521 6.95683 11.3333 6.9875 11.4846 6.9875C11.9646 6.9875 12.0955 6.32329 11.6512 6.14133L11.0999 5.91542L11.8497 5.49542C12.0614 5.37709 12.1372 5.10907 12.0186 4.89735C11.9 4.68564 11.6322 4.61011 11.4203 4.72867L10.6705 5.14844L10.7662 4.56021C10.8051 4.3208 10.6423 4.09489 10.4027 4.05598C10.1635 4.01707 9.93738 4.17958 9.89847 4.41922L9.69087 5.69707L8.08801 6.59451V4.75751L9.1015 3.95207C9.29147 3.80101 9.32306 3.52475 9.17223 3.33455C9.02116 3.14458 8.74467 3.11299 8.5547 3.26405L8.08801 3.63484V2.77539C8.08801 2.53278 7.8914 2.33594 7.64856 2.33594C7.40594 2.33594 7.20911 2.53278 7.20911 2.77539V3.63484L6.74265 3.26405C6.55267 3.11299 6.27618 3.14458 6.12512 3.33478C5.97406 3.52475 6.00565 3.80101 6.19585 3.95207L7.20911 4.75774V6.59451L5.60648 5.69707L5.39865 4.41922C5.35974 4.17958 5.13406 4.01707 4.89442 4.05598C4.65501 4.09489 4.49228 4.3208 4.53119 4.56021L4.62686 5.14844L3.87682 4.72867C3.6651 4.61011 3.39731 4.68564 3.27875 4.89735C3.16019 5.10907 3.23572 5.37709 3.44743 5.49542L4.19748 5.91542L3.64587 6.14133C3.42134 6.23334 3.314 6.48991 3.40578 6.71468C3.49802 6.93944 3.75482 7.04656 3.97913 6.95477L5.17709 6.46405L6.74905 7.34433L5.17709 8.22438L3.97913 7.73366C3.75436 7.64188 3.49779 7.74922 3.40578 7.97398C3.31377 8.19852 3.42134 8.45509 3.64587 8.5471L4.19748 8.77301L3.44743 9.19301C3.05444 9.41296 3.21054 10.0158 3.66258 10.0158C3.85599 10.0158 3.90016 9.92772 4.62686 9.53976L4.53119 10.1282C4.4877 10.3956 4.69415 10.6382 4.96561 10.6382C5.17709 10.6382 5.36363 10.4848 5.39865 10.2692L5.60648 8.99136L7.20911 8.09392V9.9307L6.19585 10.7364C6.00565 10.8872 5.97406 11.1637 6.12512 11.3537C6.27618 11.5439 6.55267 11.5754 6.74265 11.4244L7.20911 11.0536V11.913C7.20911 12.1557 7.40594 12.3525 7.64856 12.3525C7.8914 12.3525 8.08801 12.1557 8.08801 11.913V11.0536C8.49382 11.3475 8.58125 11.5198 8.82776 11.5198C9.24203 11.5196 9.4272 10.995 9.1015 10.7364L8.08801 9.9307V8.09392L9.69087 8.99136L9.89847 10.2692C9.93349 10.4848 10.12 10.6382 10.3317 10.6382C10.6037 10.6382 10.8094 10.3949 10.7662 10.1282L10.6705 9.53976Z" fill="#BC4639"/>
<path d="M21.8621 18.1526V3.97499C21.8621 1.78322 20.0791 0 17.8873 0C15.6955 0 13.9123 1.78322 13.9123 3.97499V18.1526C12.2703 19.3964 11.2969 21.3441 11.2969 23.4096C11.2969 27.0435 14.2533 30 17.8873 30C21.5213 30 24.4777 27.0435 24.4777 23.4096C24.4777 21.3441 23.5043 19.3964 21.8621 18.1526ZM17.8873 29.1211C14.7379 29.1211 12.1758 26.559 12.1758 23.4096C12.1758 21.5529 13.0838 19.8054 14.6047 18.7354C14.7216 18.653 14.7912 18.5188 14.7912 18.3758V3.97499C14.7912 2.26776 16.1801 0.878906 17.8873 0.878906C19.5943 0.878906 20.9832 2.26776 20.9832 3.97499V18.3758C20.9832 18.5188 21.0527 18.653 21.1697 18.7354C22.6908 19.8056 23.5988 21.5529 23.5988 23.4096C23.5988 26.559 21.0365 29.1211 17.8873 29.1211Z" fill="#BC4639"/>
<path d="M19.8141 19.0231V3.97453C19.8141 2.91367 18.9513 2.05078 17.8906 2.05078C16.83 2.05078 15.9669 2.91367 15.9669 3.97453V5.33524C15.9669 5.57785 16.1637 5.77469 16.4063 5.77469C16.6492 5.77469 16.8458 5.57785 16.8458 5.33524V3.97453C16.8458 3.39844 17.3145 2.92969 17.8906 2.92969C18.4667 2.92969 18.9352 3.39844 18.9352 3.97453V16.9972H16.8458V7.09717C16.8458 6.85432 16.6492 6.65771 16.4063 6.65771C16.1637 6.65771 15.9669 6.85432 15.9669 7.09717V19.0231C14.3018 19.7736 13.2031 21.4538 13.2031 23.2974C13.2031 25.8822 15.3059 27.9849 17.8904 27.9849C20.4752 27.9849 22.5779 25.8822 22.5779 23.2974C22.5781 21.4538 21.4793 19.7736 19.8141 19.0231ZM17.8906 27.106C15.7904 27.106 14.082 25.3976 14.082 23.2974C14.082 21.7154 15.0777 20.2812 16.5599 19.7292C16.7318 19.6651 16.846 19.5007 16.846 19.3174V17.8761H18.9352V19.3174C18.9352 19.5007 19.0495 19.6651 19.2213 19.7292C20.7036 20.2812 21.6992 21.7152 21.6992 23.2974C21.6992 25.3976 19.9906 27.106 17.8906 27.106Z" fill="#BC4639"/>
</svg>
