<svg width="40" height="40" viewBox="0 0 40 40" fill="none" xmlns="http://www.w3.org/2000/svg"><path d="M11.000 4.470 C 9.367 4.601,7.780 5.161,6.335 6.117 C 5.588 6.612,4.278 7.922,3.784 8.669 C 2.802 10.152,2.267 11.697,2.134 13.433 C 1.933 16.059,2.795 18.612,4.554 20.602 C 4.829 20.913,8.289 24.397,12.243 28.345 C 20.153 36.241,19.629 35.769,20.283 35.598 C 20.537 35.531,21.308 34.783,27.757 28.345 C 31.711 24.397,35.171 20.913,35.446 20.602 C 37.205 18.612,38.067 16.059,37.866 13.433 C 37.733 11.697,37.198 10.152,36.216 8.669 C 35.722 7.922,34.412 6.612,33.665 6.117 C 31.766 4.860,29.618 4.294,27.418 4.472 C 26.157 4.573,25.185 4.827,24.065 5.347 C 22.925 5.876,22.188 6.417,20.917 7.659 L 20.000 8.553 19.083 7.659 C 18.579 7.166,17.987 6.626,17.767 6.458 C 16.629 5.587,15.174 4.912,13.849 4.638 C 13.400 4.546,11.891 4.386,11.700 4.411 C 11.663 4.416,11.348 4.442,11.000 4.470 M13.660 7.162 C 14.410 7.370,15.234 7.747,15.887 8.179 C 16.180 8.373,16.965 9.085,17.905 10.009 C 19.602 11.679,19.709 11.750,20.279 11.597 C 20.512 11.534,20.805 11.278,22.095 10.009 C 23.709 8.423,24.168 8.060,25.153 7.599 C 26.079 7.165,26.815 6.995,27.933 6.955 C 28.747 6.926,29.006 6.942,29.567 7.059 C 31.110 7.380,32.289 8.026,33.370 9.144 C 34.415 10.224,35.020 11.402,35.303 12.904 C 35.466 13.763,35.407 15.136,35.171 16.000 C 34.936 16.859,34.371 17.977,33.841 18.633 C 33.604 18.927,30.392 22.182,26.705 25.867 L 20.000 32.566 13.295 25.867 C 9.608 22.182,6.396 18.927,6.159 18.633 C 5.629 17.977,5.064 16.859,4.829 16.000 C 4.577 15.077,4.532 13.695,4.725 12.767 C 5.042 11.243,5.684 10.062,6.779 8.990 C 7.809 7.982,8.943 7.376,10.382 7.062 C 11.248 6.873,12.788 6.920,13.660 7.162 " stroke="none" fill-rule="evenodd" fill="black"></path></svg>