<svg width="40" height="40" viewBox="0 0 40 40" fill="none" xmlns="http://www.w3.org/2000/svg"><path d="M19.333 2.221 C 18.683 2.421,18.339 2.600,17.756 3.043 C 17.167 3.490,16.850 3.903,16.380 4.839 C 15.853 5.888,15.479 6.226,14.660 6.395 C 14.183 6.493,13.841 6.420,13.000 6.039 C 12.003 5.587,11.198 5.455,10.326 5.600 C 8.337 5.930,6.902 7.284,6.489 9.221 C 6.317 10.028,6.394 10.879,6.726 11.835 C 7.116 12.962,7.077 13.516,6.558 14.200 C 6.259 14.594,6.014 14.755,5.332 15.000 C 4.245 15.391,3.642 15.792,3.029 16.533 C 2.689 16.945,2.255 17.801,2.138 18.290 C 1.709 20.094,2.382 21.979,3.846 23.073 C 4.036 23.215,4.504 23.481,4.886 23.663 C 5.981 24.186,6.366 24.717,6.363 25.700 C 6.362 26.192,6.338 26.286,6.052 26.908 C 5.644 27.794,5.533 28.247,5.533 29.022 C 5.533 30.321,5.945 31.337,6.833 32.231 C 7.426 32.827,7.883 33.123,8.611 33.385 C 9.057 33.546,9.188 33.561,10.100 33.562 L 11.100 33.562 11.856 33.281 C 12.936 32.879,13.510 32.919,14.200 33.442 C 14.594 33.741,14.755 33.986,15.000 34.668 C 15.392 35.759,15.773 36.333,16.516 36.954 C 16.933 37.302,17.789 37.743,18.267 37.855 C 20.100 38.286,21.976 37.622,23.073 36.154 C 23.215 35.964,23.481 35.494,23.665 35.111 C 23.917 34.582,24.072 34.348,24.306 34.142 C 25.004 33.528,25.808 33.448,26.767 33.897 C 27.710 34.338,27.975 34.410,28.802 34.448 C 30.222 34.514,31.270 34.122,32.231 33.167 C 32.828 32.573,33.124 32.116,33.384 31.389 C 33.544 30.944,33.559 30.810,33.560 29.900 L 33.560 28.900 33.274 28.133 C 33.019 27.449,32.991 27.320,33.018 26.933 C 33.073 26.140,33.585 25.416,34.282 25.148 C 34.475 25.074,34.834 24.936,35.079 24.842 C 36.190 24.415,37.106 23.544,37.596 22.446 C 38.461 20.510,37.857 18.200,36.154 16.927 C 35.964 16.785,35.496 16.519,35.114 16.337 C 34.019 15.814,33.634 15.283,33.637 14.300 C 33.638 13.808,33.662 13.714,33.948 13.092 C 34.356 12.206,34.467 11.753,34.467 10.978 C 34.467 9.679,34.055 8.663,33.167 7.769 C 32.574 7.173,32.117 6.877,31.389 6.615 C 30.943 6.454,30.812 6.439,29.900 6.438 L 28.900 6.438 28.144 6.719 C 27.308 7.030,26.897 7.072,26.395 6.897 C 25.693 6.653,25.291 6.200,24.973 5.295 C 24.685 4.473,24.364 3.952,23.806 3.400 C 23.234 2.835,22.766 2.536,22.056 2.283 C 21.644 2.137,21.429 2.106,20.700 2.088 C 19.944 2.069,19.769 2.086,19.333 2.221 M21.503 4.750 C 21.687 4.844,21.958 5.052,22.103 5.211 C 22.370 5.503,22.435 5.631,22.771 6.531 C 23.164 7.584,23.994 8.506,25.008 9.014 C 26.192 9.607,27.665 9.636,28.949 9.092 C 29.830 8.719,30.658 8.839,31.321 9.435 C 31.782 9.849,31.963 10.281,31.964 10.967 C 31.964 11.454,31.941 11.549,31.692 12.067 C 31.207 13.078,31.167 13.255,31.168 14.333 C 31.169 15.212,31.185 15.345,31.346 15.789 C 31.821 17.095,32.646 17.952,34.067 18.614 C 34.550 18.839,34.767 18.984,34.980 19.226 C 35.539 19.861,35.649 20.733,35.269 21.506 C 34.988 22.076,34.589 22.394,33.852 22.635 C 32.470 23.087,31.538 23.880,30.959 25.100 C 30.641 25.770,30.533 26.260,30.534 27.031 C 30.535 27.772,30.643 28.324,30.908 28.950 C 31.156 29.535,31.189 30.120,31.003 30.613 C 30.814 31.115,30.365 31.608,29.926 31.797 C 29.237 32.093,28.640 32.042,27.757 31.609 C 26.963 31.220,26.712 31.167,25.667 31.168 C 24.788 31.169,24.655 31.185,24.211 31.346 C 22.905 31.821,22.048 32.646,21.386 34.067 C 21.161 34.550,21.016 34.767,20.774 34.980 C 20.022 35.642,18.917 35.661,18.084 35.026 C 17.765 34.782,17.562 34.444,17.337 33.778 C 16.880 32.426,16.108 31.533,14.900 30.959 C 14.230 30.641,13.740 30.533,12.969 30.534 C 12.228 30.535,11.676 30.643,11.050 30.908 C 10.171 31.281,9.342 31.161,8.679 30.565 C 8.218 30.151,8.037 29.719,8.036 29.033 C 8.036 28.546,8.059 28.451,8.308 27.933 C 8.793 26.922,8.833 26.745,8.832 25.667 C 8.831 24.788,8.815 24.655,8.654 24.211 C 8.179 22.905,7.354 22.048,5.933 21.386 C 5.450 21.161,5.233 21.016,5.020 20.774 C 4.358 20.022,4.339 18.917,4.974 18.084 C 5.218 17.765,5.556 17.562,6.222 17.337 C 7.574 16.880,8.467 16.108,9.041 14.900 C 9.359 14.230,9.467 13.740,9.466 12.969 C 9.465 12.223,9.356 11.670,9.089 11.050 C 8.947 10.721,8.909 10.528,8.908 10.133 C 8.908 9.469,9.093 9.045,9.575 8.604 C 10.282 7.958,11.111 7.890,12.165 8.392 C 13.040 8.809,13.429 8.898,14.367 8.895 C 15.062 8.893,15.236 8.869,15.700 8.709 C 17.041 8.248,17.887 7.476,18.517 6.137 C 18.680 5.790,18.886 5.411,18.976 5.294 C 19.174 5.034,19.608 4.740,19.967 4.622 C 20.382 4.486,21.101 4.546,21.503 4.750 M18.576 12.373 C 15.458 12.937,12.915 15.500,12.369 18.629 C 12.238 19.382,12.238 20.618,12.369 21.371 C 12.920 24.527,15.473 27.080,18.629 27.631 C 19.382 27.762,20.618 27.762,21.371 27.631 C 24.527 27.080,27.080 24.527,27.631 21.371 C 27.762 20.618,27.762 19.382,27.631 18.629 C 27.080 15.473,24.527 12.920,21.371 12.369 C 20.646 12.243,19.287 12.245,18.576 12.373 M21.053 14.839 C 22.036 15.040,22.787 15.428,23.544 16.126 C 24.314 16.836,24.807 17.622,25.081 18.579 C 25.294 19.325,25.294 20.675,25.081 21.421 C 24.638 22.967,23.433 24.308,21.952 24.902 C 20.470 25.496,18.693 25.352,17.282 24.524 C 16.791 24.236,15.764 23.209,15.476 22.718 C 14.487 21.033,14.487 18.967,15.476 17.282 C 15.764 16.791,16.791 15.764,17.282 15.476 C 18.418 14.810,19.783 14.579,21.053 14.839 " stroke="none" fill-rule="evenodd" fill="black"></path></svg>