<svg width="40" height="40" viewBox="0 0 40 40" fill="none" xmlns="http://www.w3.org/2000/svg"><path d="M19.646 2.130 C 19.329 2.193,19.073 2.379,18.900 2.674 C 18.783 2.873,18.764 3.047,18.743 4.146 L 18.719 5.391 14.543 5.418 C 9.859 5.447,10.052 5.429,9.033 5.953 C 8.268 6.348,7.465 7.162,7.080 7.933 C 6.573 8.948,6.602 8.203,6.602 20.000 C 6.602 28.995,6.617 30.636,6.699 31.033 C 7.017 32.558,8.373 33.972,9.967 34.439 C 10.325 34.544,10.803 34.559,14.543 34.582 L 18.719 34.609 18.743 35.854 C 18.769 37.212,18.814 37.389,19.209 37.683 C 19.585 37.964,20.415 37.964,20.791 37.683 C 21.186 37.389,21.231 37.213,21.257 35.850 L 21.281 34.600 22.257 34.597 C 23.357 34.594,23.736 34.540,23.991 34.352 C 24.272 34.144,24.367 33.886,24.367 33.333 C 24.367 32.780,24.272 32.523,23.991 32.315 C 23.735 32.126,23.357 32.073,22.250 32.070 L 21.267 32.067 21.267 20.003 L 21.267 7.939 21.517 7.901 C 22.217 7.793,22.500 7.437,22.500 6.667 C 22.500 5.896,22.217 5.540,21.517 5.432 L 21.267 5.394 21.264 4.347 C 21.261 3.176,21.209 2.800,21.017 2.543 C 20.754 2.189,20.198 2.022,19.646 2.130 M24.912 5.461 C 24.309 5.586,24.050 5.986,24.080 6.745 C 24.103 7.320,24.214 7.535,24.607 7.767 C 24.815 7.889,24.953 7.900,26.300 7.900 C 27.655 7.900,27.784 7.890,27.998 7.764 C 28.364 7.549,28.500 7.252,28.500 6.667 C 28.500 6.081,28.364 5.784,27.998 5.569 C 27.789 5.446,27.641 5.432,26.467 5.421 C 25.752 5.414,25.052 5.432,24.912 5.461 M30.879 5.667 C 30.224 5.820,29.764 6.978,30.124 7.569 C 30.196 7.688,30.422 7.864,30.674 7.997 C 31.209 8.280,31.447 8.475,31.793 8.915 C 31.944 9.107,32.162 9.313,32.278 9.373 C 32.933 9.711,34.067 9.023,34.067 8.287 C 34.067 7.906,33.939 7.615,33.563 7.136 C 33.064 6.501,32.108 5.835,31.496 5.698 C 31.132 5.617,31.100 5.615,30.879 5.667 M18.733 20.002 L 18.733 32.071 14.650 32.052 L 10.567 32.033 10.229 31.855 C 9.826 31.642,9.438 31.231,9.242 30.808 L 9.100 30.500 9.100 20.000 L 9.100 9.500 9.242 9.192 C 9.503 8.629,10.020 8.173,10.600 7.996 C 10.692 7.968,12.559 7.942,14.750 7.939 L 18.733 7.933 18.733 20.002 M32.875 10.873 C 32.534 10.977,32.357 11.116,32.222 11.387 C 32.115 11.603,32.100 11.810,32.100 13.067 C 32.100 14.380,32.111 14.519,32.233 14.726 C 32.500 15.179,32.984 15.365,33.637 15.266 C 33.995 15.212,34.249 15.040,34.433 14.726 C 34.556 14.519,34.567 14.380,34.567 13.067 C 34.567 11.748,34.556 11.612,34.429 11.371 C 34.347 11.215,34.193 11.058,34.050 10.983 C 33.759 10.832,33.185 10.778,32.875 10.873 M32.875 16.873 C 32.534 16.977,32.357 17.116,32.222 17.387 C 32.115 17.603,32.100 17.810,32.100 19.067 C 32.100 20.380,32.111 20.519,32.233 20.726 C 32.418 21.040,32.672 21.212,33.029 21.266 C 33.682 21.365,34.167 21.179,34.433 20.726 C 34.556 20.519,34.567 20.380,34.567 19.067 C 34.567 17.748,34.556 17.612,34.429 17.371 C 34.347 17.215,34.193 17.058,34.050 16.983 C 33.759 16.832,33.185 16.778,32.875 16.873 M32.875 22.873 C 32.534 22.977,32.357 23.116,32.222 23.387 C 32.115 23.603,32.100 23.810,32.100 25.067 C 32.100 26.380,32.111 26.519,32.233 26.726 C 32.418 27.040,32.672 27.212,33.029 27.266 C 33.682 27.365,34.167 27.179,34.433 26.726 C 34.556 26.519,34.567 26.380,34.567 25.067 C 34.567 23.748,34.556 23.612,34.429 23.371 C 34.347 23.215,34.193 23.058,34.050 22.983 C 33.759 22.832,33.185 22.778,32.875 22.873 M32.899 28.858 C 32.388 28.990,32.180 29.303,32.076 30.100 C 32.013 30.588,31.936 30.796,31.602 31.393 C 31.479 31.610,31.400 31.848,31.400 31.996 C 31.400 32.650,32.353 33.375,32.988 33.203 C 33.322 33.113,33.495 32.980,33.736 32.629 C 34.270 31.853,34.538 31.043,34.550 30.167 C 34.559 29.513,34.418 29.174,34.062 28.990 C 33.796 28.852,33.189 28.783,32.899 28.858 M26.779 32.131 C 26.205 32.242,25.967 32.595,25.967 33.333 C 25.967 33.886,26.062 34.144,26.343 34.352 C 26.603 34.544,26.980 34.594,28.167 34.594 C 29.353 34.594,29.731 34.544,29.991 34.352 C 30.272 34.144,30.367 33.886,30.367 33.333 C 30.367 32.580,30.133 32.246,29.524 32.129 C 29.172 32.061,27.134 32.063,26.779 32.131 " stroke="none" fill-rule="evenodd" fill="black"></path></svg>