<svg width="40" height="40" viewBox="0 0 40 40" fill="none" xmlns="http://www.w3.org/2000/svg"><path d="M10.967 3.912 C 10.229 4.013,9.233 4.483,8.644 5.008 C 7.986 5.594,7.419 6.517,7.195 7.367 C 7.078 7.808,7.021 34.293,7.136 34.844 C 7.227 35.286,7.510 35.675,7.910 35.909 C 8.169 36.061,8.303 36.094,8.663 36.093 C 8.952 36.092,9.177 36.051,9.327 35.972 C 9.453 35.906,11.883 34.169,14.727 32.112 C 17.572 30.056,19.945 28.373,20.000 28.373 C 20.055 28.373,22.428 30.056,25.273 32.112 C 28.117 34.169,30.547 35.906,30.673 35.972 C 30.824 36.051,31.049 36.092,31.343 36.093 C 31.720 36.094,31.835 36.064,32.108 35.895 C 32.527 35.636,32.782 35.263,32.871 34.779 C 32.916 34.534,32.934 33.410,32.921 31.713 C 32.901 29.174,32.893 29.021,32.767 28.807 C 32.499 28.352,31.970 28.147,31.359 28.262 C 30.993 28.330,30.749 28.498,30.567 28.807 C 30.445 29.014,30.431 29.188,30.400 30.875 L 30.367 32.716 25.542 29.228 C 22.888 27.310,20.626 25.709,20.515 25.670 C 20.233 25.572,19.704 25.583,19.443 25.692 C 19.277 25.761,11.097 31.619,9.816 32.586 L 9.599 32.750 9.616 20.292 C 9.633 8.257,9.638 7.825,9.758 7.600 C 10.014 7.123,10.331 6.810,10.784 6.587 L 11.231 6.367 20.000 6.367 L 28.769 6.367 29.216 6.587 C 29.502 6.727,29.747 6.909,29.897 7.092 C 30.337 7.629,30.359 7.735,30.398 9.467 C 30.430 10.874,30.447 11.056,30.567 11.260 C 30.834 11.715,31.363 11.919,31.975 11.805 C 32.340 11.737,32.585 11.569,32.767 11.260 C 32.890 11.050,32.900 10.915,32.898 9.433 C 32.897 7.686,32.849 7.323,32.527 6.610 C 32.098 5.660,31.357 4.866,30.471 4.408 C 29.403 3.854,30.348 3.902,20.200 3.893 C 15.232 3.889,11.077 3.897,10.967 3.912 M27.810 15.210 C 27.497 15.300,26.963 15.853,26.861 16.192 C 26.697 16.739,26.785 16.869,28.421 18.517 L 29.893 20.000 28.421 21.483 C 26.785 23.131,26.697 23.261,26.861 23.808 C 26.973 24.180,27.497 24.700,27.859 24.798 C 28.429 24.951,28.545 24.874,30.183 23.247 L 31.667 21.773 33.150 23.247 C 34.788 24.874,34.904 24.951,35.475 24.798 C 35.844 24.698,36.365 24.177,36.465 23.808 C 36.618 23.238,36.541 23.122,34.913 21.483 L 33.440 20.000 34.913 18.517 C 36.541 16.878,36.618 16.762,36.465 16.192 C 36.365 15.823,35.844 15.302,35.475 15.202 C 34.904 15.049,34.788 15.126,33.150 16.753 L 31.667 18.227 30.183 16.754 C 28.971 15.550,28.651 15.268,28.433 15.208 C 28.127 15.123,28.110 15.123,27.810 15.210 " stroke="none" fill-rule="evenodd" fill="black"></path></svg>