<svg width="40" height="40" viewBox="0 0 40 40" fill="none" xmlns="http://www.w3.org/2000/svg"><path d="M12.545 12.140 C 10.843 12.292,9.159 13.069,7.882 14.293 C 6.116 15.985,5.261 18.263,5.473 20.709 C 5.764 24.049,8.133 26.828,11.406 27.668 C 12.330 27.905,13.251 27.932,20.233 27.931 C 25.700 27.931,27.171 27.912,27.733 27.837 C 29.471 27.604,31.018 26.838,32.261 25.595 C 35.357 22.499,35.357 17.501,32.261 14.405 C 30.969 13.113,29.392 12.355,27.535 12.134 C 26.853 12.053,13.467 12.058,12.545 12.140 M20.556 14.983 C 19.535 16.237,18.946 17.687,18.807 19.291 C 18.624 21.392,19.237 23.398,20.556 25.017 L 20.868 25.400 16.807 25.400 C 12.430 25.400,12.174 25.383,11.334 25.044 C 10.632 24.760,10.186 24.452,9.533 23.800 C 8.396 22.663,7.933 21.553,7.933 19.965 C 7.933 18.445,8.410 17.324,9.533 16.200 C 10.184 15.549,10.632 15.240,11.328 14.958 C 12.163 14.621,12.277 14.614,16.717 14.607 L 20.868 14.600 20.556 14.983 M28.033 14.754 C 29.980 15.310,31.444 16.802,31.939 18.733 C 32.000 18.971,32.032 19.441,32.030 20.067 C 32.026 20.978,32.014 21.070,31.810 21.667 C 31.506 22.554,31.143 23.135,30.473 23.806 C 29.456 24.822,28.343 25.318,26.936 25.382 C 25.241 25.458,24.070 25.003,22.867 23.800 C 21.730 22.663,21.267 21.553,21.267 19.965 C 21.267 18.445,21.743 17.324,22.867 16.200 C 23.708 15.359,24.438 14.940,25.480 14.701 C 26.000 14.582,27.543 14.613,28.033 14.754 " stroke="none" fill-rule="evenodd" fill="black"></path></svg>