<svg width="40" height="40" viewBox="0 0 40 40" fill="none" xmlns="http://www.w3.org/2000/svg"><path d="M33.046 5.399 C 32.943 5.431,32.823 5.487,32.779 5.522 C 32.736 5.558,32.175 5.782,31.533 6.020 C 27.951 7.349,6.497 15.482,6.278 15.594 C 5.749 15.864,5.466 16.360,5.467 17.015 C 5.468 17.531,5.725 18.034,6.112 18.276 C 6.250 18.363,8.776 19.468,11.726 20.733 L 17.090 23.033 19.422 28.493 C 21.998 34.527,21.896 34.333,22.613 34.571 C 23.318 34.805,24.177 34.484,24.501 33.864 C 24.549 33.770,26.783 27.800,29.464 20.597 C 32.146 13.394,34.416 7.344,34.509 7.153 C 34.717 6.729,34.685 6.404,34.395 6.004 C 34.041 5.515,33.480 5.264,33.046 5.399 M22.988 15.245 L 17.676 20.557 13.721 18.870 C 11.546 17.943,9.698 17.148,9.614 17.105 C 9.479 17.036,10.533 16.621,18.814 13.486 C 23.958 11.538,28.197 9.942,28.233 9.939 C 28.270 9.936,25.910 12.324,22.988 15.245 M30.074 11.817 C 30.043 11.899,28.465 16.137,26.568 21.233 C 24.670 26.330,23.098 30.522,23.074 30.548 C 23.050 30.574,22.232 28.729,21.256 26.448 L 19.481 22.300 24.790 16.983 C 27.711 14.059,30.107 11.667,30.115 11.667 C 30.123 11.667,30.105 11.734,30.074 11.817 " stroke="none" fill-rule="evenodd" fill="black"></path></svg>