<svg width="40" height="40" viewBox="0 0 40 40" fill="none" xmlns="http://www.w3.org/2000/svg"><path d="M27.767 2.014 C 27.519 2.101,27.345 2.249,27.236 2.467 C 27.024 2.887,27.064 3.651,27.316 3.991 C 27.591 4.363,27.599 4.364,30.679 4.400 L 33.524 4.433 24.021 13.532 C 18.794 18.536,14.441 22.730,14.347 22.853 C 14.230 23.006,14.168 23.184,14.150 23.421 C 14.126 23.724,14.149 23.807,14.338 24.089 C 14.643 24.546,15.001 24.767,15.437 24.767 C 15.700 24.767,15.839 24.727,16.016 24.600 C 16.144 24.508,20.550 20.315,25.808 15.282 L 35.367 6.130 35.400 9.048 C 35.436 12.165,35.437 12.178,35.777 12.475 C 36.086 12.746,36.924 12.810,37.364 12.596 C 37.664 12.450,37.850 12.121,37.900 11.648 C 37.925 11.420,37.933 9.928,37.919 8.333 L 37.894 5.433 37.716 4.900 C 37.236 3.463,36.004 2.325,34.608 2.029 C 34.057 1.912,28.094 1.899,27.767 2.014 M6.028 2.138 C 5.053 2.254,4.197 2.686,3.441 3.441 C 2.637 4.245,2.250 5.055,2.130 6.189 C 2.084 6.616,2.068 11.426,2.081 20.467 C 2.100 33.230,2.109 34.126,2.218 34.500 C 2.690 36.113,3.940 37.351,5.533 37.783 C 5.941 37.893,6.813 37.900,20.000 37.900 C 33.187 37.900,34.059 37.893,34.467 37.783 C 36.076 37.347,37.347 36.076,37.783 34.467 C 37.890 34.071,37.900 33.592,37.900 28.900 L 37.900 23.767 37.744 23.515 C 37.516 23.149,37.262 23.036,36.667 23.036 C 36.072 23.036,35.817 23.149,35.590 23.515 L 35.433 23.767 35.400 28.833 C 35.367 33.795,35.364 33.906,35.227 34.200 C 35.029 34.628,34.520 35.104,34.088 35.266 C 33.732 35.399,33.602 35.400,20.000 35.400 C 6.369 35.400,6.269 35.399,5.910 35.265 C 5.426 35.084,4.916 34.574,4.735 34.090 C 4.601 33.731,4.600 33.631,4.600 20.000 C 4.600 6.398,4.601 6.268,4.734 5.912 C 4.896 5.480,5.372 4.971,5.800 4.773 C 6.094 4.636,6.204 4.633,11.233 4.600 C 16.217 4.568,16.373 4.563,16.588 4.433 C 16.961 4.208,17.100 3.909,17.099 3.333 C 17.097 2.739,16.983 2.483,16.618 2.256 L 16.367 2.100 11.433 2.091 C 8.720 2.086,6.287 2.107,6.028 2.138 " stroke="none" fill-rule="evenodd" fill="black"></path></svg>