<svg width="40" height="40" viewBox="0 0 40 40" fill="none" xmlns="http://www.w3.org/2000/svg"><path d="M13.967 3.944 C 13.783 3.978,13.348 4.144,13.000 4.312 C 12.467 4.569,12.276 4.709,11.794 5.192 C 11.145 5.843,10.814 6.382,10.599 7.133 C 10.484 7.540,10.450 7.886,10.419 8.978 L 10.381 10.323 8.074 10.349 C 5.502 10.379,5.479 10.382,4.529 10.874 C 3.643 11.333,2.902 12.127,2.473 13.077 C 2.085 13.936,2.100 13.527,2.100 23.300 C 2.100 33.381,2.063 32.594,2.586 33.667 C 2.772 34.049,2.971 34.310,3.431 34.775 C 3.950 35.300,4.121 35.426,4.667 35.688 C 5.015 35.855,5.478 36.023,5.696 36.062 C 6.249 36.162,33.751 36.162,34.304 36.062 C 34.522 36.023,34.985 35.855,35.333 35.688 C 35.879 35.426,36.050 35.300,36.569 34.775 C 37.029 34.310,37.228 34.049,37.414 33.667 C 37.937 32.594,37.900 33.381,37.900 23.300 C 37.900 13.527,37.915 13.936,37.527 13.077 C 37.098 12.127,36.357 11.333,35.471 10.874 C 34.521 10.382,34.498 10.379,31.926 10.349 L 29.619 10.323 29.580 8.978 C 29.536 7.479,29.472 7.137,29.081 6.333 C 28.894 5.951,28.696 5.690,28.235 5.225 C 27.716 4.700,27.546 4.574,27.000 4.312 C 26.652 4.145,26.189 3.977,25.971 3.938 C 25.471 3.848,14.449 3.854,13.967 3.944 M25.714 6.475 C 25.993 6.577,26.203 6.721,26.472 6.995 C 27.008 7.538,27.067 7.754,27.067 9.179 L 27.067 10.333 20.000 10.333 L 12.933 10.333 12.933 9.179 C 12.933 7.819,12.994 7.569,13.448 7.064 C 13.760 6.717,13.996 6.559,14.400 6.425 C 14.569 6.369,16.115 6.345,19.981 6.340 C 25.276 6.333,25.332 6.335,25.714 6.475 M34.216 13.053 C 34.730 13.306,35.075 13.680,35.272 14.197 C 35.396 14.524,35.400 14.809,35.400 23.256 C 35.400 33.203,35.452 32.349,34.806 33.005 C 34.536 33.279,34.327 33.423,34.047 33.525 L 33.662 33.667 20.000 33.667 L 6.338 33.667 5.953 33.525 C 5.673 33.422,5.464 33.279,5.193 33.004 C 4.545 32.346,4.596 33.213,4.616 23.130 C 4.633 14.643,4.638 14.291,4.758 14.067 C 5.104 13.421,5.684 12.976,6.320 12.868 C 6.492 12.839,12.739 12.819,20.201 12.824 L 33.770 12.833 34.216 13.053 " stroke="none" fill-rule="evenodd" fill="black"></path></svg>