<svg width="40" height="40" viewBox="0 0 40 40" fill="none" xmlns="http://www.w3.org/2000/svg"><path d="M19.646 3.797 C 19.330 3.859,19.074 4.046,18.900 4.340 C 18.770 4.561,18.767 4.687,18.767 9.167 C 18.767 13.647,18.770 13.773,18.900 13.993 C 19.168 14.448,19.696 14.653,20.308 14.538 C 20.674 14.470,20.918 14.302,21.100 13.993 C 21.229 13.774,21.234 13.627,21.254 9.533 C 21.266 7.205,21.256 5.114,21.233 4.886 C 21.163 4.210,20.827 3.851,20.200 3.781 C 20.035 3.762,19.786 3.770,19.646 3.797 M8.949 8.208 C 8.599 8.381,8.223 8.808,8.121 9.147 C 7.952 9.713,7.919 9.672,11.356 13.121 C 13.085 14.857,14.629 16.353,14.787 16.446 C 15.304 16.753,15.817 16.580,16.354 15.918 C 16.636 15.569,16.669 15.162,16.446 14.787 C 16.353 14.629,14.857 13.085,13.121 11.356 C 10.441 8.684,9.927 8.201,9.700 8.140 C 9.335 8.041,9.275 8.046,8.949 8.208 M30.200 8.172 C 29.906 8.299,23.795 14.380,23.554 14.787 C 23.247 15.304,23.420 15.817,24.082 16.354 C 24.431 16.636,24.838 16.669,25.213 16.446 C 25.371 16.353,26.915 14.857,28.644 13.121 C 31.416 10.341,31.798 9.933,31.864 9.683 C 31.963 9.307,31.870 8.972,31.567 8.619 C 31.315 8.324,30.857 8.065,30.596 8.069 C 30.506 8.071,30.328 8.117,30.200 8.172 M4.646 18.797 C 4.075 18.910,3.780 19.320,3.780 20.000 C 3.780 20.770,4.125 21.154,4.886 21.233 C 5.114 21.256,7.205 21.266,9.533 21.254 C 13.627 21.234,13.774 21.229,13.993 21.100 C 14.302 20.918,14.470 20.674,14.538 20.308 C 14.653 19.696,14.448 19.168,13.993 18.900 C 13.773 18.771,13.637 18.766,9.333 18.756 C 6.895 18.751,4.786 18.769,4.646 18.797 M26.312 18.797 C 25.742 18.910,25.447 19.320,25.447 20.000 C 25.447 20.770,25.792 21.154,26.552 21.233 C 26.780 21.256,28.872 21.266,31.200 21.254 C 35.293 21.234,35.441 21.229,35.660 21.100 C 36.115 20.832,36.319 20.304,36.205 19.692 C 36.137 19.326,35.969 19.082,35.660 18.900 C 35.440 18.771,35.304 18.766,31.000 18.756 C 28.562 18.751,26.452 18.769,26.312 18.797 M14.733 23.587 C 14.568 23.696,13.034 25.190,11.323 26.909 C 7.901 30.345,7.951 30.284,8.128 30.875 C 8.239 31.247,8.764 31.767,9.125 31.865 C 9.741 32.030,9.654 32.100,13.121 28.644 C 14.857 26.915,16.353 25.371,16.446 25.213 C 16.669 24.838,16.636 24.431,16.354 24.082 C 15.798 23.397,15.269 23.235,14.733 23.587 M24.300 23.504 C 24.022 23.648,23.624 24.047,23.502 24.305 C 23.347 24.632,23.375 24.935,23.592 25.270 C 23.698 25.433,25.190 26.967,26.909 28.678 C 30.342 32.096,30.260 32.030,30.875 31.865 C 31.244 31.765,31.765 31.244,31.865 30.875 C 32.030 30.260,32.096 30.342,28.678 26.909 C 26.967 25.190,25.433 23.698,25.270 23.592 C 24.934 23.374,24.609 23.345,24.300 23.504 M19.646 25.464 C 19.330 25.526,19.074 25.712,18.900 26.007 C 18.770 26.227,18.767 26.353,18.767 30.833 C 18.767 35.313,18.770 35.439,18.900 35.660 C 19.082 35.969,19.326 36.137,19.692 36.205 C 20.304 36.319,20.832 36.115,21.100 35.660 C 21.229 35.441,21.234 35.293,21.254 31.200 C 21.266 28.872,21.256 26.780,21.233 26.552 C 21.163 25.877,20.827 25.518,20.200 25.448 C 20.035 25.429,19.786 25.436,19.646 25.464 " stroke="none" fill-rule="evenodd" fill="black"></path></svg>