<svg width="40" height="40" viewBox="0 0 40 40" fill="none" xmlns="http://www.w3.org/2000/svg"><path d="M9.179 1.397 C 8.578 1.515,8.317 1.918,8.347 2.679 C 8.370 3.254,8.480 3.468,8.874 3.700 C 9.097 3.832,9.251 3.834,20.300 3.867 L 31.500 3.900 31.838 4.078 C 32.241 4.291,32.629 4.703,32.824 5.125 L 32.967 5.433 33.000 19.600 C 33.033 33.566,33.035 33.770,33.165 33.985 C 33.583 34.675,34.983 34.624,35.330 33.906 L 35.469 33.620 35.451 19.293 L 35.433 4.967 35.292 4.555 C 34.910 3.444,34.028 2.402,33.033 1.888 C 31.944 1.324,33.092 1.373,20.567 1.359 C 14.443 1.352,9.319 1.369,9.179 1.397 M8.071 6.504 C 6.779 6.784,5.555 7.771,4.968 9.009 C 4.508 9.977,4.536 9.014,4.534 23.875 C 4.533 38.720,4.502 37.650,4.953 38.125 C 5.380 38.575,6.134 38.741,6.693 38.507 C 6.827 38.451,9.269 36.729,12.119 34.681 C 14.968 32.632,17.336 30.935,17.380 30.910 C 17.428 30.882,19.572 32.385,22.693 34.633 C 25.571 36.707,28.036 38.450,28.172 38.506 C 28.732 38.741,29.486 38.576,29.914 38.125 C 30.365 37.650,30.333 38.720,30.332 23.875 C 30.331 8.930,30.363 9.957,29.871 8.967 C 29.250 7.715,28.061 6.771,26.767 6.500 C 26.088 6.358,8.727 6.361,8.071 6.504 M26.606 9.075 C 27.079 9.297,27.437 9.654,27.659 10.128 L 27.833 10.500 27.851 22.890 L 27.868 35.280 27.518 35.029 C 27.325 34.891,25.192 33.356,22.779 31.618 C 20.366 29.880,18.281 28.392,18.146 28.312 C 17.807 28.112,17.141 28.110,16.767 28.308 C 16.620 28.385,14.460 29.916,11.967 31.710 C 9.473 33.503,7.335 35.039,7.216 35.124 L 6.998 35.277 7.016 22.888 L 7.033 10.500 7.208 10.128 C 7.494 9.519,8.013 9.090,8.649 8.939 C 8.791 8.905,12.646 8.883,17.567 8.889 L 26.233 8.900 26.606 9.075 " stroke="none" fill-rule="evenodd" fill="black"></path></svg>