<svg width="40" height="40" viewBox="0 0 40 40" fill="none" xmlns="http://www.w3.org/2000/svg"><path d="M19.167 2.110 C 11.850 2.455,5.450 7.247,3.069 14.165 C 2.389 16.142,2.117 17.810,2.117 20.000 C 2.117 22.902,2.676 25.331,3.937 27.900 C 6.633 33.394,11.890 37.088,18.033 37.804 C 18.892 37.904,21.108 37.904,21.967 37.804 C 24.100 37.555,25.988 37.001,27.900 36.063 C 33.394 33.367,37.088 28.110,37.804 21.967 C 37.847 21.600,37.882 20.715,37.882 20.000 C 37.882 17.091,37.325 14.671,36.063 12.100 C 35.046 10.028,33.790 8.362,32.010 6.728 C 29.299 4.237,25.662 2.594,22.000 2.207 C 21.249 2.128,19.822 2.079,19.167 2.110 M22.600 4.799 C 25.159 5.251,27.645 6.370,29.633 7.964 C 30.270 8.474,31.453 9.653,31.978 10.300 C 33.330 11.966,34.414 14.123,34.933 16.177 C 35.299 17.627,35.366 18.219,35.366 20.000 C 35.366 21.781,35.299 22.373,34.933 23.823 C 34.424 25.837,33.347 27.997,32.036 29.633 C 31.526 30.270,30.347 31.453,29.700 31.978 C 28.034 33.330,25.877 34.414,23.823 34.933 C 22.373 35.299,21.781 35.366,20.000 35.366 C 18.219 35.366,17.627 35.299,16.177 34.933 C 14.123 34.414,11.966 33.330,10.300 31.978 C 9.653 31.453,8.474 30.270,7.964 29.633 C 6.363 27.636,5.257 25.173,4.791 22.567 C 4.656 21.809,4.636 21.486,4.636 20.000 C 4.636 18.514,4.656 18.191,4.791 17.433 C 5.264 14.790,6.374 12.338,8.020 10.300 C 8.540 9.656,9.726 8.475,10.367 7.963 C 12.374 6.358,14.913 5.219,17.400 4.809 C 18.579 4.614,18.604 4.612,20.267 4.633 C 21.454 4.648,21.940 4.683,22.600 4.799 M28.463 12.393 C 28.300 12.499,25.437 15.319,22.101 18.659 L 16.035 24.732 13.834 22.540 C 12.624 21.334,11.534 20.298,11.412 20.236 C 11.080 20.070,10.720 20.089,10.371 20.294 C 10.039 20.489,9.709 20.917,9.637 21.250 C 9.531 21.734,9.594 21.812,12.458 24.690 C 13.948 26.188,15.284 27.501,15.427 27.607 C 15.794 27.880,16.272 27.880,16.640 27.607 C 16.783 27.501,19.904 24.403,23.576 20.723 C 30.656 13.629,30.475 13.827,30.363 13.316 C 30.292 12.988,29.963 12.556,29.642 12.368 C 29.241 12.133,28.850 12.141,28.463 12.393 " stroke="none" fill-rule="evenodd" fill="black"></path></svg>