<?xml version="1.0" encoding="utf-8"?>
<!-- Generator: Adobe Illustrator 25.4.1, SVG Export Plug-In . SVG Version: 6.00 Build 0)  -->
<svg version="1.1" id="Слой_1" xmlns="http://www.w3.org/2000/svg" xmlns:xlink="http://www.w3.org/1999/xlink" x="0px" y="0px"
	 viewBox="0 0 22 22" style="enable-background:new 0 0 22 22;" xml:space="preserve">
<style type="text/css">
	.st0{fill:#6A983C;}
</style>
<g>
	<g>
		<path class="st0" d="M10.8,0.9c-5.5,0-10,4.5-10,10s4.5,10,10,10s10-4.5,10-10S16.3,0.9,10.8,0.9z M11,16.6
			c-3.2,0-5.8-2.6-5.8-5.8S7.8,5.1,11,5.1s5.8,2.6,5.8,5.8S14.2,16.6,11,16.6z"/>
		<path class="st0" d="M10.8,21.7C4.9,21.7,0,16.8,0,10.9C0,5,4.9,0.1,10.8,0.1S21.5,5,21.5,10.9C21.5,16.8,16.7,21.7,10.8,21.7z
			 M10.8,1.6c-5.1,0-9.2,4.1-9.2,9.2c0,5.1,4.1,9.3,9.2,9.3S20,16,20,10.9C20,5.8,15.9,1.6,10.8,1.6z M11,17.3
			c-3.6,0-6.5-2.9-6.5-6.5c0-3.6,2.9-6.4,6.5-6.4c3.6,0,6.5,2.9,6.5,6.5C17.5,14.5,14.7,17.3,11,17.3z M11,5.9c-2.8,0-5,2.2-5,4.9
			c0,2.8,2.3,5,5,5c2.8,0,5-2.2,5-4.9C16,8.1,13.8,5.9,11,5.9z"/>
	</g>
</g>
</svg>
