<svg width="40" height="40" viewBox="0 0 40 40" fill="none" xmlns="http://www.w3.org/2000/svg"><path d="M9.361 2.139 C 8.389 2.253,7.531 2.685,6.775 3.441 C 5.970 4.245,5.584 5.055,5.463 6.189 C 5.417 6.616,5.401 11.426,5.414 20.467 C 5.434 33.230,5.442 34.126,5.552 34.500 C 6.023 36.113,7.274 37.351,8.867 37.783 C 9.272 37.892,9.994 37.900,20.000 37.900 C 30.006 37.900,30.728 37.892,31.133 37.783 C 32.727 37.351,33.980 36.110,34.448 34.500 C 34.555 34.129,34.565 33.398,34.585 24.567 C 34.599 18.460,34.582 14.852,34.540 14.530 C 34.503 14.253,34.416 13.893,34.346 13.730 C 34.163 13.306,27.190 3.371,26.777 2.947 C 26.365 2.523,25.793 2.229,25.200 2.136 C 24.675 2.053,10.069 2.056,9.361 2.139 M25.077 4.783 C 25.170 4.884,26.781 7.159,28.656 9.840 L 32.067 14.712 32.067 24.220 C 32.067 33.611,32.065 33.733,31.931 34.090 C 31.750 34.574,31.240 35.084,30.757 35.265 C 30.399 35.399,30.282 35.400,20.000 35.400 C 9.718 35.400,9.601 35.399,9.243 35.265 C 8.760 35.084,8.250 34.574,8.069 34.090 C 7.934 33.731,7.933 33.631,7.933 20.000 C 7.933 6.369,7.934 6.269,8.069 5.910 C 8.245 5.439,8.760 4.917,9.224 4.739 C 9.558 4.610,9.764 4.607,17.238 4.603 L 24.908 4.600 25.077 4.783 M19.338 14.113 C 19.040 14.270,18.865 14.516,18.795 14.876 C 18.764 15.036,18.738 16.403,18.736 17.915 L 18.733 20.663 15.738 20.681 C 12.812 20.700,12.739 20.703,12.555 20.840 C 12.228 21.084,12.111 21.363,12.111 21.896 C 12.111 22.456,12.237 22.728,12.600 22.955 C 12.829 23.097,12.884 23.100,15.780 23.119 L 18.726 23.139 18.746 26.086 C 18.766 28.981,18.769 29.037,18.912 29.267 C 19.145 29.641,19.419 29.767,20.000 29.767 C 20.581 29.767,20.855 29.641,21.088 29.267 C 21.231 29.037,21.234 28.981,21.254 26.086 L 21.275 23.139 24.221 23.119 C 27.116 23.100,27.171 23.097,27.400 22.955 C 27.760 22.730,27.882 22.467,27.885 21.901 C 27.889 21.361,27.775 21.086,27.445 20.840 C 27.261 20.703,27.188 20.700,24.266 20.681 L 21.274 20.663 21.254 17.715 C 21.234 14.907,21.227 14.756,21.100 14.540 C 20.868 14.147,20.654 14.036,20.079 14.014 C 19.685 13.998,19.514 14.021,19.338 14.113 " stroke="none" fill-rule="evenodd" fill="black"></path></svg>