<svg width="40" height="40" viewBox="0 0 40 40" fill="none" xmlns="http://www.w3.org/2000/svg"><path d="M6.028 5.472 C 5.054 5.587,4.197 6.019,3.441 6.775 C 2.637 7.578,2.251 8.388,2.129 9.522 C 2.084 9.947,2.068 13.685,2.081 20.467 C 2.101 30.033,2.111 30.795,2.219 31.167 C 2.688 32.778,3.940 34.018,5.533 34.449 C 5.941 34.560,6.813 34.567,20.000 34.567 C 33.187 34.567,34.059 34.560,34.467 34.449 C 36.076 34.013,37.347 32.743,37.783 31.133 C 37.892 30.728,37.900 30.006,37.900 20.000 C 37.900 9.994,37.892 9.272,37.783 8.867 C 37.351 7.274,36.113 6.023,34.500 5.552 C 34.125 5.442,33.242 5.434,20.300 5.425 C 12.710 5.420,6.287 5.441,6.028 5.472 M21.751 11.150 C 21.779 14.721,21.771 14.652,22.246 15.600 C 22.618 16.342,23.504 17.214,24.267 17.590 C 25.240 18.069,25.174 18.064,30.583 18.066 L 35.400 18.067 35.400 24.231 C 35.400 30.262,35.397 30.403,35.265 30.757 C 35.084 31.240,34.574 31.750,34.090 31.931 C 33.731 32.066,33.631 32.067,20.000 32.067 C 6.369 32.067,6.269 32.066,5.910 31.931 C 5.426 31.750,4.916 31.240,4.735 30.757 C 4.601 30.399,4.600 30.282,4.600 20.000 C 4.600 9.718,4.601 9.601,4.735 9.243 C 4.911 8.773,5.427 8.251,5.891 8.072 C 6.225 7.944,6.431 7.940,13.979 7.937 L 21.725 7.933 21.751 11.150 M33.471 8.156 C 34.139 8.313,34.688 8.805,34.943 9.475 C 35.057 9.775,35.067 10.036,35.067 12.703 L 35.067 15.604 30.450 15.586 L 25.833 15.567 25.500 15.413 C 25.113 15.236,24.642 14.803,24.467 14.465 C 24.400 14.335,24.313 14.052,24.273 13.836 C 24.194 13.408,24.168 8.188,24.244 8.111 C 24.269 8.087,26.271 8.067,28.694 8.068 C 32.091 8.069,33.185 8.089,33.471 8.156 " stroke="none" fill-rule="evenodd" fill="black"></path></svg>