<svg width="40" height="40" viewBox="0 0 40 40" fill="none" xmlns="http://www.w3.org/2000/svg"><path d="M19.433 2.744 C 19.178 2.838,19.015 2.981,18.877 3.233 C 18.776 3.416,18.764 4.488,18.733 15.917 L 18.700 28.401 15.800 25.494 C 14.205 23.895,12.783 22.500,12.640 22.393 C 12.271 22.119,11.797 22.120,11.417 22.395 C 10.764 22.868,10.566 23.472,10.886 24.014 C 10.980 24.171,12.686 25.921,14.678 27.903 C 17.902 31.110,18.348 31.529,18.733 31.719 C 19.663 32.177,20.777 32.123,21.609 31.581 C 22.063 31.285,29.035 24.300,29.130 24.046 C 29.168 23.942,29.200 23.745,29.200 23.607 C 29.200 23.116,28.581 22.443,28.050 22.356 C 27.520 22.270,27.486 22.299,24.283 25.489 L 21.267 28.495 21.264 16.164 C 21.262 9.382,21.236 3.703,21.205 3.543 C 21.138 3.195,20.958 2.935,20.694 2.803 C 20.451 2.681,19.699 2.646,19.433 2.744 M2.767 18.281 C 2.513 18.369,2.349 18.513,2.210 18.767 C 2.110 18.949,2.100 19.610,2.100 26.233 C 2.100 34.418,2.064 33.823,2.620 34.900 C 3.015 35.666,3.828 36.468,4.600 36.854 C 5.625 37.366,4.499 37.331,20.000 37.331 C 31.914 37.331,33.967 37.317,34.367 37.234 C 35.890 36.917,37.297 35.568,37.774 33.967 C 37.884 33.596,37.895 33.053,37.918 26.633 C 37.931 22.820,37.923 19.514,37.899 19.286 C 37.825 18.571,37.512 18.267,36.790 18.213 C 36.179 18.167,35.773 18.347,35.543 18.767 C 35.444 18.948,35.430 19.645,35.400 26.167 L 35.367 33.367 35.189 33.704 C 34.976 34.108,34.564 34.495,34.141 34.691 L 33.833 34.833 20.000 34.833 L 6.167 34.833 5.859 34.691 C 5.436 34.495,5.024 34.108,4.811 33.704 L 4.633 33.367 4.600 26.167 C 4.564 18.373,4.583 18.771,4.223 18.459 C 3.941 18.214,3.212 18.125,2.767 18.281 " stroke="none" fill-rule="evenodd" fill="black"></path></svg>