<svg width="40" height="40" viewBox="0 0 40 40" fill="none" xmlns="http://www.w3.org/2000/svg"><path d="M9.646 5.461 C 9.331 5.526,9.073 5.714,8.907 5.997 C 8.729 6.300,8.731 7.037,8.910 7.343 C 9.217 7.868,9.640 7.967,11.387 7.922 C 12.530 7.893,12.736 7.835,13.017 7.458 C 13.297 7.082,13.297 6.251,13.017 5.875 C 12.719 5.476,12.551 5.435,11.167 5.421 C 10.470 5.414,9.786 5.432,9.646 5.461 M15.646 5.461 C 15.331 5.526,15.073 5.714,14.907 5.997 C 14.729 6.300,14.731 7.037,14.910 7.343 C 15.217 7.868,15.640 7.967,17.387 7.922 C 18.530 7.893,18.736 7.835,19.017 7.458 C 19.297 7.082,19.297 6.251,19.017 5.875 C 18.719 5.476,18.551 5.435,17.167 5.421 C 16.470 5.414,15.786 5.432,15.646 5.461 M21.646 5.461 C 21.331 5.526,21.073 5.714,20.907 5.997 C 20.729 6.300,20.731 7.037,20.910 7.343 C 21.217 7.868,21.640 7.967,23.387 7.922 C 24.530 7.893,24.736 7.835,25.017 7.458 C 25.297 7.082,25.297 6.251,25.017 5.875 C 24.719 5.476,24.551 5.435,23.167 5.421 C 22.470 5.414,21.786 5.432,21.646 5.461 M27.646 5.461 C 27.331 5.526,27.073 5.714,26.907 5.997 C 26.729 6.300,26.731 7.037,26.910 7.343 C 27.217 7.868,27.640 7.967,29.387 7.922 C 30.530 7.893,30.736 7.835,31.017 7.458 C 31.297 7.082,31.297 6.251,31.017 5.875 C 30.719 5.476,30.551 5.435,29.167 5.421 C 28.470 5.414,27.786 5.432,27.646 5.461 M32.081 6.705 C 31.891 6.800,31.639 7.000,31.518 7.153 C 31.326 7.395,31.300 7.476,31.300 7.831 C 31.300 8.200,31.325 8.270,31.606 8.675 C 31.899 9.099,31.966 9.273,32.138 10.054 C 32.234 10.491,32.445 10.753,32.787 10.855 C 33.333 11.018,33.880 10.912,34.254 10.569 C 34.480 10.362,34.496 10.320,34.522 9.869 C 34.539 9.558,34.509 9.223,34.434 8.912 C 34.197 7.922,33.406 6.749,32.878 6.602 C 32.529 6.505,32.466 6.513,32.081 6.705 M6.258 7.646 C 5.825 7.914,5.559 8.591,5.451 9.700 C 5.280 11.458,5.605 12.032,6.745 11.986 C 7.140 11.971,7.301 11.934,7.445 11.826 C 7.805 11.558,7.877 11.339,7.936 10.347 C 7.965 9.845,8.036 9.272,8.093 9.075 C 8.281 8.424,8.077 7.995,7.433 7.692 C 7.037 7.505,6.518 7.485,6.258 7.646 M32.668 12.580 C 32.136 12.855,32.034 13.289,32.077 15.085 C 32.101 16.078,32.116 16.190,32.258 16.420 C 32.483 16.784,32.739 16.897,33.333 16.897 C 33.928 16.897,34.183 16.784,34.410 16.418 C 34.562 16.174,34.567 16.123,34.567 14.700 C 34.567 13.353,34.556 13.215,34.433 13.007 C 34.202 12.614,33.987 12.503,33.412 12.480 C 33.019 12.465,32.846 12.488,32.668 12.580 M5.999 13.683 C 5.466 13.954,5.433 14.074,5.433 15.767 C 5.433 17.113,5.444 17.252,5.567 17.460 C 5.814 17.879,6.004 17.967,6.667 17.967 C 7.330 17.967,7.520 17.879,7.767 17.460 C 7.889 17.252,7.900 17.113,7.900 15.767 C 7.900 14.416,7.889 14.282,7.765 14.067 C 7.580 13.745,7.143 13.533,6.667 13.533 C 6.413 13.533,6.201 13.581,5.999 13.683 M32.668 18.580 C 32.136 18.855,32.034 19.289,32.077 21.085 C 32.101 22.078,32.116 22.190,32.258 22.420 C 32.483 22.784,32.739 22.897,33.333 22.897 C 33.928 22.897,34.183 22.784,34.410 22.418 C 34.562 22.174,34.567 22.123,34.567 20.700 C 34.567 19.353,34.556 19.215,34.433 19.007 C 34.202 18.614,33.987 18.503,33.412 18.480 C 33.019 18.465,32.846 18.488,32.668 18.580 M5.999 19.683 C 5.466 19.954,5.433 20.074,5.433 21.767 C 5.433 23.113,5.444 23.252,5.567 23.460 C 5.814 23.879,6.004 23.967,6.667 23.967 C 7.330 23.967,7.520 23.879,7.767 23.460 C 7.889 23.252,7.900 23.113,7.900 21.767 C 7.900 20.416,7.889 20.282,7.765 20.067 C 7.580 19.745,7.143 19.533,6.667 19.533 C 6.413 19.533,6.201 19.581,5.999 19.683 M32.668 24.580 C 32.136 24.855,32.034 25.289,32.077 27.085 C 32.101 28.078,32.116 28.190,32.258 28.420 C 32.483 28.784,32.739 28.897,33.333 28.897 C 33.928 28.897,34.183 28.784,34.410 28.418 C 34.562 28.174,34.567 28.123,34.567 26.700 C 34.567 25.353,34.556 25.215,34.433 25.007 C 34.202 24.614,33.987 24.503,33.412 24.480 C 33.019 24.465,32.846 24.488,32.668 24.580 M5.999 25.683 C 5.466 25.954,5.433 26.074,5.433 27.767 C 5.433 29.113,5.444 29.252,5.567 29.460 C 5.814 29.879,6.004 29.967,6.667 29.967 C 7.330 29.967,7.520 29.879,7.767 29.460 C 7.889 29.252,7.900 29.113,7.900 27.767 C 7.900 26.416,7.889 26.282,7.765 26.067 C 7.580 25.745,7.143 25.533,6.667 25.533 C 6.413 25.533,6.201 25.581,5.999 25.683 M32.225 30.559 C 32.073 30.690,31.854 30.945,31.738 31.127 C 31.522 31.462,31.262 31.697,30.896 31.885 C 30.577 32.049,30.273 32.400,30.224 32.659 C 30.136 33.131,30.473 33.884,30.886 34.136 C 31.299 34.388,31.774 34.288,32.579 33.780 C 33.380 33.274,34.200 32.127,34.200 31.513 C 34.200 30.931,33.595 30.398,32.878 30.348 C 32.524 30.323,32.483 30.337,32.225 30.559 M7.453 31.199 C 7.165 31.286,6.895 31.509,6.673 31.845 C 6.282 32.434,6.438 33.019,7.129 33.554 C 7.913 34.161,8.655 34.462,9.500 34.514 C 9.981 34.544,10.056 34.532,10.261 34.390 C 10.652 34.120,10.877 33.467,10.772 32.907 C 10.710 32.573,10.363 32.230,9.998 32.140 C 9.263 31.959,8.983 31.844,8.664 31.592 C 8.131 31.170,7.851 31.079,7.453 31.199 M13.189 32.126 C 12.586 32.252,12.334 32.610,12.334 33.340 C 12.333 33.923,12.466 34.194,12.867 34.430 C 13.083 34.556,13.208 34.567,14.533 34.567 C 15.796 34.567,15.996 34.552,16.216 34.443 C 16.607 34.248,16.765 33.930,16.765 33.333 C 16.765 32.931,16.736 32.786,16.615 32.590 C 16.350 32.162,16.138 32.106,14.700 32.090 C 14.003 32.082,13.323 32.098,13.189 32.126 M19.189 32.126 C 18.586 32.252,18.334 32.610,18.334 33.340 C 18.333 33.923,18.466 34.194,18.867 34.430 C 19.083 34.556,19.208 34.567,20.533 34.567 C 21.796 34.567,21.996 34.552,22.216 34.443 C 22.607 34.248,22.765 33.930,22.765 33.333 C 22.765 32.931,22.736 32.786,22.615 32.590 C 22.350 32.162,22.138 32.106,20.700 32.090 C 20.003 32.082,19.323 32.098,19.189 32.126 M25.189 32.126 C 24.586 32.252,24.334 32.610,24.334 33.340 C 24.333 33.923,24.466 34.194,24.867 34.430 C 25.083 34.556,25.208 34.567,26.533 34.567 C 27.796 34.567,27.996 34.552,28.216 34.443 C 28.607 34.248,28.765 33.930,28.765 33.333 C 28.765 32.931,28.736 32.786,28.615 32.590 C 28.350 32.162,28.138 32.106,26.700 32.090 C 26.003 32.082,25.323 32.098,25.189 32.126 " stroke="none" fill-rule="evenodd" fill="black"></path></svg>