<svg width="40" height="40" viewBox="0 0 40 40" fill="none" xmlns="http://www.w3.org/2000/svg"><path d="M18.467 1.906 C 15.796 2.137,13.628 2.751,11.400 3.909 C 6.655 6.374,3.194 10.958,2.137 16.176 C 1.815 17.766,1.708 19.963,1.871 21.638 C 2.134 24.346,3.185 27.302,4.703 29.605 C 7.689 34.134,12.627 37.115,17.953 37.606 C 19.026 37.704,21.382 37.650,22.333 37.504 C 27.328 36.738,31.761 33.922,34.567 29.733 C 36.129 27.403,37.072 24.872,37.475 21.933 C 37.605 20.978,37.587 18.422,37.442 17.433 C 36.952 14.081,35.793 11.345,33.729 8.667 C 33.103 7.854,31.613 6.364,30.800 5.737 C 28.187 3.724,25.429 2.533,22.300 2.068 C 21.405 1.935,19.208 1.842,18.467 1.906 M21.730 4.510 C 23.759 4.765,25.990 5.555,27.731 6.634 C 32.614 9.663,35.420 15.053,35.063 20.721 C 34.917 23.037,34.321 25.114,33.217 27.154 C 32.048 29.316,30.241 31.274,28.100 32.697 C 26.145 33.998,23.533 34.904,21.067 35.139 C 19.496 35.288,17.413 35.124,15.900 34.733 C 13.132 34.016,10.832 32.699,8.800 30.667 C 7.495 29.362,6.687 28.244,5.874 26.617 C 3.219 21.307,3.913 14.808,7.631 10.167 C 9.172 8.242,11.327 6.598,13.567 5.637 C 16.193 4.509,18.831 4.145,21.730 4.510 M11.312 18.797 C 10.742 18.909,10.447 19.319,10.447 20.000 C 10.447 20.770,10.792 21.155,11.552 21.232 C 11.780 21.255,15.747 21.265,20.367 21.254 C 28.628 21.234,28.770 21.231,28.993 21.100 C 29.448 20.832,29.653 20.304,29.538 19.692 C 29.470 19.326,29.302 19.082,28.993 18.900 C 28.770 18.769,28.638 18.767,20.167 18.757 C 15.437 18.752,11.452 18.770,11.312 18.797 " stroke="none" fill-rule="evenodd" fill="black"></path></svg>