<svg width="40" height="40" viewBox="0 0 40 40" fill="none" xmlns="http://www.w3.org/2000/svg"><path d="M26.015 6.941 C 25.671 7.111,25.290 7.540,25.192 7.866 C 25.140 8.042,25.142 8.184,25.200 8.403 C 25.270 8.661,25.472 8.893,26.753 10.183 L 28.227 11.667 26.754 13.150 C 25.118 14.797,25.031 14.928,25.195 15.475 C 25.306 15.847,25.830 16.367,26.192 16.465 C 26.762 16.618,26.878 16.541,28.517 14.913 L 30.000 13.440 31.483 14.913 C 33.122 16.541,33.238 16.618,33.808 16.465 C 34.177 16.365,34.698 15.844,34.798 15.475 C 34.951 14.904,34.874 14.788,33.247 13.150 L 31.773 11.667 33.247 10.183 C 34.874 8.545,34.951 8.429,34.798 7.859 C 34.696 7.482,34.177 6.968,33.794 6.865 C 33.237 6.715,33.125 6.790,31.483 8.421 L 30.000 9.893 28.517 8.421 C 27.305 7.217,26.985 6.934,26.767 6.874 C 26.403 6.774,26.342 6.779,26.015 6.941 M7.694 10.471 C 6.720 10.587,5.864 11.019,5.108 11.775 C 4.304 12.578,3.918 13.387,3.796 14.522 C 3.750 14.941,3.734 17.606,3.749 22.133 C 3.774 29.879,3.744 29.376,4.232 30.367 C 4.802 31.527,5.918 32.436,7.200 32.783 C 7.606 32.893,8.403 32.900,20.000 32.900 C 31.597 32.900,32.394 32.893,32.800 32.783 C 34.082 32.436,35.198 31.527,35.768 30.367 C 36.224 29.440,36.221 29.477,36.251 25.567 C 36.266 23.623,36.258 21.847,36.234 21.619 C 36.152 20.848,35.822 20.567,35.000 20.567 C 34.247 20.567,33.913 20.800,33.795 21.409 C 33.764 21.569,33.738 23.281,33.736 25.214 C 33.733 28.578,33.728 28.744,33.598 29.090 C 33.417 29.574,32.907 30.084,32.423 30.265 C 32.065 30.399,31.957 30.400,20.000 30.400 C 8.043 30.400,7.935 30.399,7.577 30.265 C 7.093 30.084,6.583 29.574,6.402 29.090 C 6.269 28.735,6.267 28.599,6.267 21.667 C 6.267 14.749,6.269 14.598,6.401 14.246 C 6.563 13.814,7.039 13.304,7.467 13.106 C 7.762 12.969,7.859 12.966,13.700 12.933 C 19.482 12.901,19.639 12.897,19.860 12.767 C 20.279 12.520,20.367 12.330,20.367 11.667 C 20.367 11.004,20.279 10.814,19.860 10.567 C 19.638 10.436,19.505 10.433,13.900 10.424 C 10.747 10.419,7.954 10.440,7.694 10.471 " stroke="none" fill-rule="evenodd" fill="black"></path></svg>