<svg width="40" height="40" viewBox="0 0 40 40" fill="none" xmlns="http://www.w3.org/2000/svg"><path d="M18.333 8.405 C 16.021 8.625,13.989 9.226,11.793 10.340 C 10.148 11.174,8.735 12.199,7.394 13.532 C 6.625 14.297,2.367 19.345,2.170 19.726 C 2.035 19.987,2.043 20.445,2.186 20.711 C 2.355 21.023,6.801 25.924,7.695 26.784 C 10.235 29.226,13.507 30.848,17.167 31.480 C 17.932 31.612,18.264 31.629,20.000 31.629 C 21.736 31.629,22.068 31.612,22.833 31.480 C 26.488 30.849,29.765 29.226,32.296 26.792 C 33.187 25.936,37.646 21.021,37.814 20.711 C 37.957 20.445,37.965 19.987,37.830 19.726 C 37.633 19.345,33.375 14.297,32.606 13.532 C 31.688 12.620,30.981 12.042,29.907 11.328 C 29.077 10.774,27.698 10.044,26.727 9.642 C 24.211 8.602,21.097 8.143,18.333 8.405 M22.155 10.973 C 24.983 11.367,27.830 12.658,30.033 14.546 C 30.922 15.307,31.325 15.748,33.394 18.227 C 34.972 20.118,35.000 20.156,34.884 20.292 C 34.346 20.922,31.580 23.969,31.073 24.491 C 29.210 26.405,27.125 27.694,24.599 28.494 C 19.286 30.177,13.353 28.792,9.376 24.941 C 8.975 24.552,5.589 20.857,5.086 20.259 C 5.006 20.163,5.203 19.902,6.741 18.059 C 8.579 15.857,9.530 14.853,10.467 14.124 C 12.854 12.267,15.715 11.138,18.722 10.867 C 19.564 10.791,21.219 10.842,22.155 10.973 M19.000 14.297 C 17.237 14.677,15.901 15.715,15.133 17.300 C 14.740 18.113,14.600 18.716,14.600 19.600 C 14.600 20.453,14.738 21.074,15.096 21.833 C 15.732 23.180,16.799 24.159,18.178 24.663 C 19.570 25.171,21.364 25.088,22.622 24.457 C 24.042 23.746,25.118 22.460,25.543 20.967 C 25.759 20.209,25.759 18.991,25.543 18.233 C 25.022 16.403,23.544 14.919,21.722 14.396 C 21.085 14.214,19.633 14.161,19.000 14.297 M21.240 16.874 C 21.739 17.059,22.083 17.294,22.488 17.727 C 23.472 18.779,23.472 20.421,22.488 21.473 C 21.809 22.199,21.165 22.486,20.200 22.492 C 19.419 22.497,18.964 22.369,18.391 21.983 C 16.795 20.909,16.621 18.723,18.032 17.481 C 18.899 16.719,20.172 16.478,21.240 16.874 " stroke="none" fill-rule="evenodd" fill="black"></path></svg>