<svg width="40" height="40" viewBox="0 0 40 40" fill="none" xmlns="http://www.w3.org/2000/svg"><path d="M6.028 2.138 C 5.054 2.254,4.197 2.685,3.441 3.441 C 2.637 4.245,2.250 5.055,2.130 6.189 C 2.084 6.616,2.068 11.426,2.081 20.467 C 2.100 33.230,2.109 34.126,2.218 34.500 C 2.690 36.113,3.940 37.351,5.533 37.783 C 5.941 37.893,6.813 37.900,20.000 37.900 C 33.187 37.900,34.059 37.893,34.467 37.783 C 36.076 37.347,37.347 36.076,37.783 34.467 C 37.893 34.059,37.900 33.187,37.900 20.000 C 37.900 6.813,37.893 5.941,37.783 5.533 C 37.351 3.940,36.113 2.690,34.500 2.218 C 34.125 2.109,33.242 2.101,20.300 2.092 C 12.710 2.087,6.287 2.108,6.028 2.138 M34.090 4.735 C 34.574 4.916,35.084 5.426,35.265 5.910 C 35.399 6.269,35.400 6.369,35.400 20.000 C 35.400 33.631,35.399 33.731,35.265 34.090 C 35.084 34.574,34.574 35.084,34.090 35.265 C 33.731 35.399,33.631 35.400,20.000 35.400 C 6.369 35.400,6.269 35.399,5.910 35.265 C 5.426 35.084,4.916 34.574,4.735 34.090 C 4.601 33.731,4.600 33.631,4.600 20.000 C 4.600 6.369,4.601 6.269,4.735 5.910 C 4.911 5.439,5.427 4.917,5.891 4.739 C 6.228 4.609,6.457 4.607,19.981 4.603 C 33.636 4.600,33.731 4.601,34.090 4.735 M28.463 12.393 C 28.300 12.499,25.437 15.319,22.101 18.659 L 16.035 24.732 13.834 22.540 C 12.624 21.334,11.534 20.298,11.412 20.236 C 11.080 20.070,10.720 20.089,10.371 20.294 C 10.039 20.489,9.709 20.917,9.637 21.250 C 9.531 21.734,9.594 21.812,12.458 24.690 C 13.948 26.188,15.284 27.501,15.427 27.607 C 15.794 27.880,16.272 27.880,16.640 27.607 C 16.783 27.501,19.904 24.403,23.576 20.723 C 30.656 13.629,30.475 13.827,30.363 13.316 C 30.292 12.988,29.963 12.556,29.642 12.368 C 29.241 12.133,28.850 12.141,28.463 12.393 " stroke="none" fill-rule="evenodd" fill="black"></path></svg>