<svg width="40" height="40" viewBox="0 0 40 40" fill="none" xmlns="http://www.w3.org/2000/svg"><path d="M19.238 2.466 C 18.264 2.643,17.559 3.026,16.793 3.796 C 16.340 4.252,16.162 4.491,15.942 4.936 C 14.817 7.220,15.738 9.956,18.016 11.099 C 18.694 11.438,19.324 11.556,20.256 11.517 C 21.155 11.479,21.676 11.336,22.323 10.952 C 23.703 10.133,24.504 8.802,24.580 7.200 C 24.622 6.309,24.498 5.695,24.123 4.933 C 23.897 4.473,23.731 4.254,23.239 3.765 C 22.593 3.123,22.001 2.762,21.267 2.563 C 20.814 2.440,19.680 2.386,19.238 2.466 M20.369 4.939 C 20.876 5.033,21.166 5.187,21.513 5.544 C 22.566 6.630,22.158 8.398,20.731 8.940 C 19.575 9.380,18.253 8.624,18.001 7.380 C 17.865 6.709,18.063 6.050,18.553 5.545 C 18.895 5.192,19.123 5.065,19.600 4.959 C 19.802 4.914,19.969 4.875,19.971 4.872 C 19.974 4.869,20.153 4.899,20.369 4.939 M19.367 15.464 C 18.327 15.595,17.531 15.997,16.731 16.798 C 15.812 17.717,15.402 18.705,15.402 20.000 C 15.402 21.295,15.812 22.283,16.731 23.202 C 17.688 24.160,18.624 24.550,19.967 24.550 C 21.310 24.550,22.245 24.160,23.202 23.202 C 24.121 22.283,24.531 21.295,24.531 20.000 C 24.531 19.222,24.388 18.603,24.054 17.933 C 23.510 16.844,22.306 15.862,21.167 15.578 C 20.651 15.450,19.874 15.401,19.367 15.464 M20.904 18.151 C 21.619 18.516,22.027 19.187,22.027 20.000 C 22.027 20.811,21.624 21.476,20.904 21.855 C 20.611 22.009,20.488 22.032,19.967 22.032 C 19.446 22.032,19.322 22.009,19.029 21.855 C 18.309 21.476,17.907 20.811,17.907 20.000 C 17.907 19.051,18.466 18.299,19.400 17.992 C 19.736 17.881,20.544 17.966,20.904 18.151 M18.813 28.598 C 17.218 29.028,15.895 30.422,15.571 32.014 C 15.352 33.092,15.477 34.120,15.943 35.067 C 16.170 35.526,16.337 35.747,16.828 36.236 C 17.322 36.729,17.538 36.890,18.000 37.113 C 18.748 37.475,19.152 37.565,20.033 37.565 C 20.915 37.565,21.318 37.475,22.067 37.113 C 22.529 36.890,22.745 36.729,23.239 36.236 C 23.730 35.747,23.897 35.526,24.123 35.067 C 24.498 34.305,24.622 33.691,24.580 32.800 C 24.537 31.900,24.323 31.213,23.869 30.522 C 23.303 29.660,22.400 28.959,21.467 28.656 C 20.827 28.447,19.480 28.418,18.813 28.598 M20.731 31.060 C 21.419 31.321,21.922 31.908,22.066 32.620 C 22.202 33.291,22.004 33.950,21.513 34.456 C 21.167 34.813,20.851 34.980,20.390 35.050 C 19.657 35.162,19.047 34.964,18.553 34.456 C 18.063 33.950,17.865 33.291,18.001 32.620 C 18.253 31.375,19.574 30.620,20.731 31.060 " stroke="none" fill-rule="evenodd" fill="black"></path></svg>