<svg width="40" height="40" viewBox="0 0 40 40" fill="none" xmlns="http://www.w3.org/2000/svg"><path d="M19.494 2.869 C 18.629 3.022,17.831 3.602,17.397 4.391 C 17.304 4.561,16.558 6.687,15.739 9.117 L 14.250 13.533 9.675 13.535 C 7.019 13.535,4.904 13.564,4.633 13.602 C 2.981 13.836,1.794 15.449,2.070 17.086 C 2.165 17.649,2.505 18.341,2.870 18.715 C 3.021 18.870,4.830 20.216,6.889 21.706 C 8.948 23.196,10.655 24.435,10.681 24.458 C 10.707 24.482,10.387 25.551,9.971 26.834 C 9.555 28.117,8.908 30.112,8.534 31.267 C 8.159 32.422,7.828 33.539,7.798 33.750 C 7.669 34.653,8.038 35.701,8.705 36.333 C 9.604 37.182,10.998 37.416,12.083 36.898 C 12.275 36.806,14.123 35.501,16.187 33.999 C 18.252 32.496,19.966 31.267,19.996 31.267 C 20.027 31.267,21.697 32.471,23.709 33.944 C 25.721 35.416,27.502 36.704,27.667 36.805 C 28.161 37.108,28.662 37.219,29.392 37.187 C 29.945 37.164,30.095 37.131,30.480 36.945 C 31.642 36.385,32.359 35.158,32.237 33.938 C 32.198 33.555,31.523 31.398,29.603 25.522 L 29.284 24.544 32.825 21.976 C 34.773 20.564,36.517 19.297,36.700 19.161 C 37.371 18.661,37.807 17.953,37.948 17.130 C 38.214 15.575,37.121 14.001,35.547 13.673 C 35.309 13.624,33.650 13.600,30.480 13.599 L 25.767 13.598 24.347 9.216 C 23.566 6.805,22.854 4.682,22.766 4.498 C 22.206 3.332,20.808 2.636,19.494 2.869 M20.380 5.433 C 20.474 5.499,20.602 5.777,20.757 6.250 C 20.886 6.644,21.612 8.872,22.369 11.200 C 23.742 15.425,23.869 15.748,24.219 15.949 C 24.333 16.014,25.585 16.041,29.749 16.067 L 35.130 16.100 35.310 16.279 C 35.541 16.511,35.549 16.815,35.327 17.036 C 35.239 17.125,33.293 18.556,31.003 20.216 C 27.974 22.412,26.804 23.296,26.706 23.464 C 26.450 23.903,26.487 24.047,28.162 29.195 C 29.026 31.850,29.733 34.121,29.733 34.240 C 29.733 34.499,29.480 34.733,29.199 34.733 C 29.062 34.733,27.955 33.957,24.858 31.690 C 22.571 30.016,20.580 28.592,20.433 28.525 C 20.097 28.371,19.903 28.371,19.567 28.525 C 19.420 28.592,17.440 30.000,15.167 31.655 C 11.508 34.319,11.005 34.664,10.788 34.665 C 10.514 34.667,10.267 34.432,10.267 34.169 C 10.267 34.089,10.972 31.850,11.834 29.195 C 12.696 26.539,13.420 24.254,13.443 24.116 C 13.501 23.762,13.316 23.317,13.012 23.077 C 12.877 22.971,10.997 21.602,8.833 20.036 C 6.670 18.469,4.817 17.110,4.717 17.015 C 4.496 16.807,4.473 16.490,4.661 16.257 L 4.788 16.100 10.177 16.067 L 15.567 16.033 15.819 15.877 C 15.960 15.789,16.133 15.599,16.212 15.443 C 16.290 15.291,17.069 13.023,17.944 10.403 C 19.002 7.235,19.583 5.589,19.679 5.487 C 19.847 5.308,20.166 5.283,20.380 5.433 " stroke="none" fill-rule="evenodd" fill="black"></path></svg>