<svg width="40" height="40" viewBox="0 0 40 40" fill="none" xmlns="http://www.w3.org/2000/svg"><path d="M18.567 2.170 C 14.512 2.771,11.220 6.012,10.560 10.056 C 10.433 10.830,10.422 12.284,10.535 13.067 C 10.825 15.061,11.881 17.105,13.342 18.503 C 13.814 18.955,14.487 19.498,14.767 19.652 C 14.890 19.719,14.879 19.734,14.633 19.833 C 14.487 19.893,14.037 20.110,13.633 20.315 C 9.757 22.289,6.822 25.990,5.347 30.767 C 4.864 32.328,3.733 36.584,3.733 36.837 C 3.733 37.409,4.269 37.857,5.022 37.915 C 5.375 37.942,5.466 37.924,5.663 37.790 C 5.789 37.703,5.950 37.535,6.019 37.416 C 6.089 37.297,6.470 36.023,6.867 34.583 C 7.702 31.559,7.839 31.109,8.248 30.067 C 9.830 26.030,12.824 23.014,16.418 21.837 C 17.810 21.381,18.324 21.304,20.000 21.304 C 21.676 21.304,22.190 21.381,23.582 21.837 C 27.122 22.997,30.112 25.973,31.691 29.911 C 32.113 30.962,32.315 31.618,33.133 34.583 C 33.530 36.023,33.911 37.297,33.981 37.416 C 34.050 37.535,34.211 37.703,34.337 37.790 C 34.534 37.924,34.625 37.942,34.978 37.915 C 35.731 37.857,36.267 37.409,36.267 36.837 C 36.267 36.584,35.136 32.328,34.653 30.767 C 33.178 25.992,30.242 22.288,26.367 20.315 C 25.963 20.110,25.517 19.895,25.374 19.837 L 25.116 19.733 25.374 19.558 C 27.499 18.123,29.016 15.756,29.442 13.210 C 29.567 12.464,29.567 10.802,29.442 10.057 C 28.757 5.964,25.470 2.752,21.367 2.165 C 20.554 2.048,19.373 2.050,18.567 2.170 M21.450 4.704 C 24.036 5.232,26.118 7.215,26.850 9.848 C 27.015 10.440,27.031 10.604,27.031 11.633 C 27.031 12.662,27.015 12.827,26.850 13.419 C 26.116 16.058,24.072 18.003,21.433 18.572 C 20.712 18.728,19.288 18.728,18.567 18.572 C 15.928 18.003,13.884 16.058,13.150 13.419 C 12.985 12.827,12.969 12.662,12.969 11.633 C 12.969 10.604,12.985 10.440,13.150 9.848 C 13.939 7.009,16.217 5.004,19.106 4.605 C 19.697 4.523,20.789 4.569,21.450 4.704 " stroke="none" fill-rule="evenodd" fill="black"></path></svg>