<svg width="40" height="40" viewBox="0 0 40 40" fill="none" xmlns="http://www.w3.org/2000/svg"><path d="M19.646 5.464 C 19.330 5.526,19.074 5.712,18.900 6.007 C 18.770 6.228,18.766 6.371,18.748 12.481 L 18.729 18.729 12.481 18.748 C 6.371 18.766,6.228 18.770,6.007 18.900 C 5.552 19.168,5.347 19.696,5.462 20.308 C 5.530 20.674,5.698 20.918,6.007 21.100 C 6.228 21.230,6.371 21.234,12.481 21.252 L 18.729 21.271 18.748 27.519 C 18.766 33.629,18.770 33.772,18.900 33.993 C 19.082 34.302,19.326 34.470,19.692 34.538 C 20.304 34.653,20.832 34.448,21.100 33.993 C 21.230 33.772,21.234 33.629,21.252 27.519 L 21.271 21.271 27.519 21.252 C 33.629 21.234,33.772 21.230,33.993 21.100 C 34.448 20.832,34.653 20.304,34.538 19.692 C 34.470 19.326,34.302 19.082,33.993 18.900 C 33.772 18.770,33.629 18.766,27.517 18.748 L 21.267 18.729 21.264 12.681 C 21.262 9.355,21.236 6.503,21.205 6.343 C 21.074 5.664,20.442 5.308,19.646 5.464 " stroke="none" fill-rule="evenodd" fill="black"></path></svg>