<svg width="40" height="40" viewBox="0 0 40 40" fill="none" xmlns="http://www.w3.org/2000/svg"><path d="M19.285 2.261 C 18.856 2.371,18.292 2.700,17.954 3.037 C 17.631 3.361,17.100 4.400,9.514 19.575 C 4.534 29.537,1.386 35.905,1.334 36.126 C 1.224 36.589,1.280 37.323,1.460 37.800 C 1.742 38.544,2.360 39.155,3.146 39.467 L 3.567 39.633 20.038 39.633 L 36.510 39.633 37.078 39.352 C 37.680 39.054,38.044 38.724,38.353 38.196 C 38.706 37.594,38.824 36.709,38.642 36.033 C 38.593 35.850,34.916 28.429,30.472 19.541 C 22.888 4.376,22.370 3.361,22.044 3.035 C 21.833 2.825,21.513 2.600,21.232 2.466 C 20.824 2.271,20.692 2.242,20.134 2.225 C 19.785 2.214,19.403 2.230,19.285 2.261 M20.235 4.760 C 20.307 4.812,23.950 12.024,28.330 20.788 C 35.739 35.613,36.288 36.734,36.214 36.896 C 36.171 36.991,36.058 37.099,35.963 37.135 C 35.727 37.224,4.273 37.224,4.037 37.135 C 3.942 37.099,3.829 36.991,3.786 36.896 C 3.712 36.734,4.261 35.613,11.670 20.788 C 16.050 12.024,19.693 4.812,19.765 4.760 C 19.837 4.709,19.943 4.667,20.000 4.667 C 20.057 4.667,20.163 4.709,20.235 4.760 M19.448 11.069 C 18.290 11.264,17.305 12.299,17.135 13.500 C 17.051 14.094,17.047 25.409,17.130 25.987 C 17.268 26.938,17.910 27.807,18.782 28.219 C 19.209 28.422,19.275 28.433,20.000 28.433 C 20.725 28.433,20.791 28.422,21.218 28.219 C 22.106 27.799,22.746 26.920,22.871 25.949 C 22.953 25.316,22.947 14.081,22.865 13.500 C 22.690 12.268,21.713 11.265,20.492 11.065 C 20.049 10.992,19.901 10.993,19.448 11.069 M20.290 13.656 C 20.392 13.768,20.399 14.268,20.384 19.803 L 20.367 25.828 20.183 25.931 C 20.018 26.023,19.982 26.023,19.817 25.931 L 19.633 25.828 19.616 19.786 C 19.601 14.359,19.610 13.733,19.704 13.638 C 19.846 13.497,20.154 13.506,20.290 13.656 M19.109 29.407 C 18.694 29.505,17.986 29.911,17.637 30.251 C 16.753 31.113,16.396 32.193,16.598 33.391 C 17.061 36.134,20.503 37.199,22.467 35.206 C 23.150 34.513,23.467 33.733,23.467 32.744 C 23.467 31.230,22.391 29.807,20.966 29.436 C 20.536 29.324,19.529 29.309,19.109 29.407 M20.441 31.908 C 21.111 32.226,21.167 33.163,20.540 33.582 C 20.088 33.884,19.399 33.716,19.154 33.244 C 19.002 32.950,19.013 32.504,19.178 32.281 C 19.511 31.832,19.985 31.692,20.441 31.908 " stroke="none" fill-rule="evenodd" fill="black"></path></svg>