<svg width="40" height="40" viewBox="0 0 40 40" fill="none" xmlns="http://www.w3.org/2000/svg"><path d="M21.651 4.074 C 17.244 4.499,13.231 7.340,11.317 11.389 C 9.915 14.357,9.697 17.763,10.707 20.920 C 11.118 22.202,12.085 24.002,12.867 24.939 L 13.123 25.245 9.424 28.939 C 7.389 30.971,5.648 32.762,5.554 32.920 C 5.246 33.437,5.420 33.951,6.082 34.487 C 6.390 34.736,6.817 34.795,7.139 34.634 C 7.264 34.571,9.062 32.828,11.133 30.761 L 14.900 27.002 15.467 27.408 C 16.963 28.479,18.580 29.184,20.428 29.573 C 21.420 29.782,23.387 29.863,24.437 29.740 C 28.217 29.295,31.583 27.254,33.677 24.139 C 34.790 22.482,35.479 20.684,35.772 18.667 C 35.937 17.530,35.874 15.467,35.640 14.362 C 35.088 11.745,33.877 9.532,31.991 7.695 C 30.848 6.582,29.930 5.943,28.458 5.236 C 26.397 4.245,24.042 3.844,21.651 4.074 M24.367 6.607 C 25.340 6.719,26.398 7.032,27.493 7.533 C 29.122 8.278,30.760 9.748,31.821 11.417 C 33.140 13.491,33.682 16.273,33.241 18.706 C 32.575 22.381,30.044 25.406,26.567 26.685 C 23.806 27.700,20.744 27.498,18.142 26.130 C 16.220 25.119,14.451 23.288,13.600 21.426 C 12.882 19.857,12.594 18.580,12.590 16.958 C 12.588 15.597,12.764 14.574,13.213 13.333 C 14.509 9.756,17.790 7.112,21.567 6.604 C 22.529 6.474,23.225 6.475,24.367 6.607 " stroke="none" fill-rule="evenodd" fill="black"></path></svg>