<svg width="40" height="40" viewBox="0 0 40 40" fill="none" xmlns="http://www.w3.org/2000/svg"><path d="M7.881 3.801 C 7.253 3.932,6.951 4.398,7.018 5.133 C 7.061 5.612,7.224 5.914,7.536 6.098 C 7.749 6.223,7.878 6.233,9.233 6.233 C 10.580 6.233,10.719 6.222,10.926 6.100 C 11.346 5.853,11.433 5.663,11.433 5.000 C 11.433 4.337,11.346 4.147,10.926 3.900 C 10.724 3.781,10.566 3.765,9.433 3.754 C 8.737 3.747,8.038 3.768,7.881 3.801 M13.856 3.796 C 13.499 3.866,13.272 4.040,13.129 4.355 C 12.850 4.971,13.045 5.817,13.532 6.097 C 13.731 6.211,13.916 6.234,14.848 6.256 C 17.063 6.310,17.433 6.130,17.433 5.000 C 17.433 4.247,17.200 3.913,16.591 3.795 C 16.243 3.728,14.202 3.729,13.856 3.796 M19.846 3.794 C 19.242 3.919,18.983 4.319,19.014 5.079 C 19.036 5.654,19.147 5.868,19.540 6.100 C 19.748 6.222,19.887 6.233,21.233 6.233 C 22.926 6.233,23.046 6.201,23.317 5.668 C 23.626 5.057,23.439 4.194,22.933 3.902 C 22.723 3.780,22.570 3.765,21.400 3.754 C 20.685 3.747,19.986 3.766,19.846 3.794 M25.846 3.794 C 25.242 3.919,24.983 4.319,25.014 5.079 C 25.036 5.654,25.147 5.868,25.540 6.100 C 25.748 6.222,25.887 6.233,27.233 6.233 C 28.656 6.233,28.708 6.229,28.952 6.077 C 29.317 5.849,29.431 5.595,29.431 5.000 C 29.431 4.405,29.317 4.151,28.952 3.923 C 28.712 3.774,28.637 3.766,27.400 3.754 C 26.685 3.747,25.986 3.766,25.846 3.794 M30.805 5.942 C 30.544 6.072,30.341 6.228,30.261 6.358 C 30.103 6.617,30.095 7.081,30.242 7.475 C 30.306 7.646,30.373 8.118,30.403 8.617 C 30.459 9.539,30.537 9.764,30.888 10.026 C 31.046 10.144,31.171 10.167,31.667 10.167 C 32.330 10.167,32.520 10.079,32.767 9.660 C 32.883 9.463,32.899 9.321,32.893 8.567 C 32.886 7.638,32.773 7.007,32.526 6.515 C 32.129 5.723,31.597 5.546,30.805 5.942 M4.534 6.079 C 4.011 6.435,3.774 7.236,3.770 8.667 C 3.767 9.517,3.783 9.661,3.900 9.860 C 4.147 10.279,4.337 10.367,5.000 10.367 C 5.496 10.367,5.620 10.344,5.778 10.226 C 6.144 9.954,6.218 9.730,6.250 8.809 C 6.266 8.346,6.321 7.819,6.373 7.638 C 6.587 6.889,6.429 6.443,5.842 6.141 C 5.371 5.899,4.837 5.874,4.534 6.079 M31.005 11.913 C 30.574 12.139,30.409 12.533,30.403 13.347 L 30.400 13.726 24.817 13.749 C 19.777 13.770,19.194 13.784,18.833 13.887 C 17.559 14.253,16.461 15.155,15.898 16.300 C 15.414 17.285,15.441 16.854,15.416 23.974 L 15.394 30.381 14.731 30.418 C 14.014 30.457,13.756 30.555,13.517 30.875 C 13.236 31.251,13.236 32.082,13.517 32.458 C 13.768 32.796,14.015 32.882,14.833 32.918 L 15.589 32.951 15.727 33.331 C 16.142 34.469,17.241 35.541,18.439 35.976 C 19.215 36.258,19.766 36.275,27.133 36.251 C 33.501 36.231,34.134 36.219,34.500 36.113 C 35.777 35.745,36.872 34.844,37.435 33.700 C 37.923 32.709,37.893 33.212,37.918 25.467 C 37.933 20.939,37.916 18.274,37.871 17.855 C 37.749 16.721,37.362 15.911,36.559 15.108 C 35.724 14.273,34.929 13.906,33.694 13.785 L 32.952 13.713 32.913 13.119 C 32.871 12.473,32.765 12.212,32.445 11.974 C 32.181 11.777,31.333 11.741,31.005 11.913 M4.332 12.083 C 3.799 12.354,3.767 12.474,3.767 14.167 C 3.767 15.513,3.778 15.652,3.900 15.860 C 4.147 16.279,4.337 16.367,5.000 16.367 C 5.663 16.367,5.853 16.279,6.100 15.860 C 6.222 15.652,6.233 15.513,6.233 14.167 C 6.233 12.816,6.223 12.682,6.098 12.467 C 5.913 12.145,5.476 11.933,5.000 11.933 C 4.747 11.933,4.534 11.981,4.332 12.083 M34.090 16.402 C 34.574 16.583,35.084 17.093,35.265 17.577 C 35.398 17.932,35.400 18.067,35.400 25.000 C 35.400 31.933,35.398 32.068,35.265 32.423 C 35.084 32.907,34.574 33.417,34.090 33.598 C 33.735 33.731,33.599 33.733,26.667 33.733 C 19.734 33.733,19.598 33.731,19.243 33.598 C 18.760 33.417,18.250 32.907,18.069 32.423 C 17.936 32.068,17.933 31.933,17.933 25.000 C 17.933 18.067,17.936 17.932,18.069 17.577 C 18.245 17.106,18.760 16.584,19.224 16.405 C 19.557 16.277,19.762 16.274,26.647 16.270 C 33.604 16.267,33.735 16.269,34.090 16.402 M4.335 18.047 C 3.803 18.322,3.701 18.756,3.744 20.552 C 3.766 21.484,3.789 21.669,3.903 21.868 C 4.308 22.573,5.691 22.572,6.098 21.867 C 6.223 21.652,6.233 21.518,6.233 20.167 C 6.233 18.820,6.222 18.681,6.100 18.474 C 5.868 18.080,5.654 17.970,5.079 17.947 C 4.686 17.931,4.513 17.955,4.335 18.047 M4.335 24.047 C 3.803 24.322,3.701 24.756,3.744 26.552 C 3.768 27.544,3.783 27.657,3.925 27.886 C 4.150 28.251,4.405 28.364,5.000 28.364 C 5.595 28.364,5.849 28.251,6.077 27.885 C 6.229 27.641,6.233 27.590,6.233 26.167 C 6.233 24.820,6.222 24.681,6.100 24.474 C 5.868 24.080,5.654 23.970,5.079 23.947 C 4.686 23.931,4.513 23.955,4.335 24.047 M5.633 29.638 C 5.349 29.787,5.206 29.925,4.990 30.263 C 4.606 30.862,4.775 31.392,5.539 31.977 C 6.210 32.492,6.992 32.809,7.839 32.909 C 8.581 32.997,9.048 32.555,9.117 31.698 C 9.175 30.975,8.832 30.560,8.070 30.433 C 7.671 30.367,7.289 30.194,6.967 29.935 C 6.443 29.514,6.043 29.425,5.633 29.638 " stroke="none" fill-rule="evenodd" fill="black"></path></svg>