<svg width="22" height="22" viewBox="0 0 22 22" fill="none" xmlns="http://www.w3.org/2000/svg"><path d="M2.567 0.295 C 1.982 0.383,1.542 0.615,1.078 1.078 C 0.694 1.461,0.491 1.794,0.359 2.253 L 0.275 2.548 0.275 11.000 L 0.275 19.452 0.359 19.747 C 0.491 20.206,0.694 20.539,1.078 20.922 C 1.461 21.306,1.794 21.509,2.253 21.641 L 2.548 21.725 11.000 21.725 L 19.452 21.725 19.747 21.641 C 20.206 21.509,20.539 21.306,20.922 20.922 C 21.306 20.539,21.509 20.206,21.641 19.747 L 21.725 19.452 21.725 11.000 L 21.725 2.548 21.641 2.253 C 21.509 1.794,21.306 1.461,20.922 1.078 C 20.546 0.702,20.242 0.513,19.782 0.368 L 19.488 0.275 11.128 0.270 C 6.530 0.267,2.678 0.279,2.567 0.295 M16.712 6.377 C 16.987 6.519,17.233 6.859,17.233 7.095 C 17.233 7.147,17.208 7.250,17.177 7.325 C 17.110 7.486,9.214 15.415,8.949 15.587 C 8.762 15.709,8.579 15.724,8.368 15.637 C 8.182 15.560,4.941 12.326,4.839 12.116 C 4.707 11.844,4.775 11.578,5.044 11.317 C 5.291 11.077,5.592 11.007,5.841 11.132 C 5.906 11.165,6.557 11.787,7.288 12.516 L 8.617 13.841 12.329 10.134 C 14.548 7.920,16.093 6.404,16.170 6.368 C 16.342 6.288,16.547 6.291,16.712 6.377 " fill="#6A983C" stroke="none" fill-rule="evenodd"></path></svg>