<svg width="40" height="40" viewBox="0 0 40 40" fill="none" xmlns="http://www.w3.org/2000/svg"><path d="M35.633 0.509 C 35.523 0.567,33.900 2.143,32.027 4.013 L 28.620 7.413 28.301 6.868 C 26.543 3.870,23.428 2.069,20.000 2.069 C 15.784 2.069,12.108 4.792,10.839 8.856 C 10.320 10.518,10.320 12.749,10.839 14.410 C 11.575 16.769,13.197 18.800,15.249 19.933 L 15.793 20.233 8.102 27.933 C -0.307 36.352,0.163 35.836,0.332 36.460 C 0.435 36.844,0.949 37.363,1.325 37.465 C 1.970 37.638,1.359 38.196,10.333 29.234 L 18.500 21.079 18.900 21.137 C 19.120 21.170,19.784 21.226,20.376 21.262 C 20.968 21.298,21.763 21.391,22.143 21.468 C 26.754 22.402,30.462 26.074,32.137 31.367 C 32.241 31.697,32.672 33.146,33.094 34.588 C 33.515 36.030,33.916 37.305,33.984 37.421 C 34.052 37.538,34.211 37.703,34.337 37.790 C 34.534 37.924,34.625 37.942,34.978 37.915 C 35.733 37.856,36.267 37.409,36.267 36.834 C 36.267 36.606,35.168 32.680,34.531 30.633 C 33.852 28.453,32.606 26.082,31.242 24.379 C 30.287 23.186,28.806 21.831,27.636 21.080 C 27.025 20.688,25.852 20.056,25.450 19.903 C 25.169 19.795,25.029 19.667,25.193 19.667 C 25.226 19.667,25.473 19.498,25.743 19.293 C 27.626 17.855,28.968 15.718,29.401 13.467 C 29.528 12.810,29.583 11.650,29.525 10.867 L 29.468 10.100 33.327 6.233 C 35.450 4.107,37.235 2.271,37.294 2.153 C 37.752 1.234,36.542 0.036,35.633 0.509 M21.450 4.704 C 24.036 5.232,26.118 7.215,26.850 9.848 C 27.015 10.440,27.031 10.604,27.031 11.633 C 27.031 12.662,27.015 12.827,26.850 13.419 C 26.116 16.058,24.072 18.003,21.433 18.572 C 20.712 18.728,19.288 18.728,18.567 18.572 C 15.928 18.003,13.884 16.058,13.150 13.419 C 12.985 12.827,12.969 12.662,12.969 11.633 C 12.969 10.604,12.985 10.440,13.150 9.848 C 13.939 7.009,16.217 5.004,19.106 4.605 C 19.697 4.523,20.789 4.569,21.450 4.704 " stroke="none" fill-rule="evenodd" fill="black"></path></svg>