<svg width="40" height="40" viewBox="0 0 40 40" fill="none" xmlns="http://www.w3.org/2000/svg"><path d="M11.250 4.069 C 9.653 4.338,8.218 5.582,7.683 7.161 L 7.500 7.700 7.479 21.200 C 7.465 30.941,7.479 34.796,7.533 35.045 C 7.635 35.518,7.913 35.878,8.340 36.091 C 8.745 36.293,9.264 36.325,9.632 36.172 C 9.800 36.102,18.634 29.773,20.173 28.621 L 20.380 28.466 25.588 32.231 C 28.452 34.301,30.916 36.056,31.062 36.131 C 31.404 36.305,31.999 36.310,32.367 36.141 C 32.690 35.993,32.970 35.720,33.140 35.387 C 33.263 35.145,33.267 34.768,33.266 21.519 C 33.265 6.569,33.290 7.521,32.866 6.632 C 32.433 5.724,31.627 4.918,30.700 4.465 C 29.705 3.979,30.165 3.999,20.353 4.008 C 15.520 4.012,11.424 4.040,11.250 4.069 M29.036 6.539 C 29.252 6.579,29.537 6.667,29.668 6.734 C 30.004 6.905,30.431 7.351,30.612 7.720 L 30.767 8.033 30.784 20.450 C 30.794 27.279,30.785 32.867,30.764 32.867 C 30.744 32.867,28.591 31.322,25.980 29.434 C 23.370 27.546,21.128 25.951,21.000 25.889 C 20.690 25.739,20.036 25.741,19.746 25.892 C 19.625 25.956,17.408 27.538,14.821 29.409 C 12.233 31.280,10.074 32.827,10.023 32.846 C 9.945 32.877,9.934 31.037,9.949 20.524 C 9.966 8.703,9.972 8.153,10.089 7.850 C 10.345 7.192,11.010 6.654,11.715 6.536 C 12.226 6.450,28.570 6.453,29.036 6.539 " stroke="none" fill-rule="evenodd" fill="black"></path></svg>