<svg width="40" height="40" viewBox="0 0 40 40" fill="none" xmlns="http://www.w3.org/2000/svg"><path d="M14.033 4.730 C 12.003 4.971,10.248 6.209,9.368 8.022 C 9.205 8.358,9.002 8.903,8.919 9.233 L 8.767 9.833 8.767 20.000 L 8.767 30.167 8.919 30.767 C 9.467 32.928,11.138 34.600,13.300 35.148 L 13.900 35.300 20.500 35.299 L 27.100 35.299 27.633 35.150 C 28.656 34.865,29.217 34.521,31.633 32.699 C 32.880 31.759,34.072 30.840,34.282 30.658 C 35.006 30.030,35.635 29.050,35.963 28.040 C 36.234 27.205,36.281 26.312,36.251 22.551 L 36.223 19.167 36.047 18.511 C 35.481 16.399,33.931 14.861,31.755 14.251 C 31.248 14.108,31.119 14.104,27.062 14.082 L 22.891 14.060 22.037 11.380 C 20.927 7.898,20.698 7.405,19.750 6.445 C 18.968 5.654,18.028 5.117,16.982 4.865 C 16.353 4.714,14.781 4.642,14.033 4.730 M16.399 7.299 C 17.306 7.540,18.231 8.270,18.602 9.037 C 18.689 9.216,19.231 10.830,19.807 12.624 C 20.383 14.418,20.913 15.964,20.984 16.059 C 21.054 16.155,21.211 16.301,21.333 16.383 L 21.553 16.533 25.905 16.533 C 28.674 16.533,30.447 16.560,30.779 16.606 C 31.554 16.714,32.172 17.024,32.722 17.581 C 32.968 17.830,33.250 18.186,33.349 18.372 C 33.726 19.080,33.733 19.169,33.733 23.152 L 33.733 26.810 33.564 27.314 C 33.379 27.864,33.067 28.382,32.721 28.709 C 32.493 28.925,28.525 31.932,28.039 32.258 C 27.730 32.465,27.356 32.629,26.967 32.730 C 26.792 32.775,24.542 32.799,20.429 32.800 C 14.853 32.800,14.117 32.788,13.795 32.693 C 12.574 32.330,11.737 31.493,11.374 30.271 C 11.277 29.945,11.267 28.924,11.268 20.005 C 11.269 13.413,11.293 10.000,11.339 9.800 C 11.602 8.658,12.710 7.539,13.839 7.275 C 14.275 7.172,15.985 7.189,16.399 7.299 M5.754 14.863 C 5.556 14.953,5.434 15.069,5.337 15.259 C 5.201 15.526,5.200 15.581,5.200 23.833 C 5.200 32.086,5.201 32.140,5.337 32.408 C 5.505 32.737,5.885 32.930,6.367 32.931 C 7.035 32.934,7.425 32.703,7.591 32.207 C 7.699 31.884,7.699 15.783,7.591 15.460 C 7.487 15.148,7.220 14.878,6.937 14.800 C 6.567 14.697,6.060 14.724,5.754 14.863 " stroke="none" fill-rule="evenodd" fill="black"></path></svg>