<svg width="40" height="40" viewBox="0 0 40 40" fill="none" xmlns="http://www.w3.org/2000/svg"><path d="M10.967 3.912 C 10.229 4.013,9.233 4.483,8.644 5.008 C 7.986 5.594,7.419 6.517,7.195 7.367 C 7.078 7.808,7.021 34.293,7.136 34.844 C 7.227 35.286,7.510 35.675,7.910 35.909 C 8.169 36.061,8.303 36.094,8.663 36.093 C 8.952 36.092,9.177 36.051,9.327 35.972 C 9.453 35.906,11.883 34.169,14.727 32.112 C 17.572 30.056,19.945 28.373,20.000 28.373 C 20.055 28.373,22.428 30.056,25.273 32.112 C 28.117 34.169,30.547 35.906,30.673 35.972 C 30.824 36.051,31.049 36.092,31.343 36.093 C 31.720 36.094,31.835 36.064,32.108 35.895 C 32.527 35.636,32.782 35.263,32.871 34.779 C 32.916 34.534,32.934 33.410,32.921 31.713 C 32.901 29.174,32.893 29.021,32.767 28.807 C 32.499 28.352,31.970 28.147,31.359 28.262 C 30.993 28.330,30.749 28.498,30.567 28.807 C 30.445 29.014,30.431 29.188,30.400 30.875 L 30.367 32.716 25.542 29.228 C 22.888 27.310,20.626 25.709,20.515 25.670 C 20.233 25.572,19.704 25.583,19.443 25.692 C 19.277 25.761,11.097 31.619,9.816 32.586 L 9.599 32.750 9.616 20.292 C 9.633 8.257,9.638 7.825,9.758 7.600 C 10.014 7.123,10.331 6.810,10.784 6.587 L 11.231 6.367 20.000 6.367 L 28.769 6.367 29.216 6.587 C 29.502 6.727,29.747 6.909,29.897 7.092 C 30.337 7.629,30.359 7.735,30.398 9.467 C 30.430 10.874,30.447 11.056,30.567 11.260 C 30.834 11.715,31.363 11.919,31.975 11.805 C 32.340 11.737,32.585 11.569,32.767 11.260 C 32.890 11.050,32.900 10.915,32.898 9.433 C 32.897 7.686,32.849 7.323,32.527 6.610 C 32.098 5.660,31.357 4.866,30.471 4.408 C 29.403 3.854,30.348 3.902,20.200 3.893 C 15.232 3.889,11.077 3.897,10.967 3.912 M31.312 13.797 C 30.996 13.859,30.740 14.046,30.567 14.340 C 30.442 14.551,30.432 14.709,30.412 16.645 L 30.390 18.723 28.312 18.745 C 26.375 18.765,26.218 18.776,26.007 18.900 C 25.698 19.082,25.530 19.326,25.462 19.692 C 25.347 20.304,25.552 20.832,26.007 21.100 C 26.218 21.224,26.375 21.235,28.312 21.255 L 30.390 21.277 30.412 23.355 C 30.432 25.291,30.442 25.449,30.567 25.660 C 30.749 25.969,30.993 26.137,31.359 26.205 C 31.970 26.319,32.499 26.115,32.767 25.660 C 32.891 25.449,32.901 25.291,32.922 23.355 L 32.943 21.277 35.022 21.255 C 36.958 21.235,37.115 21.224,37.326 21.100 C 37.781 20.832,37.986 20.304,37.872 19.692 C 37.803 19.326,37.635 19.082,37.326 18.900 C 37.115 18.776,36.958 18.765,35.017 18.745 L 32.933 18.723 32.930 16.845 C 32.927 14.852,32.894 14.491,32.684 14.209 C 32.420 13.855,31.865 13.689,31.312 13.797 " stroke="none" fill-rule="evenodd" fill="black"></path></svg>