<svg width="40" height="40" viewBox="0 0 40 40" fill="none" xmlns="http://www.w3.org/2000/svg"><path d="M29.646 5.464 C 29.330 5.526,29.074 5.712,28.900 6.007 C 28.776 6.218,28.765 6.375,28.745 8.312 L 28.723 10.390 26.645 10.412 C 24.709 10.432,24.551 10.442,24.340 10.567 C 24.031 10.749,23.863 10.993,23.795 11.359 C 23.681 11.970,23.885 12.499,24.340 12.767 C 24.551 12.891,24.709 12.901,26.645 12.922 L 28.723 12.943 28.745 15.022 C 28.765 16.958,28.776 17.115,28.900 17.326 C 29.168 17.781,29.696 17.986,30.308 17.872 C 30.674 17.803,30.918 17.635,31.100 17.326 C 31.224 17.115,31.235 16.958,31.255 15.022 L 31.277 12.943 33.355 12.922 C 35.291 12.901,35.449 12.891,35.660 12.767 C 36.115 12.499,36.319 11.970,36.205 11.359 C 36.137 10.993,35.969 10.749,35.660 10.567 C 35.449 10.442,35.291 10.432,33.350 10.412 L 31.267 10.390 31.264 8.512 C 31.261 6.519,31.227 6.157,31.017 5.876 C 30.754 5.522,30.198 5.355,29.646 5.464 M7.694 10.471 C 6.720 10.587,5.864 11.019,5.108 11.775 C 4.304 12.578,3.918 13.387,3.796 14.522 C 3.750 14.941,3.734 17.606,3.749 22.133 C 3.774 29.879,3.744 29.376,4.232 30.367 C 4.802 31.527,5.918 32.436,7.200 32.783 C 7.606 32.893,8.403 32.900,20.000 32.900 C 31.597 32.900,32.394 32.893,32.800 32.783 C 34.082 32.436,35.198 31.527,35.768 30.367 C 36.224 29.440,36.221 29.477,36.251 25.567 C 36.266 23.623,36.258 21.847,36.234 21.619 C 36.152 20.848,35.822 20.567,35.000 20.567 C 34.247 20.567,33.913 20.800,33.795 21.409 C 33.764 21.569,33.738 23.281,33.736 25.214 C 33.733 28.578,33.728 28.744,33.598 29.090 C 33.417 29.574,32.907 30.084,32.423 30.265 C 32.065 30.399,31.957 30.400,20.000 30.400 C 8.043 30.400,7.935 30.399,7.577 30.265 C 7.093 30.084,6.583 29.574,6.402 29.090 C 6.269 28.735,6.267 28.599,6.267 21.667 C 6.267 14.749,6.269 14.598,6.401 14.246 C 6.563 13.814,7.039 13.304,7.467 13.106 C 7.762 12.969,7.859 12.966,13.700 12.933 C 19.482 12.901,19.639 12.897,19.860 12.767 C 20.279 12.520,20.367 12.330,20.367 11.667 C 20.367 11.004,20.279 10.814,19.860 10.567 C 19.638 10.436,19.505 10.433,13.900 10.424 C 10.747 10.419,7.954 10.440,7.694 10.471 " stroke="none" fill-rule="evenodd" fill="black"></path></svg>