<svg width="40" height="40" viewBox="0 0 40 40" fill="none" xmlns="http://www.w3.org/2000/svg"><path d="M5.833 1.893 C 4.759 2.235,3.957 3.175,3.797 4.280 C 3.715 4.843,3.719 7.848,3.802 8.433 C 4.008 9.892,5.261 10.931,6.815 10.933 L 7.063 10.933 7.084 22.683 C 7.107 35.829,7.062 34.657,7.586 35.733 C 7.772 36.116,7.971 36.376,8.431 36.842 C 8.950 37.367,9.121 37.492,9.667 37.754 C 10.015 37.922,10.478 38.090,10.696 38.129 C 11.245 38.228,28.755 38.228,29.304 38.129 C 29.522 38.090,29.985 37.922,30.333 37.754 C 30.879 37.492,31.050 37.367,31.569 36.842 C 32.029 36.376,32.228 36.116,32.414 35.733 C 32.938 34.657,32.893 35.829,32.916 22.683 L 32.937 10.933 33.185 10.933 C 34.739 10.931,35.992 9.892,36.198 8.433 C 36.279 7.860,36.284 4.933,36.204 4.317 C 36.079 3.347,35.439 2.468,34.552 2.047 L 34.100 1.833 20.100 1.821 C 8.921 1.811,6.046 1.825,5.833 1.893 M33.585 4.370 C 33.732 4.473,33.733 4.488,33.733 6.327 C 33.733 8.125,33.729 8.183,33.593 8.306 C 33.456 8.430,33.135 8.433,20.000 8.433 C 6.865 8.433,6.544 8.430,6.407 8.306 C 6.271 8.183,6.267 8.125,6.267 6.327 C 6.267 4.488,6.268 4.473,6.415 4.370 C 6.548 4.277,7.946 4.267,20.000 4.267 C 32.054 4.267,33.452 4.277,33.585 4.370 M30.400 22.488 C 30.400 35.639,30.458 34.410,29.806 35.072 C 29.536 35.346,29.327 35.489,29.047 35.592 L 28.662 35.733 20.000 35.733 L 11.338 35.733 10.953 35.592 C 10.673 35.489,10.464 35.346,10.194 35.072 C 9.542 34.410,9.600 35.639,9.600 22.488 L 9.600 10.933 20.000 10.933 L 30.400 10.933 30.400 22.488 M14.549 17.474 C 14.205 17.645,13.823 18.073,13.726 18.400 C 13.673 18.575,13.675 18.718,13.733 18.936 C 13.803 19.201,14.055 19.477,16.020 21.450 L 18.229 23.667 16.021 25.883 C 13.593 28.321,13.575 28.345,13.732 28.927 C 13.835 29.311,14.349 29.830,14.725 29.931 C 15.323 30.092,15.344 30.076,17.783 27.646 L 20.000 25.438 22.217 27.646 C 24.656 30.076,24.677 30.092,25.275 29.931 C 25.644 29.832,26.165 29.310,26.265 28.941 C 26.425 28.344,26.410 28.323,23.980 25.883 L 21.771 23.667 23.980 21.450 C 26.410 19.011,26.425 18.990,26.265 18.392 C 26.167 18.030,25.647 17.506,25.275 17.395 C 24.701 17.223,24.662 17.252,22.216 19.688 L 19.999 21.896 17.816 19.718 C 15.284 17.191,15.216 17.144,14.549 17.474 " stroke="none" fill-rule="evenodd" fill="black"></path></svg>