<svg width="40" height="40" viewBox="0 0 40 40" fill="none" xmlns="http://www.w3.org/2000/svg"><path d="M31.029 12.059 C 30.875 12.130,27.666 14.871,23.529 18.467 C 19.553 21.923,16.231 24.813,16.148 24.889 L 15.995 25.028 12.681 21.723 C 10.858 19.906,9.276 18.357,9.164 18.282 C 8.711 17.975,8.202 18.048,7.744 18.487 C 7.281 18.930,7.161 19.402,7.395 19.853 C 7.534 20.120,15.197 27.799,15.457 27.932 C 15.724 28.068,16.160 28.037,16.457 27.860 C 16.814 27.649,32.284 14.190,32.506 13.898 C 32.842 13.458,32.779 12.951,32.326 12.435 C 32.096 12.173,31.672 11.936,31.433 11.936 C 31.360 11.936,31.178 11.992,31.029 12.059 " stroke="none" fill-rule="evenodd" fill="black"></path></svg>