<svg width="40" height="40" viewBox="0 0 40 40" fill="none" xmlns="http://www.w3.org/2000/svg"><path d="M9.712 3.729 C 9.572 3.757,9.377 3.840,9.279 3.913 C 8.937 4.166,8.902 4.326,8.880 5.741 L 8.859 7.049 7.380 7.085 C 5.741 7.125,5.409 7.184,4.633 7.565 C 3.474 8.134,2.564 9.252,2.217 10.533 C 2.108 10.939,2.100 11.661,2.100 21.667 C 2.100 31.672,2.108 32.395,2.217 32.800 C 2.653 34.410,3.924 35.680,5.533 36.116 C 5.941 36.226,6.813 36.233,20.000 36.233 C 33.187 36.233,34.059 36.226,34.467 36.116 C 36.076 35.680,37.347 34.410,37.783 32.800 C 37.892 32.395,37.900 31.672,37.900 21.667 C 37.900 11.661,37.892 10.939,37.783 10.533 C 37.436 9.252,36.527 8.136,35.367 7.565 C 34.626 7.201,34.242 7.128,32.820 7.086 L 31.541 7.047 31.520 5.695 C 31.498 4.192,31.477 4.117,31.002 3.839 C 30.680 3.651,29.893 3.665,29.569 3.865 C 29.140 4.131,29.103 4.273,29.078 5.750 L 29.057 7.067 20.195 7.067 L 11.333 7.067 11.333 5.843 C 11.333 4.349,11.259 4.069,10.800 3.834 C 10.576 3.720,10.025 3.666,9.712 3.729 M34.090 9.735 C 34.574 9.916,35.084 10.426,35.265 10.910 C 35.383 11.227,35.400 11.429,35.400 12.536 L 35.400 13.800 20.000 13.800 L 4.600 13.800 4.600 12.536 C 4.600 11.429,4.617 11.227,4.735 10.910 C 4.911 10.439,5.427 9.917,5.891 9.739 C 6.228 9.609,6.457 9.607,19.981 9.603 C 33.636 9.600,33.731 9.601,34.090 9.735 M35.400 24.164 C 35.400 31.937,35.398 32.067,35.265 32.423 C 35.084 32.907,34.574 33.417,34.090 33.598 C 33.731 33.732,33.631 33.733,20.000 33.733 C 6.369 33.733,6.269 33.732,5.910 33.598 C 5.426 33.417,4.916 32.907,4.735 32.423 C 4.602 32.067,4.600 31.937,4.600 24.164 L 4.600 16.267 20.000 16.267 L 35.400 16.267 35.400 24.164 M8.084 18.964 C 7.616 19.182,7.175 19.647,7.004 20.104 C 6.876 20.446,6.867 20.614,6.867 22.553 L 6.867 24.633 7.057 25.033 C 7.285 25.514,7.719 25.932,8.171 26.106 C 8.470 26.222,8.694 26.233,10.600 26.233 C 12.506 26.233,12.730 26.222,13.029 26.106 C 13.481 25.932,13.915 25.514,14.143 25.033 L 14.333 24.633 14.333 22.553 C 14.333 20.614,14.324 20.446,14.196 20.104 C 14.025 19.647,13.584 19.182,13.116 18.964 C 12.768 18.802,12.757 18.801,10.600 18.801 C 8.443 18.801,8.432 18.802,8.084 18.964 M17.633 18.990 C 17.143 19.228,16.861 19.516,16.634 20.013 L 16.460 20.393 16.480 22.613 C 16.499 24.743,16.506 24.844,16.645 25.103 C 16.842 25.472,17.252 25.868,17.642 26.068 L 17.967 26.233 20.167 26.233 C 22.273 26.233,22.380 26.227,22.675 26.091 C 23.117 25.886,23.501 25.512,23.715 25.077 L 23.900 24.700 23.900 22.500 L 23.900 20.300 23.734 19.975 C 23.535 19.585,23.139 19.175,22.770 18.978 C 22.511 18.839,22.412 18.833,20.267 18.815 L 18.033 18.797 17.633 18.990 M11.851 22.517 L 11.833 23.767 10.600 23.767 L 9.367 23.767 9.349 22.517 L 9.330 21.267 10.600 21.267 L 11.870 21.267 11.851 22.517 M21.451 22.517 L 21.433 23.767 20.183 23.785 L 18.933 23.803 18.933 22.535 L 18.933 21.267 20.201 21.267 L 21.470 21.267 21.451 22.517 " stroke="none" fill-rule="evenodd" fill="black"></path></svg>