<svg width="40" height="40" viewBox="0 0 40 40" fill="none" xmlns="http://www.w3.org/2000/svg"><path d="M5.933 15.504 C 5.695 15.555,5.245 15.723,4.933 15.876 C 4.474 16.103,4.252 16.271,3.764 16.761 C 3.271 17.255,3.110 17.471,2.887 17.933 C 2.525 18.682,2.435 19.085,2.435 19.967 C 2.435 20.848,2.525 21.252,2.887 22.000 C 3.110 22.462,3.271 22.678,3.764 23.172 C 4.253 23.663,4.474 23.830,4.933 24.057 C 5.695 24.432,6.309 24.555,7.200 24.513 C 8.802 24.437,10.133 23.636,10.952 22.256 C 11.336 21.610,11.479 21.088,11.517 20.189 C 11.556 19.257,11.438 18.627,11.099 17.950 C 10.145 16.047,8.041 15.051,5.933 15.504 M31.967 15.509 C 30.355 15.850,28.926 17.276,28.563 18.906 C 28.412 19.584,28.457 20.783,28.656 21.400 C 28.957 22.331,29.660 23.236,30.522 23.802 C 31.213 24.256,31.900 24.470,32.800 24.513 C 33.691 24.555,34.305 24.432,35.067 24.057 C 35.526 23.830,35.747 23.663,36.236 23.172 C 36.729 22.678,36.890 22.462,37.113 22.000 C 37.475 21.252,37.565 20.848,37.565 19.967 C 37.565 19.085,37.475 18.682,37.113 17.933 C 36.890 17.471,36.729 17.255,36.236 16.761 C 35.747 16.270,35.526 16.103,35.067 15.877 C 34.755 15.723,34.290 15.554,34.033 15.500 C 33.447 15.377,32.573 15.381,31.967 15.509 M18.933 15.570 C 17.418 15.894,15.975 17.305,15.564 18.867 C 15.490 19.149,15.450 19.555,15.450 20.033 C 15.450 21.376,15.840 22.312,16.798 23.269 C 17.717 24.188,18.705 24.598,20.000 24.598 C 21.295 24.598,22.283 24.188,23.202 23.269 C 24.160 22.312,24.550 21.376,24.550 20.033 C 24.550 18.690,24.160 17.755,23.202 16.798 C 22.272 15.868,21.285 15.464,19.967 15.473 C 19.637 15.475,19.172 15.519,18.933 15.570 M7.510 17.960 C 9.263 18.426,9.617 20.748,8.083 21.720 C 7.275 22.232,6.240 22.121,5.544 21.447 C 5.035 20.953,4.838 20.343,4.950 19.609 C 5.019 19.155,5.146 18.905,5.491 18.544 C 6.048 17.962,6.752 17.758,7.510 17.960 M33.856 18.069 C 34.222 18.231,34.693 18.668,34.870 19.010 C 35.138 19.529,35.139 20.402,34.872 20.919 C 34.802 21.055,34.614 21.293,34.456 21.447 C 33.370 22.499,31.602 22.092,31.060 20.664 C 30.539 19.294,31.684 17.785,33.156 17.902 C 33.370 17.919,33.685 17.994,33.856 18.069 M20.831 18.125 C 21.227 18.301,21.644 18.696,21.855 19.096 C 22.009 19.389,22.032 19.512,22.032 20.033 C 22.032 20.554,22.009 20.678,21.855 20.971 C 21.476 21.691,20.811 22.093,20.000 22.093 C 19.189 22.093,18.524 21.691,18.145 20.971 C 17.991 20.678,17.968 20.554,17.968 20.033 C 17.968 19.512,17.991 19.389,18.145 19.096 C 18.427 18.560,18.947 18.145,19.515 18.002 C 19.861 17.915,20.488 17.974,20.831 18.125 " stroke="none" fill-rule="evenodd" fill="black"></path></svg>