<svg width="40" height="40" viewBox="0 0 40 40" fill="none" xmlns="http://www.w3.org/2000/svg"><path d="M4.383 14.396 C 4.062 14.600,3.773 14.972,3.699 15.274 C 3.618 15.609,3.783 15.957,4.337 16.622 L 4.875 17.267 3.975 18.850 C 3.480 19.721,3.055 20.544,3.031 20.679 C 2.942 21.177,3.271 21.657,3.896 21.941 C 4.493 22.212,4.976 22.032,5.381 21.386 C 5.525 21.155,5.878 20.552,6.165 20.045 L 6.687 19.124 7.094 19.517 C 7.965 20.360,9.223 21.355,10.375 22.113 L 11.138 22.614 11.015 22.824 C 10.204 24.199,9.253 25.967,9.222 26.155 C 9.162 26.527,9.250 26.835,9.485 27.066 C 10.128 27.701,10.931 27.733,11.388 27.143 C 11.491 27.009,11.962 26.214,12.434 25.377 C 12.905 24.539,13.325 23.840,13.365 23.825 C 13.406 23.809,13.658 23.886,13.925 23.996 C 15.091 24.477,16.741 24.915,17.979 25.072 L 18.592 25.150 18.612 26.758 C 18.631 28.201,18.646 28.388,18.761 28.577 C 18.962 28.911,19.308 29.067,19.842 29.067 C 20.363 29.066,20.679 28.940,20.895 28.645 C 21.024 28.470,21.036 28.342,21.067 26.812 L 21.100 25.167 21.333 25.149 C 22.782 25.037,24.637 24.586,26.095 23.993 C 26.352 23.888,26.582 23.825,26.605 23.851 C 26.629 23.878,27.046 24.605,27.533 25.467 C 28.019 26.328,28.492 27.133,28.583 27.256 C 29.007 27.825,29.576 27.878,30.283 27.413 C 30.667 27.161,30.822 26.863,30.787 26.444 C 30.762 26.143,30.625 25.862,29.776 24.373 C 29.236 23.426,28.803 22.645,28.814 22.639 C 29.975 21.954,31.692 20.659,32.746 19.674 L 33.258 19.195 33.519 19.648 C 33.662 19.896,33.952 20.407,34.163 20.782 C 34.848 22.002,35.077 22.222,35.649 22.211 C 35.981 22.204,36.541 21.930,36.739 21.677 C 36.947 21.414,37.023 21.067,36.941 20.764 C 36.902 20.619,36.465 19.785,35.969 18.910 L 35.069 17.320 35.503 16.822 C 36.153 16.078,36.290 15.844,36.295 15.474 C 36.301 15.072,36.070 14.703,35.628 14.410 C 35.253 14.162,34.782 14.124,34.456 14.317 C 34.348 14.381,33.925 14.819,33.517 15.291 C 28.184 21.463,22.249 23.854,16.380 22.195 C 14.048 21.537,11.676 20.203,9.500 18.329 C 8.782 17.711,6.964 15.864,6.268 15.045 C 5.667 14.338,5.464 14.200,5.022 14.200 C 4.772 14.200,4.618 14.247,4.383 14.396 " stroke="none" fill-rule="evenodd" fill="black"></path></svg>