<svg width="40" height="40" viewBox="0 0 40 40" fill="none" xmlns="http://www.w3.org/2000/svg"><path d="M12.233 12.165 C 10.842 12.361,9.626 12.867,8.523 13.710 C 5.064 16.352,4.396 21.360,7.042 24.810 C 8.360 26.528,10.270 27.605,12.465 27.866 C 13.221 27.956,26.308 27.955,27.327 27.865 C 29.322 27.688,30.999 26.886,32.374 25.452 C 33.968 23.788,34.728 21.612,34.527 19.291 C 34.369 17.473,33.642 15.872,32.374 14.548 C 30.999 13.114,29.322 12.312,27.327 12.135 C 26.157 12.032,12.996 12.058,12.233 12.165 M14.471 14.701 C 15.540 14.926,16.270 15.337,17.133 16.200 C 18.261 17.328,18.733 18.449,18.733 20.000 C 18.733 21.551,18.261 22.672,17.133 23.800 C 16.244 24.689,15.495 25.101,14.379 25.313 C 13.746 25.433,12.511 25.398,11.967 25.245 C 10.322 24.782,8.964 23.596,8.337 22.076 C 8.033 21.338,7.967 20.967,7.967 20.000 C 7.967 19.029,8.033 18.663,8.342 17.911 C 8.896 16.568,10.152 15.378,11.519 14.900 C 11.784 14.808,12.158 14.706,12.351 14.674 C 12.918 14.579,13.956 14.592,14.471 14.701 M27.805 14.701 C 28.874 14.926,29.603 15.337,30.467 16.200 C 31.595 17.328,32.067 18.449,32.067 20.000 C 32.067 21.551,31.595 22.672,30.467 23.800 C 29.814 24.452,29.368 24.760,28.666 25.044 C 27.826 25.383,27.570 25.400,23.193 25.400 L 19.132 25.400 19.444 25.017 C 20.465 23.763,21.054 22.313,21.193 20.709 C 21.376 18.608,20.763 16.602,19.444 14.983 L 19.132 14.600 23.228 14.600 C 26.631 14.600,27.406 14.617,27.805 14.701 " stroke="none" fill-rule="evenodd" fill="black"></path></svg>