<svg width="40" height="40" viewBox="0 0 40 40" fill="none" xmlns="http://www.w3.org/2000/svg"><path d="M19.448 4.936 C 18.290 5.131,17.305 6.166,17.135 7.367 C 17.051 7.965,17.046 24.270,17.130 24.854 C 17.268 25.805,17.910 26.673,18.782 27.086 C 19.209 27.288,19.275 27.300,20.000 27.300 C 20.725 27.300,20.791 27.288,21.218 27.086 C 22.106 26.666,22.746 25.787,22.871 24.816 C 22.953 24.178,22.947 7.951,22.865 7.367 C 22.690 6.134,21.713 5.132,20.492 4.932 C 20.049 4.859,19.901 4.860,19.448 4.936 M20.290 7.522 C 20.392 7.635,20.399 8.308,20.384 16.170 L 20.367 24.695 20.183 24.797 C 20.018 24.890,19.982 24.890,19.817 24.797 L 19.633 24.695 19.616 16.152 C 19.601 8.452,19.610 7.600,19.705 7.505 C 19.846 7.363,20.154 7.372,20.290 7.522 M19.109 29.407 C 18.694 29.505,17.986 29.911,17.637 30.251 C 16.753 31.113,16.396 32.193,16.598 33.391 C 17.061 36.134,20.503 37.199,22.467 35.206 C 23.150 34.513,23.467 33.733,23.467 32.744 C 23.467 31.230,22.391 29.807,20.966 29.436 C 20.536 29.324,19.529 29.309,19.109 29.407 M20.441 31.908 C 21.111 32.226,21.167 33.163,20.540 33.582 C 20.088 33.884,19.399 33.716,19.154 33.244 C 19.002 32.950,19.013 32.504,19.178 32.281 C 19.511 31.832,19.985 31.692,20.441 31.908 " stroke="none" fill-rule="evenodd" fill="black"></path></svg>