<svg width="40" height="40" viewBox="0 0 40 40" fill="none" xmlns="http://www.w3.org/2000/svg"><path d="M16.100 3.013 C 15.637 3.177,15.445 3.515,15.445 4.167 C 15.445 4.854,15.648 5.181,16.167 5.330 C 16.357 5.385,17.486 5.401,20.133 5.387 C 24.200 5.365,24.087 5.376,24.372 4.954 C 24.641 4.554,24.630 3.719,24.352 3.343 C 24.068 2.959,24.161 2.968,20.067 2.954 C 17.544 2.946,16.234 2.966,16.100 3.013 M18.433 8.003 C 14.405 8.461,10.759 10.535,8.358 13.735 C 6.416 16.323,5.451 19.234,5.451 22.500 C 5.451 25.766,6.416 28.675,8.359 31.266 C 10.579 34.227,13.841 36.212,17.579 36.876 C 18.308 37.006,18.664 37.028,20.000 37.028 C 21.336 37.028,21.692 37.006,22.421 36.876 C 26.159 36.212,29.421 34.227,31.641 31.266 C 33.584 28.675,34.549 25.766,34.549 22.500 C 34.549 19.234,33.584 16.325,31.641 13.734 C 29.424 10.778,26.130 8.772,22.433 8.128 C 21.520 7.969,19.331 7.900,18.433 8.003 M21.143 10.470 C 26.717 11.035,31.151 15.271,31.963 20.809 C 32.157 22.131,32.070 24.050,31.760 25.300 C 30.628 29.860,27.015 33.369,22.458 34.333 C 20.385 34.772,18.217 34.635,16.123 33.935 C 12.574 32.749,9.673 29.813,8.513 26.233 C 7.726 23.808,7.726 21.192,8.513 18.767 C 10.245 13.424,15.597 9.908,21.143 10.470 M19.646 13.797 C 19.330 13.859,19.074 14.046,18.900 14.340 C 18.770 14.561,18.767 14.687,18.767 19.133 L 18.767 23.700 18.926 23.957 C 19.053 24.161,19.650 24.589,21.863 26.064 C 23.622 27.235,24.726 27.930,24.875 27.958 C 25.328 28.043,25.792 27.768,26.098 27.233 C 26.417 26.677,26.368 26.232,25.947 25.857 C 25.809 25.734,24.700 24.973,23.483 24.167 L 21.270 22.700 21.265 18.833 C 21.263 16.707,21.236 14.836,21.205 14.676 C 21.074 13.997,20.442 13.641,19.646 13.797 " stroke="none" fill-rule="evenodd" fill="black"></path></svg>