<svg width="40" height="40" viewBox="0 0 40 40" fill="none" xmlns="http://www.w3.org/2000/svg"><path d="M30.494 2.064 C 30.308 2.093,29.963 2.200,29.728 2.303 C 29.325 2.478,28.992 2.796,24.078 7.695 C 20.954 10.809,18.800 13.007,18.715 13.167 C 18.582 13.417,18.568 13.608,18.478 16.217 C 18.387 18.845,18.389 19.018,18.499 19.307 C 18.656 19.717,18.934 20.021,19.317 20.202 C 19.629 20.349,19.658 20.351,21.500 20.305 C 22.527 20.279,23.835 20.235,24.408 20.207 L 25.450 20.157 25.775 19.916 C 26.276 19.544,36.017 9.744,36.258 9.368 C 36.551 8.913,36.679 8.428,36.676 7.780 C 36.672 6.849,36.445 6.392,35.484 5.381 C 33.967 3.784,32.820 2.653,32.526 2.463 C 31.993 2.119,31.175 1.958,30.494 2.064 M12.228 2.139 C 11.664 2.205,11.007 2.433,10.492 2.742 C 10.009 3.030,9.230 3.809,8.942 4.292 C 8.704 4.689,8.400 5.457,8.400 5.660 C 8.400 5.769,8.311 5.785,7.517 5.819 C 6.520 5.861,6.144 5.953,5.395 6.341 C 4.236 6.941,3.318 8.143,3.056 9.401 C 2.983 9.754,2.967 12.071,2.967 22.067 C 2.967 33.536,2.974 34.327,3.084 34.733 C 3.520 36.343,4.790 37.613,6.400 38.049 C 6.804 38.159,7.458 38.167,16.000 38.167 C 26.024 38.167,25.537 38.185,26.433 37.769 C 27.384 37.328,28.177 36.572,28.628 35.677 C 28.964 35.010,29.071 34.579,29.114 33.726 L 29.152 32.953 29.920 32.909 C 30.342 32.885,30.870 32.818,31.094 32.760 C 32.251 32.461,33.443 31.489,33.987 30.400 C 34.472 29.428,34.464 29.544,34.466 23.671 C 34.467 18.526,34.464 18.438,34.329 18.158 C 33.983 17.442,32.582 17.393,32.165 18.082 C 32.038 18.293,32.032 18.469,32.000 23.567 C 31.967 28.770,31.965 28.837,31.824 29.141 C 31.629 29.564,31.241 29.976,30.838 30.189 L 30.500 30.367 21.488 30.384 C 12.554 30.402,12.474 30.401,12.113 30.266 C 11.626 30.084,11.117 29.575,10.935 29.090 C 10.801 28.732,10.800 28.619,10.800 17.500 C 10.800 6.381,10.801 6.268,10.935 5.910 C 11.116 5.426,11.626 4.916,12.110 4.735 C 12.462 4.604,12.614 4.600,17.619 4.597 C 20.450 4.595,22.897 4.569,23.057 4.538 C 23.666 4.420,23.900 4.086,23.900 3.333 C 23.900 2.580,23.666 2.246,23.057 2.129 C 22.684 2.057,12.853 2.066,12.228 2.139 M32.036 5.417 C 33.928 7.343,34.200 7.644,34.200 7.807 C 34.200 7.930,33.063 9.103,29.317 12.846 L 24.433 17.726 23.000 17.765 C 22.212 17.786,21.424 17.819,21.250 17.838 L 20.933 17.871 20.934 17.352 C 20.934 17.067,20.952 16.263,20.975 15.567 L 21.016 14.300 25.890 9.417 C 30.198 5.102,30.789 4.533,30.967 4.533 C 31.137 4.533,31.302 4.669,32.036 5.417 M8.283 18.683 C 8.301 28.364,8.311 29.128,8.419 29.500 C 8.792 30.781,9.691 31.874,10.833 32.435 C 11.828 32.924,11.282 32.893,19.393 32.917 L 26.686 32.939 26.642 33.519 C 26.566 34.538,26.101 35.223,25.270 35.538 C 24.942 35.663,24.655 35.667,16.035 35.667 C 7.259 35.667,7.133 35.665,6.777 35.531 C 6.292 35.350,5.783 34.840,5.601 34.355 C 5.466 33.993,5.465 33.929,5.483 21.879 C 5.499 10.182,5.504 9.759,5.625 9.533 C 6.086 8.672,6.757 8.298,7.881 8.275 L 8.263 8.267 8.283 18.683 " stroke="none" fill-rule="evenodd" fill="black"></path></svg>