<svg width="40" height="40" viewBox="0 0 40 40" fill="none" xmlns="http://www.w3.org/2000/svg"><path d="M19.100 5.424 C 18.420 5.647,18.250 5.799,14.645 9.391 C 12.662 11.367,10.999 13.077,10.928 13.214 C 10.698 13.657,10.790 14.124,11.191 14.556 C 11.590 14.986,12.131 15.108,12.586 14.871 C 12.722 14.800,14.153 13.420,15.767 11.804 L 18.700 8.866 18.733 21.383 C 18.766 33.749,18.768 33.903,18.900 34.126 C 19.147 34.546,19.337 34.633,20.000 34.633 C 20.663 34.633,20.853 34.546,21.100 34.126 C 21.232 33.902,21.234 33.764,21.251 21.437 L 21.269 8.973 24.318 12.012 C 27.554 15.237,27.586 15.263,28.116 15.177 C 28.654 15.090,29.267 14.417,29.267 13.915 C 29.267 13.771,29.221 13.558,29.166 13.440 C 29.110 13.323,27.377 11.546,25.316 9.492 C 20.988 5.180,21.245 5.381,20.033 5.352 C 19.620 5.342,19.265 5.370,19.100 5.424 " stroke="none" fill-rule="evenodd" fill="black"></path></svg>