<svg width="40" height="40" viewBox="0 0 40 40" fill="none" xmlns="http://www.w3.org/2000/svg"><path d="M13.133 10.872 C 13.005 10.948,11.262 12.651,9.259 14.655 C 5.976 17.943,5.598 18.342,5.410 18.733 C 5.151 19.272,5.054 19.907,5.140 20.517 C 5.265 21.412,5.226 21.366,9.194 25.349 C 11.193 27.356,12.925 29.044,13.041 29.099 C 13.158 29.155,13.371 29.200,13.515 29.200 C 14.017 29.200,14.690 28.587,14.777 28.050 C 14.863 27.520,14.835 27.486,11.644 24.283 L 8.638 21.267 19.933 21.267 L 31.227 21.267 28.223 24.283 C 24.909 27.612,24.890 27.636,25.061 28.209 C 25.150 28.506,25.588 29.022,25.877 29.172 C 26.144 29.310,26.593 29.290,26.867 29.128 C 26.995 29.052,28.737 27.349,30.737 25.345 C 33.986 22.088,34.396 21.654,34.586 21.267 C 35.043 20.336,34.989 19.222,34.447 18.391 C 34.151 17.937,27.166 10.965,26.912 10.870 C 26.809 10.832,26.612 10.800,26.475 10.800 C 25.977 10.800,25.310 11.412,25.223 11.950 C 25.137 12.480,25.165 12.514,28.356 15.717 L 31.362 18.733 20.067 18.733 L 8.773 18.733 11.777 15.717 C 15.091 12.388,15.110 12.364,14.939 11.791 C 14.850 11.494,14.412 10.978,14.123 10.828 C 13.856 10.690,13.407 10.710,13.133 10.872 " stroke="none" fill-rule="evenodd" fill="black"></path></svg>