<svg width="40" height="40" viewBox="0 0 40 40" fill="none" xmlns="http://www.w3.org/2000/svg"><path d="M19.435 5.141 C 18.597 5.263,18.601 5.260,14.651 9.194 C 12.644 11.193,10.956 12.925,10.901 13.041 C 10.845 13.158,10.800 13.371,10.800 13.514 C 10.800 14.023,11.406 14.689,11.950 14.777 C 12.480 14.863,12.514 14.835,15.717 11.644 L 18.733 8.638 18.733 19.933 L 18.733 31.227 15.717 28.223 C 12.388 24.909,12.364 24.890,11.791 25.061 C 11.494 25.150,10.978 25.588,10.828 25.877 C 10.690 26.144,10.710 26.593,10.872 26.867 C 10.948 26.995,12.651 28.737,14.655 30.737 C 17.912 33.986,18.346 34.396,18.733 34.586 C 19.664 35.043,20.778 34.989,21.609 34.447 C 22.063 34.151,29.035 27.166,29.130 26.912 C 29.168 26.809,29.200 26.612,29.200 26.474 C 29.200 25.983,28.581 25.309,28.050 25.223 C 27.520 25.137,27.486 25.165,24.283 28.356 L 21.267 31.362 21.267 20.067 L 21.267 8.773 24.283 11.777 C 27.612 15.091,27.636 15.110,28.209 14.939 C 28.506 14.850,29.022 14.412,29.172 14.123 C 29.310 13.856,29.290 13.407,29.128 13.133 C 29.051 13.005,27.364 11.277,25.378 9.293 C 21.671 5.591,21.428 5.377,20.767 5.212 C 20.332 5.105,19.859 5.079,19.435 5.141 " stroke="none" fill-rule="evenodd" fill="black"></path></svg>