<svg width="40" height="40" viewBox="0 0 40 40" fill="none" xmlns="http://www.w3.org/2000/svg"><path d="M13.429 10.837 C 13.317 10.893,11.545 12.624,9.491 14.686 C 5.124 19.068,5.367 18.752,5.367 20.067 C 5.367 21.377,5.142 21.082,9.362 25.322 C 11.366 27.336,13.076 29.001,13.214 29.072 C 13.658 29.302,14.124 29.210,14.556 28.809 C 14.986 28.410,15.108 27.869,14.871 27.414 C 14.800 27.278,13.420 25.847,11.804 24.233 L 8.866 21.300 21.383 21.267 C 33.749 21.234,33.903 21.232,34.126 21.100 C 34.546 20.853,34.633 20.663,34.633 20.000 C 34.633 19.337,34.546 19.147,34.126 18.900 C 33.902 18.768,33.764 18.766,21.437 18.749 L 8.973 18.731 12.012 15.682 C 15.237 12.446,15.263 12.414,15.177 11.884 C 15.087 11.332,14.422 10.732,13.904 10.735 C 13.755 10.736,13.541 10.782,13.429 10.837 " stroke="none" fill-rule="evenodd" fill="black"></path></svg>