<svg width="40" height="40" viewBox="0 0 40 40" fill="none" xmlns="http://www.w3.org/2000/svg"><path d="M19.338 5.447 C 19.040 5.603,18.865 5.850,18.795 6.209 C 18.764 6.369,18.738 12.019,18.736 18.764 L 18.733 31.029 15.683 27.989 C 12.445 24.763,12.414 24.737,11.884 24.823 C 11.339 24.911,10.733 25.577,10.733 26.086 C 10.733 26.229,10.779 26.442,10.834 26.560 C 10.890 26.677,12.623 28.454,14.684 30.508 C 19.068 34.876,18.752 34.633,20.067 34.633 C 21.377 34.633,21.082 34.858,25.322 30.638 C 27.336 28.634,29.001 26.924,29.072 26.786 C 29.308 26.330,29.185 25.789,28.756 25.391 C 28.323 24.989,27.857 24.898,27.414 25.129 C 27.278 25.200,25.847 26.580,24.233 28.196 L 21.300 31.134 21.267 18.617 C 21.234 6.251,21.232 6.097,21.100 5.874 C 20.868 5.480,20.654 5.370,20.079 5.347 C 19.685 5.331,19.514 5.354,19.338 5.447 " stroke="none" fill-rule="evenodd" fill="black"></path></svg>