<svg width="40" height="40" viewBox="0 0 40 40" fill="none" xmlns="http://www.w3.org/2000/svg"><path d="M25.833 10.911 C 25.130 11.281,24.826 12.004,25.129 12.586 C 25.200 12.722,26.580 14.153,28.196 15.767 L 31.134 18.700 18.617 18.733 C 6.251 18.766,6.097 18.768,5.874 18.900 C 5.454 19.147,5.367 19.337,5.367 20.000 C 5.367 20.663,5.454 20.853,5.874 21.100 C 6.098 21.232,6.236 21.234,18.563 21.251 L 31.027 21.269 27.988 24.318 C 24.763 27.554,24.737 27.586,24.823 28.116 C 24.911 28.661,25.577 29.267,26.086 29.267 C 26.229 29.267,26.442 29.221,26.560 29.166 C 26.677 29.110,28.454 27.377,30.508 25.316 C 34.876 20.932,34.633 21.248,34.633 19.933 C 34.633 18.623,34.858 18.918,30.638 14.678 C 28.634 12.664,26.924 10.999,26.786 10.928 C 26.489 10.774,26.106 10.767,25.833 10.911 " stroke="none" fill-rule="evenodd" fill="black"></path></svg>