<svg width="40" height="40" viewBox="0 0 40 40" fill="none" xmlns="http://www.w3.org/2000/svg"><path d="M15.930 10.988 C 15.578 11.211,15.276 11.623,15.223 11.950 C 15.136 12.487,15.130 12.479,18.875 16.235 C 21.596 18.964,22.400 19.808,22.400 19.933 C 22.400 20.058,21.581 20.916,18.809 23.698 C 14.854 27.666,14.887 27.626,15.061 28.209 C 15.150 28.506,15.588 29.022,15.877 29.172 C 16.144 29.310,16.593 29.290,16.867 29.128 C 16.995 29.052,18.737 27.349,20.737 25.345 C 23.986 22.088,24.396 21.654,24.586 21.267 C 25.043 20.336,24.989 19.222,24.447 18.391 C 24.151 17.937,17.166 10.965,16.912 10.870 C 16.582 10.747,16.247 10.787,15.930 10.988 " stroke="none" fill-rule="evenodd" fill="black"></path></svg>