<svg width="40" height="40" viewBox="0 0 40 40" fill="none" xmlns="http://www.w3.org/2000/svg"><path d="M19.167 6.033 C 18.450 6.227,18.275 6.380,14.645 9.994 C 12.708 11.922,11.047 13.629,10.954 13.786 C 10.633 14.327,10.831 14.932,11.484 15.405 C 11.698 15.560,11.823 15.600,12.095 15.600 C 12.300 15.600,12.503 15.556,12.602 15.491 C 12.692 15.431,14.342 13.811,16.268 11.891 C 18.989 9.178,19.806 8.400,19.933 8.400 C 20.061 8.400,20.898 9.199,23.699 11.993 C 25.679 13.970,27.396 15.635,27.513 15.693 C 27.940 15.907,28.491 15.770,28.876 15.356 C 29.277 14.923,29.368 14.457,29.138 14.014 C 28.961 13.673,21.783 6.531,21.400 6.314 C 20.749 5.947,19.885 5.838,19.167 6.033 M11.567 24.311 C 10.863 24.681,10.559 25.403,10.862 25.986 C 11.039 26.327,18.217 33.469,18.600 33.686 C 19.486 34.186,20.594 34.189,21.500 33.694 C 21.882 33.485,28.669 26.772,29.009 26.267 C 29.387 25.705,29.193 25.077,28.487 24.578 C 28.193 24.370,27.742 24.322,27.456 24.469 C 27.370 24.513,25.709 26.135,23.765 28.074 C 21.024 30.808,20.193 31.600,20.066 31.600 C 19.939 31.600,19.095 30.794,16.301 28.007 C 14.321 26.030,12.604 24.365,12.487 24.307 C 12.218 24.172,11.826 24.174,11.567 24.311 " stroke="none" fill-rule="evenodd" fill="black"></path></svg>