<svg width="40" height="40" viewBox="0 0 40 40" fill="none" xmlns="http://www.w3.org/2000/svg"><path d="M11.667 15.106 C 11.395 15.223,10.964 15.621,10.828 15.880 C 10.690 16.143,10.710 16.593,10.872 16.867 C 10.948 16.995,12.651 18.737,14.655 20.737 C 17.912 23.986,18.346 24.396,18.733 24.586 C 19.664 25.043,20.778 24.989,21.609 24.447 C 22.063 24.151,29.035 17.166,29.130 16.912 C 29.168 16.809,29.200 16.612,29.200 16.474 C 29.200 15.983,28.581 15.309,28.050 15.223 C 27.513 15.136,27.521 15.130,23.765 18.875 C 21.030 21.602,20.193 22.400,20.067 22.400 C 19.941 22.400,19.098 21.595,16.335 18.837 C 12.295 14.804,12.320 14.824,11.667 15.106 " stroke="none" fill-rule="evenodd" fill="black"></path></svg>