<svg width="40" height="40" viewBox="0 0 40 40" fill="none" xmlns="http://www.w3.org/2000/svg"><path d="M14.033 10.843 C 13.768 10.981,6.868 17.856,6.494 18.356 C 5.827 19.246,5.752 20.488,6.306 21.500 C 6.528 21.907,13.347 28.786,13.786 29.046 C 14.327 29.367,14.932 29.169,15.405 28.516 C 15.560 28.302,15.600 28.177,15.600 27.905 C 15.600 27.700,15.556 27.497,15.491 27.398 C 15.431 27.308,13.811 25.658,11.891 23.732 C 9.178 21.011,8.400 20.194,8.400 20.067 C 8.400 19.939,9.199 19.102,11.993 16.301 C 13.970 14.321,15.635 12.604,15.693 12.487 C 16.152 11.568,14.942 10.370,14.033 10.843 M25.233 10.905 C 24.565 11.252,24.204 12.026,24.469 12.544 C 24.513 12.630,26.135 14.291,28.074 16.235 C 30.808 18.976,31.600 19.807,31.600 19.934 C 31.600 20.061,30.794 20.905,28.007 23.699 C 26.030 25.679,24.365 27.396,24.307 27.513 C 24.093 27.940,24.230 28.491,24.644 28.876 C 25.077 29.277,25.543 29.368,25.986 29.138 C 26.323 28.964,33.468 21.785,33.688 21.400 C 34.180 20.540,34.183 19.394,33.694 18.500 C 33.485 18.117,26.768 11.327,26.272 10.996 C 25.934 10.771,25.555 10.738,25.233 10.905 " stroke="none" fill-rule="evenodd" fill="black"></path></svg>