<svg width="40" height="40" viewBox="0 0 40 40" fill="none" xmlns="http://www.w3.org/2000/svg"><path d="M23.133 10.872 C 23.005 10.948,21.262 12.651,19.259 14.655 C 15.976 17.943,15.598 18.342,15.410 18.733 C 15.151 19.272,15.054 19.907,15.140 20.517 C 15.265 21.412,15.226 21.366,19.194 25.349 C 21.193 27.356,22.925 29.044,23.041 29.099 C 23.158 29.155,23.371 29.200,23.515 29.200 C 24.017 29.200,24.690 28.587,24.777 28.050 C 24.864 27.513,24.870 27.521,21.125 23.765 C 18.404 21.036,17.600 20.192,17.600 20.067 C 17.600 19.942,18.419 19.084,21.191 16.302 C 25.146 12.334,25.113 12.374,24.939 11.791 C 24.850 11.494,24.412 10.978,24.123 10.828 C 23.856 10.690,23.407 10.710,23.133 10.872 " stroke="none" fill-rule="evenodd" fill="black"></path></svg>