<svg width="40" height="40" viewBox="0 0 40 40" fill="none" xmlns="http://www.w3.org/2000/svg"><path d="M19.435 15.141 C 18.597 15.263,18.601 15.260,14.651 19.194 C 12.644 21.193,10.956 22.925,10.901 23.041 C 10.845 23.158,10.800 23.371,10.800 23.514 C 10.800 24.023,11.406 24.689,11.950 24.777 C 12.487 24.864,12.479 24.870,16.235 21.125 C 18.964 18.404,19.808 17.600,19.933 17.600 C 20.058 17.600,20.916 18.419,23.698 21.191 C 27.666 25.146,27.626 25.113,28.209 24.939 C 28.506 24.850,29.022 24.412,29.172 24.123 C 29.310 23.856,29.290 23.407,29.128 23.133 C 29.051 23.005,27.364 21.277,25.378 19.293 C 21.671 15.591,21.428 15.377,20.767 15.212 C 20.332 15.105,19.859 15.079,19.435 15.141 " stroke="none" fill-rule="evenodd" fill="black"></path></svg>