<svg width="40" height="40" viewBox="0 0 40 40" fill="none" xmlns="http://www.w3.org/2000/svg"><path d="M27.533 4.833 C 26.972 4.945,26.419 5.193,25.909 5.561 C 25.684 5.723,21.089 10.276,15.698 15.678 C 6.615 24.780,5.878 25.535,5.647 25.976 C 4.938 27.332,4.953 29.103,5.684 30.396 C 5.900 30.776,6.242 31.177,7.129 32.085 C 8.686 33.677,9.281 34.111,10.257 34.364 C 11.572 34.705,12.899 34.491,14.000 33.762 C 14.305 33.559,17.349 30.556,24.277 23.620 L 34.120 13.767 34.422 13.133 C 34.786 12.368,34.886 11.911,34.882 11.033 C 34.877 10.016,34.610 9.184,34.038 8.407 C 33.914 8.238,33.217 7.514,32.489 6.797 C 31.286 5.612,31.116 5.469,30.600 5.212 C 30.288 5.057,29.823 4.886,29.567 4.833 C 29.001 4.715,28.121 4.715,27.533 4.833 M29.389 7.402 C 29.789 7.574,31.974 9.740,32.212 10.200 C 32.340 10.449,32.367 10.603,32.367 11.100 C 32.367 11.633,32.346 11.738,32.179 12.039 C 32.075 12.226,31.636 12.731,31.199 13.168 L 30.407 13.958 29.478 13.054 C 28.413 12.017,28.130 11.853,27.658 11.995 C 27.361 12.084,26.844 12.521,26.695 12.810 C 26.555 13.080,26.576 13.527,26.742 13.798 C 26.819 13.926,27.268 14.422,27.739 14.901 L 28.596 15.772 27.167 17.199 L 25.739 18.626 24.783 17.689 C 23.770 16.697,23.535 16.550,23.084 16.623 C 22.546 16.710,21.933 17.377,21.933 17.875 C 21.933 18.012,21.965 18.209,22.004 18.312 C 22.044 18.414,22.500 18.927,23.019 19.451 L 23.963 20.403 22.486 21.881 L 21.008 23.358 20.079 22.454 C 19.013 21.417,18.730 21.253,18.258 21.395 C 17.961 21.484,17.444 21.921,17.295 22.210 C 17.155 22.480,17.176 22.927,17.342 23.199 C 17.420 23.328,17.869 23.823,18.340 24.299 L 19.195 25.167 17.617 26.748 L 16.039 28.329 15.168 27.473 C 14.689 27.002,14.192 26.553,14.065 26.475 C 13.794 26.310,13.347 26.289,13.077 26.428 C 12.788 26.578,12.350 27.094,12.261 27.391 C 12.120 27.864,12.284 28.146,13.321 29.212 L 14.224 30.140 13.495 30.873 C 12.620 31.753,12.189 32.006,11.555 32.009 C 10.669 32.013,10.385 31.836,8.977 30.404 C 7.815 29.222,7.666 28.989,7.617 28.268 C 7.593 27.930,7.620 27.744,7.734 27.433 C 7.877 27.045,8.160 26.754,17.557 17.347 C 22.879 12.019,27.333 7.598,27.454 7.522 C 27.992 7.185,28.773 7.137,29.389 7.402 " stroke="none" fill-rule="evenodd" fill="black"></path></svg>