<svg width="40" height="40" viewBox="0 0 40 40" fill="none" xmlns="http://www.w3.org/2000/svg"><path d="M11.646 5.465 C 11.319 5.528,11.064 5.717,10.917 6.005 C 10.819 6.197,10.800 6.423,10.800 7.440 L 10.800 8.647 10.017 8.687 C 8.605 8.760,7.844 9.088,6.895 10.032 C 6.403 10.521,6.237 10.740,6.010 11.200 C 5.541 12.153,5.536 12.210,5.534 16.544 C 5.533 20.636,5.555 20.980,5.864 21.695 C 6.368 22.865,7.468 23.880,8.667 24.282 C 9.138 24.440,9.132 24.440,17.667 24.584 C 20.553 24.633,20.717 24.642,21.052 24.779 C 21.589 24.998,22.021 25.301,22.456 25.766 C 23.163 26.522,23.400 27.219,23.400 28.544 C 23.400 29.553,23.329 29.942,23.031 30.567 C 22.634 31.401,21.872 32.065,20.958 32.372 C 19.336 32.918,17.474 32.188,16.690 30.699 C 16.372 30.095,16.324 29.862,16.270 28.657 C 16.216 27.449,16.160 27.258,15.778 26.974 C 15.620 26.856,15.496 26.833,15.000 26.833 C 14.344 26.833,14.146 26.922,13.913 27.320 C 13.624 27.813,13.715 29.826,14.073 30.898 C 14.731 32.865,16.319 34.347,18.333 34.874 C 19.094 35.073,20.395 35.089,21.162 34.910 C 23.249 34.420,24.890 32.931,25.588 30.891 C 25.803 30.261,25.866 29.731,25.865 28.533 C 25.864 26.976,25.678 26.179,25.065 25.110 C 24.882 24.792,24.733 24.518,24.733 24.502 C 24.733 24.486,26.166 24.463,27.917 24.452 C 30.995 24.432,31.114 24.426,31.533 24.284 C 32.863 23.832,34.002 22.694,34.452 21.367 L 34.633 20.833 34.653 16.793 C 34.675 12.222,34.671 12.177,34.190 11.200 C 33.963 10.740,33.797 10.520,33.305 10.032 C 32.410 9.142,31.627 8.782,30.387 8.690 L 29.808 8.647 29.787 7.362 C 29.764 5.933,29.740 5.849,29.268 5.572 C 28.940 5.380,28.168 5.393,27.841 5.595 C 27.410 5.862,27.369 6.010,27.345 7.417 L 27.323 8.667 20.300 8.667 L 13.277 8.667 13.255 7.417 C 13.235 6.269,13.221 6.148,13.088 5.933 C 13.008 5.805,12.858 5.651,12.755 5.592 C 12.524 5.460,11.988 5.398,11.646 5.465 M30.372 11.201 C 30.616 11.240,30.924 11.328,31.058 11.397 C 31.402 11.575,31.834 12.044,32.013 12.433 C 32.166 12.766,32.167 12.775,32.187 16.333 C 32.202 18.811,32.185 20.022,32.132 20.300 C 31.995 21.017,31.493 21.609,30.797 21.874 C 30.477 21.996,30.108 22.000,20.100 22.000 C 10.092 22.000,9.723 21.996,9.403 21.874 C 8.717 21.613,8.215 21.040,8.072 20.353 C 8.013 20.071,7.997 18.996,8.013 16.367 C 8.033 12.773,8.034 12.766,8.187 12.433 C 8.367 12.042,8.798 11.575,9.148 11.394 C 9.284 11.324,9.554 11.241,9.748 11.210 C 10.287 11.123,29.832 11.115,30.372 11.201 " stroke="none" fill-rule="evenodd" fill="black"></path></svg>