<svg width="40" height="40" viewBox="0 0 40 40" fill="none" xmlns="http://www.w3.org/2000/svg"><path d="M19.167 2.673 C 18.583 2.757,17.762 3.184,17.288 3.651 C 16.599 4.332,16.267 5.152,16.267 6.175 L 16.267 6.793 12.617 6.817 C 8.563 6.844,8.695 6.831,7.733 7.313 C 6.992 7.684,6.119 8.570,5.743 9.333 C 5.307 10.220,5.269 10.512,5.268 13.019 C 5.266 15.833,5.336 16.218,6.039 17.276 C 6.572 18.077,7.479 18.772,8.400 19.084 C 8.816 19.225,8.960 19.232,12.033 19.265 L 15.233 19.300 15.267 27.233 C 15.298 34.713,15.307 35.188,15.423 35.533 C 15.655 36.226,15.948 36.683,16.532 37.268 C 17.151 37.888,17.753 38.244,18.497 38.433 C 19.037 38.569,20.631 38.569,21.169 38.432 C 22.535 38.085,23.756 36.951,24.218 35.600 L 24.367 35.167 24.400 27.233 L 24.433 19.300 27.633 19.265 C 30.707 19.232,30.850 19.225,31.267 19.084 C 32.597 18.633,33.739 17.490,34.183 16.167 C 34.362 15.635,34.362 15.628,34.385 13.267 C 34.412 10.544,34.379 10.258,33.923 9.333 C 33.548 8.570,32.675 7.684,31.933 7.313 C 30.972 6.831,31.104 6.844,27.050 6.817 L 23.400 6.793 23.400 6.210 C 23.400 4.757,22.708 3.620,21.445 3.001 C 20.702 2.636,20.067 2.545,19.167 2.673 M20.401 5.257 C 20.754 5.445,20.931 5.808,20.932 6.350 L 20.933 6.800 19.833 6.800 L 18.733 6.800 18.734 6.350 C 18.736 5.565,19.126 5.133,19.833 5.133 C 20.032 5.133,20.263 5.184,20.401 5.257 M30.125 9.337 C 30.358 9.374,30.658 9.462,30.791 9.531 C 31.136 9.709,31.568 10.177,31.747 10.567 C 31.893 10.885,31.901 10.983,31.922 12.800 C 31.936 14.052,31.917 14.836,31.866 15.100 C 31.728 15.818,31.226 16.410,30.531 16.674 C 30.210 16.796,29.842 16.800,19.833 16.800 C 9.825 16.800,9.457 16.796,9.136 16.674 C 8.458 16.416,7.951 15.831,7.801 15.133 C 7.747 14.883,7.729 14.152,7.744 12.833 C 7.766 10.982,7.773 10.886,7.920 10.567 C 8.100 10.175,8.532 9.708,8.881 9.528 C 9.017 9.457,9.287 9.373,9.481 9.341 C 9.998 9.255,29.596 9.251,30.125 9.337 M21.900 27.033 C 21.900 34.445,21.895 34.776,21.776 35.000 C 21.602 35.328,21.214 35.720,20.900 35.885 C 20.699 35.991,20.475 36.032,19.990 36.054 C 19.129 36.091,18.763 35.972,18.291 35.500 C 17.694 34.903,17.733 35.507,17.733 26.899 C 17.733 22.750,17.754 19.335,17.779 19.310 C 17.804 19.285,18.741 19.273,19.862 19.282 L 21.900 19.300 21.900 27.033 " stroke="none" fill-rule="evenodd" fill="black"></path></svg>