<svg width="40" height="40" viewBox="0 0 40 40" fill="none" xmlns="http://www.w3.org/2000/svg"><path d="M8.061 11.770 C 4.793 12.365,2.264 14.838,1.555 18.133 C 1.386 18.918,1.387 20.546,1.556 21.333 C 2.274 24.678,4.868 27.156,8.222 27.700 C 9.107 27.844,23.580 27.848,24.118 27.705 C 24.848 27.511,25.644 26.859,25.940 26.214 L 26.099 25.867 31.074 25.867 C 34.155 25.867,36.185 25.841,36.408 25.799 C 37.263 25.638,38.095 24.981,38.476 24.167 C 38.850 23.369,38.836 23.159,38.144 19.094 C 37.644 16.155,37.510 15.488,37.357 15.161 C 37.103 14.620,36.525 14.052,35.953 13.781 L 35.500 13.567 31.433 13.548 L 27.366 13.529 27.166 13.159 C 26.900 12.665,26.369 12.175,25.817 11.913 L 25.367 11.700 16.967 11.689 C 10.076 11.680,8.476 11.694,8.061 11.770 M24.878 14.244 C 24.959 14.317,25.000 14.446,24.999 14.627 C 24.998 14.777,24.716 17.194,24.372 19.998 C 23.780 24.816,23.738 25.102,23.597 25.216 C 23.454 25.332,23.114 25.336,16.040 25.318 L 8.633 25.298 8.100 25.150 C 6.111 24.595,4.582 23.064,4.056 21.100 C 3.837 20.279,3.851 19.034,4.090 18.247 C 4.517 16.840,5.294 15.783,6.442 15.048 C 6.980 14.704,7.750 14.377,8.267 14.274 C 8.468 14.234,8.693 14.189,8.767 14.175 C 8.840 14.161,12.468 14.145,16.828 14.141 C 24.118 14.134,24.766 14.142,24.878 14.244 M34.994 16.117 C 35.119 16.219,35.204 16.633,35.704 19.600 C 36.311 23.199,36.311 23.202,35.963 23.335 C 35.857 23.375,34.009 23.400,31.120 23.400 L 26.449 23.400 26.484 23.183 C 26.502 23.064,26.708 21.399,26.941 19.483 L 27.364 16.000 31.108 16.000 C 34.575 16.000,34.862 16.009,34.994 16.117 M9.267 16.138 C 8.628 16.223,7.931 16.591,7.392 17.129 C 5.977 18.540,5.986 20.735,7.412 22.140 C 8.782 23.489,10.999 23.469,12.358 22.096 C 13.695 20.746,13.736 18.618,12.452 17.232 C 11.632 16.347,10.532 15.969,9.267 16.138 M10.403 18.750 C 11.084 19.209,11.033 20.178,10.310 20.529 C 10.153 20.605,9.954 20.667,9.867 20.667 C 9.780 20.667,9.580 20.605,9.424 20.529 C 8.458 20.061,8.793 18.600,9.867 18.600 C 10.082 18.600,10.250 18.647,10.403 18.750 " stroke="none" fill-rule="evenodd" fill="black"></path></svg>