<svg width="40" height="40" viewBox="0 0 40 40" fill="none" xmlns="http://www.w3.org/2000/svg"><path d="M12.979 2.130 C 12.663 2.193,12.407 2.379,12.233 2.674 C 12.101 2.898,12.100 3.020,12.100 20.000 C 12.100 36.980,12.101 37.102,12.233 37.326 C 12.501 37.781,13.030 37.986,13.641 37.872 C 14.007 37.803,14.251 37.635,14.433 37.326 C 14.559 37.114,14.568 36.959,14.588 34.750 L 14.609 32.400 19.833 32.400 L 25.058 32.400 25.079 34.750 C 25.099 36.959,25.108 37.114,25.233 37.326 C 25.415 37.635,25.660 37.803,26.025 37.872 C 26.637 37.986,27.165 37.781,27.433 37.326 C 27.566 37.102,27.567 36.962,27.587 20.367 C 27.598 11.163,27.588 3.447,27.565 3.219 C 27.489 2.463,27.103 2.114,26.343 2.114 C 25.627 2.114,25.249 2.389,25.134 2.996 C 25.095 3.201,25.067 4.572,25.067 6.242 L 25.067 9.133 19.833 9.133 L 14.600 9.133 14.597 6.217 C 14.595 4.612,14.569 3.169,14.538 3.009 C 14.407 2.330,13.775 1.974,12.979 2.130 M25.067 13.833 L 25.067 16.067 19.833 16.067 L 14.600 16.067 14.600 13.833 L 14.600 11.600 19.833 11.600 L 25.067 11.600 25.067 13.833 M25.067 20.767 L 25.067 23.000 19.833 23.000 L 14.600 23.000 14.600 20.767 L 14.600 18.533 19.833 18.533 L 25.067 18.533 25.067 20.767 M25.067 27.700 L 25.067 29.933 19.833 29.933 L 14.600 29.933 14.600 27.700 L 14.600 25.467 19.833 25.467 L 25.067 25.467 25.067 27.700 " stroke="none" fill-rule="evenodd" fill="black"></path></svg>