<svg width="40" height="40" viewBox="0 0 40 40" fill="none" xmlns="http://www.w3.org/2000/svg"><path d="M10.933 4.801 C 7.535 4.835,7.347 4.843,6.955 4.976 C 5.499 5.472,4.305 6.726,3.889 8.200 C 3.775 8.605,3.767 9.006,3.767 14.400 C 3.767 19.794,3.775 20.195,3.889 20.600 C 4.303 22.064,5.542 23.372,6.922 23.802 C 7.131 23.867,7.592 23.956,7.948 24.001 L 8.594 24.082 8.615 28.191 C 8.635 32.137,8.641 32.315,8.772 32.673 C 9.181 33.792,10.048 34.658,11.160 35.057 C 11.580 35.208,11.735 35.227,12.533 35.226 C 13.298 35.225,13.499 35.202,13.867 35.073 C 14.784 34.751,15.655 33.992,16.067 33.156 C 16.440 32.399,16.462 32.103,16.464 27.859 L 16.467 24.018 19.600 24.006 L 22.733 23.994 22.734 27.814 C 22.734 31.725,22.758 32.172,23.003 32.826 C 23.397 33.879,24.442 34.804,25.570 35.098 C 26.072 35.229,27.171 35.229,27.727 35.097 C 27.962 35.042,28.337 34.900,28.560 34.782 C 29.090 34.501,29.846 33.747,30.118 33.227 C 30.526 32.447,30.531 32.374,30.532 27.983 L 30.533 24.000 31.383 23.999 C 31.865 23.998,32.436 23.956,32.700 23.901 C 34.240 23.580,35.656 22.210,36.111 20.600 C 36.225 20.195,36.233 19.794,36.233 14.400 C 36.233 7.905,36.262 8.296,35.713 7.233 C 35.318 6.468,34.505 5.665,33.733 5.280 C 32.729 4.778,33.252 4.803,23.356 4.784 C 18.485 4.774,12.895 4.782,10.933 4.801 M12.836 7.683 C 11.924 10.088,7.577 21.247,7.536 21.290 C 7.398 21.431,6.732 20.852,6.478 20.371 L 6.300 20.033 6.300 14.400 L 6.300 8.767 6.478 8.429 C 6.763 7.890,7.289 7.471,7.848 7.339 C 7.987 7.307,9.201 7.277,10.547 7.273 L 12.994 7.267 12.836 7.683 M22.583 7.383 C 22.556 7.480,16.835 20.825,16.590 21.362 L 16.512 21.533 13.356 21.533 C 11.382 21.533,10.200 21.509,10.200 21.469 C 10.200 21.425,15.047 8.862,15.648 7.350 C 15.674 7.285,16.436 7.267,19.148 7.267 C 22.418 7.267,22.614 7.273,22.583 7.383 M30.838 7.383 C 30.817 7.448,29.557 10.650,28.037 14.500 L 25.274 21.500 22.263 21.517 C 19.412 21.534,19.254 21.528,19.297 21.417 C 19.321 21.353,20.695 18.143,22.350 14.283 L 25.358 7.267 28.117 7.267 C 30.714 7.267,30.873 7.273,30.838 7.383 M33.516 8.417 L 33.700 8.767 33.700 14.400 L 33.700 20.033 33.522 20.371 C 33.309 20.774,32.897 21.162,32.475 21.358 C 32.184 21.492,32.047 21.501,30.043 21.521 C 28.876 21.532,27.935 21.517,27.953 21.488 C 27.978 21.448,31.152 13.425,33.204 8.217 C 33.237 8.134,33.279 8.067,33.297 8.067 C 33.316 8.067,33.414 8.224,33.516 8.417 M13.933 27.918 C 13.933 32.311,13.959 32.076,13.439 32.496 C 13.230 32.666,13.123 32.700,12.730 32.722 C 12.102 32.758,11.839 32.697,11.562 32.453 C 11.077 32.028,11.102 32.261,11.081 28.005 C 11.070 25.899,11.077 24.137,11.095 24.088 C 11.122 24.019,11.430 24.000,12.531 24.000 L 13.933 24.000 13.933 27.918 M28.065 27.851 C 28.064 31.451,28.056 31.717,27.941 31.967 C 27.647 32.603,26.917 32.885,26.131 32.667 C 25.864 32.593,25.443 32.193,25.337 31.912 C 25.291 31.788,25.267 30.423,25.267 27.873 L 25.267 24.022 26.667 24.012 L 28.067 24.001 28.065 27.851 " stroke="none" fill-rule="evenodd" fill="black"></path></svg>