<svg width="40" height="40" viewBox="0 0 40 40" fill="none" xmlns="http://www.w3.org/2000/svg"><path d="M18.029 2.999 C 14.137 3.327,11.048 4.443,9.491 6.083 C 7.732 7.936,8.150 10.241,10.534 11.833 C 11.109 12.217,12.009 12.658,12.850 12.968 C 13.226 13.107,13.534 13.238,13.534 13.260 C 13.535 13.282,14.776 18.197,16.291 24.182 C 18.373 32.401,19.086 35.119,19.204 35.293 C 19.479 35.693,19.922 35.819,20.500 35.659 C 20.850 35.562,21.109 35.372,21.248 35.111 C 21.309 34.995,22.503 30.047,23.900 24.115 L 26.440 13.330 27.177 13.075 C 30.512 11.920,32.202 10.119,31.884 8.061 C 31.512 5.658,28.317 3.772,23.533 3.132 C 22.366 2.976,19.212 2.900,18.029 2.999 M21.833 5.468 C 25.074 5.703,27.854 6.588,28.980 7.745 C 29.565 8.346,29.556 8.731,28.941 9.328 C 27.843 10.397,25.255 11.258,22.333 11.529 C 21.347 11.620,18.986 11.620,18.000 11.529 C 15.078 11.258,12.491 10.397,11.392 9.328 C 10.789 8.742,10.770 8.348,11.320 7.777 C 12.888 6.147,17.429 5.149,21.833 5.468 M17.440 13.971 C 18.753 14.106,21.594 14.110,22.833 13.979 C 23.310 13.928,23.708 13.894,23.719 13.901 C 23.751 13.925,20.175 29.067,20.137 29.066 C 20.105 29.066,16.338 14.279,16.278 13.918 C 16.265 13.845,16.284 13.803,16.318 13.824 C 16.352 13.845,16.857 13.911,17.440 13.971 " stroke="none" fill-rule="evenodd" fill="black"></path></svg>