<svg width="40" height="40" viewBox="0 0 40 40" fill="none" xmlns="http://www.w3.org/2000/svg"><path d="M4.024 5.939 C 3.556 6.119,3.134 6.509,2.869 7.006 C 2.483 7.729,2.478 7.673,3.465 13.200 C 4.439 18.655,4.431 18.621,5.075 19.303 C 5.309 19.550,5.588 19.753,5.925 19.919 L 6.426 20.167 14.367 20.167 L 22.307 20.167 22.803 19.917 C 23.545 19.545,24.002 19.073,24.263 18.411 C 24.340 18.215,24.824 16.025,25.340 13.544 C 26.209 9.357,26.274 8.994,26.246 8.483 C 26.180 7.309,25.418 6.318,24.280 5.926 C 23.925 5.804,23.566 5.800,14.140 5.803 C 4.567 5.807,4.360 5.810,4.024 5.939 M31.644 5.930 C 30.849 6.187,30.122 6.822,29.770 7.567 C 29.605 7.916,29.151 9.614,27.972 14.299 C 27.105 17.746,26.326 20.717,26.241 20.902 C 25.971 21.491,25.477 21.950,24.800 22.239 C 24.510 22.363,24.175 22.368,14.500 22.400 C 3.590 22.436,4.278 22.410,3.982 22.809 C 3.703 23.186,3.693 24.021,3.962 24.420 C 4.258 24.861,3.616 24.832,13.264 24.851 C 18.084 24.860,22.050 24.890,22.076 24.917 C 22.102 24.944,22.803 27.172,23.634 29.867 C 24.465 32.562,25.210 34.884,25.289 35.027 C 25.516 35.438,25.740 35.567,26.222 35.565 C 26.547 35.563,26.707 35.522,26.982 35.371 C 27.174 35.266,27.383 35.102,27.446 35.007 C 27.709 34.610,27.657 34.394,26.150 29.527 C 25.371 27.012,24.733 24.924,24.733 24.886 C 24.733 24.849,24.918 24.779,25.143 24.731 C 26.456 24.453,27.813 23.371,28.439 22.103 C 28.710 21.556,28.878 20.938,30.271 15.400 C 31.115 12.045,31.849 9.149,31.901 8.964 C 31.953 8.779,32.074 8.554,32.170 8.464 L 32.344 8.300 34.655 8.267 C 36.815 8.236,36.981 8.225,37.188 8.100 C 37.550 7.882,37.682 7.600,37.685 7.038 C 37.689 6.494,37.575 6.220,37.245 5.974 C 37.063 5.837,36.983 5.833,34.545 5.819 C 32.243 5.806,32.001 5.815,31.644 5.930 M23.566 8.309 C 23.845 8.416,23.828 8.535,22.900 13.015 C 22.405 15.402,22.000 17.375,22.000 17.399 C 22.000 17.422,21.939 17.507,21.864 17.587 L 21.728 17.733 14.426 17.733 C 9.577 17.733,7.082 17.710,6.997 17.665 C 6.927 17.628,6.841 17.543,6.806 17.478 C 6.758 17.389,5.133 8.471,5.133 8.299 C 5.133 8.250,23.439 8.260,23.566 8.309 M8.160 25.134 C 6.310 25.333,4.629 26.595,3.848 28.371 C 3.562 29.021,3.452 29.614,3.452 30.500 C 3.452 31.384,3.562 31.976,3.847 32.629 C 4.345 33.769,5.290 34.763,6.410 35.325 C 7.249 35.746,7.838 35.881,8.833 35.881 C 9.828 35.881,10.417 35.746,11.267 35.322 C 11.884 35.015,12.046 34.894,12.637 34.303 C 13.227 33.713,13.348 33.551,13.656 32.933 C 14.078 32.087,14.212 31.499,14.212 30.500 C 14.212 29.501,14.078 28.913,13.656 28.067 C 13.347 27.448,13.229 27.290,12.637 26.700 C 12.091 26.156,11.854 25.974,11.357 25.715 C 10.386 25.210,9.294 25.012,8.160 25.134 M9.621 27.699 C 10.892 28.084,11.732 29.199,11.732 30.500 C 11.732 31.280,11.473 31.923,10.927 32.501 C 9.788 33.705,7.879 33.705,6.740 32.501 C 6.194 31.923,5.935 31.280,5.935 30.500 C 5.935 29.227,6.723 28.148,7.962 27.725 C 8.383 27.581,9.191 27.568,9.621 27.699 " stroke="none" fill-rule="evenodd" fill="black"></path></svg>