<svg width="40" height="40" viewBox="0 0 40 40" fill="none" xmlns="http://www.w3.org/2000/svg"><path d="M15.362 6.067 C 9.299 6.985,4.545 11.404,3.206 17.367 C 2.914 18.667,2.914 18.668,2.886 25.596 C 2.870 29.764,2.884 32.381,2.926 32.647 C 3.071 33.579,3.648 34.352,4.519 34.783 L 5.026 35.033 21.297 35.050 C 36.686 35.066,37.579 35.061,37.795 34.950 C 38.179 34.754,38.296 34.528,38.323 33.933 C 38.343 33.489,38.325 33.369,38.201 33.149 C 37.905 32.623,37.988 32.636,34.817 32.614 L 32.000 32.595 32.000 26.577 C 32.000 22.929,31.972 20.207,31.929 19.663 C 31.374 12.654,26.132 7.045,19.191 6.036 C 18.216 5.895,16.405 5.909,15.362 6.067 M18.781 8.499 C 22.816 9.073,26.320 11.574,28.125 15.170 C 28.550 16.016,28.925 17.024,29.139 17.900 C 29.454 19.189,29.467 19.500,29.467 26.246 L 29.467 32.600 17.544 32.600 L 5.621 32.600 5.494 32.460 C 5.371 32.324,5.366 32.114,5.346 26.510 C 5.325 20.421,5.359 19.319,5.605 18.103 C 6.232 15.001,8.087 12.233,10.728 10.457 C 13.083 8.873,16.156 8.126,18.781 8.499 M16.794 13.139 C 14.333 13.382,12.252 15.151,11.488 17.648 C 11.325 18.182,11.309 18.329,11.309 19.333 C 11.309 20.337,11.325 20.485,11.488 21.019 C 12.262 23.547,14.335 25.290,16.849 25.525 C 18.794 25.706,20.573 25.081,21.883 23.755 C 22.676 22.954,23.178 22.110,23.512 21.019 C 23.675 20.485,23.691 20.337,23.691 19.333 C 23.691 18.329,23.675 18.182,23.512 17.648 C 23.178 16.557,22.676 15.713,21.883 14.911 C 20.561 13.574,18.755 12.945,16.794 13.139 M18.761 15.792 C 19.731 16.140,20.645 17.034,21.000 17.982 C 21.225 18.582,21.303 19.255,21.214 19.825 C 21.071 20.743,20.781 21.319,20.126 21.980 C 19.411 22.702,18.747 22.995,17.700 23.049 C 16.384 23.116,15.404 22.675,14.547 21.627 C 14.068 21.042,13.736 20.103,13.736 19.333 C 13.736 17.689,14.924 16.147,16.533 15.702 C 17.061 15.556,18.236 15.604,18.761 15.792 M35.112 23.541 C 34.938 23.632,34.816 23.764,34.730 23.954 C 34.612 24.213,34.603 24.422,34.601 26.762 C 34.600 29.181,34.606 29.304,34.737 29.575 C 35.106 30.337,36.560 30.337,36.929 29.575 C 37.061 29.304,37.067 29.181,37.065 26.762 C 37.064 24.421,37.054 24.213,36.937 23.954 C 36.761 23.567,36.421 23.399,35.819 23.403 C 35.498 23.405,35.292 23.445,35.112 23.541 " stroke="none" fill-rule="evenodd" fill="black"></path></svg>