<svg width="40" height="40" viewBox="0 0 40 40" fill="none" xmlns="http://www.w3.org/2000/svg"><path d="M13.433 5.466 C 12.841 5.538,12.493 5.648,11.900 5.955 C 10.926 6.458,9.930 7.625,9.664 8.576 C 9.595 8.824,9.557 8.867,9.408 8.867 C 9.112 8.868,7.968 9.298,7.465 9.596 C 6.136 10.386,5.132 11.677,4.711 13.138 L 4.548 13.700 3.158 13.733 C 1.923 13.763,1.741 13.782,1.540 13.900 C 1.085 14.168,0.881 14.696,0.995 15.308 C 1.063 15.674,1.231 15.918,1.540 16.100 C 1.744 16.220,1.911 16.236,3.233 16.256 L 4.700 16.279 4.882 16.759 C 5.147 17.460,5.770 18.363,6.386 18.939 C 7.197 19.699,8.141 20.203,9.198 20.442 C 9.458 20.501,9.667 20.583,9.667 20.627 C 9.667 20.671,9.784 20.945,9.927 21.237 C 10.387 22.172,11.082 22.865,12.033 23.338 C 12.967 23.801,12.916 23.798,18.417 23.799 L 23.333 23.800 23.334 27.183 C 23.336 31.015,23.348 31.135,23.813 32.067 C 24.198 32.838,25.001 33.652,25.767 34.047 C 26.787 34.573,26.728 34.567,30.600 34.567 C 33.669 34.567,34.079 34.554,34.467 34.449 C 35.748 34.102,36.864 33.194,37.435 32.033 C 37.929 31.029,37.894 31.736,37.919 22.200 C 37.942 13.299,37.921 12.390,37.669 11.413 C 36.936 8.574,34.756 6.391,31.927 5.666 C 31.648 5.594,31.078 5.505,30.660 5.468 C 29.791 5.392,14.071 5.390,13.433 5.466 M31.667 8.187 C 32.559 8.497,33.138 8.860,33.806 9.527 C 34.474 10.195,34.836 10.774,35.147 11.667 L 35.367 12.300 35.385 21.344 C 35.403 30.320,35.402 30.390,35.266 30.753 C 35.083 31.244,34.576 31.750,34.083 31.934 C 33.727 32.067,33.611 32.071,30.508 32.052 L 27.300 32.033 26.962 31.855 C 26.559 31.642,26.171 31.231,25.976 30.808 C 25.836 30.506,25.833 30.414,25.800 26.267 C 25.769 22.270,25.760 22.022,25.641 21.826 C 25.572 21.712,25.422 21.562,25.308 21.492 C 25.110 21.372,24.833 21.365,19.333 21.333 L 13.567 21.300 13.194 21.125 C 12.721 20.903,12.363 20.546,12.141 20.072 L 11.967 19.700 11.967 14.600 C 11.967 9.531,11.968 9.498,12.109 9.192 C 12.369 8.629,12.884 8.176,13.467 7.995 C 13.558 7.967,17.548 7.949,22.333 7.955 L 31.033 7.967 31.667 8.187 M9.439 17.916 C 9.366 17.990,8.500 17.493,8.158 17.182 C 6.698 15.849,6.578 13.911,7.867 12.444 C 8.139 12.133,8.809 11.656,9.167 11.518 L 9.433 11.415 9.451 14.651 C 9.460 16.431,9.455 17.901,9.439 17.916 M26.312 13.796 C 25.741 13.911,25.447 14.320,25.447 15.000 C 25.447 15.769,25.791 16.153,26.552 16.233 C 26.780 16.257,28.122 16.267,29.533 16.255 C 31.958 16.235,32.112 16.226,32.326 16.100 C 32.635 15.918,32.803 15.674,32.872 15.308 C 32.986 14.696,32.781 14.168,32.326 13.900 C 32.111 13.773,31.969 13.766,29.333 13.756 C 27.812 13.750,26.452 13.768,26.312 13.796 " stroke="none" fill-rule="evenodd" fill="black"></path></svg>