<svg width="40" height="40" viewBox="0 0 40 40" fill="none" xmlns="http://www.w3.org/2000/svg"><path d="M19.292 3.308 C 18.939 3.433,18.509 3.803,18.306 4.156 C 18.219 4.308,17.632 6.038,17.003 8.000 C 16.374 9.962,15.592 12.392,15.265 13.400 C 14.939 14.408,13.395 19.208,11.833 24.067 C 10.272 28.925,8.934 33.085,8.860 33.312 L 8.726 33.723 6.646 33.745 C 4.709 33.765,4.551 33.776,4.340 33.900 C 4.031 34.082,3.863 34.326,3.795 34.692 C 3.681 35.304,3.885 35.832,4.340 36.100 C 4.565 36.232,4.687 36.233,20.000 36.233 C 35.313 36.233,35.435 36.232,35.660 36.100 C 35.969 35.918,36.137 35.674,36.205 35.308 C 36.319 34.696,36.115 34.168,35.660 33.900 C 35.449 33.776,35.291 33.765,33.354 33.745 L 31.274 33.723 31.107 33.212 C 31.015 32.930,29.677 28.770,28.134 23.967 C 26.591 19.163,25.046 14.363,24.702 13.300 C 24.357 12.237,23.575 9.807,22.964 7.900 C 22.353 5.993,21.781 4.308,21.693 4.156 C 21.484 3.791,21.058 3.432,20.680 3.304 C 20.306 3.176,19.659 3.178,19.292 3.308 M21.108 10.284 L 22.182 13.633 21.091 13.652 C 20.491 13.662,19.509 13.662,18.909 13.652 L 17.818 13.633 18.892 10.284 C 19.483 8.442,19.982 6.935,20.000 6.935 C 20.018 6.935,20.517 8.442,21.108 10.284 M23.359 17.283 C 23.561 17.916,24.103 19.603,24.563 21.033 C 25.024 22.462,25.400 23.655,25.400 23.683 C 25.400 23.711,22.970 23.733,20.000 23.733 C 17.030 23.733,14.600 23.710,14.600 23.681 C 14.600 23.641,16.187 18.669,16.908 16.450 L 17.011 16.133 20.001 16.133 L 22.990 16.133 23.359 17.283 M26.609 27.383 C 26.806 27.996,27.344 29.669,27.804 31.099 L 28.642 33.700 24.321 33.717 C 21.944 33.727,18.056 33.727,15.679 33.717 L 11.358 33.700 12.196 31.099 C 12.656 29.669,13.194 27.996,13.391 27.383 L 13.749 26.267 20.000 26.267 L 26.251 26.267 26.609 27.383 " stroke="none" fill-rule="evenodd" fill="black"></path></svg>