<svg width="40" height="40" viewBox="0 0 40 40" fill="none" xmlns="http://www.w3.org/2000/svg"><path d="M18.900 1.904 C 18.643 1.960,18.148 2.146,17.800 2.316 C 17.258 2.581,17.074 2.718,16.530 3.263 C 15.985 3.808,15.848 3.992,15.583 4.533 C 15.159 5.400,15.045 6.005,15.077 7.223 C 15.101 8.147,15.107 8.177,15.342 8.667 C 15.688 9.386,16.346 9.992,17.023 10.216 C 17.139 10.254,17.533 10.303,17.900 10.326 L 18.567 10.367 18.584 16.383 L 18.601 22.400 16.614 22.400 C 14.451 22.400,14.131 22.440,13.553 22.778 C 12.752 23.248,12.236 24.054,12.119 25.019 C 12.033 25.729,12.096 31.090,12.197 31.633 C 12.906 35.455,16.167 38.199,20.000 38.199 C 23.859 38.199,27.095 35.455,27.808 31.578 C 27.908 31.032,27.966 25.670,27.879 24.984 C 27.724 23.770,26.893 22.796,25.759 22.501 C 25.452 22.421,24.925 22.400,23.219 22.400 L 21.066 22.400 21.083 16.383 L 21.100 10.367 21.933 10.327 C 22.392 10.305,22.867 10.254,22.989 10.213 C 23.806 9.941,24.576 9.139,24.832 8.294 C 24.971 7.838,24.968 6.283,24.827 5.646 C 24.458 3.975,23.152 2.559,21.478 2.017 C 20.819 1.803,19.606 1.750,18.900 1.904 M20.555 4.366 C 21.348 4.573,21.881 5.009,22.225 5.733 C 22.406 6.115,22.433 6.251,22.456 6.876 C 22.494 7.946,22.690 7.867,20.005 7.867 L 17.810 7.867 17.664 7.683 C 17.532 7.516,17.522 7.444,17.551 6.867 C 17.593 6.052,17.766 5.588,18.209 5.103 C 18.564 4.714,19.050 4.435,19.536 4.339 C 19.979 4.253,20.134 4.257,20.555 4.366 M25.270 25.004 C 25.405 25.139,25.407 25.186,25.383 28.220 C 25.355 31.654,25.360 31.609,24.868 32.633 C 24.178 34.068,22.903 35.124,21.352 35.545 C 20.623 35.743,19.377 35.743,18.648 35.545 C 17.090 35.122,15.763 34.017,15.108 32.596 C 14.640 31.581,14.645 31.627,14.617 28.220 C 14.593 25.186,14.595 25.139,14.730 25.004 C 14.866 24.868,14.910 24.867,20.000 24.867 C 25.090 24.867,25.134 24.868,25.270 25.004 " stroke="none" fill-rule="evenodd" fill="black"></path></svg>