<svg width="40" height="40" viewBox="0 0 40 40" fill="none" xmlns="http://www.w3.org/2000/svg"><path d="M25.500 5.642 C 25.097 5.704,24.557 5.883,24.167 6.084 C 23.823 6.261,22.538 7.516,15.077 14.961 C 9.571 20.456,6.350 23.717,6.288 23.861 C 6.174 24.123,5.639 31.944,5.688 32.635 C 5.735 33.309,6.111 33.847,6.733 34.128 C 7.144 34.314,7.407 34.308,12.000 34.009 C 15.541 33.779,15.925 33.742,16.167 33.616 C 16.332 33.529,19.698 30.207,25.008 24.888 C 32.459 17.427,33.614 16.243,33.818 15.867 C 34.219 15.124,34.300 14.794,34.300 13.900 C 34.300 12.933,34.159 12.447,33.664 11.712 C 33.268 11.121,28.674 6.535,28.151 6.206 C 27.609 5.866,26.965 5.670,26.289 5.639 C 25.965 5.624,25.610 5.625,25.500 5.642 M26.825 8.329 C 27.149 8.532,31.571 13.004,31.706 13.267 C 31.877 13.598,31.867 14.157,31.683 14.533 C 31.575 14.755,29.372 16.995,23.285 23.079 L 15.033 31.325 11.649 31.540 C 9.788 31.658,8.249 31.738,8.230 31.719 C 8.210 31.699,8.289 30.172,8.405 28.325 L 8.616 24.967 16.891 16.679 C 21.443 12.121,25.248 8.348,25.348 8.295 C 25.795 8.057,26.412 8.072,26.825 8.329 " stroke="none" fill-rule="evenodd" fill="black"></path></svg>