<svg width="40" height="40" viewBox="0 0 40 40" fill="none" xmlns="http://www.w3.org/2000/svg"><path d="M19.400 2.109 C 19.308 2.122,18.963 2.166,18.633 2.207 C 16.920 2.418,14.956 3.021,13.333 3.834 C 12.389 4.307,12.132 4.575,12.134 5.088 C 12.135 5.574,12.679 6.334,13.102 6.440 C 13.375 6.508,13.661 6.420,14.654 5.963 C 16.099 5.298,17.347 4.919,18.823 4.696 C 23.284 4.024,27.989 5.587,31.192 8.805 C 32.900 10.521,34.016 12.337,34.762 14.611 C 35.270 16.161,35.476 17.477,35.474 19.173 C 35.472 21.334,35.037 23.280,34.096 25.335 C 33.551 26.527,33.612 27.002,34.363 27.410 C 34.824 27.660,35.144 27.698,35.493 27.543 C 35.840 27.390,35.972 27.212,36.370 26.360 C 37.138 24.718,37.630 22.983,37.873 21.067 C 37.980 20.226,37.980 18.074,37.874 17.200 C 37.261 12.148,34.577 7.742,30.403 4.935 C 28.159 3.426,25.640 2.505,22.833 2.165 C 22.119 2.078,19.866 2.042,19.400 2.109 M8.318 7.798 C 7.915 7.871,7.375 8.048,7.033 8.217 C 6.416 8.524,5.852 9.035,3.744 11.198 C 1.838 13.154,1.493 13.538,1.327 13.892 C 0.981 14.633,0.924 15.445,1.170 16.144 C 1.332 16.601,2.558 18.408,4.127 20.500 C 8.318 26.090,13.113 30.957,18.724 35.318 C 20.252 36.505,23.097 38.514,23.634 38.785 C 24.513 39.228,25.675 39.168,26.495 38.637 C 26.892 38.379,31.149 34.106,31.446 33.667 C 32.045 32.781,32.288 32.017,32.294 31.000 C 32.299 30.144,32.209 29.751,31.819 28.936 C 31.534 28.341,31.453 28.240,30.375 27.143 C 28.843 25.584,28.167 25.000,27.506 24.668 C 26.775 24.300,26.160 24.179,25.233 24.219 C 23.970 24.274,23.161 24.646,22.127 25.647 C 21.775 25.988,21.455 26.267,21.416 26.267 C 21.376 26.267,20.959 25.991,20.489 25.655 C 18.117 23.958,16.117 21.957,14.412 19.577 L 13.798 18.720 14.310 18.177 C 14.938 17.511,15.149 17.227,15.435 16.661 C 15.766 16.006,15.889 15.474,15.894 14.667 C 15.899 13.814,15.809 13.418,15.426 12.617 C 15.147 12.034,15.055 11.923,13.705 10.514 C 11.895 8.625,11.417 8.256,10.376 7.939 C 9.858 7.781,8.803 7.709,8.318 7.798 M21.312 8.264 C 20.996 8.326,20.740 8.512,20.567 8.807 C 20.437 9.027,20.433 9.173,20.412 13.767 C 20.401 16.370,20.411 18.686,20.434 18.914 C 20.484 19.394,20.657 19.695,21.000 19.896 C 21.228 20.030,21.320 20.033,25.000 20.033 C 28.647 20.033,28.774 20.029,28.993 19.900 C 29.302 19.718,29.470 19.474,29.538 19.108 C 29.653 18.496,29.448 17.968,28.993 17.700 C 28.778 17.573,28.627 17.566,25.850 17.546 L 22.933 17.526 22.930 13.479 C 22.929 11.254,22.902 9.303,22.871 9.143 C 22.740 8.464,22.108 8.108,21.312 8.264 M9.847 10.409 C 10.197 10.537,10.363 10.682,11.622 11.959 C 13.224 13.582,13.400 13.844,13.400 14.605 C 13.400 15.393,13.293 15.580,12.192 16.708 C 11.074 17.854,10.934 18.048,10.934 18.453 C 10.933 18.788,11.043 19.018,11.644 19.946 C 13.842 23.336,16.696 26.200,20.043 28.374 C 21.062 29.036,21.300 29.149,21.675 29.149 C 22.090 29.149,22.223 29.053,23.369 27.925 C 24.474 26.839,24.707 26.703,25.467 26.702 C 26.299 26.700,26.505 26.833,28.093 28.400 C 29.255 29.546,29.477 29.798,29.632 30.143 C 29.790 30.494,29.810 30.614,29.789 31.057 C 29.748 31.909,29.704 31.967,27.276 34.417 C 25.614 36.092,25.073 36.600,24.949 36.600 C 24.853 36.600,24.401 36.336,23.843 35.954 C 16.519 30.934,10.273 24.820,5.090 17.600 C 4.032 16.127,3.533 15.346,3.533 15.165 C 3.533 15.028,3.968 14.547,5.614 12.859 C 6.759 11.686,7.798 10.663,7.923 10.586 C 8.493 10.233,9.195 10.169,9.847 10.409 " stroke="none" fill-rule="evenodd" fill="black"></path></svg>