<svg width="40" height="40" viewBox="0 0 40 40" fill="none" xmlns="http://www.w3.org/2000/svg"><path d="M30.494 5.397 C 30.308 5.426,29.963 5.533,29.728 5.636 C 29.325 5.812,28.992 6.130,24.078 11.028 C 20.954 14.142,18.800 16.340,18.715 16.500 C 18.582 16.750,18.568 16.942,18.478 19.550 C 18.387 22.179,18.389 22.351,18.499 22.641 C 18.656 23.050,18.934 23.354,19.317 23.535 C 19.629 23.683,19.658 23.684,21.500 23.638 C 22.527 23.612,23.835 23.569,24.408 23.541 L 25.450 23.490 25.775 23.249 C 26.276 22.878,36.017 13.077,36.258 12.701 C 36.551 12.246,36.679 11.761,36.676 11.113 C 36.672 10.174,36.445 9.723,35.450 8.679 C 33.859 7.011,32.820 5.987,32.526 5.797 C 31.993 5.452,31.175 5.292,30.494 5.397 M6.028 7.738 C 5.053 7.854,4.197 8.285,3.441 9.041 C 2.637 9.845,2.251 10.654,2.129 11.789 C 2.084 12.210,2.067 15.219,2.082 20.467 C 2.106 29.406,2.073 28.766,2.565 29.767 C 3.136 30.927,4.252 31.836,5.533 32.183 C 5.941 32.293,6.813 32.300,20.000 32.300 C 33.187 32.300,34.059 32.293,34.467 32.183 C 36.076 31.747,37.347 30.476,37.783 28.867 C 37.889 28.474,37.900 28.033,37.900 24.200 C 37.900 20.085,37.896 19.960,37.767 19.745 C 37.542 19.372,37.243 19.233,36.667 19.235 C 36.072 19.236,35.817 19.350,35.590 19.715 L 35.433 19.967 35.400 24.133 C 35.368 28.182,35.363 28.309,35.227 28.600 C 35.029 29.028,34.520 29.504,34.088 29.666 C 33.732 29.799,33.602 29.800,20.000 29.800 C 6.369 29.800,6.269 29.799,5.910 29.665 C 5.426 29.484,4.916 28.974,4.735 28.490 C 4.602 28.134,4.600 28.004,4.600 20.000 C 4.600 12.013,4.602 11.865,4.734 11.512 C 4.896 11.080,5.372 10.571,5.800 10.373 C 6.096 10.235,6.190 10.233,12.233 10.200 C 18.215 10.167,18.372 10.163,18.593 10.033 C 18.902 9.851,19.070 9.607,19.138 9.241 C 19.253 8.630,19.048 8.101,18.593 7.833 C 18.372 7.703,18.238 7.700,12.433 7.691 C 9.170 7.686,6.287 7.707,6.028 7.738 M32.036 8.750 C 33.928 10.677,34.200 10.977,34.200 11.141 C 34.200 11.263,33.063 12.436,29.317 16.180 L 24.433 21.059 23.000 21.098 C 22.212 21.120,21.424 21.152,21.250 21.171 L 20.933 21.205 20.934 20.686 C 20.934 20.400,20.952 19.597,20.975 18.900 L 21.016 17.633 25.890 12.750 C 30.198 8.435,30.789 7.867,30.967 7.867 C 31.137 7.867,31.302 8.003,32.036 8.750 " stroke="none" fill-rule="evenodd" fill="black"></path></svg>