<svg width="40" height="40" viewBox="0 0 40 40" fill="none" xmlns="http://www.w3.org/2000/svg"><path d="M6.028 7.138 C 5.054 7.254,4.197 7.685,3.441 8.441 C 2.637 9.245,2.251 10.054,2.129 11.189 C 2.084 11.611,2.067 14.813,2.082 20.467 C 2.106 30.078,2.071 29.362,2.565 30.367 C 3.136 31.527,4.252 32.436,5.533 32.783 C 5.941 32.893,6.813 32.900,20.000 32.900 C 33.187 32.900,34.059 32.893,34.467 32.783 C 36.076 32.347,37.347 31.076,37.783 29.467 C 37.892 29.063,37.900 28.415,37.900 20.000 C 37.900 11.585,37.892 10.937,37.783 10.533 C 37.351 8.940,36.113 7.690,34.500 7.218 C 34.125 7.109,33.242 7.101,20.300 7.092 C 12.710 7.087,6.287 7.108,6.028 7.138 M33.983 9.689 L 34.200 9.767 27.850 16.110 C 21.784 22.168,21.483 22.458,21.114 22.593 C 20.622 22.772,20.111 22.772,19.619 22.592 C 19.251 22.458,18.942 22.160,12.800 16.026 L 6.367 9.601 20.067 9.605 C 30.413 9.609,33.820 9.629,33.983 9.689 M18.033 24.587 C 19.466 25.418,21.187 25.435,22.645 24.634 C 23.042 24.415,23.878 23.607,29.250 18.243 L 35.400 12.102 35.400 20.415 C 35.400 28.605,35.398 28.734,35.265 29.090 C 35.084 29.574,34.574 30.084,34.090 30.265 C 33.731 30.399,33.631 30.400,20.000 30.400 C 6.369 30.400,6.269 30.399,5.910 30.265 C 5.426 30.084,4.916 29.574,4.735 29.090 C 4.602 28.733,4.600 28.607,4.600 20.048 L 4.600 11.368 11.083 17.843 C 16.616 23.367,17.635 24.356,18.033 24.587 " stroke="none" fill-rule="evenodd" fill="black"></path></svg>