<svg width="40" height="40" viewBox="0 0 40 40" fill="none" xmlns="http://www.w3.org/2000/svg"><path d="M27.633 4.027 C 27.230 4.154,26.976 4.299,26.067 4.920 C 17.981 10.442,11.272 17.120,5.756 25.133 C 5.390 25.665,5.012 26.236,4.915 26.402 C 4.445 27.204,4.417 28.266,4.843 29.133 C 5.066 29.587,5.259 29.806,6.928 31.492 C 9.383 33.973,9.864 34.399,10.627 34.764 C 10.960 34.923,11.398 35.092,11.600 35.139 C 12.178 35.274,13.211 35.244,13.822 35.075 C 14.900 34.777,15.320 34.465,17.170 32.590 C 18.487 31.256,18.670 31.043,18.922 30.552 C 19.744 28.957,19.641 27.190,18.643 25.733 C 18.530 25.568,18.199 25.185,17.908 24.881 L 17.378 24.329 17.833 23.662 C 19.377 21.401,21.592 19.142,23.967 17.408 C 25.068 16.603,24.889 16.610,25.651 17.342 C 26.706 18.355,27.740 18.800,29.033 18.800 C 29.999 18.800,30.838 18.539,31.667 17.980 C 32.152 17.653,34.711 15.081,35.036 14.595 C 35.596 13.755,35.810 13.027,35.808 11.969 C 35.807 11.469,35.767 11.165,35.651 10.766 C 35.352 9.736,35.178 9.510,32.820 7.092 C 30.691 4.908,30.328 4.564,29.863 4.282 C 29.336 3.963,28.234 3.837,27.633 4.027 M30.787 8.582 C 33.175 11.003,33.274 11.134,33.320 11.933 C 33.339 12.264,33.310 12.462,33.197 12.767 C 33.062 13.130,32.921 13.294,31.674 14.547 C 30.550 15.675,30.231 15.958,29.922 16.099 C 29.273 16.395,28.653 16.389,28.033 16.079 C 27.923 16.024,27.368 15.522,26.799 14.963 C 25.685 13.869,25.486 13.747,24.998 13.859 C 24.700 13.927,24.619 13.971,23.694 14.572 C 20.746 16.486,18.087 19.015,16.095 21.800 C 15.192 23.062,14.589 24.053,14.551 24.341 C 14.475 24.904,14.541 25.015,15.608 26.108 C 16.690 27.217,16.911 27.557,16.979 28.216 C 17.024 28.648,16.883 29.157,16.610 29.549 C 16.502 29.705,15.817 30.422,15.090 31.141 C 13.899 32.317,13.727 32.463,13.367 32.596 C 12.843 32.791,12.176 32.768,11.724 32.540 C 11.360 32.356,7.000 28.030,7.000 27.853 C 7.000 27.793,7.230 27.404,7.511 26.988 C 12.855 19.093,19.585 12.351,27.484 6.979 C 27.952 6.660,28.402 6.399,28.484 6.399 C 28.593 6.398,29.219 6.992,30.787 8.582 " stroke="none" fill-rule="evenodd" fill="black"></path></svg>