<svg width="40" height="40" viewBox="0 0 40 40" fill="none" xmlns="http://www.w3.org/2000/svg"><path d="M18.064 1.494 C 14.104 2.094,10.842 4.363,8.906 7.863 C 7.663 10.111,7.132 12.344,7.219 14.962 C 7.279 16.746,7.636 18.330,8.324 19.861 C 8.714 20.727,17.576 37.219,17.878 37.640 C 18.146 38.013,18.764 38.433,19.252 38.575 C 20.284 38.875,21.512 38.466,22.139 37.613 C 22.395 37.265,31.240 20.852,31.615 20.030 C 32.107 18.950,32.395 18.006,32.642 16.667 C 32.807 15.771,32.809 13.306,32.645 12.370 C 32.220 9.944,31.222 7.700,29.798 5.967 C 27.899 3.656,25.270 2.092,22.400 1.564 C 21.569 1.412,18.895 1.368,18.064 1.494 M22.147 4.069 C 24.127 4.473,25.656 5.308,27.137 6.793 C 29.003 8.666,30.034 10.917,30.278 13.655 C 30.433 15.402,30.096 17.362,29.361 18.981 C 29.241 19.246,27.112 23.230,24.629 27.835 C 20.874 34.800,20.094 36.204,19.988 36.187 C 19.895 36.172,18.719 34.042,15.523 28.100 C 10.906 19.517,10.523 18.777,10.209 17.825 C 9.194 14.748,9.661 11.226,11.450 8.467 C 12.953 6.149,15.155 4.634,17.842 4.067 C 18.737 3.879,21.217 3.880,22.147 4.069 M19.352 8.802 C 17.539 8.993,15.957 10.130,15.134 11.833 C 14.700 12.733,14.633 13.048,14.634 14.200 C 14.634 15.025,14.657 15.240,14.790 15.667 C 15.369 17.525,16.818 18.935,18.633 19.405 C 19.378 19.598,20.622 19.598,21.367 19.405 C 23.178 18.936,24.631 17.523,25.210 15.667 C 25.345 15.236,25.367 15.029,25.367 14.167 C 25.367 13.305,25.345 13.098,25.210 12.667 C 24.402 10.078,22.038 8.519,19.352 8.802 M20.961 11.424 C 23.158 12.222,23.591 15.077,21.730 16.496 C 20.275 17.606,18.129 17.052,17.358 15.367 C 16.656 13.834,17.421 12.021,19.020 11.427 C 19.602 11.211,20.370 11.210,20.961 11.424 " stroke="none" fill-rule="evenodd" fill="black"></path></svg>