<svg width="40" height="40" viewBox="0 0 40 40" fill="none" xmlns="http://www.w3.org/2000/svg"><path d="M16.833 5.178 C 13.234 5.351,10.267 5.662,7.050 6.203 C 4.140 6.693,3.671 6.843,3.056 7.485 C 2.609 7.951,2.351 8.502,2.260 9.187 C 2.212 9.545,2.197 10.546,2.218 12.021 C 2.254 14.549,2.273 14.684,2.719 15.600 C 2.906 15.982,3.104 16.243,3.565 16.709 C 4.084 17.233,4.254 17.359,4.800 17.621 C 5.148 17.788,5.611 17.957,5.829 17.996 C 6.341 18.088,8.792 18.088,9.304 17.996 C 9.522 17.957,9.985 17.788,10.333 17.621 C 10.879 17.359,11.050 17.233,11.569 16.709 C 12.529 15.737,12.832 14.984,12.918 13.352 L 12.967 12.435 13.233 12.387 C 13.900 12.267,16.130 11.999,17.067 11.926 C 18.396 11.824,21.604 11.824,22.933 11.926 C 23.870 11.999,26.100 12.267,26.767 12.387 L 27.033 12.435 27.082 13.352 C 27.168 14.984,27.471 15.737,28.431 16.709 C 28.950 17.233,29.121 17.359,29.667 17.621 C 30.015 17.788,30.478 17.957,30.696 17.996 C 31.315 18.107,33.747 18.085,34.261 17.964 C 35.890 17.580,37.302 16.109,37.631 14.453 C 37.758 13.816,37.780 9.495,37.659 8.920 C 37.495 8.133,36.884 7.313,36.208 6.971 C 35.775 6.752,35.409 6.659,33.833 6.372 C 30.529 5.771,27.008 5.371,23.500 5.200 C 22.313 5.142,17.879 5.127,16.833 5.178 M24.833 7.762 C 25.567 7.817,26.527 7.894,26.967 7.934 C 29.804 8.193,34.900 9.005,35.130 9.235 C 35.218 9.322,35.236 9.644,35.254 11.352 C 35.281 14.008,35.216 14.368,34.602 14.983 C 34.086 15.498,33.863 15.564,32.533 15.588 C 31.459 15.609,31.334 15.598,30.970 15.462 C 30.493 15.284,30.001 14.846,29.786 14.410 C 29.644 14.121,29.631 13.995,29.600 12.533 C 29.567 11.036,29.559 10.956,29.410 10.715 C 29.324 10.576,29.142 10.406,29.006 10.336 C 28.561 10.110,25.581 9.650,23.300 9.456 C 22.737 9.408,21.295 9.371,20.000 9.371 C 18.705 9.371,17.263 9.408,16.700 9.456 C 14.419 9.650,11.439 10.110,10.994 10.336 C 10.858 10.406,10.676 10.576,10.590 10.715 C 10.441 10.956,10.433 11.036,10.400 12.533 C 10.362 14.334,10.325 14.474,9.744 15.017 C 9.222 15.505,8.867 15.600,7.567 15.600 C 6.192 15.600,5.892 15.511,5.328 14.939 C 4.739 14.341,4.733 14.311,4.733 11.634 C 4.733 9.903,4.754 9.331,4.818 9.243 C 4.990 9.008,9.213 8.317,12.604 7.969 C 13.553 7.871,16.143 7.689,17.267 7.641 C 18.521 7.588,23.570 7.669,24.833 7.762 M14.533 17.109 C 12.847 17.285,11.386 18.309,10.738 19.767 C 10.457 20.399,7.381 28.634,7.253 29.100 C 7.089 29.692,7.075 30.725,7.223 31.346 C 7.609 32.964,8.934 34.293,10.584 34.718 C 11.000 34.825,11.719 34.833,20.200 34.833 C 30.500 34.833,29.690 34.872,30.782 34.326 C 31.812 33.811,32.631 32.865,33.022 31.741 C 33.295 30.955,33.343 29.997,33.148 29.230 C 32.963 28.500,29.787 20.018,29.481 19.437 C 29.117 18.744,28.327 17.982,27.597 17.621 C 26.500 17.077,26.937 17.110,20.500 17.096 C 17.347 17.090,14.662 17.096,14.533 17.109 M26.457 19.831 C 27.196 20.240,27.144 20.132,29.040 25.186 C 30.720 29.662,30.759 29.778,30.762 30.267 C 30.766 31.122,30.358 31.761,29.567 32.141 L 29.167 32.333 20.219 32.333 C 11.311 32.333,11.270 32.333,10.900 32.194 C 10.128 31.905,9.600 31.118,9.600 30.255 C 9.600 29.887,9.758 29.426,11.275 25.374 C 12.197 22.913,12.993 20.816,13.046 20.713 C 13.277 20.258,13.809 19.824,14.333 19.662 C 14.425 19.633,17.110 19.615,20.300 19.622 L 26.100 19.633 26.457 19.831 M19.384 21.469 C 17.783 21.738,16.318 23.011,15.830 24.556 C 15.239 26.427,15.874 28.445,17.426 29.635 C 18.243 30.260,19.070 30.531,20.173 30.532 C 21.504 30.534,22.466 30.138,23.402 29.202 C 24.338 28.266,24.734 27.304,24.732 25.973 C 24.731 24.870,24.460 24.043,23.835 23.226 C 22.793 21.867,21.066 21.186,19.384 21.469 M20.630 23.966 C 21.001 24.029,21.329 24.211,21.649 24.532 C 22.473 25.355,22.468 26.607,21.638 27.438 C 20.807 28.268,19.555 28.273,18.732 27.449 C 18.580 27.298,18.401 27.065,18.333 26.933 C 18.052 26.381,18.052 25.615,18.334 25.033 C 18.500 24.688,18.979 24.230,19.321 24.087 C 19.591 23.974,20.110 23.873,20.267 23.903 C 20.322 23.913,20.485 23.942,20.630 23.966 " stroke="none" fill-rule="evenodd" fill="black"></path></svg>