<svg width="40" height="40" viewBox="0 0 40 40" fill="none" xmlns="http://www.w3.org/2000/svg"><path d="M17.825 2.038 C 15.724 2.292,13.964 2.822,11.967 3.801 C 8.455 5.521,5.529 8.447,3.800 11.967 C 2.495 14.623,1.933 17.039,1.933 20.000 C 1.933 22.963,2.490 25.359,3.801 28.033 C 6.098 32.720,10.467 36.259,15.533 37.534 C 17.235 37.962,18.560 38.098,20.533 38.047 C 22.141 38.005,22.932 37.904,24.320 37.561 C 27.679 36.734,30.552 35.082,32.968 32.591 C 34.146 31.377,34.814 30.501,35.633 29.098 C 36.775 27.142,37.557 24.920,37.909 22.633 C 38.085 21.489,38.085 18.511,37.909 17.367 C 37.416 14.166,36.090 11.132,34.106 8.667 C 33.530 7.950,32.337 6.738,31.600 6.119 C 28.906 3.855,25.629 2.447,22.091 2.034 C 21.039 1.910,18.856 1.913,17.825 2.038 M22.300 4.562 C 24.894 4.967,27.453 6.055,29.477 7.613 C 30.304 8.250,31.488 9.410,32.153 10.233 C 33.868 12.357,35.010 14.962,35.446 17.747 C 35.611 18.800,35.610 21.201,35.445 22.255 C 34.929 25.556,33.489 28.463,31.200 30.825 C 28.766 33.337,25.740 34.900,22.253 35.446 C 21.201 35.610,18.799 35.610,17.747 35.446 C 14.419 34.925,11.524 33.487,9.142 31.170 C 6.658 28.754,5.097 25.722,4.556 22.264 C 4.389 21.195,4.389 18.805,4.556 17.736 C 5.097 14.278,6.658 11.246,9.142 8.830 C 11.764 6.280,14.907 4.837,18.700 4.441 C 19.268 4.382,21.660 4.462,22.300 4.562 M19.512 7.729 C 19.184 7.795,18.930 7.985,18.783 8.271 C 18.675 8.484,18.667 8.927,18.667 14.667 C 18.667 20.406,18.675 20.849,18.783 21.062 C 18.848 21.188,18.985 21.353,19.088 21.429 C 19.274 21.565,19.344 21.567,23.838 21.585 C 28.344 21.602,28.403 21.601,28.672 21.464 C 29.004 21.295,29.197 20.917,29.198 20.433 C 29.200 19.765,28.970 19.375,28.473 19.209 C 28.316 19.156,27.168 19.133,24.692 19.133 L 21.136 19.133 21.118 13.783 L 21.100 8.433 20.955 8.200 C 20.875 8.072,20.725 7.918,20.621 7.857 C 20.390 7.723,19.853 7.661,19.512 7.729 " stroke="none" fill-rule="evenodd" fill="black"></path></svg>