<svg width="40" height="40" viewBox="0 0 40 40" fill="none" xmlns="http://www.w3.org/2000/svg"><path d="M12.767 1.713 C 12.035 1.810,11.034 2.282,10.444 2.808 C 9.736 3.438,9.171 4.395,8.990 5.268 C 8.916 5.622,8.900 8.266,8.900 19.967 C 8.900 33.377,8.907 34.259,9.017 34.667 C 9.453 36.276,10.724 37.547,12.333 37.983 C 12.735 38.091,13.305 38.100,20.033 38.100 C 28.168 38.100,27.604 38.132,28.667 37.614 C 29.049 37.428,29.310 37.229,29.775 36.769 C 30.300 36.250,30.426 36.079,30.688 35.533 C 30.855 35.185,31.023 34.722,31.062 34.504 C 31.111 34.233,31.133 29.627,31.132 19.838 C 31.131 4.170,31.157 5.189,30.733 4.299 C 30.300 3.391,29.493 2.585,28.567 2.132 C 27.586 1.652,27.838 1.665,19.986 1.677 C 16.125 1.682,12.877 1.699,12.767 1.713 M26.902 4.206 C 27.119 4.246,27.403 4.334,27.535 4.401 C 27.870 4.572,28.297 5.018,28.479 5.387 L 28.633 5.700 28.651 19.779 L 28.668 33.858 28.526 34.246 C 28.423 34.527,28.279 34.736,28.005 35.006 C 27.355 35.646,27.973 35.600,20.024 35.600 C 13.201 35.600,13.065 35.597,12.710 35.465 C 12.226 35.283,11.716 34.774,11.535 34.288 C 11.399 33.926,11.399 33.872,11.416 19.779 C 11.433 6.094,11.437 5.626,11.558 5.400 C 11.904 4.754,12.485 4.309,13.120 4.202 C 13.625 4.117,26.440 4.121,26.902 4.206 M19.143 27.474 C 18.638 27.672,18.061 28.262,17.869 28.776 C 17.665 29.320,17.694 30.154,17.934 30.627 C 18.165 31.083,18.602 31.510,19.052 31.721 C 19.377 31.874,19.522 31.900,20.033 31.900 C 20.540 31.900,20.690 31.873,21.000 31.727 C 21.468 31.506,21.906 31.068,22.127 30.600 C 22.273 30.290,22.300 30.140,22.300 29.633 C 22.300 29.122,22.274 28.977,22.121 28.652 C 21.910 28.202,21.483 27.765,21.027 27.534 C 20.566 27.300,19.660 27.271,19.143 27.474 M20.167 29.633 C 20.167 29.832,19.906 29.812,19.878 29.611 C 19.860 29.482,19.882 29.460,20.011 29.478 C 20.115 29.493,20.167 29.544,20.167 29.633 " stroke="none" fill-rule="evenodd" fill="black"></path></svg>