<svg width="40" height="40" viewBox="0 0 40 40" fill="none" xmlns="http://www.w3.org/2000/svg"><path d="M5.709 4.305 C 4.477 4.605,3.322 5.559,2.731 6.767 C 2.242 7.765,2.260 7.385,2.281 16.533 L 2.300 24.700 2.456 25.167 C 2.980 26.736,4.176 27.877,5.707 28.269 C 6.133 28.378,6.446 28.400,7.534 28.400 L 8.846 28.400 10.640 31.511 C 11.815 33.550,12.544 34.744,12.755 34.976 C 12.964 35.206,13.233 35.407,13.520 35.548 C 13.936 35.753,14.007 35.767,14.667 35.767 C 15.326 35.767,15.397 35.753,15.813 35.548 C 16.101 35.407,16.369 35.206,16.578 34.975 C 16.784 34.748,17.474 33.628,18.495 31.860 C 19.373 30.342,20.189 28.943,20.310 28.752 L 20.530 28.403 27.315 28.385 L 34.100 28.367 34.533 28.218 C 35.867 27.762,37.001 26.628,37.452 25.300 L 37.633 24.767 37.633 16.300 L 37.633 7.833 37.452 7.300 C 37.001 5.972,35.867 4.838,34.533 4.382 L 34.100 4.233 20.100 4.222 C 8.183 4.212,6.042 4.224,5.709 4.305 M33.791 6.791 C 34.461 7.045,34.953 7.594,35.111 8.262 C 35.239 8.806,35.239 23.794,35.111 24.338 C 34.953 25.006,34.461 25.555,33.791 25.809 C 33.481 25.927,33.129 25.933,26.549 25.934 C 21.931 25.934,19.550 25.957,19.382 26.004 C 19.243 26.042,19.037 26.170,18.923 26.287 C 18.809 26.404,17.848 28.000,16.787 29.833 C 15.725 31.667,14.814 33.211,14.762 33.264 C 14.678 33.350,14.655 33.350,14.572 33.264 C 14.519 33.211,13.604 31.652,12.536 29.800 C 11.469 27.948,10.509 26.353,10.402 26.254 C 10.097 25.973,9.820 25.934,8.141 25.934 C 6.490 25.933,6.235 25.899,5.773 25.613 C 5.234 25.280,4.926 24.820,4.806 24.169 C 4.704 23.619,4.705 8.980,4.806 8.430 C 4.920 7.813,5.169 7.417,5.679 7.042 C 6.206 6.654,5.372 6.676,19.983 6.671 C 32.969 6.667,33.477 6.671,33.791 6.791 M7.687 11.996 C 7.305 12.170,7.133 12.513,7.133 13.100 C 7.133 13.687,7.305 14.030,7.687 14.204 C 7.954 14.325,8.201 14.330,13.300 14.331 C 16.612 14.332,18.723 14.308,18.870 14.267 C 19.843 13.997,19.843 12.203,18.870 11.933 C 18.723 11.892,16.612 11.868,13.300 11.869 C 8.201 11.870,7.954 11.875,7.687 11.996 M7.687 18.663 C 7.305 18.836,7.133 19.179,7.133 19.767 C 7.133 20.354,7.305 20.697,7.687 20.870 C 7.958 20.993,8.300 20.997,19.133 20.998 C 26.287 20.999,30.385 20.976,30.537 20.933 C 31.510 20.663,31.510 18.870,30.537 18.600 C 30.385 18.558,26.287 18.534,19.133 18.535 C 8.300 18.536,7.958 18.540,7.687 18.663 " stroke="none" fill-rule="evenodd" fill="black"></path></svg>