<svg width="40" height="40" viewBox="0 0 40 40" fill="none" xmlns="http://www.w3.org/2000/svg"><path d="M6.028 3.805 C 5.053 3.921,4.197 4.352,3.441 5.108 C 2.638 5.911,2.251 6.720,2.128 7.855 C 2.084 8.269,2.067 10.396,2.082 13.800 C 2.109 19.682,2.088 19.397,2.565 20.367 C 3.131 21.518,4.272 22.451,5.500 22.768 C 5.720 22.824,6.340 22.889,6.877 22.912 L 7.854 22.954 9.985 25.093 L 12.117 27.233 12.186 27.600 C 12.470 29.097,13.631 30.441,15.102 30.975 C 15.752 31.211,16.474 31.266,18.934 31.266 L 21.167 31.267 23.500 33.604 C 25.739 35.848,26.136 36.197,26.557 36.295 C 26.803 36.352,27.186 36.228,27.411 36.018 C 27.508 35.927,28.273 34.825,29.110 33.568 L 30.632 31.283 32.366 31.249 C 34.282 31.211,34.555 31.167,35.367 30.769 C 36.526 30.199,37.436 29.081,37.783 27.800 C 37.890 27.402,37.900 26.899,37.900 21.667 C 37.900 16.434,37.890 15.931,37.783 15.533 C 37.436 14.252,36.527 13.136,35.367 12.565 C 34.457 12.118,34.425 12.114,31.024 12.083 L 27.948 12.055 27.916 9.811 C 27.882 7.333,27.858 7.160,27.435 6.300 C 26.874 5.158,25.779 4.257,24.500 3.886 C 24.130 3.778,23.447 3.769,15.300 3.759 C 10.460 3.753,6.287 3.774,6.028 3.805 M24.090 6.402 C 24.574 6.583,25.084 7.093,25.265 7.577 C 25.397 7.929,25.400 8.076,25.400 13.333 C 25.400 18.580,25.396 18.738,25.266 19.088 C 25.104 19.520,24.628 20.029,24.200 20.227 C 23.914 20.360,23.764 20.368,20.933 20.400 C 18.614 20.426,17.930 20.453,17.800 20.524 C 17.708 20.573,16.666 21.578,15.483 22.757 L 13.333 24.899 11.183 22.757 C 10.001 21.578,8.958 20.574,8.867 20.526 C 8.753 20.466,8.283 20.426,7.400 20.401 C 6.275 20.369,6.060 20.346,5.800 20.226 C 5.373 20.030,4.896 19.520,4.734 19.088 C 4.604 18.738,4.600 18.580,4.600 13.333 C 4.600 8.076,4.603 7.929,4.735 7.577 C 4.911 7.106,5.427 6.584,5.891 6.405 C 6.225 6.277,6.436 6.274,14.981 6.270 C 23.612 6.267,23.733 6.268,24.090 6.402 M34.090 14.735 C 34.574 14.916,35.084 15.426,35.265 15.910 C 35.397 16.262,35.400 16.409,35.400 21.667 C 35.400 26.913,35.396 27.072,35.266 27.421 C 35.104 27.853,34.628 28.362,34.200 28.561 C 33.921 28.690,33.750 28.702,31.767 28.733 C 29.664 28.766,29.630 28.769,29.378 28.925 C 29.181 29.048,28.836 29.515,27.853 30.992 C 27.155 32.041,26.557 32.929,26.524 32.965 C 26.486 33.005,25.689 32.257,24.415 30.988 C 23.289 29.866,22.292 28.907,22.200 28.857 C 22.070 28.786,21.386 28.759,19.067 28.733 C 16.232 28.701,16.087 28.694,15.800 28.560 C 15.282 28.319,14.674 27.588,14.668 27.200 C 14.667 27.144,15.604 26.164,16.750 25.021 L 18.833 22.942 21.467 22.915 C 24.377 22.884,24.480 22.871,25.367 22.435 C 26.234 22.008,27.010 21.233,27.435 20.367 C 27.858 19.506,27.882 19.335,27.916 16.850 L 27.948 14.600 30.838 14.600 C 33.579 14.600,33.747 14.607,34.090 14.735 " stroke="none" fill-rule="evenodd" fill="black"></path></svg>