<svg width="40" height="40" viewBox="0 0 40 40" fill="none" xmlns="http://www.w3.org/2000/svg"><path d="M6.233 1.713 C 5.497 1.812,4.500 2.283,3.911 2.808 C 3.203 3.438,2.638 4.395,2.456 5.268 C 2.383 5.622,2.367 8.266,2.367 19.967 C 2.367 33.377,2.374 34.259,2.484 34.667 C 2.920 36.276,4.190 37.547,5.800 37.983 C 6.207 38.093,7.069 38.100,20.033 38.100 C 33.222 38.100,33.853 38.095,34.267 37.978 C 35.487 37.633,36.641 36.693,37.187 35.600 C 37.700 34.574,37.664 35.735,37.664 19.900 C 37.664 4.073,37.699 5.234,37.190 4.200 C 36.814 3.437,35.942 2.551,35.200 2.179 C 34.159 1.658,35.581 1.704,20.200 1.694 C 12.628 1.689,6.343 1.698,6.233 1.713 M33.391 4.203 C 33.625 4.241,33.925 4.328,34.058 4.397 C 34.402 4.575,34.835 5.044,35.013 5.433 C 35.166 5.764,35.167 5.791,35.186 8.950 L 35.206 12.133 20.034 12.133 L 4.862 12.133 4.881 8.883 C 4.899 5.854,4.908 5.617,5.025 5.400 C 5.371 4.754,5.951 4.309,6.587 4.202 C 7.075 4.120,32.884 4.121,33.391 4.203 M7.312 6.128 C 6.995 6.194,6.739 6.381,6.567 6.674 C 6.445 6.880,6.433 7.020,6.433 8.233 C 6.433 9.488,6.442 9.580,6.579 9.800 C 6.870 10.267,6.998 10.300,8.533 10.300 C 10.071 10.300,10.226 10.260,10.498 9.798 C 10.622 9.586,10.633 9.454,10.633 8.200 C 10.633 6.657,10.604 6.537,10.152 6.257 C 9.916 6.111,9.828 6.101,8.733 6.088 C 8.092 6.081,7.452 6.099,7.312 6.128 M12.128 6.125 C 11.996 6.153,11.797 6.240,11.686 6.319 C 11.339 6.567,11.300 6.760,11.300 8.233 C 11.300 9.733,11.342 9.894,11.802 10.164 C 12.014 10.289,12.146 10.300,13.400 10.300 C 14.648 10.300,14.786 10.288,14.988 10.167 C 15.408 9.914,15.483 9.698,15.519 8.636 C 15.574 6.999,15.464 6.548,14.933 6.238 C 14.725 6.116,14.574 6.100,13.533 6.088 C 12.892 6.081,12.259 6.097,12.128 6.125 M17.112 6.128 C 16.795 6.194,16.539 6.381,16.367 6.674 C 16.245 6.880,16.233 7.020,16.233 8.233 C 16.233 9.488,16.242 9.580,16.379 9.800 C 16.670 10.267,16.798 10.300,18.333 10.300 C 19.871 10.300,20.026 10.260,20.298 9.798 C 20.422 9.586,20.433 9.454,20.433 8.200 C 20.433 6.657,20.404 6.537,19.952 6.257 C 19.716 6.111,19.628 6.101,18.533 6.088 C 17.892 6.081,17.252 6.099,17.112 6.128 M35.167 24.333 L 35.167 34.033 35.024 34.341 C 34.829 34.764,34.441 35.176,34.038 35.389 L 33.700 35.567 20.121 35.584 C 6.597 35.601,6.540 35.601,6.178 35.465 C 5.693 35.284,5.183 34.774,5.002 34.290 C 4.868 33.933,4.867 33.812,4.867 24.264 L 4.867 14.600 20.017 14.617 L 35.167 14.633 35.167 24.333 " stroke="none" fill-rule="evenodd" fill="black"></path></svg>