<svg width="40" height="40" viewBox="0 0 40 40" fill="none" xmlns="http://www.w3.org/2000/svg"><path d="M18.867 8.775 C 15.447 9.099,12.738 11.650,12.169 15.083 L 12.127 15.333 9.814 15.334 C 7.160 15.336,6.886 15.370,6.000 15.813 C 5.228 16.198,4.415 17.001,4.020 17.767 C 3.485 18.803,3.500 18.646,3.500 23.267 C 3.500 27.715,3.504 27.773,3.873 28.590 C 4.433 29.830,5.510 30.771,6.833 31.177 C 7.216 31.295,7.791 31.300,20.000 31.300 L 32.767 31.300 33.354 31.108 C 34.741 30.653,35.852 29.544,36.305 28.162 L 36.500 27.567 36.500 23.367 C 36.500 18.698,36.511 18.826,36.047 17.867 C 35.823 17.404,35.662 17.188,35.170 16.695 C 34.681 16.203,34.460 16.036,34.000 15.810 C 33.102 15.368,32.840 15.336,30.120 15.334 L 27.739 15.333 27.698 15.083 C 27.437 13.509,26.709 12.059,25.635 10.975 C 24.566 9.896,23.264 9.194,21.772 8.894 C 21.298 8.799,19.427 8.722,18.867 8.775 M21.951 11.511 C 22.272 11.625,22.703 11.819,22.909 11.942 C 23.382 12.225,24.153 12.982,24.495 13.497 C 24.772 13.915,25.091 14.665,25.168 15.083 L 25.215 15.333 19.941 15.333 C 15.187 15.333,14.667 15.323,14.667 15.228 C 14.667 15.036,15.007 14.105,15.201 13.767 C 15.684 12.924,16.544 12.113,17.368 11.725 C 18.186 11.338,18.630 11.266,20.067 11.286 C 21.329 11.303,21.383 11.310,21.951 11.511 M32.767 17.987 C 33.156 18.165,33.625 18.598,33.803 18.942 C 33.872 19.075,33.959 19.375,33.997 19.609 C 34.084 20.148,34.089 26.491,34.003 27.020 C 33.916 27.550,33.695 27.962,33.316 28.303 C 32.672 28.882,33.892 28.833,19.965 28.833 L 7.631 28.833 7.184 28.613 C 6.731 28.390,6.414 28.077,6.158 27.600 C 6.040 27.379,6.033 27.149,6.033 23.333 L 6.033 19.300 6.211 18.962 C 6.496 18.423,7.022 18.005,7.581 17.872 C 7.726 17.838,13.063 17.817,20.133 17.823 L 32.433 17.833 32.767 17.987 M10.167 22.167 C 9.670 22.343,9.419 22.841,9.488 23.515 C 9.533 23.953,9.687 24.216,10.003 24.394 C 10.248 24.531,10.314 24.533,14.328 24.533 C 18.312 24.533,18.411 24.530,18.674 24.396 C 19.004 24.228,19.197 23.849,19.198 23.367 C 19.200 22.698,18.970 22.308,18.473 22.142 C 18.109 22.021,10.517 22.043,10.167 22.167 M21.700 22.167 C 21.203 22.343,20.952 22.841,21.021 23.515 C 21.066 23.953,21.220 24.216,21.536 24.394 C 21.781 24.531,21.847 24.533,25.862 24.533 C 29.846 24.533,29.945 24.530,30.208 24.396 C 30.537 24.228,30.730 23.849,30.731 23.367 C 30.734 22.698,30.503 22.308,30.007 22.142 C 29.642 22.021,22.050 22.043,21.700 22.167 " stroke="none" fill-rule="evenodd" fill="black"></path></svg>