<svg width="40" height="40" viewBox="0 0 40 40" fill="none" xmlns="http://www.w3.org/2000/svg"><path d="M19.083 9.002 C 15.765 9.277,12.524 11.548,10.453 15.051 C 10.248 15.397,10.138 15.523,10.067 15.495 C 9.458 15.253,6.887 15.173,5.969 15.367 C 4.685 15.639,3.458 16.596,2.872 17.780 C 2.421 18.691,2.439 18.492,2.416 22.940 C 2.391 27.519,2.395 27.564,2.880 28.533 C 3.427 29.629,4.591 30.575,5.800 30.908 C 6.359 31.061,8.931 31.084,9.567 30.941 C 10.819 30.660,11.999 29.749,12.593 28.605 C 13.120 27.588,13.100 27.801,13.100 23.200 C 13.100 18.817,13.098 18.785,12.759 18.012 C 12.673 17.817,12.510 17.519,12.396 17.350 L 12.189 17.043 12.337 16.772 C 12.645 16.205,13.476 15.012,13.932 14.481 C 15.112 13.109,16.716 12.061,18.255 11.658 C 18.925 11.482,20.224 11.420,20.914 11.531 C 23.480 11.942,25.786 13.781,27.463 16.755 L 27.682 17.143 27.380 17.755 C 26.887 18.754,26.900 18.609,26.900 23.200 C 26.900 27.801,26.880 27.588,27.407 28.605 C 28.001 29.749,29.181 30.660,30.433 30.941 C 31.069 31.084,33.641 31.061,34.200 30.908 C 35.409 30.575,36.573 29.629,37.120 28.533 C 37.593 27.588,37.598 27.532,37.598 23.167 C 37.598 18.825,37.591 18.747,37.138 17.833 C 36.504 16.556,35.343 15.644,33.990 15.359 C 33.605 15.278,33.179 15.262,32.000 15.283 C 30.708 15.306,30.442 15.329,30.082 15.448 L 29.664 15.587 29.485 15.277 C 28.363 13.342,26.932 11.753,25.339 10.671 C 23.490 9.415,21.265 8.822,19.083 9.002 M9.345 17.913 C 9.733 18.090,10.237 18.548,10.404 18.875 C 10.644 19.345,10.675 19.917,10.654 23.477 L 10.633 26.903 10.411 27.354 C 10.253 27.676,10.095 27.880,9.862 28.064 C 9.319 28.493,9.055 28.547,7.617 28.522 C 6.412 28.500,6.355 28.493,6.029 28.322 C 5.626 28.109,5.238 27.697,5.042 27.275 C 4.902 26.971,4.900 26.907,4.900 23.167 L 4.900 19.367 5.075 18.994 C 5.359 18.387,5.873 17.962,6.516 17.803 C 6.654 17.768,7.277 17.747,7.900 17.755 C 8.896 17.768,9.071 17.788,9.345 17.913 M33.872 17.942 C 34.345 18.163,34.703 18.520,34.925 18.994 L 35.100 19.367 35.100 23.167 C 35.100 26.907,35.098 26.971,34.958 27.275 C 34.762 27.697,34.374 28.109,33.971 28.322 C 33.645 28.493,33.588 28.500,32.383 28.522 C 30.945 28.547,30.681 28.493,30.138 28.064 C 29.905 27.880,29.747 27.676,29.589 27.354 L 29.367 26.903 29.346 23.435 C 29.321 19.178,29.335 19.062,29.957 18.411 C 30.511 17.832,30.864 17.736,32.367 17.754 C 33.433 17.768,33.522 17.779,33.872 17.942 " stroke="none" fill-rule="evenodd" fill="black"></path></svg>