<svg width="40" height="40" viewBox="0 0 40 40" fill="none" xmlns="http://www.w3.org/2000/svg"><path d="M9.233 1.877 C 9.050 1.911,8.615 2.077,8.267 2.244 C 7.722 2.507,7.549 2.634,7.031 3.158 C 6.378 3.818,6.055 4.365,5.821 5.200 C 5.706 5.613,5.700 6.320,5.700 20.000 C 5.700 33.738,5.705 34.386,5.822 34.800 C 6.167 36.020,7.107 37.174,8.200 37.720 C 9.226 38.233,8.492 38.205,20.185 38.185 L 30.633 38.167 31.167 37.986 C 32.495 37.535,33.629 36.400,34.085 35.067 L 34.233 34.633 34.252 20.200 C 34.273 4.037,34.310 5.302,33.783 4.248 C 33.570 3.821,33.383 3.574,32.938 3.131 C 32.283 2.479,31.702 2.138,30.893 1.931 C 30.391 1.803,30.124 1.800,19.973 1.807 C 13.844 1.812,9.430 1.841,9.233 1.877 M30.445 4.410 C 30.963 4.604,31.463 5.103,31.656 5.621 L 31.800 6.005 31.800 20.002 C 31.800 33.573,31.796 34.009,31.674 34.331 C 31.409 35.027,30.817 35.530,30.100 35.664 C 29.811 35.719,26.933 35.734,19.733 35.720 L 9.767 35.700 9.459 35.558 C 9.036 35.362,8.624 34.974,8.411 34.571 L 8.233 34.233 8.216 20.102 C 8.197 4.229,8.151 5.625,8.713 4.999 C 9.027 4.651,9.262 4.492,9.667 4.358 C 9.839 4.301,12.519 4.279,19.981 4.274 L 30.062 4.267 30.445 4.410 M19.449 27.468 C 18.576 27.689,17.881 28.441,17.741 29.317 C 17.615 30.104,17.837 30.812,18.379 31.354 C 19.517 32.492,21.446 32.143,22.120 30.677 C 22.370 30.132,22.371 29.325,22.123 28.792 C 21.746 27.982,21.030 27.486,20.163 27.433 C 19.908 27.418,19.587 27.434,19.449 27.468 M20.131 29.630 C 20.232 29.752,20.166 29.867,19.996 29.867 C 19.915 29.867,19.867 29.821,19.867 29.744 C 19.867 29.526,19.998 29.470,20.131 29.630 " stroke="none" fill-rule="evenodd" fill="black"></path></svg>