<svg width="40" height="40" viewBox="0 0 40 40" fill="none" xmlns="http://www.w3.org/2000/svg"><path d="M11.733 8.739 C 10.179 8.916,8.459 9.517,7.100 10.357 C 4.729 11.823,2.939 14.173,2.168 16.833 C 1.616 18.736,1.582 20.882,2.073 22.833 C 3.073 26.804,6.270 30.001,10.233 30.993 C 11.612 31.338,11.489 31.333,20.000 31.333 C 28.507 31.333,28.380 31.338,29.767 30.994 C 33.707 30.015,36.937 26.785,37.926 22.833 C 38.416 20.873,38.383 18.737,37.833 16.833 C 37.066 14.183,35.266 11.820,32.900 10.357 C 32.001 9.801,30.760 9.270,29.800 9.029 C 28.473 8.697,28.907 8.712,20.300 8.696 C 15.863 8.688,12.008 8.707,11.733 8.739 M27.810 11.204 C 29.838 11.410,31.612 12.234,33.072 13.646 C 35.881 16.366,36.586 20.387,34.871 23.903 C 33.551 26.606,31.008 28.409,27.967 28.799 C 27.534 28.855,25.204 28.869,19.600 28.851 C 12.455 28.829,11.793 28.817,11.333 28.709 C 8.483 28.036,6.334 26.372,5.129 23.903 C 4.164 21.924,3.950 19.856,4.494 17.758 C 5.200 15.032,7.361 12.651,9.983 11.710 C 10.692 11.455,11.444 11.275,12.076 11.209 C 12.902 11.123,26.966 11.118,27.810 11.204 M13.929 15.193 C 13.614 15.296,13.479 15.397,13.323 15.649 C 13.174 15.888,13.166 15.969,13.143 17.310 L 13.120 18.720 11.710 18.743 C 10.367 18.766,10.288 18.774,10.048 18.923 C 9.683 19.151,9.569 19.405,9.569 20.000 C 9.569 20.595,9.683 20.849,10.048 21.077 C 10.288 21.226,10.367 21.234,11.710 21.257 L 13.120 21.280 13.144 22.690 C 13.170 24.269,13.204 24.400,13.667 24.688 C 14.001 24.896,14.799 24.896,15.133 24.688 C 15.592 24.402,15.627 24.269,15.656 22.691 L 15.681 21.281 17.091 21.257 C 18.397 21.234,18.517 21.221,18.733 21.087 C 19.107 20.855,19.233 20.581,19.233 20.000 C 19.233 19.419,19.107 19.145,18.733 18.913 C 18.517 18.779,18.397 18.766,17.091 18.743 L 15.681 18.719 15.657 17.309 C 15.634 16.003,15.621 15.883,15.487 15.667 C 15.408 15.538,15.247 15.377,15.130 15.308 C 14.895 15.170,14.203 15.103,13.929 15.193 " stroke="none" fill-rule="evenodd" fill="black"></path></svg>