<svg width="40" height="40" viewBox="0 0 40 40" fill="none" xmlns="http://www.w3.org/2000/svg"><path d="M14.205 2.206 C 12.288 2.582,10.736 4.029,10.202 5.937 C 10.089 6.343,10.064 6.622,10.064 7.470 L 10.065 8.507 9.666 8.589 C 8.579 8.814,7.310 9.820,6.753 10.900 C 6.196 11.981,6.233 11.323,6.233 20.033 C 6.233 28.744,6.196 28.086,6.753 29.167 C 7.309 30.244,8.579 31.253,9.661 31.476 L 10.054 31.557 10.080 32.729 C 10.103 33.788,10.123 33.947,10.281 34.387 C 10.774 35.758,11.914 36.982,13.175 37.495 C 14.066 37.857,14.324 37.875,18.236 37.849 C 22.217 37.823,22.127 37.832,23.102 37.366 C 24.104 36.888,24.981 36.001,25.475 34.967 C 25.877 34.124,25.950 33.772,25.959 32.609 L 25.967 31.585 26.467 31.440 C 28.077 30.972,29.370 29.610,29.700 28.033 C 29.846 27.337,29.846 12.730,29.700 12.033 C 29.370 10.457,28.078 9.095,26.467 8.627 L 25.967 8.481 25.965 7.457 C 25.964 6.598,25.940 6.349,25.814 5.913 C 25.545 4.973,25.087 4.226,24.358 3.531 C 23.599 2.808,22.911 2.444,21.919 2.239 C 21.485 2.150,20.870 2.134,17.953 2.141 C 16.054 2.145,14.367 2.174,14.205 2.206 M21.935 4.841 C 22.417 5.067,22.967 5.616,23.215 6.120 C 23.426 6.548,23.434 6.596,23.456 7.515 L 23.479 8.467 17.999 8.467 L 12.519 8.467 12.546 7.517 C 12.571 6.651,12.589 6.533,12.754 6.192 C 13.081 5.515,13.637 5.007,14.323 4.758 C 14.516 4.689,15.306 4.673,18.100 4.685 C 21.543 4.700,21.641 4.704,21.935 4.841 M26.072 11.141 C 26.546 11.363,26.903 11.721,27.125 12.194 L 27.300 12.567 27.300 20.033 L 27.300 27.500 27.125 27.872 C 26.903 28.346,26.546 28.703,26.072 28.925 L 25.700 29.100 18.000 29.100 L 10.300 29.100 9.992 28.958 C 9.569 28.762,9.158 28.374,8.945 27.971 L 8.767 27.633 8.767 20.033 L 8.767 12.433 8.945 12.096 C 9.229 11.557,9.754 11.139,10.315 11.005 C 10.458 10.971,13.831 10.950,18.133 10.956 L 25.700 10.967 26.072 11.141 M31.868 12.847 C 31.534 13.020,31.351 13.332,31.299 13.819 C 31.275 14.047,31.265 15.163,31.278 16.300 C 31.298 18.224,31.309 18.382,31.433 18.593 C 31.680 19.012,31.870 19.100,32.533 19.100 C 33.196 19.100,33.386 19.012,33.633 18.593 C 33.760 18.378,33.767 18.247,33.767 15.933 C 33.767 13.620,33.760 13.489,33.633 13.274 C 33.402 12.880,33.187 12.770,32.612 12.747 C 32.219 12.731,32.046 12.755,31.868 12.847 M23.456 32.517 C 23.434 33.344,23.415 33.471,23.253 33.817 C 23.017 34.321,22.476 34.886,22.007 35.116 L 21.633 35.300 18.000 35.300 C 14.439 35.300,14.361 35.297,14.065 35.159 C 13.582 34.933,13.052 34.401,12.796 33.886 C 12.580 33.451,12.571 33.399,12.545 32.517 L 12.518 31.600 17.999 31.600 L 23.479 31.600 23.456 32.517 " stroke="none" fill-rule="evenodd" fill="black"></path></svg>