<svg width="40" height="40" viewBox="0 0 40 40" fill="none" xmlns="http://www.w3.org/2000/svg"><path d="M5.709 7.239 C 4.104 7.628,2.695 9.108,2.369 10.747 C 2.215 11.521,2.215 28.479,2.369 29.253 C 2.633 30.584,3.643 31.867,4.899 32.466 C 5.788 32.890,4.813 32.865,20.000 32.865 C 35.187 32.865,34.212 32.890,35.101 32.466 C 36.357 31.867,37.367 30.584,37.631 29.253 C 37.785 28.479,37.785 11.521,37.631 10.747 C 37.302 9.091,35.890 7.620,34.261 7.236 C 33.637 7.089,6.317 7.092,5.709 7.239 M34.013 9.788 C 34.382 9.969,34.828 10.396,34.999 10.732 C 35.259 11.240,35.267 11.515,35.267 20.000 C 35.267 28.485,35.259 28.760,34.999 29.268 C 34.828 29.604,34.382 30.031,34.013 30.212 L 33.700 30.367 20.000 30.367 L 6.300 30.367 5.987 30.212 C 5.618 30.031,5.172 29.604,5.001 29.268 C 4.934 29.137,4.846 28.852,4.806 28.636 C 4.704 28.084,4.704 11.915,4.806 11.364 C 4.920 10.747,5.169 10.351,5.679 9.975 C 6.208 9.586,5.348 9.607,20.100 9.621 L 33.700 9.633 34.013 9.788 M7.031 13.602 C 6.784 13.676,6.570 13.869,6.427 14.145 C 6.270 14.449,6.317 15.323,6.505 15.579 C 6.807 15.991,6.897 16.005,9.079 15.985 C 10.971 15.967,11.065 15.961,11.245 15.826 C 11.575 15.580,11.689 15.306,11.685 14.762 C 11.682 14.200,11.550 13.918,11.188 13.700 C 10.982 13.576,10.836 13.566,9.100 13.554 C 8.073 13.547,7.142 13.569,7.031 13.602 M13.565 13.601 C 13.317 13.677,13.103 13.869,12.961 14.145 C 12.803 14.449,12.851 15.323,13.038 15.579 C 13.311 15.951,13.516 16.000,14.791 16.000 C 15.842 16.000,15.971 15.987,16.197 15.860 C 16.578 15.646,16.700 15.390,16.700 14.800 C 16.700 14.215,16.564 13.918,16.198 13.702 C 15.994 13.583,15.838 13.565,14.867 13.553 C 14.262 13.546,13.676 13.568,13.565 13.601 M18.633 13.614 C 18.163 13.778,17.933 14.179,17.935 14.833 C 17.937 15.315,18.130 15.695,18.459 15.863 C 18.699 15.985,18.849 16.000,19.867 16.000 C 20.885 16.000,21.034 15.985,21.274 15.863 C 21.604 15.695,21.797 15.315,21.798 14.833 C 21.800 14.165,21.570 13.775,21.073 13.609 C 20.790 13.514,18.908 13.518,18.633 13.614 M23.567 13.631 C 23.068 13.812,22.819 14.308,22.888 14.981 C 22.933 15.420,23.087 15.682,23.403 15.860 C 23.629 15.987,23.758 16.000,24.809 16.000 C 26.084 16.000,26.289 15.951,26.562 15.579 C 26.775 15.287,26.798 14.433,26.601 14.082 C 26.340 13.619,26.184 13.569,24.933 13.550 C 24.102 13.538,23.768 13.557,23.567 13.631 M27.898 13.603 C 27.651 13.676,27.437 13.869,27.294 14.145 C 27.137 14.449,27.184 15.323,27.372 15.579 C 27.677 15.994,27.715 16.000,30.458 16.000 C 32.862 16.000,32.957 15.995,33.197 15.860 C 33.578 15.646,33.700 15.390,33.700 14.800 C 33.700 14.215,33.564 13.918,33.198 13.702 C 32.978 13.573,32.849 13.566,30.533 13.554 C 29.195 13.548,28.009 13.569,27.898 13.603 M7.031 18.736 C 6.784 18.810,6.570 19.002,6.427 19.278 C 6.270 19.582,6.317 20.456,6.505 20.712 C 6.807 21.124,6.897 21.138,9.079 21.118 C 10.971 21.101,11.065 21.094,11.245 20.960 C 11.575 20.714,11.689 20.439,11.685 19.896 C 11.682 19.333,11.550 19.051,11.188 18.833 C 10.982 18.709,10.836 18.699,9.100 18.687 C 8.073 18.681,7.142 18.702,7.031 18.736 M14.767 18.764 C 14.268 18.946,14.019 19.442,14.088 20.115 C 14.133 20.553,14.287 20.816,14.603 20.994 C 14.829 21.121,14.958 21.133,16.009 21.133 C 17.284 21.133,17.489 21.084,17.762 20.712 C 17.975 20.421,17.998 19.566,17.801 19.215 C 17.540 18.752,17.384 18.702,16.133 18.683 C 15.302 18.671,14.968 18.691,14.767 18.764 M19.929 18.727 C 19.382 18.902,19.178 19.221,19.178 19.901 C 19.178 20.437,19.295 20.716,19.622 20.960 C 19.798 21.091,19.892 21.100,21.100 21.100 C 22.308 21.100,22.402 21.091,22.578 20.960 C 22.908 20.714,23.022 20.439,23.018 19.896 C 23.015 19.333,22.883 19.051,22.521 18.833 C 22.327 18.716,22.167 18.698,21.200 18.686 C 20.595 18.679,20.023 18.697,19.929 18.727 M24.831 18.735 C 24.584 18.810,24.370 19.003,24.227 19.278 C 24.070 19.582,24.117 20.456,24.305 20.712 C 24.578 21.084,24.783 21.133,26.058 21.133 C 27.109 21.133,27.238 21.121,27.464 20.994 C 27.845 20.779,27.967 20.523,27.967 19.933 C 27.967 19.348,27.831 19.051,27.464 18.836 C 27.260 18.716,27.105 18.698,26.133 18.687 C 25.528 18.679,24.942 18.701,24.831 18.735 M29.929 18.728 C 29.382 18.901,29.178 19.220,29.178 19.901 C 29.178 20.437,29.294 20.716,29.621 20.960 C 29.798 21.091,29.905 21.101,31.373 21.120 C 32.868 21.139,32.947 21.134,33.191 20.997 C 33.578 20.779,33.700 20.525,33.700 19.933 C 33.700 19.348,33.564 19.051,33.198 18.836 C 32.987 18.712,32.841 18.699,31.533 18.687 C 30.745 18.679,30.023 18.698,29.929 18.728 M7.179 23.798 C 6.605 23.909,6.367 24.262,6.367 25.000 C 6.367 26.090,6.805 26.329,8.660 26.252 C 9.680 26.210,9.951 26.074,10.132 25.510 C 10.232 25.201,10.195 24.574,10.063 24.306 C 9.932 24.042,9.672 23.863,9.324 23.795 C 8.973 23.728,7.534 23.729,7.179 23.798 M30.667 23.791 C 30.075 23.918,29.836 24.265,29.836 25.000 C 29.836 25.595,29.949 25.849,30.315 26.077 C 30.554 26.225,30.625 26.233,31.733 26.233 C 32.780 26.233,32.923 26.220,33.126 26.100 C 33.435 25.918,33.603 25.674,33.672 25.308 C 33.786 24.698,33.581 24.167,33.129 23.903 C 32.939 23.791,32.761 23.770,31.903 23.756 C 31.351 23.748,30.795 23.763,30.667 23.791 M12.087 23.996 C 11.705 24.170,11.533 24.513,11.533 25.100 C 11.533 25.687,11.705 26.030,12.087 26.204 C 12.357 26.326,12.641 26.330,20.029 26.332 C 27.631 26.333,27.693 26.332,27.975 26.196 C 28.737 25.827,28.737 24.373,27.975 24.004 C 27.693 23.868,27.631 23.867,20.029 23.868 C 12.641 23.870,12.357 23.874,12.087 23.996 " stroke="none" fill-rule="evenodd" fill="black"></path></svg>