<svg width="40" height="40" viewBox="0 0 40 40" fill="none" xmlns="http://www.w3.org/2000/svg"><path d="M7.112 4.665 C 6.539 4.776,6.300 5.129,6.300 5.867 C 6.300 6.620,6.534 6.954,7.143 7.071 C 7.522 7.145,14.012 7.145,14.391 7.071 C 15.000 6.954,15.233 6.620,15.233 5.867 C 15.233 5.114,15.000 4.780,14.391 4.662 C 14.036 4.593,7.468 4.596,7.112 4.665 M5.972 9.537 C 5.019 9.698,4.295 10.090,3.527 10.863 C 3.073 11.319,2.895 11.558,2.675 12.003 C 2.177 13.013,2.202 12.465,2.201 22.386 C 2.200 32.253,2.182 31.837,2.641 32.774 C 3.241 33.999,4.423 34.953,5.683 35.231 C 6.119 35.327,7.550 35.335,20.200 35.319 L 34.233 35.300 34.667 35.152 C 36.000 34.696,37.135 33.561,37.586 32.233 L 37.767 31.700 37.785 22.619 C 37.805 12.453,37.830 13.028,37.323 12.000 C 36.948 11.237,36.075 10.351,35.333 9.979 C 34.292 9.458,35.729 9.504,20.200 9.492 C 12.555 9.486,6.152 9.506,5.972 9.537 M33.569 12.006 C 33.785 12.046,34.068 12.134,34.198 12.201 C 34.536 12.376,34.969 12.847,35.147 13.233 L 35.300 13.567 35.320 22.167 C 35.334 28.357,35.319 30.879,35.265 31.167 C 35.130 31.883,34.627 32.476,33.931 32.740 C 33.609 32.863,33.180 32.867,20.000 32.867 C 6.820 32.867,6.391 32.863,6.069 32.740 C 5.390 32.482,4.882 31.896,4.736 31.200 C 4.679 30.930,4.664 28.551,4.679 22.200 L 4.700 13.567 4.853 13.233 C 5.022 12.866,5.456 12.382,5.767 12.215 C 6.271 11.943,6.183 11.945,19.938 11.939 C 29.237 11.935,33.293 11.955,33.569 12.006 M30.065 14.686 C 29.405 14.911,28.901 15.366,28.610 15.997 C 28.470 16.302,28.440 16.467,28.439 16.940 C 28.438 17.451,28.461 17.559,28.653 17.949 C 28.903 18.458,29.267 18.811,29.792 19.058 C 30.110 19.207,30.258 19.233,30.767 19.233 C 31.277 19.233,31.422 19.207,31.733 19.058 C 32.176 18.847,32.618 18.418,32.857 17.967 C 33.015 17.667,33.033 17.562,33.033 16.933 C 33.033 16.305,33.015 16.199,32.857 15.900 C 32.617 15.446,32.174 15.018,31.733 14.812 C 31.310 14.615,30.463 14.551,30.065 14.686 M19.964 15.470 C 17.453 15.714,15.243 17.498,14.469 19.905 C 13.434 23.127,14.997 26.586,18.087 27.909 C 18.770 28.201,19.258 28.323,20.037 28.397 C 23.238 28.700,26.120 26.665,26.973 23.500 C 27.153 22.832,27.153 21.034,26.973 20.367 C 26.365 18.109,24.659 16.325,22.518 15.707 C 22.047 15.571,20.723 15.371,20.543 15.409 C 20.519 15.414,20.259 15.442,19.964 15.470 M30.867 16.933 C 30.867 17.071,30.706 17.117,30.633 17.000 C 30.578 16.910,30.653 16.800,30.771 16.800 C 30.823 16.800,30.867 16.860,30.867 16.933 M21.636 18.035 C 22.380 18.225,22.855 18.508,23.468 19.127 C 24.304 19.971,24.664 20.817,24.664 21.933 C 24.664 23.050,24.304 23.896,23.468 24.740 C 22.855 25.358,22.380 25.642,21.636 25.832 C 21.131 25.961,20.223 25.960,19.674 25.831 C 18.396 25.530,17.261 24.468,16.828 23.167 C 16.574 22.406,16.574 21.461,16.828 20.700 C 17.256 19.415,18.392 18.342,19.643 18.039 C 20.169 17.912,21.146 17.910,21.636 18.035 " stroke="none" fill-rule="evenodd" fill="black"></path></svg>