<svg width="40" height="40" viewBox="0 0 40 40" fill="none" xmlns="http://www.w3.org/2000/svg"><path d="M5.133 3.770 C 3.621 4.093,2.206 5.474,1.756 7.067 C 1.640 7.478,1.633 7.979,1.633 16.833 C 1.633 25.688,1.640 26.189,1.756 26.600 C 2.172 28.074,3.363 29.326,4.822 29.824 C 5.220 29.960,5.380 29.966,9.600 29.999 L 13.967 30.033 13.967 31.933 L 13.967 33.833 11.167 33.867 C 8.135 33.903,8.123 33.904,7.848 34.276 C 7.570 34.653,7.559 35.488,7.828 35.887 C 8.128 36.332,7.182 36.300,20.000 36.300 C 32.818 36.300,31.872 36.332,32.172 35.887 C 32.441 35.488,32.430 34.653,32.152 34.276 C 31.877 33.904,31.865 33.903,28.833 33.867 L 26.033 33.833 26.033 31.933 L 26.033 30.033 30.367 30.000 L 34.700 29.966 35.233 29.785 C 36.560 29.336,37.696 28.200,38.152 26.867 L 38.300 26.433 38.319 17.033 C 38.335 8.619,38.326 7.583,38.231 7.150 C 37.953 5.889,36.999 4.708,35.774 4.108 C 34.814 3.638,35.850 3.666,19.919 3.672 C 7.943 3.676,5.495 3.693,5.133 3.770 M34.310 6.226 C 34.962 6.400,35.495 6.889,35.743 7.542 C 35.861 7.854,35.867 8.256,35.867 16.833 C 35.867 25.468,35.862 25.811,35.740 26.131 C 35.476 26.828,34.883 27.330,34.167 27.464 C 33.876 27.519,29.935 27.534,19.733 27.520 L 5.700 27.500 5.392 27.358 C 4.969 27.162,4.558 26.774,4.345 26.371 L 4.167 26.033 4.167 16.833 L 4.167 7.633 4.345 7.296 C 4.629 6.756,5.156 6.338,5.715 6.206 C 5.857 6.172,12.036 6.144,19.967 6.141 C 31.629 6.136,34.024 6.150,34.310 6.226 M23.533 31.933 L 23.533 33.867 20.000 33.867 L 16.467 33.867 16.467 31.933 L 16.467 30.000 20.000 30.000 L 23.533 30.000 23.533 31.933 " stroke="none" fill-rule="evenodd" fill="black"></path></svg>