<svg width="40" height="40" viewBox="0 0 40 40" fill="none" xmlns="http://www.w3.org/2000/svg"><path d="M12.309 1.906 C 11.078 2.204,9.922 3.159,9.331 4.367 C 8.830 5.391,8.861 4.299,8.883 20.233 C 8.905 36.170,8.858 34.692,9.379 35.733 C 9.751 36.475,10.637 37.348,11.400 37.723 C 12.402 38.217,12.059 38.198,20.000 38.198 C 27.917 38.198,27.606 38.214,28.567 37.738 C 29.518 37.265,30.199 36.585,30.671 35.633 C 31.164 34.641,31.131 35.748,31.132 20.014 C 31.133 4.307,31.162 5.318,30.692 4.359 C 30.106 3.162,29.003 2.250,27.760 1.932 C 27.262 1.804,27.007 1.800,19.973 1.806 C 13.935 1.810,12.634 1.827,12.309 1.906 M27.264 4.393 C 27.961 4.658,28.463 5.250,28.598 5.967 C 28.652 6.257,28.667 10.155,28.653 20.233 L 28.633 34.100 28.459 34.472 C 28.237 34.946,27.879 35.303,27.406 35.525 L 27.033 35.700 20.033 35.700 C 12.091 35.700,12.688 35.742,12.046 35.140 C 11.647 34.767,11.493 34.476,11.403 33.925 C 11.304 33.314,11.307 6.567,11.406 6.030 C 11.520 5.413,11.769 5.017,12.279 4.642 C 12.794 4.263,12.527 4.276,20.016 4.271 C 26.646 4.267,26.946 4.272,27.264 4.393 M19.586 27.735 C 19.148 27.809,18.720 28.038,18.379 28.379 C 17.241 29.517,17.591 31.446,19.057 32.120 C 19.601 32.370,20.408 32.371,20.941 32.123 C 21.467 31.878,21.829 31.525,22.083 31.011 C 22.279 30.612,22.299 30.514,22.294 30.001 C 22.286 29.154,22.006 28.603,21.342 28.127 C 20.836 27.765,20.217 27.627,19.586 27.735 M20.171 29.940 C 20.195 29.980,20.169 30.060,20.111 30.117 C 20.027 30.201,19.987 30.206,19.907 30.139 C 19.853 30.094,19.824 30.014,19.844 29.962 C 19.887 29.850,20.106 29.835,20.171 29.940 " stroke="none" fill-rule="evenodd" fill="black"></path></svg>