<svg width="40" height="40" viewBox="0 0 40 40" fill="none" xmlns="http://www.w3.org/2000/svg"><path d="M18.167 1.864 C 15.659 2.314,13.696 3.321,11.975 5.042 C 10.221 6.796,9.182 8.857,8.770 11.400 C 8.616 12.350,8.616 27.650,8.770 28.600 C 9.182 31.143,10.221 33.204,11.975 34.958 C 14.145 37.128,16.906 38.266,20.000 38.266 C 23.114 38.266,26.014 37.039,28.135 34.826 C 29.803 33.085,30.767 31.156,31.211 28.667 C 31.282 28.267,31.300 26.527,31.300 20.000 C 31.300 11.371,31.307 11.593,30.991 10.300 C 30.729 9.225,30.233 8.058,29.602 7.033 C 28.197 4.749,25.783 2.924,23.167 2.167 C 21.643 1.727,19.617 1.604,18.167 1.864 M21.233 4.294 C 23.270 4.607,24.937 5.464,26.353 6.928 C 27.561 8.177,28.283 9.549,28.683 11.354 L 28.833 12.033 28.833 20.000 L 28.833 27.967 28.683 28.646 C 28.283 30.451,27.561 31.823,26.353 33.072 C 23.637 35.880,19.613 36.586,16.097 34.871 C 13.489 33.597,11.707 31.168,11.232 28.235 C 11.086 27.340,11.086 12.660,11.232 11.765 C 11.383 10.830,11.636 10.038,12.063 9.164 C 12.939 7.368,14.301 6.006,16.097 5.129 C 17.758 4.319,19.522 4.032,21.233 4.294 M19.433 8.611 C 19.178 8.704,19.015 8.848,18.877 9.100 C 18.778 9.280,18.767 9.718,18.767 13.400 C 18.767 17.382,18.771 17.506,18.900 17.721 C 19.125 18.094,19.424 18.233,20.000 18.233 C 20.576 18.233,20.875 18.094,21.100 17.721 C 21.228 17.508,21.234 17.361,21.255 13.767 C 21.267 11.713,21.257 9.847,21.233 9.619 C 21.184 9.146,20.998 8.818,20.698 8.670 C 20.450 8.548,19.699 8.513,19.433 8.611 " stroke="none" fill-rule="evenodd" fill="black"></path></svg>