<svg width="40" height="40" viewBox="0 0 40 40" fill="none" xmlns="http://www.w3.org/2000/svg"><path d="M11.263 2.223 C 11.095 2.269,10.867 2.372,10.754 2.452 C 10.642 2.532,9.409 3.763,8.014 5.188 C 5.902 7.347,5.464 7.826,5.395 8.056 C 5.275 8.457,5.396 8.803,5.797 9.204 C 6.186 9.592,6.526 9.708,6.950 9.598 C 7.195 9.535,7.448 9.309,8.817 7.933 L 10.400 6.342 10.402 9.788 C 10.404 14.329,10.462 15.020,10.970 16.489 C 11.748 18.744,13.417 20.678,15.553 21.803 C 16.330 22.212,17.308 22.558,18.120 22.712 L 18.730 22.827 18.748 29.930 C 18.766 36.896,18.769 37.038,18.900 37.260 C 19.082 37.569,19.326 37.737,19.692 37.805 C 20.304 37.919,20.832 37.715,21.100 37.260 C 21.231 37.038,21.234 36.896,21.252 29.930 L 21.270 22.827 21.880 22.712 C 24.635 22.191,27.131 20.323,28.469 17.781 C 28.852 17.054,29.209 16.069,29.363 15.316 C 29.551 14.393,29.598 13.295,29.599 9.788 L 29.600 6.342 31.183 7.933 C 32.552 9.309,32.805 9.535,33.050 9.598 C 33.475 9.708,33.814 9.592,34.203 9.203 C 34.592 8.815,34.709 8.473,34.597 8.057 C 34.534 7.820,34.147 7.397,31.926 5.128 C 29.090 2.233,29.023 2.178,28.327 2.178 C 27.648 2.178,27.553 2.256,24.729 5.139 C 22.571 7.343,22.132 7.823,22.062 8.055 C 21.942 8.457,22.063 8.802,22.464 9.204 C 22.852 9.592,23.192 9.708,23.617 9.598 C 23.862 9.535,24.115 9.309,25.483 7.933 L 27.067 6.342 27.067 10.198 C 27.067 13.345,27.048 14.151,26.967 14.576 C 26.686 16.044,26.028 17.297,24.996 18.329 C 22.880 20.445,19.788 20.985,16.967 19.732 C 15.602 19.126,14.150 17.640,13.549 16.233 C 12.946 14.822,12.933 14.703,12.933 10.198 L 12.933 6.342 14.517 7.933 C 15.885 9.309,16.138 9.535,16.383 9.598 C 16.808 9.708,17.148 9.592,17.537 9.203 C 17.925 8.815,18.043 8.473,17.931 8.057 C 17.867 7.820,17.481 7.397,15.259 5.128 C 13.425 3.255,12.580 2.438,12.381 2.344 C 11.998 2.164,11.626 2.123,11.263 2.223 " stroke="none" fill-rule="evenodd" fill="black"></path></svg>