<svg width="40" height="40" viewBox="0 0 40 40" fill="none" xmlns="http://www.w3.org/2000/svg"><path d="M19.267 4.771 C 18.939 4.956,14.249 9.587,13.934 10.038 C 13.573 10.553,13.623 11.038,14.087 11.523 C 14.515 11.969,14.998 12.104,15.420 11.893 C 15.537 11.835,16.331 11.093,17.183 10.244 L 18.733 8.701 18.733 13.958 C 18.733 18.938,18.727 19.212,18.617 19.167 C 17.660 18.779,17.185 18.735,13.973 18.734 L 11.312 18.733 12.920 17.150 C 14.321 15.770,14.537 15.530,14.600 15.283 C 14.708 14.858,14.591 14.518,14.204 14.131 C 13.805 13.732,13.486 13.621,13.066 13.734 C 12.818 13.800,12.597 13.982,11.702 14.855 C 8.814 17.669,7.512 18.990,7.387 19.231 C 7.205 19.581,7.197 20.202,7.370 20.567 C 7.557 20.961,12.526 26.019,12.908 26.204 C 13.272 26.380,13.617 26.337,13.989 26.067 C 14.502 25.695,14.727 25.204,14.599 24.730 C 14.539 24.506,14.254 24.178,12.995 22.879 L 11.464 21.300 14.261 21.283 C 16.930 21.266,17.074 21.271,17.419 21.400 C 17.853 21.563,18.362 22.038,18.561 22.467 C 18.698 22.763,18.700 22.853,18.733 29.133 L 18.767 35.500 18.912 35.733 C 19.145 36.107,19.419 36.233,20.000 36.233 C 20.581 36.233,20.855 36.107,21.088 35.733 L 21.233 35.500 21.267 29.133 C 21.300 22.853,21.302 22.763,21.439 22.467 C 21.638 22.039,22.147 21.563,22.579 21.401 C 22.919 21.274,23.094 21.267,25.783 21.267 L 28.627 21.267 27.054 22.850 C 25.309 24.606,25.229 24.723,25.395 25.275 C 25.506 25.647,26.030 26.167,26.392 26.265 C 26.999 26.428,26.973 26.448,29.852 23.577 C 31.687 21.748,32.513 20.879,32.613 20.673 C 32.707 20.478,32.756 20.250,32.756 20.000 C 32.756 19.750,32.707 19.522,32.613 19.327 C 32.513 19.121,31.688 18.253,29.852 16.423 C 26.968 13.548,26.975 13.553,26.392 13.728 C 26.028 13.837,25.504 14.361,25.395 14.725 C 25.229 15.277,25.309 15.394,27.054 17.150 L 28.627 18.733 25.997 18.734 C 22.817 18.735,22.339 18.779,21.383 19.167 C 21.273 19.212,21.267 18.938,21.267 13.958 L 21.267 8.701 22.817 10.244 C 23.669 11.093,24.463 11.835,24.580 11.893 C 25.002 12.104,25.485 11.969,25.913 11.523 C 26.377 11.038,26.427 10.554,26.067 10.038 C 25.734 9.562,20.992 4.893,20.686 4.740 C 20.274 4.535,19.662 4.548,19.267 4.771 " stroke="none" fill-rule="evenodd" fill="black"></path></svg>