<svg width="40" height="40" viewBox="0 0 40 40" fill="none" xmlns="http://www.w3.org/2000/svg"><path d="M19.367 3.711 C 16.912 3.829,14.784 4.392,12.610 5.497 C 10.230 6.708,8.152 8.529,6.665 10.708 L 6.279 11.274 6.256 9.587 C 6.235 8.043,6.222 7.881,6.100 7.674 C 5.832 7.219,5.304 7.014,4.692 7.128 C 4.326 7.197,4.082 7.365,3.900 7.674 C 3.771 7.892,3.767 8.020,3.767 11.433 C 3.767 15.410,3.762 15.370,4.262 15.821 C 4.723 16.238,4.676 16.233,8.567 16.233 C 11.980 16.233,12.108 16.229,12.326 16.100 C 12.635 15.918,12.803 15.674,12.872 15.308 C 12.986 14.696,12.781 14.168,12.326 13.900 C 12.115 13.775,11.958 13.765,9.950 13.745 C 8.767 13.733,7.800 13.702,7.800 13.675 C 7.800 13.580,8.533 12.388,8.924 11.846 C 9.407 11.177,10.465 10.033,11.100 9.493 C 13.036 7.846,15.195 6.844,17.867 6.353 C 18.674 6.205,21.300 6.186,22.067 6.323 C 25.171 6.878,27.549 8.081,29.680 10.175 C 32.081 12.535,33.478 15.570,33.735 18.985 C 34.032 22.936,32.537 26.883,29.680 29.691 C 27.464 31.869,24.873 33.139,21.767 33.570 C 20.785 33.706,18.759 33.673,17.833 33.505 C 14.670 32.932,12.171 31.595,10.028 29.328 C 8.967 28.205,8.282 27.198,7.554 25.687 C 7.044 24.629,6.854 24.438,6.305 24.438 C 5.894 24.438,5.254 24.722,5.086 24.979 C 4.937 25.205,4.882 25.579,4.949 25.900 C 5.033 26.301,5.863 27.937,6.404 28.767 C 8.815 32.468,12.565 35.008,16.871 35.857 C 18.945 36.266,21.296 36.255,23.367 35.828 C 28.887 34.688,33.495 30.635,35.359 25.279 C 35.985 23.480,36.225 22.001,36.225 19.933 C 36.225 18.266,36.136 17.467,35.795 16.081 C 34.935 12.582,33.052 9.604,30.264 7.334 C 28.111 5.581,25.574 4.426,22.800 3.935 C 22.093 3.811,20.324 3.653,19.933 3.680 C 19.842 3.687,19.587 3.701,19.367 3.711 " stroke="none" fill-rule="evenodd" fill="black"></path></svg>