<svg width="40" height="40" viewBox="0 0 40 40" fill="none" xmlns="http://www.w3.org/2000/svg"><path d="M13.545 4.350 C 13.247 4.512,8.261 9.433,8.056 9.767 C 7.910 10.006,7.896 10.468,8.028 10.723 C 8.178 11.012,8.694 11.450,8.991 11.539 C 9.517 11.696,9.715 11.560,11.450 9.844 L 13.000 8.311 13.001 21.639 C 13.003 34.596,13.006 34.974,13.130 35.246 C 13.303 35.628,13.646 35.800,14.233 35.800 C 14.765 35.800,15.143 35.631,15.315 35.316 C 15.425 35.115,15.436 34.664,15.467 28.767 L 15.500 22.433 15.653 22.100 C 15.831 21.713,16.264 21.242,16.602 21.067 C 17.085 20.817,17.486 20.800,22.727 20.800 L 27.829 20.800 26.322 22.317 C 25.493 23.151,24.763 23.936,24.700 24.061 C 24.449 24.559,24.679 25.166,25.284 25.605 C 25.498 25.760,25.623 25.800,25.895 25.800 C 26.100 25.800,26.303 25.756,26.402 25.691 C 26.687 25.502,31.603 20.579,31.781 20.304 C 31.900 20.120,31.961 19.917,31.984 19.623 C 32.044 18.881,32.002 18.827,29.086 15.925 C 26.343 13.194,26.273 13.138,25.750 13.223 C 25.212 13.310,24.600 13.977,24.600 14.475 C 24.600 14.612,24.632 14.809,24.671 14.912 C 24.710 15.016,25.466 15.827,26.352 16.717 L 27.963 18.333 22.598 18.334 C 19.204 18.334,17.076 18.360,16.806 18.404 C 16.436 18.464,16.011 18.590,15.583 18.766 C 15.473 18.812,15.467 18.538,15.467 13.562 L 15.467 8.311 17.017 9.844 C 18.751 11.560,18.949 11.696,19.475 11.539 C 19.773 11.450,20.289 11.012,20.438 10.723 C 20.560 10.489,20.560 10.045,20.439 9.811 C 20.291 9.525,15.234 4.519,14.922 4.350 C 14.720 4.240,14.535 4.200,14.233 4.200 C 13.932 4.200,13.747 4.240,13.545 4.350 " stroke="none" fill-rule="evenodd" fill="black"></path></svg>