<svg width="40" height="40" viewBox="0 0 40 40" fill="none" xmlns="http://www.w3.org/2000/svg"><path d="M19.596 2.223 C 19.429 2.269,19.200 2.372,19.087 2.452 C 18.975 2.532,17.742 3.763,16.347 5.188 C 14.235 7.347,13.798 7.826,13.729 8.056 C 13.608 8.457,13.729 8.803,14.131 9.204 C 14.519 9.592,14.859 9.708,15.283 9.598 C 15.528 9.535,15.782 9.309,17.150 7.933 L 18.733 6.342 18.733 11.757 L 18.733 17.172 18.117 17.289 C 15.363 17.809,12.869 19.676,11.531 22.219 C 11.155 22.933,10.795 23.919,10.638 24.667 C 10.432 25.645,10.394 26.898,10.414 32.033 C 10.433 36.962,10.437 37.106,10.567 37.326 C 10.749 37.635,10.993 37.803,11.359 37.872 C 11.970 37.986,12.499 37.781,12.767 37.326 C 12.896 37.106,12.901 36.944,12.938 31.300 C 12.965 27.061,12.997 25.419,13.057 25.200 C 13.469 23.673,14.045 22.630,15.004 21.671 C 17.393 19.281,21.091 18.911,23.917 20.779 C 25.417 21.770,26.407 23.216,26.943 25.200 C 27.003 25.419,27.035 27.061,27.062 31.300 C 27.099 36.944,27.104 37.106,27.233 37.326 C 27.415 37.635,27.660 37.803,28.025 37.872 C 28.637 37.986,29.165 37.781,29.433 37.326 C 29.563 37.106,29.567 36.961,29.587 32.033 C 29.612 25.715,29.570 25.073,29.030 23.511 C 28.252 21.256,26.583 19.322,24.447 18.197 C 23.669 17.788,22.692 17.442,21.878 17.288 L 21.267 17.172 21.267 11.757 L 21.267 6.342 22.850 7.933 C 24.218 9.309,24.472 9.535,24.717 9.598 C 25.141 9.708,25.481 9.592,25.870 9.203 C 26.258 8.815,26.376 8.473,26.264 8.057 C 26.200 7.820,25.814 7.397,23.593 5.128 C 21.758 3.255,20.913 2.438,20.715 2.344 C 20.332 2.164,19.959 2.123,19.596 2.223 " stroke="none" fill-rule="evenodd" fill="black"></path></svg>