<svg width="40" height="40" viewBox="0 0 40 40" fill="none" xmlns="http://www.w3.org/2000/svg"><path d="M25.533 3.773 C 25.262 3.890,24.830 4.288,24.695 4.547 C 24.573 4.778,24.573 5.222,24.695 5.453 C 24.747 5.552,25.482 6.323,26.330 7.167 L 27.870 8.700 19.818 8.737 C 10.779 8.778,11.503 8.735,10.433 9.287 C 9.668 9.681,8.865 10.495,8.480 11.267 C 7.967 12.293,7.997 11.455,8.016 24.148 C 8.035 36.650,8.002 35.739,8.446 36.038 C 8.846 36.307,9.681 36.297,10.057 36.018 C 10.458 35.721,10.430 36.537,10.467 24.167 L 10.500 12.833 10.642 12.525 C 10.838 12.103,11.226 11.691,11.629 11.478 L 11.967 11.300 19.897 11.282 L 27.827 11.265 26.323 12.782 C 25.496 13.617,24.770 14.396,24.710 14.513 C 24.575 14.776,24.568 15.211,24.695 15.457 C 24.844 15.746,25.361 16.183,25.658 16.272 C 26.194 16.433,26.258 16.382,29.071 13.568 C 31.969 10.668,32.032 10.587,31.983 9.864 C 31.961 9.547,31.907 9.357,31.783 9.164 C 31.690 9.019,30.492 7.784,29.121 6.420 C 26.262 3.575,26.162 3.501,25.533 3.773 " stroke="none" fill-rule="evenodd" fill="black"></path></svg>