<svg width="40" height="40" viewBox="0 0 40 40" fill="none" xmlns="http://www.w3.org/2000/svg"><path d="M25.079 4.350 C 24.779 4.514,19.794 9.430,19.592 9.763 C 19.443 10.006,19.429 10.467,19.562 10.723 C 19.711 11.012,20.227 11.450,20.525 11.539 C 21.051 11.696,21.249 11.560,22.983 9.844 L 24.533 8.311 24.533 13.562 C 24.533 18.538,24.527 18.812,24.417 18.766 C 23.989 18.590,23.564 18.464,23.194 18.404 C 22.924 18.360,20.796 18.334,17.402 18.334 L 12.037 18.333 13.648 16.717 C 14.534 15.828,15.290 15.016,15.329 14.912 C 15.368 14.809,15.400 14.612,15.400 14.474 C 15.400 13.983,14.781 13.309,14.250 13.223 C 13.727 13.138,13.657 13.194,10.914 15.925 C 7.998 18.827,7.956 18.881,8.016 19.623 C 8.039 19.917,8.100 20.120,8.219 20.304 C 8.397 20.579,13.313 25.502,13.598 25.691 C 13.697 25.756,13.900 25.800,14.105 25.800 C 14.943 25.800,15.655 24.764,15.300 24.061 C 15.237 23.936,14.507 23.151,13.678 22.317 L 12.171 20.800 17.273 20.800 C 22.514 20.800,22.915 20.817,23.398 21.067 C 23.736 21.242,24.169 21.713,24.347 22.100 L 24.500 22.433 24.533 28.767 C 24.564 34.664,24.575 35.115,24.685 35.316 C 24.857 35.631,25.235 35.800,25.767 35.800 C 26.354 35.800,26.697 35.628,26.870 35.246 C 26.994 34.974,26.997 34.596,26.999 21.639 L 27.000 8.311 28.550 9.844 C 30.285 11.560,30.483 11.696,31.009 11.539 C 31.329 11.443,31.810 11.020,31.960 10.704 C 32.092 10.427,32.097 10.052,31.973 9.813 C 31.825 9.527,26.767 4.518,26.456 4.350 C 26.254 4.240,26.068 4.200,25.767 4.200 C 25.465 4.200,25.280 4.240,25.079 4.350 " stroke="none" fill-rule="evenodd" fill="black"></path></svg>