<svg width="40" height="40" viewBox="0 0 40 40" fill="none" xmlns="http://www.w3.org/2000/svg"><path d="M7.979 3.796 C 7.408 3.910,7.114 4.320,7.114 5.000 C 7.114 5.696,7.405 6.088,8.009 6.205 C 8.169 6.236,9.003 6.262,9.862 6.264 L 11.425 6.267 10.850 6.659 C 7.399 9.014,4.946 12.750,4.145 16.871 C 3.954 17.849,3.927 18.095,3.870 19.300 C 3.681 23.319,4.943 27.163,7.468 30.264 C 10.080 33.472,13.650 35.490,17.819 36.113 C 18.860 36.269,21.281 36.267,22.333 36.111 C 29.471 35.047,34.993 29.614,36.098 22.567 C 36.311 21.210,36.341 19.191,36.169 17.900 C 36.006 16.686,35.621 15.189,35.196 14.123 C 33.975 11.059,31.964 8.515,29.315 6.683 L 28.729 6.278 30.415 6.256 C 31.957 6.235,32.119 6.222,32.326 6.100 C 32.635 5.918,32.803 5.674,32.872 5.308 C 32.986 4.696,32.781 4.168,32.326 3.900 C 32.108 3.771,31.980 3.767,28.567 3.767 C 24.590 3.767,24.630 3.762,24.179 4.262 C 23.762 4.723,23.767 4.676,23.767 8.567 C 23.767 11.980,23.771 12.108,23.900 12.326 C 24.168 12.781,24.696 12.986,25.308 12.872 C 25.674 12.803,25.918 12.635,26.100 12.326 C 26.225 12.115,26.235 11.958,26.255 9.950 C 26.267 8.767,26.298 7.800,26.325 7.800 C 26.420 7.800,27.614 8.534,28.163 8.931 C 28.822 9.406,29.964 10.465,30.514 11.110 C 32.149 13.025,33.163 15.214,33.646 17.867 C 33.793 18.677,33.811 21.153,33.676 22.000 C 33.193 25.027,31.939 27.528,29.825 29.680 C 27.465 32.081,24.430 33.478,21.015 33.735 C 17.064 34.032,13.127 32.541,10.307 29.680 C 8.488 27.835,7.356 25.822,6.738 23.333 C 6.423 22.066,6.367 21.551,6.369 19.967 C 6.371 18.411,6.430 17.909,6.768 16.586 C 7.653 13.129,9.875 10.157,12.997 8.251 C 13.344 8.040,13.650 7.867,13.676 7.867 C 13.702 7.867,13.733 8.819,13.745 9.983 C 13.765 11.958,13.776 12.115,13.900 12.326 C 14.082 12.635,14.326 12.803,14.692 12.872 C 15.304 12.986,15.832 12.781,16.100 12.326 C 16.229 12.108,16.233 11.980,16.233 8.567 C 16.233 5.763,16.215 4.981,16.143 4.778 C 16.018 4.424,15.690 4.071,15.333 3.906 C 15.043 3.771,14.927 3.766,11.633 3.756 C 9.763 3.751,8.119 3.769,7.979 3.796 " stroke="none" fill-rule="evenodd" fill="black"></path></svg>