<svg width="40" height="40" viewBox="0 0 40 40" fill="none" xmlns="http://www.w3.org/2000/svg"><path d="M21.663 3.807 C 18.232 4.119,15.250 6.507,14.198 9.784 C 13.778 11.093,13.784 11.006,13.752 16.726 L 13.724 21.951 12.145 20.382 C 10.766 19.011,10.529 18.803,10.269 18.734 C 9.848 18.621,9.529 18.732,9.130 19.130 C 8.732 19.528,8.621 19.847,8.733 20.269 C 8.803 20.536,9.083 20.839,11.423 23.185 C 13.252 25.021,14.121 25.847,14.327 25.946 C 14.721 26.137,15.279 26.137,15.673 25.946 C 15.879 25.847,16.748 25.021,18.577 23.185 C 21.448 20.306,21.428 20.332,21.265 19.725 C 21.167 19.364,20.647 18.839,20.275 18.728 C 19.723 18.562,19.606 18.642,17.848 20.390 L 16.262 21.965 16.282 16.666 L 16.301 11.367 16.484 10.780 C 17.151 8.651,18.669 7.134,20.780 6.489 C 21.317 6.325,21.463 6.309,22.500 6.308 C 23.547 6.306,23.678 6.320,24.220 6.487 C 26.324 7.136,27.856 8.663,28.513 10.767 L 28.700 11.367 28.733 23.400 C 28.766 35.283,28.768 35.436,28.900 35.660 C 29.082 35.969,29.326 36.137,29.692 36.205 C 30.304 36.319,30.832 36.115,31.100 35.660 C 31.232 35.436,31.234 35.295,31.253 24.100 C 31.274 12.126,31.262 11.523,30.972 10.380 C 29.902 6.162,26.006 3.411,21.663 3.807 " stroke="none" fill-rule="evenodd" fill="black"></path></svg>