<svg width="40" height="40" viewBox="0 0 40 40" fill="none" xmlns="http://www.w3.org/2000/svg"><path d="M13.008 3.740 C 12.770 3.812,12.406 4.151,9.230 7.265 C 8.070 8.403,7.384 9.126,7.305 9.294 C 7.145 9.638,7.142 10.295,7.301 10.604 C 7.471 10.935,7.406 10.867,10.204 13.644 C 13.021 16.440,13.004 16.427,13.608 16.265 C 13.977 16.165,14.498 15.644,14.598 15.275 C 14.753 14.699,14.683 14.597,12.946 12.850 L 11.373 11.267 14.217 11.267 C 16.906 11.267,17.081 11.274,17.421 11.401 C 17.853 11.563,18.362 12.039,18.561 12.467 C 18.700 12.766,18.700 12.782,18.733 24.133 L 18.767 35.500 18.912 35.733 C 19.145 36.107,19.419 36.233,20.000 36.233 C 20.581 36.233,20.855 36.107,21.088 35.733 L 21.233 35.500 21.267 24.133 C 21.300 12.782,21.300 12.766,21.439 12.467 C 21.638 12.039,22.147 11.563,22.579 11.401 C 22.919 11.274,23.094 11.267,25.783 11.267 L 28.627 11.267 27.054 12.850 C 25.315 14.600,25.247 14.699,25.398 15.260 C 25.502 15.644,26.015 16.163,26.392 16.265 C 26.997 16.427,26.979 16.441,29.796 13.644 C 31.206 12.245,32.399 11.055,32.448 11.000 C 32.842 10.554,32.937 9.797,32.665 9.264 C 32.525 8.988,31.259 7.712,28.093 4.654 C 27.113 3.708,26.879 3.582,26.378 3.732 C 26.012 3.842,25.498 4.371,25.398 4.740 C 25.244 5.314,25.303 5.399,27.085 7.144 L 28.696 8.722 25.631 8.750 C 22.243 8.781,22.208 8.785,21.300 9.232 C 21.043 9.358,20.646 9.616,20.417 9.805 L 20.000 10.149 19.583 9.805 C 19.354 9.616,18.957 9.358,18.700 9.232 C 17.798 8.788,17.751 8.783,14.375 8.739 L 11.317 8.700 12.854 7.214 C 14.529 5.594,14.715 5.349,14.634 4.869 C 14.547 4.355,13.950 3.760,13.459 3.700 C 13.335 3.685,13.132 3.703,13.008 3.740 " stroke="none" fill-rule="evenodd" fill="black"></path></svg>