<svg width="40" height="40" viewBox="0 0 40 40" fill="none" xmlns="http://www.w3.org/2000/svg"><path d="M9.675 3.743 C 9.436 3.812,9.105 4.121,5.896 7.266 C 4.730 8.409,4.050 9.126,3.971 9.294 C 3.811 9.638,3.809 10.295,3.968 10.604 C 4.139 10.937,4.081 10.876,6.870 13.644 C 9.688 16.439,9.671 16.427,10.275 16.265 C 10.644 16.165,11.165 15.644,11.265 15.275 C 11.419 14.699,11.350 14.597,9.613 12.850 L 8.039 11.267 10.884 11.267 C 13.573 11.267,13.748 11.274,14.088 11.401 C 14.520 11.563,15.029 12.039,15.227 12.467 C 15.366 12.766,15.367 12.782,15.400 24.100 C 15.433 35.283,15.435 35.436,15.567 35.660 C 15.835 36.115,16.363 36.319,16.975 36.205 C 17.340 36.137,17.585 35.969,17.767 35.660 C 17.899 35.436,17.900 35.313,17.900 24.033 C 17.900 13.360,17.893 12.606,17.783 12.200 C 17.436 10.918,16.527 9.802,15.367 9.232 C 14.458 8.785,14.424 8.781,11.036 8.750 L 7.971 8.722 9.582 7.144 C 10.987 5.768,11.202 5.531,11.266 5.283 C 11.362 4.907,11.268 4.570,10.967 4.219 C 10.725 3.936,10.255 3.662,10.029 3.673 C 9.958 3.676,9.799 3.708,9.675 3.743 M29.549 3.804 C 29.187 3.987,28.819 4.415,28.726 4.760 C 28.578 5.311,28.649 5.411,30.418 7.144 L 32.029 8.722 28.964 8.750 C 25.576 8.781,25.542 8.785,24.633 9.232 C 23.473 9.802,22.564 10.918,22.217 12.200 C 22.107 12.606,22.100 13.360,22.100 24.033 C 22.100 35.313,22.101 35.436,22.233 35.660 C 22.501 36.115,23.030 36.319,23.641 36.205 C 24.007 36.137,24.251 35.969,24.433 35.660 C 24.565 35.436,24.567 35.283,24.600 24.100 C 24.633 12.782,24.634 12.766,24.773 12.467 C 24.971 12.039,25.480 11.563,25.912 11.401 C 26.252 11.274,26.427 11.267,29.116 11.267 L 31.961 11.267 30.387 12.850 C 28.648 14.600,28.580 14.699,28.732 15.260 C 28.835 15.644,29.349 16.163,29.725 16.265 C 30.330 16.427,30.312 16.441,33.130 13.644 C 34.539 12.245,35.733 11.055,35.781 11.000 C 36.193 10.535,36.275 9.776,35.973 9.224 C 35.849 8.998,35.030 8.155,33.259 6.433 C 31.864 5.077,30.642 3.916,30.544 3.853 C 30.237 3.659,29.871 3.641,29.549 3.804 " stroke="none" fill-rule="evenodd" fill="black"></path></svg>