<svg width="40" height="40" viewBox="0 0 40 40" fill="none" xmlns="http://www.w3.org/2000/svg"><path d="M13.003 3.745 C 12.840 3.792,12.447 4.128,11.669 4.887 C 8.707 7.777,7.513 8.989,7.387 9.231 C 7.205 9.581,7.197 10.202,7.370 10.567 C 7.557 10.961,12.526 16.019,12.908 16.204 C 13.272 16.380,13.617 16.337,13.989 16.067 C 14.502 15.695,14.727 15.204,14.599 14.730 C 14.539 14.506,14.254 14.178,12.995 12.879 L 11.464 11.300 19.262 11.283 C 26.945 11.266,27.066 11.268,27.420 11.401 C 27.853 11.563,28.362 12.039,28.561 12.467 C 28.700 12.766,28.700 12.782,28.733 24.100 C 28.766 35.283,28.768 35.436,28.900 35.660 C 29.082 35.969,29.326 36.137,29.692 36.205 C 30.304 36.319,30.832 36.115,31.100 35.660 C 31.232 35.436,31.233 35.313,31.233 24.033 C 31.233 13.360,31.226 12.606,31.116 12.200 C 30.684 10.607,29.442 9.352,27.833 8.886 C 27.465 8.779,26.792 8.769,19.375 8.749 L 11.317 8.728 12.922 7.147 C 14.321 5.770,14.537 5.530,14.600 5.283 C 14.696 4.906,14.601 4.570,14.301 4.219 C 14.058 3.936,13.588 3.662,13.362 3.673 C 13.291 3.676,13.130 3.708,13.003 3.745 " stroke="none" fill-rule="evenodd" fill="black"></path></svg>