<svg width="40" height="40" viewBox="0 0 40 40" fill="none" xmlns="http://www.w3.org/2000/svg"><path d="M15.827 4.060 C 15.676 4.129,15.493 4.270,15.419 4.376 C 15.345 4.481,14.287 6.337,13.068 8.500 C 11.848 10.663,10.821 12.470,10.786 12.514 C 10.737 12.576,9.888 12.600,7.310 12.614 L 3.900 12.633 3.482 12.860 C 2.711 13.278,2.269 13.966,2.216 14.830 C 2.190 15.271,2.328 15.861,4.463 24.400 C 6.208 31.380,6.790 33.609,6.959 33.967 C 7.371 34.838,8.165 35.526,9.097 35.819 L 9.567 35.967 20.000 35.967 L 30.433 35.967 30.903 35.819 C 31.835 35.526,32.629 34.838,33.041 33.967 C 33.210 33.609,33.792 31.380,35.537 24.400 C 37.672 15.861,37.810 15.271,37.784 14.830 C 37.731 13.966,37.289 13.278,36.518 12.860 L 36.100 12.633 32.404 12.600 L 28.708 12.567 26.428 8.533 C 25.174 6.315,24.062 4.406,23.957 4.291 C 23.561 3.857,23.039 3.847,22.387 4.261 C 21.815 4.623,21.705 5.153,22.058 5.847 C 22.166 6.059,23.052 7.641,24.027 9.361 C 25.002 11.082,25.800 12.514,25.800 12.545 C 25.800 12.575,23.067 12.600,19.726 12.600 C 14.321 12.600,13.657 12.589,13.691 12.499 C 13.713 12.443,14.523 10.993,15.492 9.276 C 17.656 5.442,17.600 5.551,17.600 5.151 C 17.600 4.700,17.380 4.401,16.858 4.139 C 16.382 3.902,16.206 3.888,15.827 4.060 M35.267 15.134 C 35.267 15.171,34.272 19.178,33.057 24.040 C 30.684 33.529,30.807 33.113,30.309 33.386 C 30.114 33.492,29.413 33.500,20.000 33.500 C 10.587 33.500,9.886 33.492,9.691 33.386 C 9.193 33.113,9.316 33.529,6.943 24.040 C 5.728 19.178,4.733 15.171,4.733 15.134 C 4.733 15.091,9.978 15.068,20.000 15.068 C 30.036 15.068,35.267 15.091,35.267 15.134 " stroke="none" fill-rule="evenodd" fill="black"></path></svg>