<svg width="40" height="40" viewBox="0 0 40 40" fill="none" xmlns="http://www.w3.org/2000/svg"><path d="M2.138 3.516 C 1.835 3.672,1.665 3.916,1.593 4.300 C 1.478 4.916,1.681 5.495,2.090 5.718 C 2.277 5.821,2.590 5.835,4.971 5.853 L 7.642 5.872 10.160 16.819 C 11.637 23.240,12.739 27.889,12.823 28.063 C 12.991 28.409,13.208 28.585,13.572 28.670 C 13.904 28.746,34.926 28.748,35.324 28.671 C 35.683 28.602,35.921 28.430,36.078 28.127 C 36.241 27.813,38.493 11.233,38.427 10.834 C 38.361 10.438,38.000 10.104,37.533 10.007 C 37.265 9.951,33.680 9.936,24.158 9.949 L 11.148 9.967 10.499 7.133 C 10.142 5.575,9.797 4.177,9.733 4.027 C 9.669 3.877,9.516 3.682,9.392 3.594 L 9.167 3.433 5.767 3.416 C 2.629 3.400,2.349 3.407,2.138 3.516 M34.856 19.217 C 34.352 22.929,33.938 26.019,33.936 26.083 C 33.933 26.194,33.434 26.200,24.411 26.200 L 14.890 26.200 13.333 19.450 C 12.477 15.737,11.763 12.648,11.747 12.583 C 11.719 12.473,12.324 12.467,23.745 12.467 L 35.773 12.467 34.856 19.217 M16.653 29.929 C 15.209 30.390,14.265 31.681,14.267 33.190 C 14.269 34.167,14.545 34.875,15.183 35.545 C 15.903 36.300,16.611 36.610,17.633 36.617 C 18.636 36.625,19.419 36.312,20.099 35.632 C 20.778 34.952,21.091 34.169,21.084 33.167 C 21.076 32.145,20.766 31.436,20.012 30.717 C 19.594 30.318,19.092 30.031,18.567 29.891 C 18.085 29.762,17.115 29.781,16.653 29.929 M28.218 29.903 C 27.202 30.176,26.234 31.053,25.900 32.001 C 25.722 32.506,25.656 33.176,25.732 33.730 C 25.903 34.989,26.894 36.131,28.129 36.494 C 28.651 36.647,29.609 36.634,30.153 36.466 C 31.834 35.947,32.842 34.151,32.431 32.406 C 32.144 31.191,31.068 30.123,29.880 29.874 C 29.405 29.775,28.645 29.788,28.218 29.903 M17.934 32.333 C 18.122 32.333,18.449 32.644,18.535 32.907 C 18.825 33.785,17.779 34.489,17.070 33.892 C 16.713 33.592,16.673 32.986,16.985 32.603 C 17.112 32.447,17.583 32.255,17.722 32.303 C 17.771 32.320,17.866 32.333,17.934 32.333 M29.534 32.391 C 29.978 32.628,30.145 33.193,29.908 33.652 C 29.690 34.072,29.152 34.244,28.710 34.034 C 28.006 33.700,28.041 32.683,28.767 32.361 C 29.045 32.237,29.263 32.246,29.534 32.391 " stroke="none" fill-rule="evenodd" fill="black"></path></svg>