<svg width="40" height="40" viewBox="0 0 40 40" fill="none" xmlns="http://www.w3.org/2000/svg"><path d="M6.028 7.138 C 5.054 7.254,4.197 7.685,3.441 8.441 C 2.637 9.245,2.251 10.054,2.129 11.189 C 2.084 11.611,2.067 14.813,2.082 20.467 C 2.106 30.078,2.071 29.362,2.565 30.367 C 3.136 31.527,4.252 32.436,5.533 32.783 C 5.941 32.893,6.813 32.900,20.000 32.900 C 33.187 32.900,34.059 32.893,34.467 32.783 C 36.076 32.347,37.347 31.076,37.783 29.467 C 37.892 29.063,37.900 28.415,37.900 20.000 C 37.900 11.585,37.892 10.937,37.783 10.533 C 37.351 8.940,36.113 7.690,34.500 7.218 C 34.125 7.109,33.242 7.101,20.300 7.092 C 12.710 7.087,6.287 7.108,6.028 7.138 M34.090 9.735 C 34.574 9.916,35.084 10.426,35.265 10.910 C 35.383 11.225,35.400 11.429,35.400 12.503 L 35.400 13.733 20.000 13.733 L 4.600 13.733 4.600 12.503 C 4.600 11.429,4.617 11.225,4.735 10.910 C 4.911 10.439,5.427 9.917,5.891 9.739 C 6.228 9.609,6.457 9.607,19.981 9.603 C 33.636 9.600,33.731 9.601,34.090 9.735 M35.400 22.497 C 35.400 28.595,35.397 28.736,35.265 29.090 C 35.084 29.574,34.574 30.084,34.090 30.265 C 33.731 30.399,33.631 30.400,20.000 30.400 C 6.369 30.400,6.269 30.399,5.910 30.265 C 5.426 30.084,4.916 29.574,4.735 29.090 C 4.603 28.736,4.600 28.595,4.600 22.497 L 4.600 16.267 20.000 16.267 L 35.400 16.267 35.400 22.497 M7.979 20.463 C 7.408 20.576,7.114 20.986,7.114 21.667 C 7.114 22.436,7.459 22.821,8.219 22.899 C 8.447 22.923,10.913 22.932,13.700 22.921 C 18.627 22.901,18.773 22.896,18.993 22.767 C 19.302 22.585,19.470 22.340,19.538 21.975 C 19.653 21.363,19.448 20.835,18.993 20.567 C 18.772 20.437,18.637 20.433,13.500 20.423 C 10.603 20.418,8.119 20.436,7.979 20.463 M7.979 25.464 C 7.409 25.576,7.114 25.986,7.114 26.667 C 7.114 27.437,7.459 27.821,8.219 27.899 C 8.447 27.922,12.038 27.932,16.200 27.920 C 23.628 27.900,23.771 27.898,23.993 27.767 C 24.302 27.585,24.470 27.340,24.538 26.975 C 24.653 26.363,24.448 25.835,23.993 25.567 C 23.770 25.436,23.638 25.433,16.000 25.424 C 11.728 25.418,8.119 25.436,7.979 25.464 " stroke="none" fill-rule="evenodd" fill="black"></path></svg>