<svg width="40" height="40" viewBox="0 0 40 40" fill="none" xmlns="http://www.w3.org/2000/svg"><path d="M5.633 6.343 C 5.450 6.378,5.015 6.544,4.667 6.712 C 4.133 6.969,3.943 7.109,3.461 7.592 C 2.820 8.235,2.490 8.767,2.256 9.533 L 2.104 10.033 2.082 18.267 C 2.067 23.650,2.084 26.723,2.129 27.145 C 2.251 28.279,2.637 29.088,3.441 29.892 C 4.264 30.715,5.065 31.089,6.265 31.212 L 6.975 31.284 7.089 31.605 C 7.263 32.095,7.818 32.876,8.326 33.345 C 8.892 33.869,9.475 34.217,10.167 34.447 C 10.649 34.608,10.796 34.625,11.700 34.625 C 12.604 34.625,12.751 34.608,13.233 34.447 C 13.925 34.217,14.508 33.869,15.074 33.345 C 15.578 32.880,16.120 32.121,16.304 31.623 C 16.369 31.445,16.451 31.262,16.486 31.217 C 16.535 31.152,17.242 31.134,19.625 31.134 L 22.700 31.135 23.011 31.784 C 23.851 33.538,25.352 34.556,27.231 34.649 C 28.219 34.697,28.889 34.564,29.733 34.151 C 30.274 33.886,30.460 33.748,31.005 33.204 C 31.536 32.674,31.695 32.465,31.943 31.967 C 32.108 31.637,32.260 31.299,32.282 31.217 L 32.321 31.067 34.610 31.066 L 36.900 31.065 37.237 30.872 C 37.660 30.629,37.913 30.268,38.004 29.775 C 38.052 29.518,38.067 27.919,38.049 24.945 C 38.020 20.009,38.034 20.166,37.560 19.267 C 37.297 18.767,33.710 13.952,33.185 13.393 C 32.791 12.973,32.118 12.597,31.547 12.475 C 31.334 12.430,30.468 12.400,29.371 12.400 L 27.548 12.400 27.518 11.150 C 27.491 10.027,27.471 9.846,27.313 9.367 C 26.881 8.051,25.737 6.906,24.400 6.448 L 23.967 6.300 14.967 6.290 C 9.566 6.284,5.833 6.306,5.633 6.343 M23.658 8.857 C 24.244 9.080,24.752 9.588,24.954 10.154 C 25.008 10.305,25.040 12.179,25.065 16.600 C 25.103 23.453,25.079 23.079,25.513 23.372 C 25.912 23.641,26.747 23.630,27.124 23.352 C 27.507 23.068,27.497 23.172,27.533 18.867 L 27.567 14.900 29.188 14.882 C 30.168 14.871,30.913 14.892,31.069 14.934 C 31.311 14.999,31.469 15.191,33.352 17.696 C 34.631 19.398,35.405 20.486,35.454 20.652 C 35.511 20.842,35.533 21.992,35.533 24.759 L 35.533 28.602 33.959 28.585 L 32.385 28.567 32.271 28.200 C 32.038 27.445,31.672 26.868,31.002 26.196 C 30.458 25.650,30.276 25.515,29.733 25.249 C 28.889 24.836,28.219 24.703,27.231 24.751 C 25.787 24.823,24.557 25.446,23.647 26.568 C 23.290 27.008,22.767 28.026,22.696 28.417 L 22.652 28.668 19.623 28.651 L 16.594 28.633 16.414 28.097 C 16.156 27.332,15.848 26.849,15.200 26.201 C 14.560 25.560,14.012 25.212,13.233 24.952 C 12.750 24.790,12.607 24.773,11.700 24.773 C 10.793 24.773,10.650 24.790,10.167 24.952 C 9.389 25.212,8.840 25.560,8.200 26.200 C 7.547 26.853,7.201 27.405,6.957 28.183 L 6.784 28.733 6.528 28.733 C 5.828 28.733,4.999 28.128,4.735 27.423 C 4.602 27.067,4.600 26.939,4.600 18.743 C 4.600 9.387,4.562 10.080,5.115 9.464 C 5.427 9.117,5.663 8.959,6.067 8.825 C 6.239 8.768,8.543 8.745,14.816 8.740 C 22.965 8.734,23.346 8.739,23.658 8.857 M12.652 27.413 C 12.913 27.510,13.139 27.670,13.435 27.965 C 13.971 28.502,14.152 28.940,14.152 29.700 C 14.152 30.460,13.971 30.898,13.435 31.435 C 12.898 31.971,12.460 32.152,11.700 32.152 C 10.940 32.152,10.502 31.971,9.965 31.435 C 9.429 30.898,9.248 30.460,9.248 29.700 C 9.248 28.959,9.428 28.511,9.934 27.994 C 10.674 27.238,11.635 27.032,12.652 27.413 M28.459 27.415 C 28.968 27.606,29.525 28.143,29.775 28.686 C 29.941 29.045,29.967 29.180,29.967 29.700 C 29.967 30.476,29.762 30.958,29.208 31.487 C 28.230 32.420,26.767 32.405,25.785 31.451 C 24.807 30.501,24.807 28.899,25.785 27.949 C 26.523 27.232,27.466 27.044,28.459 27.415 " stroke="none" fill-rule="evenodd" fill="black"></path></svg>