<svg width="40" height="40" viewBox="0 0 40 40" fill="none" xmlns="http://www.w3.org/2000/svg"><path d="M26.889 3.832 C 26.227 3.952,25.793 4.102,25.129 4.442 C 24.439 4.795,24.250 4.950,21.651 7.289 C 20.524 8.303,19.584 9.133,19.563 9.133 C 19.542 9.133,18.781 8.477,17.872 7.674 C 15.710 5.765,15.482 5.586,14.769 5.235 C 13.785 4.750,13.279 4.638,12.067 4.635 C 10.927 4.633,10.489 4.714,9.633 5.083 C 7.809 5.870,6.438 7.547,6.039 9.481 C 5.981 9.763,5.933 10.097,5.933 10.222 L 5.933 10.450 5.417 10.480 C 4.662 10.525,4.212 10.797,3.891 11.400 C 3.776 11.617,3.765 11.861,3.746 14.826 C 3.733 16.961,3.750 18.131,3.799 18.359 C 3.897 18.817,4.157 19.172,4.563 19.406 C 4.897 19.597,4.911 19.599,5.980 19.599 L 7.060 19.600 7.083 26.017 C 7.107 33.147,7.080 32.714,7.565 33.700 C 8.134 34.859,9.252 35.769,10.533 36.116 C 10.937 36.225,11.585 36.233,20.000 36.233 C 28.415 36.233,29.063 36.225,29.467 36.116 C 30.748 35.769,31.864 34.861,32.435 33.700 C 32.920 32.715,32.893 33.147,32.917 26.017 L 32.940 19.600 34.020 19.599 C 35.089 19.599,35.103 19.597,35.437 19.406 C 35.859 19.163,36.113 18.802,36.203 18.312 C 36.249 18.068,36.267 16.799,36.254 14.782 C 36.234 11.703,36.230 11.627,36.089 11.367 C 35.778 10.790,35.326 10.524,34.583 10.480 L 34.067 10.450 34.067 9.762 C 34.067 8.595,33.762 7.557,33.130 6.573 C 31.780 4.471,29.321 3.391,26.889 3.832 M29.097 6.410 C 30.020 6.720,30.815 7.420,31.225 8.286 C 31.501 8.867,31.600 9.311,31.600 9.970 L 31.600 10.467 26.717 10.465 C 22.079 10.464,21.841 10.458,21.977 10.349 C 22.056 10.285,22.921 9.513,23.899 8.633 C 24.877 7.753,25.823 6.935,26.001 6.815 C 26.869 6.231,28.088 6.071,29.097 6.410 M12.884 7.196 C 13.793 7.428,13.860 7.474,15.895 9.265 L 17.223 10.433 12.834 10.450 C 10.420 10.460,8.434 10.456,8.419 10.442 C 8.359 10.381,8.618 9.467,8.804 9.085 C 9.197 8.280,10.036 7.550,10.887 7.274 C 11.633 7.032,12.163 7.012,12.884 7.196 M33.733 15.033 L 33.733 17.132 20.000 17.132 L 6.267 17.132 6.267 15.033 L 6.267 12.935 20.000 12.935 L 33.733 12.935 33.733 15.033 M30.400 25.831 C 30.400 31.929,30.397 32.069,30.265 32.423 C 30.084 32.907,29.574 33.417,29.090 33.598 C 28.733 33.731,28.607 33.733,20.000 33.733 C 11.393 33.733,11.267 33.731,10.910 33.598 C 10.426 33.417,9.916 32.907,9.735 32.423 C 9.603 32.069,9.600 31.929,9.600 25.831 L 9.600 19.600 20.000 19.600 L 30.400 19.600 30.400 25.831 " stroke="none" fill-rule="evenodd" fill="black"></path></svg>