<svg width="40" height="40" viewBox="0 0 40 40" fill="none" xmlns="http://www.w3.org/2000/svg"><path d="M6.239 3.832 C 5.749 4.007,5.639 4.189,4.993 5.904 C 0.642 17.450,0.583 17.611,0.583 18.044 C 0.583 18.548,0.798 18.968,1.208 19.265 C 1.604 19.551,1.975 19.600,3.770 19.600 L 5.400 19.600 5.400 26.696 L 5.400 33.792 4.117 33.813 C 2.700 33.835,2.547 33.872,2.295 34.246 C 2.026 34.646,2.036 35.481,2.315 35.857 C 2.615 36.263,1.227 36.235,19.925 36.216 C 36.543 36.199,37.025 36.195,37.303 36.072 C 37.460 36.003,37.641 35.867,37.704 35.770 C 37.966 35.371,37.966 34.568,37.705 34.180 C 37.456 33.810,37.295 33.770,35.900 33.733 L 34.633 33.700 34.616 26.650 L 34.599 19.600 36.191 19.600 C 37.066 19.600,37.943 19.570,38.141 19.532 C 38.619 19.442,38.989 19.166,39.222 18.724 C 39.583 18.042,39.659 18.298,36.932 11.034 C 34.305 4.037,34.399 4.248,33.771 3.912 L 33.500 3.767 20.000 3.753 C 8.554 3.741,6.460 3.753,6.239 3.832 M34.500 11.667 L 36.513 17.033 33.425 17.051 L 30.337 17.068 27.939 15.471 C 26.620 14.593,25.419 13.838,25.270 13.793 C 25.058 13.730,24.942 13.730,24.730 13.793 C 24.581 13.838,23.471 14.532,22.263 15.337 C 21.054 16.142,20.036 16.800,20.000 16.800 C 19.964 16.800,18.946 16.142,17.737 15.337 C 16.529 14.532,15.419 13.838,15.270 13.793 C 15.058 13.730,14.942 13.730,14.730 13.793 C 14.581 13.838,13.381 14.593,12.062 15.470 L 9.665 17.067 6.559 17.067 C 3.627 17.067,3.455 17.060,3.500 16.950 C 3.526 16.886,4.411 14.538,5.467 11.733 C 6.524 8.928,7.420 6.551,7.459 6.450 L 7.530 6.266 20.009 6.283 L 32.487 6.300 34.500 11.667 M17.263 17.996 C 18.471 18.801,19.581 19.496,19.730 19.540 C 19.942 19.604,20.058 19.604,20.270 19.540 C 20.419 19.496,21.529 18.801,22.737 17.996 C 23.946 17.192,24.965 16.533,25.001 16.533 C 25.038 16.533,26.006 17.159,27.153 17.924 C 28.299 18.689,29.341 19.371,29.468 19.439 C 29.663 19.544,29.886 19.567,30.873 19.588 L 32.046 19.613 32.090 20.817 C 32.114 21.479,32.133 24.657,32.133 27.877 L 32.133 33.733 30.035 33.733 L 27.937 33.733 27.919 28.517 C 27.900 23.391,27.898 23.295,27.761 23.000 C 27.596 22.643,27.243 22.315,26.889 22.190 C 26.511 22.057,13.489 22.057,13.111 22.190 C 12.757 22.315,12.404 22.643,12.239 23.000 C 12.102 23.295,12.100 23.391,12.081 28.550 L 12.063 33.800 10.009 33.800 L 7.954 33.800 7.910 32.689 C 7.886 32.078,7.867 28.886,7.867 25.596 L 7.867 19.613 9.083 19.588 C 10.177 19.566,10.327 19.549,10.567 19.419 C 10.713 19.339,11.748 18.660,12.867 17.908 C 13.985 17.157,14.937 16.540,14.983 16.538 C 15.028 16.535,16.054 17.192,17.263 17.996 M18.733 29.167 L 18.733 33.733 17.477 33.733 C 16.786 33.733,15.856 33.753,15.410 33.777 L 14.600 33.820 14.600 29.210 L 14.600 24.600 16.667 24.600 L 18.733 24.600 18.733 29.167 M25.400 29.167 L 25.400 33.733 23.333 33.733 L 21.267 33.733 21.267 29.167 L 21.267 24.600 23.333 24.600 L 25.400 24.600 25.400 29.167 " stroke="none" fill-rule="evenodd" fill="black"></path></svg>