<svg width="40" height="40" viewBox="0 0 40 40" fill="none" xmlns="http://www.w3.org/2000/svg"><path d="M10.038 2.337 C 9.084 2.498,8.362 2.890,7.593 3.663 C 7.140 4.119,6.962 4.358,6.742 4.803 C 6.233 5.835,6.269 4.604,6.268 21.159 C 6.267 32.245,6.286 36.083,6.344 36.276 C 6.454 36.642,6.835 37.058,7.230 37.242 C 7.675 37.449,8.129 37.449,8.567 37.240 C 8.751 37.152,9.956 36.210,11.255 35.140 C 12.551 34.072,13.642 33.218,13.681 33.242 C 13.719 33.266,15.000 34.230,16.526 35.385 C 18.051 36.539,19.400 37.527,19.523 37.579 C 19.849 37.718,20.468 37.702,20.812 37.547 C 20.975 37.474,22.168 36.500,23.558 35.306 L 26.015 33.196 26.258 33.379 C 26.391 33.479,27.535 34.356,28.800 35.328 C 30.065 36.299,31.230 37.167,31.388 37.255 C 31.606 37.378,31.776 37.417,32.088 37.416 C 32.783 37.416,33.297 37.100,33.576 36.503 L 33.732 36.167 33.732 21.233 C 33.731 4.592,33.767 5.836,33.257 4.800 C 32.881 4.037,32.008 3.151,31.267 2.779 C 30.237 2.264,31.175 2.305,20.200 2.292 C 14.792 2.286,10.219 2.306,10.038 2.337 M29.458 4.803 C 29.692 4.841,29.992 4.928,30.125 4.997 C 30.469 5.175,30.901 5.644,31.080 6.033 L 31.233 6.367 31.251 20.183 C 31.260 27.782,31.245 33.999,31.217 33.999 C 31.190 33.998,30.207 33.259,29.033 32.356 C 27.860 31.454,26.780 30.660,26.633 30.592 C 26.280 30.429,25.715 30.433,25.347 30.600 C 25.189 30.671,23.972 31.662,22.627 32.815 C 21.289 33.962,20.169 34.909,20.138 34.920 C 20.107 34.931,18.840 34.001,17.324 32.854 C 15.807 31.707,14.434 30.700,14.272 30.617 C 13.904 30.429,13.347 30.418,12.967 30.591 C 12.820 30.658,11.845 31.416,10.800 32.276 C 9.755 33.135,8.862 33.862,8.816 33.890 C 8.748 33.932,8.735 31.239,8.749 20.154 L 8.767 6.367 8.920 6.033 C 9.100 5.642,9.532 5.175,9.881 4.994 C 10.017 4.924,10.287 4.840,10.481 4.808 C 10.997 4.722,28.930 4.718,29.458 4.803 M11.154 9.263 C 10.772 9.436,10.600 9.779,10.600 10.367 C 10.600 10.954,10.772 11.297,11.154 11.470 C 11.423 11.592,11.696 11.597,18.433 11.598 C 22.843 11.599,25.521 11.575,25.670 11.533 C 26.643 11.263,26.643 9.470,25.670 9.200 C 25.521 9.158,22.843 9.134,18.433 9.135 C 11.696 9.136,11.423 9.141,11.154 9.263 M11.154 15.930 C 10.772 16.103,10.600 16.446,10.600 17.033 C 10.600 17.621,10.772 17.964,11.154 18.137 C 11.420 18.258,11.654 18.264,15.933 18.265 C 18.696 18.266,20.525 18.240,20.670 18.200 C 21.643 17.930,21.643 16.137,20.670 15.867 C 20.525 15.826,18.696 15.801,15.933 15.802 C 11.654 15.803,11.420 15.809,11.154 15.930 M11.154 22.596 C 10.772 22.770,10.600 23.113,10.600 23.700 C 10.600 24.287,10.772 24.630,11.154 24.804 C 11.423 24.926,11.710 24.930,19.267 24.931 C 24.225 24.932,27.187 24.908,27.337 24.867 C 28.310 24.597,28.310 22.803,27.337 22.533 C 27.187 22.492,24.225 22.468,19.267 22.469 C 11.710 22.470,11.423 22.474,11.154 22.596 " stroke="none" fill-rule="evenodd" fill="black"></path></svg>