<svg width="40" height="40" viewBox="0 0 40 40" fill="none" xmlns="http://www.w3.org/2000/svg"><path d="M6.028 9.072 C 5.054 9.187,4.197 9.619,3.441 10.375 C 2.638 11.178,2.251 11.987,2.129 13.122 C 2.084 13.541,2.068 16.111,2.083 20.467 C 2.110 27.941,2.077 27.422,2.586 28.467 C 2.772 28.849,2.971 29.110,3.431 29.575 C 3.950 30.100,4.121 30.226,4.667 30.488 C 5.015 30.655,5.478 30.823,5.696 30.862 C 6.249 30.962,33.751 30.962,34.304 30.862 C 34.522 30.823,34.985 30.655,35.333 30.488 C 35.879 30.226,36.050 30.100,36.569 29.575 C 37.029 29.110,37.228 28.849,37.414 28.467 C 37.931 27.406,37.900 27.947,37.900 20.000 C 37.900 13.431,37.891 12.868,37.783 12.467 C 37.351 10.874,36.113 9.623,34.500 9.152 C 34.125 9.042,33.242 9.034,20.300 9.025 C 12.710 9.020,6.287 9.041,6.028 9.072 M8.732 11.617 C 8.729 11.811,8.526 12.644,8.397 12.991 C 7.858 14.441,6.637 15.640,5.151 16.180 C 4.918 16.264,4.699 16.333,4.664 16.333 C 4.625 16.333,4.600 15.718,4.600 14.769 C 4.600 12.911,4.648 12.704,5.210 12.143 C 5.747 11.606,5.989 11.541,7.483 11.537 C 8.441 11.534,8.733 11.553,8.732 11.617 M28.825 12.012 C 28.914 12.963,29.360 14.292,29.879 15.148 C 30.979 16.963,32.850 18.326,34.864 18.778 L 35.400 18.899 35.400 19.933 L 35.400 20.968 34.864 21.088 C 32.856 21.540,30.977 22.905,29.887 24.705 C 29.342 25.605,28.899 26.942,28.823 27.917 L 28.780 28.467 20.000 28.467 L 11.220 28.467 11.177 27.917 C 11.101 26.942,10.658 25.605,10.113 24.705 C 9.023 22.905,7.144 21.540,5.136 21.088 L 4.600 20.968 4.600 19.933 L 4.600 18.899 5.136 18.778 C 7.141 18.328,9.049 16.942,10.107 15.167 C 10.653 14.250,11.088 12.967,11.174 12.022 L 11.218 11.533 20.000 11.533 L 28.781 11.533 28.825 12.012 M34.090 11.669 C 34.574 11.850,35.084 12.360,35.265 12.843 C 35.387 13.169,35.400 13.361,35.400 14.769 C 35.400 15.718,35.375 16.333,35.336 16.333 C 35.301 16.333,35.082 16.264,34.849 16.180 C 33.363 15.640,32.142 14.441,31.603 12.991 C 31.474 12.644,31.271 11.811,31.268 11.617 C 31.267 11.553,31.557 11.533,32.497 11.533 C 33.571 11.533,33.775 11.551,34.090 11.669 M19.361 15.471 C 18.796 15.539,18.139 15.767,17.625 16.075 C 17.142 16.364,16.364 17.142,16.075 17.625 C 15.225 19.045,15.225 20.955,16.075 22.375 C 16.364 22.858,17.142 23.636,17.625 23.925 C 19.045 24.775,20.955 24.775,22.375 23.925 C 22.858 23.636,23.636 22.858,23.925 22.375 C 24.750 20.997,24.774 19.072,23.983 17.722 C 23.035 16.104,21.269 15.244,19.361 15.471 M20.757 18.069 C 21.240 18.250,21.750 18.760,21.931 19.243 C 22.225 20.029,22.045 20.869,21.457 21.457 C 20.155 22.759,17.933 21.840,17.933 20.000 C 17.933 19.430,18.133 18.952,18.543 18.543 C 19.131 17.955,19.971 17.775,20.757 18.069 M5.151 23.687 C 6.637 24.226,7.858 25.426,8.397 26.875 C 8.546 27.275,8.730 28.068,8.732 28.317 L 8.733 28.467 7.536 28.467 C 6.047 28.467,5.768 28.388,5.194 27.805 C 4.630 27.233,4.600 27.099,4.600 25.155 C 4.600 24.170,4.625 23.533,4.664 23.533 C 4.699 23.533,4.918 23.602,5.151 23.687 M35.400 25.155 C 35.400 27.099,35.370 27.233,34.806 27.805 C 34.232 28.388,33.953 28.467,32.464 28.467 L 31.267 28.467 31.268 28.317 C 31.270 28.068,31.454 27.275,31.603 26.875 C 32.138 25.436,33.349 24.241,34.830 23.690 C 35.052 23.608,35.271 23.539,35.317 23.537 C 35.381 23.534,35.400 23.900,35.400 25.155 " stroke="none" fill-rule="evenodd" fill="black"></path></svg>