<svg width="40" height="40" viewBox="0 0 40 40" fill="none" xmlns="http://www.w3.org/2000/svg"><path d="M10.233 5.465 C 9.639 5.538,9.292 5.649,8.700 5.954 C 7.935 6.348,7.132 7.161,6.746 7.933 C 6.288 8.851,6.269 9.027,6.268 12.411 L 6.267 15.388 4.583 15.411 C 3.043 15.431,2.881 15.445,2.674 15.567 C 2.219 15.835,2.014 16.363,2.128 16.975 C 2.197 17.340,2.365 17.585,2.674 17.767 C 2.898 17.899,3.020 17.900,20.000 17.900 C 36.980 17.900,37.102 17.899,37.326 17.767 C 37.635 17.585,37.803 17.340,37.872 16.975 C 37.986 16.363,37.781 15.835,37.326 15.567 C 37.119 15.445,36.957 15.431,35.417 15.411 L 33.733 15.388 33.732 12.411 C 33.731 9.027,33.712 8.851,33.254 7.933 C 32.868 7.162,32.065 6.348,31.300 5.953 C 30.216 5.394,31.170 5.440,20.300 5.427 C 14.983 5.421,10.453 5.438,10.233 5.465 M30.104 8.145 C 30.508 8.358,30.895 8.769,31.091 9.192 C 31.229 9.490,31.234 9.599,31.253 12.450 L 31.273 15.400 20.000 15.400 L 8.727 15.400 8.747 12.450 C 8.766 9.599,8.771 9.490,8.909 9.192 C 9.170 8.629,9.685 8.174,10.267 7.995 C 10.358 7.967,14.783 7.949,20.100 7.955 L 29.767 7.967 30.104 8.145 M7.112 20.463 C 6.799 20.526,6.532 20.717,6.400 20.973 C 6.249 21.266,6.216 30.296,6.364 31.015 C 6.682 32.569,8.048 33.987,9.667 34.444 C 10.078 34.561,10.596 34.567,20.000 34.567 C 29.404 34.567,29.922 34.561,30.333 34.444 C 31.554 34.100,32.707 33.160,33.254 32.067 C 33.733 31.107,33.731 31.135,33.732 26.038 C 33.733 21.600,33.731 21.503,33.596 21.225 C 33.249 20.509,31.849 20.459,31.432 21.149 C 31.305 21.359,31.299 21.533,31.267 25.933 C 31.234 30.422,31.231 30.505,31.091 30.808 C 30.895 31.231,30.508 31.642,30.104 31.855 L 29.767 32.033 20.000 32.033 L 10.233 32.033 9.896 31.855 C 9.492 31.642,9.105 31.231,8.909 30.808 C 8.769 30.505,8.766 30.424,8.733 25.833 C 8.699 21.020,8.695 20.961,8.424 20.725 C 8.136 20.475,7.593 20.366,7.112 20.463 " stroke="none" fill-rule="evenodd" fill="black"></path></svg>