<svg width="40" height="40" viewBox="0 0 40 40" fill="none" xmlns="http://www.w3.org/2000/svg"><path d="M19.361 2.138 C 18.386 2.254,17.530 2.686,16.775 3.441 C 15.993 4.223,15.590 5.043,15.470 6.102 C 15.324 7.386,15.724 8.787,16.454 9.554 C 16.623 9.732,16.627 9.749,16.527 9.920 C 16.470 10.019,14.906 12.129,13.051 14.609 L 9.680 19.118 7.557 19.150 C 5.212 19.186,5.016 19.214,4.167 19.632 C 3.006 20.202,2.098 21.318,1.751 22.600 C 1.643 22.997,1.633 23.492,1.633 28.533 C 1.633 33.575,1.643 34.069,1.751 34.467 C 2.187 36.076,3.457 37.347,5.067 37.783 C 5.474 37.893,6.367 37.900,20.000 37.900 C 33.809 37.900,34.521 37.894,34.933 37.779 C 35.769 37.545,36.315 37.222,36.975 36.569 C 37.500 36.050,37.626 35.879,37.888 35.333 C 38.055 34.985,38.223 34.522,38.262 34.304 C 38.360 33.761,38.360 23.306,38.262 22.762 C 38.223 22.545,38.055 22.082,37.888 21.733 C 37.626 21.187,37.500 21.017,36.975 20.498 C 36.510 20.038,36.249 19.839,35.867 19.653 C 34.964 19.213,34.799 19.189,32.443 19.152 L 30.320 19.118 26.860 14.490 C 24.957 11.944,23.400 9.830,23.400 9.791 C 23.400 9.753,23.507 9.596,23.638 9.444 C 23.942 9.089,24.302 8.354,24.441 7.800 C 24.586 7.228,24.586 6.105,24.441 5.533 C 24.296 4.956,23.941 4.249,23.570 3.800 C 22.526 2.533,21.023 1.940,19.361 2.138 M20.757 4.735 C 21.240 4.916,21.750 5.426,21.931 5.910 C 22.445 7.282,21.452 8.733,20.000 8.733 C 18.856 8.733,17.933 7.811,17.933 6.667 C 17.933 6.097,18.133 5.619,18.543 5.209 C 19.131 4.621,19.971 4.441,20.757 4.735 M20.200 11.207 C 20.512 11.195,20.878 11.181,21.014 11.176 L 21.261 11.167 24.224 15.133 L 27.187 19.100 23.594 19.117 C 21.617 19.127,18.383 19.127,16.406 19.117 L 12.812 19.100 15.789 15.113 L 18.767 11.126 19.200 11.178 C 19.438 11.206,19.888 11.219,20.200 11.207 M34.495 21.777 C 34.966 21.932,35.539 22.511,35.725 23.019 C 35.865 23.400,35.867 23.470,35.867 28.533 C 35.867 33.596,35.865 33.667,35.725 34.047 C 35.623 34.327,35.479 34.536,35.205 34.806 C 34.540 35.462,36.116 35.400,19.991 35.400 C 5.900 35.400,5.803 35.399,5.443 35.265 C 4.960 35.084,4.450 34.574,4.269 34.090 C 4.137 33.738,4.133 33.590,4.133 28.533 C 4.133 23.476,4.137 23.329,4.269 22.977 C 4.445 22.506,4.960 21.984,5.424 21.806 C 5.761 21.677,6.008 21.674,19.967 21.671 C 32.930 21.668,34.195 21.677,34.495 21.777 " stroke="none" fill-rule="evenodd" fill="black"></path></svg>