<svg width="40" height="40" viewBox="0 0 40 40" fill="none" xmlns="http://www.w3.org/2000/svg"><path d="M19.267 3.024 C 19.065 3.068,18.743 3.190,18.552 3.295 C 18.246 3.463,8.772 11.291,8.111 11.922 C 7.970 12.057,7.790 12.287,7.711 12.433 L 7.567 12.700 7.567 22.967 C 7.567 34.470,7.527 33.522,8.052 34.600 C 8.239 34.982,8.438 35.243,8.898 35.709 C 9.417 36.233,9.587 36.359,10.133 36.621 C 10.482 36.788,10.945 36.957,11.162 36.996 C 11.428 37.043,14.331 37.067,20.002 37.067 C 28.192 37.067,28.461 37.063,28.960 36.935 C 30.203 36.617,31.306 35.704,31.892 34.508 C 32.354 33.564,32.333 34.108,32.333 22.983 L 32.333 12.960 32.166 12.624 C 32.018 12.328,31.412 11.791,26.863 7.928 C 23.486 5.060,21.575 3.483,21.284 3.321 C 20.633 2.960,19.993 2.866,19.267 3.024 M25.000 9.628 L 29.867 13.757 29.866 23.195 C 29.865 30.742,29.847 32.708,29.777 33.004 C 29.620 33.673,29.128 34.222,28.458 34.476 C 28.147 34.594,27.764 34.600,19.968 34.600 C 11.811 34.600,11.805 34.600,11.419 34.458 C 11.140 34.356,10.930 34.212,10.661 33.939 C 10.012 33.280,10.066 34.266,10.071 23.205 L 10.075 13.500 14.887 9.486 C 19.241 5.855,19.721 5.474,19.917 5.486 C 20.099 5.498,20.916 6.163,25.000 9.628 M19.043 10.639 C 17.841 10.930,16.706 11.998,16.326 13.195 C 16.130 13.810,16.130 14.923,16.326 15.538 C 16.709 16.746,17.850 17.809,19.074 18.098 C 19.618 18.226,20.382 18.226,20.926 18.098 C 22.155 17.808,23.289 16.752,23.674 15.538 C 23.870 14.923,23.870 13.810,23.674 13.195 C 23.289 11.982,22.155 10.925,20.926 10.636 C 20.401 10.512,19.562 10.513,19.043 10.639 M20.579 13.169 C 20.791 13.274,20.990 13.441,21.109 13.613 C 21.276 13.854,21.300 13.949,21.300 14.367 C 21.300 14.784,21.276 14.880,21.109 15.120 C 20.886 15.442,20.359 15.733,20.000 15.733 C 19.641 15.733,19.114 15.442,18.891 15.120 C 18.724 14.880,18.700 14.784,18.700 14.367 C 18.700 13.949,18.724 13.854,18.891 13.613 C 19.114 13.291,19.641 13.000,20.000 13.000 C 20.132 13.000,20.393 13.076,20.579 13.169 " stroke="none" fill-rule="evenodd" fill="black"></path></svg>