<svg width="40" height="40" viewBox="0 0 40 40" fill="none" xmlns="http://www.w3.org/2000/svg"><path d="M3.167 0.474 C 1.861 0.661,0.657 1.893,0.468 3.233 C 0.383 3.837,0.383 6.163,0.468 6.767 C 0.610 7.776,1.327 8.754,2.269 9.226 C 2.526 9.354,2.878 9.478,3.051 9.500 C 3.225 9.523,3.449 9.557,3.550 9.576 L 3.733 9.611 3.733 20.000 L 3.733 30.389 3.550 30.424 C 3.449 30.443,3.225 30.477,3.051 30.500 C 2.878 30.522,2.526 30.646,2.269 30.774 C 1.327 31.246,0.610 32.224,0.468 33.233 C 0.383 33.837,0.383 36.163,0.468 36.767 C 0.662 38.142,1.858 39.338,3.233 39.532 C 3.490 39.568,4.285 39.597,5.000 39.597 C 6.627 39.597,7.094 39.534,7.713 39.231 C 8.595 38.799,9.390 37.784,9.500 36.949 C 9.523 36.775,9.557 36.551,9.576 36.450 L 9.611 36.267 20.000 36.267 L 30.389 36.267 30.424 36.450 C 30.443 36.551,30.477 36.775,30.500 36.949 C 30.610 37.784,31.405 38.799,32.287 39.231 C 32.906 39.534,33.373 39.597,35.000 39.597 C 35.715 39.597,36.510 39.568,36.767 39.532 C 38.142 39.338,39.338 38.142,39.532 36.767 C 39.568 36.510,39.597 35.715,39.597 35.000 C 39.597 33.373,39.534 32.906,39.231 32.287 C 38.799 31.405,37.784 30.610,36.949 30.500 C 36.775 30.477,36.551 30.443,36.450 30.424 L 36.267 30.389 36.267 20.000 L 36.267 9.611 36.450 9.576 C 36.551 9.557,36.775 9.523,36.949 9.500 C 37.122 9.478,37.474 9.354,37.731 9.226 C 38.673 8.754,39.390 7.776,39.532 6.767 C 39.617 6.163,39.617 3.837,39.532 3.233 C 39.338 1.858,38.142 0.662,36.767 0.468 C 36.163 0.383,33.837 0.383,33.233 0.468 C 32.224 0.610,31.246 1.327,30.774 2.269 C 30.646 2.526,30.522 2.878,30.500 3.051 C 30.477 3.225,30.443 3.449,30.424 3.550 L 30.389 3.733 20.000 3.733 L 9.611 3.733 9.576 3.550 C 9.557 3.449,9.523 3.225,9.500 3.051 C 9.478 2.878,9.354 2.526,9.226 2.269 C 8.754 1.327,7.776 0.610,6.767 0.468 C 6.205 0.389,3.728 0.393,3.167 0.474 M6.669 3.034 C 7.036 3.224,7.067 3.377,7.067 5.000 C 7.067 7.155,7.155 7.067,5.000 7.067 C 2.845 7.067,2.933 7.155,2.933 5.000 C 2.933 2.846,2.839 2.940,4.987 2.936 C 6.189 2.934,6.511 2.953,6.669 3.034 M36.669 3.034 C 37.036 3.224,37.067 3.377,37.067 5.000 C 37.067 7.155,37.155 7.067,35.000 7.067 C 32.845 7.067,32.933 7.155,32.933 5.000 C 32.933 2.846,32.839 2.940,34.987 2.936 C 36.189 2.934,36.511 2.953,36.669 3.034 M30.424 6.450 C 30.443 6.551,30.477 6.775,30.500 6.949 C 30.564 7.435,30.953 8.142,31.405 8.595 C 31.858 9.047,32.565 9.436,33.051 9.500 C 33.225 9.523,33.449 9.557,33.550 9.576 L 33.733 9.611 33.733 20.000 L 33.733 30.389 33.550 30.424 C 33.449 30.443,33.225 30.477,33.051 30.500 C 32.565 30.564,31.858 30.953,31.405 31.405 C 30.953 31.858,30.564 32.565,30.500 33.051 C 30.477 33.225,30.443 33.449,30.424 33.550 L 30.389 33.733 20.000 33.733 L 9.611 33.733 9.576 33.550 C 9.557 33.449,9.523 33.225,9.500 33.051 C 9.436 32.565,9.047 31.858,8.595 31.405 C 8.142 30.953,7.435 30.564,6.949 30.500 C 6.775 30.477,6.551 30.443,6.450 30.424 L 6.267 30.389 6.267 20.000 L 6.267 9.611 6.450 9.576 C 6.551 9.557,6.775 9.523,6.949 9.500 C 7.435 9.436,8.142 9.047,8.595 8.595 C 9.047 8.142,9.436 7.435,9.500 6.949 C 9.523 6.775,9.557 6.551,9.576 6.450 L 9.611 6.267 20.000 6.267 L 30.389 6.267 30.424 6.450 M19.433 8.811 C 19.091 9.000,18.733 9.453,18.733 9.697 C 18.733 9.754,16.858 14.300,14.567 19.800 C 10.024 30.701,10.218 30.177,10.550 30.670 C 10.765 30.989,11.328 31.267,11.758 31.266 C 12.183 31.266,12.466 31.104,12.668 30.746 C 12.750 30.600,13.365 29.165,14.035 27.557 L 15.253 24.633 20.000 24.633 L 24.747 24.633 25.965 27.557 C 26.635 29.165,27.250 30.600,27.332 30.746 C 27.534 31.104,27.817 31.266,28.242 31.266 C 28.672 31.267,29.235 30.989,29.450 30.670 C 29.782 30.177,29.976 30.701,25.433 19.800 C 23.142 14.300,21.267 9.754,21.267 9.697 C 21.267 9.446,20.896 8.984,20.554 8.808 C 20.368 8.713,19.608 8.715,19.433 8.811 M21.837 17.642 C 22.825 20.012,23.643 21.977,23.656 22.009 C 23.668 22.041,22.059 22.067,20.000 22.067 C 17.941 22.067,16.332 22.041,16.344 22.009 C 16.623 21.282,19.972 13.333,20.000 13.333 C 20.022 13.333,20.848 15.272,21.837 17.642 M6.669 33.034 C 7.036 33.224,7.067 33.377,7.067 35.000 C 7.067 37.155,7.155 37.067,5.000 37.067 C 2.845 37.067,2.933 37.155,2.933 35.000 C 2.933 32.846,2.839 32.940,4.987 32.936 C 6.189 32.934,6.511 32.953,6.669 33.034 M36.669 33.034 C 37.036 33.224,37.067 33.377,37.067 35.000 C 37.067 36.623,37.036 36.776,36.669 36.966 C 36.511 37.047,36.187 37.067,35.000 37.067 C 32.845 37.067,32.933 37.155,32.933 35.000 C 32.933 32.846,32.839 32.940,34.987 32.936 C 36.189 32.934,36.511 32.953,36.669 33.034 " stroke="none" fill-rule="evenodd" fill="black"></path></svg>