<svg width="40" height="40" viewBox="0 0 40 40" fill="none" xmlns="http://www.w3.org/2000/svg"><path d="M2.671 12.647 C 2.374 12.803,2.198 13.050,2.129 13.409 C 2.045 13.840,2.055 25.899,2.138 26.267 C 2.235 26.690,2.505 27.048,2.897 27.272 L 3.233 27.465 20.000 27.465 L 36.767 27.465 37.103 27.272 C 37.524 27.031,37.779 26.669,37.868 26.188 C 37.914 25.944,37.931 23.657,37.919 19.558 C 37.900 13.437,37.897 13.295,37.767 13.074 C 37.520 12.654,37.330 12.567,36.667 12.567 C 36.004 12.567,35.814 12.654,35.567 13.074 C 35.436 13.295,35.433 13.438,35.415 19.150 L 35.396 25.000 20.000 25.000 L 4.604 25.000 4.585 19.150 C 4.567 13.438,4.564 13.295,4.433 13.074 C 4.202 12.680,3.987 12.570,3.412 12.547 C 3.019 12.531,2.847 12.554,2.671 12.647 " stroke="none" fill-rule="evenodd" fill="black"></path></svg>