<svg width="40" height="40" viewBox="0 0 40 40" fill="none" xmlns="http://www.w3.org/2000/svg"><path d="M2.979 2.131 C 2.409 2.242,2.114 2.653,2.114 3.333 C 2.114 4.104,2.459 4.488,3.219 4.565 C 3.447 4.588,11.163 4.598,20.367 4.587 C 36.962 4.567,37.102 4.566,37.326 4.433 C 37.781 4.165,37.986 3.637,37.872 3.025 C 37.803 2.660,37.635 2.415,37.326 2.233 C 37.102 2.101,36.972 2.100,20.167 2.091 C 10.853 2.085,3.119 2.104,2.979 2.131 M2.979 8.797 C 2.409 8.909,2.114 9.319,2.114 10.000 C 2.114 10.770,2.459 11.155,3.219 11.232 C 3.447 11.255,11.163 11.264,20.367 11.253 C 36.962 11.233,37.102 11.232,37.326 11.100 C 37.781 10.832,37.986 10.304,37.872 9.692 C 37.803 9.326,37.635 9.082,37.326 8.900 C 37.102 8.768,36.972 8.767,20.167 8.757 C 10.853 8.752,3.119 8.770,2.979 8.797 M2.979 15.464 C 2.409 15.575,2.114 15.986,2.114 16.667 C 2.114 17.437,2.459 17.822,3.219 17.898 C 3.447 17.921,11.163 17.931,20.367 17.920 C 36.962 17.900,37.102 17.899,37.326 17.767 C 37.781 17.499,37.986 16.970,37.872 16.359 C 37.803 15.993,37.635 15.749,37.326 15.567 C 37.102 15.434,36.972 15.433,20.167 15.424 C 10.853 15.419,3.119 15.437,2.979 15.464 M2.979 22.131 C 2.409 22.242,2.114 22.653,2.114 23.333 C 2.114 24.104,2.459 24.488,3.219 24.565 C 3.447 24.588,11.163 24.598,20.367 24.587 C 36.962 24.567,37.102 24.566,37.326 24.433 C 37.781 24.165,37.986 23.637,37.872 23.025 C 37.803 22.660,37.635 22.415,37.326 22.233 C 37.102 22.101,36.972 22.100,20.167 22.091 C 10.853 22.085,3.119 22.104,2.979 22.131 M2.979 28.797 C 2.409 28.909,2.114 29.319,2.114 30.000 C 2.114 30.770,2.459 31.155,3.219 31.232 C 3.447 31.255,11.163 31.264,20.367 31.253 C 36.962 31.233,37.102 31.232,37.326 31.100 C 37.781 30.832,37.986 30.304,37.872 29.692 C 37.803 29.326,37.635 29.082,37.326 28.900 C 37.102 28.768,36.972 28.767,20.167 28.757 C 10.853 28.752,3.119 28.770,2.979 28.797 M2.979 35.464 C 2.409 35.576,2.114 35.986,2.114 36.667 C 2.114 37.437,2.459 37.821,3.219 37.899 C 3.447 37.922,8.673 37.931,14.833 37.920 C 25.897 37.900,26.036 37.898,26.255 37.767 C 26.627 37.542,26.767 37.243,26.767 36.667 C 26.767 36.091,26.627 35.791,26.255 35.567 C 26.036 35.435,25.906 35.433,14.633 35.424 C 8.363 35.419,3.119 35.437,2.979 35.464 " stroke="none" fill-rule="evenodd" fill="black"></path></svg>