<svg width="40" height="40" viewBox="0 0 40 40" fill="none" xmlns="http://www.w3.org/2000/svg"><path d="M12.046 2.131 C 11.445 2.248,11.183 2.651,11.214 3.412 C 11.236 3.987,11.347 4.202,11.740 4.433 C 11.965 4.565,12.087 4.567,24.533 4.567 C 36.980 4.567,37.102 4.565,37.326 4.433 C 37.781 4.165,37.986 3.637,37.872 3.025 C 37.803 2.660,37.635 2.415,37.326 2.233 C 37.102 2.101,36.971 2.100,24.700 2.090 C 17.880 2.085,12.186 2.103,12.046 2.131 M22.646 8.797 C 22.071 8.910,21.833 9.262,21.833 10.000 C 21.833 10.823,22.115 11.154,22.886 11.232 C 23.114 11.255,26.405 11.265,30.200 11.254 C 36.961 11.234,37.105 11.231,37.326 11.100 C 37.781 10.832,37.986 10.304,37.872 9.692 C 37.803 9.326,37.635 9.082,37.326 8.900 C 37.104 8.769,36.971 8.766,30.000 8.757 C 26.095 8.751,22.786 8.769,22.646 8.797 M18.112 15.464 C 17.512 15.582,17.250 15.985,17.280 16.745 C 17.303 17.320,17.414 17.535,17.807 17.767 C 18.030 17.898,18.153 17.900,27.567 17.900 C 36.980 17.900,37.103 17.898,37.326 17.767 C 37.635 17.585,37.803 17.340,37.872 16.975 C 37.986 16.363,37.781 15.835,37.326 15.567 C 37.103 15.435,36.971 15.433,27.733 15.424 C 22.582 15.418,18.252 15.436,18.112 15.464 M12.046 22.131 C 11.445 22.248,11.183 22.651,11.214 23.412 C 11.236 23.987,11.347 24.202,11.740 24.433 C 11.965 24.565,12.087 24.567,24.533 24.567 C 36.980 24.567,37.102 24.565,37.326 24.433 C 37.781 24.165,37.986 23.637,37.872 23.025 C 37.803 22.660,37.635 22.415,37.326 22.233 C 37.102 22.101,36.971 22.100,24.700 22.090 C 17.880 22.085,12.186 22.103,12.046 22.131 M21.167 28.794 C 20.553 28.899,20.303 29.248,20.303 30.000 C 20.303 30.595,20.416 30.849,20.782 31.077 L 21.033 31.233 29.067 31.233 C 36.980 31.233,37.103 31.231,37.326 31.100 C 37.635 30.918,37.803 30.674,37.872 30.308 C 37.986 29.696,37.781 29.168,37.326 28.900 C 37.104 28.769,36.972 28.767,29.267 28.758 C 24.958 28.753,21.313 28.769,21.167 28.794 M2.979 35.464 C 2.409 35.575,2.114 35.986,2.114 36.667 C 2.114 37.437,2.459 37.822,3.219 37.898 C 3.447 37.921,11.163 37.931,20.367 37.920 C 36.962 37.900,37.102 37.899,37.326 37.767 C 37.781 37.499,37.986 36.970,37.872 36.359 C 37.803 35.993,37.635 35.749,37.326 35.567 C 37.102 35.434,36.972 35.433,20.167 35.424 C 10.853 35.419,3.119 35.437,2.979 35.464 " stroke="none" fill-rule="evenodd" fill="black"></path></svg>