<svg width="40" height="40" viewBox="0 0 40 40" fill="none" xmlns="http://www.w3.org/2000/svg"><path d="M6.312 2.131 C 5.743 2.242,5.447 2.653,5.447 3.333 C 5.447 4.029,5.738 4.421,6.343 4.538 C 6.503 4.569,9.355 4.595,12.683 4.597 L 18.732 4.600 18.749 20.850 C 18.767 36.964,18.768 37.102,18.900 37.326 C 19.082 37.635,19.326 37.803,19.692 37.872 C 20.304 37.986,20.832 37.781,21.100 37.326 C 21.232 37.102,21.233 36.964,21.251 20.852 L 21.268 4.604 27.517 4.585 C 33.629 4.567,33.772 4.564,33.993 4.433 C 34.448 4.165,34.653 3.637,34.538 3.025 C 34.470 2.660,34.302 2.415,33.993 2.233 C 33.769 2.101,33.638 2.100,20.167 2.091 C 12.687 2.085,6.452 2.103,6.312 2.131 " stroke="none" fill-rule="evenodd" fill="black"></path></svg>