<svg width="40" height="40" viewBox="0 0 40 40" fill="none" xmlns="http://www.w3.org/2000/svg"><path d="M19.148 1.459 C 18.670 1.624,18.133 2.006,17.877 2.363 C 17.642 2.690,8.697 19.246,8.384 19.933 C 7.020 22.928,6.821 26.492,7.843 29.633 C 8.070 30.330,8.247 30.644,8.505 30.803 C 9.094 31.167,10.223 30.724,10.402 30.058 C 10.478 29.778,10.434 29.527,10.165 28.673 C 9.360 26.125,9.564 23.303,10.733 20.833 C 10.907 20.467,13.032 16.492,15.455 12.000 C 18.715 5.959,19.895 3.828,19.989 3.813 C 20.095 3.796,20.339 4.211,21.401 6.213 C 22.107 7.544,22.757 8.731,22.846 8.850 C 23.167 9.282,23.752 9.394,24.286 9.126 C 24.983 8.776,25.200 8.323,24.974 7.692 C 24.844 7.327,22.369 2.705,22.115 2.351 C 21.860 1.996,21.241 1.570,20.781 1.434 C 20.322 1.298,19.583 1.309,19.148 1.459 M31.298 3.738 C 31.187 3.770,31.002 3.894,30.886 4.015 C 30.727 4.180,9.991 35.995,8.983 37.620 C 8.586 38.259,8.612 38.748,9.063 39.156 C 9.490 39.541,9.753 39.639,10.281 39.610 C 10.381 39.605,10.567 39.508,10.696 39.394 C 10.835 39.273,15.385 32.334,21.856 22.378 C 27.865 13.132,32.812 5.507,32.851 5.433 C 32.925 5.292,32.960 5.018,32.943 4.719 C 32.923 4.355,32.242 3.789,31.733 3.714 C 31.605 3.695,31.409 3.705,31.298 3.738 M28.392 16.567 C 28.049 16.745,27.755 17.057,27.692 17.309 C 27.603 17.662,27.730 18.012,28.365 19.166 C 29.737 21.658,30.098 22.692,30.279 24.650 C 30.412 26.092,30.188 27.846,29.698 29.200 C 28.384 32.832,25.570 35.293,21.957 35.970 C 21.493 36.057,21.060 36.073,19.740 36.051 C 18.193 36.025,18.062 36.013,17.433 35.837 C 16.278 35.514,16.166 35.503,15.811 35.679 C 15.401 35.883,15.133 36.376,15.134 36.929 C 15.134 37.635,15.447 37.889,16.733 38.228 C 17.900 38.534,18.742 38.618,20.330 38.583 C 21.929 38.547,22.585 38.454,23.781 38.093 C 27.116 37.086,29.764 34.815,31.389 31.566 C 32.413 29.518,32.863 27.394,32.780 25.001 C 32.722 23.310,32.376 21.740,31.737 20.268 C 31.440 19.581,30.139 17.155,29.888 16.817 C 29.556 16.371,28.959 16.271,28.392 16.567 " stroke="none" fill-rule="evenodd" fill="black"></path></svg>