<svg width="40" height="40" viewBox="0 0 40 40" fill="none" xmlns="http://www.w3.org/2000/svg"><path d="M2.979 2.131 C 2.409 2.242,2.114 2.653,2.114 3.333 C 2.114 4.103,2.459 4.488,3.219 4.565 C 3.447 4.588,9.123 4.598,15.833 4.587 C 27.895 4.567,28.036 4.565,28.260 4.433 C 28.679 4.186,28.767 3.996,28.767 3.333 C 28.767 2.670,28.679 2.480,28.260 2.233 C 28.036 2.101,27.905 2.100,15.633 2.090 C 8.813 2.085,3.119 2.103,2.979 2.131 M2.979 8.798 C 2.410 8.908,2.114 9.319,2.114 10.000 C 2.114 10.696,2.405 11.088,3.009 11.205 C 3.389 11.278,16.944 11.278,17.324 11.205 C 17.933 11.087,18.167 10.753,18.167 10.000 C 18.167 9.247,17.933 8.913,17.324 8.795 C 16.968 8.727,3.335 8.729,2.979 8.798 M2.979 15.464 C 2.409 15.576,2.114 15.986,2.114 16.667 C 2.114 17.437,2.459 17.821,3.219 17.899 C 3.447 17.922,7.758 17.932,12.800 17.920 C 21.828 17.900,21.970 17.898,22.193 17.767 C 22.612 17.520,22.700 17.330,22.700 16.667 C 22.700 16.004,22.612 15.814,22.193 15.567 C 21.970 15.435,21.838 15.433,12.600 15.424 C 7.448 15.418,3.119 15.436,2.979 15.464 M2.979 22.131 C 2.409 22.242,2.114 22.653,2.114 23.333 C 2.114 24.103,2.459 24.488,3.219 24.565 C 3.447 24.588,9.123 24.598,15.833 24.587 C 27.895 24.567,28.036 24.565,28.260 24.433 C 28.679 24.186,28.767 23.996,28.767 23.333 C 28.767 22.670,28.679 22.480,28.260 22.233 C 28.036 22.101,27.905 22.100,15.633 22.090 C 8.813 22.085,3.119 22.103,2.979 22.131 M2.979 28.797 C 2.409 28.909,2.114 29.319,2.114 30.000 C 2.114 30.770,2.459 31.155,3.219 31.232 C 3.447 31.255,7.083 31.265,11.300 31.254 L 18.967 31.233 19.200 31.088 C 19.574 30.855,19.700 30.581,19.700 30.000 C 19.700 29.419,19.574 29.145,19.200 28.912 L 18.967 28.767 11.100 28.757 C 6.773 28.751,3.119 28.770,2.979 28.797 M2.979 35.464 C 2.409 35.575,2.114 35.986,2.114 36.667 C 2.114 37.437,2.459 37.822,3.219 37.898 C 3.447 37.921,11.163 37.931,20.367 37.920 C 36.962 37.900,37.102 37.899,37.326 37.767 C 37.781 37.499,37.986 36.970,37.872 36.359 C 37.803 35.993,37.635 35.749,37.326 35.567 C 37.102 35.434,36.972 35.433,20.167 35.424 C 10.853 35.419,3.119 35.437,2.979 35.464 " stroke="none" fill-rule="evenodd" fill="black"></path></svg>