<svg width="40" height="40" viewBox="0 0 40 40" fill="none" xmlns="http://www.w3.org/2000/svg"><path d="M3.315 2.139 C 2.948 2.226,2.713 2.363,2.484 2.624 C 2.073 3.092,2.100 1.863,2.100 20.000 C 2.100 35.886,2.105 36.647,2.221 36.946 C 2.361 37.310,2.740 37.679,3.108 37.809 C 3.324 37.885,6.083 37.900,20.000 37.900 C 33.917 37.900,36.676 37.885,36.892 37.809 C 37.260 37.679,37.639 37.310,37.779 36.946 C 37.895 36.647,37.900 35.886,37.900 20.000 C 37.900 6.171,37.885 3.324,37.810 3.111 C 37.685 2.757,37.357 2.404,37.000 2.239 L 36.700 2.100 20.133 2.090 C 10.567 2.084,3.460 2.105,3.315 2.139 M23.733 9.167 L 23.733 13.733 14.167 13.733 L 4.600 13.733 4.600 9.167 L 4.600 4.600 14.167 4.600 L 23.733 4.600 23.733 9.167 M35.400 9.167 L 35.400 13.733 30.833 13.733 L 26.267 13.733 26.267 9.167 L 26.267 4.600 30.833 4.600 L 35.400 4.600 35.400 9.167 M23.733 20.833 L 23.733 25.400 14.167 25.400 L 4.600 25.400 4.600 20.833 L 4.600 16.267 14.167 16.267 L 23.733 16.267 23.733 20.833 M35.400 20.833 L 35.400 25.400 30.833 25.400 L 26.267 25.400 26.267 20.833 L 26.267 16.267 30.833 16.267 L 35.400 16.267 35.400 20.833 M23.733 31.667 L 23.733 35.400 14.167 35.400 L 4.600 35.400 4.600 31.667 L 4.600 27.933 14.167 27.933 L 23.733 27.933 23.733 31.667 M35.400 31.667 L 35.400 35.400 30.833 35.400 L 26.267 35.400 26.267 31.667 L 26.267 27.933 30.833 27.933 L 35.400 27.933 35.400 31.667 " stroke="none" fill-rule="evenodd" fill="black"></path></svg>