<svg width="40" height="40" viewBox="0 0 40 40" fill="none" xmlns="http://www.w3.org/2000/svg"><path d="M15.357 3.038 C 12.032 3.597,9.430 6.221,8.852 9.600 C 8.724 10.349,8.728 26.526,8.857 27.333 C 9.269 29.924,10.327 32.046,12.075 33.791 C 14.952 36.664,19.209 37.757,23.117 36.627 C 26.966 35.514,29.915 32.449,30.902 28.536 C 31.230 27.237,31.221 27.471,31.250 19.033 C 31.265 14.670,31.257 10.914,31.233 10.686 C 31.158 9.970,30.845 9.667,30.124 9.613 C 29.512 9.567,29.106 9.747,28.877 10.167 C 28.777 10.348,28.763 11.132,28.730 18.733 C 28.690 27.910,28.716 27.312,28.291 28.600 C 27.604 30.684,26.013 32.558,24.088 33.552 C 22.684 34.277,21.559 34.552,20.000 34.552 C 19.197 34.552,18.815 34.520,18.286 34.409 C 16.137 33.955,14.280 32.776,12.990 31.044 C 12.265 30.072,11.805 29.086,11.481 27.811 L 11.300 27.100 11.300 18.500 C 11.300 10.353,11.306 9.877,11.423 9.467 C 11.964 7.554,13.421 6.102,15.315 5.588 C 15.713 5.480,16.027 5.447,16.667 5.447 C 17.306 5.447,17.620 5.480,18.019 5.588 C 19.913 6.102,21.370 7.554,21.911 9.467 C 22.026 9.876,22.033 10.319,22.033 17.333 L 22.033 24.767 21.855 25.104 C 21.475 25.825,20.811 26.227,20.000 26.227 C 19.189 26.227,18.525 25.825,18.145 25.104 L 17.967 24.767 17.933 19.233 C 17.903 14.260,17.889 13.680,17.790 13.500 C 17.560 13.081,17.154 12.901,16.543 12.946 C 15.822 13.000,15.508 13.304,15.434 14.019 C 15.410 14.247,15.402 16.803,15.416 19.700 C 15.445 25.609,15.417 25.259,15.953 26.300 C 16.348 27.065,17.162 27.868,17.933 28.254 C 18.245 28.409,18.710 28.580,18.967 28.634 C 19.563 28.758,20.437 28.758,21.033 28.634 C 22.573 28.313,23.990 26.943,24.444 25.333 C 24.560 24.925,24.567 24.478,24.567 17.500 C 24.567 11.937,24.546 9.983,24.485 9.628 C 24.027 7.001,22.465 4.894,20.100 3.715 C 18.744 3.039,16.910 2.777,15.357 3.038 " stroke="none" fill-rule="evenodd" fill="black"></path></svg>