<svg width="40" height="40" viewBox="0 0 40 40" fill="none" xmlns="http://www.w3.org/2000/svg"><path d="M12.882 3.808 C 12.538 3.978,12.157 4.407,12.059 4.733 C 11.931 5.161,12.071 5.472,12.683 6.109 L 13.225 6.674 7.985 11.920 C 4.597 15.313,2.665 17.296,2.516 17.533 C 1.558 19.064,1.575 21.026,2.559 22.517 C 2.898 23.029,11.773 31.941,12.367 32.365 C 13.215 32.970,13.949 33.200,15.033 33.200 C 16.087 33.200,16.890 32.954,17.676 32.389 C 17.846 32.267,20.185 30.097,22.874 27.567 C 25.563 25.037,27.966 22.776,28.214 22.542 L 28.666 22.118 29.068 22.490 C 29.752 23.123,30.270 23.137,30.870 22.537 C 31.258 22.149,31.376 21.806,31.265 21.393 C 31.170 21.042,31.485 21.364,21.825 11.723 C 14.975 4.886,13.864 3.803,13.633 3.740 C 13.269 3.641,13.208 3.646,12.882 3.808 M20.167 13.600 L 25.300 18.733 15.000 18.733 L 4.700 18.733 9.833 13.600 C 12.656 10.777,14.981 8.467,15.000 8.467 C 15.019 8.467,17.344 10.777,20.167 13.600 M8.733 23.267 C 8.733 24.367,8.726 25.267,8.716 25.267 C 8.707 25.267,7.800 24.367,6.700 23.267 L 4.701 21.267 6.717 21.267 L 8.733 21.267 8.733 23.267 M13.733 25.783 L 13.733 30.299 12.500 29.067 L 11.267 27.835 11.267 24.551 L 11.267 21.267 12.500 21.267 L 13.733 21.267 13.733 25.783 M18.733 24.653 L 18.733 28.040 17.560 29.137 C 16.915 29.740,16.360 30.243,16.327 30.256 C 16.291 30.269,16.267 28.431,16.267 25.772 L 16.267 21.267 17.500 21.267 L 18.733 21.267 18.733 24.653 M25.867 21.290 C 25.867 21.319,21.744 25.210,21.465 25.445 L 21.267 25.612 21.267 23.439 L 21.267 21.267 23.567 21.267 C 24.832 21.267,25.867 21.277,25.867 21.290 M32.210 23.809 C 31.834 23.878,31.380 24.146,31.178 24.418 C 30.954 24.721,27.744 30.684,27.554 31.152 C 27.206 32.008,27.096 33.334,27.296 34.276 C 27.655 35.969,28.861 37.457,30.433 38.147 C 31.230 38.497,31.572 38.565,32.533 38.566 C 33.573 38.567,34.000 38.474,34.833 38.068 C 35.973 37.511,36.772 36.711,37.330 35.567 C 37.999 34.197,38.096 32.811,37.624 31.401 C 37.382 30.677,34.102 24.588,33.780 24.263 C 33.393 23.875,32.793 23.701,32.210 23.809 M34.026 29.782 C 34.679 31.001,35.256 32.141,35.310 32.316 C 35.364 32.490,35.407 32.873,35.407 33.167 C 35.405 34.615,34.436 35.776,32.973 36.083 C 32.166 36.252,31.143 35.883,30.502 35.191 C 29.713 34.338,29.465 33.175,29.854 32.151 C 29.948 31.904,32.028 27.967,32.517 27.110 C 32.557 27.040,32.579 27.080,34.026 29.782 " stroke="none" fill-rule="evenodd" fill="black"></path></svg>