<svg width="40" height="40" viewBox="0 0 40 40" fill="none" xmlns="http://www.w3.org/2000/svg"><path d="M7.512 2.131 C 6.912 2.248,6.650 2.651,6.680 3.412 C 6.703 3.987,6.814 4.202,7.207 4.433 C 7.431 4.565,7.553 4.567,20.000 4.567 C 32.447 4.567,32.569 4.565,32.793 4.433 C 33.212 4.186,33.300 3.996,33.300 3.333 C 33.300 2.670,33.212 2.480,32.793 2.233 C 32.569 2.101,32.438 2.100,20.167 2.090 C 13.347 2.085,7.652 2.103,7.512 2.131 M12.800 8.794 C 12.212 8.912,11.969 9.265,11.969 10.000 C 11.969 10.595,12.083 10.849,12.448 11.077 L 12.700 11.233 20.000 11.233 L 27.300 11.233 27.533 11.088 C 27.907 10.855,28.033 10.581,28.033 10.000 C 28.033 9.419,27.907 9.145,27.533 8.912 L 27.300 8.767 20.167 8.757 C 16.243 8.751,12.928 8.768,12.800 8.794 M10.533 15.461 C 9.946 15.579,9.703 15.931,9.703 16.667 C 9.703 17.262,9.816 17.516,10.182 17.744 L 10.433 17.900 20.000 17.900 C 29.448 17.900,29.569 17.898,29.788 17.767 C 30.161 17.542,30.300 17.243,30.300 16.667 C 30.300 16.091,30.161 15.791,29.788 15.567 C 29.570 15.435,29.440 15.433,20.167 15.424 C 14.997 15.418,10.662 15.435,10.533 15.461 M7.512 22.131 C 6.912 22.248,6.650 22.651,6.680 23.412 C 6.703 23.987,6.814 24.202,7.207 24.433 C 7.431 24.565,7.553 24.567,20.000 24.567 C 32.447 24.567,32.569 24.565,32.793 24.433 C 33.212 24.186,33.300 23.996,33.300 23.333 C 33.300 22.670,33.212 22.480,32.793 22.233 C 32.569 22.101,32.438 22.100,20.167 22.090 C 13.347 22.085,7.652 22.103,7.512 22.131 M12.046 28.797 C 11.445 28.915,11.183 29.318,11.214 30.079 C 11.236 30.654,11.347 30.868,11.740 31.100 C 11.963 31.231,12.087 31.233,20.000 31.233 C 27.913 31.233,28.037 31.231,28.260 31.100 C 28.679 30.853,28.767 30.663,28.767 30.000 C 28.767 29.337,28.679 29.147,28.260 28.900 C 28.037 28.769,27.904 28.767,20.167 28.757 C 15.840 28.751,12.186 28.770,12.046 28.797 M2.979 35.464 C 2.409 35.575,2.114 35.986,2.114 36.667 C 2.114 37.437,2.459 37.822,3.219 37.898 C 3.447 37.921,11.163 37.931,20.367 37.920 C 36.962 37.900,37.102 37.899,37.326 37.767 C 37.781 37.499,37.986 36.970,37.872 36.359 C 37.803 35.993,37.635 35.749,37.326 35.567 C 37.102 35.434,36.972 35.433,20.167 35.424 C 10.853 35.419,3.119 35.437,2.979 35.464 " stroke="none" fill-rule="evenodd" fill="black"></path></svg>