<svg width="40" height="40" viewBox="0 0 40 40" fill="none" xmlns="http://www.w3.org/2000/svg"><path d="M2.979 2.131 C 2.409 2.242,2.114 2.653,2.114 3.333 C 2.114 4.029,2.405 4.421,3.009 4.538 C 3.169 4.569,6.022 4.595,9.349 4.597 L 15.398 4.600 15.416 20.850 C 15.433 36.964,15.434 37.102,15.567 37.326 C 15.749 37.635,15.993 37.803,16.359 37.872 C 16.970 37.986,17.499 37.781,17.767 37.326 C 17.899 37.102,17.900 36.964,17.917 20.852 L 17.935 4.604 24.184 4.585 C 30.296 4.567,30.438 4.564,30.660 4.433 C 31.115 4.165,31.319 3.637,31.205 3.025 C 31.137 2.660,30.969 2.415,30.660 2.233 C 30.435 2.101,30.305 2.100,16.833 2.091 C 9.353 2.085,3.119 2.103,2.979 2.131 M21.020 17.405 C 20.263 17.780,20.266 19.229,21.025 19.596 C 21.299 19.729,21.414 19.733,24.520 19.733 L 27.732 19.733 27.749 28.450 C 27.768 38.046,27.739 37.408,28.180 37.705 C 28.579 37.974,29.414 37.964,29.791 37.685 C 30.189 37.390,30.165 37.961,30.184 28.450 L 30.201 19.733 33.413 19.733 C 36.520 19.733,36.634 19.729,36.908 19.596 C 37.278 19.417,37.467 19.047,37.467 18.500 C 37.467 17.953,37.278 17.583,36.908 17.404 C 36.627 17.268,36.563 17.267,28.962 17.267 C 21.338 17.267,21.299 17.267,21.020 17.405 " stroke="none" fill-rule="evenodd" fill="black"></path></svg>