<svg width="40" height="40" viewBox="0 0 40 40" fill="none" xmlns="http://www.w3.org/2000/svg"><path d="M19.167 2.110 C 10.853 2.502,3.835 8.641,2.376 16.800 C 2.019 18.794,2.019 21.206,2.376 23.200 C 3.367 28.741,7.016 33.568,12.100 36.063 C 14.671 37.325,17.091 37.882,20.000 37.882 C 22.909 37.882,25.329 37.325,27.900 36.063 C 33.394 33.367,37.088 28.110,37.804 21.967 C 37.847 21.600,37.882 20.715,37.882 20.000 C 37.882 17.091,37.325 14.671,36.063 12.100 C 35.046 10.028,33.790 8.362,32.010 6.728 C 29.299 4.237,25.662 2.594,22.000 2.207 C 21.249 2.128,19.822 2.079,19.167 2.110 M22.600 4.799 C 25.159 5.251,27.645 6.370,29.633 7.964 C 30.270 8.474,31.453 9.653,31.978 10.300 C 33.330 11.966,34.414 14.123,34.933 16.177 C 35.299 17.627,35.366 18.219,35.366 20.000 C 35.366 21.781,35.299 22.373,34.933 23.823 C 34.424 25.837,33.347 27.997,32.036 29.633 C 31.526 30.270,30.347 31.453,29.700 31.978 C 28.034 33.330,25.877 34.414,23.823 34.933 C 22.373 35.299,21.781 35.366,20.000 35.366 C 18.219 35.366,17.627 35.299,16.177 34.933 C 14.163 34.425,12.005 33.349,10.367 32.037 C 9.726 31.524,8.542 30.344,8.021 29.700 C 6.376 27.668,5.264 25.211,4.791 22.567 C 4.656 21.809,4.636 21.486,4.636 20.000 C 4.636 18.514,4.656 18.191,4.791 17.433 C 5.264 14.790,6.374 12.338,8.020 10.300 C 8.540 9.656,9.726 8.475,10.367 7.963 C 12.374 6.358,14.913 5.219,17.400 4.809 C 18.579 4.614,18.604 4.612,20.267 4.633 C 21.454 4.648,21.940 4.683,22.600 4.799 M13.538 12.137 C 13.270 12.173,12.901 12.295,12.548 12.464 C 10.229 13.577,9.701 16.651,11.517 18.463 C 12.996 19.939,15.336 19.943,16.806 18.473 C 18.268 17.010,18.273 14.659,16.815 13.201 C 16.355 12.741,15.702 12.350,15.165 12.212 C 14.756 12.107,14.012 12.072,13.538 12.137 M21.196 13.929 C 20.651 14.098,20.444 14.420,20.444 15.101 C 20.444 15.637,20.561 15.916,20.888 16.160 C 21.075 16.299,21.116 16.300,25.000 16.300 C 28.884 16.300,28.925 16.299,29.112 16.160 C 29.441 15.914,29.555 15.639,29.552 15.099 C 29.548 14.533,29.427 14.270,29.067 14.045 C 28.835 13.901,28.811 13.900,25.100 13.888 C 23.047 13.881,21.290 13.900,21.196 13.929 M14.893 14.823 C 15.850 15.553,15.360 17.067,14.167 17.067 C 13.780 17.067,13.396 16.873,13.154 16.556 C 12.989 16.339,12.967 16.254,12.967 15.828 C 12.967 15.391,12.985 15.323,13.168 15.097 C 13.479 14.713,13.758 14.588,14.242 14.615 C 14.563 14.634,14.702 14.678,14.893 14.823 M14.367 23.761 C 13.855 23.988,13.689 24.447,13.797 25.335 C 14.101 27.837,15.866 29.833,18.367 30.501 C 18.906 30.645,20.432 30.704,21.066 30.605 C 22.272 30.417,23.438 29.855,24.313 29.040 C 25.387 28.040,25.993 26.848,26.202 25.320 C 26.361 24.157,25.988 23.666,24.946 23.667 C 24.200 23.667,23.849 23.992,23.768 24.758 C 23.651 25.853,23.341 26.521,22.645 27.178 C 21.774 28.000,20.712 28.317,19.391 28.150 C 18.560 28.045,17.940 27.747,17.334 27.163 C 16.654 26.506,16.347 25.837,16.232 24.758 C 16.150 23.983,15.801 23.666,15.033 23.670 C 14.777 23.671,14.477 23.712,14.367 23.761 " stroke="none" fill-rule="evenodd" fill="black"></path></svg>