<svg width="40" height="40" viewBox="0 0 40 40" fill="none" xmlns="http://www.w3.org/2000/svg"><path d="M35.395 2.017 C 35.233 2.100,33.953 2.883,32.552 3.756 L 30.004 5.344 29.350 4.946 C 25.554 2.641,21.110 1.830,16.695 2.637 C 9.930 3.874,4.360 9.097,2.666 15.793 C 2.243 17.465,2.171 18.113,2.171 20.233 C 2.171 22.353,2.243 23.002,2.666 24.674 C 3.508 28.000,5.472 31.258,7.994 33.511 C 10.671 35.903,13.980 37.447,17.546 37.969 C 19.101 38.197,21.335 38.166,22.967 37.894 C 29.420 36.817,34.805 32.264,36.937 26.081 C 38.232 22.325,38.242 18.122,36.964 14.467 C 36.635 13.524,36.632 13.503,36.785 13.287 C 37.044 12.920,37.411 12.110,37.531 11.642 C 37.695 11.001,37.723 10.581,37.801 7.633 C 37.909 3.579,37.908 3.202,37.786 2.924 C 37.631 2.571,37.240 2.167,36.899 2.006 C 36.478 1.808,35.793 1.813,35.395 2.017 M21.372 4.871 C 22.975 5.026,24.726 5.475,26.167 6.100 C 26.705 6.334,27.885 6.940,27.991 7.037 C 28.004 7.049,27.950 7.150,27.870 7.262 C 27.623 7.608,27.222 8.543,27.095 9.067 C 26.930 9.746,26.929 10.868,27.093 11.533 C 27.433 12.914,28.280 14.135,29.400 14.857 C 30.688 15.688,32.515 15.904,33.972 15.397 C 34.189 15.321,34.417 15.243,34.479 15.223 C 34.571 15.193,34.623 15.290,34.760 15.743 C 35.278 17.452,35.424 18.586,35.381 20.567 C 35.344 22.261,35.243 22.967,34.829 24.446 C 33.260 30.053,28.604 34.290,22.800 35.392 C 19.331 36.050,15.512 35.402,12.396 33.626 C 10.824 32.729,9.180 31.342,8.073 29.978 C 5.856 27.246,4.600 23.721,4.600 20.233 C 4.600 14.947,7.339 9.999,11.833 7.166 C 13.647 6.022,16.041 5.176,18.133 4.938 C 18.482 4.899,18.857 4.856,18.967 4.843 C 19.422 4.790,20.692 4.805,21.372 4.871 M35.303 7.867 C 35.218 10.669,35.210 10.782,35.052 11.210 C 34.664 12.261,33.838 12.949,32.731 13.144 C 32.225 13.233,31.532 13.136,31.025 12.905 C 29.479 12.198,28.969 9.985,30.022 8.556 C 30.180 8.342,30.424 8.079,30.564 7.973 C 30.828 7.772,35.356 4.934,35.378 4.956 C 35.385 4.963,35.351 6.273,35.303 7.867 M14.335 12.447 C 14.000 12.620,13.818 12.932,13.767 13.419 C 13.743 13.647,13.733 15.003,13.745 16.433 C 13.766 18.970,13.770 19.039,13.912 19.267 C 14.145 19.641,14.419 19.767,15.000 19.767 C 15.581 19.767,15.855 19.641,16.088 19.267 C 16.232 19.036,16.233 19.000,16.233 16.067 C 16.233 13.220,16.228 13.091,16.100 12.874 C 15.868 12.480,15.654 12.370,15.079 12.347 C 14.686 12.331,14.513 12.355,14.335 12.447 M24.335 12.447 C 24.000 12.620,23.818 12.932,23.767 13.419 C 23.743 13.647,23.733 15.003,23.745 16.433 C 23.766 18.970,23.770 19.039,23.912 19.267 C 24.145 19.641,24.419 19.767,25.000 19.767 C 25.581 19.767,25.855 19.641,26.088 19.267 C 26.232 19.036,26.233 19.000,26.233 16.067 C 26.233 13.220,26.228 13.091,26.100 12.874 C 25.868 12.480,25.654 12.370,25.079 12.347 C 24.686 12.331,24.513 12.355,24.335 12.447 M14.552 24.673 C 13.837 24.757,13.135 24.953,12.118 25.356 C 11.022 25.790,10.634 26.008,10.500 26.266 C 10.256 26.738,10.491 27.608,10.959 27.965 C 11.342 28.257,11.648 28.222,12.880 27.741 C 14.176 27.236,14.652 27.122,15.500 27.119 C 16.375 27.116,17.052 27.283,18.200 27.786 C 20.045 28.594,21.329 28.896,23.267 28.977 C 23.991 29.008,24.459 28.989,25.133 28.903 C 26.415 28.740,28.634 28.163,29.113 27.870 C 29.848 27.420,29.605 25.943,28.749 25.661 C 28.455 25.564,28.251 25.599,26.970 25.967 C 25.309 26.443,24.009 26.600,22.800 26.468 C 21.385 26.314,20.643 26.109,19.025 25.425 C 17.290 24.692,16.105 24.492,14.552 24.673 " stroke="none" fill-rule="evenodd" fill="black"></path></svg>