<svg width="40" height="40" viewBox="0 0 40 40" fill="none" xmlns="http://www.w3.org/2000/svg"><path d="M19.167 2.110 C 10.853 2.502,3.835 8.641,2.376 16.800 C 2.019 18.794,2.019 21.206,2.376 23.200 C 3.367 28.741,7.016 33.568,12.100 36.063 C 14.671 37.325,17.091 37.882,20.000 37.882 C 22.909 37.882,25.329 37.325,27.900 36.063 C 33.394 33.367,37.088 28.110,37.804 21.967 C 37.847 21.600,37.882 20.715,37.882 20.000 C 37.882 17.091,37.325 14.671,36.063 12.100 C 33.823 7.536,29.810 4.189,24.872 2.768 C 23.159 2.275,20.983 2.024,19.167 2.110 M22.600 4.799 C 25.159 5.251,27.645 6.370,29.633 7.964 C 30.270 8.474,31.453 9.653,31.978 10.300 C 33.330 11.966,34.414 14.123,34.933 16.177 C 35.299 17.627,35.366 18.219,35.366 20.000 C 35.366 21.781,35.299 22.373,34.933 23.823 C 34.424 25.837,33.347 27.997,32.036 29.633 C 31.526 30.270,30.347 31.453,29.700 31.978 C 28.034 33.330,25.877 34.414,23.823 34.933 C 22.373 35.299,21.781 35.366,20.000 35.366 C 18.219 35.366,17.627 35.299,16.177 34.933 C 14.164 34.425,12.010 33.351,10.367 32.037 C 9.726 31.525,8.540 30.344,8.020 29.700 C 6.374 27.662,5.264 25.210,4.791 22.567 C 4.656 21.809,4.636 21.486,4.636 20.000 C 4.636 18.514,4.656 18.191,4.791 17.433 C 5.264 14.790,6.374 12.338,8.020 10.300 C 8.540 9.656,9.726 8.475,10.367 7.963 C 12.374 6.358,14.913 5.219,17.400 4.809 C 18.579 4.614,18.604 4.612,20.267 4.633 C 21.454 4.648,21.940 4.683,22.600 4.799 M9.646 13.796 C 9.075 13.910,8.780 14.320,8.780 15.000 C 8.780 15.769,9.125 16.154,9.886 16.233 C 10.114 16.257,11.830 16.266,13.700 16.255 C 16.959 16.234,17.109 16.228,17.326 16.100 C 17.781 15.832,17.986 15.304,17.872 14.692 C 17.803 14.326,17.635 14.082,17.326 13.900 C 17.108 13.771,16.970 13.766,13.500 13.756 C 11.520 13.750,9.786 13.768,9.646 13.796 M22.863 13.929 C 22.318 14.098,22.111 14.420,22.111 15.101 C 22.111 15.637,22.228 15.916,22.555 16.160 C 22.741 16.299,22.782 16.300,26.667 16.300 C 30.551 16.300,30.592 16.299,30.778 16.160 C 31.108 15.914,31.222 15.639,31.218 15.099 C 31.215 14.533,31.094 14.270,30.733 14.045 C 30.501 13.901,30.477 13.900,26.767 13.888 C 24.713 13.881,22.957 13.900,22.863 13.929 M11.322 20.462 C 10.842 20.557,10.554 20.856,10.463 21.353 C 10.435 21.507,10.437 21.963,10.468 22.367 C 10.647 24.713,11.592 26.780,13.239 28.427 C 16.978 32.167,23.018 32.166,26.759 28.425 C 28.412 26.772,29.337 24.754,29.529 22.382 C 29.620 21.256,29.505 20.868,28.993 20.567 C 28.770 20.435,28.638 20.433,20.167 20.424 C 15.437 20.418,11.457 20.436,11.322 20.462 M26.933 23.060 C 26.933 23.503,26.380 24.839,25.888 25.584 C 24.595 27.542,22.367 28.733,20.000 28.733 C 16.849 28.733,14.143 26.706,13.206 23.643 C 13.130 23.392,13.067 23.129,13.067 23.060 C 13.067 22.936,13.240 22.933,20.000 22.933 C 26.760 22.933,26.933 22.936,26.933 23.060 " stroke="none" fill-rule="evenodd" fill="black"></path></svg>