<svg width="40" height="40" viewBox="0 0 40 40" fill="none" xmlns="http://www.w3.org/2000/svg"><path d="M19.200 2.109 C 10.435 2.517,3.278 9.177,2.230 17.900 C 2.076 19.185,2.125 21.666,2.329 22.860 C 2.893 26.169,4.258 29.105,6.406 31.633 C 6.959 32.284,8.082 33.387,8.679 33.867 L 9.052 34.167 9.016 35.011 C 8.972 36.048,9.053 36.513,9.406 37.249 C 9.881 38.239,10.766 39.010,11.849 39.376 C 12.307 39.531,12.474 39.551,13.300 39.554 C 14.357 39.558,14.722 39.479,15.500 39.078 C 15.935 38.853,16.822 38.078,16.975 37.789 C 17.029 37.686,17.091 37.685,17.800 37.777 C 18.844 37.912,21.196 37.910,22.198 37.774 C 22.917 37.676,22.967 37.676,23.027 37.785 C 23.171 38.044,23.849 38.686,24.243 38.935 C 24.475 39.081,24.897 39.279,25.182 39.376 C 25.641 39.531,25.807 39.551,26.633 39.554 C 27.345 39.557,27.661 39.529,27.967 39.438 C 29.117 39.094,30.102 38.278,30.586 37.267 C 30.953 36.500,31.029 36.055,30.980 34.964 C 30.942 34.130,30.947 34.071,31.066 34.034 C 31.240 33.978,32.323 33.012,32.973 32.331 C 36.359 28.785,38.136 23.989,37.868 19.118 C 37.744 16.869,37.368 15.170,36.550 13.167 C 34.324 7.713,29.425 3.658,23.617 2.463 C 22.384 2.210,20.421 2.052,19.200 2.109 M21.602 4.667 C 24.894 5.056,27.744 6.303,30.133 8.397 C 32.886 10.810,34.609 13.935,35.246 17.667 C 35.415 18.658,35.416 21.339,35.247 22.321 C 34.757 25.176,33.672 27.625,31.977 29.700 C 31.626 30.130,30.726 31.083,30.700 31.052 C 30.691 31.042,30.470 28.213,30.209 24.767 C 29.947 21.320,29.717 18.376,29.697 18.225 L 29.661 17.949 30.095 17.903 C 30.877 17.819,31.220 17.443,31.220 16.667 C 31.220 15.971,30.928 15.579,30.324 15.462 C 29.945 15.389,23.388 15.389,23.009 15.462 C 22.405 15.579,22.114 15.971,22.114 16.667 C 22.114 17.442,22.456 17.819,23.235 17.903 L 23.666 17.949 23.630 18.291 C 23.610 18.479,23.310 22.338,22.963 26.867 C 22.615 31.395,22.320 35.132,22.306 35.170 C 22.234 35.373,19.540 35.478,18.300 35.327 C 17.970 35.286,17.695 35.249,17.690 35.243 C 17.684 35.238,17.392 31.483,17.041 26.900 C 16.690 22.317,16.387 18.428,16.367 18.258 L 16.331 17.949 16.763 17.903 C 17.544 17.819,17.886 17.442,17.886 16.667 C 17.886 15.971,17.595 15.579,16.991 15.462 C 16.612 15.389,10.055 15.389,9.676 15.462 C 9.072 15.579,8.780 15.971,8.780 16.667 C 8.780 17.442,9.123 17.819,9.902 17.903 L 10.333 17.949 10.297 18.291 C 10.246 18.771,9.334 30.694,9.331 30.917 C 9.328 31.086,9.284 31.054,8.765 30.515 C 5.713 27.343,4.178 22.710,4.700 18.247 C 5.036 15.372,6.201 12.583,8.003 10.333 C 8.544 9.659,9.780 8.432,10.438 7.916 C 12.653 6.181,15.239 5.095,18.100 4.699 C 18.845 4.596,20.846 4.577,21.602 4.667 M13.866 18.017 C 13.865 18.063,14.169 22.052,14.542 26.882 C 15.214 35.595,15.218 35.666,15.100 35.975 C 14.949 36.371,14.605 36.753,14.241 36.929 C 14.017 37.038,13.828 37.067,13.333 37.067 C 12.839 37.067,12.650 37.038,12.425 36.929 C 12.062 36.754,11.718 36.371,11.567 35.976 C 11.449 35.668,11.454 35.587,12.126 26.849 C 12.499 22.000,12.803 18.011,12.802 17.983 C 12.801 17.956,13.040 17.933,13.333 17.933 C 13.716 17.933,13.866 17.957,13.866 18.017 M27.198 17.983 C 27.197 18.011,27.501 22.000,27.874 26.849 C 28.547 35.592,28.552 35.666,28.434 35.975 C 28.282 36.371,27.938 36.753,27.575 36.929 C 27.350 37.038,27.161 37.067,26.667 37.067 C 26.172 37.067,25.983 37.038,25.759 36.929 C 25.395 36.754,25.051 36.371,24.900 35.976 C 24.782 35.668,24.787 35.587,25.459 26.849 C 25.832 22.000,26.136 18.011,26.135 17.983 C 26.134 17.956,26.373 17.933,26.667 17.933 C 26.960 17.933,27.199 17.956,27.198 17.983 " stroke="none" fill-rule="evenodd" fill="black"></path></svg>