<svg width="40" height="40" viewBox="0 0 40 40" fill="none" xmlns="http://www.w3.org/2000/svg"><path d="M19.167 2.110 C 10.853 2.502,3.835 8.641,2.376 16.800 C 2.019 18.794,2.019 21.206,2.376 23.200 C 3.367 28.741,7.016 33.568,12.100 36.063 C 14.671 37.325,17.091 37.882,20.000 37.882 C 22.909 37.882,25.329 37.325,27.900 36.063 C 33.394 33.367,37.088 28.110,37.804 21.967 C 37.847 21.600,37.882 20.715,37.882 20.000 C 37.882 17.091,37.325 14.671,36.063 12.100 C 35.046 10.028,33.790 8.362,32.010 6.728 C 29.299 4.237,25.662 2.594,22.000 2.207 C 21.249 2.128,19.822 2.079,19.167 2.110 M22.600 4.799 C 25.159 5.251,27.645 6.370,29.633 7.964 C 30.270 8.474,31.453 9.653,31.978 10.300 C 33.330 11.966,34.414 14.123,34.933 16.177 C 35.299 17.627,35.366 18.219,35.366 20.000 C 35.366 21.781,35.299 22.373,34.933 23.823 C 34.424 25.837,33.347 27.997,32.036 29.633 C 31.526 30.270,30.347 31.453,29.700 31.978 C 28.034 33.330,25.877 34.414,23.823 34.933 C 22.373 35.299,21.781 35.366,20.000 35.366 C 18.219 35.366,17.627 35.299,16.177 34.933 C 14.163 34.425,12.005 33.349,10.367 32.037 C 9.726 31.524,8.542 30.344,8.021 29.700 C 6.376 27.668,5.264 25.211,4.791 22.567 C 4.656 21.809,4.636 21.486,4.636 20.000 C 4.636 18.514,4.656 18.191,4.791 17.433 C 5.264 14.790,6.374 12.338,8.020 10.300 C 8.540 9.656,9.726 8.475,10.367 7.963 C 12.374 6.358,14.913 5.219,17.400 4.809 C 18.579 4.614,18.604 4.612,20.267 4.633 C 21.454 4.648,21.940 4.683,22.600 4.799 M10.868 12.914 C 10.180 13.050,9.710 14.273,10.122 14.852 C 10.208 14.972,10.396 15.130,10.540 15.204 C 10.907 15.390,17.116 17.705,17.392 17.757 C 18.126 17.897,18.801 17.131,18.717 16.256 C 18.656 15.615,18.632 15.602,14.833 14.183 C 13.000 13.498,11.395 12.925,11.267 12.909 C 11.138 12.894,10.959 12.896,10.868 12.914 M29.003 12.915 C 28.766 12.960,22.548 15.289,22.221 15.456 C 21.616 15.765,21.462 16.402,21.822 17.112 C 22.098 17.655,22.541 17.873,23.083 17.731 C 23.239 17.691,24.822 17.113,26.600 16.448 C 30.288 15.069,30.323 15.050,30.384 14.411 C 30.444 13.782,30.042 13.073,29.545 12.935 C 29.291 12.865,29.275 12.864,29.003 12.915 M18.533 23.766 C 17.199 24.035,15.829 24.894,15.005 25.979 C 14.286 26.926,13.797 28.272,13.777 29.358 C 13.769 29.821,13.790 29.937,13.924 30.152 C 14.122 30.472,14.364 30.595,14.890 30.645 C 15.227 30.676,15.369 30.657,15.617 30.547 C 16.007 30.375,16.158 30.093,16.257 29.354 C 16.391 28.349,16.761 27.611,17.420 27.035 C 18.155 26.392,18.895 26.133,20.000 26.133 C 21.160 26.133,21.953 26.430,22.671 27.133 C 23.328 27.777,23.611 28.364,23.743 29.354 C 23.842 30.093,23.993 30.375,24.383 30.547 C 24.632 30.658,24.773 30.676,25.118 30.644 C 25.611 30.598,25.909 30.439,26.099 30.121 C 26.394 29.626,26.170 28.152,25.630 27.033 C 24.806 25.329,23.236 24.111,21.411 23.761 C 20.800 23.643,19.128 23.647,18.533 23.766 " stroke="none" fill-rule="evenodd" fill="black"></path></svg>