<svg width="40" height="40" viewBox="0 0 40 40" fill="none" xmlns="http://www.w3.org/2000/svg"><path d="M19.167 2.110 C 11.852 2.455,5.450 7.249,3.069 14.165 C 2.389 16.142,2.117 17.810,2.117 20.000 C 2.117 22.190,2.389 23.858,3.069 25.835 C 4.973 31.365,9.451 35.598,15.128 37.232 C 16.731 37.693,18.144 37.882,20.000 37.882 C 22.909 37.882,25.329 37.325,27.900 36.063 C 33.394 33.367,37.088 28.110,37.804 21.967 C 37.847 21.600,37.882 20.715,37.882 20.000 C 37.882 17.091,37.325 14.671,36.063 12.100 C 33.823 7.536,29.810 4.189,24.872 2.768 C 23.159 2.275,20.983 2.024,19.167 2.110 M22.600 4.799 C 25.159 5.251,27.645 6.370,29.633 7.964 C 30.270 8.474,31.453 9.653,31.978 10.300 C 33.330 11.966,34.414 14.123,34.933 16.177 C 35.299 17.627,35.366 18.219,35.366 20.000 C 35.366 21.781,35.299 22.373,34.933 23.823 C 34.424 25.837,33.347 27.997,32.036 29.633 C 31.526 30.270,30.347 31.453,29.700 31.978 C 28.034 33.330,25.877 34.414,23.823 34.933 C 22.373 35.299,21.781 35.366,20.000 35.366 C 18.219 35.366,17.627 35.299,16.177 34.933 C 14.163 34.425,12.005 33.349,10.367 32.037 C 9.726 31.524,8.542 30.344,8.021 29.700 C 6.376 27.668,5.264 25.211,4.791 22.567 C 4.656 21.809,4.636 21.486,4.636 20.000 C 4.636 18.514,4.656 18.191,4.791 17.433 C 5.264 14.790,6.374 12.338,8.020 10.300 C 8.540 9.656,9.726 8.475,10.367 7.963 C 12.374 6.358,14.913 5.219,17.400 4.809 C 18.579 4.614,18.604 4.612,20.267 4.633 C 21.454 4.648,21.940 4.683,22.600 4.799 M13.538 13.806 C 12.446 13.947,11.315 14.802,10.801 15.876 C 10.377 16.760,10.303 17.803,10.629 18.288 C 10.839 18.600,11.090 18.700,11.667 18.700 C 12.526 18.700,12.801 18.442,12.918 17.530 C 12.974 17.093,13.025 16.941,13.179 16.750 C 13.649 16.169,14.463 16.099,15.024 16.591 C 15.234 16.776,15.381 17.147,15.430 17.614 C 15.514 18.422,15.832 18.700,16.667 18.700 C 17.243 18.700,17.494 18.600,17.704 18.288 C 18.029 17.805,17.954 16.772,17.530 15.876 C 17.003 14.765,15.915 13.964,14.712 13.803 C 14.139 13.726,14.151 13.726,13.538 13.806 M25.205 13.806 C 24.112 13.947,22.982 14.802,22.467 15.876 C 22.044 16.760,21.969 17.803,22.296 18.288 C 22.506 18.600,22.757 18.700,23.333 18.700 C 24.192 18.700,24.468 18.442,24.585 17.530 C 24.640 17.093,24.691 16.941,24.845 16.750 C 25.316 16.169,26.129 16.099,26.690 16.591 C 26.900 16.776,27.048 17.147,27.097 17.614 C 27.181 18.422,27.498 18.700,28.333 18.700 C 28.910 18.700,29.161 18.600,29.371 18.288 C 29.696 17.805,29.621 16.772,29.196 15.876 C 28.675 14.774,27.566 13.958,26.379 13.802 C 25.805 13.727,25.817 13.726,25.205 13.806 M14.646 27.130 C 14.075 27.243,13.780 27.653,13.780 28.333 C 13.780 29.103,14.125 29.488,14.886 29.566 C 15.114 29.589,17.580 29.599,20.367 29.588 C 25.294 29.567,25.440 29.563,25.660 29.433 C 25.969 29.251,26.137 29.007,26.205 28.641 C 26.319 28.030,26.115 27.501,25.660 27.233 C 25.439 27.103,25.304 27.100,20.167 27.090 C 17.270 27.084,14.786 27.102,14.646 27.130 " stroke="none" fill-rule="evenodd" fill="black"></path></svg>