<svg width="40" height="40" viewBox="0 0 40 40" fill="none" xmlns="http://www.w3.org/2000/svg"><path d="M19.167 2.110 C 10.853 2.502,3.835 8.641,2.376 16.800 C 2.019 18.794,2.019 21.206,2.376 23.200 C 3.367 28.741,7.016 33.568,12.100 36.063 C 14.671 37.325,17.091 37.882,20.000 37.882 C 22.909 37.882,25.329 37.325,27.900 36.063 C 33.394 33.367,37.088 28.110,37.804 21.967 C 37.847 21.600,37.882 20.715,37.882 20.000 C 37.882 17.091,37.325 14.671,36.063 12.100 C 33.823 7.536,29.810 4.189,24.872 2.768 C 23.159 2.275,20.983 2.024,19.167 2.110 M22.600 4.799 C 25.159 5.251,27.645 6.370,29.633 7.964 C 30.270 8.474,31.453 9.653,31.978 10.300 C 33.330 11.966,34.414 14.123,34.933 16.177 C 35.299 17.627,35.366 18.219,35.366 20.000 C 35.366 21.781,35.299 22.373,34.933 23.823 C 34.424 25.837,33.347 27.997,32.036 29.633 C 31.526 30.270,30.347 31.453,29.700 31.978 C 28.034 33.330,25.877 34.414,23.823 34.933 C 22.373 35.299,21.781 35.366,20.000 35.366 C 18.219 35.366,17.627 35.299,16.177 34.933 C 14.164 34.425,12.010 33.351,10.367 32.037 C 9.726 31.525,8.540 30.344,8.020 29.700 C 6.374 27.662,5.264 25.210,4.791 22.567 C 4.656 21.809,4.636 21.486,4.636 20.000 C 4.636 18.514,4.656 18.191,4.791 17.433 C 5.264 14.790,6.374 12.338,8.020 10.300 C 8.540 9.656,9.726 8.475,10.367 7.963 C 12.374 6.358,14.913 5.219,17.400 4.809 C 18.579 4.614,18.604 4.612,20.267 4.633 C 21.454 4.648,21.940 4.683,22.600 4.799 M13.538 12.139 C 13.264 12.175,12.908 12.292,12.548 12.464 C 10.680 13.361,9.902 15.582,10.801 17.457 C 11.910 19.773,14.986 20.293,16.806 18.473 C 18.271 17.007,18.271 14.660,16.806 13.194 C 16.233 12.622,15.469 12.235,14.712 12.135 C 14.139 12.060,14.150 12.060,13.538 12.139 M25.205 12.139 C 24.931 12.175,24.575 12.292,24.214 12.464 C 22.347 13.361,21.569 15.582,22.467 17.457 C 23.576 19.773,26.652 20.293,28.473 18.473 C 30.291 16.654,29.779 13.603,27.467 12.480 C 27.056 12.280,26.757 12.185,26.379 12.135 C 25.805 12.060,25.817 12.060,25.205 12.139 M14.687 14.708 C 15.149 14.942,15.400 15.338,15.400 15.833 C 15.400 16.583,14.821 17.108,14.057 17.053 C 13.614 17.021,13.274 16.799,13.053 16.398 C 12.854 16.038,12.911 15.415,13.171 15.093 C 13.281 14.958,13.474 14.792,13.601 14.724 C 13.887 14.570,14.400 14.563,14.687 14.708 M26.353 14.708 C 26.816 14.942,27.067 15.338,27.067 15.833 C 27.067 16.583,26.488 17.108,25.724 17.053 C 25.281 17.021,24.941 16.799,24.720 16.398 C 24.521 16.038,24.577 15.415,24.838 15.093 C 24.947 14.958,25.140 14.792,25.267 14.724 C 25.553 14.570,26.067 14.563,26.353 14.708 M14.646 27.130 C 14.075 27.243,13.780 27.653,13.780 28.333 C 13.780 29.103,14.125 29.488,14.886 29.566 C 15.114 29.589,17.580 29.599,20.367 29.588 C 25.294 29.567,25.440 29.563,25.660 29.433 C 25.969 29.251,26.137 29.007,26.205 28.641 C 26.319 28.030,26.115 27.501,25.660 27.233 C 25.439 27.103,25.304 27.100,20.167 27.090 C 17.270 27.084,14.786 27.102,14.646 27.130 " stroke="none" fill-rule="evenodd" fill="black"></path></svg>