<svg width="40" height="40" viewBox="0 0 40 40" fill="none" xmlns="http://www.w3.org/2000/svg"><path d="M19.167 2.110 C 10.853 2.502,3.835 8.641,2.376 16.800 C 2.019 18.794,2.019 21.206,2.376 23.200 C 3.367 28.741,7.016 33.568,12.100 36.063 C 14.671 37.325,17.091 37.882,20.000 37.882 C 22.909 37.882,25.329 37.325,27.900 36.063 C 33.394 33.367,37.088 28.110,37.804 21.967 C 37.847 21.600,37.882 20.715,37.882 20.000 C 37.882 17.091,37.325 14.671,36.063 12.100 C 35.046 10.028,33.790 8.362,32.010 6.728 C 29.299 4.237,25.662 2.594,22.000 2.207 C 21.249 2.128,19.822 2.079,19.167 2.110 M22.600 4.799 C 25.159 5.251,27.645 6.370,29.633 7.964 C 30.270 8.474,31.453 9.653,31.978 10.300 C 33.330 11.966,34.414 14.123,34.933 16.177 C 35.299 17.627,35.366 18.219,35.366 20.000 C 35.366 21.781,35.299 22.373,34.933 23.823 C 34.424 25.837,33.347 27.997,32.036 29.633 C 31.526 30.270,30.347 31.453,29.700 31.978 C 28.034 33.330,25.877 34.414,23.823 34.933 C 22.373 35.299,21.781 35.366,20.000 35.366 C 18.219 35.366,17.627 35.299,16.177 34.933 C 14.163 34.425,12.005 33.349,10.367 32.037 C 9.726 31.524,8.542 30.344,8.021 29.700 C 6.376 27.668,5.264 25.211,4.791 22.567 C 4.656 21.809,4.636 21.486,4.636 20.000 C 4.636 18.514,4.656 18.191,4.791 17.433 C 5.264 14.790,6.374 12.338,8.020 10.300 C 8.540 9.656,9.726 8.475,10.367 7.963 C 12.374 6.358,14.913 5.219,17.400 4.809 C 18.579 4.614,18.604 4.612,20.267 4.633 C 21.454 4.648,21.940 4.683,22.600 4.799 M10.396 11.655 C 10.045 11.878,9.743 12.290,9.690 12.617 C 9.618 13.061,9.767 13.304,10.687 14.247 L 11.557 15.137 10.720 15.985 C 9.770 16.949,9.637 17.154,9.685 17.583 C 9.743 18.096,10.371 18.724,10.884 18.782 C 11.312 18.830,11.518 18.697,12.483 17.745 L 13.333 16.907 14.183 17.745 C 15.149 18.697,15.354 18.830,15.783 18.782 C 16.296 18.724,16.924 18.096,16.982 17.583 C 17.030 17.154,16.897 16.949,15.947 15.985 L 15.110 15.137 15.979 14.247 C 16.900 13.304,17.049 13.061,16.977 12.617 C 16.891 12.086,16.217 11.467,15.726 11.467 C 15.588 11.467,15.391 11.499,15.289 11.538 C 15.186 11.577,14.705 12.003,14.218 12.484 L 13.333 13.360 12.449 12.484 C 11.962 12.003,11.480 11.577,11.378 11.538 C 11.051 11.413,10.714 11.453,10.396 11.655 M23.730 11.655 C 23.378 11.878,23.076 12.290,23.023 12.617 C 22.951 13.061,23.100 13.304,24.021 14.247 L 24.890 15.137 24.053 15.985 C 23.103 16.949,22.970 17.154,23.018 17.583 C 23.076 18.096,23.704 18.724,24.217 18.782 C 24.646 18.830,24.851 18.697,25.817 17.745 L 26.667 16.907 27.517 17.745 C 28.482 18.697,28.688 18.830,29.116 18.782 C 29.629 18.724,30.257 18.096,30.315 17.583 C 30.363 17.154,30.230 16.949,29.280 15.985 L 28.443 15.137 29.313 14.247 C 30.233 13.304,30.382 13.061,30.310 12.617 C 30.224 12.086,29.551 11.467,29.060 11.467 C 28.922 11.467,28.725 11.499,28.622 11.538 C 28.520 11.577,28.038 12.003,27.551 12.484 L 26.667 13.360 25.782 12.484 C 25.295 12.003,24.814 11.577,24.711 11.538 C 24.384 11.413,24.047 11.453,23.730 11.655 M14.367 23.761 C 13.855 23.988,13.689 24.447,13.797 25.335 C 14.101 27.837,15.866 29.833,18.367 30.501 C 18.906 30.645,20.432 30.704,21.066 30.605 C 22.272 30.417,23.438 29.855,24.313 29.040 C 25.387 28.040,25.993 26.848,26.202 25.320 C 26.361 24.157,25.988 23.666,24.946 23.667 C 24.200 23.667,23.849 23.992,23.768 24.758 C 23.651 25.853,23.341 26.521,22.645 27.178 C 21.774 28.000,20.712 28.317,19.391 28.150 C 18.560 28.045,17.940 27.747,17.334 27.163 C 16.654 26.506,16.347 25.837,16.232 24.758 C 16.150 23.983,15.801 23.666,15.033 23.670 C 14.777 23.671,14.477 23.712,14.367 23.761 " stroke="none" fill-rule="evenodd" fill="black"></path></svg>