<svg width="40" height="40" viewBox="0 0 40 40" fill="none" xmlns="http://www.w3.org/2000/svg"><path d="M35.767 1.592 C 35.475 1.667,35.467 1.672,32.616 3.484 L 29.999 5.148 29.583 4.881 C 27.587 3.600,25.384 2.769,22.800 2.323 C 22.006 2.185,21.685 2.167,20.067 2.167 C 17.631 2.167,16.406 2.353,14.356 3.035 C 7.911 5.180,3.386 10.582,2.286 17.442 C 2.118 18.490,2.118 21.521,2.286 22.600 C 2.900 26.537,4.665 30.010,7.442 32.747 C 8.334 33.626,8.880 34.085,9.760 34.694 C 12.519 36.605,15.459 37.628,18.910 37.879 C 20.957 38.028,23.248 37.758,25.299 37.125 C 27.354 36.491,29.530 35.336,31.267 33.957 C 31.981 33.391,33.362 32.009,33.957 31.267 C 35.058 29.894,36.235 27.809,36.834 26.176 C 38.225 22.377,38.281 18.238,36.993 14.326 L 36.651 13.285 36.878 12.926 C 37.337 12.199,37.628 11.368,37.703 10.572 C 37.789 9.664,37.914 3.187,37.852 2.896 C 37.760 2.461,37.425 2.010,37.032 1.791 C 36.673 1.591,36.111 1.502,35.767 1.592 M22.467 4.793 C 24.084 5.077,25.435 5.512,26.833 6.200 C 28.143 6.843,28.071 6.765,27.778 7.240 C 27.079 8.376,26.826 9.886,27.105 11.253 C 27.228 11.855,27.672 12.834,28.052 13.342 C 28.567 14.030,29.441 14.764,29.834 14.838 C 29.961 14.862,30.052 14.904,30.035 14.931 C 29.948 15.071,31.118 15.391,31.913 15.445 C 32.619 15.493,33.335 15.396,34.032 15.160 C 34.289 15.072,34.520 15.001,34.545 15.000 C 34.645 14.999,35.028 16.387,35.245 17.533 C 35.343 18.048,35.365 18.509,35.363 20.000 C 35.361 21.999,35.302 22.497,34.874 24.073 C 33.439 29.369,29.256 33.523,23.973 34.900 C 22.820 35.200,22.052 35.326,20.971 35.393 C 18.248 35.559,15.550 35.009,13.112 33.791 C 9.797 32.134,7.090 29.207,5.741 25.820 C 4.486 22.667,4.267 19.387,5.094 16.150 C 6.019 12.532,8.321 9.294,11.467 7.188 C 12.402 6.562,14.094 5.741,15.200 5.377 C 16.123 5.073,17.487 4.774,18.433 4.668 C 19.326 4.569,21.589 4.638,22.467 4.793 M35.376 5.617 C 35.354 6.102,35.317 7.340,35.294 8.367 C 35.248 10.462,35.215 10.731,34.935 11.303 C 34.381 12.436,33.094 13.124,31.889 12.932 C 31.180 12.818,30.720 12.579,30.268 12.086 C 29.315 11.046,29.211 9.598,30.003 8.411 C 30.152 8.188,30.385 7.918,30.520 7.811 C 30.838 7.560,35.281 4.734,35.358 4.733 C 35.390 4.733,35.398 5.129,35.376 5.617 M14.646 12.130 C 14.330 12.193,14.074 12.379,13.900 12.674 C 13.772 12.891,13.767 13.020,13.767 15.833 C 13.767 18.647,13.772 18.776,13.900 18.993 C 14.082 19.302,14.326 19.470,14.692 19.538 C 15.304 19.653,15.832 19.448,16.100 18.993 C 16.226 18.779,16.235 18.625,16.255 16.200 C 16.280 13.319,16.255 12.902,16.045 12.589 C 15.781 12.198,15.228 12.016,14.646 12.130 M24.646 12.130 C 24.330 12.193,24.074 12.379,23.900 12.674 C 23.772 12.891,23.767 13.020,23.767 15.833 C 23.767 18.647,23.772 18.776,23.900 18.993 C 24.168 19.448,24.696 19.653,25.308 19.538 C 25.674 19.470,25.918 19.302,26.100 18.993 C 26.226 18.779,26.235 18.625,26.255 16.200 C 26.280 13.319,26.255 12.902,26.045 12.589 C 25.781 12.198,25.228 12.016,24.646 12.130 M14.646 27.130 C 14.075 27.243,13.780 27.653,13.780 28.333 C 13.780 29.103,14.125 29.488,14.886 29.566 C 15.114 29.589,17.580 29.599,20.367 29.588 C 25.294 29.567,25.440 29.563,25.660 29.433 C 25.969 29.251,26.137 29.007,26.205 28.641 C 26.319 28.030,26.115 27.501,25.660 27.233 C 25.439 27.103,25.304 27.100,20.167 27.090 C 17.270 27.084,14.786 27.102,14.646 27.130 " stroke="none" fill-rule="evenodd" fill="black"></path></svg>