<svg width="40" height="40" viewBox="0 0 40 40" fill="none" xmlns="http://www.w3.org/2000/svg"><path d="M19.167 2.110 C 11.852 2.455,5.450 7.249,3.069 14.165 C 2.389 16.142,2.117 17.810,2.117 20.000 C 2.117 22.190,2.389 23.858,3.069 25.835 C 4.973 31.365,9.451 35.598,15.128 37.232 C 16.731 37.693,18.144 37.882,20.000 37.882 C 22.909 37.882,25.329 37.325,27.900 36.063 C 33.394 33.367,37.088 28.110,37.804 21.967 C 37.847 21.600,37.882 20.715,37.882 20.000 C 37.882 17.091,37.325 14.671,36.063 12.100 C 33.823 7.536,29.810 4.189,24.872 2.768 C 23.159 2.275,20.983 2.024,19.167 2.110 M22.600 4.799 C 25.159 5.251,27.645 6.370,29.633 7.964 C 30.270 8.474,31.453 9.653,31.978 10.300 C 33.330 11.966,34.414 14.123,34.933 16.177 C 35.299 17.627,35.366 18.219,35.366 20.000 C 35.366 21.781,35.299 22.373,34.933 23.823 C 34.424 25.837,33.347 27.997,32.036 29.633 C 31.526 30.270,30.347 31.453,29.700 31.978 C 28.034 33.330,25.877 34.414,23.823 34.933 C 22.373 35.299,21.781 35.366,20.000 35.366 C 18.219 35.366,17.627 35.299,16.177 34.933 C 14.163 34.425,12.005 33.349,10.367 32.037 C 9.726 31.524,8.542 30.344,8.021 29.700 C 6.376 27.668,5.264 25.211,4.791 22.567 C 4.656 21.809,4.636 21.486,4.636 20.000 C 4.636 18.514,4.656 18.191,4.791 17.433 C 5.264 14.790,6.374 12.338,8.020 10.300 C 8.540 9.656,9.726 8.475,10.367 7.963 C 12.374 6.358,14.913 5.219,17.400 4.809 C 18.579 4.614,18.604 4.612,20.267 4.633 C 21.454 4.648,21.940 4.683,22.600 4.799 M13.538 12.139 C 13.264 12.175,12.908 12.292,12.548 12.464 C 10.222 13.580,9.701 16.648,11.526 18.474 C 13.345 20.292,16.396 19.779,17.521 17.467 C 18.627 15.192,17.192 12.468,14.712 12.136 C 14.139 12.060,14.151 12.060,13.538 12.139 M25.205 12.139 C 24.931 12.175,24.575 12.292,24.214 12.464 C 22.347 13.361,21.569 15.582,22.467 17.457 C 23.576 19.773,26.652 20.293,28.473 18.473 C 30.292 16.653,29.781 13.604,27.467 12.480 C 27.056 12.280,26.757 12.185,26.379 12.135 C 25.805 12.060,25.817 12.060,25.205 12.139 M14.687 14.708 C 15.149 14.942,15.400 15.338,15.400 15.833 C 15.400 16.583,14.821 17.108,14.057 17.053 C 13.614 17.021,13.274 16.799,13.053 16.398 C 12.854 16.038,12.911 15.415,13.171 15.093 C 13.281 14.958,13.474 14.792,13.601 14.724 C 13.887 14.570,14.400 14.563,14.687 14.708 M26.353 14.708 C 26.816 14.942,27.067 15.338,27.067 15.833 C 27.067 16.583,26.488 17.108,25.724 17.053 C 25.281 17.021,24.941 16.799,24.720 16.398 C 24.521 16.038,24.577 15.415,24.838 15.093 C 24.947 14.958,25.140 14.792,25.267 14.724 C 25.553 14.570,26.067 14.563,26.353 14.708 M11.312 22.130 C 10.742 22.242,10.447 22.653,10.447 23.333 C 10.447 24.029,10.738 24.421,11.343 24.538 C 11.503 24.569,13.051 24.595,14.783 24.597 L 17.933 24.600 17.933 26.153 C 17.933 27.317,17.959 27.805,18.034 28.103 C 18.394 29.525,19.586 30.731,21.000 31.103 C 21.519 31.239,22.549 31.256,23.069 31.137 C 23.671 30.998,24.361 30.621,24.865 30.155 C 25.448 29.615,25.821 29.048,26.043 28.367 C 26.205 27.869,26.219 27.727,26.250 26.224 L 26.284 24.614 27.525 24.590 C 28.620 24.569,28.793 24.550,28.993 24.433 C 29.448 24.166,29.653 23.637,29.538 23.025 C 29.470 22.660,29.302 22.415,28.993 22.233 C 28.770 22.102,28.638 22.100,20.167 22.090 C 15.437 22.085,11.452 22.103,11.312 22.130 M23.733 25.983 C 23.733 26.771,23.701 27.479,23.660 27.627 C 23.614 27.793,23.461 28.015,23.238 28.238 C 23.015 28.461,22.793 28.614,22.627 28.660 C 21.792 28.892,20.970 28.561,20.577 27.833 C 20.444 27.587,20.432 27.453,20.412 26.083 L 20.391 24.600 22.062 24.600 L 23.733 24.600 23.733 25.983 " stroke="none" fill-rule="evenodd" fill="black"></path></svg>