<svg width="40" height="40" viewBox="0 0 40 40" fill="none" xmlns="http://www.w3.org/2000/svg"><path d="M6.433 7.177 C 5.899 7.303,5.805 7.379,4.145 9.025 C 3.216 9.946,2.376 10.835,2.278 11.000 L 2.100 11.300 2.100 21.433 C 2.100 32.561,2.073 31.852,2.512 32.338 C 2.961 32.834,2.951 32.833,6.667 32.833 C 9.274 32.833,10.020 32.814,10.222 32.743 C 10.576 32.618,10.929 32.290,11.094 31.933 C 11.229 31.643,11.234 31.519,11.253 28.083 L 11.272 24.533 13.333 24.533 L 15.395 24.533 15.414 28.083 C 15.433 31.519,15.438 31.643,15.572 31.933 C 15.737 32.290,16.091 32.618,16.444 32.743 C 16.818 32.875,23.182 32.875,23.556 32.743 C 23.909 32.618,24.263 32.290,24.428 31.933 C 24.562 31.643,24.567 31.519,24.586 28.083 L 24.605 24.533 26.667 24.533 L 28.728 24.533 28.747 28.083 C 28.766 31.519,28.771 31.643,28.906 31.933 C 29.071 32.290,29.424 32.618,29.778 32.743 C 29.980 32.814,30.726 32.833,33.333 32.833 C 37.049 32.833,37.039 32.834,37.488 32.338 C 37.927 31.852,37.900 32.561,37.900 21.433 L 37.900 11.300 37.751 10.999 C 37.650 10.792,37.059 10.158,35.885 8.994 C 34.043 7.168,33.994 7.132,33.326 7.134 C 32.743 7.135,32.486 7.331,30.691 9.143 C 29.769 10.073,28.959 10.938,28.891 11.067 C 28.779 11.277,28.765 11.502,28.746 13.317 L 28.725 15.333 26.667 15.333 L 24.609 15.333 24.588 13.317 C 24.568 11.388,24.560 11.287,24.418 10.999 C 24.317 10.792,23.726 10.158,22.551 8.994 C 20.710 7.168,20.661 7.132,19.992 7.134 C 19.410 7.135,19.153 7.331,17.357 9.143 C 16.436 10.073,15.626 10.938,15.557 11.067 C 15.446 11.277,15.431 11.501,15.413 13.317 L 15.393 15.333 13.334 15.333 L 11.275 15.333 11.254 13.317 C 11.234 11.363,11.228 11.290,11.079 10.986 C 10.891 10.605,7.667 7.448,7.320 7.305 C 7.057 7.197,6.618 7.134,6.433 7.177 M22.067 21.183 L 22.067 30.333 20.000 30.333 L 17.933 30.333 17.933 21.217 L 17.933 12.102 18.983 11.051 L 20.032 10.000 21.049 11.016 L 22.067 12.032 22.067 21.183 M35.400 21.183 L 35.400 30.333 33.333 30.333 L 31.267 30.333 31.267 21.217 L 31.267 12.102 32.316 11.051 L 33.365 10.000 34.383 11.016 L 35.400 12.032 35.400 21.183 M7.728 11.056 L 8.733 12.012 8.733 21.173 L 8.733 30.333 6.667 30.333 L 4.600 30.333 4.600 21.217 L 4.600 12.102 5.616 11.084 C 6.175 10.524,6.652 10.074,6.677 10.083 C 6.702 10.092,7.175 10.530,7.728 11.056 M15.400 19.933 L 15.400 22.000 13.333 22.000 L 11.267 22.000 11.267 19.933 L 11.267 17.867 13.333 17.867 L 15.400 17.867 15.400 19.933 M28.733 19.933 L 28.733 22.000 26.667 22.000 L 24.600 22.000 24.600 19.933 L 24.600 17.867 26.667 17.867 L 28.733 17.867 28.733 19.933 " stroke="none" fill-rule="evenodd" fill="black"></path></svg>