<svg width="40" height="40" viewBox="0 0 40 40" fill="none" xmlns="http://www.w3.org/2000/svg"><path d="M6.028 2.138 C 5.054 2.254,4.197 2.685,3.441 3.441 C 2.637 4.245,2.250 5.055,2.130 6.189 C 2.084 6.616,2.068 11.426,2.081 20.467 C 2.100 33.230,2.109 34.126,2.218 34.500 C 2.690 36.113,3.940 37.351,5.533 37.783 C 5.941 37.893,6.813 37.900,20.000 37.900 C 33.187 37.900,34.059 37.893,34.467 37.783 C 36.076 37.347,37.347 36.076,37.783 34.467 C 37.893 34.059,37.900 33.187,37.900 20.000 C 37.900 6.813,37.893 5.941,37.783 5.533 C 37.351 3.940,36.113 2.690,34.500 2.218 C 34.125 2.109,33.242 2.101,20.300 2.092 C 12.710 2.087,6.287 2.108,6.028 2.138 M18.733 11.667 L 18.733 18.733 11.667 18.733 L 4.600 18.733 4.600 12.503 C 4.600 6.405,4.603 6.264,4.735 5.910 C 4.911 5.439,5.427 4.917,5.891 4.739 C 6.223 4.611,6.425 4.607,12.483 4.603 L 18.733 4.600 18.733 11.667 M34.090 4.735 C 34.574 4.916,35.084 5.426,35.265 5.910 C 35.397 6.264,35.400 6.405,35.400 12.503 L 35.400 18.733 28.333 18.733 L 21.267 18.733 21.267 11.667 L 21.267 4.600 27.497 4.600 C 33.595 4.600,33.736 4.603,34.090 4.735 M11.312 7.130 C 10.996 7.193,10.740 7.379,10.567 7.674 C 10.449 7.873,10.431 8.047,10.410 9.143 L 10.386 10.386 9.143 10.410 C 7.788 10.436,7.610 10.481,7.317 10.875 C 7.036 11.251,7.036 12.082,7.317 12.458 C 7.610 12.852,7.788 12.897,9.143 12.924 L 10.386 12.947 10.410 14.190 C 10.436 15.546,10.481 15.723,10.875 16.017 C 11.251 16.297,12.082 16.297,12.458 16.017 C 12.852 15.723,12.897 15.546,12.924 14.190 L 12.947 12.947 14.190 12.924 C 15.286 12.902,15.460 12.884,15.660 12.766 C 15.968 12.585,16.137 12.341,16.205 11.975 C 16.319 11.363,16.115 10.834,15.660 10.567 C 15.460 10.449,15.286 10.431,14.183 10.410 L 12.933 10.386 12.930 9.343 C 12.927 8.176,12.876 7.800,12.684 7.543 C 12.420 7.189,11.865 7.022,11.312 7.130 M25.567 8.104 C 25.082 8.355,24.667 8.921,24.667 9.330 C 24.667 9.677,24.844 9.926,25.722 10.817 L 26.560 11.667 25.722 12.517 C 24.770 13.482,24.637 13.688,24.685 14.116 C 24.743 14.629,25.371 15.257,25.884 15.315 C 26.312 15.363,26.518 15.230,27.483 14.278 L 28.333 13.440 29.183 14.278 C 30.149 15.230,30.354 15.363,30.783 15.315 C 31.296 15.257,31.924 14.629,31.982 14.116 C 32.030 13.688,31.897 13.482,30.945 12.517 L 30.107 11.667 30.945 10.817 C 31.897 9.851,32.030 9.646,31.982 9.217 C 31.924 8.704,31.296 8.076,30.783 8.018 C 30.354 7.970,30.149 8.103,29.183 9.055 L 28.333 9.893 27.483 9.055 C 27.016 8.594,26.537 8.168,26.420 8.109 C 26.152 7.972,25.825 7.971,25.567 8.104 M18.733 28.333 L 18.733 35.400 12.503 35.400 C 6.405 35.400,6.264 35.397,5.910 35.265 C 5.426 35.084,4.916 34.574,4.735 34.090 C 4.603 33.736,4.600 33.595,4.600 27.497 L 4.600 21.267 11.667 21.267 L 18.733 21.267 18.733 28.333 M35.400 27.497 C 35.400 33.595,35.397 33.736,35.265 34.090 C 35.176 34.326,35.012 34.569,34.790 34.790 C 34.569 35.012,34.326 35.176,34.090 35.265 C 33.736 35.397,33.595 35.400,27.497 35.400 L 21.267 35.400 21.267 28.333 L 21.267 21.267 28.333 21.267 L 35.400 21.267 35.400 27.497 M24.793 24.609 C 24.419 24.826,24.300 25.082,24.300 25.667 C 24.300 26.252,24.436 26.549,24.802 26.764 C 25.027 26.897,25.131 26.900,28.867 26.900 C 32.522 26.900,32.710 26.894,32.910 26.773 C 33.026 26.703,33.187 26.528,33.267 26.385 C 33.464 26.034,33.442 25.179,33.228 24.888 C 32.911 24.456,33.027 24.467,28.833 24.468 C 25.102 24.470,25.029 24.472,24.793 24.609 M7.979 27.130 C 7.408 27.244,7.114 27.653,7.114 28.333 C 7.114 29.103,7.458 29.487,8.219 29.566 C 8.447 29.590,10.163 29.600,12.033 29.588 C 15.293 29.568,15.443 29.561,15.660 29.433 C 16.115 29.165,16.319 28.637,16.205 28.025 C 16.137 27.660,15.969 27.415,15.660 27.233 C 15.442 27.105,15.303 27.100,11.833 27.089 C 9.853 27.084,8.119 27.102,7.979 27.130 M24.793 29.609 C 24.419 29.826,24.300 30.082,24.300 30.667 C 24.300 31.252,24.436 31.549,24.802 31.764 C 25.027 31.897,25.131 31.900,28.867 31.900 C 32.522 31.900,32.710 31.894,32.910 31.773 C 33.026 31.703,33.187 31.528,33.267 31.385 C 33.464 31.034,33.442 30.179,33.228 29.888 C 32.911 29.456,33.027 29.467,28.833 29.468 C 25.102 29.470,25.029 29.472,24.793 29.609 " stroke="none" fill-rule="evenodd" fill="black"></path></svg>