<svg width="40" height="40" viewBox="0 0 40 40" fill="none" xmlns="http://www.w3.org/2000/svg"><path d="M12.979 3.798 C 12.410 3.908,12.114 4.319,12.114 5.000 C 12.114 5.789,12.459 6.158,13.269 6.238 L 13.730 6.284 13.748 13.358 C 13.766 20.296,13.769 20.438,13.900 20.660 C 14.082 20.969,14.326 21.137,14.692 21.205 C 15.304 21.319,15.832 21.115,16.100 20.660 C 16.217 20.460,16.236 20.286,16.257 19.183 L 16.281 17.933 20.000 17.933 L 23.719 17.933 23.743 19.183 C 23.764 20.286,23.783 20.460,23.900 20.660 C 24.168 21.115,24.696 21.319,25.308 21.205 C 25.674 21.137,25.918 20.969,26.100 20.660 C 26.231 20.438,26.234 20.296,26.252 13.358 L 26.270 6.284 26.731 6.238 C 27.541 6.158,27.886 5.789,27.886 5.000 C 27.886 4.304,27.595 3.912,26.991 3.795 C 26.613 3.722,23.387 3.722,23.009 3.795 C 22.405 3.912,22.114 4.304,22.114 5.000 C 22.114 5.789,22.459 6.158,23.271 6.238 L 23.733 6.284 23.733 7.509 L 23.733 8.733 20.000 8.733 L 16.267 8.733 16.267 7.509 L 16.267 6.284 16.729 6.238 C 17.541 6.158,17.886 5.789,17.886 5.000 C 17.886 4.304,17.595 3.912,16.991 3.795 C 16.637 3.727,13.334 3.729,12.979 3.798 M23.733 13.333 L 23.733 15.400 20.000 15.400 L 16.267 15.400 16.267 13.333 L 16.267 11.267 20.000 11.267 L 23.733 11.267 23.733 13.333 M11.223 22.266 C 10.106 22.424,8.966 22.889,8.133 23.525 C 7.895 23.707,6.825 24.736,5.757 25.812 C 3.617 27.965,3.577 28.019,3.732 28.594 C 3.835 28.977,4.349 29.496,4.725 29.598 C 5.315 29.757,5.359 29.725,7.633 27.473 C 9.418 25.706,9.764 25.394,10.167 25.186 C 10.803 24.857,11.328 24.733,12.090 24.733 C 12.617 24.733,12.827 24.767,13.306 24.928 C 13.916 25.133,14.236 25.334,15.487 26.297 C 16.341 26.955,16.763 27.190,17.581 27.464 C 19.079 27.966,20.878 27.863,22.323 27.194 C 22.977 26.891,23.567 26.483,24.248 25.862 C 25.120 25.067,25.958 24.733,27.084 24.733 C 27.778 24.733,28.502 24.921,29.054 25.243 C 29.213 25.335,30.484 26.322,31.879 27.436 C 33.459 28.698,34.527 29.504,34.710 29.574 C 34.957 29.668,35.047 29.674,35.270 29.607 C 35.635 29.497,35.961 29.192,36.172 28.763 C 36.369 28.359,36.360 28.121,36.135 27.752 C 35.991 27.515,31.264 23.703,30.483 23.193 C 28.431 21.853,25.502 21.905,23.425 23.316 C 23.210 23.463,22.783 23.810,22.476 24.087 C 21.534 24.939,20.731 25.267,19.582 25.267 C 19.085 25.267,18.838 25.230,18.425 25.096 C 17.764 24.881,17.527 24.742,16.663 24.062 C 15.348 23.026,14.586 22.616,13.515 22.368 C 12.985 22.245,11.757 22.190,11.223 22.266 M11.223 28.933 C 10.106 29.090,8.966 29.555,8.133 30.192 C 7.895 30.374,6.825 31.403,5.757 32.478 C 3.617 34.631,3.577 34.686,3.732 35.260 C 3.835 35.644,4.349 36.163,4.725 36.265 C 5.315 36.423,5.359 36.391,7.633 34.140 C 9.418 32.373,9.764 32.061,10.167 31.853 C 10.803 31.524,11.328 31.400,12.090 31.400 C 12.617 31.400,12.827 31.434,13.306 31.595 C 13.916 31.800,14.236 32.000,15.487 32.964 C 16.341 33.621,16.763 33.857,17.581 34.131 C 19.072 34.630,20.878 34.530,22.308 33.867 C 23.001 33.546,23.496 33.208,24.190 32.580 C 25.133 31.727,25.936 31.400,27.084 31.400 C 27.778 31.400,28.502 31.587,29.054 31.910 C 29.213 32.002,30.484 32.989,31.879 34.103 C 33.459 35.365,34.527 36.171,34.710 36.241 C 34.957 36.335,35.047 36.340,35.270 36.274 C 35.635 36.164,35.961 35.859,36.172 35.429 C 36.369 35.026,36.360 34.788,36.135 34.418 C 35.991 34.182,31.264 30.370,30.483 29.860 C 28.431 28.520,25.502 28.571,23.425 29.983 C 23.210 30.130,22.783 30.476,22.476 30.754 C 21.534 31.606,20.731 31.933,19.582 31.933 C 19.085 31.933,18.838 31.897,18.425 31.763 C 17.764 31.548,17.527 31.408,16.663 30.728 C 15.348 29.693,14.586 29.283,13.515 29.034 C 12.985 28.912,11.757 28.857,11.223 28.933 " stroke="none" fill-rule="evenodd" fill="black"></path></svg>