<svg width="40" height="40" viewBox="0 0 40 40" fill="none" xmlns="http://www.w3.org/2000/svg"><path d="M6.028 2.138 C 5.054 2.254,4.197 2.685,3.441 3.441 C 2.637 4.245,2.250 5.055,2.130 6.189 C 2.084 6.616,2.068 11.426,2.081 20.467 C 2.100 33.230,2.109 34.126,2.218 34.500 C 2.690 36.113,3.940 37.351,5.533 37.783 C 5.941 37.893,6.813 37.900,20.000 37.900 C 33.187 37.900,34.059 37.893,34.467 37.783 C 36.076 37.347,37.347 36.076,37.783 34.467 C 37.893 34.059,37.900 33.187,37.900 20.000 C 37.900 6.813,37.893 5.941,37.783 5.533 C 37.351 3.940,36.113 2.690,34.500 2.218 C 34.125 2.109,33.242 2.101,20.300 2.092 C 12.710 2.087,6.287 2.108,6.028 2.138 M18.733 9.164 L 18.733 13.728 14.150 13.747 C 9.705 13.766,9.560 13.771,9.340 13.900 C 8.885 14.168,8.681 14.696,8.795 15.308 C 8.863 15.674,9.031 15.918,9.340 16.100 C 9.562 16.230,9.687 16.233,15.000 16.233 C 20.313 16.233,20.438 16.230,20.660 16.100 C 20.964 15.921,21.137 15.674,21.205 15.324 C 21.236 15.164,21.262 12.686,21.264 9.817 L 21.267 4.600 27.497 4.600 C 33.595 4.600,33.736 4.603,34.090 4.735 C 34.574 4.916,35.084 5.426,35.265 5.910 C 35.398 6.267,35.400 6.393,35.400 15.000 L 35.400 23.728 30.817 23.747 C 26.372 23.766,26.227 23.771,26.007 23.900 C 25.698 24.082,25.530 24.326,25.462 24.692 C 25.347 25.304,25.552 25.832,26.007 26.100 C 26.207 26.217,26.380 26.236,27.478 26.257 L 28.723 26.281 28.745 28.357 C 28.765 30.291,28.776 30.449,28.900 30.660 C 29.082 30.969,29.326 31.137,29.692 31.205 C 30.304 31.319,30.832 31.115,31.100 30.660 C 31.224 30.449,31.235 30.291,31.255 28.350 L 31.277 26.267 33.338 26.267 L 35.400 26.267 35.400 29.997 C 35.400 33.583,35.395 33.742,35.265 34.090 C 35.084 34.574,34.574 35.084,34.090 35.265 C 33.736 35.397,33.595 35.400,27.500 35.400 L 21.271 35.400 21.252 29.983 C 21.234 24.704,21.230 24.561,21.100 24.340 C 20.832 23.885,20.304 23.681,19.692 23.795 C 19.326 23.863,19.082 24.031,18.900 24.340 C 18.770 24.561,18.766 24.704,18.748 29.983 L 18.729 35.400 12.500 35.400 C 6.405 35.400,6.264 35.397,5.910 35.265 C 5.426 35.084,4.916 34.574,4.735 34.090 C 4.605 33.742,4.600 33.583,4.600 30.000 L 4.600 26.272 9.183 26.253 C 13.628 26.234,13.773 26.229,13.993 26.100 C 14.448 25.832,14.653 25.304,14.538 24.692 C 14.470 24.326,14.302 24.082,13.993 23.900 C 13.773 23.771,13.628 23.766,9.183 23.747 L 4.600 23.728 4.600 15.000 C 4.600 6.393,4.602 6.267,4.735 5.910 C 4.911 5.439,5.427 4.917,5.891 4.739 C 6.223 4.611,6.425 4.607,12.483 4.603 L 18.733 4.600 18.733 9.164 " stroke="none" fill-rule="evenodd" fill="black"></path></svg>