<svg width="40" height="40" viewBox="0 0 40 40" fill="none" xmlns="http://www.w3.org/2000/svg"><path d="M9.361 2.138 C 8.387 2.254,7.530 2.685,6.775 3.441 C 5.970 4.245,5.584 5.055,5.463 6.189 C 5.417 6.616,5.401 11.426,5.414 20.467 C 5.434 33.230,5.442 34.126,5.552 34.500 C 6.023 36.113,7.274 37.351,8.867 37.783 C 9.272 37.892,9.994 37.900,20.000 37.900 C 30.006 37.900,30.728 37.892,31.133 37.783 C 32.743 37.347,34.013 36.076,34.449 34.467 C 34.560 34.059,34.567 33.187,34.567 20.000 C 34.567 6.813,34.560 5.941,34.449 5.533 C 34.018 3.940,32.778 2.688,31.167 2.219 C 30.794 2.110,30.046 2.102,20.300 2.092 C 14.543 2.087,9.621 2.107,9.361 2.138 M30.757 4.735 C 31.240 4.916,31.750 5.426,31.931 5.910 C 32.060 6.253,32.067 6.421,32.067 9.169 L 32.067 12.067 20.000 12.067 L 7.933 12.067 7.933 9.169 C 7.933 6.421,7.940 6.253,8.069 5.910 C 8.245 5.439,8.760 4.917,9.224 4.739 C 9.560 4.610,9.776 4.607,19.981 4.603 C 30.286 4.600,30.399 4.601,30.757 4.735 M11.312 7.130 C 10.741 7.244,10.447 7.653,10.447 8.333 C 10.447 9.103,10.792 9.487,11.552 9.566 C 11.780 9.590,13.497 9.600,15.367 9.588 C 18.626 9.568,18.776 9.561,18.993 9.433 C 19.448 9.165,19.653 8.637,19.538 8.025 C 19.470 7.660,19.302 7.415,18.993 7.233 C 18.775 7.105,18.637 7.100,15.167 7.089 C 13.187 7.084,11.452 7.102,11.312 7.130 M24.646 7.129 C 24.074 7.245,23.780 7.653,23.780 8.333 C 23.780 9.102,24.124 9.486,24.886 9.568 C 25.114 9.592,26.080 9.602,27.033 9.589 C 28.623 9.569,28.785 9.556,28.993 9.433 C 29.448 9.165,29.653 8.637,29.538 8.025 C 29.470 7.660,29.302 7.415,28.993 7.233 C 28.782 7.109,28.635 7.099,26.833 7.088 C 25.770 7.082,24.786 7.100,24.646 7.129 M32.067 24.164 C 32.067 33.611,32.065 33.733,31.931 34.090 C 31.750 34.574,31.240 35.084,30.757 35.265 C 30.399 35.399,30.282 35.400,20.000 35.400 C 9.718 35.400,9.601 35.399,9.243 35.265 C 8.760 35.084,8.250 34.574,8.069 34.090 C 7.935 33.733,7.933 33.611,7.933 24.164 L 7.933 14.600 20.000 14.600 L 32.067 14.600 32.067 24.164 M19.241 17.138 C 15.957 17.429,13.165 19.829,12.332 23.074 C 11.961 24.521,12.068 26.403,12.600 27.789 C 13.530 30.208,15.568 32.025,18.074 32.668 C 19.194 32.955,20.806 32.955,21.926 32.668 C 24.432 32.025,26.470 30.208,27.400 27.789 C 28.049 26.098,28.049 23.902,27.400 22.211 C 26.470 19.792,24.432 17.975,21.927 17.332 C 21.521 17.228,20.006 17.040,19.867 17.077 C 19.848 17.081,19.567 17.109,19.241 17.138 M21.091 19.696 C 22.164 19.901,22.922 20.323,23.800 21.200 C 24.928 22.328,25.400 23.449,25.400 25.000 C 25.400 26.551,24.928 27.672,23.800 28.800 C 22.672 29.928,21.551 30.400,20.000 30.400 C 18.449 30.400,17.328 29.928,16.200 28.800 C 15.063 27.663,14.600 26.553,14.600 24.965 C 14.600 23.445,15.076 22.324,16.200 21.200 C 17.058 20.342,17.833 19.905,18.857 19.701 C 19.457 19.581,20.480 19.579,21.091 19.696 " stroke="none" fill-rule="evenodd" fill="black"></path></svg>