<svg width="40" height="40" viewBox="0 0 40 40" fill="none" xmlns="http://www.w3.org/2000/svg"><path d="M19.767 2.192 C 19.657 2.221,19.486 2.287,19.388 2.339 C 19.172 2.453,2.762 15.521,2.553 15.745 C 2.472 15.831,2.352 16.021,2.287 16.168 C 2.174 16.417,2.164 16.938,2.128 24.767 C 2.106 29.350,2.114 33.347,2.145 33.648 C 2.250 34.676,2.659 35.510,3.441 36.292 C 4.229 37.080,5.051 37.480,6.118 37.595 C 6.438 37.629,10.616 37.679,15.402 37.704 L 24.105 37.751 24.391 37.604 C 24.797 37.398,24.962 37.014,24.917 36.383 C 24.877 35.833,24.753 35.629,24.330 35.421 L 24.033 35.275 15.167 35.212 C 6.327 35.150,6.299 35.149,5.924 35.006 C 5.425 34.816,4.918 34.311,4.735 33.823 C 4.603 33.468,4.600 33.332,4.600 26.542 C 4.600 22.735,4.620 19.076,4.644 18.409 L 4.688 17.196 12.353 11.089 C 16.569 7.730,20.060 4.979,20.110 4.974 C 20.160 4.970,23.619 7.697,27.796 11.033 L 35.390 17.100 35.412 22.800 L 35.433 28.500 35.590 28.752 C 35.817 29.117,36.072 29.230,36.667 29.232 C 37.248 29.234,37.521 29.108,37.755 28.733 L 37.900 28.500 37.900 22.362 C 37.900 16.353,37.897 16.218,37.767 15.968 C 37.663 15.768,35.813 14.255,29.322 9.061 C 24.751 5.402,20.923 2.363,20.816 2.308 C 20.574 2.183,20.033 2.123,19.767 2.192 M19.200 12.137 C 16.950 12.315,14.864 13.285,13.241 14.908 C 9.500 18.649,9.499 24.687,13.239 28.427 C 15.224 30.412,17.914 31.409,20.717 31.197 C 21.955 31.104,23.169 30.784,24.148 30.292 C 24.395 30.168,24.628 30.067,24.667 30.067 C 24.706 30.067,26.131 31.407,27.833 33.045 C 29.536 34.683,31.023 36.084,31.139 36.157 C 31.270 36.240,31.472 36.292,31.669 36.295 C 32.054 36.301,32.454 36.052,32.761 35.615 C 33.003 35.270,33.030 34.818,32.829 34.478 C 32.758 34.357,31.356 32.966,29.714 31.387 C 26.756 28.542,26.730 28.515,26.848 28.375 C 26.913 28.297,27.108 28.075,27.281 27.881 C 27.975 27.101,28.684 25.855,29.054 24.767 C 30.230 21.303,29.343 17.492,26.759 14.908 C 24.745 12.895,22.061 11.911,19.200 12.137 M21.243 14.700 C 22.711 14.981,23.964 15.639,24.996 16.671 C 27.385 19.060,27.755 22.757,25.888 25.584 C 24.595 27.541,22.367 28.733,20.001 28.733 C 16.911 28.733,14.243 26.783,13.245 23.795 C 12.837 22.574,12.837 20.759,13.245 19.538 C 14.087 17.019,16.122 15.217,18.709 14.704 C 19.333 14.580,20.605 14.578,21.243 14.700 " stroke="none" fill-rule="evenodd" fill="black"></path></svg>