<svg width="40" height="40" viewBox="0 0 40 40" fill="none" xmlns="http://www.w3.org/2000/svg"><path d="M17.694 3.804 C 16.718 3.922,15.863 4.353,15.108 5.108 C 14.023 6.193,13.735 7.100,13.734 9.439 L 13.733 10.512 13.350 10.596 C 11.121 11.081,9.138 12.565,8.070 14.544 C 7.245 16.075,7.035 17.262,7.078 20.171 C 7.103 21.893,7.151 22.101,7.616 22.510 C 8.081 22.917,7.757 22.900,15.000 22.900 C 22.243 22.900,21.919 22.917,22.384 22.510 C 22.849 22.101,22.897 21.893,22.922 20.171 C 22.965 17.262,22.755 16.075,21.930 14.544 C 20.862 12.565,18.879 11.081,16.650 10.596 L 16.267 10.512 16.267 9.225 C 16.267 8.095,16.283 7.894,16.402 7.577 C 16.583 7.093,17.093 6.583,17.577 6.402 C 17.929 6.270,18.076 6.267,23.333 6.267 C 28.580 6.267,28.738 6.270,29.088 6.401 C 29.520 6.563,30.029 7.039,30.227 7.467 L 30.367 7.767 30.400 21.600 C 30.433 35.283,30.435 35.436,30.567 35.660 C 30.835 36.115,31.363 36.319,31.975 36.205 C 32.340 36.137,32.585 35.969,32.767 35.660 C 32.899 35.435,32.900 35.313,32.900 21.533 C 32.900 8.473,32.893 7.607,32.783 7.200 C 32.436 5.919,31.526 4.801,30.367 4.231 C 29.391 3.752,29.706 3.774,23.633 3.760 C 20.627 3.753,17.954 3.773,17.694 3.804 M16.667 13.193 C 17.550 13.491,18.133 13.855,18.806 14.527 C 19.476 15.197,19.839 15.778,20.144 16.667 C 20.361 17.298,20.361 17.304,20.387 18.850 L 20.412 20.400 15.000 20.400 L 9.588 20.400 9.613 18.850 C 9.639 17.304,9.639 17.298,9.856 16.667 C 10.139 15.842,10.505 15.234,11.084 14.624 C 11.646 14.033,12.300 13.584,12.990 13.316 C 13.806 12.999,14.205 12.933,15.167 12.958 C 15.931 12.977,16.108 13.005,16.667 13.193 M9.646 25.464 C 9.330 25.526,9.074 25.712,8.900 26.007 C 8.781 26.208,8.764 26.379,8.743 27.557 C 8.714 29.157,8.759 29.652,8.958 29.948 C 9.173 30.267,9.420 30.367,10.000 30.367 C 10.553 30.367,10.810 30.272,11.018 29.991 C 11.217 29.722,11.261 29.349,11.261 27.933 C 11.261 26.515,11.217 26.144,11.017 25.876 C 10.754 25.522,10.198 25.355,9.646 25.464 M14.646 25.464 C 14.330 25.526,14.074 25.712,13.900 26.007 C 13.772 26.224,13.767 26.353,13.767 29.167 C 13.767 31.980,13.772 32.109,13.900 32.326 C 14.082 32.635,14.326 32.803,14.692 32.872 C 15.304 32.986,15.832 32.781,16.100 32.326 C 16.226 32.112,16.235 31.958,16.255 29.533 C 16.280 26.652,16.255 26.235,16.045 25.923 C 15.781 25.531,15.228 25.350,14.646 25.464 M19.646 25.464 C 19.330 25.526,19.074 25.712,18.900 26.007 C 18.781 26.208,18.764 26.379,18.743 27.557 C 18.714 29.157,18.759 29.652,18.958 29.948 C 19.173 30.267,19.420 30.367,20.000 30.367 C 20.553 30.367,20.810 30.272,21.018 29.991 C 21.217 29.722,21.261 29.349,21.261 27.933 C 21.261 26.515,21.217 26.144,21.017 25.876 C 20.754 25.522,20.198 25.355,19.646 25.464 " stroke="none" fill-rule="evenodd" fill="black"></path></svg>