<svg width="40" height="40" viewBox="0 0 40 40" fill="none" xmlns="http://www.w3.org/2000/svg"><path d="M19.367 2.326 C 19.220 2.394,15.365 5.438,10.800 9.090 C 3.333 15.064,2.480 15.766,2.300 16.082 L 2.100 16.433 2.058 21.000 C 2.034 23.512,2.007 27.427,1.996 29.700 C 1.979 33.472,1.987 33.871,2.094 34.267 C 2.529 35.874,3.970 37.259,5.533 37.571 C 5.955 37.655,8.188 37.689,19.740 37.790 C 27.279 37.856,33.674 37.886,33.951 37.856 C 34.941 37.750,35.790 37.327,36.559 36.559 C 37.363 35.755,37.750 34.945,37.870 33.811 C 37.915 33.394,37.932 30.220,37.920 24.800 L 37.900 16.433 37.756 16.167 C 37.676 16.020,37.496 15.791,37.356 15.659 C 36.749 15.085,20.740 2.349,20.537 2.278 C 20.208 2.163,19.671 2.185,19.367 2.326 M27.586 11.000 L 35.126 17.033 28.179 17.067 C 21.384 17.099,21.228 17.103,21.007 17.233 C 20.698 17.415,20.530 17.660,20.462 18.025 C 20.347 18.637,20.552 19.165,21.007 19.433 C 21.229 19.564,21.370 19.567,28.317 19.585 L 35.400 19.603 35.400 26.666 C 35.400 33.599,35.398 33.735,35.265 34.090 C 35.084 34.574,34.574 35.084,34.090 35.265 C 33.749 35.392,33.578 35.400,31.142 35.400 C 29.719 35.400,27.292 35.380,25.748 35.356 L 22.942 35.312 22.921 32.706 C 22.901 30.241,22.893 30.088,22.767 29.874 C 22.693 29.749,22.549 29.584,22.445 29.507 C 22.262 29.370,22.183 29.366,19.531 29.348 L 16.806 29.329 16.786 26.648 C 16.768 24.090,16.760 23.956,16.631 23.736 C 16.556 23.609,16.391 23.444,16.264 23.369 C 16.044 23.240,15.910 23.232,13.352 23.214 L 10.671 23.194 10.652 20.469 C 10.634 17.817,10.630 17.738,10.493 17.555 C 10.416 17.451,10.251 17.307,10.126 17.233 C 9.914 17.108,9.747 17.098,7.386 17.067 L 4.872 17.033 12.419 10.989 C 16.570 7.664,19.985 4.949,20.007 4.956 C 20.029 4.962,23.439 7.682,27.586 11.000 M8.214 22.283 C 8.232 24.775,8.242 24.982,8.359 25.174 C 8.638 25.635,8.605 25.630,11.600 25.667 L 14.300 25.700 14.333 28.400 C 14.370 31.395,14.365 31.362,14.826 31.641 C 15.018 31.758,15.225 31.768,17.717 31.786 L 20.400 31.806 20.400 33.559 L 20.400 35.312 16.883 35.284 C 14.949 35.268,11.717 35.235,9.700 35.209 C 6.155 35.164,6.023 35.157,5.722 35.020 C 5.304 34.831,4.864 34.414,4.666 34.021 C 4.445 33.581,4.442 33.431,4.500 25.950 L 4.550 19.600 6.372 19.600 L 8.194 19.600 8.214 22.283 " stroke="none" fill-rule="evenodd" fill="black"></path></svg>