<svg width="40" height="40" viewBox="0 0 40 40" fill="none" xmlns="http://www.w3.org/2000/svg"><path d="M17.979 7.130 C 17.408 7.243,17.114 7.653,17.114 8.333 C 17.114 9.029,17.405 9.421,18.009 9.538 C 18.169 9.569,19.147 9.595,20.183 9.597 L 22.067 9.600 22.067 10.833 L 22.067 12.067 21.050 12.067 C 18.840 12.068,17.898 12.356,16.860 13.345 L 16.464 13.723 12.848 13.750 C 8.847 13.779,8.897 13.774,7.967 14.232 C 6.806 14.802,5.898 15.918,5.551 17.200 C 5.445 17.589,5.433 18.008,5.433 21.300 C 5.433 25.336,5.428 25.276,5.846 25.738 C 6.279 26.218,6.381 26.233,9.167 26.233 C 11.867 26.233,11.950 26.223,12.384 25.843 C 12.806 25.472,12.892 25.176,12.921 23.983 L 12.947 22.933 14.265 22.933 L 15.582 22.933 15.724 23.322 C 16.142 24.468,17.237 25.540,18.435 25.975 C 19.096 26.214,19.811 26.266,22.500 26.266 C 25.189 26.266,25.904 26.214,26.565 25.975 C 27.761 25.540,28.858 24.468,29.274 23.327 L 29.415 22.942 31.391 22.921 C 33.227 22.901,33.388 22.890,33.667 22.761 C 34.023 22.596,34.351 22.243,34.476 21.889 C 34.607 21.519,34.607 16.814,34.476 16.444 C 34.351 16.091,34.023 15.737,33.667 15.572 C 33.388 15.443,33.227 15.432,31.391 15.412 L 29.415 15.391 29.274 15.007 C 29.076 14.463,28.673 13.868,28.174 13.383 C 27.366 12.597,26.563 12.236,25.352 12.118 L 24.600 12.044 24.600 10.827 L 24.600 9.610 26.683 9.588 C 28.625 9.568,28.782 9.558,28.993 9.433 C 29.448 9.165,29.653 8.637,29.538 8.025 C 29.470 7.660,29.302 7.415,28.993 7.233 C 28.772 7.103,28.637 7.100,23.500 7.090 C 20.603 7.084,18.119 7.102,17.979 7.130 M25.757 14.735 C 26.240 14.916,26.750 15.426,26.931 15.910 C 27.060 16.253,27.067 16.421,27.067 19.167 C 27.067 22.524,27.068 22.513,26.457 23.124 C 25.846 23.735,25.857 23.733,22.500 23.733 C 19.143 23.733,19.154 23.735,18.543 23.124 C 17.932 22.513,17.933 22.524,17.933 19.167 C 17.933 15.809,17.932 15.821,18.543 15.209 C 19.150 14.602,19.116 14.607,22.481 14.603 C 25.251 14.600,25.413 14.607,25.757 14.735 M15.442 16.417 C 15.420 16.499,15.401 17.427,15.401 18.479 L 15.400 20.391 13.517 20.412 C 11.761 20.432,11.613 20.443,11.333 20.575 C 11.168 20.652,10.952 20.802,10.854 20.908 C 10.509 21.276,10.443 21.543,10.413 22.683 L 10.386 23.733 9.160 23.733 L 7.933 23.733 7.933 20.836 C 7.933 17.476,7.931 17.488,8.543 16.876 C 9.151 16.268,9.110 16.274,12.524 16.270 L 15.482 16.267 15.442 16.417 M32.067 19.167 L 32.067 20.400 30.833 20.400 L 29.600 20.400 29.600 19.167 L 29.600 17.933 30.833 17.933 L 32.067 17.933 32.067 19.167 M9.646 27.130 C 9.330 27.193,9.074 27.379,8.900 27.674 C 8.774 27.887,8.767 28.020,8.767 30.000 C 8.767 31.980,8.774 32.113,8.900 32.326 C 9.082 32.635,9.326 32.803,9.692 32.872 C 10.304 32.986,10.832 32.781,11.100 32.326 C 11.222 32.119,11.235 31.957,11.256 30.367 C 11.282 28.350,11.247 27.890,11.045 27.589 C 10.781 27.198,10.228 27.016,9.646 27.130 " stroke="none" fill-rule="evenodd" fill="black"></path></svg>