<svg width="40" height="40" viewBox="0 0 40 40" fill="none" xmlns="http://www.w3.org/2000/svg"><path d="M4.646 10.465 C 4.076 10.575,3.780 10.986,3.780 11.667 C 3.780 12.400,4.114 12.803,4.796 12.893 L 5.133 12.938 5.133 14.470 C 5.133 16.059,5.204 16.763,5.471 17.814 C 6.187 20.637,8.051 23.119,10.605 24.652 C 10.919 24.840,11.316 25.055,11.488 25.128 L 11.800 25.262 11.100 26.670 C 10.482 27.912,10.400 28.118,10.400 28.422 C 10.401 28.647,10.444 28.833,10.527 28.957 C 10.768 29.324,11.315 29.600,11.798 29.600 C 12.377 29.600,12.469 29.490,13.379 27.699 L 14.191 26.100 14.412 26.107 C 14.534 26.111,15.112 26.152,15.698 26.197 C 17.315 26.323,24.195 26.256,25.099 26.106 C 25.465 26.045,25.774 26.019,25.785 26.048 C 25.796 26.076,26.171 26.819,26.619 27.699 C 27.531 29.490,27.623 29.600,28.202 29.600 C 28.685 29.600,29.232 29.324,29.473 28.957 C 29.556 28.833,29.599 28.647,29.600 28.422 C 29.600 28.117,29.517 27.910,28.874 26.619 L 28.149 25.160 28.571 24.941 C 30.637 23.870,32.407 22.033,33.430 19.900 C 34.274 18.137,34.509 17.039,34.578 14.524 L 34.621 12.949 35.072 12.904 C 35.874 12.825,36.220 12.452,36.220 11.667 C 36.220 10.971,35.928 10.579,35.324 10.462 C 34.968 10.393,5.002 10.396,4.646 10.465 M32.066 14.350 C 32.066 15.953,31.981 16.640,31.658 17.650 C 31.231 18.987,30.513 20.158,29.502 21.169 C 28.190 22.482,26.523 23.340,24.717 23.633 C 23.821 23.778,15.821 23.780,14.991 23.636 C 14.075 23.476,13.279 23.219,12.479 22.824 C 10.530 21.863,9.013 20.222,8.230 18.231 C 7.736 16.974,7.603 16.143,7.601 14.317 L 7.600 12.933 19.833 12.933 L 32.067 12.933 32.066 14.350 " stroke="none" fill-rule="evenodd" fill="black"></path></svg>