<svg width="40" height="40" viewBox="0 0 40 40" fill="none" xmlns="http://www.w3.org/2000/svg"><path d="M6.028 2.138 C 5.052 2.254,4.197 2.686,3.441 3.441 C 2.637 4.245,2.250 5.055,2.130 6.189 C 2.084 6.616,2.068 11.426,2.081 20.467 C 2.100 33.230,2.109 34.126,2.218 34.500 C 2.690 36.113,3.940 37.351,5.533 37.783 C 5.941 37.893,6.813 37.900,20.000 37.900 C 33.187 37.900,34.059 37.893,34.467 37.783 C 36.076 37.347,37.347 36.076,37.783 34.467 C 37.891 34.065,37.900 33.490,37.900 26.667 C 37.900 19.843,37.891 19.268,37.783 18.867 C 37.436 17.585,36.527 16.469,35.367 15.898 C 34.407 15.426,34.617 15.443,29.354 15.416 L 24.608 15.392 24.584 10.646 C 24.562 6.413,24.547 5.857,24.445 5.500 C 24.082 4.228,23.179 3.128,22.033 2.565 C 21.039 2.076,21.570 2.106,13.633 2.093 C 9.710 2.086,6.287 2.107,6.028 2.138 M20.757 4.735 C 21.240 4.916,21.750 5.426,21.931 5.910 C 22.066 6.269,22.067 6.365,22.067 20.836 L 22.067 35.400 14.169 35.400 C 6.397 35.400,6.266 35.398,5.910 35.265 C 5.426 35.084,4.916 34.574,4.735 34.090 C 4.601 33.731,4.600 33.631,4.600 20.000 C 4.600 6.369,4.601 6.269,4.735 5.910 C 4.911 5.439,5.427 4.917,5.891 4.739 C 6.224 4.611,6.428 4.607,13.314 4.603 C 20.270 4.600,20.401 4.602,20.757 4.735 M7.979 8.794 C 7.664 8.860,7.406 9.047,7.240 9.330 C 7.063 9.633,7.065 10.370,7.244 10.677 C 7.544 11.191,8.009 11.306,9.564 11.254 C 10.522 11.221,10.751 11.148,11.017 10.791 C 11.297 10.415,11.297 9.585,11.017 9.209 C 10.729 8.823,10.535 8.770,9.334 8.755 C 8.729 8.748,8.119 8.765,7.979 8.794 M14.646 8.795 C 14.074 8.912,13.780 9.320,13.780 10.000 C 13.780 10.769,14.124 11.153,14.886 11.234 C 15.114 11.259,16.080 11.268,17.033 11.256 C 18.623 11.235,18.785 11.222,18.993 11.100 C 19.302 10.918,19.470 10.674,19.538 10.308 C 19.653 9.696,19.448 9.168,18.993 8.900 C 18.782 8.776,18.635 8.766,16.833 8.755 C 15.770 8.749,14.786 8.767,14.646 8.795 M7.979 15.461 C 7.664 15.526,7.406 15.714,7.240 15.997 C 7.063 16.300,7.065 17.037,7.244 17.343 C 7.544 17.857,8.009 17.973,9.564 17.920 C 10.522 17.888,10.751 17.815,11.017 17.458 C 11.297 17.082,11.297 16.251,11.017 15.875 C 10.729 15.489,10.535 15.437,9.334 15.422 C 8.729 15.414,8.119 15.432,7.979 15.461 M14.646 15.462 C 14.074 15.578,13.780 15.987,13.780 16.667 C 13.780 17.435,14.124 17.819,14.886 17.901 C 15.114 17.925,16.080 17.935,17.033 17.923 C 18.623 17.902,18.785 17.889,18.993 17.767 C 19.448 17.499,19.653 16.970,19.538 16.359 C 19.470 15.993,19.302 15.749,18.993 15.567 C 18.782 15.442,18.635 15.433,16.833 15.422 C 15.770 15.415,14.786 15.433,14.646 15.462 M34.090 18.069 C 34.574 18.250,35.084 18.760,35.265 19.243 C 35.398 19.598,35.400 19.734,35.400 26.667 C 35.400 33.599,35.398 33.735,35.265 34.090 C 35.084 34.574,34.574 35.084,34.090 35.265 C 33.740 35.396,33.587 35.400,29.164 35.400 L 24.600 35.400 24.600 26.667 L 24.600 17.933 29.164 17.933 C 33.587 17.933,33.740 17.938,34.090 18.069 M7.979 22.128 C 7.664 22.193,7.406 22.380,7.240 22.663 C 7.063 22.966,7.065 23.704,7.244 24.010 C 7.544 24.524,8.009 24.640,9.564 24.587 C 10.522 24.554,10.751 24.482,11.017 24.125 C 11.297 23.749,11.297 22.918,11.017 22.542 C 10.729 22.156,10.535 22.104,9.334 22.089 C 8.729 22.081,8.119 22.098,7.979 22.128 M14.646 22.129 C 14.074 22.245,13.780 22.653,13.780 23.333 C 13.780 24.102,14.124 24.486,14.886 24.568 C 15.114 24.592,16.080 24.602,17.033 24.589 C 18.623 24.569,18.785 24.556,18.993 24.433 C 19.302 24.251,19.470 24.007,19.538 23.641 C 19.653 23.030,19.448 22.501,18.993 22.233 C 18.782 22.109,18.635 22.099,16.833 22.088 C 15.770 22.082,14.786 22.100,14.646 22.129 M27.979 22.129 C 27.407 22.245,27.114 22.653,27.114 23.333 C 27.114 24.102,27.458 24.486,28.219 24.568 C 28.447 24.592,29.413 24.602,30.367 24.589 C 31.957 24.569,32.119 24.556,32.326 24.433 C 32.635 24.251,32.803 24.007,32.872 23.641 C 32.986 23.030,32.781 22.501,32.326 22.233 C 32.115 22.109,31.968 22.099,30.167 22.088 C 29.103 22.082,28.119 22.100,27.979 22.129 M7.979 28.794 C 7.664 28.860,7.406 29.047,7.240 29.330 C 7.063 29.633,7.065 30.370,7.244 30.677 C 7.544 31.191,8.009 31.306,9.564 31.254 C 10.522 31.221,10.751 31.148,11.017 30.791 C 11.297 30.415,11.297 29.585,11.017 29.209 C 10.729 28.823,10.535 28.770,9.334 28.755 C 8.729 28.748,8.119 28.765,7.979 28.794 M14.646 28.795 C 14.074 28.912,13.780 29.320,13.780 30.000 C 13.780 30.769,14.124 31.153,14.886 31.234 C 15.114 31.259,16.080 31.268,17.033 31.256 C 18.623 31.235,18.785 31.222,18.993 31.100 C 19.302 30.918,19.470 30.674,19.538 30.308 C 19.653 29.696,19.448 29.168,18.993 28.900 C 18.782 28.776,18.635 28.766,16.833 28.755 C 15.770 28.749,14.786 28.767,14.646 28.795 M27.979 28.795 C 27.407 28.912,27.114 29.320,27.114 30.000 C 27.114 30.769,27.458 31.153,28.219 31.234 C 28.447 31.259,29.413 31.268,30.367 31.256 C 31.957 31.235,32.119 31.222,32.326 31.100 C 32.635 30.918,32.803 30.674,32.872 30.308 C 32.986 29.696,32.781 29.168,32.326 28.900 C 32.115 28.776,31.968 28.766,30.167 28.755 C 29.103 28.749,28.119 28.767,27.979 28.795 " stroke="none" fill-rule="evenodd" fill="black"></path></svg>