<svg width="40" height="40" viewBox="0 0 40 40" fill="none" xmlns="http://www.w3.org/2000/svg"><path d="M19.646 3.797 C 19.330 3.859,19.074 4.046,18.900 4.340 C 18.771 4.560,18.766 4.705,18.747 9.150 L 18.728 13.733 17.514 13.734 C 15.015 13.735,13.498 13.940,11.805 14.504 C 6.349 16.322,2.541 21.251,2.136 27.018 C 2.065 28.027,2.100 28.416,2.296 28.790 C 2.428 29.043,2.725 29.307,3.033 29.446 C 3.282 29.558,3.656 29.568,8.503 29.585 L 13.707 29.604 13.783 30.519 C 13.828 31.058,13.918 31.625,14.003 31.900 C 14.862 34.696,17.536 36.496,20.383 36.197 C 21.901 36.038,23.141 35.417,24.205 34.282 C 25.248 33.171,25.798 31.757,25.799 30.185 L 25.800 29.604 31.250 29.585 C 36.335 29.568,36.718 29.559,36.967 29.446 C 37.329 29.283,37.590 29.026,37.757 28.667 C 37.877 28.410,37.895 28.257,37.884 27.600 C 37.782 21.762,33.899 16.454,28.333 14.547 C 26.657 13.973,25.583 13.810,23.117 13.754 L 21.267 13.713 21.264 9.340 C 21.262 6.935,21.236 4.836,21.205 4.676 C 21.074 3.997,20.442 3.641,19.646 3.797 M25.281 16.369 C 28.648 16.874,31.560 18.697,33.401 21.451 C 34.355 22.878,35.025 24.574,35.263 26.167 C 35.302 26.423,35.349 26.731,35.370 26.850 L 35.406 27.067 20.000 27.067 L 4.594 27.067 4.630 26.850 C 4.651 26.731,4.698 26.423,4.737 26.167 C 5.486 21.168,9.530 17.172,14.649 16.373 C 15.557 16.231,24.342 16.228,25.281 16.369 M23.332 30.050 C 23.331 30.633,23.189 31.289,22.960 31.778 C 22.731 32.265,21.906 33.111,21.418 33.358 C 20.048 34.051,18.385 33.785,17.300 32.700 C 16.605 32.005,16.267 31.183,16.267 30.188 L 16.267 29.600 19.800 29.600 L 23.333 29.600 23.332 30.050 " stroke="none" fill-rule="evenodd" fill="black"></path></svg>