<svg width="40" height="40" viewBox="0 0 40 40" fill="none" xmlns="http://www.w3.org/2000/svg"><path d="M18.167 3.142 C 13.568 3.720,9.372 6.358,6.676 10.367 C 4.570 13.498,3.590 17.300,4.032 20.620 C 4.576 24.706,7.257 28.342,11.017 30.095 L 11.601 30.367 10.199 32.467 C 9.429 33.622,8.767 34.679,8.730 34.817 C 8.629 35.184,8.746 35.536,9.063 35.822 C 9.688 36.387,10.276 36.455,10.744 36.019 C 10.842 35.928,11.637 34.775,12.511 33.458 C 14.087 31.082,14.102 31.063,14.300 31.101 C 15.495 31.328,24.506 31.328,25.700 31.101 C 25.898 31.063,25.913 31.082,27.433 33.379 C 28.277 34.653,29.067 35.809,29.191 35.947 C 29.652 36.466,30.273 36.422,30.937 35.822 C 31.254 35.536,31.371 35.184,31.270 34.817 C 31.233 34.679,30.572 33.622,29.802 32.468 L 28.401 30.369 29.227 29.959 C 31.657 28.751,33.576 26.839,34.791 24.417 C 35.298 23.406,35.744 22.010,35.947 20.800 C 36.078 20.023,36.054 17.717,35.907 16.900 C 35.386 14.011,34.409 11.760,32.679 9.467 C 32.008 8.577,30.616 7.152,29.800 6.522 C 27.355 4.632,24.623 3.485,21.735 3.135 C 21.067 3.054,18.832 3.059,18.167 3.142 M21.556 5.633 C 27.878 6.462,32.912 11.736,33.543 18.193 C 33.769 20.502,33.012 23.008,31.496 24.969 C 30.004 26.898,27.811 28.194,25.300 28.629 C 24.405 28.784,15.589 28.783,14.700 28.628 C 12.634 28.267,10.959 27.445,9.539 26.095 C 7.747 24.391,6.772 22.450,6.463 19.972 C 6.165 17.581,7.032 14.367,8.635 11.921 C 10.089 9.702,11.928 8.063,14.233 6.931 C 16.642 5.748,19.103 5.312,21.556 5.633 M11.307 18.736 C 10.951 18.842,10.480 19.421,10.373 19.886 C 10.307 20.168,10.439 20.548,10.682 20.778 C 10.964 21.044,13.327 22.616,14.109 23.057 C 15.880 24.055,17.820 24.545,20.000 24.545 C 22.178 24.545,24.055 24.073,25.856 23.073 C 26.627 22.644,29.179 20.943,29.385 20.719 C 29.787 20.284,29.701 19.667,29.156 19.063 C 28.867 18.744,28.519 18.630,28.142 18.731 C 28.000 18.769,27.198 19.255,26.359 19.810 C 24.338 21.147,23.440 21.567,21.867 21.909 C 21.059 22.085,18.941 22.085,18.133 21.909 C 16.563 21.568,15.720 21.176,13.716 19.857 C 11.914 18.670,11.762 18.600,11.307 18.736 " stroke="none" fill-rule="evenodd" fill="black"></path></svg>