<svg width="40" height="40" viewBox="0 0 40 40" fill="none" xmlns="http://www.w3.org/2000/svg"><path d="M9.571 2.163 C 8.970 2.385,8.705 2.755,8.757 3.300 C 8.774 3.483,9.391 6.250,10.128 9.448 C 10.864 12.646,11.467 15.290,11.467 15.323 C 11.467 15.356,11.037 15.396,10.512 15.412 C 9.475 15.443,9.256 15.510,8.983 15.875 C 8.703 16.251,8.703 17.082,8.983 17.458 C 9.275 17.849,9.455 17.895,10.831 17.933 L 12.094 17.967 12.881 21.367 C 13.473 23.923,13.662 24.849,13.644 25.100 C 13.631 25.283,12.895 27.935,12.010 30.993 C 11.044 34.329,10.400 36.665,10.400 36.833 C 10.400 37.409,10.933 37.856,11.689 37.915 C 12.043 37.942,12.132 37.924,12.333 37.787 C 12.462 37.700,12.630 37.509,12.708 37.364 C 12.786 37.219,13.551 34.663,14.408 31.684 L 15.967 26.268 22.348 26.268 L 28.729 26.267 28.748 31.683 C 28.766 36.962,28.770 37.106,28.900 37.326 C 29.168 37.781,29.696 37.986,30.308 37.872 C 30.674 37.803,30.918 37.635,31.100 37.326 C 31.232 37.103,31.233 36.980,31.233 28.200 C 31.233 19.913,31.225 19.270,31.116 18.867 C 30.769 17.585,29.861 16.469,28.700 15.898 C 27.712 15.412,28.179 15.440,20.752 15.416 L 14.070 15.394 14.005 15.147 C 13.970 15.011,13.321 12.200,12.563 8.900 C 11.682 5.062,11.134 2.806,11.043 2.639 C 10.964 2.496,10.819 2.318,10.719 2.245 C 10.487 2.073,9.922 2.033,9.571 2.163 M27.423 18.069 C 27.907 18.250,28.417 18.760,28.598 19.243 C 28.723 19.578,28.733 19.758,28.733 21.670 L 28.733 23.734 22.354 23.717 L 15.974 23.700 15.324 20.900 C 14.966 19.360,14.672 18.063,14.670 18.017 C 14.667 17.951,15.949 17.933,20.864 17.933 C 26.928 17.933,27.069 17.936,27.423 18.069 " stroke="none" fill-rule="evenodd" fill="black"></path></svg>