<svg width="40" height="40" viewBox="0 0 40 40" fill="none" xmlns="http://www.w3.org/2000/svg"><path d="M5.467 11.267 C 2.617 11.303,2.589 11.306,2.315 11.676 C 2.036 12.053,2.026 12.888,2.295 13.287 C 2.563 13.685,2.638 13.698,4.783 13.720 C 6.428 13.736,6.733 13.754,6.733 13.835 C 6.733 13.888,6.055 16.984,5.227 20.715 C 4.144 25.588,3.728 27.576,3.750 27.771 C 3.767 27.920,3.836 28.127,3.904 28.231 C 4.087 28.510,4.616 28.732,5.100 28.732 C 5.610 28.733,5.896 28.569,6.065 28.182 C 6.157 27.971,7.467 22.289,7.467 22.101 C 7.467 22.082,8.602 22.067,9.989 22.067 L 12.511 22.067 13.159 24.981 C 13.515 26.583,13.863 28.023,13.932 28.179 C 14.105 28.570,14.390 28.733,14.900 28.732 C 15.384 28.732,15.913 28.510,16.096 28.231 C 16.164 28.127,16.232 27.920,16.248 27.771 C 16.269 27.579,15.837 25.523,14.772 20.734 C 13.944 17.013,13.267 13.916,13.267 13.851 C 13.267 13.739,13.613 13.733,20.000 13.733 C 25.908 13.733,26.733 13.745,26.733 13.832 C 26.733 13.887,26.055 16.984,25.227 20.715 C 24.144 25.588,23.728 27.576,23.750 27.771 C 23.767 27.920,23.836 28.127,23.904 28.231 C 24.087 28.510,24.616 28.732,25.100 28.732 C 25.610 28.733,25.896 28.569,26.065 28.182 C 26.157 27.971,27.467 22.289,27.467 22.101 C 27.467 22.082,28.602 22.067,29.989 22.067 L 32.511 22.067 33.159 24.981 C 33.515 26.583,33.863 28.023,33.932 28.179 C 34.105 28.570,34.390 28.733,34.900 28.732 C 35.384 28.732,35.913 28.510,36.096 28.231 C 36.164 28.127,36.232 27.920,36.248 27.771 C 36.269 27.579,35.837 25.523,34.772 20.734 C 33.944 17.013,33.267 13.916,33.267 13.851 C 33.267 13.741,33.394 13.733,35.123 13.733 C 36.338 13.733,37.058 13.707,37.207 13.657 C 37.696 13.493,37.888 13.166,37.888 12.500 C 37.888 11.828,37.692 11.500,37.196 11.341 C 36.946 11.260,10.789 11.199,5.467 11.267 M10.689 13.883 C 10.800 14.327,11.933 19.477,11.933 19.533 C 11.933 19.576,11.248 19.600,10.000 19.600 C 8.460 19.600,8.067 19.582,8.067 19.513 C 8.067 19.447,9.120 14.638,9.300 13.883 C 9.334 13.740,9.367 13.733,9.994 13.733 C 10.621 13.733,10.654 13.740,10.689 13.883 M30.689 13.883 C 30.800 14.327,31.933 19.477,31.933 19.533 C 31.933 19.576,31.248 19.600,30.000 19.600 C 28.460 19.600,28.067 19.582,28.067 19.513 C 28.067 19.447,29.120 14.638,29.300 13.883 C 29.334 13.740,29.367 13.733,29.994 13.733 C 30.621 13.733,30.654 13.740,30.689 13.883 " stroke="none" fill-rule="evenodd" fill="black"></path></svg>