<svg width="40" height="40" viewBox="0 0 40 40" fill="none" xmlns="http://www.w3.org/2000/svg"><path d="M11.028 2.138 C 10.053 2.254,9.197 2.686,8.441 3.441 C 7.637 4.245,7.250 5.055,7.130 6.189 C 7.084 6.616,7.068 11.426,7.081 20.467 C 7.100 33.230,7.109 34.126,7.218 34.500 C 7.690 36.113,8.940 37.351,10.533 37.783 C 10.937 37.892,11.585 37.900,20.000 37.900 C 28.415 37.900,29.063 37.892,29.467 37.783 C 31.076 37.347,32.347 36.076,32.783 34.467 C 32.893 34.059,32.900 33.187,32.900 20.000 C 32.900 6.813,32.893 5.941,32.783 5.533 C 32.436 4.252,31.527 3.136,30.367 2.565 C 29.360 2.070,30.103 2.104,20.300 2.092 C 15.460 2.086,11.287 2.107,11.028 2.138 M29.090 4.735 C 29.574 4.916,30.084 5.426,30.265 5.910 C 30.399 6.269,30.400 6.369,30.400 20.000 C 30.400 33.631,30.399 33.731,30.265 34.090 C 30.084 34.574,29.574 35.084,29.090 35.265 C 28.733 35.398,28.607 35.400,20.000 35.400 C 11.393 35.400,11.267 35.398,10.910 35.265 C 10.426 35.084,9.916 34.574,9.735 34.090 C 9.601 33.731,9.600 33.631,9.600 20.000 C 9.600 6.369,9.601 6.269,9.735 5.910 C 9.911 5.439,10.427 4.917,10.891 4.739 C 11.225 4.610,11.436 4.607,19.981 4.603 C 28.612 4.600,28.733 4.602,29.090 4.735 M17.633 11.991 C 17.523 12.059,17.382 12.172,17.320 12.242 C 17.085 12.506,15.268 15.692,15.227 15.911 C 15.129 16.435,15.385 16.881,15.945 17.160 C 16.579 17.476,17.128 17.353,17.480 16.817 C 17.570 16.679,18.044 15.879,18.534 15.039 C 19.309 13.710,19.428 13.467,19.453 13.160 C 19.489 12.736,19.334 12.437,18.950 12.190 C 18.397 11.834,17.987 11.772,17.633 11.991 M22.100 14.436 C 21.953 14.487,21.758 14.612,21.667 14.714 C 21.575 14.817,20.317 16.953,18.871 19.460 C 16.513 23.550,16.240 24.055,16.215 24.360 C 16.182 24.782,16.356 25.072,16.811 25.353 C 17.407 25.722,17.911 25.707,18.299 25.310 C 18.411 25.194,19.685 23.049,21.129 20.543 C 23.355 16.679,23.759 15.937,23.785 15.670 C 23.821 15.292,23.695 15.011,23.383 14.778 C 22.884 14.404,22.495 14.300,22.100 14.436 M22.891 22.803 C 22.635 22.967,22.576 23.057,21.466 24.961 C 20.691 26.290,20.572 26.533,20.547 26.840 C 20.511 27.264,20.666 27.563,21.050 27.810 C 21.733 28.249,22.223 28.243,22.646 27.790 C 22.885 27.533,24.729 24.323,24.774 24.086 C 24.841 23.725,24.746 23.417,24.487 23.158 C 24.013 22.684,23.318 22.529,22.891 22.803 " stroke="none" fill-rule="evenodd" fill="black"></path></svg>