<svg width="40" height="40" viewBox="0 0 40 40" fill="none" xmlns="http://www.w3.org/2000/svg"><path d="M19.656 2.129 C 19.177 2.224,18.890 2.519,18.793 3.019 C 18.763 3.174,18.737 7.498,18.735 12.629 L 18.731 21.958 17.149 20.386 C 15.394 18.643,15.277 18.563,14.725 18.728 C 14.361 18.837,13.837 19.361,13.728 19.725 C 13.554 20.305,13.562 20.315,16.273 23.035 L 18.733 25.504 18.736 31.102 C 18.738 34.181,18.764 36.831,18.795 36.991 C 18.912 37.595,19.304 37.886,20.000 37.886 C 20.696 37.886,21.088 37.595,21.205 36.991 C 21.236 36.831,21.263 31.930,21.265 26.099 L 21.268 15.498 24.072 12.699 C 25.614 11.160,26.934 9.789,27.005 9.653 C 27.235 9.210,27.144 8.744,26.742 8.311 C 26.358 7.896,25.807 7.760,25.380 7.973 C 25.263 8.032,24.289 8.954,23.217 10.023 L 21.267 11.966 21.264 7.633 C 21.262 5.250,21.236 3.169,21.205 3.009 C 21.074 2.334,20.441 1.974,19.656 2.129 " stroke="none" fill-rule="evenodd" fill="black"></path></svg>