<svg width="40" height="40" viewBox="0 0 40 40" fill="none" xmlns="http://www.w3.org/2000/svg"><path d="M17.867 9.707 C 15.289 9.881,14.021 10.017,12.300 10.304 C 9.479 10.775,6.471 11.587,3.714 12.624 C 2.633 13.031,2.389 13.171,2.216 13.489 C 2.109 13.684,2.100 14.109,2.100 19.267 C 2.100 25.537,2.073 25.173,2.620 26.233 C 2.825 26.631,3.040 26.912,3.464 27.335 C 4.359 28.229,5.372 28.663,6.575 28.666 L 7.049 28.667 7.080 29.550 C 7.120 30.688,7.241 30.945,7.824 31.132 C 8.133 31.232,8.759 31.195,9.027 31.063 C 9.464 30.847,9.592 30.459,9.597 29.350 L 9.600 28.667 19.991 28.667 L 30.383 28.667 30.413 29.550 C 30.453 30.688,30.574 30.945,31.157 31.132 C 31.466 31.232,32.093 31.195,32.361 31.063 C 32.797 30.847,32.926 30.459,32.930 29.350 L 32.933 28.667 33.417 28.666 C 34.628 28.663,35.639 28.231,36.536 27.335 C 36.960 26.912,37.175 26.631,37.380 26.233 C 37.927 25.173,37.900 25.537,37.900 19.267 C 37.900 14.109,37.891 13.684,37.784 13.489 C 37.611 13.171,37.367 13.031,36.286 12.624 C 32.221 11.095,28.110 10.179,23.600 9.797 C 22.766 9.726,18.557 9.660,17.867 9.707 M23.233 12.272 C 27.088 12.560,30.781 13.332,34.450 14.616 L 35.400 14.948 35.400 16.107 C 35.400 16.745,35.388 17.267,35.373 17.267 C 35.358 17.267,34.840 17.103,34.223 16.903 C 31.404 15.990,28.534 15.358,25.600 15.005 C 23.545 14.758,22.538 14.703,20.000 14.703 C 17.462 14.703,16.455 14.758,14.400 15.005 C 11.466 15.358,8.596 15.990,5.777 16.903 C 5.160 17.103,4.642 17.267,4.627 17.267 C 4.612 17.267,4.600 16.745,4.600 16.107 L 4.600 14.948 5.550 14.616 C 9.759 13.143,13.720 12.394,18.467 12.173 C 19.277 12.135,22.224 12.196,23.233 12.272 M23.233 17.272 C 27.089 17.560,30.781 18.332,34.453 19.617 L 35.406 19.950 35.386 22.325 L 35.367 24.700 35.189 25.038 C 34.976 25.441,34.564 25.829,34.141 26.024 L 33.833 26.167 20.000 26.167 L 6.167 26.167 5.859 26.024 C 5.436 25.829,5.024 25.441,4.811 25.038 L 4.633 24.700 4.614 22.325 L 4.594 19.950 5.547 19.617 C 9.760 18.143,13.719 17.394,18.467 17.173 C 19.277 17.135,22.224 17.196,23.233 17.272 " stroke="none" fill-rule="evenodd" fill="black"></path></svg>