<svg width="40" height="40" viewBox="0 0 40 40" fill="none" xmlns="http://www.w3.org/2000/svg"><path d="M18.600 1.940 C 16.120 2.219,13.671 3.256,11.710 4.859 C 10.626 5.745,9.343 7.274,9.026 8.060 C 8.909 8.349,8.508 10.671,7.425 17.339 C 5.822 27.201,5.828 27.154,6.127 28.133 C 6.585 29.637,7.628 30.723,9.120 31.252 L 9.633 31.433 14.183 31.453 L 18.733 31.472 18.733 33.567 L 18.733 35.661 16.617 35.681 C 14.289 35.702,14.232 35.711,13.962 36.113 C 13.693 36.512,13.703 37.347,13.982 37.724 C 14.272 38.117,14.005 38.100,20.000 38.100 C 26.056 38.100,25.746 38.121,26.038 37.687 C 26.307 37.288,26.297 36.453,26.018 36.076 C 25.750 35.713,25.675 35.702,23.383 35.681 L 21.267 35.661 21.267 33.567 L 21.267 31.472 25.850 31.452 L 30.433 31.431 30.867 31.276 C 31.658 30.993,32.076 30.729,32.672 30.136 C 33.305 29.505,33.567 29.094,33.841 28.300 C 34.004 27.827,34.024 27.673,34.022 26.933 C 34.020 26.179,33.887 25.259,32.618 17.251 C 31.012 7.117,31.215 8.004,30.218 6.763 C 28.018 4.028,24.889 2.319,21.386 1.937 C 20.645 1.856,19.332 1.858,18.600 1.940 M21.000 4.401 C 23.861 4.698,26.427 6.065,28.192 8.233 C 28.400 8.490,28.622 8.781,28.685 8.880 C 28.824 9.100,31.546 26.267,31.548 26.933 C 31.549 27.478,31.378 27.886,30.966 28.327 C 30.796 28.509,30.509 28.721,30.314 28.809 L 29.967 28.967 20.067 28.967 C 8.700 28.967,9.741 29.026,9.064 28.336 C 8.647 27.910,8.467 27.478,8.467 26.904 C 8.467 26.712,9.079 22.763,9.828 18.128 C 10.577 13.493,11.210 9.555,11.236 9.379 C 11.298 8.955,11.663 8.415,12.428 7.615 C 14.637 5.304,17.901 4.080,21.000 4.401 " stroke="none" fill-rule="evenodd" fill="black"></path></svg>