<svg width="40" height="40" viewBox="0 0 40 40" fill="none" xmlns="http://www.w3.org/2000/svg"><path d="M11.028 2.138 C 10.053 2.254,9.197 2.686,8.441 3.441 C 7.637 4.245,7.250 5.055,7.130 6.189 C 7.084 6.616,7.068 11.426,7.081 20.467 C 7.100 33.230,7.109 34.126,7.218 34.500 C 7.690 36.113,8.940 37.351,10.533 37.783 C 10.937 37.892,11.585 37.900,20.000 37.900 C 28.415 37.900,29.063 37.892,29.467 37.783 C 31.076 37.347,32.347 36.076,32.783 34.467 C 32.893 34.059,32.900 33.187,32.900 20.000 C 32.900 6.813,32.893 5.941,32.783 5.533 C 32.436 4.252,31.527 3.136,30.367 2.565 C 29.360 2.070,30.103 2.104,20.300 2.092 C 15.460 2.086,11.287 2.107,11.028 2.138 M18.733 20.000 L 18.733 35.400 15.003 35.400 C 11.417 35.400,11.258 35.395,10.910 35.265 C 10.426 35.084,9.916 34.574,9.735 34.090 C 9.601 33.731,9.600 33.631,9.600 20.000 C 9.600 6.369,9.601 6.269,9.735 5.910 C 9.911 5.439,10.427 4.917,10.891 4.739 C 11.217 4.613,11.414 4.607,14.983 4.603 L 18.733 4.600 18.733 20.000 M29.090 4.735 C 29.574 4.916,30.084 5.426,30.265 5.910 C 30.399 6.269,30.400 6.369,30.400 20.000 C 30.400 33.631,30.399 33.731,30.265 34.090 C 30.084 34.574,29.574 35.084,29.090 35.265 C 28.742 35.395,28.583 35.400,24.997 35.400 L 21.267 35.400 21.267 20.000 L 21.267 4.600 24.997 4.600 C 28.583 4.600,28.742 4.605,29.090 4.735 M14.646 18.797 C 14.330 18.859,14.074 19.046,13.900 19.340 C 13.774 19.554,13.767 19.687,13.767 21.667 C 13.767 23.647,13.774 23.780,13.900 23.993 C 14.082 24.302,14.326 24.470,14.692 24.538 C 15.304 24.653,15.832 24.448,16.100 23.993 C 16.222 23.785,16.235 23.623,16.256 22.033 C 16.282 20.017,16.247 19.557,16.045 19.256 C 15.781 18.864,15.228 18.683,14.646 18.797 M24.646 18.797 C 24.330 18.859,24.074 19.046,23.900 19.340 C 23.774 19.554,23.767 19.687,23.767 21.667 C 23.767 23.647,23.774 23.780,23.900 23.993 C 24.082 24.302,24.326 24.470,24.692 24.538 C 25.304 24.653,25.832 24.448,26.100 23.993 C 26.222 23.785,26.235 23.623,26.256 22.033 C 26.282 20.017,26.247 19.557,26.045 19.256 C 25.781 18.864,25.228 18.683,24.646 18.797 " stroke="none" fill-rule="evenodd" fill="black"></path></svg>