<svg width="40" height="40" viewBox="0 0 40 40" fill="none" xmlns="http://www.w3.org/2000/svg"><path d="M17.467 9.837 C 14.743 10.125,12.376 10.756,9.967 11.835 C 8.985 12.275,7.688 12.964,7.477 13.157 C 7.101 13.501,7.103 13.492,7.067 16.300 C 7.048 17.730,7.052 20.235,7.074 21.867 C 7.120 25.155,7.123 25.183,7.586 26.133 C 7.772 26.516,7.971 26.776,8.431 27.242 C 8.950 27.767,9.121 27.892,9.667 28.154 C 10.015 28.322,10.478 28.490,10.696 28.529 C 10.913 28.568,11.682 28.600,12.404 28.600 L 13.716 28.600 13.746 29.523 C 13.778 30.524,13.847 30.747,14.209 31.017 C 14.585 31.297,15.415 31.297,15.791 31.017 C 16.153 30.747,16.222 30.524,16.254 29.523 L 16.284 28.600 20.000 28.600 L 23.716 28.600 23.746 29.523 C 23.778 30.524,23.847 30.747,24.209 31.017 C 24.585 31.297,25.415 31.297,25.791 31.017 C 26.153 30.747,26.222 30.524,26.254 29.523 L 26.284 28.600 27.596 28.600 C 28.318 28.600,29.087 28.568,29.304 28.529 C 29.522 28.490,29.985 28.322,30.333 28.154 C 30.879 27.892,31.050 27.767,31.569 27.242 C 32.029 26.776,32.228 26.516,32.414 26.133 C 32.877 25.183,32.880 25.155,32.926 21.867 C 32.948 20.235,32.952 17.730,32.933 16.300 C 32.897 13.492,32.899 13.501,32.523 13.157 C 32.313 12.965,31.018 12.277,30.033 11.835 C 27.614 10.749,25.215 10.116,22.433 9.831 C 21.277 9.713,18.611 9.716,17.467 9.837 M22.068 12.297 C 24.777 12.559,27.350 13.279,29.667 14.421 L 30.367 14.767 30.385 15.883 L 30.403 17.000 30.018 16.824 C 25.818 14.907,20.657 14.264,15.833 15.059 C 13.882 15.380,11.708 16.036,9.983 16.823 L 9.600 16.998 9.600 15.898 L 9.600 14.798 9.817 14.666 C 10.257 14.397,12.046 13.649,13.025 13.325 C 15.911 12.369,19.089 12.008,22.068 12.297 M22.068 17.297 C 24.777 17.559,27.350 18.279,29.667 19.421 L 30.367 19.767 30.384 22.097 C 30.405 24.846,30.401 24.868,29.807 25.470 C 29.536 25.745,29.327 25.889,29.047 25.992 L 28.662 26.133 20.000 26.133 L 11.338 26.133 10.953 25.992 C 10.673 25.889,10.464 25.746,10.194 25.472 C 9.604 24.873,9.600 24.850,9.600 22.120 L 9.600 19.798 9.817 19.666 C 10.257 19.397,12.046 18.649,13.025 18.325 C 15.911 17.369,19.089 17.008,22.068 17.297 " stroke="none" fill-rule="evenodd" fill="black"></path></svg>