<svg width="40" height="40" viewBox="0 0 40 40" fill="none" xmlns="http://www.w3.org/2000/svg"><path d="M18.600 2.240 C 14.960 2.489,12.168 3.237,9.022 4.807 C 7.492 5.570,7.248 5.762,7.135 6.287 C 7.086 6.516,7.065 8.060,7.069 10.989 L 7.076 15.351 6.788 15.520 C 5.709 16.155,4.905 17.061,4.333 18.287 C 3.749 19.536,3.719 19.924,3.751 25.874 C 3.779 31.288,3.754 31.000,4.287 32.033 C 4.492 32.431,4.707 32.711,5.131 33.135 C 6.028 34.031,7.039 34.463,8.250 34.466 L 8.733 34.467 8.736 35.550 C 8.739 36.755,8.790 37.131,8.982 37.391 C 9.190 37.672,9.447 37.767,10.000 37.767 C 10.553 37.767,10.810 37.672,11.018 37.391 C 11.210 37.131,11.261 36.755,11.264 35.550 L 11.267 34.467 20.000 34.467 L 28.733 34.467 28.736 35.550 C 28.739 36.755,28.790 37.131,28.982 37.391 C 29.190 37.672,29.447 37.767,30.000 37.767 C 30.553 37.767,30.810 37.672,31.018 37.391 C 31.210 37.131,31.261 36.755,31.264 35.550 L 31.267 34.467 31.750 34.466 C 32.961 34.463,33.972 34.031,34.869 33.135 C 35.293 32.711,35.508 32.431,35.713 32.033 C 36.246 31.000,36.221 31.288,36.249 25.874 C 36.281 19.924,36.251 19.536,35.667 18.287 C 35.095 17.061,34.291 16.155,33.212 15.520 L 32.924 15.351 32.931 10.989 C 32.935 8.060,32.914 6.516,32.865 6.287 C 32.752 5.761,32.509 5.570,30.978 4.810 C 28.190 3.426,25.857 2.726,22.833 2.366 C 22.000 2.266,19.359 2.188,18.600 2.240 M21.222 4.734 C 24.206 4.907,26.767 5.559,29.417 6.819 L 30.400 7.287 30.400 10.984 L 30.400 14.681 30.238 14.641 C 30.025 14.587,28.890 14.707,28.375 14.837 C 27.811 14.980,26.721 15.521,26.198 15.918 C 24.868 16.928,23.938 18.597,23.817 20.191 L 23.780 20.683 23.417 20.640 C 23.217 20.617,22.367 20.567,21.527 20.530 C 20.086 20.467,17.584 20.522,16.583 20.640 L 16.220 20.683 16.183 20.191 C 16.062 18.597,15.132 16.928,13.802 15.918 C 13.279 15.521,12.189 14.980,11.625 14.837 C 11.110 14.707,9.975 14.587,9.762 14.641 L 9.600 14.681 9.600 10.984 L 9.600 7.287 10.350 6.919 C 13.007 5.614,16.086 4.831,19.033 4.712 C 19.290 4.701,19.635 4.687,19.800 4.681 C 19.965 4.674,20.605 4.698,21.222 4.734 M10.957 17.239 C 11.583 17.400,12.118 17.717,12.634 18.233 C 13.334 18.933,13.733 19.813,13.733 20.654 C 13.733 21.035,13.839 20.979,12.767 21.170 C 11.231 21.445,9.046 22.039,7.277 22.663 C 6.751 22.848,6.309 23.000,6.294 23.000 C 6.279 23.000,6.267 22.397,6.267 21.660 C 6.267 20.162,6.329 19.782,6.689 19.100 C 6.951 18.603,7.712 17.832,8.200 17.570 C 8.988 17.146,10.087 17.015,10.957 17.239 M30.957 17.239 C 31.583 17.400,32.118 17.717,32.634 18.233 C 33.544 19.144,33.733 19.733,33.733 21.660 C 33.733 22.397,33.721 23.000,33.706 23.000 C 33.691 23.000,33.249 22.848,32.723 22.663 C 30.954 22.039,28.769 21.445,27.233 21.170 C 26.161 20.979,26.267 21.035,26.267 20.654 C 26.267 19.813,26.666 18.933,27.366 18.233 C 28.131 17.469,28.894 17.147,29.957 17.138 C 30.295 17.135,30.723 17.178,30.957 17.239 M22.967 23.099 C 25.469 23.314,27.742 23.740,30.101 24.435 C 31.047 24.714,32.778 25.319,33.438 25.602 L 33.740 25.731 33.720 28.116 L 33.700 30.500 33.522 30.838 C 33.309 31.241,32.897 31.629,32.475 31.824 L 32.167 31.967 20.000 31.967 L 7.833 31.967 7.525 31.824 C 7.103 31.629,6.691 31.241,6.478 30.838 L 6.300 30.500 6.300 28.104 L 6.300 25.708 6.700 25.545 C 9.793 24.282,13.442 23.411,16.933 23.102 C 18.299 22.981,21.578 22.980,22.967 23.099 " stroke="none" fill-rule="evenodd" fill="black"></path></svg>