<svg width="40" height="40" viewBox="0 0 40 40" fill="none" xmlns="http://www.w3.org/2000/svg"><path d="M6.028 3.805 C 5.054 3.920,4.197 4.352,3.441 5.108 C 2.637 5.912,2.250 6.722,2.129 7.855 C 2.084 8.282,2.068 12.556,2.081 20.467 C 2.101 31.632,2.110 32.460,2.219 32.833 C 2.689 34.445,3.940 35.685,5.533 36.116 C 5.941 36.226,6.813 36.233,20.000 36.233 C 33.187 36.233,34.059 36.226,34.467 36.116 C 36.076 35.680,37.347 34.410,37.783 32.800 C 37.893 32.394,37.900 31.597,37.900 20.000 C 37.900 8.403,37.893 7.606,37.783 7.200 C 37.351 5.607,36.113 4.357,34.500 3.885 C 34.125 3.775,33.242 3.768,20.300 3.759 C 12.710 3.753,6.287 3.774,6.028 3.805 M10.400 10.000 L 10.400 13.733 7.500 13.733 L 4.600 13.733 4.600 10.836 C 4.600 7.476,4.598 7.488,5.210 6.876 C 5.793 6.293,5.889 6.274,8.317 6.270 L 10.400 6.267 10.400 10.000 M18.733 10.000 L 18.733 13.733 15.833 13.733 L 12.933 13.733 12.933 10.000 L 12.933 6.267 15.833 6.267 L 18.733 6.267 18.733 10.000 M27.067 10.000 L 27.067 13.733 24.167 13.733 L 21.267 13.733 21.267 10.000 L 21.267 6.267 24.167 6.267 L 27.067 6.267 27.067 10.000 M34.090 6.402 C 34.574 6.583,35.084 7.093,35.265 7.577 C 35.393 7.920,35.400 8.088,35.400 10.836 L 35.400 13.733 32.500 13.733 L 29.600 13.733 29.600 10.000 L 29.600 6.267 31.664 6.267 C 33.575 6.267,33.755 6.277,34.090 6.402 M10.400 20.000 L 10.400 23.733 7.500 23.733 L 4.600 23.733 4.600 20.000 L 4.600 16.267 7.500 16.267 L 10.400 16.267 10.400 20.000 M18.733 20.000 L 18.733 23.733 15.833 23.733 L 12.933 23.733 12.933 20.000 L 12.933 16.267 15.833 16.267 L 18.733 16.267 18.733 20.000 M27.067 20.000 L 27.067 23.733 24.167 23.733 L 21.267 23.733 21.267 20.000 L 21.267 16.267 24.167 16.267 L 27.067 16.267 27.067 20.000 M35.400 20.000 L 35.400 23.733 32.500 23.733 L 29.600 23.733 29.600 20.000 L 29.600 16.267 32.500 16.267 L 35.400 16.267 35.400 20.000 M10.400 30.000 L 10.400 33.733 8.336 33.733 C 5.917 33.733,5.795 33.710,5.210 33.124 C 4.598 32.512,4.600 32.524,4.600 29.164 L 4.600 26.267 7.500 26.267 L 10.400 26.267 10.400 30.000 M18.733 30.000 L 18.733 33.733 15.833 33.733 L 12.933 33.733 12.933 30.000 L 12.933 26.267 15.833 26.267 L 18.733 26.267 18.733 30.000 M27.067 30.000 L 27.067 33.733 24.167 33.733 L 21.267 33.733 21.267 30.000 L 21.267 26.267 24.167 26.267 L 27.067 26.267 27.067 30.000 M35.400 29.164 C 35.400 32.524,35.402 32.512,34.790 33.124 C 34.205 33.710,34.083 33.733,31.664 33.733 L 29.600 33.733 29.600 30.000 L 29.600 26.267 32.500 26.267 L 35.400 26.267 35.400 29.164 " stroke="none" fill-rule="evenodd" fill="black"></path></svg>