<svg width="40" height="40" viewBox="0 0 40 40" fill="none" xmlns="http://www.w3.org/2000/svg"><path d="M10.671 2.364 C 9.292 2.626,7.930 3.449,7.045 4.555 C 6.791 4.873,6.646 4.991,6.408 5.074 C 4.573 5.711,3.097 7.389,2.706 9.281 C 2.340 11.051,2.976 13.047,4.324 14.361 L 4.660 14.688 4.565 14.915 C 4.425 15.250,4.086 16.610,3.970 17.300 C 3.387 20.777,3.934 24.306,5.547 27.485 C 7.605 31.539,11.511 34.644,15.963 35.764 C 17.446 36.137,18.243 36.230,19.967 36.230 C 21.926 36.229,23.045 36.067,24.813 35.527 C 27.172 34.807,29.958 33.131,31.375 31.582 C 31.688 31.239,31.726 31.218,32.113 31.174 C 33.041 31.069,34.076 30.667,34.967 30.067 C 36.561 28.991,37.622 27.243,37.860 25.300 C 38.021 23.980,37.521 22.286,36.610 21.067 L 36.286 20.633 36.213 19.333 C 36.097 17.264,35.773 15.724,35.091 14.000 C 34.261 11.904,33.125 10.189,31.468 8.532 C 30.159 7.223,29.097 6.436,27.515 5.606 C 24.415 3.977,20.730 3.402,17.230 4.001 L 16.449 4.134 16.108 3.847 C 15.232 3.111,14.483 2.705,13.547 2.457 C 12.871 2.278,11.377 2.230,10.671 2.364 M12.827 4.865 C 13.805 5.115,14.642 5.725,15.132 6.544 C 15.396 6.987,15.666 7.181,16.233 7.338 C 17.445 7.674,18.288 8.502,18.636 9.698 C 19.019 11.015,18.155 12.646,16.731 13.293 C 15.972 13.639,14.888 13.683,14.000 13.404 C 13.445 13.230,13.164 13.232,12.686 13.412 C 12.185 13.600,11.621 13.599,11.133 13.410 C 10.670 13.229,10.433 13.230,9.804 13.415 C 9.103 13.622,7.946 13.619,7.372 13.410 C 6.226 12.992,5.334 11.963,5.120 10.811 C 5.022 10.286,5.135 9.619,5.419 9.048 C 5.795 8.291,6.733 7.521,7.467 7.368 C 8.060 7.243,8.331 7.064,8.667 6.573 C 9.069 5.986,9.221 5.815,9.600 5.518 C 10.490 4.821,11.699 4.577,12.827 4.865 M21.814 6.370 C 24.179 6.694,26.430 7.626,28.348 9.075 C 29.057 9.610,30.390 10.943,30.925 11.652 C 32.022 13.103,32.854 14.809,33.301 16.518 C 33.492 17.253,33.666 18.247,33.666 18.613 L 33.667 18.859 33.373 18.758 C 33.168 18.689,33.029 18.584,32.916 18.412 C 32.146 17.248,30.531 16.159,28.933 15.726 C 28.159 15.516,26.565 15.479,25.733 15.652 C 24.061 16.000,22.490 16.973,21.474 18.290 C 21.242 18.591,21.129 18.675,20.782 18.800 C 18.751 19.536,17.254 21.113,16.622 23.181 C 16.463 23.700,16.443 23.877,16.442 24.733 C 16.440 25.869,16.551 26.366,17.031 27.380 C 17.430 28.221,17.798 28.724,18.516 29.403 C 19.431 30.270,20.495 30.830,21.760 31.111 C 22.471 31.269,23.990 31.253,24.821 31.079 C 25.412 30.955,25.501 30.952,25.747 31.038 C 26.130 31.173,27.079 31.270,27.542 31.222 C 27.757 31.199,27.933 31.198,27.933 31.218 C 27.933 31.266,26.894 31.911,26.312 32.225 C 25.078 32.889,23.330 33.438,21.700 33.675 C 20.927 33.787,19.004 33.787,18.233 33.675 C 12.861 32.892,8.625 29.395,6.940 24.352 C 6.105 21.857,6.005 19.255,6.643 16.696 C 6.735 16.326,6.830 15.992,6.855 15.953 C 6.887 15.902,7.048 15.910,7.400 15.979 C 7.976 16.092,9.574 16.061,10.055 15.928 C 10.295 15.861,10.451 15.868,10.976 15.967 C 11.675 16.098,12.532 16.077,13.067 15.915 C 13.325 15.837,13.417 15.838,13.733 15.927 C 14.294 16.083,16.153 16.072,16.767 15.909 C 17.791 15.637,18.808 15.050,19.522 14.317 C 20.080 13.745,20.363 13.346,20.670 12.700 C 21.655 10.623,21.287 8.291,19.710 6.617 L 19.381 6.267 20.221 6.267 C 20.684 6.267,21.401 6.313,21.814 6.370 M28.051 18.097 C 29.367 18.373,30.329 19.038,31.122 20.216 C 31.499 20.776,31.614 20.858,32.267 21.037 C 34.122 21.544,35.357 23.032,35.364 24.767 C 35.371 26.398,34.213 27.943,32.533 28.543 C 32.156 28.678,31.975 28.698,31.133 28.699 C 30.264 28.700,30.098 28.680,29.483 28.505 L 28.800 28.310 28.180 28.522 C 27.392 28.791,26.843 28.806,26.245 28.574 C 25.585 28.318,25.526 28.316,24.693 28.532 C 23.361 28.878,22.191 28.798,21.183 28.292 C 20.568 27.983,19.663 27.094,19.346 26.488 C 18.552 24.969,18.816 23.435,20.092 22.159 C 20.699 21.552,21.160 21.283,21.980 21.059 C 22.639 20.879,22.796 20.765,23.193 20.177 C 24.297 18.541,26.229 17.713,28.051 18.097 " stroke="none" fill-rule="evenodd" fill="black"></path></svg>