<svg width="40" height="40" viewBox="0 0 40 40" fill="none" xmlns="http://www.w3.org/2000/svg"><path d="M19.324 2.137 C 17.642 2.319,16.057 3.207,15.051 4.532 C 14.655 5.054,14.113 6.144,13.971 6.708 C 13.761 7.536,13.736 8.403,13.734 14.737 L 13.733 21.108 13.535 21.255 C 13.246 21.469,12.387 22.471,12.035 23.004 C 11.349 24.046,10.873 25.210,10.593 26.533 C 10.399 27.453,10.385 29.055,10.563 30.000 C 10.965 32.130,12.070 34.113,13.597 35.450 C 15.478 37.095,17.548 37.882,20.000 37.882 C 21.624 37.882,22.923 37.580,24.282 36.888 C 27.027 35.489,28.901 32.974,29.439 29.967 C 29.613 28.993,29.598 27.456,29.405 26.533 C 29.137 25.248,28.635 24.022,27.956 22.991 C 27.612 22.469,26.751 21.467,26.465 21.255 L 26.267 21.108 26.266 14.737 C 26.264 8.390,26.239 7.529,26.028 6.708 C 25.898 6.206,25.497 5.335,25.162 4.831 C 24.295 3.525,22.806 2.529,21.289 2.240 C 20.578 2.105,19.932 2.071,19.324 2.137 M20.957 4.706 C 22.128 5.007,23.216 6.045,23.609 7.233 C 23.678 7.445,23.704 8.997,23.732 14.767 L 23.767 22.033 23.920 22.281 C 24.005 22.417,24.270 22.684,24.509 22.874 C 25.619 23.757,26.444 25.070,26.883 26.653 C 27.003 27.087,27.025 27.347,27.025 28.333 C 27.025 29.325,27.004 29.578,26.881 30.022 C 26.149 32.662,24.312 34.507,21.706 35.219 C 21.246 35.344,20.996 35.366,20.000 35.366 C 19.004 35.366,18.754 35.344,18.294 35.219 C 16.092 34.618,14.297 33.078,13.490 31.099 C 13.109 30.164,12.988 29.597,12.951 28.567 C 12.913 27.494,13.005 26.902,13.369 25.882 C 13.778 24.735,14.577 23.601,15.487 22.877 C 15.728 22.685,15.995 22.417,16.080 22.281 L 16.233 22.033 16.268 14.767 C 16.296 8.997,16.322 7.445,16.391 7.233 C 16.667 6.398,17.462 5.433,18.200 5.036 C 18.988 4.613,20.087 4.481,20.957 4.706 M19.646 13.797 C 19.330 13.859,19.074 14.046,18.900 14.340 C 18.771 14.560,18.766 14.705,18.747 19.242 L 18.728 23.917 18.342 24.058 C 17.199 24.475,16.127 25.572,15.692 26.769 C 15.244 28.003,15.397 29.576,16.075 30.708 C 16.364 31.191,17.142 31.970,17.625 32.258 C 19.045 33.109,20.955 33.109,22.375 32.258 C 22.858 31.970,23.636 31.191,23.925 30.708 C 24.775 29.288,24.775 27.372,23.925 25.961 C 23.449 25.170,22.482 24.358,21.656 24.057 L 21.267 23.915 21.264 19.441 C 21.262 16.980,21.236 14.836,21.205 14.676 C 21.074 13.997,20.442 13.641,19.646 13.797 M20.757 26.402 C 21.240 26.583,21.750 27.093,21.931 27.577 C 22.225 28.362,22.045 29.202,21.457 29.790 C 20.155 31.092,17.933 30.174,17.933 28.333 C 17.933 27.764,18.133 27.286,18.543 26.876 C 19.131 26.288,19.971 26.108,20.757 26.402 " stroke="none" fill-rule="evenodd" fill="black"></path></svg>