<svg width="40" height="40" viewBox="0 0 40 40" fill="none" xmlns="http://www.w3.org/2000/svg"><path d="M18.833 3.804 C 15.577 4.059,12.493 5.833,10.545 8.572 L 10.135 9.148 9.376 9.402 C 6.588 10.337,4.400 12.263,3.133 14.900 C 2.375 16.478,2.000 18.337,2.143 19.800 C 2.509 23.512,4.811 26.829,8.153 28.458 C 9.470 29.099,10.598 29.406,12.112 29.534 C 13.526 29.654,15.559 29.457,16.684 29.092 C 16.988 28.993,17.021 28.996,17.518 29.161 C 19.062 29.676,20.964 29.681,22.438 29.175 C 23.877 28.681,24.281 28.305,24.170 27.563 C 24.121 27.237,23.797 26.714,23.517 26.509 C 23.246 26.310,22.801 26.340,22.198 26.597 C 20.737 27.220,19.269 27.222,17.820 26.605 C 17.227 26.351,17.068 26.350,16.305 26.595 C 15.120 26.975,14.695 27.033,13.133 27.033 C 12.153 27.033,11.584 27.005,11.333 26.943 C 9.094 26.392,7.457 25.355,6.210 23.700 C 5.795 23.149,5.133 21.826,4.943 21.167 C 4.593 19.957,4.525 19.065,4.705 18.033 C 4.997 16.351,5.852 14.789,7.157 13.554 C 8.304 12.468,9.292 11.964,11.247 11.468 C 11.601 11.378,11.887 11.138,12.113 10.743 C 13.365 8.549,15.447 7.030,18.033 6.425 C 18.806 6.244,21.194 6.244,21.967 6.425 C 24.507 7.020,26.559 8.491,27.804 10.610 C 28.114 11.137,28.373 11.371,28.753 11.468 C 30.708 11.964,31.696 12.468,32.843 13.554 C 35.099 15.689,35.925 18.659,35.042 21.453 C 34.833 22.113,34.820 22.490,34.996 22.778 C 35.191 23.098,35.662 23.343,36.153 23.381 C 36.510 23.409,36.599 23.391,36.799 23.255 C 37.111 23.041,37.357 22.531,37.594 21.598 C 38.154 19.402,37.898 17.046,36.867 14.900 C 35.600 12.263,33.412 10.337,30.624 9.402 L 29.865 9.148 29.455 8.572 C 28.622 7.401,27.710 6.510,26.540 5.724 C 24.240 4.179,21.803 3.572,18.833 3.804 M32.100 18.769 C 31.953 18.819,31.752 18.956,31.654 19.073 C 31.555 19.190,30.298 21.247,28.860 23.644 C 26.541 27.511,26.243 28.039,26.215 28.334 C 26.188 28.614,26.211 28.710,26.357 28.930 C 26.452 29.075,26.674 29.277,26.849 29.380 L 27.167 29.567 28.814 29.588 L 30.461 29.610 28.764 33.007 C 27.195 36.148,27.067 36.431,27.067 36.752 C 27.067 36.980,27.111 37.166,27.193 37.291 C 27.435 37.657,27.982 37.933,28.465 37.933 C 29.106 37.933,28.994 38.110,31.483 33.151 C 33.516 29.102,33.733 28.637,33.733 28.344 C 33.733 27.977,33.632 27.625,33.474 27.443 C 33.204 27.132,33.049 27.105,31.350 27.068 L 29.734 27.033 31.745 23.680 C 33.577 20.626,33.759 20.296,33.784 19.980 C 33.809 19.678,33.787 19.599,33.618 19.367 C 33.415 19.089,32.912 18.777,32.567 18.714 C 32.457 18.694,32.247 18.719,32.100 18.769 M5.993 32.217 C 5.804 32.342,5.598 32.701,4.750 34.383 C 3.822 36.223,3.733 36.428,3.734 36.749 C 3.734 37.141,3.868 37.402,4.176 37.610 C 4.711 37.972,5.288 38.039,5.673 37.783 C 5.862 37.658,6.068 37.299,6.917 35.617 C 7.845 33.777,7.933 33.572,7.933 33.251 C 7.932 32.859,7.799 32.598,7.491 32.390 C 6.956 32.028,6.378 31.961,5.993 32.217 M12.660 32.217 C 12.471 32.342,12.265 32.701,11.417 34.383 C 10.488 36.223,10.400 36.428,10.400 36.749 C 10.401 37.141,10.535 37.402,10.843 37.610 C 11.377 37.972,11.955 38.039,12.340 37.783 C 12.529 37.658,12.735 37.299,13.583 35.617 C 14.512 33.777,14.600 33.572,14.600 33.251 C 14.599 32.859,14.465 32.598,14.157 32.390 C 13.623 32.028,13.045 31.961,12.660 32.217 M19.327 32.217 C 19.138 32.342,18.932 32.701,18.083 34.383 C 17.155 36.223,17.067 36.428,17.067 36.749 C 17.068 37.141,17.201 37.402,17.509 37.610 C 18.044 37.972,18.622 38.039,19.007 37.783 C 19.196 37.658,19.402 37.299,20.250 35.617 C 21.178 33.777,21.267 33.572,21.266 33.251 C 21.266 32.859,21.132 32.598,20.824 32.390 C 20.289 32.028,19.712 31.961,19.327 32.217 " stroke="none" fill-rule="evenodd" fill="black"></path></svg>