<svg width="40" height="40" viewBox="0 0 40 40" fill="none" xmlns="http://www.w3.org/2000/svg"><path d="M21.028 5.471 C 20.463 5.539,19.806 5.767,19.292 6.075 C 18.809 6.364,18.030 7.142,17.742 7.625 C 16.987 8.886,16.898 10.466,17.500 11.948 C 17.543 12.056,17.165 12.064,11.056 12.081 C 4.704 12.100,4.562 12.103,4.340 12.233 C 4.031 12.415,3.863 12.660,3.795 13.025 C 3.681 13.637,3.885 14.165,4.340 14.433 C 4.564 14.565,4.687 14.567,13.467 14.567 C 21.754 14.567,22.397 14.559,22.800 14.449 C 24.413 14.013,25.709 12.713,26.108 11.133 C 26.253 10.561,26.253 9.439,26.108 8.867 C 25.962 8.289,25.607 7.583,25.237 7.133 C 24.193 5.867,22.689 5.273,21.028 5.471 M22.423 8.069 C 22.907 8.250,23.417 8.760,23.598 9.243 C 24.111 10.615,23.118 12.067,21.667 12.067 C 20.522 12.067,19.600 11.144,19.600 10.000 C 19.600 9.430,19.800 8.952,20.210 8.543 C 20.798 7.955,21.638 7.775,22.423 8.069 M32.694 12.138 C 32.129 12.205,31.473 12.434,30.958 12.742 C 30.476 13.030,29.697 13.809,29.408 14.292 C 28.653 15.553,28.565 17.132,29.167 18.616 C 29.211 18.725,28.514 18.732,16.057 18.749 C 3.036 18.766,2.898 18.768,2.674 18.900 C 2.219 19.168,2.014 19.696,2.128 20.308 C 2.197 20.674,2.365 20.918,2.674 21.100 C 2.898 21.232,3.020 21.233,18.467 21.233 C 33.118 21.233,34.059 21.226,34.467 21.116 C 35.747 20.769,36.865 19.860,37.436 18.700 C 37.764 18.033,37.884 17.488,37.884 16.667 C 37.884 15.845,37.764 15.300,37.435 14.633 C 36.571 12.877,34.709 11.898,32.694 12.138 M34.090 14.735 C 34.574 14.916,35.084 15.426,35.265 15.910 C 35.559 16.696,35.379 17.536,34.790 18.124 C 33.489 19.426,31.267 18.507,31.267 16.667 C 31.267 16.097,31.467 15.619,31.876 15.209 C 32.464 14.621,33.305 14.441,34.090 14.735 M7.979 25.465 C 7.410 25.575,7.114 25.986,7.114 26.667 C 7.114 27.363,7.405 27.755,8.009 27.871 C 8.169 27.902,11.506 27.929,15.424 27.930 C 22.181 27.933,22.545 27.939,22.500 28.050 C 21.898 29.535,21.986 31.113,22.742 32.375 C 23.030 32.858,23.809 33.636,24.292 33.925 C 25.712 34.775,27.622 34.775,29.042 33.925 C 29.524 33.636,30.303 32.858,30.592 32.375 C 31.442 30.955,31.442 29.039,30.592 27.627 C 30.122 26.846,29.167 26.040,28.343 25.729 C 27.477 25.401,27.597 25.404,17.600 25.410 C 12.448 25.413,8.119 25.437,7.979 25.465 M27.423 28.069 C 27.907 28.250,28.417 28.760,28.598 29.243 C 28.892 30.029,28.712 30.869,28.124 31.457 C 26.822 32.759,24.600 31.840,24.600 30.000 C 24.600 29.430,24.800 28.952,25.210 28.543 C 25.798 27.955,26.638 27.775,27.423 28.069 " stroke="none" fill-rule="evenodd" fill="black"></path></svg>