<svg width="40" height="40" viewBox="0 0 40 40" fill="none" xmlns="http://www.w3.org/2000/svg"><path d="M19.009 1.769 C 16.356 2.374,13.912 3.528,11.933 5.109 C 11.179 5.712,9.818 7.082,9.192 7.867 C 6.995 10.622,5.684 13.756,5.231 17.329 C 5.090 18.443,5.125 21.046,5.296 22.100 C 5.845 25.485,7.110 28.388,9.175 31.000 C 9.719 31.688,11.238 33.214,11.963 33.801 C 15.833 36.933,20.942 38.388,25.867 37.759 C 29.010 37.358,32.053 36.142,34.533 34.297 C 35.283 33.739,35.521 33.410,35.578 32.853 C 35.647 32.184,35.339 31.565,34.774 31.234 C 34.517 31.083,34.332 31.045,33.455 30.961 C 28.969 30.532,25.015 28.506,22.148 25.167 C 20.924 23.740,19.748 21.737,19.096 19.967 C 18.032 17.078,17.812 13.568,18.504 10.504 C 18.953 8.512,19.768 6.642,20.987 4.800 C 21.573 3.916,21.705 3.537,21.601 3.047 C 21.564 2.871,21.491 2.646,21.439 2.547 C 21.315 2.309,20.957 1.977,20.667 1.830 C 20.359 1.673,19.558 1.644,19.009 1.769 M17.542 5.583 C 16.541 7.585,15.960 9.434,15.622 11.700 C 15.453 12.832,15.453 15.773,15.622 16.867 C 15.976 19.160,16.588 21.102,17.566 23.033 C 20.151 28.137,25.000 31.902,30.533 33.101 C 31.751 33.365,31.719 33.322,31.016 33.724 C 29.113 34.813,26.968 35.527,24.767 35.803 C 23.897 35.912,21.912 35.894,20.967 35.767 C 18.002 35.372,15.142 34.152,12.869 32.312 C 12.186 31.759,11.058 30.621,10.511 29.933 C 8.600 27.531,7.407 24.651,7.062 21.609 C 6.947 20.590,7.016 18.244,7.191 17.233 C 8.085 12.069,11.311 7.783,16.033 5.490 C 16.695 5.168,17.797 4.705,17.984 4.670 C 17.993 4.668,17.794 5.079,17.542 5.583 " fill="#151515" stroke="none" fill-rule="evenodd"></path></svg>