<svg width="40" height="40" viewBox="0 0 40 40" fill="none" xmlns="http://www.w3.org/2000/svg"><path d="M19.646 3.797 C 19.330 3.859,19.074 4.046,18.900 4.340 C 18.773 4.556,18.766 4.707,18.746 7.427 L 18.725 10.288 16.313 7.884 C 13.653 5.234,13.637 5.221,13.058 5.395 C 12.686 5.506,12.166 6.030,12.069 6.392 C 11.902 7.010,11.818 6.907,15.439 10.535 L 18.733 13.836 18.733 16.285 L 18.733 18.733 16.285 18.733 L 13.836 18.733 10.535 15.439 C 7.619 12.530,7.200 12.136,6.950 12.070 C 6.526 11.958,6.187 12.074,5.797 12.463 C 5.399 12.861,5.288 13.181,5.400 13.603 C 5.470 13.868,5.735 14.157,7.883 16.313 L 10.288 18.725 7.427 18.746 C 4.707 18.766,4.556 18.773,4.340 18.900 C 4.031 19.082,3.863 19.326,3.795 19.692 C 3.681 20.304,3.885 20.832,4.340 21.100 C 4.556 21.227,4.707 21.234,7.427 21.254 L 10.288 21.275 7.884 23.687 C 5.242 26.338,5.240 26.340,5.398 26.927 C 5.502 27.311,6.015 27.830,6.392 27.931 C 7.010 28.098,6.907 28.182,10.535 24.561 L 13.836 21.267 16.285 21.267 L 18.733 21.267 18.733 23.715 L 18.733 26.164 15.439 29.465 C 11.818 33.093,11.902 32.990,12.069 33.608 C 12.168 33.977,12.690 34.498,13.059 34.598 C 13.661 34.760,13.659 34.762,16.313 32.117 L 18.725 29.712 18.746 32.573 C 18.766 35.293,18.773 35.444,18.900 35.660 C 19.168 36.115,19.696 36.319,20.308 36.205 C 20.674 36.137,20.918 35.969,21.100 35.660 C 21.227 35.444,21.234 35.293,21.254 32.573 L 21.275 29.712 23.687 32.117 C 26.341 34.762,26.339 34.760,26.941 34.598 C 27.310 34.498,27.832 33.977,27.931 33.608 C 28.098 32.990,28.182 33.093,24.561 29.465 L 21.267 26.164 21.267 23.715 L 21.267 21.267 23.715 21.267 L 26.164 21.267 29.465 24.561 C 33.093 28.182,32.990 28.098,33.608 27.931 C 33.977 27.832,34.498 27.310,34.598 26.941 C 34.760 26.339,34.762 26.341,32.117 23.687 L 29.712 21.275 32.573 21.254 C 35.293 21.234,35.444 21.227,35.660 21.100 C 35.969 20.918,36.137 20.674,36.205 20.308 C 36.319 19.696,36.115 19.168,35.660 18.900 C 35.444 18.773,35.293 18.766,32.573 18.746 L 29.712 18.725 32.117 16.313 C 34.762 13.659,34.760 13.661,34.598 13.059 C 34.498 12.690,33.977 12.168,33.608 12.069 C 32.990 11.902,33.093 11.818,29.465 15.439 L 26.164 18.733 23.715 18.733 L 21.267 18.733 21.267 16.285 L 21.267 13.836 24.561 10.535 C 28.182 6.907,28.098 7.010,27.931 6.392 C 27.834 6.030,27.314 5.506,26.942 5.395 C 26.363 5.221,26.347 5.233,23.683 7.888 L 21.267 10.296 21.264 7.631 C 21.262 6.166,21.236 4.836,21.205 4.676 C 21.074 3.997,20.442 3.641,19.646 3.797 " stroke="none" fill-rule="evenodd" fill="black"></path></svg>