<svg width="40" height="40" viewBox="0 0 40 40" fill="none" xmlns="http://www.w3.org/2000/svg"><path d="M18.533 2.131 C 15.035 2.369,11.852 3.559,9.000 5.692 C 8.275 6.234,6.469 8.001,5.907 8.716 C 3.535 11.741,2.179 15.469,2.119 19.133 C 2.107 19.872,2.125 20.081,2.222 20.300 C 2.382 20.660,2.639 20.922,3.000 21.092 C 3.300 21.233,3.312 21.233,11.017 21.251 L 18.733 21.269 18.733 27.499 C 18.733 33.595,18.730 33.736,18.598 34.090 C 18.417 34.574,17.907 35.084,17.423 35.265 C 16.653 35.553,15.805 35.379,15.232 34.816 C 14.691 34.283,14.642 34.107,14.599 32.564 C 14.567 31.398,14.546 31.200,14.431 31.005 C 14.166 30.552,13.636 30.347,13.025 30.462 C 12.660 30.530,12.415 30.698,12.233 31.007 C 12.111 31.214,12.100 31.350,12.103 32.633 C 12.107 34.205,12.167 34.559,12.565 35.367 C 13.139 36.533,14.280 37.458,15.533 37.775 C 16.105 37.919,17.228 37.919,17.800 37.775 C 19.053 37.458,20.197 36.530,20.769 35.367 C 21.253 34.381,21.226 34.813,21.251 27.685 L 21.273 21.269 28.986 21.251 C 36.688 21.233,36.700 21.233,37.000 21.092 C 37.361 20.922,37.619 20.659,37.777 20.300 C 37.872 20.083,37.892 19.872,37.879 19.167 C 37.818 15.570,36.582 12.050,34.309 9.000 C 33.701 8.184,31.816 6.299,31.000 5.691 C 28.450 3.790,25.591 2.620,22.567 2.239 C 21.582 2.114,19.562 2.060,18.533 2.131 M22.136 4.695 C 24.761 5.023,27.221 6.003,29.308 7.551 C 30.140 8.168,31.416 9.387,32.046 10.167 C 33.918 12.483,35.015 15.187,35.367 18.350 L 35.410 18.733 20.005 18.733 C 11.532 18.733,4.600 18.710,4.600 18.681 C 4.600 18.652,4.643 18.284,4.695 17.864 C 5.023 15.243,5.997 12.793,7.548 10.692 C 8.236 9.761,9.761 8.236,10.692 7.548 C 12.755 6.025,15.213 5.036,17.767 4.702 C 18.696 4.581,21.186 4.577,22.136 4.695 " stroke="none" fill-rule="evenodd" fill="black"></path></svg>