<svg width="40" height="40" viewBox="0 0 40 40" fill="none" xmlns="http://www.w3.org/2000/svg"><path d="M18.833 7.138 C 15.577 7.393,12.493 9.167,10.545 11.905 L 10.135 12.481 9.376 12.736 C 5.330 14.091,2.502 17.659,2.136 21.867 C 1.889 24.710,3.470 28.290,5.851 30.278 C 8.205 32.243,10.871 33.091,14.002 32.871 C 15.007 32.800,16.077 32.623,16.684 32.425 C 16.988 32.327,17.021 32.329,17.518 32.495 C 18.350 32.772,19.018 32.874,20.000 32.874 C 20.982 32.874,21.650 32.772,22.482 32.495 C 22.976 32.331,23.014 32.327,23.316 32.422 C 25.032 32.961,27.540 33.058,29.396 32.657 C 33.351 31.802,36.537 28.722,37.568 24.756 C 37.933 23.353,37.975 22.041,37.698 20.700 C 36.924 16.949,34.266 13.956,30.624 12.736 L 29.865 12.481 29.450 11.898 C 28.635 10.752,27.685 9.824,26.540 9.056 C 24.236 7.511,21.802 6.905,18.833 7.138 M22.106 9.789 C 24.613 10.428,26.582 11.864,27.804 13.943 C 28.114 14.470,28.373 14.704,28.753 14.801 C 30.708 15.298,31.696 15.802,32.843 16.887 C 34.136 18.111,34.939 19.562,35.271 21.272 C 35.557 22.748,35.326 24.148,34.530 25.767 C 33.373 28.119,31.464 29.588,28.667 30.276 C 28.416 30.338,27.847 30.367,26.867 30.367 C 25.305 30.367,24.880 30.308,23.695 29.928 C 22.938 29.686,22.772 29.686,22.209 29.925 C 21.299 30.312,21.039 30.364,20.000 30.364 C 18.961 30.364,18.701 30.312,17.791 29.925 C 17.228 29.686,17.062 29.686,16.305 29.928 C 15.120 30.308,14.695 30.367,13.133 30.367 C 12.153 30.367,11.584 30.338,11.333 30.276 C 9.094 29.725,7.457 28.689,6.210 27.033 C 5.795 26.482,5.133 25.159,4.943 24.500 C 4.593 23.290,4.525 22.398,4.705 21.367 C 4.997 19.684,5.852 18.122,7.157 16.887 C 8.304 15.802,9.292 15.298,11.247 14.801 C 11.601 14.711,11.887 14.472,12.113 14.076 C 13.359 11.892,15.540 10.299,18.000 9.777 C 18.275 9.718,18.575 9.657,18.667 9.641 C 18.758 9.624,19.448 9.620,20.200 9.631 C 21.314 9.648,21.666 9.677,22.106 9.789 " stroke="none" fill-rule="evenodd" fill="black"></path></svg>