<svg width="40" height="40" viewBox="0 0 40 40" fill="none" xmlns="http://www.w3.org/2000/svg"><path d="M7.866 2.792 C 7.560 2.892,7.302 3.053,7.087 3.278 C 6.853 3.523,3.584 10.190,3.333 10.935 C 2.719 12.755,2.972 14.892,3.987 16.467 C 5.048 18.111,6.496 18.933,8.333 18.933 C 10.170 18.933,11.619 18.111,12.679 16.467 C 13.695 14.892,13.947 12.758,13.334 10.933 C 13.084 10.192,9.814 3.524,9.579 3.277 C 9.462 3.155,9.248 2.994,9.102 2.919 C 8.815 2.771,8.141 2.701,7.866 2.792 M31.200 2.792 C 30.893 2.892,30.635 3.053,30.421 3.278 C 30.186 3.524,26.916 10.191,26.666 10.933 C 26.053 12.758,26.305 14.892,27.321 16.467 C 28.381 18.111,29.830 18.933,31.667 18.933 C 33.504 18.933,34.952 18.111,36.013 16.467 C 37.028 14.892,37.280 12.758,36.667 10.933 C 36.418 10.192,33.148 3.524,32.912 3.277 C 32.796 3.155,32.581 2.994,32.435 2.919 C 32.148 2.771,31.475 2.701,31.200 2.792 M8.588 6.717 C 8.702 6.965,9.276 8.157,9.864 9.366 C 10.452 10.574,10.981 11.729,11.040 11.932 C 11.519 13.572,10.768 15.548,9.413 16.215 C 9.006 16.415,8.917 16.433,8.333 16.433 C 7.749 16.433,7.661 16.415,7.254 16.215 C 5.898 15.548,5.148 13.572,5.627 11.932 C 5.686 11.729,6.215 10.574,6.803 9.366 C 7.390 8.157,7.965 6.965,8.079 6.717 C 8.193 6.469,8.308 6.267,8.333 6.267 C 8.359 6.267,8.474 6.469,8.588 6.717 M31.921 6.717 C 32.035 6.965,32.610 8.157,33.197 9.366 C 33.785 10.574,34.314 11.729,34.373 11.932 C 34.852 13.572,34.102 15.548,32.746 16.215 C 32.339 16.415,32.251 16.433,31.667 16.433 C 31.083 16.433,30.994 16.415,30.587 16.215 C 29.232 15.548,28.481 13.572,28.960 11.932 C 29.019 11.729,29.548 10.574,30.136 9.366 C 30.724 8.157,31.298 6.965,31.412 6.717 C 31.526 6.469,31.641 6.267,31.667 6.267 C 31.692 6.267,31.807 6.469,31.921 6.717 M19.223 16.802 C 18.551 16.937,18.103 17.334,17.717 18.138 C 17.587 18.411,16.619 20.403,15.566 22.567 C 13.163 27.506,13.109 27.632,12.893 28.820 C 12.760 29.553,12.763 31.068,12.899 31.833 C 13.337 34.294,14.851 36.381,16.892 37.337 C 17.813 37.769,18.311 37.867,19.583 37.867 C 20.474 37.867,20.779 37.841,21.222 37.728 C 22.990 37.276,24.477 36.044,25.479 34.200 C 26.060 33.130,26.330 32.075,26.381 30.673 C 26.440 29.058,26.251 28.106,25.579 26.633 C 25.378 26.193,24.310 23.974,23.206 21.702 C 21.857 18.927,21.127 17.498,20.983 17.349 C 20.560 16.913,19.819 16.683,19.223 16.802 M21.504 23.910 C 22.529 26.024,23.431 27.911,23.510 28.104 C 23.820 28.864,23.899 29.319,23.897 30.333 C 23.896 31.472,23.779 31.983,23.288 33.000 C 23.030 33.535,22.893 33.721,22.408 34.203 C 21.509 35.094,20.790 35.400,19.600 35.400 C 18.874 35.400,18.369 35.288,17.816 35.005 C 17.007 34.591,16.363 33.908,15.895 32.967 C 15.465 32.101,15.331 31.580,15.287 30.598 C 15.243 29.645,15.349 28.958,15.661 28.167 C 15.906 27.545,19.540 20.067,19.597 20.067 C 19.622 20.067,20.480 21.796,21.504 23.910 " stroke="none" fill-rule="evenodd" fill="black"></path></svg>