<svg width="40" height="40" viewBox="0 0 40 40" fill="none" xmlns="http://www.w3.org/2000/svg"><path d="M19.646 2.130 C 19.330 2.193,19.074 2.379,18.900 2.674 C 18.776 2.885,18.765 3.042,18.745 5.017 C 18.723 7.130,18.723 7.133,18.578 7.160 C 18.499 7.174,18.067 7.249,17.620 7.326 C 15.776 7.643,13.849 8.484,12.278 9.655 L 11.790 10.019 10.312 8.547 C 9.499 7.738,8.749 7.043,8.646 7.004 C 8.383 6.905,7.960 6.916,7.747 7.028 C 7.536 7.139,7.117 7.567,7.004 7.787 C 6.902 7.984,6.900 8.378,6.998 8.633 C 7.040 8.743,7.738 9.499,8.547 10.312 L 10.019 11.790 9.655 12.278 C 8.484 13.849,7.643 15.776,7.326 17.620 C 7.249 18.067,7.174 18.499,7.160 18.578 C 7.133 18.723,7.130 18.723,5.017 18.745 C 3.042 18.765,2.885 18.776,2.674 18.900 C 2.219 19.168,2.014 19.696,2.128 20.308 C 2.197 20.674,2.365 20.918,2.674 21.100 C 2.885 21.224,3.042 21.235,5.017 21.255 C 7.130 21.277,7.133 21.277,7.160 21.422 C 7.174 21.501,7.249 21.933,7.326 22.380 C 7.643 24.224,8.484 26.151,9.655 27.722 L 10.019 28.210 8.547 29.688 C 7.738 30.501,7.040 31.257,6.998 31.367 C 6.900 31.622,6.902 32.016,7.004 32.213 C 7.118 32.437,7.537 32.862,7.755 32.976 C 7.982 33.096,8.362 33.107,8.633 33.002 C 8.743 32.960,9.499 32.262,10.312 31.453 L 11.790 29.981 12.278 30.345 C 13.849 31.516,15.776 32.357,17.620 32.674 C 18.067 32.751,18.499 32.826,18.578 32.840 C 18.723 32.867,18.723 32.870,18.745 34.983 C 18.765 36.958,18.776 37.115,18.900 37.326 C 19.168 37.781,19.696 37.986,20.308 37.872 C 20.674 37.803,20.918 37.635,21.100 37.326 C 21.224 37.115,21.235 36.958,21.255 34.983 C 21.277 32.870,21.277 32.867,21.422 32.840 C 21.501 32.826,21.933 32.751,22.380 32.674 C 24.224 32.357,26.151 31.516,27.722 30.345 L 28.210 29.981 29.688 31.453 C 30.501 32.262,31.257 32.960,31.367 33.002 C 31.638 33.107,32.018 33.096,32.245 32.976 C 32.460 32.864,32.881 32.438,32.992 32.221 C 33.086 32.037,33.088 31.599,32.996 31.354 C 32.957 31.251,32.262 30.501,31.453 29.688 L 29.981 28.210 30.345 27.722 C 31.516 26.151,32.357 24.224,32.674 22.380 C 32.751 21.933,32.826 21.501,32.840 21.422 C 32.867 21.277,32.870 21.277,34.983 21.255 C 36.958 21.235,37.115 21.224,37.326 21.100 C 37.635 20.918,37.803 20.674,37.872 20.308 C 37.986 19.696,37.781 19.168,37.326 18.900 C 37.115 18.776,36.958 18.765,34.983 18.745 C 32.870 18.723,32.867 18.723,32.840 18.578 C 32.826 18.499,32.751 18.067,32.674 17.620 C 32.357 15.776,31.516 13.849,30.345 12.278 L 29.981 11.790 31.453 10.312 C 32.262 9.499,32.957 8.749,32.996 8.646 C 33.088 8.401,33.086 7.963,32.992 7.779 C 32.883 7.566,32.461 7.137,32.253 7.028 C 32.040 6.916,31.617 6.905,31.354 7.004 C 31.251 7.043,30.501 7.738,29.688 8.547 L 28.210 10.019 27.722 9.655 C 26.151 8.484,24.224 7.643,22.380 7.326 C 21.933 7.249,21.499 7.173,21.417 7.158 L 21.267 7.131 21.264 5.215 C 21.261 3.186,21.227 2.825,21.017 2.543 C 20.754 2.189,20.198 2.022,19.646 2.130 M22.092 9.797 C 23.677 10.141,25.136 10.815,26.367 11.771 C 26.975 12.243,27.899 13.177,28.342 13.767 C 29.215 14.929,29.876 16.405,30.212 17.943 C 30.341 18.535,30.363 18.828,30.363 20.000 C 30.363 21.172,30.341 21.465,30.212 22.057 C 30.022 22.927,29.797 23.597,29.427 24.388 C 28.880 25.561,28.387 26.275,27.471 27.224 C 25.984 28.763,24.210 29.742,22.057 30.212 C 21.465 30.341,21.172 30.363,20.000 30.363 C 18.828 30.363,18.535 30.341,17.943 30.212 C 15.790 29.742,14.016 28.763,12.529 27.224 C 11.614 26.276,11.123 25.565,10.571 24.388 C 10.199 23.594,9.980 22.944,9.790 22.067 C 9.659 21.465,9.637 21.175,9.637 20.000 C 9.637 18.828,9.659 18.535,9.788 17.943 C 10.046 16.763,10.512 15.576,11.109 14.579 C 11.876 13.300,13.302 11.872,14.567 11.120 C 15.775 10.400,16.878 9.988,18.300 9.726 C 19.229 9.555,21.140 9.590,22.092 9.797 " stroke="none" fill-rule="evenodd" fill="black"></path></svg>