<svg width="40" height="40" viewBox="0 0 40 40" fill="none" xmlns="http://www.w3.org/2000/svg"><path d="M18.828 3.808 C 18.678 3.842,18.466 3.958,18.356 4.065 C 18.247 4.171,15.853 8.101,13.036 12.796 C 7.343 22.284,7.652 21.702,8.023 22.263 C 8.119 22.408,8.340 22.610,8.515 22.713 L 8.833 22.900 12.017 22.920 C 13.767 22.931,15.200 22.950,15.200 22.963 C 15.200 22.976,13.566 25.601,11.569 28.797 C 9.387 32.288,7.921 34.700,7.894 34.839 C 7.795 35.369,8.049 35.813,8.611 36.093 C 9.039 36.306,9.351 36.312,9.700 36.112 C 9.904 35.996,30.223 20.077,32.967 17.884 C 33.260 17.650,33.567 17.347,33.650 17.212 C 33.909 16.786,33.822 16.289,33.409 15.844 C 33.005 15.409,33.366 15.435,27.537 15.415 L 22.240 15.396 27.079 10.548 C 29.741 7.882,31.967 5.604,32.026 5.487 C 32.150 5.239,32.167 4.789,32.059 4.579 C 31.947 4.362,31.594 4.004,31.367 3.878 C 31.185 3.777,30.625 3.766,25.133 3.756 C 21.600 3.750,18.987 3.772,18.828 3.808 M22.952 11.083 C 19.598 14.440,18.108 15.975,18.036 16.148 C 17.856 16.582,17.930 17.254,18.193 17.557 C 18.499 17.911,18.305 17.897,23.762 17.933 L 28.824 17.967 21.529 23.694 C 13.062 30.341,14.008 29.611,14.141 29.400 C 15.251 27.647,18.592 22.251,18.652 22.114 C 18.812 21.746,18.721 21.061,18.474 20.777 C 18.177 20.434,18.198 20.436,14.683 20.400 L 11.400 20.367 15.538 13.467 C 17.814 9.672,19.720 6.499,19.773 6.417 L 19.870 6.267 23.817 6.267 L 27.765 6.267 22.952 11.083 " stroke="none" fill-rule="evenodd" fill="black"></path></svg>