<svg width="40" height="40" viewBox="0 0 40 40" fill="none" xmlns="http://www.w3.org/2000/svg"><path d="M18.833 3.804 C 15.577 4.059,12.493 5.833,10.545 8.572 L 10.135 9.148 9.376 9.402 C 6.588 10.337,4.400 12.263,3.133 14.900 C 2.375 16.478,2.000 18.337,2.143 19.800 C 2.509 23.512,4.811 26.829,8.153 28.458 C 9.475 29.102,10.596 29.405,12.133 29.536 C 14.013 29.696,14.572 29.417,14.557 28.325 C 14.553 28.000,14.512 27.814,14.403 27.619 C 14.153 27.175,14.002 27.125,12.710 27.060 C 11.221 26.984,10.516 26.814,9.300 26.236 C 7.607 25.432,6.298 24.133,5.468 22.433 C 5.052 21.581,4.871 21.038,4.704 20.143 C 4.140 17.121,6.145 13.573,9.236 12.125 C 9.710 11.902,10.319 11.704,11.247 11.468 C 11.601 11.378,11.887 11.138,12.113 10.743 C 13.365 8.549,15.447 7.030,18.033 6.425 C 18.806 6.244,21.194 6.244,21.967 6.425 C 24.507 7.020,26.559 8.491,27.804 10.610 C 28.114 11.137,28.373 11.371,28.753 11.468 C 30.708 11.964,31.696 12.468,32.843 13.554 C 34.136 14.778,34.939 16.229,35.271 17.939 C 35.557 19.414,35.326 20.815,34.530 22.433 C 33.391 24.749,31.497 26.228,28.800 26.909 C 28.598 26.960,27.919 27.028,27.290 27.060 C 25.998 27.125,25.847 27.175,25.597 27.619 C 25.488 27.814,25.447 28.000,25.443 28.325 C 25.428 29.417,25.987 29.696,27.867 29.536 C 29.404 29.405,30.525 29.102,31.847 28.458 C 33.878 27.468,35.503 25.891,36.652 23.796 C 37.494 22.262,37.998 20.080,37.865 18.549 C 37.497 14.323,34.677 10.761,30.624 9.402 L 29.865 9.148 29.455 8.572 C 28.622 7.401,27.710 6.510,26.540 5.724 C 24.240 4.179,21.803 3.572,18.833 3.804 M22.100 18.769 C 21.953 18.819,21.752 18.956,21.654 19.073 C 21.555 19.190,20.298 21.247,18.860 23.644 C 16.541 27.511,16.243 28.039,16.215 28.334 C 16.188 28.614,16.211 28.710,16.357 28.930 C 16.452 29.075,16.674 29.277,16.849 29.380 L 17.167 29.567 18.814 29.588 L 20.462 29.610 19.238 32.058 C 18.565 33.404,17.977 34.628,17.932 34.779 C 17.764 35.338,18.020 35.825,18.631 36.109 C 19.226 36.386,19.756 36.292,20.090 35.850 C 20.180 35.731,21.037 34.065,21.994 32.148 C 23.546 29.038,23.733 28.628,23.733 28.341 C 23.733 27.977,23.632 27.625,23.474 27.443 C 23.204 27.132,23.049 27.105,21.350 27.068 L 19.734 27.033 21.745 23.680 C 23.577 20.626,23.759 20.296,23.784 19.980 C 23.809 19.678,23.787 19.599,23.618 19.367 C 23.415 19.089,22.912 18.777,22.567 18.714 C 22.457 18.694,22.247 18.719,22.100 18.769 " stroke="none" fill-rule="evenodd" fill="black"></path></svg>