<svg width="40" height="40" viewBox="0 0 40 40" fill="none" xmlns="http://www.w3.org/2000/svg"><path d="M10.600 1.370 C 9.088 1.693,7.672 3.074,7.222 4.667 C 7.106 5.080,7.100 5.670,7.100 17.500 C 7.100 29.330,7.106 29.920,7.222 30.333 C 7.567 31.554,8.507 32.707,9.600 33.254 C 10.410 33.658,10.846 33.731,12.475 33.732 L 13.851 33.733 14.033 34.317 C 14.353 35.344,14.842 36.156,15.578 36.883 C 16.380 37.676,17.224 38.178,18.315 38.512 C 18.849 38.675,18.996 38.691,20.000 38.691 C 21.004 38.691,21.151 38.675,21.685 38.512 C 23.826 37.857,25.372 36.316,25.995 34.217 L 26.139 33.733 27.519 33.732 C 28.466 33.731,29.047 33.701,29.367 33.634 C 30.906 33.313,32.323 31.943,32.778 30.333 C 32.894 29.920,32.900 29.330,32.900 17.500 C 32.900 5.670,32.894 5.080,32.778 4.667 C 32.433 3.446,31.493 2.293,30.400 1.746 C 29.393 1.243,29.952 1.268,19.967 1.273 C 12.610 1.277,10.957 1.294,10.600 1.370 M29.141 3.909 C 29.564 4.105,29.976 4.492,30.189 4.896 L 30.367 5.233 30.367 17.500 L 30.367 29.767 30.189 30.104 C 29.976 30.508,29.564 30.895,29.141 31.091 L 28.833 31.233 20.000 31.233 L 11.167 31.233 10.859 31.091 C 10.436 30.895,10.024 30.508,9.811 30.104 L 9.633 29.767 9.633 17.500 L 9.633 5.233 9.811 4.896 C 10.096 4.357,10.621 3.939,11.181 3.805 C 11.325 3.771,15.168 3.750,20.133 3.756 L 28.833 3.767 29.141 3.909 M23.498 33.883 C 23.351 34.382,22.621 35.257,22.007 35.670 C 21.338 36.119,20.321 36.340,19.508 36.214 C 18.583 36.070,18.010 35.779,17.336 35.108 C 16.974 34.748,16.591 34.185,16.502 33.883 L 16.458 33.733 20.000 33.733 L 23.542 33.733 23.498 33.883 " stroke="none" fill-rule="evenodd" fill="black"></path></svg>