<svg width="40" height="40" viewBox="0 0 40 40" fill="none" xmlns="http://www.w3.org/2000/svg"><path d="M16.028 3.803 C 15.050 3.923,14.196 4.353,13.441 5.108 C 12.656 5.893,12.258 6.708,12.134 7.785 C 12.098 8.105,12.067 9.177,12.067 10.167 C 12.066 11.809,11.994 12.966,11.238 23.373 C 10.724 30.446,10.429 34.866,10.461 35.007 C 10.579 35.530,10.962 35.973,11.444 36.143 C 11.823 36.277,28.110 36.277,28.489 36.143 C 28.970 35.973,29.354 35.530,29.472 35.010 C 29.503 34.874,29.220 30.493,28.755 23.876 C 28.059 13.994,27.982 12.713,27.934 10.267 C 27.877 7.296,27.860 7.164,27.435 6.300 C 27.010 5.434,26.234 4.658,25.367 4.232 C 24.427 3.769,24.512 3.777,20.300 3.761 C 18.210 3.753,16.287 3.772,16.028 3.803 M24.090 6.402 C 24.574 6.583,25.084 7.093,25.265 7.577 C 25.383 7.892,25.400 8.096,25.400 9.169 L 25.400 10.400 20.000 10.400 L 14.600 10.400 14.600 9.169 C 14.600 7.683,14.672 7.414,15.210 6.876 C 15.832 6.254,15.672 6.274,19.981 6.270 C 23.588 6.267,23.742 6.272,24.090 6.402 M25.533 13.120 C 25.533 13.223,25.848 17.821,26.233 23.337 C 26.618 28.853,26.933 33.449,26.933 33.550 L 26.933 33.733 19.967 33.733 L 13.000 33.733 13.000 33.583 C 13.000 33.501,13.330 28.890,13.734 23.336 C 14.137 17.783,14.467 13.170,14.467 13.086 L 14.467 12.933 20.000 12.933 L 25.533 12.933 25.533 13.120 " stroke="none" fill-rule="evenodd" fill="black"></path></svg>