<svg width="40" height="40" viewBox="0 0 40 40" fill="none" xmlns="http://www.w3.org/2000/svg"><path d="M4.981 7.139 C 4.442 7.267,4.029 7.624,3.857 8.111 C 3.730 8.471,3.728 15.881,3.855 16.767 C 4.103 18.498,4.553 19.986,5.266 21.433 C 7.416 25.796,11.399 28.680,16.333 29.445 C 17.464 29.621,22.536 29.621,23.667 29.445 C 28.568 28.685,32.577 25.798,34.702 21.500 C 35.420 20.047,35.856 18.656,36.111 17.000 C 36.214 16.332,36.230 15.727,36.231 12.300 C 36.233 9.156,36.215 8.315,36.143 8.111 C 36.018 7.757,35.690 7.404,35.333 7.239 L 35.033 7.100 20.133 7.090 C 11.542 7.084,5.127 7.105,4.981 7.139 M33.733 12.801 C 33.733 15.662,33.719 16.089,33.602 16.819 C 33.186 19.414,32.028 21.692,30.193 23.527 C 28.349 25.371,26.094 26.517,23.486 26.936 C 22.772 27.050,22.332 27.067,20.000 27.067 C 17.668 27.067,17.228 27.050,16.514 26.936 C 12.112 26.229,8.501 23.271,6.999 19.142 C 6.679 18.260,6.553 17.775,6.394 16.800 C 6.284 16.126,6.269 15.642,6.268 12.817 L 6.267 9.600 20.000 9.600 L 33.733 9.600 33.733 12.801 M9.646 30.464 C 9.076 30.576,8.780 30.986,8.780 31.667 C 8.780 32.437,9.126 32.822,9.886 32.899 C 10.114 32.922,14.830 32.931,20.367 32.920 C 30.295 32.900,30.436 32.898,30.660 32.767 C 30.969 32.585,31.137 32.340,31.205 31.975 C 31.319 31.363,31.115 30.835,30.660 30.567 C 30.436 30.435,30.305 30.433,20.167 30.424 C 14.520 30.418,9.786 30.437,9.646 30.464 " stroke="none" fill-rule="evenodd" fill="black"></path></svg>