<svg width="40" height="40" viewBox="0 0 40 40" fill="none" xmlns="http://www.w3.org/2000/svg"><path d="M24.733 2.130 C 24.407 2.194,24.231 2.301,24.045 2.551 C 23.885 2.765,22.212 5.787,21.119 7.833 C 18.664 12.429,16.382 17.495,14.587 22.333 C 13.430 25.451,12.067 29.685,12.067 30.159 C 12.067 30.530,12.277 30.847,12.669 31.067 L 12.967 31.233 18.346 31.252 L 23.726 31.270 23.746 34.185 C 23.766 36.960,23.773 37.111,23.900 37.326 C 24.168 37.781,24.696 37.986,25.308 37.872 C 25.674 37.803,25.918 37.635,26.100 37.326 C 26.232 37.102,26.233 36.962,26.253 20.367 C 26.264 11.163,26.255 3.447,26.232 3.219 C 26.184 2.751,26.009 2.436,25.700 2.262 C 25.456 2.124,25.046 2.068,24.733 2.130 M23.733 18.500 L 23.733 28.733 19.400 28.733 C 16.229 28.733,15.067 28.713,15.067 28.658 C 15.067 28.525,16.263 25.013,16.847 23.433 C 18.441 19.121,20.349 14.754,22.266 11.033 C 23.371 8.888,23.696 8.268,23.717 8.267 C 23.726 8.267,23.733 12.872,23.733 18.500 " stroke="none" fill-rule="evenodd" fill="black"></path></svg>