<svg width="40" height="40" viewBox="0 0 40 40" fill="none" xmlns="http://www.w3.org/2000/svg"><path d="M19.162 2.137 C 17.894 2.260,16.852 2.638,15.703 3.390 C 14.253 4.341,13.179 5.760,12.642 7.433 C 12.535 7.767,10.886 14.547,10.729 15.300 C 10.618 15.831,10.617 17.375,10.727 18.000 C 11.236 20.889,13.319 23.284,16.112 24.192 C 16.675 24.375,17.313 24.487,18.281 24.571 L 18.729 24.610 18.748 30.855 C 18.766 36.963,18.770 37.105,18.900 37.326 C 19.168 37.781,19.696 37.986,20.308 37.872 C 20.674 37.803,20.918 37.635,21.100 37.326 C 21.230 37.105,21.234 36.963,21.252 30.858 L 21.271 24.617 21.519 24.576 C 21.655 24.553,21.902 24.534,22.067 24.534 C 22.806 24.532,24.047 24.184,24.966 23.721 C 28.199 22.092,29.879 18.561,29.132 14.967 C 28.936 14.028,27.358 7.605,27.232 7.233 C 26.427 4.871,24.355 2.951,21.945 2.336 C 21.478 2.217,20.156 2.054,19.833 2.076 C 19.760 2.081,19.458 2.108,19.162 2.137 M21.079 4.697 C 22.708 5.042,24.152 6.251,24.774 7.792 C 24.977 8.294,26.705 15.400,26.789 16.078 C 27.071 18.350,25.730 20.676,23.595 21.618 C 22.706 22.009,22.497 22.033,19.967 22.033 C 17.871 22.033,17.586 22.020,17.167 21.905 C 14.750 21.242,13.134 19.153,13.128 16.687 C 13.127 16.327,13.172 15.823,13.226 15.567 C 13.555 14.029,15.026 8.136,15.173 7.769 C 15.772 6.274,17.232 5.046,18.824 4.700 C 19.369 4.581,20.526 4.580,21.079 4.697 " stroke="none" fill-rule="evenodd" fill="black"></path></svg>