<svg width="40" height="40" viewBox="0 0 40 40" fill="none" xmlns="http://www.w3.org/2000/svg"><path d="M24.494 2.134 C 23.510 2.259,22.661 2.688,21.908 3.441 C 21.122 4.227,20.724 5.042,20.601 6.118 C 20.560 6.481,20.534 10.531,20.534 16.883 L 20.533 27.067 15.250 27.070 C 12.344 27.071,9.836 27.098,9.676 27.129 C 9.326 27.196,9.079 27.370,8.900 27.674 C 8.783 27.873,8.764 28.047,8.743 29.153 C 8.690 31.891,8.999 33.266,10.011 34.798 C 10.633 35.739,11.869 36.774,12.964 37.270 C 14.804 38.104,17.100 38.089,18.926 37.229 C 21.241 36.140,22.773 33.939,23.000 31.374 C 23.040 30.922,23.066 25.887,23.066 18.453 C 23.067 6.377,23.068 6.269,23.202 5.910 C 23.383 5.426,23.893 4.916,24.377 4.735 C 24.689 4.618,24.896 4.600,25.900 4.600 C 27.290 4.600,27.587 4.679,28.101 5.184 C 28.642 5.717,28.691 5.893,28.734 7.436 C 28.766 8.602,28.788 8.800,28.902 8.995 C 29.167 9.448,29.697 9.653,30.308 9.538 C 30.674 9.470,30.918 9.302,31.100 8.993 C 31.222 8.786,31.233 8.650,31.230 7.367 C 31.226 5.795,31.167 5.442,30.769 4.633 C 30.204 3.484,29.069 2.555,27.833 2.230 C 27.355 2.104,25.217 2.043,24.494 2.134 M20.533 30.463 C 20.533 31.736,20.323 32.541,19.790 33.311 C 18.781 34.767,17.358 35.476,15.624 35.384 C 14.056 35.300,12.682 34.457,11.874 33.082 C 11.432 32.328,11.317 31.856,11.282 30.650 L 11.253 29.600 15.893 29.600 L 20.533 29.600 20.533 30.463 " stroke="none" fill-rule="evenodd" fill="black"></path></svg>