<svg width="40" height="40" viewBox="0 0 40 40" fill="none" xmlns="http://www.w3.org/2000/svg"><path d="M6.028 5.472 C 5.054 5.587,4.197 6.019,3.441 6.775 C 2.637 7.578,2.251 8.388,2.129 9.522 C 2.084 9.944,2.067 13.146,2.082 18.800 C 2.102 26.768,2.112 27.464,2.219 27.833 C 2.590 29.112,3.491 30.207,4.633 30.769 C 5.398 31.144,5.747 31.207,7.310 31.248 L 8.719 31.285 8.743 32.526 C 8.769 33.879,8.815 34.056,9.209 34.350 C 9.585 34.630,10.415 34.630,10.791 34.350 C 11.186 34.056,11.231 33.880,11.257 32.517 L 11.281 31.267 20.000 31.267 L 28.719 31.267 28.743 32.517 C 28.764 33.620,28.783 33.793,28.900 33.993 C 29.082 34.302,29.326 34.470,29.692 34.538 C 30.304 34.653,30.832 34.448,31.100 33.993 C 31.217 33.793,31.236 33.620,31.257 32.526 L 31.281 31.285 32.690 31.248 C 34.253 31.207,34.602 31.144,35.367 30.769 C 36.526 30.199,37.436 29.081,37.783 27.800 C 37.892 27.396,37.900 26.748,37.900 18.333 C 37.900 9.919,37.892 9.270,37.783 8.867 C 37.351 7.274,36.113 6.023,34.500 5.552 C 34.125 5.442,33.242 5.434,20.300 5.425 C 12.710 5.420,6.287 5.441,6.028 5.472 M23.733 18.333 L 23.733 28.733 15.003 28.733 C 6.393 28.733,6.267 28.731,5.910 28.598 C 5.426 28.417,4.916 27.907,4.735 27.423 C 4.602 27.067,4.600 26.941,4.600 18.333 C 4.600 9.726,4.602 9.600,4.735 9.243 C 4.911 8.773,5.427 8.251,5.891 8.072 C 6.225 7.943,6.436 7.940,14.983 7.937 L 23.733 7.933 23.733 18.333 M34.090 8.069 C 34.574 8.250,35.084 8.760,35.265 9.243 C 35.398 9.600,35.400 9.726,35.400 18.333 C 35.400 26.941,35.398 27.067,35.265 27.423 C 35.084 27.907,34.574 28.417,34.090 28.598 C 33.742 28.728,33.583 28.733,29.997 28.733 L 26.267 28.733 26.267 18.333 L 26.267 7.933 29.997 7.933 C 33.583 7.933,33.742 7.939,34.090 8.069 M30.205 8.806 C 29.931 8.841,29.575 8.958,29.214 9.131 C 27.347 10.027,26.569 12.249,27.467 14.124 C 28.576 16.439,31.652 16.959,33.473 15.139 C 35.291 13.321,34.779 10.270,32.467 9.146 C 32.056 8.946,31.757 8.852,31.379 8.802 C 30.805 8.727,30.817 8.726,30.205 8.806 M31.353 11.375 C 31.816 11.609,32.067 12.005,32.067 12.500 C 32.067 13.249,31.488 13.775,30.724 13.720 C 30.281 13.688,29.941 13.466,29.720 13.065 C 29.521 12.704,29.577 12.082,29.838 11.759 C 29.947 11.624,30.140 11.458,30.267 11.390 C 30.553 11.237,31.067 11.229,31.353 11.375 M30.205 17.137 C 29.937 17.173,29.567 17.295,29.214 17.464 C 26.895 18.577,26.367 21.651,28.184 23.463 C 29.659 24.935,32.006 24.939,33.473 23.473 C 34.939 22.006,34.938 19.662,33.471 18.192 C 33.022 17.741,32.365 17.349,31.831 17.212 C 31.423 17.107,30.678 17.072,30.205 17.137 M31.559 19.823 C 32.516 20.553,32.027 22.067,30.834 22.067 C 30.446 22.067,30.063 21.873,29.821 21.556 C 29.655 21.339,29.633 21.254,29.633 20.828 C 29.633 20.391,29.652 20.323,29.835 20.097 C 30.146 19.713,30.425 19.588,30.909 19.615 C 31.230 19.634,31.369 19.678,31.559 19.823 " stroke="none" fill-rule="evenodd" fill="black"></path></svg>