<svg width="40" height="40" viewBox="0 0 40 40" fill="none" xmlns="http://www.w3.org/2000/svg"><path d="M12.694 2.138 C 11.719 2.254,10.863 2.686,10.108 3.441 C 9.322 4.227,8.924 5.042,8.801 6.118 C 8.710 6.911,8.710 31.422,8.801 32.215 C 8.924 33.292,9.322 34.107,10.108 34.892 C 10.943 35.727,11.737 36.094,12.974 36.215 L 13.718 36.288 13.763 36.739 C 13.842 37.541,14.215 37.886,15.000 37.886 C 15.789 37.886,16.158 37.541,16.238 36.729 L 16.284 36.267 20.000 36.267 L 23.716 36.267 23.762 36.729 C 23.842 37.541,24.211 37.886,25.000 37.886 C 25.785 37.886,26.158 37.541,26.237 36.739 L 26.282 36.288 27.026 36.215 C 28.263 36.094,29.057 35.727,29.892 34.892 C 30.696 34.088,31.083 33.278,31.204 32.145 C 31.249 31.718,31.266 27.176,31.252 18.700 C 31.233 6.735,31.224 5.874,31.115 5.500 C 30.740 4.217,29.844 3.127,28.700 2.565 C 27.705 2.076,28.237 2.106,20.300 2.093 C 16.377 2.086,12.954 2.107,12.694 2.138 M27.423 4.735 C 27.907 4.916,28.417 5.426,28.598 5.910 C 28.729 6.261,28.733 6.413,28.733 10.878 L 28.733 15.483 28.525 15.442 C 28.410 15.419,24.480 15.400,19.792 15.400 L 11.267 15.400 11.267 10.836 C 11.267 5.585,11.238 5.847,11.876 5.209 C 12.526 4.560,11.887 4.607,19.981 4.603 C 26.937 4.600,27.068 4.602,27.423 4.735 M16.169 7.141 C 15.614 7.222,15.102 7.497,14.633 7.966 C 13.942 8.656,13.670 9.475,13.806 10.450 C 13.891 11.055,14.150 11.552,14.633 12.034 C 15.115 12.516,15.612 12.776,16.217 12.860 C 17.191 12.997,18.011 12.724,18.701 12.034 C 19.183 11.552,19.442 11.055,19.527 10.450 C 19.695 9.247,19.170 8.128,18.146 7.509 C 17.565 7.157,16.903 7.034,16.169 7.141 M16.945 9.710 C 17.097 9.848,17.102 10.117,16.956 10.278 C 16.727 10.531,16.267 10.353,16.267 10.012 C 16.267 9.655,16.680 9.471,16.945 9.710 M28.733 24.964 C 28.733 31.933,28.731 32.068,28.598 32.423 C 28.417 32.907,27.907 33.417,27.423 33.598 C 27.068 33.731,26.933 33.733,20.000 33.733 C 13.067 33.733,12.932 33.731,12.577 33.598 C 12.093 33.417,11.583 32.907,11.402 32.423 C 11.269 32.068,11.267 31.933,11.267 24.998 L 11.267 17.934 19.883 17.917 C 24.622 17.907,28.553 17.892,28.617 17.883 C 28.727 17.868,28.733 18.243,28.733 24.964 M16.169 20.474 C 15.614 20.555,15.102 20.830,14.633 21.299 C 14.150 21.782,13.891 22.278,13.806 22.883 C 13.670 23.858,13.942 24.677,14.633 25.367 C 15.115 25.850,15.612 26.109,16.217 26.194 C 16.805 26.276,17.462 26.182,17.933 25.949 C 18.403 25.717,19.050 25.070,19.283 24.600 C 19.645 23.867,19.645 22.792,19.282 22.072 C 18.692 20.900,17.488 20.282,16.169 20.474 M16.945 23.044 C 17.198 23.273,17.020 23.733,16.678 23.733 C 16.322 23.733,16.138 23.320,16.377 23.055 C 16.514 22.903,16.784 22.898,16.945 23.044 " stroke="none" fill-rule="evenodd" fill="black"></path></svg>