<svg width="40" height="40" viewBox="0 0 40 40" fill="none" xmlns="http://www.w3.org/2000/svg"><path d="M19.646 2.130 C 19.330 2.193,19.074 2.379,18.900 2.674 C 18.776 2.885,18.765 3.042,18.745 4.973 L 18.723 7.045 17.977 7.118 C 16.737 7.240,15.943 7.606,15.108 8.441 C 14.322 9.227,13.924 10.042,13.801 11.118 C 13.711 11.903,13.711 28.097,13.801 28.882 C 13.924 29.958,14.322 30.773,15.108 31.559 C 15.943 32.394,16.737 32.760,17.977 32.882 L 18.723 32.955 18.745 35.027 C 18.765 36.958,18.776 37.115,18.900 37.326 C 19.168 37.781,19.696 37.986,20.308 37.872 C 20.674 37.803,20.918 37.635,21.100 37.326 C 21.224 37.115,21.235 36.958,21.255 35.027 L 21.277 32.955 22.023 32.882 C 23.263 32.760,24.057 32.394,24.892 31.559 C 25.678 30.773,26.076 29.958,26.199 28.882 C 26.289 28.097,26.289 11.903,26.199 11.118 C 26.076 10.042,25.678 9.227,24.892 8.441 C 24.055 7.604,23.264 7.240,22.019 7.118 L 21.267 7.044 21.264 5.172 C 21.261 3.186,21.227 2.824,21.017 2.543 C 20.754 2.189,20.198 2.022,19.646 2.130 M22.423 9.735 C 22.907 9.916,23.417 10.426,23.598 10.910 C 23.731 11.267,23.733 11.393,23.733 20.000 C 23.733 28.607,23.731 28.733,23.598 29.090 C 23.417 29.574,22.907 30.084,22.423 30.265 C 22.089 30.390,21.908 30.400,20.000 30.400 C 18.092 30.400,17.911 30.390,17.577 30.265 C 17.093 30.084,16.583 29.574,16.402 29.090 C 16.269 28.733,16.267 28.607,16.267 20.000 C 16.267 11.393,16.269 11.267,16.402 10.910 C 16.578 10.439,17.093 9.917,17.558 9.739 C 17.871 9.618,18.074 9.607,19.981 9.603 C 21.913 9.600,22.087 9.610,22.423 9.735 " stroke="none" fill-rule="evenodd" fill="black"></path></svg>