<svg width="40" height="40" viewBox="0 0 40 40" fill="none" xmlns="http://www.w3.org/2000/svg"><path d="M12.979 2.130 C 12.663 2.193,12.407 2.379,12.233 2.674 C 12.103 2.895,12.100 3.020,12.100 8.467 C 12.100 13.572,12.110 14.069,12.217 14.467 C 12.564 15.748,13.473 16.864,14.633 17.435 C 15.398 17.811,15.747 17.874,17.315 17.915 L 18.731 17.952 18.749 27.526 C 18.766 36.963,18.769 37.103,18.900 37.326 C 19.082 37.635,19.326 37.803,19.692 37.872 C 20.304 37.986,20.832 37.781,21.100 37.326 C 21.231 37.103,21.234 36.963,21.251 27.526 L 21.269 17.952 22.685 17.915 C 24.253 17.874,24.602 17.811,25.367 17.435 C 26.527 16.864,27.436 15.748,27.783 14.467 C 27.890 14.069,27.900 13.572,27.900 8.467 C 27.900 3.020,27.897 2.895,27.767 2.674 C 27.499 2.219,26.970 2.014,26.359 2.128 C 25.993 2.197,25.749 2.365,25.567 2.674 C 25.440 2.889,25.432 3.040,25.413 5.817 L 25.392 8.733 23.333 8.733 L 21.274 8.733 21.254 5.817 C 21.234 3.040,21.227 2.889,21.100 2.674 C 20.918 2.365,20.674 2.197,20.308 2.128 C 19.696 2.014,19.168 2.219,18.900 2.674 C 18.773 2.889,18.766 3.040,18.746 5.817 L 18.726 8.733 16.663 8.733 L 14.600 8.733 14.597 6.017 C 14.595 4.522,14.569 3.169,14.538 3.009 C 14.407 2.330,13.775 1.974,12.979 2.130 M25.400 12.497 C 25.400 13.983,25.328 14.253,24.790 14.790 C 24.163 15.418,24.302 15.400,20.000 15.400 C 15.698 15.400,15.837 15.418,15.210 14.790 C 14.672 14.253,14.600 13.983,14.600 12.497 L 14.600 11.267 20.000 11.267 L 25.400 11.267 25.400 12.497 " stroke="none" fill-rule="evenodd" fill="black"></path></svg>