<svg width="40" height="40" viewBox="0 0 40 40" fill="none" xmlns="http://www.w3.org/2000/svg"><path d="M18.567 1.306 C 16.535 1.507,15.072 1.829,13.470 2.430 C 10.882 3.401,8.746 4.780,6.763 6.763 C 3.760 9.767,1.991 13.357,1.391 17.667 C 1.274 18.511,1.274 21.489,1.391 22.333 C 1.863 25.721,3.052 28.636,5.058 31.318 C 5.901 32.444,7.556 34.099,8.682 34.942 C 11.364 36.947,14.273 38.135,17.667 38.609 C 18.641 38.745,21.567 38.726,22.533 38.577 C 24.780 38.231,26.424 37.724,28.300 36.799 C 30.197 35.863,31.672 34.798,33.235 33.235 C 36.207 30.262,37.912 26.847,38.578 22.533 C 38.746 21.444,38.746 18.554,38.578 17.467 C 38.229 15.215,37.723 13.575,36.799 11.700 C 35.860 9.798,34.811 8.344,33.234 6.763 C 30.294 3.816,26.760 2.048,22.567 1.427 C 21.932 1.332,19.148 1.248,18.567 1.306 M22.267 3.902 C 27.645 4.704,32.214 8.021,34.570 12.833 C 35.337 14.400,35.841 16.023,36.111 17.800 C 36.272 18.860,36.272 21.140,36.111 22.200 C 35.579 25.700,34.100 28.753,31.746 31.209 C 29.188 33.879,25.951 35.541,22.200 36.111 C 21.140 36.272,18.860 36.272,17.800 36.111 C 14.297 35.579,11.250 34.103,8.793 31.748 C 6.119 29.186,4.460 25.955,3.889 22.200 C 3.728 21.135,3.728 18.858,3.891 17.800 C 4.168 15.995,4.666 14.386,5.428 12.833 C 7.922 7.755,12.863 4.355,18.555 3.801 C 19.390 3.720,21.415 3.775,22.267 3.902 M19.241 12.138 C 15.498 12.469,12.466 15.521,12.141 19.283 C 11.940 21.601,12.706 23.796,14.293 25.452 C 15.985 27.217,18.263 28.072,20.709 27.860 C 23.719 27.598,26.305 25.639,27.400 22.789 C 28.049 21.098,28.049 18.902,27.400 17.211 C 26.470 14.792,24.432 12.975,21.927 12.332 C 21.521 12.228,20.006 12.040,19.867 12.077 C 19.848 12.081,19.567 12.109,19.241 12.138 M21.091 14.696 C 22.164 14.901,22.922 15.323,23.800 16.200 C 24.928 17.328,25.400 18.449,25.400 20.000 C 25.400 21.551,24.928 22.672,23.800 23.800 C 22.672 24.928,21.551 25.400,20.000 25.400 C 18.449 25.400,17.328 24.928,16.200 23.800 C 15.067 22.667,14.600 21.557,14.600 20.000 C 14.600 18.443,15.067 17.333,16.200 16.200 C 17.058 15.342,17.833 14.905,18.857 14.701 C 19.457 14.581,20.480 14.579,21.091 14.696 " stroke="none" fill-rule="evenodd" fill="black"></path></svg>