<svg width="40" height="40" viewBox="0 0 40 40" fill="none" xmlns="http://www.w3.org/2000/svg"><path d="M19.361 2.138 C 18.386 2.254,17.530 2.686,16.775 3.441 C 15.938 4.278,15.573 5.070,15.451 6.315 L 15.377 7.067 13.539 7.068 C 10.788 7.070,10.134 7.164,8.967 7.731 C 7.567 8.410,6.666 9.328,5.999 10.754 C 5.858 11.054,5.702 11.465,5.651 11.667 L 5.559 12.033 4.229 12.067 C 2.781 12.104,2.612 12.146,2.317 12.542 C 2.036 12.918,2.036 13.749,2.317 14.125 C 2.611 14.519,2.787 14.564,4.148 14.590 L 5.395 14.614 5.416 23.524 C 5.439 33.445,5.403 32.694,5.898 33.700 C 6.469 34.861,7.585 35.769,8.867 36.116 C 9.272 36.226,9.994 36.233,20.000 36.233 C 30.006 36.233,30.728 36.226,31.133 36.116 C 32.415 35.769,33.531 34.861,34.102 33.700 C 34.597 32.694,34.561 33.445,34.584 23.524 L 34.605 14.614 35.852 14.590 C 37.213 14.564,37.389 14.519,37.683 14.125 C 37.964 13.749,37.964 12.918,37.683 12.542 C 37.388 12.146,37.219 12.104,35.771 12.067 L 34.441 12.033 34.349 11.667 C 34.298 11.465,34.142 11.054,34.001 10.754 C 33.334 9.328,32.433 8.410,31.033 7.731 C 29.866 7.164,29.213 7.070,26.457 7.068 L 24.614 7.067 24.566 6.450 C 24.504 5.666,24.389 5.218,24.102 4.633 C 23.238 2.878,21.376 1.898,19.361 2.138 M20.757 4.735 C 21.522 5.022,22.067 5.826,22.067 6.669 L 22.067 7.067 20.000 7.067 L 17.933 7.067 17.933 6.669 C 17.933 6.097,18.133 5.620,18.543 5.209 C 19.131 4.621,19.971 4.441,20.757 4.735 M29.290 9.706 C 29.917 9.867,30.451 10.184,30.967 10.700 C 31.350 11.083,31.867 11.844,31.867 12.026 C 31.867 12.048,26.527 12.067,20.000 12.067 C 13.473 12.067,8.133 12.048,8.133 12.026 C 8.133 12.004,8.231 11.801,8.350 11.576 C 8.618 11.069,9.375 10.301,9.867 10.036 C 10.710 9.583,10.081 9.610,19.957 9.605 C 27.893 9.601,28.926 9.612,29.290 9.706 M32.067 23.331 C 32.067 31.941,32.065 32.067,31.931 32.423 C 31.750 32.907,31.240 33.417,30.757 33.598 C 30.399 33.732,30.282 33.733,20.000 33.733 C 9.718 33.733,9.601 33.732,9.243 33.598 C 8.760 33.417,8.250 32.907,8.069 32.423 C 7.935 32.067,7.933 31.941,7.933 23.331 L 7.933 14.600 20.000 14.600 L 32.067 14.600 32.067 23.331 " stroke="none" fill-rule="evenodd" fill="black"></path></svg>