<svg width="40" height="40" viewBox="0 0 40 40" fill="none" xmlns="http://www.w3.org/2000/svg"><path d="M6.028 2.138 C 5.054 2.254,4.197 2.685,3.441 3.441 C 2.637 4.245,2.250 5.055,2.130 6.189 C 2.084 6.616,2.068 11.426,2.081 20.467 C 2.100 33.230,2.109 34.126,2.218 34.500 C 2.690 36.113,3.940 37.351,5.533 37.783 C 5.941 37.893,6.813 37.900,20.000 37.900 C 33.187 37.900,34.059 37.893,34.467 37.783 C 36.076 37.347,37.347 36.076,37.783 34.467 C 37.893 34.059,37.900 33.187,37.900 20.000 C 37.900 6.813,37.893 5.941,37.783 5.533 C 37.351 3.940,36.113 2.690,34.500 2.218 C 34.125 2.109,33.242 2.101,20.300 2.092 C 12.710 2.087,6.287 2.108,6.028 2.138 M34.090 4.735 C 34.574 4.916,35.084 5.426,35.265 5.910 C 35.390 6.245,35.400 6.425,35.400 8.336 L 35.400 10.400 20.000 10.400 L 4.600 10.400 4.600 8.336 C 4.600 6.425,4.610 6.245,4.735 5.910 C 4.911 5.439,5.427 4.917,5.891 4.739 C 6.228 4.609,6.457 4.607,19.981 4.603 C 33.636 4.600,33.731 4.601,34.090 4.735 M35.400 15.833 L 35.400 18.733 20.000 18.733 L 4.600 18.733 4.600 15.833 L 4.600 12.933 20.000 12.933 L 35.400 12.933 35.400 15.833 M35.400 24.167 L 35.400 27.067 20.000 27.067 L 4.600 27.067 4.600 24.167 L 4.600 21.267 20.000 21.267 L 35.400 21.267 35.400 24.167 M35.400 31.664 C 35.400 33.575,35.390 33.755,35.265 34.090 C 35.084 34.574,34.574 35.084,34.090 35.265 C 33.731 35.399,33.631 35.400,20.000 35.400 C 6.369 35.400,6.269 35.399,5.910 35.265 C 5.426 35.084,4.916 34.574,4.735 34.090 C 4.610 33.755,4.600 33.575,4.600 31.664 L 4.600 29.600 20.000 29.600 L 35.400 29.600 35.400 31.664 " stroke="none" fill-rule="evenodd" fill="black"></path></svg>