<svg width="40" height="40" viewBox="0 0 40 40" fill="none" xmlns="http://www.w3.org/2000/svg"><path d="M7.694 3.803 C 6.716 3.923,5.863 4.353,5.108 5.108 C 4.304 5.912,3.917 6.721,3.796 7.855 C 3.750 8.278,3.734 11.480,3.748 17.133 C 3.772 26.744,3.737 26.029,4.232 27.033 C 4.802 28.194,5.918 29.102,7.200 29.449 C 7.591 29.555,8.025 29.567,11.667 29.567 C 15.308 29.567,15.742 29.555,16.133 29.449 C 17.743 29.013,19.013 27.743,19.449 26.133 C 19.559 25.730,19.567 25.081,19.567 16.667 C 19.567 8.252,19.559 7.604,19.449 7.200 C 19.102 5.918,18.194 4.802,17.033 4.232 C 16.093 3.769,16.179 3.777,11.967 3.761 C 9.877 3.753,7.954 3.772,7.694 3.803 M24.646 5.463 C 24.075 5.576,23.780 5.986,23.780 6.667 C 23.780 7.436,24.125 7.821,24.886 7.899 C 25.114 7.923,27.580 7.932,30.367 7.921 C 35.294 7.901,35.440 7.896,35.660 7.767 C 35.969 7.585,36.137 7.340,36.205 6.975 C 36.319 6.363,36.115 5.835,35.660 5.567 C 35.439 5.437,35.304 5.433,30.167 5.423 C 27.270 5.418,24.786 5.436,24.646 5.463 M15.757 6.402 C 16.240 6.583,16.750 7.093,16.931 7.577 C 17.065 7.933,17.067 8.059,17.067 16.667 C 17.067 25.274,17.065 25.400,16.931 25.757 C 16.750 26.240,16.240 26.750,15.757 26.931 C 15.409 27.061,15.250 27.067,11.667 27.067 C 8.084 27.067,7.924 27.061,7.577 26.931 C 7.093 26.750,6.583 26.240,6.402 25.757 C 6.269 25.400,6.267 25.274,6.267 16.667 C 6.267 8.059,6.269 7.933,6.402 7.577 C 6.578 7.106,7.093 6.584,7.558 6.405 C 7.883 6.280,8.081 6.273,11.647 6.270 C 15.254 6.267,15.409 6.272,15.757 6.402 M24.646 12.130 C 24.075 12.244,23.780 12.653,23.780 13.333 C 23.780 14.103,24.125 14.487,24.886 14.566 C 25.114 14.590,26.830 14.600,28.700 14.588 C 31.959 14.568,32.109 14.561,32.326 14.433 C 32.781 14.165,32.986 13.637,32.872 13.025 C 32.803 12.660,32.635 12.415,32.326 12.233 C 32.108 12.105,31.970 12.100,28.500 12.089 C 26.520 12.084,24.786 12.102,24.646 12.130 M24.646 18.796 C 24.075 18.910,23.780 19.320,23.780 20.000 C 23.780 20.769,24.125 21.154,24.886 21.233 C 25.114 21.257,26.830 21.266,28.700 21.255 C 31.959 21.234,32.109 21.228,32.326 21.100 C 32.635 20.918,32.803 20.674,32.872 20.308 C 32.986 19.696,32.781 19.168,32.326 18.900 C 32.108 18.771,31.970 18.766,28.500 18.756 C 26.520 18.750,24.786 18.768,24.646 18.796 M24.646 25.463 C 24.075 25.577,23.780 25.986,23.780 26.667 C 23.780 27.436,24.125 27.821,24.886 27.900 C 25.114 27.923,26.830 27.933,28.700 27.921 C 31.959 27.901,32.109 27.894,32.326 27.767 C 32.635 27.585,32.803 27.340,32.872 26.975 C 32.986 26.363,32.781 25.835,32.326 25.567 C 32.108 25.438,31.970 25.433,28.500 25.423 C 26.520 25.417,24.786 25.435,24.646 25.463 M4.646 33.797 C 4.076 33.909,3.780 34.319,3.780 35.000 C 3.780 35.770,4.126 36.155,4.886 36.232 C 5.114 36.255,12.080 36.264,20.367 36.253 C 35.295 36.234,35.435 36.232,35.660 36.100 C 36.115 35.832,36.319 35.304,36.205 34.692 C 36.137 34.326,35.969 34.082,35.660 33.900 C 35.435 33.768,35.305 33.767,20.167 33.757 C 11.770 33.752,4.786 33.770,4.646 33.797 " stroke="none" fill-rule="evenodd" fill="black"></path></svg>