<svg width="40" height="40" viewBox="0 0 40 40" fill="none" xmlns="http://www.w3.org/2000/svg"><path d="M4.646 3.797 C 4.076 3.909,3.780 4.319,3.780 5.000 C 3.780 5.770,4.126 6.155,4.886 6.232 C 5.114 6.255,12.080 6.264,20.367 6.253 C 35.295 6.234,35.435 6.232,35.660 6.100 C 35.969 5.918,36.137 5.674,36.205 5.308 C 36.319 4.696,36.115 4.168,35.660 3.900 C 35.435 3.768,35.305 3.767,20.167 3.757 C 11.770 3.752,4.786 3.770,4.646 3.797 M7.694 10.470 C 6.716 10.589,5.863 11.020,5.108 11.775 C 4.304 12.578,3.917 13.388,3.796 14.522 C 3.750 14.944,3.734 18.146,3.748 23.800 C 3.772 33.411,3.737 32.696,4.232 33.700 C 4.802 34.861,5.918 35.769,7.200 36.116 C 7.591 36.222,8.025 36.233,11.667 36.233 C 15.308 36.233,15.742 36.222,16.133 36.116 C 17.743 35.680,19.013 34.410,19.449 32.800 C 19.559 32.396,19.567 31.748,19.567 23.333 C 19.567 14.919,19.559 14.270,19.449 13.867 C 19.102 12.585,18.194 11.469,17.033 10.898 C 16.093 10.436,16.179 10.444,11.967 10.427 C 9.877 10.419,7.954 10.438,7.694 10.470 M24.646 12.130 C 24.075 12.243,23.780 12.653,23.780 13.333 C 23.780 14.103,24.125 14.488,24.886 14.566 C 25.114 14.589,27.580 14.599,30.367 14.588 C 35.294 14.567,35.440 14.563,35.660 14.433 C 35.969 14.251,36.137 14.007,36.205 13.641 C 36.319 13.030,36.115 12.501,35.660 12.233 C 35.439 12.103,35.304 12.100,30.167 12.090 C 27.270 12.084,24.786 12.102,24.646 12.130 M15.757 13.069 C 16.240 13.250,16.750 13.760,16.931 14.243 C 17.065 14.600,17.067 14.726,17.067 23.333 C 17.067 31.941,17.065 32.067,16.931 32.423 C 16.750 32.907,16.240 33.417,15.757 33.598 C 15.409 33.728,15.250 33.733,11.667 33.733 C 8.084 33.733,7.924 33.728,7.577 33.598 C 7.093 33.417,6.583 32.907,6.402 32.423 C 6.269 32.067,6.267 31.941,6.267 23.333 C 6.267 14.726,6.269 14.600,6.402 14.243 C 6.578 13.773,7.093 13.251,7.558 13.072 C 7.883 12.947,8.081 12.940,11.647 12.937 C 15.254 12.933,15.409 12.938,15.757 13.069 M24.646 18.796 C 24.075 18.910,23.780 19.320,23.780 20.000 C 23.780 20.769,24.125 21.154,24.886 21.233 C 25.114 21.257,26.830 21.266,28.700 21.255 C 31.959 21.234,32.109 21.228,32.326 21.100 C 32.635 20.918,32.803 20.674,32.872 20.308 C 32.986 19.696,32.781 19.168,32.326 18.900 C 32.108 18.771,31.970 18.766,28.500 18.756 C 26.520 18.750,24.786 18.768,24.646 18.796 M24.646 25.463 C 24.075 25.577,23.780 25.986,23.780 26.667 C 23.780 27.436,24.125 27.821,24.886 27.900 C 25.114 27.923,26.830 27.933,28.700 27.921 C 31.959 27.901,32.109 27.894,32.326 27.767 C 32.635 27.585,32.803 27.340,32.872 26.975 C 32.986 26.363,32.781 25.835,32.326 25.567 C 32.108 25.438,31.970 25.433,28.500 25.423 C 26.520 25.417,24.786 25.435,24.646 25.463 M24.646 32.130 C 24.075 32.244,23.780 32.653,23.780 33.333 C 23.780 34.103,24.125 34.487,24.886 34.566 C 25.114 34.590,26.830 34.600,28.700 34.588 C 31.959 34.568,32.109 34.561,32.326 34.433 C 32.635 34.251,32.803 34.007,32.872 33.641 C 32.986 33.030,32.781 32.501,32.326 32.233 C 32.108 32.105,31.970 32.100,28.500 32.089 C 26.520 32.084,24.786 32.102,24.646 32.130 " stroke="none" fill-rule="evenodd" fill="black"></path></svg>