<svg width="40" height="40" viewBox="0 0 40 40" fill="none" xmlns="http://www.w3.org/2000/svg"><path d="M6.028 2.138 C 5.054 2.254,4.197 2.685,3.441 3.441 C 2.637 4.245,2.250 5.055,2.130 6.189 C 2.084 6.616,2.068 11.426,2.081 20.467 C 2.100 33.230,2.109 34.126,2.218 34.500 C 2.690 36.113,3.940 37.351,5.533 37.783 C 5.941 37.893,6.813 37.900,20.000 37.900 C 33.187 37.900,34.059 37.893,34.467 37.783 C 36.076 37.347,37.347 36.076,37.783 34.467 C 37.893 34.059,37.900 33.187,37.900 20.000 C 37.900 6.813,37.893 5.941,37.783 5.533 C 37.351 3.940,36.113 2.690,34.500 2.218 C 34.125 2.109,33.242 2.101,20.300 2.092 C 12.710 2.087,6.287 2.108,6.028 2.138 M34.090 4.735 C 34.574 4.916,35.084 5.426,35.265 5.910 C 35.396 6.260,35.400 6.413,35.400 10.836 L 35.400 15.400 20.000 15.400 L 4.600 15.400 4.600 10.836 C 4.600 6.413,4.604 6.260,4.735 5.910 C 4.911 5.439,5.427 4.917,5.891 4.739 C 6.228 4.609,6.457 4.607,19.981 4.603 C 33.636 4.600,33.731 4.601,34.090 4.735 M15.400 26.667 L 15.400 35.400 10.836 35.400 C 6.413 35.400,6.260 35.396,5.910 35.265 C 5.426 35.084,4.916 34.574,4.735 34.090 C 4.602 33.734,4.600 33.603,4.600 25.831 L 4.600 17.933 10.000 17.933 L 15.400 17.933 15.400 26.667 M35.400 25.831 C 35.400 33.603,35.398 33.734,35.265 34.090 C 35.084 34.574,34.574 35.084,34.090 35.265 C 33.734 35.398,33.603 35.400,25.831 35.400 L 17.933 35.400 17.933 26.667 L 17.933 17.933 26.667 17.933 L 35.400 17.933 35.400 25.831 " stroke="none" fill-rule="evenodd" fill="black"></path></svg>