<svg width="40" height="40" viewBox="0 0 40 40" fill="none" xmlns="http://www.w3.org/2000/svg"><path d="M24.361 2.137 C 23.383 2.256,22.529 2.686,21.775 3.441 C 20.970 4.246,20.585 5.052,20.461 6.196 C 20.416 6.608,20.400 8.179,20.416 10.474 C 20.446 14.487,20.441 14.436,20.898 15.367 C 21.467 16.526,22.586 17.436,23.867 17.783 C 24.258 17.889,24.692 17.900,28.333 17.900 C 31.975 17.900,32.409 17.889,32.800 17.783 C 34.410 17.347,35.680 16.076,36.116 14.467 C 36.222 14.075,36.233 13.642,36.233 10.000 C 36.233 6.358,36.222 5.925,36.116 5.533 C 35.769 4.252,34.861 3.136,33.700 2.565 C 32.760 2.103,32.846 2.111,28.633 2.094 C 26.543 2.086,24.621 2.105,24.361 2.137 M32.423 4.735 C 32.907 4.916,33.417 5.426,33.598 5.910 C 33.728 6.258,33.733 6.417,33.733 10.000 C 33.733 14.302,33.751 14.163,33.124 14.790 C 32.497 15.418,32.635 15.400,28.333 15.400 C 24.032 15.400,24.170 15.418,23.543 14.790 C 22.916 14.163,22.933 14.302,22.933 10.000 C 22.933 5.698,22.916 5.837,23.543 5.209 C 24.165 4.587,24.006 4.607,28.314 4.603 C 31.921 4.600,32.075 4.605,32.423 4.735 M4.646 5.463 C 4.075 5.576,3.780 5.986,3.780 6.667 C 3.780 7.436,4.125 7.821,4.886 7.899 C 5.114 7.923,7.580 7.932,10.367 7.921 C 15.294 7.901,15.440 7.896,15.660 7.767 C 16.115 7.499,16.319 6.970,16.205 6.359 C 16.137 5.993,15.969 5.749,15.660 5.567 C 15.439 5.437,15.304 5.433,10.167 5.423 C 7.270 5.418,4.786 5.436,4.646 5.463 M7.979 12.130 C 7.408 12.244,7.114 12.653,7.114 13.333 C 7.114 14.103,7.458 14.487,8.219 14.566 C 8.447 14.590,10.163 14.600,12.033 14.588 C 15.293 14.568,15.443 14.561,15.660 14.433 C 15.969 14.251,16.137 14.007,16.205 13.641 C 16.319 13.030,16.115 12.501,15.660 12.233 C 15.442 12.105,15.303 12.100,11.833 12.089 C 9.853 12.084,8.119 12.102,7.979 12.130 M24.361 22.137 C 23.383 22.256,22.529 22.686,21.775 23.441 C 20.970 24.246,20.585 25.052,20.461 26.196 C 20.416 26.608,20.400 28.179,20.416 30.474 C 20.446 34.487,20.441 34.436,20.898 35.367 C 21.467 36.526,22.586 37.436,23.867 37.783 C 24.258 37.889,24.692 37.900,28.333 37.900 C 31.975 37.900,32.409 37.889,32.800 37.783 C 34.410 37.347,35.680 36.076,36.116 34.467 C 36.222 34.075,36.233 33.642,36.233 30.000 C 36.233 26.358,36.222 25.925,36.116 25.533 C 35.769 24.252,34.861 23.136,33.700 22.565 C 32.760 22.103,32.846 22.111,28.633 22.094 C 26.543 22.086,24.621 22.105,24.361 22.137 M32.423 24.735 C 32.907 24.916,33.417 25.426,33.598 25.910 C 33.728 26.258,33.733 26.417,33.733 30.000 C 33.733 34.302,33.751 34.163,33.124 34.790 C 32.497 35.418,32.635 35.400,28.333 35.400 C 24.032 35.400,24.170 35.418,23.543 34.790 C 22.916 34.163,22.933 34.302,22.933 30.000 C 22.933 25.698,22.916 25.837,23.543 25.209 C 24.165 24.587,24.006 24.607,28.314 24.603 C 31.921 24.600,32.075 24.605,32.423 24.735 M4.646 25.463 C 4.075 25.576,3.780 25.986,3.780 26.667 C 3.780 27.436,4.125 27.821,4.886 27.899 C 5.114 27.923,7.580 27.932,10.367 27.921 C 15.294 27.901,15.440 27.896,15.660 27.767 C 16.115 27.499,16.319 26.970,16.205 26.359 C 16.137 25.993,15.969 25.749,15.660 25.567 C 15.439 25.437,15.304 25.433,10.167 25.423 C 7.270 25.418,4.786 25.436,4.646 25.463 M7.979 32.130 C 7.408 32.244,7.114 32.653,7.114 33.333 C 7.114 34.103,7.458 34.487,8.219 34.566 C 8.447 34.590,10.163 34.600,12.033 34.588 C 15.293 34.568,15.443 34.561,15.660 34.433 C 16.115 34.165,16.319 33.637,16.205 33.025 C 16.137 32.660,15.969 32.415,15.660 32.233 C 15.442 32.105,15.303 32.100,11.833 32.089 C 9.853 32.084,8.119 32.102,7.979 32.130 " stroke="none" fill-rule="evenodd" fill="black"></path></svg>