<svg width="40" height="40" viewBox="0 0 40 40" fill="none" xmlns="http://www.w3.org/2000/svg"><path d="M6.028 5.470 C 5.050 5.589,4.196 6.020,3.441 6.775 C 2.636 7.579,2.252 8.386,2.127 9.529 C 2.083 9.941,2.066 11.512,2.083 13.807 C 2.112 17.820,2.107 17.769,2.565 18.700 C 3.134 19.859,4.252 20.769,5.533 21.116 C 5.925 21.222,6.358 21.233,10.000 21.233 C 13.642 21.233,14.075 21.222,14.467 21.116 C 16.076 20.680,17.347 19.410,17.783 17.800 C 17.889 17.409,17.900 16.975,17.900 13.333 C 17.900 9.692,17.889 9.258,17.783 8.867 C 17.436 7.585,16.527 6.469,15.367 5.898 C 14.427 5.436,14.512 5.444,10.300 5.427 C 8.210 5.419,6.287 5.438,6.028 5.470 M26.028 5.470 C 25.050 5.589,24.196 6.020,23.441 6.775 C 22.636 7.579,22.252 8.386,22.127 9.529 C 22.083 9.941,22.066 11.512,22.083 13.807 C 22.112 17.820,22.107 17.769,22.565 18.700 C 23.134 19.859,24.252 20.769,25.533 21.116 C 25.925 21.222,26.358 21.233,30.000 21.233 C 33.642 21.233,34.075 21.222,34.467 21.116 C 36.076 20.680,37.347 19.410,37.783 17.800 C 37.889 17.409,37.900 16.975,37.900 13.333 C 37.900 9.692,37.889 9.258,37.783 8.867 C 37.436 7.585,36.527 6.469,35.367 5.898 C 34.427 5.436,34.512 5.444,30.300 5.427 C 28.210 5.419,26.287 5.438,26.028 5.470 M14.090 8.069 C 14.574 8.250,15.084 8.760,15.265 9.243 C 15.395 9.591,15.400 9.750,15.400 13.333 C 15.400 17.635,15.418 17.497,14.790 18.124 C 14.163 18.751,14.302 18.733,10.000 18.733 C 5.698 18.733,5.837 18.751,5.210 18.124 C 4.582 17.497,4.600 17.635,4.600 13.333 C 4.600 9.032,4.582 9.170,5.210 8.543 C 5.832 7.921,5.672 7.941,9.981 7.937 C 13.588 7.933,13.742 7.938,14.090 8.069 M34.090 8.069 C 34.574 8.250,35.084 8.760,35.265 9.243 C 35.395 9.591,35.400 9.750,35.400 13.333 C 35.400 17.635,35.418 17.497,34.790 18.124 C 34.163 18.751,34.302 18.733,30.000 18.733 C 25.698 18.733,25.837 18.751,25.210 18.124 C 24.582 17.497,24.600 17.635,24.600 13.333 C 24.600 9.032,24.582 9.170,25.210 8.543 C 25.832 7.921,25.672 7.941,29.981 7.937 C 33.588 7.933,33.742 7.938,34.090 8.069 M4.646 25.463 C 4.075 25.576,3.780 25.986,3.780 26.667 C 3.780 27.436,4.125 27.821,4.886 27.899 C 5.114 27.923,7.580 27.932,10.367 27.921 C 15.294 27.901,15.440 27.896,15.660 27.767 C 16.115 27.499,16.319 26.970,16.205 26.359 C 16.137 25.993,15.969 25.749,15.660 25.567 C 15.439 25.437,15.304 25.433,10.167 25.423 C 7.270 25.418,4.786 25.436,4.646 25.463 M24.646 25.463 C 24.075 25.576,23.780 25.986,23.780 26.667 C 23.780 27.436,24.125 27.821,24.886 27.899 C 25.114 27.923,27.580 27.932,30.367 27.921 C 35.294 27.901,35.440 27.896,35.660 27.767 C 35.969 27.585,36.137 27.340,36.205 26.975 C 36.319 26.363,36.115 25.835,35.660 25.567 C 35.439 25.437,35.304 25.433,30.167 25.423 C 27.270 25.418,24.786 25.436,24.646 25.463 M4.646 32.130 C 4.075 32.244,3.780 32.653,3.780 33.333 C 3.780 34.103,4.125 34.487,4.886 34.566 C 5.114 34.590,6.830 34.600,8.700 34.588 C 11.959 34.568,12.109 34.561,12.326 34.433 C 12.781 34.165,12.986 33.637,12.872 33.025 C 12.803 32.660,12.635 32.415,12.326 32.233 C 12.108 32.105,11.970 32.100,8.500 32.089 C 6.520 32.084,4.786 32.102,4.646 32.130 M24.646 32.130 C 24.075 32.244,23.780 32.653,23.780 33.333 C 23.780 34.103,24.125 34.487,24.886 34.566 C 25.114 34.590,26.830 34.600,28.700 34.588 C 31.959 34.568,32.109 34.561,32.326 34.433 C 32.635 34.251,32.803 34.007,32.872 33.641 C 32.986 33.030,32.781 32.501,32.326 32.233 C 32.108 32.105,31.970 32.100,28.500 32.089 C 26.520 32.084,24.786 32.102,24.646 32.130 " stroke="none" fill-rule="evenodd" fill="black"></path></svg>