<svg width="16" height="16" viewBox="0 0 16 16" fill="none" xmlns="http://www.w3.org/2000/svg">
<path fill-rule="evenodd" clip-rule="evenodd" d="M15 15H11.9567V10.0168C11.9567 8.71246 11.4806 7.82202 10.4338 7.82202C9.63311 7.82202 9.18782 8.42291 8.98056 9.00202C8.90284 9.20988 8.91498 9.49943 8.91498 9.78898V15H5.9C5.9 15 5.93886 6.17276 5.9 5.37036H8.91498V6.88166C9.0931 6.22087 10.0565 5.27778 11.594 5.27778C13.5014 5.27778 15 6.66291 15 9.64556V15ZM2.7413 4.11111H2.72043C1.67669 4.11111 1 3.42567 1 2.55682C1 1.67107 1.69669 1 2.76131 1C3.82505 1 4.47913 1.66938 4.5 2.55429C4.5 3.42313 3.82505 4.11111 2.7413 4.11111ZM1.35 5.66667H4.15V15H1.35V5.66667Z" fill="#151515"/>
</svg>
