<svg width="40" height="40" viewBox="0 0 40 40" fill="none" xmlns="http://www.w3.org/2000/svg"><path d="M19.167 2.110 C 10.853 2.502,3.835 8.641,2.376 16.800 C 2.019 18.794,2.019 21.206,2.376 23.200 C 3.367 28.741,7.016 33.568,12.100 36.063 C 14.671 37.325,17.091 37.882,20.000 37.882 C 22.909 37.882,25.329 37.325,27.900 36.063 C 33.394 33.367,37.088 28.110,37.804 21.967 C 37.847 21.600,37.882 20.715,37.882 20.000 C 37.882 17.091,37.325 14.671,36.063 12.100 C 33.823 7.536,29.810 4.189,24.872 2.768 C 23.159 2.275,20.983 2.024,19.167 2.110 M22.600 4.799 C 25.159 5.251,27.645 6.370,29.633 7.964 C 30.270 8.474,31.453 9.653,31.978 10.300 C 33.330 11.966,34.414 14.123,34.933 16.177 C 35.299 17.627,35.366 18.219,35.366 20.000 C 35.366 21.781,35.299 22.373,34.933 23.823 C 34.424 25.837,33.347 27.997,32.036 29.633 C 31.526 30.270,30.347 31.453,29.700 31.978 C 28.034 33.330,25.877 34.414,23.823 34.933 C 22.373 35.299,21.781 35.366,20.000 35.366 C 18.219 35.366,17.627 35.299,16.177 34.933 C 14.164 34.425,12.010 33.351,10.367 32.037 C 9.726 31.525,8.540 30.344,8.020 29.700 C 6.374 27.662,5.264 25.210,4.791 22.567 C 4.656 21.809,4.636 21.486,4.636 20.000 C 4.636 18.514,4.656 18.191,4.791 17.433 C 5.264 14.790,6.374 12.338,8.020 10.300 C 8.540 9.656,9.726 8.475,10.367 7.963 C 12.374 6.358,14.913 5.219,17.400 4.809 C 18.579 4.614,18.604 4.612,20.267 4.633 C 21.454 4.648,21.940 4.683,22.600 4.799 M16.312 13.797 C 15.996 13.859,15.740 14.046,15.567 14.340 C 15.436 14.562,15.433 14.687,15.433 20.000 C 15.433 25.313,15.436 25.438,15.567 25.660 C 15.749 25.969,15.993 26.137,16.359 26.205 C 16.970 26.319,17.499 26.115,17.767 25.660 C 17.896 25.440,17.901 25.294,17.921 20.367 C 17.932 17.580,17.923 15.114,17.899 14.886 C 17.830 14.210,17.494 13.851,16.867 13.781 C 16.702 13.762,16.452 13.770,16.312 13.797 M22.979 13.797 C 22.663 13.859,22.407 14.046,22.233 14.340 C 22.103 14.562,22.100 14.687,22.100 20.000 C 22.100 25.313,22.103 25.438,22.233 25.660 C 22.415 25.969,22.660 26.137,23.025 26.205 C 23.637 26.319,24.165 26.115,24.433 25.660 C 24.563 25.440,24.567 25.294,24.588 20.367 C 24.599 17.580,24.589 15.114,24.566 14.886 C 24.496 14.210,24.161 13.851,23.533 13.781 C 23.368 13.762,23.119 13.770,22.979 13.797 " stroke="none" fill-rule="evenodd" fill="black"></path></svg>