<svg width="40" height="40" viewBox="0 0 40 40" fill="none" xmlns="http://www.w3.org/2000/svg"><path d="M19.241 2.138 C 15.475 2.471,12.471 5.513,12.135 9.333 C 12.048 10.328,12.048 16.339,12.135 17.333 C 12.297 19.177,13.029 20.800,14.293 22.118 C 15.985 23.884,18.263 24.739,20.709 24.527 C 24.051 24.236,26.820 21.876,27.667 18.594 C 27.881 17.766,27.932 16.741,27.932 13.333 C 27.932 9.925,27.881 8.901,27.667 8.073 C 26.936 5.241,24.753 3.057,21.927 2.332 C 21.521 2.228,20.006 2.040,19.867 2.077 C 19.848 2.081,19.567 2.109,19.241 2.138 M21.091 4.696 C 22.164 4.901,22.922 5.323,23.800 6.200 C 24.677 7.078,25.099 7.836,25.304 8.909 C 25.444 9.644,25.444 17.022,25.304 17.758 C 25.099 18.831,24.677 19.589,23.800 20.467 C 22.672 21.595,21.551 22.067,20.000 22.067 C 18.449 22.067,17.328 21.595,16.200 20.467 C 15.337 19.603,14.926 18.874,14.701 17.805 C 14.552 17.095,14.552 9.572,14.701 8.862 C 14.926 7.793,15.337 7.064,16.200 6.200 C 17.058 5.342,17.833 4.905,18.857 4.701 C 19.457 4.581,20.480 4.579,21.091 4.696 M7.979 15.464 C 7.664 15.526,7.407 15.712,7.237 16.002 C 6.975 16.450,7.033 19.263,7.338 20.840 C 7.685 22.640,8.536 24.556,9.659 26.067 C 10.118 26.684,11.209 27.820,11.834 28.333 C 13.450 29.657,15.629 30.665,17.620 31.007 C 18.067 31.084,18.499 31.159,18.580 31.174 L 18.726 31.201 18.746 34.150 C 18.766 36.960,18.773 37.111,18.900 37.326 C 19.168 37.781,19.696 37.986,20.308 37.872 C 20.674 37.803,20.918 37.635,21.100 37.326 C 21.227 37.111,21.234 36.960,21.254 34.150 L 21.274 31.201 21.420 31.174 C 21.501 31.159,21.933 31.084,22.380 31.007 C 24.290 30.679,26.522 29.668,28.033 28.446 C 28.548 28.031,29.569 27.018,29.996 26.500 C 31.275 24.949,32.282 22.810,32.663 20.835 C 32.965 19.273,33.023 16.446,32.762 16.001 C 32.500 15.552,31.967 15.348,31.359 15.462 C 30.993 15.530,30.748 15.698,30.568 16.006 C 30.450 16.208,30.432 16.407,30.391 17.999 C 30.340 19.967,30.261 20.495,29.828 21.738 C 29.289 23.287,28.546 24.459,27.336 25.669 C 26.089 26.916,24.894 27.661,23.270 28.204 C 21.148 28.914,18.852 28.914,16.731 28.205 C 15.103 27.660,13.906 26.915,12.662 25.671 C 11.419 24.427,10.673 23.230,10.129 21.602 C 9.733 20.420,9.601 19.506,9.597 17.943 C 9.594 16.513,9.550 16.143,9.351 15.876 C 9.087 15.522,8.532 15.355,7.979 15.464 " stroke="none" fill-rule="evenodd" fill="black"></path></svg>