<svg width="40" height="40" viewBox="0 0 40 40" fill="none" xmlns="http://www.w3.org/2000/svg"><path d="M21.867 7.530 C 21.738 7.555,21.528 7.630,21.400 7.696 C 21.272 7.762,20.026 8.952,18.631 10.341 L 16.096 12.867 11.531 12.868 C 6.420 12.869,6.428 12.868,5.500 13.329 C 4.236 13.956,3.312 15.122,3.032 16.443 C 2.891 17.112,2.891 23.685,3.033 24.367 C 3.350 25.891,4.706 27.304,6.300 27.772 C 6.660 27.878,7.143 27.892,11.123 27.916 L 15.546 27.942 18.357 30.051 C 19.902 31.211,21.300 32.235,21.462 32.326 C 21.690 32.454,21.850 32.490,22.165 32.487 C 22.821 32.481,23.338 32.151,23.608 31.567 C 23.725 31.311,23.730 30.838,23.731 20.067 C 23.732 12.349,23.710 8.754,23.662 8.579 C 23.576 8.270,23.196 7.834,22.871 7.671 C 22.580 7.525,22.178 7.469,21.867 7.530 M26.322 10.463 C 25.667 10.590,25.317 11.203,25.462 11.975 C 25.588 12.650,25.899 12.847,26.974 12.929 C 28.442 13.042,29.478 13.382,30.584 14.112 C 32.542 15.405,33.733 17.633,33.733 20.000 C 33.733 23.351,31.417 26.203,28.100 26.936 C 27.917 26.976,27.410 27.037,26.974 27.071 C 26.128 27.136,25.890 27.220,25.650 27.542 C 25.381 27.903,25.368 28.704,25.625 29.097 C 25.894 29.508,26.314 29.613,27.367 29.532 C 29.717 29.353,31.772 28.412,33.425 26.759 C 36.027 24.157,36.903 20.336,35.697 16.844 C 34.668 13.863,32.120 11.516,29.067 10.737 C 28.207 10.517,26.781 10.375,26.322 10.463 M21.239 29.049 C 21.224 29.065,20.194 28.313,18.950 27.379 C 17.706 26.445,16.586 25.625,16.461 25.557 C 16.247 25.441,15.952 25.431,11.567 25.400 L 6.900 25.367 6.562 25.189 C 6.159 24.976,5.771 24.564,5.576 24.141 C 5.436 23.839,5.433 23.766,5.433 20.400 L 5.433 16.967 5.608 16.594 C 5.830 16.121,6.188 15.763,6.661 15.541 L 7.033 15.367 12.033 15.333 C 16.768 15.302,17.046 15.293,17.267 15.174 C 17.395 15.105,18.340 14.214,19.367 13.194 L 21.233 11.339 21.250 20.181 C 21.260 25.043,21.255 29.034,21.239 29.049 " stroke="none" fill-rule="evenodd" fill="black"></path></svg>