<svg width="40" height="40" viewBox="0 0 40 40" fill="none" xmlns="http://www.w3.org/2000/svg"><path d="M22.596 7.625 C 22.429 7.670,22.204 7.770,22.096 7.849 C 21.988 7.927,20.790 9.103,19.434 10.462 L 16.967 12.933 12.367 12.934 C 8.600 12.935,7.682 12.953,7.300 13.033 C 5.760 13.353,4.344 14.724,3.889 16.333 C 3.777 16.730,3.767 17.076,3.767 20.400 C 3.767 23.660,3.779 24.078,3.884 24.467 C 4.231 25.748,5.139 26.864,6.300 27.435 C 7.252 27.903,7.090 27.890,11.966 27.917 L 16.365 27.942 19.299 30.140 C 21.673 31.919,22.301 32.359,22.586 32.442 C 23.186 32.616,23.801 32.429,24.195 31.952 C 24.624 31.434,24.600 32.127,24.600 20.091 C 24.600 12.426,24.578 9.038,24.527 8.800 C 24.344 7.944,23.447 7.399,22.596 7.625 M22.050 24.624 L 22.033 29.058 19.672 27.298 C 18.373 26.330,17.221 25.507,17.112 25.469 C 16.982 25.424,15.353 25.400,12.426 25.400 C 8.080 25.400,7.927 25.396,7.577 25.265 C 7.090 25.083,6.583 24.574,6.400 24.084 C 6.266 23.727,6.263 23.612,6.281 20.308 L 6.300 16.900 6.478 16.562 C 6.691 16.159,7.103 15.771,7.525 15.576 C 7.829 15.435,7.902 15.433,12.833 15.400 C 17.815 15.367,17.834 15.366,18.100 15.221 C 18.247 15.141,19.192 14.249,20.200 13.237 L 22.033 11.399 22.050 15.794 C 22.060 18.212,22.060 22.185,22.050 24.624 M31.820 14.739 C 31.620 14.838,31.501 14.958,31.403 15.160 C 31.277 15.421,31.267 15.565,31.267 17.082 L 31.267 18.722 29.583 18.744 C 28.043 18.765,27.881 18.778,27.674 18.900 C 27.365 19.082,27.197 19.326,27.128 19.692 C 27.014 20.304,27.219 20.832,27.674 21.100 C 27.881 21.222,28.043 21.235,29.583 21.256 L 31.267 21.278 31.267 22.918 C 31.267 24.438,31.277 24.579,31.404 24.842 C 31.773 25.604,33.227 25.604,33.596 24.842 C 33.723 24.579,33.733 24.438,33.733 22.918 L 33.733 21.278 35.417 21.256 C 36.957 21.235,37.119 21.222,37.326 21.100 C 37.781 20.832,37.986 20.304,37.872 19.692 C 37.803 19.326,37.635 19.082,37.326 18.900 C 37.119 18.778,36.957 18.765,35.417 18.744 L 33.733 18.722 33.733 17.082 C 33.733 15.562,33.723 15.421,33.596 15.158 C 33.339 14.628,32.463 14.421,31.820 14.739 " stroke="none" fill-rule="evenodd" fill="black"></path></svg>