<svg width="40" height="40" viewBox="0 0 40 40" fill="none" xmlns="http://www.w3.org/2000/svg"><path d="M17.449 10.473 C 17.159 10.541,17.613 10.255,10.300 14.964 C 7.183 16.971,4.553 18.688,4.455 18.781 C 3.848 19.353,3.848 20.647,4.455 21.219 C 4.689 21.440,16.964 29.392,17.265 29.517 C 17.940 29.800,18.875 29.363,19.227 28.601 C 19.366 28.301,19.367 28.276,19.367 20.033 C 19.367 10.653,19.413 11.413,18.808 10.847 C 18.567 10.622,18.404 10.531,18.141 10.475 C 17.950 10.434,17.772 10.403,17.747 10.407 C 17.721 10.410,17.587 10.440,17.449 10.473 M34.116 10.473 C 33.825 10.541,34.280 10.255,26.967 14.964 C 23.850 16.971,21.220 18.688,21.122 18.781 C 20.514 19.353,20.514 20.647,21.122 21.219 C 21.356 21.440,33.631 29.392,33.931 29.517 C 34.606 29.800,35.541 29.363,35.894 28.601 C 36.033 28.301,36.033 28.276,36.033 20.033 C 36.033 10.653,36.080 11.413,35.475 10.847 C 35.234 10.622,35.071 10.531,34.808 10.475 C 34.617 10.434,34.439 10.403,34.413 10.407 C 34.388 10.410,34.254 10.440,34.116 10.473 M16.851 23.198 L 16.833 26.318 11.984 23.176 C 9.316 21.447,7.134 20.018,7.135 20.000 C 7.135 19.982,9.317 18.563,11.984 16.847 L 16.833 13.727 16.851 16.902 C 16.860 18.648,16.860 21.481,16.851 23.198 M33.517 23.198 L 33.500 26.318 28.650 23.176 C 25.983 21.447,23.801 20.018,23.801 20.000 C 23.802 19.982,25.984 18.563,28.651 16.847 L 33.500 13.727 33.517 16.902 C 33.527 18.648,33.527 21.481,33.517 23.198 " stroke="none" fill-rule="evenodd" fill="black"></path></svg>