<svg width="40" height="40" viewBox="0 0 40 40" fill="none" xmlns="http://www.w3.org/2000/svg"><path d="M19.767 2.244 C 19.225 2.371,19.145 2.438,17.044 4.525 C 14.864 6.690,14.470 7.146,14.140 7.877 C 13.849 8.524,13.812 8.787,13.653 11.343 L 13.505 13.719 12.369 13.744 C 11.132 13.771,10.937 13.823,10.650 14.209 C 10.370 14.585,10.370 15.415,10.650 15.791 C 10.931 16.168,11.137 16.227,12.281 16.256 C 13.199 16.279,13.333 16.296,13.333 16.391 C 13.332 16.451,13.049 21.078,12.704 26.672 C 12.326 32.794,12.096 36.935,12.127 37.073 C 12.202 37.406,12.325 37.571,12.630 37.745 L 12.900 37.900 20.000 37.900 C 26.980 37.900,27.104 37.898,27.326 37.767 C 27.628 37.589,27.804 37.340,27.866 37.005 C 27.897 36.833,27.680 32.904,27.293 26.648 C 26.950 21.103,26.669 16.503,26.668 16.425 C 26.667 16.287,26.697 16.282,27.719 16.256 C 28.863 16.227,29.069 16.168,29.350 15.791 C 29.630 15.415,29.630 14.585,29.350 14.209 C 29.063 13.823,28.868 13.771,27.631 13.744 L 26.495 13.719 26.347 11.376 C 26.266 10.088,26.168 8.883,26.128 8.700 C 26.089 8.517,25.918 8.084,25.749 7.737 C 25.446 7.117,25.410 7.076,23.221 4.827 C 21.649 3.212,20.917 2.506,20.716 2.412 C 20.413 2.269,19.984 2.193,19.767 2.244 M21.745 6.891 C 23.273 8.466,23.466 8.690,23.596 9.037 C 23.718 9.364,23.761 9.741,23.869 11.462 C 23.940 12.583,23.999 13.553,23.999 13.617 C 24.000 13.726,23.765 13.733,20.000 13.733 C 16.235 13.733,16.000 13.726,16.000 13.617 C 16.002 13.111,16.277 9.323,16.324 9.163 C 16.357 9.051,16.435 8.856,16.499 8.729 C 16.602 8.526,19.906 5.133,20.001 5.133 C 20.022 5.133,20.807 5.924,21.745 6.891 M2.882 10.474 C 2.538 10.645,2.157 11.073,2.059 11.400 C 2.006 11.575,2.009 11.718,2.067 11.936 C 2.136 12.193,2.332 12.419,3.520 13.617 L 4.893 15.000 3.520 16.383 C 1.999 17.917,1.916 18.042,2.065 18.594 C 2.168 18.977,2.682 19.496,3.059 19.598 C 3.642 19.755,3.718 19.702,5.685 17.745 C 7.634 15.806,7.756 15.645,7.756 15.000 C 7.756 14.355,7.634 14.194,5.685 12.256 C 4.207 10.786,3.854 10.468,3.633 10.407 C 3.269 10.307,3.209 10.313,2.882 10.474 M36.097 10.467 C 35.932 10.549,35.142 11.290,34.056 12.383 C 32.145 14.306,32.105 14.362,32.111 15.043 C 32.117 15.645,32.264 15.836,34.182 17.745 C 36.149 19.702,36.224 19.755,36.808 19.598 C 37.177 19.498,37.698 18.977,37.798 18.608 C 37.950 18.043,37.865 17.913,36.347 16.383 L 34.974 15.000 36.347 13.617 C 37.865 12.087,37.950 11.957,37.798 11.392 C 37.701 11.034,37.179 10.504,36.825 10.406 C 36.472 10.308,36.407 10.313,36.097 10.467 M24.746 25.633 C 25.064 30.767,25.327 35.064,25.329 35.183 L 25.333 35.400 19.990 35.400 L 14.647 35.400 14.683 34.917 C 14.703 34.651,14.969 30.346,15.276 25.350 L 15.833 16.266 20.000 16.283 L 24.167 16.300 24.746 25.633 " stroke="none" fill-rule="evenodd" fill="black"></path></svg>