<svg width="40" height="40" viewBox="0 0 40 40" fill="none" xmlns="http://www.w3.org/2000/svg"><path d="M22.694 3.805 C 22.128 3.872,21.471 4.101,20.961 4.408 C 20.170 4.884,19.358 5.852,19.058 6.676 L 18.917 7.063 11.742 7.082 C 4.704 7.100,4.562 7.103,4.340 7.233 C 3.885 7.501,3.681 8.030,3.795 8.641 C 3.863 9.007,4.031 9.251,4.340 9.433 C 4.562 9.564,4.704 9.567,11.742 9.585 L 18.917 9.603 19.058 9.991 C 19.475 11.135,20.571 12.207,21.769 12.641 C 22.680 12.972,23.986 12.972,24.898 12.641 C 26.095 12.207,27.192 11.135,27.608 9.992 L 27.749 9.606 31.591 9.586 C 35.295 9.567,35.442 9.562,35.660 9.433 C 35.969 9.251,36.137 9.007,36.205 8.641 C 36.319 8.030,36.115 7.501,35.660 7.233 C 35.442 7.105,35.295 7.099,31.591 7.080 L 27.749 7.061 27.608 6.675 C 27.211 5.586,26.109 4.475,25.022 4.068 C 24.315 3.803,23.489 3.710,22.694 3.805 M24.090 6.402 C 24.574 6.583,25.084 7.093,25.265 7.577 C 25.559 8.362,25.379 9.202,24.790 9.790 C 23.968 10.613,22.698 10.613,21.876 9.790 C 21.054 8.968,21.054 7.698,21.876 6.876 C 22.464 6.288,23.305 6.108,24.090 6.402 M12.694 15.471 C 12.128 15.539,11.471 15.768,10.961 16.075 C 10.172 16.550,9.358 17.518,9.059 18.340 L 8.919 18.724 6.743 18.745 C 4.708 18.765,4.552 18.775,4.340 18.900 C 4.031 19.082,3.863 19.326,3.795 19.692 C 3.681 20.304,3.885 20.832,4.340 21.100 C 4.552 21.225,4.708 21.235,6.743 21.255 L 8.919 21.276 9.059 21.660 C 9.358 22.482,10.172 23.450,10.961 23.925 C 12.372 24.775,14.295 24.775,15.706 23.925 C 16.497 23.449,17.308 22.482,17.609 21.657 L 17.750 21.269 26.592 21.251 C 35.297 21.234,35.437 21.231,35.660 21.100 C 35.969 20.918,36.137 20.674,36.205 20.308 C 36.319 19.696,36.115 19.168,35.660 18.900 C 35.437 18.769,35.297 18.766,26.592 18.749 L 17.750 18.731 17.609 18.343 C 17.211 17.252,16.110 16.142,15.022 15.735 C 14.315 15.470,13.489 15.377,12.694 15.471 M14.090 18.069 C 14.574 18.250,15.084 18.760,15.265 19.243 C 15.559 20.029,15.379 20.869,14.790 21.457 C 13.489 22.759,11.267 21.840,11.267 20.000 C 11.267 19.430,11.467 18.952,11.876 18.543 C 12.464 17.955,13.305 17.775,14.090 18.069 M24.361 27.138 C 23.795 27.205,23.137 27.434,22.627 27.742 C 21.837 28.218,21.025 29.185,20.725 30.009 L 20.583 30.397 12.575 30.415 C 4.703 30.433,4.563 30.436,4.340 30.567 C 3.885 30.835,3.681 31.363,3.795 31.975 C 3.863 32.340,4.031 32.585,4.340 32.767 C 4.563 32.898,4.703 32.900,12.575 32.918 L 20.583 32.936 20.725 33.324 C 21.142 34.468,22.238 35.540,23.435 35.975 C 24.670 36.423,26.248 36.269,27.373 35.592 C 28.162 35.116,28.975 34.148,29.275 33.326 L 29.415 32.941 32.424 32.920 C 35.294 32.901,35.444 32.894,35.660 32.767 C 35.969 32.585,36.137 32.340,36.205 31.975 C 36.319 31.363,36.115 30.835,35.660 30.567 C 35.444 30.440,35.294 30.432,32.424 30.413 L 29.415 30.393 29.275 30.007 C 28.878 28.919,27.775 27.808,26.689 27.401 C 25.981 27.137,25.155 27.043,24.361 27.138 M25.757 29.735 C 26.240 29.916,26.750 30.426,26.931 30.910 C 27.225 31.696,27.045 32.536,26.457 33.124 C 25.155 34.426,22.933 33.507,22.933 31.667 C 22.933 31.097,23.133 30.619,23.543 30.209 C 24.131 29.621,24.971 29.441,25.757 29.735 " stroke="none" fill-rule="evenodd" fill="black"></path></svg>