<svg width="40" height="40" viewBox="0 0 40 40" fill="none" xmlns="http://www.w3.org/2000/svg"><path d="M33.012 8.735 C 32.723 8.800,32.524 8.992,32.114 9.600 C 31.451 10.583,30.963 11.178,30.171 11.973 C 28.013 14.136,25.293 15.530,22.225 16.044 C 21.202 16.216,18.798 16.216,17.775 16.044 C 16.320 15.800,14.831 15.316,13.533 14.664 C 11.220 13.501,9.466 11.914,7.794 9.470 C 7.417 8.919,7.187 8.783,6.633 8.783 C 5.969 8.783,5.577 9.082,5.462 9.676 C 5.431 9.836,5.405 13.061,5.403 16.843 L 5.400 23.719 4.150 23.743 C 2.787 23.769,2.611 23.814,2.317 24.209 C 2.036 24.585,2.036 25.415,2.317 25.791 C 2.610 26.186,2.788 26.231,4.145 26.257 L 5.390 26.281 5.412 28.357 C 5.432 30.291,5.442 30.449,5.567 30.660 C 5.835 31.115,6.363 31.319,6.975 31.205 C 7.340 31.137,7.585 30.969,7.767 30.660 C 7.891 30.449,7.901 30.291,7.922 28.350 L 7.943 26.267 20.000 26.267 L 32.057 26.267 32.078 28.350 C 32.099 30.291,32.109 30.449,32.233 30.660 C 32.501 31.115,33.030 31.319,33.641 31.205 C 34.007 31.137,34.251 30.969,34.433 30.660 C 34.558 30.449,34.568 30.291,34.588 28.357 L 34.610 26.281 35.855 26.257 C 37.212 26.231,37.390 26.186,37.683 25.791 C 37.964 25.415,37.964 24.585,37.683 24.209 C 37.389 23.814,37.213 23.769,35.850 23.743 L 34.600 23.719 34.597 16.876 C 34.595 13.113,34.569 9.903,34.538 9.743 C 34.467 9.374,34.297 9.146,33.927 8.924 C 33.587 8.720,33.324 8.665,33.012 8.735 M9.800 15.271 C 10.446 15.755,11.426 16.386,11.838 16.582 L 12.067 16.691 12.067 20.212 L 12.067 23.733 10.000 23.733 L 7.933 23.733 7.933 18.695 L 7.933 13.657 8.550 14.226 C 8.889 14.539,9.452 15.009,9.800 15.271 M32.067 18.700 L 32.067 23.733 30.000 23.733 L 27.933 23.733 27.933 20.217 L 27.934 16.700 28.317 16.500 C 29.248 16.014,30.693 14.952,31.599 14.086 C 31.838 13.858,32.041 13.670,32.050 13.669 C 32.059 13.668,32.067 15.932,32.067 18.700 M15.167 18.001 C 16.008 18.243,16.696 18.390,17.504 18.501 C 17.942 18.561,18.397 18.625,18.517 18.642 L 18.733 18.673 18.733 21.203 L 18.733 23.733 16.667 23.733 L 14.600 23.733 14.600 20.800 C 14.600 19.187,14.623 17.867,14.650 17.867 C 14.678 17.867,14.910 17.927,15.167 18.001 M25.400 20.800 L 25.400 23.733 23.333 23.733 L 21.267 23.733 21.267 21.203 L 21.267 18.673 21.483 18.642 C 21.603 18.625,22.060 18.562,22.500 18.502 C 23.195 18.407,24.403 18.140,25.033 17.941 C 25.143 17.906,25.271 17.876,25.317 17.872 C 25.382 17.868,25.400 18.495,25.400 20.800 " stroke="none" fill-rule="evenodd" fill="black"></path></svg>