<svg width="40" height="40" viewBox="0 0 40 40" fill="none" xmlns="http://www.w3.org/2000/svg"><path d="M14.633 3.520 C 14.157 3.698,11.701 4.606,9.176 5.538 C 4.230 7.365,4.232 7.364,3.914 7.957 L 3.767 8.233 3.767 20.068 L 3.767 31.904 3.937 32.234 C 4.035 32.425,4.219 32.644,4.371 32.751 C 4.541 32.870,6.572 33.619,10.067 34.850 C 15.316 36.699,15.517 36.764,16.000 36.765 C 16.447 36.767,16.532 36.745,16.797 36.566 C 16.961 36.455,17.186 36.235,17.297 36.077 L 17.500 35.788 17.477 21.577 C 17.464 13.761,17.434 6.657,17.410 5.789 L 17.367 4.211 17.165 3.924 C 16.834 3.453,16.491 3.254,15.956 3.223 C 15.540 3.199,15.423 3.225,14.633 3.520 M15.009 19.999 C 15.046 27.633,15.065 33.890,15.051 33.905 C 15.030 33.926,7.981 31.482,6.650 30.992 L 6.267 30.850 6.267 20.064 L 6.267 9.278 6.550 9.171 C 8.599 8.402,14.905 6.089,14.920 6.102 C 14.932 6.111,14.971 12.365,15.009 19.999 M21.001 7.313 C 20.666 7.487,20.484 7.798,20.435 8.286 C 20.412 8.514,20.402 13.995,20.413 20.467 L 20.433 32.233 20.590 32.485 C 20.817 32.850,21.072 32.964,21.667 32.965 C 22.248 32.967,22.521 32.842,22.755 32.467 L 22.900 32.233 22.900 20.100 C 22.900 8.087,22.899 7.964,22.767 7.740 C 22.535 7.347,22.320 7.236,21.745 7.214 C 21.353 7.198,21.179 7.221,21.001 7.313 M27.668 7.313 C 27.332 7.487,27.151 7.798,27.102 8.286 C 27.078 8.514,27.069 13.995,27.080 20.467 L 27.100 32.233 27.245 32.467 C 27.479 32.841,27.752 32.967,28.333 32.967 C 28.914 32.967,29.188 32.841,29.421 32.467 L 29.567 32.233 29.567 20.100 C 29.567 8.087,29.565 7.964,29.433 7.740 C 29.202 7.347,28.987 7.236,28.412 7.214 C 28.019 7.198,27.846 7.221,27.668 7.313 M34.335 7.313 C 33.999 7.487,33.817 7.798,33.768 8.286 C 33.745 8.514,33.735 13.995,33.746 20.467 L 33.767 32.233 33.912 32.467 C 34.145 32.841,34.419 32.967,35.000 32.967 C 35.581 32.967,35.855 32.841,36.088 32.467 L 36.233 32.233 36.233 20.100 C 36.233 8.087,36.232 7.964,36.100 7.740 C 35.868 7.347,35.654 7.236,35.079 7.214 C 34.686 7.198,34.513 7.221,34.335 7.313 " stroke="none" fill-rule="evenodd" fill="black"></path></svg>