<svg width="40" height="40" viewBox="0 0 40 40" fill="none" xmlns="http://www.w3.org/2000/svg"><path d="M22.685 10.492 C 18.671 12.498,16.026 13.858,15.910 13.974 C 15.805 14.079,15.655 14.285,15.577 14.432 C 15.434 14.698,15.433 14.736,15.414 19.412 L 15.395 24.124 15.096 23.991 C 14.380 23.675,13.197 23.579,12.300 23.766 C 10.757 24.087,9.313 25.488,8.897 27.067 C 8.744 27.649,8.744 28.817,8.897 29.400 C 9.211 30.592,10.168 31.772,11.267 32.320 C 11.936 32.655,12.555 32.798,13.333 32.798 C 14.628 32.798,15.616 32.388,16.536 31.469 C 16.960 31.045,17.175 30.764,17.380 30.367 C 17.928 29.303,17.891 29.856,17.916 22.349 L 17.938 15.664 23.336 12.965 L 28.733 10.267 28.733 15.530 L 28.733 20.793 28.432 20.659 C 27.713 20.341,26.532 20.246,25.633 20.433 C 24.090 20.754,22.646 22.155,22.231 23.733 C 22.156 24.016,22.117 24.421,22.117 24.900 C 22.117 26.243,22.506 27.178,23.464 28.135 C 24.384 29.054,25.372 29.464,26.667 29.464 C 26.978 29.464,27.443 29.421,27.700 29.367 C 29.240 29.047,30.656 27.676,31.111 26.067 C 31.227 25.656,31.233 25.175,31.233 17.000 L 31.233 8.367 31.088 8.095 C 30.895 7.735,30.469 7.359,30.155 7.271 C 29.462 7.079,29.821 6.924,22.685 10.492 M27.498 22.992 C 27.894 23.167,28.311 23.563,28.521 23.962 C 28.675 24.255,28.699 24.379,28.699 24.900 C 28.699 25.421,28.675 25.545,28.521 25.838 C 28.142 26.558,27.478 26.960,26.667 26.960 C 25.856 26.960,25.191 26.558,24.812 25.838 C 24.658 25.545,24.635 25.421,24.635 24.900 C 24.635 24.379,24.658 24.255,24.812 23.962 C 25.094 23.426,25.614 23.011,26.181 22.869 C 26.528 22.782,27.155 22.840,27.498 22.992 M14.164 26.325 C 14.561 26.501,14.978 26.896,15.188 27.296 C 15.342 27.589,15.365 27.712,15.365 28.233 C 15.365 28.754,15.342 28.878,15.188 29.171 C 14.809 29.891,14.144 30.293,13.333 30.293 C 12.522 30.293,11.858 29.891,11.479 29.171 C 11.325 28.878,11.301 28.754,11.301 28.233 C 11.301 27.712,11.325 27.589,11.479 27.296 C 11.761 26.760,12.280 26.345,12.848 26.202 C 13.195 26.115,13.822 26.174,14.164 26.325 " stroke="none" fill-rule="evenodd" fill="black"></path></svg>