<svg width="40" height="40" viewBox="0 0 40 40" fill="none" xmlns="http://www.w3.org/2000/svg"><path d="M5.100 10.482 C 4.583 10.667,4.123 11.168,4.018 11.658 C 3.990 11.791,3.967 15.575,3.967 20.067 C 3.967 29.334,3.921 28.587,4.525 29.153 C 4.766 29.378,4.929 29.469,5.191 29.525 C 5.689 29.632,6.036 29.532,6.754 29.074 C 10.558 26.650,18.740 21.350,18.878 21.219 C 19.486 20.647,19.486 19.353,18.878 18.781 C 18.652 18.568,6.374 10.610,6.085 10.490 C 5.834 10.384,5.383 10.381,5.100 10.482 M21.767 10.482 C 21.250 10.667,20.789 11.168,20.685 11.658 C 20.657 11.791,20.633 15.575,20.633 20.067 C 20.633 29.334,20.587 28.587,21.192 29.153 C 21.432 29.378,21.596 29.469,21.858 29.525 C 22.356 29.632,22.702 29.532,23.421 29.074 C 27.225 26.650,35.407 21.350,35.545 21.219 C 35.811 20.968,36.013 20.442,36.013 20.000 C 36.013 19.557,35.811 19.032,35.545 18.781 C 35.319 18.568,23.041 10.610,22.752 10.490 C 22.500 10.384,22.049 10.381,21.767 10.482 M11.624 17.000 C 14.140 18.632,16.199 19.982,16.199 20.000 C 16.198 20.029,7.410 25.710,6.726 26.123 L 6.467 26.280 6.467 19.973 L 6.467 13.666 6.758 13.850 C 6.917 13.951,9.107 15.368,11.624 17.000 M28.291 17.000 C 30.807 18.632,32.866 19.982,32.865 20.000 C 32.865 20.029,24.077 25.710,23.393 26.123 L 23.133 26.280 23.133 19.973 L 23.133 13.666 23.424 13.850 C 23.584 13.951,25.774 15.368,28.291 17.000 " stroke="none" fill-rule="evenodd" fill="black"></path></svg>