<svg width="40" height="40" viewBox="0 0 40 40" fill="none" xmlns="http://www.w3.org/2000/svg"><path d="M13.315 7.139 C 12.947 7.226,12.713 7.363,12.484 7.624 C 12.076 8.088,12.100 7.318,12.100 20.000 C 12.100 32.774,12.072 31.917,12.512 32.405 C 12.986 32.929,12.547 32.900,20.000 32.900 C 27.453 32.900,27.014 32.929,27.488 32.405 C 27.928 31.917,27.900 32.774,27.900 20.000 C 27.900 10.379,27.884 8.322,27.810 8.111 C 27.685 7.757,27.357 7.404,27.000 7.239 C 26.703 7.101,26.636 7.100,20.133 7.089 C 16.416 7.083,13.457 7.105,13.315 7.139 M25.400 20.000 L 25.400 30.400 20.000 30.400 L 14.600 30.400 14.600 20.000 L 14.600 9.600 20.000 9.600 L 25.400 9.600 25.400 20.000 M3.315 12.137 C 2.945 12.227,2.712 12.364,2.484 12.624 C 2.084 13.079,2.100 12.771,2.100 20.000 C 2.100 27.453,2.071 27.014,2.595 27.488 C 3.046 27.895,3.088 27.900,6.067 27.900 C 8.647 27.900,8.777 27.894,8.993 27.767 C 9.448 27.499,9.653 26.970,9.538 26.359 C 9.470 25.993,9.302 25.749,8.993 25.567 C 8.782 25.442,8.625 25.432,6.683 25.412 L 4.600 25.390 4.600 20.000 L 4.600 14.610 6.683 14.588 C 8.625 14.568,8.782 14.558,8.993 14.433 C 9.448 14.165,9.653 13.637,9.538 13.025 C 9.470 12.660,9.302 12.415,8.993 12.233 C 8.778 12.107,8.635 12.099,6.167 12.088 C 4.737 12.081,3.453 12.104,3.315 12.137 M31.312 12.129 C 30.741 12.244,30.447 12.653,30.447 13.333 C 30.447 14.029,30.738 14.421,31.343 14.538 C 31.503 14.569,32.481 14.595,33.517 14.597 L 35.400 14.600 35.400 19.995 L 35.400 25.390 33.317 25.412 C 31.375 25.432,31.218 25.442,31.007 25.567 C 30.552 25.835,30.347 26.363,30.462 26.975 C 30.530 27.340,30.698 27.585,31.007 27.767 C 31.223 27.894,31.353 27.900,33.933 27.900 C 36.912 27.900,36.954 27.895,37.405 27.488 C 37.929 27.014,37.900 27.453,37.900 20.000 C 37.900 14.587,37.883 13.320,37.810 13.111 C 37.685 12.757,37.357 12.404,37.000 12.239 C 36.714 12.106,36.581 12.100,34.133 12.089 C 32.722 12.083,31.452 12.101,31.312 12.129 " stroke="none" fill-rule="evenodd" fill="black"></path></svg>