<svg width="40" height="40" viewBox="0 0 40 40" fill="none" xmlns="http://www.w3.org/2000/svg"><path d="M19.167 2.110 C 10.853 2.502,3.835 8.641,2.376 16.800 C 2.019 18.794,2.019 21.206,2.376 23.200 C 3.367 28.741,7.016 33.568,12.100 36.063 C 14.671 37.325,17.091 37.882,20.000 37.882 C 22.909 37.882,25.329 37.325,27.900 36.063 C 33.394 33.367,37.088 28.110,37.804 21.967 C 37.847 21.600,37.882 20.715,37.882 20.000 C 37.882 17.091,37.325 14.671,36.063 12.100 C 33.823 7.536,29.810 4.189,24.872 2.768 C 23.159 2.275,20.983 2.024,19.167 2.110 M22.600 4.799 C 25.159 5.251,27.645 6.370,29.633 7.964 C 30.270 8.474,31.453 9.653,31.978 10.300 C 33.330 11.966,34.414 14.123,34.933 16.177 C 35.299 17.627,35.366 18.219,35.366 20.000 C 35.366 21.781,35.299 22.373,34.933 23.823 C 34.424 25.837,33.347 27.997,32.036 29.633 C 31.526 30.270,30.347 31.453,29.700 31.978 C 28.034 33.330,25.877 34.414,23.823 34.933 C 22.373 35.299,21.781 35.366,20.000 35.366 C 18.219 35.366,17.627 35.299,16.177 34.933 C 14.164 34.425,12.010 33.351,10.367 32.037 C 9.726 31.525,8.540 30.344,8.020 29.700 C 6.374 27.662,5.264 25.210,4.791 22.567 C 4.656 21.809,4.636 21.486,4.636 20.000 C 4.636 18.514,4.656 18.191,4.791 17.433 C 5.264 14.790,6.374 12.338,8.020 10.300 C 8.540 9.656,9.726 8.475,10.367 7.963 C 12.374 6.358,14.913 5.219,17.400 4.809 C 18.579 4.614,18.604 4.612,20.267 4.633 C 21.454 4.648,21.940 4.683,22.600 4.799 M15.100 10.482 C 14.583 10.667,14.123 11.168,14.018 11.658 C 13.990 11.791,13.967 15.575,13.967 20.067 C 13.967 29.334,13.921 28.587,14.525 29.153 C 14.766 29.378,14.929 29.469,15.191 29.525 C 15.705 29.635,16.035 29.533,16.855 29.010 C 21.191 26.241,28.739 21.351,28.878 21.219 C 29.486 20.647,29.486 19.353,28.878 18.781 C 28.652 18.568,16.374 10.610,16.085 10.490 C 15.834 10.384,15.383 10.381,15.100 10.482 M21.624 17.000 C 24.140 18.632,26.199 19.982,26.199 20.000 C 26.198 20.029,17.410 25.710,16.726 26.123 L 16.467 26.280 16.467 19.973 L 16.467 13.666 16.758 13.850 C 16.917 13.951,19.107 15.368,21.624 17.000 " stroke="none" fill-rule="evenodd" fill="black"></path></svg>