<svg width="40" height="40" viewBox="0 0 40 40" fill="none" xmlns="http://www.w3.org/2000/svg"><path d="M21.867 7.530 C 21.738 7.555,21.528 7.630,21.400 7.696 C 21.272 7.762,20.026 8.952,18.631 10.341 L 16.096 12.867 11.531 12.868 C 6.468 12.869,6.449 12.870,5.543 13.301 C 4.290 13.896,3.314 15.115,3.034 16.435 C 2.891 17.112,2.890 23.679,3.033 24.367 C 3.350 25.891,4.706 27.304,6.300 27.772 C 6.660 27.878,7.143 27.892,11.123 27.916 L 15.546 27.942 18.357 30.051 C 19.902 31.211,21.300 32.235,21.462 32.326 C 21.690 32.454,21.850 32.490,22.165 32.487 C 22.821 32.481,23.338 32.151,23.608 31.567 C 23.725 31.311,23.730 30.838,23.731 20.067 C 23.732 12.349,23.710 8.754,23.662 8.579 C 23.576 8.270,23.196 7.834,22.871 7.671 C 22.580 7.525,22.178 7.469,21.867 7.530 M21.239 29.049 C 21.224 29.065,20.194 28.313,18.950 27.379 C 17.706 26.445,16.586 25.625,16.461 25.557 C 16.247 25.441,15.952 25.431,11.567 25.400 L 6.900 25.367 6.562 25.189 C 6.159 24.976,5.771 24.564,5.576 24.141 C 5.436 23.839,5.433 23.766,5.433 20.400 L 5.433 16.967 5.608 16.594 C 5.830 16.121,6.188 15.763,6.661 15.541 L 7.033 15.367 12.033 15.333 C 16.768 15.302,17.046 15.293,17.267 15.174 C 17.395 15.105,18.340 14.214,19.367 13.194 L 21.233 11.339 21.250 20.181 C 21.260 25.043,21.255 29.034,21.239 29.049 M31.100 14.611 C 30.844 14.704,30.681 14.848,30.544 15.100 C 30.453 15.267,30.431 15.581,30.412 16.983 L 30.388 18.667 28.911 18.670 C 27.317 18.673,26.949 18.713,26.676 18.915 C 26.395 19.123,26.300 19.380,26.300 19.933 C 26.300 20.486,26.395 20.744,26.676 20.952 C 26.949 21.154,27.317 21.194,28.917 21.197 L 30.400 21.200 30.403 22.683 C 30.406 24.283,30.446 24.651,30.648 24.924 C 30.856 25.205,31.114 25.300,31.667 25.300 C 32.220 25.300,32.477 25.205,32.685 24.924 C 32.887 24.651,32.927 24.283,32.930 22.683 L 32.933 21.200 34.417 21.197 C 36.016 21.194,36.384 21.154,36.657 20.952 C 36.938 20.744,37.033 20.486,37.033 19.933 C 37.033 19.380,36.938 19.123,36.657 18.915 C 36.384 18.713,36.016 18.673,34.417 18.670 L 32.933 18.667 32.930 17.183 C 32.929 16.367,32.902 15.569,32.871 15.409 C 32.804 15.062,32.625 14.802,32.361 14.670 C 32.118 14.548,31.366 14.513,31.100 14.611 " stroke="none" fill-rule="evenodd" fill="black"></path></svg>