<svg width="40" height="40" viewBox="0 0 40 40" fill="none" xmlns="http://www.w3.org/2000/svg"><path d="M19.767 2.244 C 19.208 2.375,19.191 2.391,14.109 7.458 C 10.336 11.220,9.016 12.576,8.909 12.800 C 8.768 13.096,8.766 13.156,8.748 17.735 L 8.729 22.370 6.910 22.823 C 4.933 23.315,4.446 23.504,3.779 24.040 C 3.075 24.605,2.467 25.551,2.218 26.467 C 2.110 26.862,2.100 27.322,2.100 31.767 C 2.100 37.237,2.082 37.024,2.595 37.488 C 3.087 37.932,1.737 37.900,20.000 37.900 C 38.263 37.900,36.913 37.932,37.405 37.488 C 37.918 37.024,37.900 37.237,37.900 31.767 C 37.900 27.322,37.890 26.863,37.782 26.474 C 37.522 25.532,36.887 24.556,36.179 24.010 C 35.497 23.484,35.044 23.309,33.097 22.825 L 31.271 22.370 31.252 17.735 L 31.233 13.100 31.085 12.800 C 30.885 12.397,21.010 2.517,20.667 2.377 C 20.391 2.264,19.954 2.200,19.767 2.244 M24.383 9.483 L 28.733 13.833 28.733 24.616 L 28.733 35.400 20.000 35.400 L 11.267 35.400 11.267 24.617 L 11.267 13.834 15.616 9.484 C 18.009 7.091,19.981 5.133,20.000 5.133 C 20.018 5.133,21.991 7.091,24.383 9.483 M19.646 12.130 C 19.329 12.193,19.073 12.379,18.900 12.674 C 18.783 12.873,18.764 13.047,18.743 14.143 L 18.719 15.386 17.476 15.410 C 16.380 15.431,16.207 15.449,16.007 15.567 C 15.698 15.748,15.530 15.993,15.462 16.359 C 15.347 16.970,15.552 17.499,16.007 17.766 C 16.207 17.884,16.380 17.902,17.478 17.924 L 18.723 17.948 18.745 20.024 C 18.765 21.958,18.776 22.115,18.900 22.326 C 19.168 22.781,19.696 22.986,20.308 22.872 C 20.674 22.803,20.918 22.635,21.100 22.326 C 21.224 22.115,21.235 21.958,21.255 20.024 L 21.277 17.948 22.522 17.924 C 23.879 17.897,24.056 17.852,24.350 17.458 C 24.630 17.082,24.630 16.251,24.350 15.875 C 24.056 15.481,23.880 15.436,22.517 15.410 L 21.267 15.386 21.264 14.343 C 21.261 13.176,21.209 12.800,21.017 12.543 C 20.754 12.189,20.198 12.022,19.646 12.130 M8.733 30.167 L 8.733 35.400 6.667 35.400 L 4.600 35.400 4.600 31.303 C 4.600 27.328,4.604 27.194,4.737 26.838 C 4.887 26.437,5.310 25.951,5.671 25.764 C 5.841 25.676,8.434 24.966,8.683 24.939 C 8.711 24.936,8.733 27.288,8.733 30.167 M32.733 25.302 C 33.412 25.471,34.091 25.664,34.243 25.731 C 34.604 25.890,35.003 26.294,35.205 26.705 L 35.367 27.033 35.385 31.217 L 35.403 35.400 33.335 35.400 L 31.267 35.400 31.267 30.162 C 31.267 25.205,31.273 24.926,31.383 24.959 C 31.447 24.979,32.055 25.133,32.733 25.302 " stroke="none" fill-rule="evenodd" fill="black"></path></svg>