<svg width="40" height="40" viewBox="0 0 40 40" fill="none" xmlns="http://www.w3.org/2000/svg"><path d="M19.361 2.138 C 18.796 2.205,18.139 2.434,17.625 2.742 C 17.142 3.030,16.364 3.809,16.075 4.292 C 15.239 5.688,15.224 7.618,16.038 8.970 C 16.166 9.182,16.247 9.377,16.219 9.403 C 16.190 9.429,16.047 9.488,15.900 9.535 C 15.229 9.746,13.757 10.595,13.003 11.206 C 12.767 11.397,12.564 11.525,12.552 11.490 C 12.541 11.455,12.419 11.236,12.282 11.003 C 11.977 10.484,11.214 9.711,10.708 9.408 C 9.288 8.558,7.378 8.558,5.958 9.408 C 5.476 9.697,4.697 10.476,4.408 10.958 C 3.558 12.378,3.558 14.288,4.408 15.708 C 4.697 16.191,5.476 16.970,5.958 17.258 C 6.722 17.716,7.898 17.990,8.651 17.887 L 8.954 17.846 8.907 18.173 C 8.748 19.262,8.748 20.738,8.907 21.827 L 8.954 22.154 8.651 22.113 C 7.898 22.010,6.722 22.284,5.958 22.742 C 5.476 23.030,4.697 23.809,4.408 24.292 C 3.558 25.712,3.558 27.622,4.408 29.042 C 4.697 29.524,5.476 30.303,5.958 30.592 C 7.378 31.442,9.288 31.442,10.708 30.592 C 11.214 30.289,11.977 29.516,12.282 28.997 C 12.419 28.764,12.541 28.545,12.552 28.510 C 12.564 28.475,12.767 28.603,13.003 28.794 C 13.240 28.986,13.703 29.309,14.033 29.513 C 14.363 29.717,14.644 29.894,14.658 29.906 C 14.672 29.917,14.094 31.399,13.375 33.197 C 11.963 36.726,11.923 36.864,12.196 37.311 C 12.383 37.618,12.857 37.872,13.321 37.914 C 13.795 37.957,14.063 37.839,14.296 37.481 C 14.385 37.345,15.019 35.823,15.705 34.100 C 16.391 32.377,16.976 30.940,17.005 30.908 C 17.034 30.875,17.255 30.896,17.512 30.956 C 18.305 31.142,19.005 31.214,20.000 31.214 C 20.995 31.214,21.695 31.142,22.488 30.956 C 22.745 30.896,22.966 30.875,22.995 30.908 C 23.024 30.940,23.609 32.377,24.295 34.100 C 24.981 35.823,25.615 37.345,25.704 37.481 C 25.937 37.839,26.205 37.957,26.679 37.914 C 27.143 37.872,27.617 37.618,27.804 37.311 C 28.077 36.864,28.037 36.726,26.625 33.197 C 25.906 31.399,25.328 29.917,25.342 29.906 C 25.356 29.894,25.637 29.717,25.967 29.513 C 26.297 29.309,26.760 28.986,26.997 28.794 C 27.233 28.603,27.436 28.475,27.448 28.510 C 27.459 28.545,27.581 28.764,27.718 28.997 C 28.023 29.516,28.786 30.289,29.292 30.592 C 30.712 31.442,32.622 31.442,34.042 30.592 C 34.524 30.303,35.303 29.524,35.592 29.042 C 36.442 27.622,36.442 25.712,35.592 24.292 C 35.303 23.809,34.524 23.030,34.042 22.742 C 33.278 22.284,32.102 22.010,31.349 22.113 L 31.046 22.154 31.093 21.827 C 31.252 20.738,31.252 19.262,31.093 18.173 L 31.046 17.846 31.349 17.887 C 32.102 17.990,33.278 17.716,34.042 17.258 C 34.524 16.970,35.303 16.191,35.592 15.708 C 36.442 14.288,36.442 12.378,35.592 10.958 C 35.303 10.476,34.524 9.697,34.042 9.408 C 32.622 8.558,30.712 8.558,29.292 9.408 C 28.786 9.711,28.023 10.484,27.718 11.003 C 27.581 11.236,27.459 11.455,27.448 11.490 C 27.436 11.525,27.233 11.397,26.997 11.206 C 26.243 10.595,24.771 9.746,24.100 9.535 C 23.953 9.488,23.810 9.429,23.781 9.403 C 23.753 9.377,23.834 9.182,23.962 8.970 C 24.751 7.659,24.760 5.715,23.983 4.389 C 23.035 2.771,21.269 1.911,19.361 2.138 M20.757 4.735 C 21.240 4.916,21.750 5.426,21.931 5.910 C 22.445 7.282,21.452 8.733,20.000 8.733 C 18.856 8.733,17.933 7.811,17.933 6.667 C 17.933 6.097,18.133 5.619,18.543 5.209 C 19.131 4.621,19.971 4.441,20.757 4.735 M9.090 11.402 C 9.574 11.583,10.084 12.093,10.265 12.577 C 10.559 13.362,10.379 14.202,9.790 14.790 C 8.489 16.092,6.267 15.174,6.267 13.333 C 6.267 12.764,6.467 12.286,6.876 11.876 C 7.464 11.288,8.305 11.108,9.090 11.402 M21.800 11.434 C 23.480 11.808,24.955 12.617,26.169 13.831 C 27.404 15.066,28.207 16.545,28.578 18.269 C 28.749 19.063,28.749 20.937,28.578 21.731 C 28.207 23.456,27.404 24.935,26.169 26.169 C 25.603 26.734,24.572 27.533,24.407 27.533 C 24.381 27.533,23.616 25.674,22.707 23.402 C 20.910 18.909,20.941 18.967,20.352 18.804 C 19.713 18.627,19.262 18.783,18.981 19.279 C 18.891 19.437,18.103 21.359,17.229 23.550 C 16.355 25.741,15.619 27.533,15.593 27.533 C 15.428 27.533,14.397 26.734,13.831 26.169 C 12.596 24.935,11.793 23.456,11.422 21.731 C 11.251 20.937,11.251 19.063,11.422 18.269 C 11.793 16.545,12.596 15.066,13.831 13.831 C 14.804 12.858,15.885 12.177,17.169 11.730 C 17.626 11.571,18.058 11.467,18.933 11.307 C 19.313 11.238,21.316 11.326,21.800 11.434 M32.423 11.402 C 32.907 11.583,33.417 12.093,33.598 12.577 C 34.111 13.948,33.118 15.400,31.667 15.400 C 30.522 15.400,29.600 14.478,29.600 13.333 C 29.600 12.764,29.800 12.286,30.210 11.876 C 30.798 11.288,31.638 11.108,32.423 11.402 M21.047 25.983 C 21.601 27.367,22.048 28.506,22.040 28.514 C 21.973 28.586,20.606 28.733,20.000 28.733 C 19.394 28.733,18.027 28.586,17.960 28.514 C 17.932 28.485,19.961 23.467,20.000 23.467 C 20.023 23.467,20.494 24.599,21.047 25.983 M9.090 24.735 C 9.574 24.916,10.084 25.426,10.265 25.910 C 10.559 26.696,10.379 27.536,9.790 28.124 C 8.489 29.426,6.267 28.507,6.267 26.667 C 6.267 26.097,6.467 25.619,6.876 25.209 C 7.464 24.621,8.305 24.441,9.090 24.735 M32.423 24.735 C 32.907 24.916,33.417 25.426,33.598 25.910 C 33.892 26.696,33.712 27.536,33.124 28.124 C 31.822 29.426,29.600 28.507,29.600 26.667 C 29.600 26.097,29.800 25.619,30.210 25.209 C 30.798 24.621,31.638 24.441,32.423 24.735 " stroke="none" fill-rule="evenodd" fill="black"></path></svg>