<svg width="40" height="40" viewBox="0 0 40 40" fill="none" xmlns="http://www.w3.org/2000/svg"><path d="M18.767 4.705 C 14.350 4.967,10.660 5.904,7.000 7.694 C 6.171 8.099,5.914 8.319,5.804 8.713 C 5.762 8.865,5.734 9.762,5.734 10.945 L 5.733 12.923 5.517 12.967 C 5.397 12.991,5.015 13.148,4.667 13.314 C 4.131 13.571,3.945 13.706,3.461 14.192 C 2.806 14.849,2.481 15.380,2.254 16.167 L 2.100 16.700 2.100 24.033 C 2.100 31.994,2.089 31.740,2.473 32.590 C 3.033 33.830,4.110 34.771,5.433 35.177 C 5.816 35.295,6.431 35.300,20.000 35.300 C 33.569 35.300,34.184 35.295,34.567 35.177 C 35.890 34.771,36.967 33.830,37.527 32.590 C 37.911 31.740,37.900 31.994,37.900 24.033 C 37.900 15.824,37.932 16.396,37.414 15.333 C 37.228 14.952,37.028 14.689,36.569 14.224 C 36.034 13.683,35.890 13.578,35.284 13.290 L 34.602 12.967 34.598 11.033 C 34.594 8.996,34.561 8.628,34.355 8.343 C 34.101 7.991,31.293 6.734,29.367 6.110 C 27.375 5.464,25.073 4.996,22.933 4.802 C 22.118 4.728,19.435 4.666,18.767 4.705 M22.567 7.275 C 25.643 7.531,28.770 8.350,31.550 9.626 L 32.067 9.863 32.067 11.365 L 32.067 12.867 20.150 12.850 L 8.233 12.833 8.215 11.360 L 8.198 9.887 8.782 9.616 C 10.419 8.857,12.536 8.158,14.372 7.770 C 17.044 7.206,19.769 7.041,22.567 7.275 M34.047 15.475 C 34.327 15.577,34.536 15.721,34.806 15.995 C 35.446 16.645,35.400 16.014,35.400 24.078 C 35.400 30.879,35.395 31.144,35.272 31.470 C 35.075 31.986,34.730 32.360,34.217 32.613 L 33.770 32.833 31.685 32.856 L 29.600 32.878 29.600 27.848 C 29.600 24.730,29.574 22.682,29.532 22.459 C 29.446 21.998,29.174 21.624,28.752 21.386 L 28.417 21.197 19.810 21.197 C 12.133 21.197,11.175 21.209,10.951 21.302 C 10.657 21.425,10.382 21.673,10.179 22.000 L 10.033 22.233 10.000 27.533 L 9.967 32.833 8.098 32.833 L 6.230 32.833 5.783 32.613 C 5.331 32.390,5.014 32.077,4.758 31.600 C 4.639 31.377,4.633 31.061,4.615 24.204 C 4.595 16.133,4.562 16.679,5.113 16.066 C 5.427 15.717,5.662 15.559,6.067 15.425 C 6.241 15.367,9.785 15.346,19.981 15.340 L 33.662 15.333 34.047 15.475 M18.733 28.267 L 18.733 32.868 15.617 32.851 L 12.500 32.833 12.483 28.250 L 12.466 23.667 15.600 23.667 L 18.733 23.667 18.733 28.267 M27.067 28.267 L 27.067 32.867 24.167 32.867 L 21.267 32.867 21.267 28.267 L 21.267 23.667 24.167 23.667 L 27.067 23.667 27.067 28.267 " stroke="none" fill-rule="evenodd" fill="black"></path></svg>