<svg width="40" height="40" viewBox="0 0 40 40" fill="none" xmlns="http://www.w3.org/2000/svg"><path d="M6.300 5.777 C 4.698 5.935,3.370 6.807,2.655 8.172 C 2.060 9.309,2.100 8.697,2.100 16.700 C 2.100 23.647,2.102 23.771,2.233 23.993 C 2.415 24.302,2.660 24.470,3.025 24.538 C 3.637 24.653,4.165 24.448,4.433 23.993 C 4.564 23.772,4.567 23.616,4.600 16.767 L 4.633 9.767 4.782 9.465 C 5.112 8.795,5.777 8.329,6.475 8.279 C 6.687 8.264,9.743 8.552,13.427 8.936 L 20.001 9.620 26.517 8.965 C 30.101 8.606,33.212 8.315,33.430 8.319 C 34.180 8.335,34.920 8.844,35.249 9.572 C 35.358 9.815,35.369 10.318,35.400 16.800 C 35.433 23.616,35.436 23.772,35.567 23.993 C 35.749 24.302,35.993 24.470,36.359 24.538 C 36.970 24.653,37.499 24.448,37.767 23.993 C 37.898 23.771,37.900 23.647,37.900 16.733 C 37.900 10.131,37.893 9.673,37.778 9.267 C 37.222 7.284,35.702 6.025,33.633 5.834 C 33.280 5.801,31.621 5.946,26.821 6.429 C 23.330 6.780,20.257 7.067,19.990 7.067 C 19.724 7.067,16.760 6.782,13.403 6.435 C 6.725 5.743,6.686 5.740,6.300 5.777 M16.375 11.628 C 16.064 11.743,15.715 12.068,15.553 12.394 C 15.441 12.617,15.433 12.951,15.433 17.300 L 15.433 21.967 15.620 22.285 C 15.884 22.733,16.244 22.955,16.764 22.988 C 17.070 23.007,17.239 22.983,17.406 22.897 C 17.766 22.712,24.282 18.535,24.459 18.376 C 24.697 18.162,24.932 17.611,24.932 17.267 C 24.932 16.875,24.677 16.332,24.391 16.115 C 24.124 15.914,17.732 11.837,17.469 11.701 C 17.184 11.554,16.669 11.519,16.375 11.628 M19.500 15.936 C 20.270 16.424,21.059 16.925,21.254 17.050 L 21.608 17.276 19.899 18.372 C 18.959 18.974,18.132 19.498,18.062 19.536 C 17.936 19.603,17.933 19.553,17.933 17.261 C 17.933 15.395,17.950 14.930,18.017 14.983 C 18.063 15.019,18.730 15.448,19.500 15.936 M5.967 27.129 C 5.365 27.207,5.021 27.318,4.435 27.622 C 3.710 27.998,2.998 28.709,2.621 29.435 C 2.163 30.316,2.108 30.620,2.104 32.300 C 2.100 33.651,2.111 33.785,2.233 33.993 C 2.412 34.297,2.659 34.470,3.009 34.538 C 3.169 34.569,4.815 34.594,6.667 34.594 C 8.518 34.594,10.164 34.569,10.324 34.538 C 10.674 34.470,10.921 34.297,11.100 33.993 C 11.223 33.785,11.233 33.651,11.229 32.300 C 11.225 30.620,11.170 30.316,10.712 29.435 C 10.181 28.411,9.066 27.522,7.967 27.244 C 7.466 27.117,6.493 27.061,5.967 27.129 M19.300 27.129 C 18.698 27.207,18.354 27.318,17.768 27.622 C 17.043 27.998,16.331 28.709,15.955 29.435 C 15.497 30.316,15.442 30.620,15.437 32.300 C 15.434 33.651,15.444 33.785,15.567 33.993 C 15.746 34.297,15.993 34.470,16.343 34.538 C 16.503 34.569,18.148 34.594,20.000 34.594 C 21.852 34.594,23.497 34.569,23.657 34.538 C 24.007 34.470,24.254 34.297,24.433 33.993 C 24.556 33.785,24.566 33.651,24.563 32.300 C 24.558 30.620,24.503 30.316,24.045 29.435 C 23.514 28.411,22.400 27.522,21.300 27.244 C 20.800 27.117,19.826 27.061,19.300 27.129 M32.589 27.137 C 31.641 27.267,30.765 27.707,30.070 28.403 C 29.023 29.449,28.686 30.559,28.745 32.758 C 28.768 33.614,28.792 33.808,28.903 33.996 C 29.079 34.297,29.327 34.471,29.676 34.538 C 29.836 34.569,31.482 34.594,33.333 34.594 C 35.185 34.594,36.831 34.569,36.991 34.538 C 37.341 34.470,37.588 34.297,37.767 33.993 C 37.889 33.785,37.900 33.651,37.896 32.300 C 37.892 30.620,37.837 30.316,37.379 29.435 C 36.847 28.411,35.733 27.522,34.633 27.244 C 34.109 27.111,33.146 27.061,32.589 27.137 M7.567 29.757 C 8.053 29.984,8.300 30.221,8.529 30.680 C 8.701 31.024,8.733 31.165,8.733 31.577 L 8.733 32.067 6.667 32.067 L 4.600 32.067 4.601 31.583 C 4.602 30.765,4.969 30.159,5.680 29.804 C 6.041 29.624,6.155 29.600,6.661 29.601 C 7.120 29.601,7.299 29.632,7.567 29.757 M20.900 29.757 C 21.387 29.984,21.633 30.221,21.863 30.680 C 22.035 31.024,22.067 31.165,22.067 31.577 L 22.067 32.067 20.000 32.067 L 17.933 32.067 17.934 31.583 C 17.935 30.765,18.302 30.159,19.013 29.804 C 19.374 29.624,19.488 29.600,19.994 29.601 C 20.454 29.601,20.633 29.632,20.900 29.757 M34.233 29.757 C 34.720 29.984,34.967 30.221,35.196 30.680 C 35.368 31.024,35.400 31.165,35.400 31.577 L 35.400 32.067 33.333 32.067 L 31.267 32.067 31.267 31.650 C 31.268 31.129,31.345 30.846,31.596 30.451 C 31.955 29.884,32.533 29.607,33.367 29.604 C 33.789 29.602,33.969 29.634,34.233 29.757 " stroke="none" fill-rule="evenodd" fill="black"></path></svg>