<svg width="40" height="40" viewBox="0 0 40 40" fill="none" xmlns="http://www.w3.org/2000/svg"><path d="M3.315 3.805 C 2.774 3.935,2.362 4.291,2.190 4.778 C 2.055 5.161,2.056 34.842,2.191 35.225 C 2.321 35.593,2.690 35.972,3.054 36.113 C 3.353 36.228,4.114 36.233,20.000 36.233 C 35.886 36.233,36.647 36.228,36.946 36.113 C 37.310 35.972,37.679 35.593,37.809 35.225 C 37.885 35.009,37.900 32.506,37.900 20.000 C 37.900 3.567,37.931 4.753,37.488 4.262 C 37.039 3.766,37.049 3.767,33.333 3.767 C 30.726 3.767,29.980 3.786,29.778 3.857 C 29.424 3.982,29.071 4.310,28.906 4.667 C 28.773 4.953,28.766 5.094,28.747 7.683 L 28.726 10.400 26.667 10.400 L 24.607 10.400 24.587 7.683 C 24.568 5.094,24.560 4.953,24.428 4.667 C 24.263 4.310,23.909 3.982,23.556 3.857 C 23.182 3.725,16.818 3.725,16.444 3.857 C 16.091 3.982,15.737 4.310,15.572 4.667 C 15.440 4.953,15.432 5.094,15.413 7.683 L 15.393 10.400 13.333 10.400 L 11.274 10.400 11.253 7.683 C 11.235 5.235,11.221 4.940,11.113 4.700 C 10.950 4.339,10.693 4.077,10.333 3.908 C 10.042 3.771,9.943 3.766,6.800 3.755 C 5.022 3.749,3.453 3.771,3.315 3.805 M8.733 8.333 L 8.733 10.400 6.667 10.400 L 4.600 10.400 4.600 8.333 L 4.600 6.267 6.667 6.267 L 8.733 6.267 8.733 8.333 M22.067 8.333 L 22.067 10.400 20.000 10.400 L 17.933 10.400 17.933 8.333 L 17.933 6.267 20.000 6.267 L 22.067 6.267 22.067 8.333 M35.400 8.333 L 35.400 10.400 33.333 10.400 L 31.267 10.400 31.267 8.333 L 31.267 6.267 33.333 6.267 L 35.400 6.267 35.400 8.333 M35.400 23.333 L 35.400 33.733 31.671 33.733 L 27.941 33.733 27.917 28.983 C 27.890 23.716,27.907 23.927,27.435 22.967 C 26.866 21.808,25.748 20.898,24.467 20.551 C 24.075 20.445,23.639 20.433,19.933 20.433 C 15.313 20.433,15.470 20.418,14.433 20.953 C 13.668 21.348,12.865 22.162,12.480 22.933 C 11.999 23.895,12.002 23.852,12.001 29.083 L 12.000 33.733 8.300 33.733 L 4.600 33.733 4.600 23.333 L 4.600 12.933 20.000 12.933 L 35.400 12.933 35.400 23.333 M24.090 23.069 C 24.574 23.250,25.084 23.760,25.265 24.243 C 25.396 24.594,25.400 24.746,25.400 29.169 L 25.400 33.733 19.931 33.733 L 14.462 33.733 14.481 29.117 C 14.500 24.562,14.502 24.496,14.642 24.192 C 14.903 23.629,15.420 23.173,16.000 22.996 C 16.092 22.968,17.868 22.942,19.947 22.939 C 23.591 22.934,23.741 22.938,24.090 23.069 " stroke="none" fill-rule="evenodd" fill="black"></path></svg>