<svg width="40" height="40" viewBox="0 0 40 40" fill="none" xmlns="http://www.w3.org/2000/svg"><path d="M19.467 3.778 C 16.900 3.911,14.510 4.877,12.586 6.559 C 10.577 8.316,9.244 10.791,8.867 13.467 C 8.764 14.195,8.764 15.805,8.867 16.533 C 9.509 21.085,12.815 24.772,17.267 25.898 C 17.615 25.986,18.087 26.079,18.317 26.104 L 18.733 26.151 18.733 29.937 L 18.733 33.723 16.650 33.745 C 14.709 33.765,14.551 33.776,14.340 33.900 C 13.885 34.168,13.681 34.696,13.795 35.308 C 13.863 35.674,14.031 35.918,14.340 36.100 C 14.562 36.230,14.687 36.233,20.000 36.233 C 25.313 36.233,25.438 36.230,25.660 36.100 C 25.969 35.918,26.137 35.674,26.205 35.308 C 26.319 34.696,26.115 34.168,25.660 33.900 C 25.449 33.776,25.291 33.765,23.350 33.745 L 21.267 33.723 21.267 29.937 L 21.267 26.151 21.683 26.104 C 22.669 25.995,24.098 25.535,25.125 24.996 C 28.435 23.259,30.619 20.183,31.133 16.533 C 31.236 15.805,31.236 14.195,31.133 13.467 C 30.491 8.915,27.169 5.212,22.733 4.104 C 21.763 3.862,20.426 3.728,19.467 3.778 M21.800 6.434 C 23.480 6.808,24.955 7.617,26.169 8.831 C 27.404 10.066,28.207 11.545,28.578 13.269 C 28.749 14.063,28.749 15.937,28.578 16.731 C 28.207 18.455,27.404 19.934,26.169 21.169 C 24.873 22.465,23.271 23.304,21.483 23.625 L 21.267 23.663 21.267 22.084 L 21.267 20.504 23.727 18.035 C 26.434 15.320,26.427 15.329,26.265 14.725 C 26.167 14.364,25.647 13.839,25.275 13.728 C 24.723 13.563,24.605 13.643,22.857 15.380 L 21.281 16.947 21.269 14.290 C 21.263 12.829,21.233 11.503,21.203 11.343 C 21.090 10.740,20.697 10.447,20.000 10.447 C 19.499 10.447,19.212 10.568,18.983 10.876 C 18.792 11.131,18.740 11.508,18.736 12.630 L 18.733 13.627 17.150 12.054 C 15.833 10.745,15.519 10.467,15.283 10.396 C 14.876 10.275,14.533 10.394,14.130 10.797 C 13.732 11.195,13.621 11.514,13.733 11.936 C 13.803 12.202,14.072 12.495,16.270 14.700 L 18.728 17.167 18.729 20.415 L 18.731 23.663 18.515 23.624 C 16.729 23.305,15.126 22.464,13.831 21.169 C 12.596 19.934,11.793 18.455,11.422 16.731 C 11.251 15.937,11.251 14.063,11.422 13.269 C 11.996 10.603,13.758 8.323,16.146 7.155 C 16.994 6.740,17.641 6.543,18.933 6.307 C 19.313 6.238,21.316 6.326,21.800 6.434 " stroke="none" fill-rule="evenodd" fill="black"></path></svg>