<svg width="40" height="40" viewBox="0 0 40 40" fill="none" xmlns="http://www.w3.org/2000/svg"><path d="M22.591 8.252 C 22.242 8.432,22.137 8.571,18.023 14.327 C 15.084 18.438,13.788 20.303,13.733 20.503 C 13.629 20.872,13.727 21.190,14.042 21.504 C 14.658 22.120,15.416 22.150,15.884 21.577 C 15.949 21.498,17.626 19.161,19.612 16.383 C 21.598 13.606,23.241 11.333,23.262 11.333 C 23.296 11.333,34.326 29.255,34.389 29.410 C 34.401 29.440,31.431 29.473,27.789 29.482 C 20.502 29.502,20.922 29.477,20.628 29.913 C 20.359 30.312,20.370 31.147,20.648 31.524 C 20.942 31.921,20.486 31.898,28.700 31.919 C 34.237 31.933,36.308 31.918,36.514 31.861 C 36.874 31.762,37.318 31.382,37.474 31.037 C 37.621 30.714,37.639 30.088,37.510 29.781 C 37.347 29.395,24.662 8.773,24.445 8.542 C 23.969 8.036,23.232 7.920,22.591 8.252 M9.800 19.714 C 9.554 19.752,9.258 19.875,9.042 20.030 C 8.845 20.170,2.660 29.373,2.492 29.775 C 2.362 30.088,2.378 30.712,2.526 31.037 C 2.677 31.370,3.112 31.753,3.457 31.856 C 3.792 31.956,17.045 31.966,17.404 31.867 C 17.728 31.777,18.192 31.366,18.341 31.037 C 18.490 30.709,18.505 30.087,18.371 29.767 C 18.207 29.375,11.148 20.145,10.876 19.967 C 10.573 19.769,10.126 19.664,9.800 19.714 M12.627 26.233 L 15.060 29.433 12.735 29.451 C 11.456 29.460,9.343 29.460,8.038 29.451 L 5.667 29.433 7.850 26.154 C 9.546 23.607,10.051 22.893,10.114 22.954 C 10.158 22.998,11.289 24.473,12.627 26.233 " stroke="none" fill-rule="evenodd" fill="black"></path></svg>