<svg width="40" height="40" viewBox="0 0 40 40" fill="none" xmlns="http://www.w3.org/2000/svg"><path d="M19.900 2.167 C 19.863 2.179,19.718 2.208,19.577 2.232 C 19.388 2.264,17.444 3.527,12.132 7.068 C 5.426 11.539,4.929 11.883,4.756 12.178 C 4.344 12.881,4.530 13.828,5.164 14.265 C 5.322 14.374,5.582 14.493,5.742 14.530 C 6.144 14.622,33.856 14.622,34.258 14.530 C 35.291 14.291,35.788 13.107,35.244 12.178 C 35.071 11.883,34.574 11.539,27.868 7.068 C 22.568 3.535,20.611 2.264,20.423 2.232 C 20.282 2.208,20.122 2.179,20.067 2.167 C 20.012 2.155,19.937 2.155,19.900 2.167 M25.442 8.450 L 30.817 12.033 25.409 12.050 C 22.434 12.060,17.566 12.060,14.591 12.050 L 9.183 12.033 14.541 8.455 C 17.489 6.486,19.938 4.874,19.983 4.871 C 20.029 4.869,22.486 6.479,25.442 8.450 M7.112 17.129 C 6.972 17.157,6.777 17.240,6.679 17.313 C 6.280 17.608,6.300 17.254,6.300 24.167 C 6.300 31.141,6.276 30.744,6.713 31.038 C 7.112 31.307,7.947 31.297,8.324 31.018 C 8.717 30.727,8.698 31.054,8.720 24.300 C 8.740 17.908,8.734 17.732,8.477 17.443 C 8.230 17.166,7.624 17.026,7.112 17.129 M15.446 17.129 C 15.306 17.157,15.111 17.240,15.012 17.313 C 14.614 17.608,14.633 17.254,14.633 24.167 C 14.633 31.141,14.610 30.744,15.046 31.038 C 15.446 31.307,16.281 31.297,16.657 31.018 C 17.051 30.727,17.032 31.054,17.053 24.300 C 17.074 17.908,17.067 17.732,16.810 17.443 C 16.563 17.166,15.957 17.026,15.446 17.129 M23.779 17.129 C 23.639 17.157,23.444 17.240,23.346 17.313 C 22.947 17.608,22.967 17.254,22.967 24.167 C 22.967 31.141,22.943 30.744,23.380 31.038 C 23.779 31.307,24.614 31.297,24.991 31.018 C 25.384 30.727,25.365 31.054,25.387 24.300 C 25.407 17.908,25.401 17.732,25.144 17.443 C 24.897 17.166,24.291 17.026,23.779 17.129 M32.112 17.129 C 31.972 17.157,31.777 17.240,31.679 17.313 C 31.280 17.608,31.300 17.254,31.300 24.167 C 31.300 31.141,31.276 30.744,31.713 31.038 C 32.112 31.307,32.947 31.297,33.324 31.018 C 33.717 30.727,33.698 31.054,33.720 24.300 C 33.740 17.908,33.734 17.732,33.477 17.443 C 33.230 17.166,32.624 17.026,32.112 17.129 M4.646 33.797 C 4.076 33.909,3.780 34.319,3.780 35.000 C 3.780 35.770,4.126 36.155,4.886 36.232 C 5.114 36.255,12.080 36.264,20.367 36.253 C 35.295 36.234,35.435 36.232,35.660 36.100 C 36.115 35.832,36.319 35.304,36.205 34.692 C 36.137 34.326,35.969 34.082,35.660 33.900 C 35.435 33.768,35.305 33.767,20.167 33.757 C 11.770 33.752,4.786 33.770,4.646 33.797 " stroke="none" fill-rule="evenodd" fill="black"></path></svg>