<svg width="40" height="40" viewBox="0 0 40 40" fill="none" xmlns="http://www.w3.org/2000/svg"><path d="M19.646 2.130 C 19.330 2.193,19.074 2.379,18.900 2.674 C 18.775 2.885,18.765 3.042,18.745 5.050 L 18.724 7.200 18.545 7.240 C 15.490 7.932,13.095 10.514,12.332 13.939 C 12.192 14.568,12.053 16.123,12.111 16.413 C 12.136 16.537,12.071 16.752,11.898 17.113 C 11.535 17.871,11.290 18.570,11.128 19.313 C 10.999 19.898,10.981 20.230,10.952 22.488 L 10.919 25.008 10.554 25.588 C 9.870 26.670,9.393 27.768,9.110 28.907 C 8.795 30.175,8.768 30.562,8.767 33.933 C 8.767 36.981,8.772 37.109,8.900 37.326 C 9.079 37.630,9.326 37.804,9.676 37.871 C 10.056 37.945,29.944 37.945,30.324 37.871 C 30.674 37.804,30.921 37.630,31.100 37.326 C 31.228 37.109,31.233 36.981,31.233 33.933 C 31.232 30.562,31.205 30.175,30.890 28.907 C 30.607 27.767,30.130 26.670,29.446 25.587 L 29.080 25.007 29.047 22.520 C 29.011 19.821,28.969 19.423,28.604 18.335 C 28.499 18.022,28.287 17.503,28.133 17.180 C 27.923 16.743,27.861 16.540,27.886 16.380 C 27.904 16.263,27.891 15.796,27.858 15.344 C 27.561 11.307,24.977 8.040,21.450 7.239 L 21.267 7.197 21.264 5.249 C 21.261 3.186,21.228 2.825,21.017 2.543 C 20.754 2.189,20.198 2.022,19.646 2.130 M21.400 9.800 C 22.596 10.203,23.599 11.043,24.382 12.300 C 24.588 12.631,24.933 13.365,24.933 13.473 C 24.933 13.504,24.626 13.367,24.250 13.169 C 23.078 12.550,22.035 12.244,20.743 12.140 C 18.966 11.997,17.330 12.334,15.750 13.169 C 15.374 13.367,15.067 13.504,15.067 13.473 C 15.067 13.365,15.412 12.631,15.618 12.300 C 16.406 11.036,17.440 10.172,18.600 9.809 C 19.222 9.614,19.283 9.607,20.167 9.632 C 20.769 9.648,21.074 9.690,21.400 9.800 M21.733 14.822 C 22.899 15.170,23.839 15.721,24.614 16.511 C 25.419 17.332,25.850 18.013,26.197 19.013 C 26.458 19.769,26.529 20.224,26.579 21.498 L 26.622 22.563 26.461 22.458 C 25.177 21.617,24.011 21.087,22.759 20.777 C 21.790 20.536,21.083 20.454,20.000 20.454 C 17.614 20.454,15.686 21.051,13.539 22.458 L 13.378 22.563 13.420 21.459 C 13.464 20.269,13.574 19.597,13.840 18.885 C 14.655 16.704,16.601 15.088,18.922 14.664 C 19.093 14.633,19.668 14.617,20.200 14.630 C 20.996 14.649,21.266 14.683,21.733 14.822 M21.383 23.034 C 23.189 23.327,24.857 24.185,26.169 25.498 C 27.180 26.509,27.898 27.680,28.325 29.017 C 28.682 30.132,28.733 30.651,28.733 33.150 L 28.733 35.400 26.672 35.400 L 24.611 35.400 24.583 32.317 C 24.553 28.908,24.549 28.877,24.102 27.967 C 23.530 26.803,22.386 25.875,21.133 25.559 C 20.561 25.414,19.439 25.414,18.867 25.559 C 17.613 25.875,16.471 26.801,15.898 27.967 C 15.451 28.876,15.447 28.907,15.417 32.317 L 15.389 35.400 13.328 35.400 L 11.267 35.400 11.267 33.150 C 11.267 30.651,11.318 30.132,11.675 29.017 C 12.396 26.762,14.015 24.888,16.167 23.815 C 16.822 23.489,17.834 23.160,18.557 23.038 C 19.294 22.914,20.634 22.912,21.383 23.034 M20.757 28.069 C 21.240 28.250,21.750 28.760,21.931 29.243 C 22.060 29.586,22.067 29.754,22.067 32.503 L 22.067 35.400 20.000 35.400 L 17.933 35.400 17.933 32.503 C 17.933 29.142,17.931 29.154,18.543 28.543 C 19.131 27.955,19.971 27.775,20.757 28.069 " stroke="none" fill-rule="evenodd" fill="black"></path></svg>