<svg width="40" height="40" viewBox="0 0 40 40" fill="none" xmlns="http://www.w3.org/2000/svg"><path d="M19.646 2.130 C 19.330 2.193,19.074 2.379,18.900 2.674 C 18.774 2.887,18.767 3.020,18.767 5.000 C 18.767 6.980,18.774 7.113,18.900 7.326 C 19.168 7.781,19.696 7.986,20.308 7.872 C 20.674 7.803,20.918 7.635,21.100 7.326 C 21.222 7.119,21.235 6.957,21.256 5.367 C 21.282 3.350,21.247 2.890,21.045 2.589 C 20.781 2.198,20.228 2.016,19.646 2.130 M8.367 4.277 C 8.156 4.393,7.731 4.816,7.628 5.013 C 7.516 5.226,7.505 5.649,7.604 5.912 C 7.695 6.154,10.425 8.898,10.707 9.032 C 10.975 9.159,11.418 9.162,11.653 9.039 C 11.861 8.930,12.283 8.501,12.392 8.288 C 12.498 8.081,12.484 7.624,12.365 7.373 C 12.232 7.092,9.487 4.362,9.246 4.271 C 9.004 4.180,8.538 4.183,8.367 4.277 M30.700 4.304 C 30.422 4.446,27.756 7.118,27.633 7.376 C 27.507 7.642,27.505 8.085,27.628 8.320 C 27.737 8.528,28.166 8.950,28.379 9.059 C 28.585 9.164,29.042 9.151,29.293 9.032 C 29.575 8.898,32.305 6.154,32.396 5.912 C 32.495 5.649,32.484 5.226,32.372 5.013 C 32.263 4.806,31.834 4.384,31.621 4.275 C 31.413 4.168,30.934 4.183,30.700 4.304 M19.467 8.778 C 14.561 9.032,10.336 12.449,9.131 17.137 C 8.791 18.462,8.784 18.590,8.741 23.890 L 8.700 28.880 8.133 29.029 C 6.095 29.564,4.264 31.003,3.239 32.875 C 2.766 33.738,2.200 35.645,2.200 36.374 C 2.200 37.100,2.734 37.728,3.470 37.867 C 3.980 37.964,36.148 37.957,36.600 37.861 C 37.304 37.710,37.800 37.098,37.800 36.380 C 37.800 35.944,37.497 34.670,37.200 33.856 C 36.641 32.325,35.589 31.015,34.158 30.070 C 33.378 29.555,32.704 29.249,31.867 29.029 L 31.300 28.880 31.259 23.890 C 31.227 19.836,31.200 18.787,31.116 18.300 C 30.418 14.231,27.851 11.028,24.094 9.541 C 22.701 8.989,20.953 8.701,19.467 8.778 M21.383 11.367 C 23.189 11.660,24.857 12.518,26.169 13.831 C 27.180 14.842,27.898 16.013,28.325 17.350 C 28.723 18.593,28.733 18.759,28.733 23.983 L 28.733 28.733 20.000 28.733 L 11.267 28.733 11.267 23.983 C 11.267 18.759,11.277 18.593,11.675 17.350 C 12.396 15.096,14.015 13.221,16.167 12.149 C 16.822 11.822,17.834 11.493,18.557 11.371 C 19.294 11.248,20.634 11.246,21.383 11.367 M2.800 11.550 C 2.680 11.633,2.495 11.862,2.391 12.059 C 2.072 12.660,2.152 13.281,2.587 13.591 C 2.692 13.665,3.574 14.073,4.548 14.496 C 6.022 15.137,6.375 15.267,6.650 15.267 C 7.083 15.267,7.361 15.075,7.609 14.607 C 7.928 14.007,7.848 13.386,7.413 13.076 C 7.308 13.001,6.426 12.594,5.452 12.170 C 3.481 11.313,3.232 11.255,2.800 11.550 M36.428 11.474 C 36.085 11.535,32.831 12.838,32.582 13.013 C 32.168 13.307,32.074 13.955,32.363 14.527 C 32.644 15.080,32.906 15.236,33.500 15.203 C 33.742 15.189,37.157 13.839,37.418 13.654 C 37.830 13.361,37.926 12.710,37.640 12.148 C 37.346 11.571,36.991 11.374,36.428 11.474 M31.048 31.399 C 32.744 31.806,34.145 32.986,34.784 34.545 C 34.893 34.814,35.003 35.116,35.026 35.217 L 35.069 35.400 20.001 35.400 C 11.714 35.400,4.933 35.375,4.933 35.344 C 4.933 35.227,5.190 34.549,5.367 34.199 C 6.065 32.815,7.380 31.781,8.920 31.402 C 9.412 31.282,9.868 31.276,19.967 31.272 C 30.229 31.268,30.514 31.271,31.048 31.399 " stroke="none" fill-rule="evenodd" fill="black"></path></svg>