<svg width="40" height="40" viewBox="0 0 40 40" fill="none" xmlns="http://www.w3.org/2000/svg"><path d="M9.667 2.110 C 8.053 2.275,6.719 3.157,6.007 4.529 C 5.468 5.568,5.500 5.116,5.500 11.667 C 5.500 18.217,5.468 17.765,6.007 18.805 C 6.467 19.691,7.261 20.432,8.210 20.860 C 8.996 21.214,9.032 21.217,13.083 21.248 L 16.867 21.276 16.867 25.836 C 16.867 30.254,16.862 30.406,16.731 30.757 C 16.550 31.240,16.040 31.750,15.557 31.931 C 15.204 32.063,15.057 32.067,9.901 32.067 L 4.608 32.067 4.587 30.738 C 4.564 29.261,4.542 29.183,4.068 28.906 C 3.746 28.717,2.959 28.732,2.635 28.932 C 2.184 29.211,2.171 29.279,2.133 31.417 C 2.115 32.471,2.115 34.196,2.133 35.250 C 2.171 37.388,2.184 37.456,2.635 37.735 C 2.959 37.935,3.746 37.949,4.068 37.761 C 4.542 37.483,4.564 37.405,4.587 35.932 L 4.608 34.607 10.087 34.584 C 15.027 34.563,15.606 34.549,15.967 34.446 C 17.241 34.081,18.339 33.178,18.902 32.033 C 19.374 31.074,19.357 31.284,19.384 26.021 L 19.408 21.276 23.454 21.249 C 27.953 21.219,27.801 21.234,28.800 20.747 C 29.182 20.561,29.443 20.362,29.909 19.902 C 30.432 19.385,30.560 19.211,30.823 18.667 C 30.991 18.318,31.148 17.908,31.172 17.756 L 31.215 17.478 32.930 17.456 L 34.644 17.433 34.970 17.232 C 35.555 16.870,35.569 16.835,36.703 12.833 C 37.274 10.817,37.758 9.017,37.778 8.833 C 37.798 8.650,37.782 8.378,37.742 8.230 C 37.650 7.889,37.269 7.440,36.910 7.248 C 36.640 7.103,36.573 7.100,33.950 7.079 L 31.267 7.058 31.267 6.575 C 31.267 5.841,31.155 5.363,30.821 4.667 C 30.559 4.121,30.433 3.950,29.909 3.431 C 29.443 2.971,29.182 2.772,28.800 2.586 C 27.736 2.068,28.537 2.107,18.700 2.096 C 13.860 2.090,9.795 2.096,9.667 2.110 M27.435 4.711 C 27.902 4.870,28.474 5.450,28.657 5.949 C 28.795 6.326,28.797 6.407,28.796 11.670 C 28.795 16.914,28.792 17.016,28.656 17.388 C 28.556 17.659,28.410 17.872,28.139 18.139 C 27.483 18.785,28.336 18.733,18.389 18.733 C 9.943 18.733,9.657 18.729,9.330 18.605 C 8.814 18.409,8.440 18.063,8.187 17.550 L 7.967 17.103 7.967 11.668 L 7.967 6.233 8.119 5.904 C 8.322 5.462,8.530 5.200,8.856 4.974 C 9.416 4.586,8.896 4.606,18.371 4.603 C 26.351 4.600,27.138 4.610,27.435 4.711 M34.984 9.717 C 34.967 9.781,34.628 10.981,34.231 12.383 L 33.510 14.933 32.388 14.933 L 31.267 14.933 31.267 12.267 L 31.267 9.600 33.141 9.600 C 34.894 9.600,35.014 9.608,34.984 9.717 " stroke="none" fill-rule="evenodd" fill="black"></path></svg>