<svg width="40" height="40" viewBox="0 0 40 40" fill="none" xmlns="http://www.w3.org/2000/svg"><path d="M19.551 1.369 C 18.965 1.527,18.605 1.758,17.646 2.590 C 15.782 4.206,14.856 4.868,13.563 5.508 C 12.284 6.141,11.819 6.229,9.767 6.229 C 8.486 6.229,7.908 6.198,6.870 6.070 C 5.755 5.933,5.510 5.922,5.124 5.988 C 3.960 6.187,3.041 6.952,2.659 8.039 C 2.421 8.716,2.142 12.142,2.089 15.033 C 2.046 17.376,2.123 18.604,2.430 20.467 C 2.848 23.002,4.606 26.430,6.870 29.128 C 8.798 31.424,12.916 34.939,16.430 37.286 C 18.270 38.516,18.876 38.744,20.333 38.756 C 21.501 38.765,22.281 38.567,23.203 38.027 C 23.691 37.740,25.468 36.432,26.531 35.576 C 28.817 33.735,32.172 30.513,33.344 29.033 C 35.021 26.917,36.303 24.587,37.142 22.133 C 37.777 20.274,38.047 16.888,37.875 12.933 C 37.780 10.744,37.567 8.584,37.396 8.088 C 37.015 6.981,36.032 6.165,34.882 6.002 C 34.414 5.936,33.698 5.976,32.400 6.142 C 31.630 6.241,29.826 6.239,29.138 6.139 C 28.399 6.031,28.132 5.940,27.098 5.436 C 25.926 4.865,24.323 3.716,22.733 2.307 C 22.422 2.030,22.029 1.729,21.862 1.638 C 21.211 1.282,20.277 1.174,19.551 1.369 M20.647 3.850 C 20.764 3.914,21.169 4.239,21.547 4.573 C 23.895 6.646,26.468 8.173,28.160 8.497 C 29.550 8.763,31.206 8.786,33.067 8.566 C 33.525 8.512,34.075 8.468,34.288 8.467 C 34.626 8.467,34.702 8.491,34.864 8.653 C 34.997 8.787,35.063 8.934,35.093 9.170 C 35.229 10.219,35.342 11.807,35.407 13.567 C 35.506 16.271,35.437 17.817,35.124 19.863 C 34.796 22.005,33.294 25.076,31.404 27.467 C 30.340 28.812,27.005 31.996,24.867 33.708 C 22.981 35.218,21.941 35.933,21.333 36.136 C 20.732 36.337,19.743 36.298,19.195 36.051 C 18.393 35.691,15.588 33.706,13.779 32.218 C 12.605 31.253,10.368 29.224,9.561 28.391 C 8.039 26.822,6.632 24.709,5.740 22.654 C 5.053 21.069,4.885 20.412,4.655 18.400 C 4.542 17.405,4.543 14.066,4.658 12.539 C 4.822 10.365,4.977 8.900,5.061 8.744 C 5.218 8.451,5.488 8.398,6.289 8.503 C 8.764 8.828,11.020 8.825,12.679 8.495 C 14.426 8.147,16.630 6.805,19.316 4.451 C 19.919 3.924,20.175 3.750,20.367 3.738 C 20.403 3.735,20.529 3.786,20.647 3.850 " stroke="none" fill-rule="evenodd" fill="black"></path></svg>