<svg width="40" height="40" viewBox="0 0 40 40" fill="none" xmlns="http://www.w3.org/2000/svg"><path d="M18.833 2.135 C 10.588 2.629,3.679 8.893,2.330 17.096 C 2.106 18.462,2.058 20.030,2.080 25.367 C 2.099 30.294,2.104 30.440,2.233 30.660 C 2.501 31.115,3.030 31.319,3.641 31.205 C 4.007 31.137,4.251 30.969,4.433 30.660 C 4.563 30.439,4.568 30.278,4.604 24.333 C 4.645 17.646,4.629 17.924,5.072 16.173 C 5.591 14.117,6.669 11.971,8.021 10.300 C 8.542 9.656,9.726 8.476,10.367 7.963 C 12.001 6.654,14.155 5.582,16.173 5.071 C 17.676 4.692,18.147 4.638,20.000 4.638 C 21.853 4.638,22.324 4.692,23.827 5.071 C 25.845 5.582,28.001 6.655,29.633 7.964 C 30.270 8.474,31.453 9.653,31.978 10.300 C 33.327 11.963,34.409 14.115,34.928 16.173 C 35.304 17.662,35.345 18.053,35.391 20.633 C 35.430 22.870,35.442 23.049,35.567 23.260 C 35.814 23.679,36.004 23.767,36.667 23.767 C 37.330 23.767,37.520 23.679,37.767 23.260 C 37.885 23.059,37.903 22.888,37.923 21.733 C 37.952 20.121,37.845 18.156,37.670 17.096 C 36.730 11.388,33.093 6.489,27.900 3.936 C 25.728 2.869,23.507 2.284,21.050 2.133 C 19.948 2.065,20.001 2.065,18.833 2.135 M19.200 10.470 C 16.953 10.648,14.856 11.623,13.239 13.239 C 11.934 14.544,11.006 16.242,10.637 18.000 C 10.442 18.933,10.393 20.236,10.413 23.967 C 10.433 27.494,10.438 27.642,10.567 27.860 C 10.835 28.315,11.363 28.519,11.975 28.405 C 12.340 28.337,12.585 28.169,12.767 27.860 C 12.895 27.641,12.901 27.476,12.939 23.233 C 12.978 18.765,12.980 18.730,13.244 17.900 C 13.948 15.680,15.662 13.965,17.901 13.241 C 19.162 12.833,20.838 12.833,22.099 13.241 C 24.338 13.965,26.052 15.680,26.756 17.900 C 26.815 18.083,26.899 18.368,26.944 18.533 C 27.006 18.760,27.035 20.872,27.063 27.133 C 27.099 35.279,27.102 35.438,27.233 35.660 C 27.415 35.969,27.660 36.137,28.025 36.205 C 28.637 36.319,29.165 36.115,29.433 35.660 C 29.564 35.437,29.567 35.295,29.586 27.867 C 29.606 20.224,29.581 19.085,29.364 18.024 C 28.813 15.324,26.968 12.870,24.506 11.560 C 22.875 10.693,21.071 10.322,19.200 10.470 M19.646 17.130 C 19.330 17.193,19.074 17.379,18.900 17.674 C 18.770 17.894,18.767 18.020,18.767 22.500 C 18.767 26.980,18.770 27.106,18.900 27.326 C 19.082 27.635,19.326 27.803,19.692 27.872 C 20.304 27.986,20.832 27.781,21.100 27.326 C 21.229 27.107,21.234 26.960,21.254 22.867 C 21.266 20.538,21.256 18.447,21.233 18.219 C 21.163 17.544,20.827 17.185,20.200 17.114 C 20.035 17.096,19.786 17.103,19.646 17.130 M36.312 26.464 C 35.996 26.526,35.740 26.712,35.567 27.007 C 35.443 27.216,35.433 27.353,35.433 28.833 C 35.433 30.313,35.443 30.450,35.567 30.660 C 35.749 30.969,35.993 31.137,36.359 31.205 C 36.971 31.319,37.499 31.115,37.766 30.660 C 37.883 30.461,37.902 30.285,37.924 29.213 C 37.962 27.297,37.874 26.881,37.366 26.594 C 37.121 26.455,36.652 26.397,36.312 26.464 M11.196 30.193 C 10.881 30.296,10.746 30.397,10.589 30.649 C 10.434 30.899,10.433 30.906,10.433 33.167 C 10.433 35.313,10.440 35.445,10.567 35.660 C 10.835 36.115,11.363 36.319,11.975 36.205 C 12.340 36.137,12.585 35.969,12.767 35.660 C 12.893 35.445,12.900 35.313,12.900 33.167 C 12.900 30.953,12.897 30.895,12.755 30.667 C 12.675 30.538,12.514 30.377,12.397 30.308 C 12.162 30.170,11.470 30.103,11.196 30.193 M19.646 30.464 C 19.330 30.526,19.074 30.712,18.900 31.007 C 18.772 31.224,18.767 31.353,18.767 34.167 C 18.767 36.980,18.772 37.109,18.900 37.326 C 19.168 37.781,19.696 37.986,20.308 37.872 C 20.674 37.803,20.918 37.635,21.100 37.326 C 21.226 37.112,21.235 36.958,21.255 34.533 C 21.280 31.652,21.255 31.235,21.045 30.923 C 20.781 30.531,20.228 30.350,19.646 30.464 " stroke="none" fill-rule="evenodd" fill="black"></path></svg>