<svg width="40" height="40" viewBox="0 0 40 40" fill="none" xmlns="http://www.w3.org/2000/svg"><path d="M9.241 12.138 C 5.957 12.429,3.165 14.829,2.332 18.074 C 1.961 19.521,2.068 21.403,2.600 22.789 C 3.530 25.208,5.568 27.025,8.074 27.668 C 9.194 27.955,10.806 27.955,11.926 27.668 C 14.839 26.921,17.099 24.581,17.738 21.650 L 17.821 21.267 22.439 21.267 L 27.057 21.267 27.078 23.350 C 27.099 25.291,27.109 25.449,27.233 25.660 C 27.501 26.115,28.030 26.319,28.641 26.205 C 29.007 26.137,29.251 25.969,29.433 25.660 C 29.558 25.449,29.568 25.291,29.588 23.350 L 29.610 21.267 31.665 21.267 L 33.719 21.267 33.743 22.517 C 33.769 23.880,33.814 24.056,34.209 24.350 C 34.585 24.630,35.415 24.630,35.791 24.350 C 36.185 24.056,36.231 23.879,36.257 22.525 L 36.281 21.283 36.736 21.238 C 37.541 21.158,37.886 20.787,37.886 20.000 C 37.886 19.304,37.595 18.912,36.991 18.795 C 36.831 18.764,32.452 18.738,27.261 18.736 L 17.821 18.733 17.738 18.350 C 17.099 15.420,14.839 13.079,11.927 12.332 C 11.521 12.228,10.006 12.040,9.867 12.077 C 9.848 12.081,9.567 12.109,9.241 12.138 M11.091 14.696 C 12.164 14.901,12.922 15.323,13.800 16.200 C 14.928 17.328,15.400 18.449,15.400 20.000 C 15.400 21.551,14.928 22.672,13.800 23.800 C 12.672 24.928,11.551 25.400,10.000 25.400 C 8.449 25.400,7.328 24.928,6.200 23.800 C 5.063 22.663,4.600 21.553,4.600 19.965 C 4.600 18.445,5.076 17.324,6.200 16.200 C 7.058 15.342,7.833 14.905,8.857 14.701 C 9.457 14.581,10.480 14.579,11.091 14.696 " stroke="none" fill-rule="evenodd" fill="black"></path></svg>