<svg width="40" height="40" viewBox="0 0 40 40" fill="none" xmlns="http://www.w3.org/2000/svg"><path d="M18.900 2.134 C 15.448 2.381,12.184 3.883,9.700 6.367 C 7.447 8.620,6.038 11.434,5.562 14.633 C 5.415 15.624,5.415 17.709,5.562 18.700 C 5.953 21.326,7.057 23.863,8.664 25.831 L 9.067 26.323 8.124 29.011 C 6.964 32.316,6.927 32.450,6.922 33.300 C 6.917 34.131,7.052 34.724,7.400 35.392 C 7.913 36.376,8.550 36.995,9.539 37.474 C 10.469 37.925,9.847 37.900,20.100 37.900 C 30.510 37.900,29.690 37.939,30.779 37.394 C 32.608 36.479,33.589 34.419,33.167 32.381 C 33.112 32.116,32.633 30.596,32.101 29.003 C 31.291 26.576,31.148 26.088,31.217 25.992 C 31.263 25.929,31.471 25.655,31.680 25.382 C 33.084 23.548,34.073 21.151,34.438 18.700 C 34.585 17.709,34.585 15.624,34.438 14.633 C 33.903 11.037,32.084 7.754,29.389 5.519 C 26.412 3.051,22.723 1.860,18.900 2.134 M22.410 4.822 C 24.808 5.343,26.834 6.441,28.530 8.137 C 30.231 9.838,31.348 11.904,31.837 14.257 C 31.926 14.684,31.999 15.116,31.999 15.217 L 32.000 15.400 28.209 15.400 L 24.418 15.400 24.276 15.011 C 23.975 14.185,23.164 13.218,22.373 12.742 C 20.961 11.892,19.039 11.892,17.627 12.742 C 16.836 13.218,16.025 14.185,15.724 15.011 L 15.582 15.400 11.791 15.400 L 8.000 15.400 8.001 15.217 C 8.001 15.116,8.074 14.684,8.163 14.257 C 8.653 11.899,9.766 9.841,11.470 8.137 C 13.328 6.279,15.591 5.132,18.252 4.699 C 18.665 4.632,19.239 4.612,20.233 4.629 C 21.422 4.650,21.751 4.679,22.410 4.822 M20.757 14.735 C 21.240 14.916,21.750 15.426,21.931 15.910 C 22.225 16.696,22.045 17.536,21.457 18.124 C 20.155 19.426,17.933 18.507,17.933 16.667 C 17.933 16.097,18.133 15.619,18.543 15.209 C 19.131 14.621,19.971 14.441,20.757 14.735 M15.724 18.322 C 16.025 19.148,16.836 20.115,17.627 20.592 C 19.039 21.442,20.961 21.442,22.373 20.592 C 23.164 20.115,23.975 19.148,24.276 18.322 L 24.418 17.933 28.209 17.933 L 32.000 17.933 31.999 18.117 C 31.999 18.217,31.926 18.649,31.837 19.077 C 31.348 21.430,30.231 23.495,28.530 25.197 C 26.805 26.922,24.720 28.035,22.267 28.542 C 21.593 28.681,21.319 28.700,20.000 28.700 C 18.318 28.700,17.632 28.600,16.268 28.156 C 14.466 27.570,12.992 26.665,11.576 25.276 C 9.768 23.503,8.668 21.504,8.163 19.077 C 8.074 18.649,8.001 18.217,8.001 18.117 L 8.000 17.933 11.791 17.933 L 15.582 17.933 15.724 18.322 M29.973 30.533 C 30.682 32.656,30.763 32.948,30.763 33.367 C 30.763 34.174,30.323 34.852,29.567 35.210 L 29.167 35.400 20.119 35.400 C 11.110 35.400,11.070 35.399,10.700 35.261 C 10.199 35.073,9.725 34.597,9.533 34.086 C 9.275 33.403,9.337 33.088,10.225 30.567 C 10.652 29.357,11.015 28.328,11.032 28.282 C 11.054 28.224,11.211 28.303,11.515 28.522 C 13.359 29.852,15.614 30.755,17.967 31.105 C 18.958 31.252,21.042 31.252,22.033 31.105 C 24.433 30.748,26.769 29.798,28.606 28.433 C 28.875 28.233,29.116 28.091,29.140 28.118 C 29.164 28.145,29.539 29.232,29.973 30.533 " stroke="none" fill-rule="evenodd" fill="black"></path></svg>