<svg width="40" height="40" viewBox="0 0 40 40" fill="none" xmlns="http://www.w3.org/2000/svg"><path d="M14.361 2.137 C 13.385 2.255,12.530 2.686,11.775 3.441 C 10.989 4.227,10.591 5.042,10.468 6.118 C 10.431 6.438,10.401 7.904,10.401 9.375 L 10.400 12.050 8.550 12.085 C 6.466 12.125,6.260 12.160,5.367 12.620 C 4.601 13.015,3.799 13.828,3.413 14.600 C 2.910 15.606,2.936 15.054,2.936 25.000 C 2.936 32.536,2.951 33.972,3.033 34.367 C 3.353 35.906,4.724 37.323,6.333 37.778 C 6.748 37.895,7.386 37.900,20.833 37.900 C 34.280 37.900,34.919 37.895,35.333 37.778 C 36.554 37.433,37.707 36.493,38.254 35.400 C 38.756 34.394,38.731 34.946,38.731 25.000 C 38.731 15.054,38.756 15.606,38.254 14.600 C 37.868 13.828,37.065 13.015,36.300 12.620 C 35.340 12.125,35.293 12.119,32.289 12.085 L 29.611 12.054 29.583 8.977 C 29.553 5.575,29.549 5.543,29.102 4.633 C 28.539 3.488,27.441 2.586,26.167 2.221 C 25.805 2.117,25.247 2.105,20.300 2.093 C 17.293 2.086,14.621 2.106,14.361 2.137 M25.757 4.735 C 26.240 4.916,26.750 5.426,26.931 5.910 C 27.060 6.253,27.067 6.421,27.067 9.169 L 27.067 12.067 20.000 12.067 L 12.933 12.067 12.933 9.169 C 12.933 5.809,12.931 5.821,13.543 5.209 C 14.183 4.570,13.781 4.607,19.981 4.603 C 25.262 4.600,25.404 4.603,25.757 4.735 M35.104 14.811 C 35.508 15.024,35.895 15.436,36.091 15.859 L 36.233 16.167 36.233 25.000 L 36.233 33.833 36.091 34.141 C 35.895 34.564,35.508 34.976,35.104 35.189 L 34.767 35.367 20.833 35.367 L 6.900 35.367 6.562 35.189 C 6.159 34.976,5.771 34.564,5.576 34.141 L 5.433 33.833 5.433 25.000 L 5.433 16.167 5.576 15.859 C 5.836 15.295,6.352 14.841,6.933 14.662 C 7.025 14.634,13.325 14.616,20.933 14.622 L 34.767 14.633 35.104 14.811 M20.160 17.134 C 18.000 17.366,16.069 19.089,15.561 21.237 C 15.415 21.856,15.415 23.144,15.561 23.763 C 15.979 25.531,17.474 27.138,19.195 27.670 L 19.567 27.785 19.600 29.976 C 19.637 32.381,19.646 32.435,20.046 32.705 C 20.446 32.974,21.281 32.964,21.657 32.685 C 22.019 32.417,22.031 32.343,22.067 29.976 L 22.100 27.785 22.472 27.670 C 23.268 27.424,23.926 27.007,24.637 26.300 C 25.229 25.710,25.347 25.553,25.656 24.933 C 26.079 24.083,26.215 23.495,26.215 22.500 C 26.215 21.505,26.079 20.917,25.656 20.067 C 25.347 19.448,25.229 19.290,24.637 18.700 C 24.091 18.156,23.854 17.974,23.357 17.715 C 22.386 17.210,21.294 17.012,20.160 17.134 M21.621 19.699 C 22.892 20.084,23.732 21.199,23.732 22.500 C 23.732 23.280,23.473 23.923,22.927 24.501 C 21.788 25.705,19.879 25.705,18.740 24.501 C 18.194 23.923,17.935 23.280,17.935 22.500 C 17.935 21.227,18.723 20.148,19.962 19.725 C 20.383 19.581,21.191 19.568,21.621 19.699 " stroke="none" fill-rule="evenodd" fill="black"></path></svg>