<svg width="40" height="40" viewBox="0 0 40 40" fill="none" xmlns="http://www.w3.org/2000/svg"><path d="M6.028 2.138 C 5.054 2.254,4.197 2.685,3.441 3.441 C 2.637 4.245,2.250 5.055,2.129 6.189 C 2.084 6.615,2.068 10.889,2.081 18.800 C 2.101 29.965,2.110 30.793,2.219 31.167 C 2.593 32.449,3.491 33.541,4.633 34.102 C 5.494 34.525,5.666 34.548,8.143 34.583 L 10.386 34.614 10.410 35.857 C 10.436 37.212,10.481 37.390,10.875 37.683 C 11.251 37.964,12.082 37.964,12.458 37.683 C 12.853 37.389,12.897 37.213,12.924 35.850 L 12.948 34.600 20.000 34.600 L 27.052 34.600 27.076 35.850 C 27.103 37.213,27.147 37.389,27.542 37.683 C 27.918 37.964,28.749 37.964,29.125 37.683 C 29.519 37.390,29.564 37.212,29.590 35.857 L 29.614 34.614 31.857 34.583 C 34.334 34.548,34.506 34.525,35.367 34.102 C 36.526 33.533,37.436 32.414,37.783 31.133 C 37.893 30.727,37.900 29.930,37.900 18.333 C 37.900 6.737,37.893 5.940,37.783 5.533 C 37.351 3.940,36.113 2.690,34.500 2.218 C 34.125 2.109,33.242 2.101,20.300 2.092 C 12.710 2.087,6.287 2.108,6.028 2.138 M34.090 4.735 C 34.574 4.916,35.084 5.426,35.265 5.910 C 35.399 6.269,35.400 6.377,35.400 18.333 C 35.400 30.290,35.399 30.398,35.265 30.757 C 35.084 31.240,34.574 31.750,34.090 31.931 C 33.731 32.066,33.631 32.067,20.000 32.067 C 6.369 32.067,6.269 32.066,5.910 31.931 C 5.426 31.750,4.916 31.240,4.735 30.757 C 4.601 30.398,4.600 30.290,4.600 18.333 C 4.600 6.377,4.601 6.269,4.735 5.910 C 4.911 5.439,5.427 4.917,5.891 4.739 C 6.228 4.609,6.457 4.607,19.981 4.603 C 33.636 4.600,33.731 4.601,34.090 4.735 M30.167 6.849 C 29.900 6.916,29.601 7.184,27.794 8.982 L 25.955 10.811 25.405 10.436 C 22.143 8.216,17.857 8.215,14.596 10.436 L 14.047 10.810 12.373 9.146 C 11.453 8.231,10.604 7.433,10.487 7.374 C 10.169 7.214,9.761 7.238,9.425 7.435 C 9.091 7.631,8.763 8.072,8.699 8.414 C 8.614 8.871,8.800 9.114,10.616 10.923 L 12.313 12.612 12.016 13.056 C 10.152 15.836,9.925 19.590,11.439 22.611 C 11.598 22.928,11.897 23.435,12.102 23.736 L 12.475 24.285 10.447 26.326 C 8.297 28.488,8.207 28.606,8.290 29.116 C 8.377 29.654,9.044 30.267,9.542 30.267 C 9.679 30.267,9.876 30.235,9.979 30.196 C 10.082 30.157,11.082 29.212,12.201 28.096 C 13.321 26.980,14.257 26.067,14.283 26.067 C 14.308 26.067,14.533 26.198,14.781 26.358 C 16.156 27.245,17.635 27.740,19.283 27.864 C 21.404 28.024,23.564 27.467,25.277 26.318 L 25.721 26.020 27.511 27.815 C 28.495 28.802,29.411 29.667,29.547 29.738 C 29.998 29.972,30.470 29.852,30.913 29.389 C 31.352 28.932,31.425 28.422,31.118 27.969 C 31.043 27.858,30.203 26.984,29.252 26.027 L 27.522 24.288 27.897 23.738 C 30.070 20.547,30.120 16.363,28.025 13.115 C 27.865 12.866,27.733 12.641,27.733 12.614 C 27.733 12.588,28.575 11.726,29.605 10.700 C 30.634 9.673,31.534 8.722,31.605 8.586 C 31.839 8.135,31.719 7.664,31.256 7.220 C 30.906 6.884,30.533 6.757,30.167 6.849 M21.271 11.371 C 21.906 11.492,22.245 11.598,22.900 11.883 C 23.278 12.047,23.990 12.449,24.130 12.577 C 24.147 12.592,23.760 13.005,23.272 13.495 L 22.383 14.385 21.975 14.195 C 21.339 13.898,20.784 13.783,20.000 13.783 C 19.216 13.783,18.661 13.898,18.025 14.195 L 17.617 14.385 16.728 13.495 C 16.240 13.005,15.853 12.592,15.870 12.577 C 16.107 12.359,16.970 11.919,17.772 11.607 C 18.590 11.288,20.244 11.177,21.271 11.371 M15.794 16.499 C 15.558 17.031,15.449 17.612,15.449 18.333 C 15.449 19.117,15.565 19.672,15.862 20.308 L 16.052 20.717 15.162 21.605 C 14.672 22.094,14.259 22.480,14.244 22.463 C 14.001 22.199,13.469 21.132,13.245 20.462 C 12.660 18.711,12.923 16.363,13.885 14.755 L 14.098 14.400 15.008 15.308 L 15.918 16.217 15.794 16.499 M26.089 14.717 C 26.275 15.010,26.605 15.760,26.759 16.235 C 27.167 17.496,27.167 19.171,26.759 20.432 C 26.537 21.117,26.009 22.188,25.756 22.463 C 25.741 22.480,25.328 22.094,24.838 21.605 L 23.948 20.717 24.138 20.308 C 24.673 19.162,24.701 17.603,24.208 16.510 L 24.083 16.233 24.957 15.350 C 25.438 14.864,25.854 14.467,25.882 14.467 C 25.909 14.467,26.003 14.579,26.089 14.717 M20.757 16.402 C 21.240 16.583,21.750 17.093,21.931 17.577 C 22.225 18.362,22.045 19.202,21.457 19.790 C 20.155 21.092,17.933 20.174,17.933 18.333 C 17.933 17.764,18.133 17.286,18.543 16.876 C 19.131 16.288,19.971 16.108,20.757 16.402 M18.874 22.774 C 19.733 22.996,21.037 22.893,21.834 22.540 L 22.117 22.415 23.025 23.325 L 23.933 24.235 23.638 24.413 C 21.930 25.445,19.656 25.687,17.756 25.041 C 17.192 24.849,16.300 24.420,16.190 24.288 C 16.124 24.209,16.265 24.037,16.997 23.303 L 17.883 22.415 18.166 22.540 C 18.321 22.608,18.640 22.714,18.874 22.774 " stroke="none" fill-rule="evenodd" fill="black"></path></svg>