<svg width="40" height="40" viewBox="0 0 40 40" fill="none" xmlns="http://www.w3.org/2000/svg"><path d="M2.112 2.129 C 1.588 2.235,1.327 2.573,1.280 3.210 C 1.234 3.821,1.414 4.227,1.833 4.457 C 2.010 4.554,2.475 4.570,5.900 4.600 L 9.767 4.633 10.104 4.811 C 10.508 5.024,10.895 5.436,11.091 5.859 C 11.229 6.156,11.234 6.266,11.253 9.110 L 11.273 12.052 8.987 12.085 C 6.418 12.121,6.300 12.139,5.367 12.620 C 4.601 13.015,3.799 13.828,3.413 14.600 C 2.910 15.606,2.936 15.054,2.936 25.000 C 2.936 32.536,2.951 33.972,3.033 34.367 C 3.353 35.906,4.724 37.323,6.333 37.778 C 6.748 37.895,7.386 37.900,20.833 37.900 C 34.280 37.900,34.919 37.895,35.333 37.778 C 36.554 37.433,37.707 36.493,38.254 35.400 C 38.756 34.394,38.731 34.946,38.731 25.000 C 38.731 17.464,38.716 16.028,38.634 15.633 C 38.317 14.110,36.972 12.707,35.367 12.225 C 34.990 12.112,34.349 12.104,24.350 12.084 L 13.733 12.063 13.732 9.081 C 13.731 5.693,13.712 5.518,13.254 4.600 C 12.868 3.828,12.065 3.015,11.300 2.620 C 10.289 2.099,10.431 2.114,6.167 2.094 C 4.077 2.085,2.252 2.100,2.112 2.129 M35.104 14.811 C 35.508 15.024,35.895 15.436,36.091 15.859 L 36.233 16.167 36.233 25.000 L 36.233 33.833 36.091 34.141 C 35.895 34.564,35.508 34.976,35.104 35.189 L 34.767 35.367 20.833 35.367 L 6.900 35.367 6.562 35.189 C 6.159 34.976,5.771 34.564,5.576 34.141 L 5.433 33.833 5.433 25.000 L 5.433 16.167 5.576 15.859 C 5.836 15.295,6.352 14.841,6.933 14.662 C 7.025 14.634,13.325 14.616,20.933 14.622 L 34.767 14.633 35.104 14.811 M20.160 17.134 C 19.498 17.205,18.996 17.363,18.300 17.719 C 17.803 17.973,17.585 18.142,17.033 18.696 C 16.489 19.243,16.307 19.480,16.049 19.977 C 15.593 20.853,15.456 21.435,15.456 22.500 C 15.456 23.565,15.593 24.147,16.049 25.023 C 16.308 25.523,16.487 25.754,17.033 26.300 C 17.741 27.008,18.396 27.423,19.195 27.670 L 19.567 27.785 19.600 29.976 C 19.637 32.381,19.646 32.435,20.046 32.705 C 20.446 32.974,21.281 32.964,21.657 32.685 C 22.019 32.417,22.031 32.343,22.067 29.976 L 22.100 27.785 22.472 27.670 C 23.268 27.424,23.926 27.007,24.637 26.300 C 25.229 25.710,25.347 25.553,25.656 24.933 C 26.079 24.083,26.215 23.495,26.215 22.500 C 26.215 21.505,26.079 20.917,25.656 20.067 C 25.347 19.448,25.229 19.290,24.637 18.700 C 24.091 18.156,23.854 17.974,23.357 17.715 C 22.386 17.210,21.294 17.012,20.160 17.134 M21.621 19.699 C 22.892 20.084,23.732 21.199,23.732 22.500 C 23.732 23.280,23.473 23.923,22.927 24.501 C 21.788 25.705,19.879 25.705,18.740 24.501 C 18.194 23.923,17.935 23.280,17.935 22.500 C 17.935 21.227,18.723 20.148,19.962 19.725 C 20.383 19.581,21.191 19.568,21.621 19.699 " stroke="none" fill-rule="evenodd" fill="black"></path></svg>