<svg width="40" height="40" viewBox="0 0 40 40" fill="none" xmlns="http://www.w3.org/2000/svg"><path d="M19.550 1.370 C 19.017 1.513,18.686 1.706,18.077 2.225 C 16.610 3.477,16.316 3.717,15.633 4.232 C 14.335 5.209,12.970 5.896,11.900 6.112 C 10.996 6.295,8.449 6.273,6.867 6.070 C 6.090 5.970,5.559 5.934,5.278 5.962 C 4.103 6.081,3.055 6.912,2.659 8.039 C 2.419 8.722,2.141 12.157,2.090 15.067 C 2.059 16.796,2.074 17.461,2.161 18.360 C 2.394 20.765,2.600 21.647,3.319 23.333 C 4.524 26.154,6.177 28.590,8.276 30.639 C 10.834 33.136,13.631 35.417,16.430 37.286 C 18.270 38.516,18.876 38.744,20.333 38.756 C 21.501 38.765,22.281 38.567,23.203 38.027 C 23.691 37.740,25.468 36.432,26.531 35.576 C 28.820 33.733,32.173 30.512,33.343 29.033 C 35.029 26.903,36.303 24.589,37.142 22.133 C 37.777 20.274,38.047 16.888,37.875 12.933 C 37.780 10.744,37.567 8.584,37.396 8.088 C 37.015 6.981,36.032 6.165,34.882 6.002 C 34.415 5.936,33.937 5.962,32.367 6.141 C 31.487 6.241,29.841 6.240,29.138 6.138 C 28.399 6.032,28.133 5.940,27.098 5.436 C 25.926 4.865,24.323 3.716,22.733 2.307 C 22.422 2.030,22.029 1.729,21.862 1.638 C 21.211 1.282,20.277 1.174,19.550 1.370 M20.647 3.850 C 20.764 3.914,21.169 4.239,21.547 4.573 C 23.895 6.646,26.468 8.173,28.160 8.497 C 29.550 8.763,31.206 8.786,33.067 8.566 C 33.525 8.512,34.075 8.468,34.288 8.467 C 34.626 8.467,34.702 8.491,34.864 8.653 C 34.997 8.787,35.063 8.934,35.093 9.170 C 35.434 11.810,35.544 16.053,35.329 18.267 C 35.097 20.651,34.762 21.776,33.616 24.022 C 32.738 25.743,31.576 27.380,30.230 28.792 L 29.570 29.484 29.488 28.825 C 29.217 26.657,28.301 24.784,26.759 23.241 C 25.709 22.192,24.428 21.393,23.050 20.929 L 22.400 20.710 22.683 20.544 C 23.876 19.842,24.789 18.682,25.210 17.333 C 25.345 16.902,25.367 16.695,25.367 15.833 C 25.367 14.971,25.345 14.764,25.210 14.333 C 24.629 12.473,23.181 11.065,21.367 10.595 C 20.622 10.402,19.378 10.402,18.633 10.595 C 17.102 10.992,15.839 12.040,15.134 13.500 C 14.700 14.399,14.633 14.714,14.634 15.867 C 14.634 16.691,14.657 16.907,14.790 17.333 C 15.211 18.686,16.122 19.844,17.316 20.544 L 17.598 20.709 16.949 20.927 C 13.467 22.096,10.922 25.235,10.492 28.892 L 10.447 29.278 9.818 28.656 C 8.152 27.008,6.612 24.713,5.666 22.467 C 5.006 20.900,4.890 20.433,4.652 18.367 C 4.541 17.408,4.545 14.045,4.658 12.539 C 4.822 10.365,4.977 8.900,5.061 8.744 C 5.218 8.451,5.488 8.398,6.289 8.503 C 8.764 8.828,11.020 8.825,12.679 8.495 C 14.426 8.147,16.630 6.805,19.316 4.451 C 19.919 3.924,20.175 3.750,20.367 3.738 C 20.403 3.735,20.529 3.786,20.647 3.850 M20.961 13.091 C 23.158 13.888,23.591 16.743,21.730 18.163 C 20.275 19.272,18.129 18.718,17.358 17.033 C 16.656 15.501,17.421 13.688,19.020 13.094 C 19.602 12.878,20.370 12.876,20.961 13.091 M21.243 23.033 C 23.876 23.537,25.935 25.354,26.759 27.901 C 26.993 28.625,27.067 29.261,27.067 30.561 L 27.067 31.843 26.383 32.442 C 25.525 33.194,24.265 34.205,23.254 34.951 C 21.615 36.161,21.293 36.299,20.233 36.250 C 19.711 36.225,19.486 36.182,19.195 36.051 C 18.395 35.692,15.405 33.570,13.709 32.159 L 12.917 31.500 12.928 30.374 C 12.939 29.250,13.025 28.568,13.241 27.901 C 14.057 25.378,16.108 23.554,18.709 23.037 C 19.333 22.913,20.605 22.911,21.243 23.033 " stroke="none" fill-rule="evenodd" fill="black"></path></svg>