<svg width="40" height="40" viewBox="0 0 40 40" fill="none" xmlns="http://www.w3.org/2000/svg"><path d="M19.550 1.370 C 19.017 1.513,18.686 1.706,18.077 2.225 C 16.610 3.477,16.316 3.717,15.633 4.232 C 14.335 5.209,12.970 5.896,11.900 6.112 C 10.996 6.295,8.449 6.273,6.867 6.070 C 6.090 5.970,5.559 5.934,5.278 5.962 C 4.103 6.081,3.055 6.912,2.659 8.039 C 2.419 8.722,2.141 12.157,2.090 15.067 C 2.059 16.796,2.074 17.461,2.161 18.360 C 2.394 20.765,2.600 21.647,3.319 23.333 C 4.524 26.154,6.177 28.590,8.276 30.639 C 10.834 33.136,13.631 35.417,16.430 37.286 C 18.270 38.516,18.876 38.744,20.333 38.756 C 21.501 38.765,22.281 38.567,23.203 38.027 C 23.691 37.740,25.468 36.432,26.531 35.576 C 28.820 33.733,32.173 30.512,33.343 29.033 C 35.029 26.903,36.303 24.589,37.142 22.133 C 37.777 20.274,38.047 16.888,37.875 12.933 C 37.780 10.744,37.567 8.584,37.396 8.088 C 37.015 6.981,36.032 6.165,34.882 6.002 C 34.415 5.936,33.937 5.962,32.367 6.141 C 31.487 6.241,29.841 6.240,29.138 6.138 C 28.399 6.032,28.133 5.940,27.098 5.436 C 25.926 4.865,24.323 3.716,22.733 2.307 C 22.422 2.030,22.029 1.729,21.862 1.638 C 21.211 1.282,20.277 1.174,19.550 1.370 M20.647 3.850 C 20.764 3.914,21.169 4.239,21.547 4.573 C 23.895 6.646,26.468 8.173,28.160 8.497 C 29.550 8.763,31.206 8.786,33.067 8.566 C 33.525 8.512,34.075 8.468,34.288 8.467 C 34.626 8.467,34.702 8.491,34.864 8.653 C 34.997 8.787,35.063 8.934,35.093 9.170 C 35.434 11.810,35.544 16.053,35.329 18.267 C 35.097 20.649,34.762 21.777,33.619 24.018 C 32.530 26.151,31.488 27.526,29.336 29.667 C 27.166 31.825,25.346 33.406,23.254 34.951 C 21.615 36.161,21.293 36.299,20.233 36.250 C 19.711 36.225,19.486 36.182,19.195 36.051 C 18.393 35.691,15.588 33.706,13.779 32.218 C 12.605 31.253,10.368 29.224,9.561 28.391 C 7.981 26.762,6.574 24.622,5.666 22.467 C 5.006 20.900,4.890 20.433,4.652 18.367 C 4.541 17.408,4.545 14.045,4.658 12.539 C 4.822 10.365,4.977 8.900,5.061 8.744 C 5.218 8.451,5.488 8.398,6.289 8.503 C 8.764 8.828,11.020 8.825,12.679 8.495 C 14.426 8.147,16.630 6.805,19.316 4.451 C 19.919 3.924,20.175 3.750,20.367 3.738 C 20.403 3.735,20.529 3.786,20.647 3.850 M14.549 13.808 C 14.199 13.981,13.823 14.408,13.721 14.747 C 13.557 15.295,13.602 15.355,16.021 17.783 L 18.229 20.000 16.021 22.217 C 13.585 24.662,13.556 24.701,13.728 25.275 C 13.839 25.647,14.364 26.167,14.725 26.265 C 15.323 26.425,15.344 26.410,17.783 23.980 L 20.000 21.771 22.217 23.980 C 24.656 26.410,24.677 26.425,25.275 26.265 C 25.644 26.165,26.165 25.644,26.265 25.275 C 26.425 24.677,26.410 24.656,23.980 22.217 L 21.771 20.000 23.980 17.783 C 26.410 15.344,26.425 15.323,26.265 14.725 C 26.167 14.364,25.647 13.839,25.275 13.728 C 24.701 13.556,24.662 13.585,22.216 16.021 L 19.999 18.230 17.816 16.051 C 15.284 13.525,15.216 13.478,14.549 13.808 " stroke="none" fill-rule="evenodd" fill="black"></path></svg>