<svg width="40" height="40" viewBox="0 0 40 40" fill="none" xmlns="http://www.w3.org/2000/svg"><path d="M19.550 1.370 C 19.017 1.513,18.686 1.706,18.077 2.225 C 16.610 3.477,16.316 3.717,15.633 4.232 C 14.335 5.209,12.970 5.896,11.900 6.112 C 10.996 6.295,8.449 6.273,6.867 6.070 C 6.090 5.970,5.559 5.934,5.278 5.962 C 4.103 6.081,3.055 6.912,2.659 8.039 C 2.419 8.722,2.141 12.157,2.090 15.067 C 2.059 16.796,2.074 17.461,2.161 18.360 C 2.394 20.765,2.600 21.647,3.319 23.333 C 4.524 26.154,6.177 28.590,8.276 30.639 C 10.834 33.136,13.631 35.417,16.430 37.286 C 18.270 38.516,18.876 38.744,20.333 38.756 C 21.501 38.765,22.281 38.567,23.203 38.027 C 23.691 37.740,25.468 36.432,26.531 35.576 C 28.820 33.733,32.173 30.512,33.343 29.033 C 35.071 26.850,36.392 24.418,37.232 21.876 C 37.562 20.879,37.545 20.551,37.147 20.197 C 36.658 19.763,35.848 19.656,35.469 19.975 C 35.207 20.195,35.131 20.344,34.771 21.349 C 34.347 22.531,34.180 22.917,33.619 24.018 C 32.530 26.151,31.488 27.526,29.336 29.667 C 27.166 31.825,25.346 33.406,23.254 34.951 C 21.615 36.161,21.293 36.299,20.233 36.250 C 19.711 36.225,19.486 36.182,19.195 36.051 C 18.393 35.691,15.588 33.706,13.779 32.218 C 12.605 31.253,10.368 29.224,9.561 28.391 C 7.981 26.762,6.574 24.622,5.666 22.467 C 5.006 20.900,4.890 20.433,4.652 18.367 C 4.541 17.408,4.545 14.045,4.658 12.539 C 4.822 10.365,4.977 8.900,5.061 8.744 C 5.218 8.451,5.488 8.398,6.289 8.503 C 8.764 8.828,11.020 8.825,12.679 8.495 C 14.426 8.147,16.630 6.804,19.315 4.452 C 20.021 3.834,20.243 3.708,20.509 3.775 C 20.601 3.798,20.996 4.101,21.388 4.448 C 22.216 5.183,23.900 6.462,24.726 6.983 C 26.725 8.245,28.196 8.677,30.533 8.688 C 31.619 8.694,31.720 8.684,31.986 8.544 C 32.396 8.330,32.533 8.070,32.533 7.504 C 32.533 6.881,32.363 6.525,31.975 6.337 C 31.726 6.217,31.565 6.200,30.662 6.200 C 29.519 6.199,28.566 6.076,28.000 5.854 C 27.431 5.632,26.480 5.147,25.979 4.824 C 25.289 4.378,23.790 3.223,22.933 2.474 C 22.512 2.106,22.029 1.730,21.862 1.638 C 21.212 1.282,20.278 1.174,19.550 1.370 M36.267 8.772 C 36.115 8.837,33.800 11.104,29.684 15.218 L 23.335 21.564 21.118 19.355 C 19.144 17.388,18.867 17.137,18.603 17.066 C 18.181 16.954,17.861 17.065,17.463 17.463 C 17.066 17.861,16.954 18.181,17.066 18.603 C 17.137 18.869,17.416 19.172,19.756 21.519 C 21.586 23.354,22.455 24.180,22.661 24.280 C 23.055 24.471,23.612 24.471,24.006 24.279 C 24.220 24.176,26.149 22.286,31.078 17.352 C 38.526 9.896,38.104 10.366,37.931 9.725 C 37.835 9.367,37.312 8.837,36.959 8.739 C 36.627 8.647,36.549 8.651,36.267 8.772 " stroke="none" fill-rule="evenodd" fill="black"></path></svg>