<svg width="40" height="40" viewBox="0 0 40 40" fill="none" xmlns="http://www.w3.org/2000/svg"><path d="M16.100 3.011 C 15.845 3.104,15.681 3.248,15.543 3.500 C 15.445 3.679,15.431 4.178,15.414 8.317 L 15.395 12.933 14.914 12.934 C 13.706 12.937,12.694 13.369,11.798 14.265 C 11.373 14.689,11.158 14.969,10.953 15.367 C 10.498 16.251,10.459 16.474,10.420 18.467 L 10.386 20.233 9.872 20.767 C 8.686 21.999,7.942 23.264,7.480 24.833 C 7.111 26.087,7.100 26.274,7.100 31.500 C 7.100 36.684,7.088 36.500,7.443 36.807 C 7.741 37.066,7.772 37.067,16.667 37.067 C 25.561 37.067,25.592 37.066,25.890 36.807 C 26.246 36.499,26.233 36.690,26.233 31.433 C 26.232 27.138,26.219 26.496,26.119 25.967 C 25.720 23.854,24.914 22.277,23.461 20.767 L 22.948 20.233 22.913 18.467 C 22.874 16.474,22.836 16.251,22.380 15.367 C 22.175 14.969,21.960 14.689,21.536 14.265 C 20.639 13.369,19.628 12.937,18.417 12.934 L 17.933 12.933 17.933 10.833 L 17.933 8.733 19.267 8.733 C 20.364 8.733,20.600 8.750,20.600 8.827 C 20.600 8.878,20.740 9.200,20.912 9.543 C 21.511 10.742,22.731 11.710,23.967 11.967 C 24.635 12.106,28.699 12.106,29.367 11.967 C 30.910 11.646,32.354 10.245,32.769 8.667 C 32.922 8.084,32.922 6.916,32.769 6.333 C 32.456 5.141,31.499 3.962,30.400 3.413 C 29.517 2.972,29.233 2.936,26.667 2.936 C 24.969 2.936,24.321 2.959,23.967 3.033 C 22.731 3.290,21.511 4.258,20.912 5.457 C 20.740 5.800,20.600 6.122,20.600 6.173 C 20.600 6.250,20.364 6.267,19.267 6.267 L 17.933 6.267 17.930 5.183 C 17.926 3.650,17.834 3.306,17.361 3.070 C 17.118 2.948,16.366 2.913,16.100 3.011 M29.141 5.576 C 29.564 5.771,29.976 6.159,30.188 6.562 C 30.342 6.855,30.365 6.979,30.365 7.500 C 30.365 8.021,30.342 8.145,30.188 8.438 C 29.976 8.841,29.564 9.229,29.141 9.424 C 28.847 9.560,28.739 9.567,26.667 9.567 C 24.594 9.567,24.487 9.560,24.192 9.424 C 23.769 9.229,23.357 8.841,23.145 8.438 C 22.991 8.145,22.968 8.021,22.968 7.500 C 22.968 6.979,22.991 6.855,23.145 6.562 C 23.428 6.025,23.951 5.608,24.515 5.471 C 24.653 5.437,25.682 5.415,26.800 5.421 C 28.722 5.433,28.850 5.441,29.141 5.576 M19.141 15.576 C 19.565 15.772,19.977 16.160,20.186 16.562 C 20.345 16.867,20.365 16.985,20.388 17.783 C 20.402 18.269,20.399 18.667,20.381 18.667 C 20.364 18.667,20.243 18.622,20.113 18.568 C 19.225 18.197,17.802 17.936,16.667 17.936 C 15.531 17.936,14.109 18.197,13.220 18.568 C 13.090 18.622,12.969 18.667,12.952 18.667 C 12.935 18.667,12.932 18.269,12.946 17.783 C 12.968 16.985,12.988 16.867,13.147 16.562 C 13.427 16.026,13.950 15.608,14.515 15.471 C 14.653 15.437,15.682 15.415,16.800 15.421 C 18.722 15.433,18.850 15.441,19.141 15.576 M18.106 20.570 C 19.029 20.761,20.145 21.251,20.633 21.680 C 20.791 21.819,20.953 21.933,20.992 21.933 C 21.117 21.933,21.984 22.795,22.324 23.257 C 22.909 24.052,23.248 24.755,23.548 25.800 C 23.687 26.283,23.692 26.438,23.716 30.450 L 23.740 34.600 16.667 34.600 L 9.593 34.600 9.618 30.450 C 9.641 26.438,9.647 26.283,9.785 25.800 C 10.086 24.755,10.424 24.052,11.009 23.257 C 11.349 22.795,12.217 21.933,12.341 21.933 C 12.381 21.933,12.542 21.820,12.700 21.680 C 13.251 21.195,14.532 20.671,15.589 20.498 C 16.279 20.385,17.361 20.416,18.106 20.570 " stroke="none" fill-rule="evenodd" fill="black"></path></svg>