<svg width="40" height="40" viewBox="0 0 40 40" fill="none" xmlns="http://www.w3.org/2000/svg"><path d="M16.378 4.704 C 14.081 5.218,12.398 7.080,12.141 9.391 C 11.954 11.071,12.463 12.841,13.543 14.265 C 14.401 15.398,15.335 16.049,17.282 16.872 C 17.492 16.961,17.664 17.048,17.665 17.067 C 17.665 17.085,14.853 18.222,11.416 19.593 C 7.979 20.964,4.897 22.222,4.567 22.388 C 3.464 22.944,2.607 23.998,2.254 25.231 C 2.104 25.753,2.100 25.839,2.100 28.667 C 2.100 31.940,2.103 31.964,2.620 32.967 C 3.015 33.732,3.828 34.535,4.600 34.920 C 5.625 35.433,4.499 35.398,20.000 35.398 C 31.914 35.398,33.967 35.384,34.367 35.301 C 35.892 34.983,37.316 33.616,37.769 32.033 C 37.866 31.697,37.889 31.231,37.915 29.100 C 37.947 26.395,37.902 25.636,37.667 24.928 C 37.301 23.830,36.468 22.846,35.465 22.332 C 35.301 22.247,31.050 20.327,26.019 18.065 C 18.774 14.808,16.777 13.884,16.420 13.624 C 15.300 12.807,14.600 11.424,14.600 10.026 C 14.600 7.218,18.122 6.032,19.826 8.265 C 20.254 8.826,20.350 9.168,20.401 10.301 C 20.448 11.327,20.509 11.574,20.777 11.808 C 20.977 11.984,21.388 12.084,21.790 12.054 C 22.791 11.979,23.039 11.435,22.880 9.667 C 22.796 8.738,22.649 8.214,22.261 7.467 C 21.595 6.181,20.316 5.154,18.900 4.766 C 18.325 4.609,16.955 4.575,16.378 4.704 M27.664 21.533 C 32.783 23.833,34.482 24.625,34.693 24.810 C 34.846 24.943,35.060 25.213,35.169 25.410 L 35.367 25.767 35.367 28.600 L 35.367 31.433 35.189 31.771 C 34.976 32.174,34.564 32.562,34.141 32.758 L 33.833 32.900 20.000 32.900 L 6.167 32.900 5.859 32.758 C 5.436 32.562,5.024 32.174,4.811 31.771 L 4.633 31.433 4.633 28.633 L 4.633 25.833 4.814 25.492 C 5.203 24.754,4.863 24.913,13.049 21.633 C 17.147 19.990,20.575 18.607,20.667 18.559 C 20.758 18.512,20.851 18.479,20.873 18.486 C 20.895 18.494,23.951 19.865,27.664 21.533 " stroke="none" fill-rule="evenodd" fill="black"></path></svg>