<svg width="40" height="40" viewBox="0 0 40 40" fill="none" xmlns="http://www.w3.org/2000/svg"><path d="M4.860 7.157 C 4.306 7.309,3.919 7.727,3.799 8.303 C 3.751 8.538,3.733 9.773,3.747 12.044 C 3.766 15.294,3.772 15.443,3.900 15.660 C 4.082 15.969,4.326 16.137,4.692 16.205 C 5.304 16.319,5.832 16.115,6.100 15.660 C 6.227 15.444,6.234 15.293,6.254 12.520 L 6.274 9.608 9.187 9.587 C 11.960 9.568,12.111 9.560,12.326 9.433 C 12.635 9.251,12.803 9.007,12.872 8.641 C 12.986 8.030,12.781 7.501,12.326 7.233 C 12.109 7.105,11.967 7.099,8.633 7.086 C 6.009 7.076,5.092 7.093,4.860 7.157 M27.979 7.130 C 27.408 7.243,27.114 7.653,27.114 8.333 C 27.114 9.029,27.405 9.421,28.009 9.538 C 28.169 9.569,29.521 9.595,31.013 9.597 L 33.726 9.600 33.746 12.517 C 33.766 15.293,33.773 15.444,33.900 15.660 C 34.082 15.969,34.326 16.137,34.692 16.205 C 35.304 16.319,35.832 16.115,36.100 15.660 C 36.229 15.441,36.233 15.313,36.233 11.867 C 36.233 7.939,36.239 7.998,35.820 7.566 C 35.353 7.085,35.492 7.101,31.667 7.090 C 29.778 7.084,28.119 7.102,27.979 7.130 M11.312 13.797 C 10.996 13.859,10.740 14.046,10.567 14.340 C 10.436 14.562,10.433 14.687,10.433 20.000 C 10.433 25.313,10.436 25.438,10.567 25.660 C 10.749 25.969,10.993 26.137,11.359 26.205 C 11.970 26.319,12.499 26.115,12.767 25.660 C 12.896 25.440,12.901 25.294,12.921 20.367 C 12.932 17.580,12.923 15.114,12.899 14.886 C 12.830 14.210,12.494 13.851,11.867 13.781 C 11.702 13.762,11.452 13.770,11.312 13.797 M19.646 13.797 C 19.330 13.859,19.074 14.046,18.900 14.340 C 18.770 14.562,18.767 14.687,18.767 20.000 C 18.767 25.313,18.770 25.438,18.900 25.660 C 19.168 26.115,19.696 26.319,20.308 26.205 C 20.674 26.137,20.918 25.969,21.100 25.660 C 21.230 25.440,21.234 25.294,21.254 20.367 C 21.266 17.580,21.256 15.114,21.232 14.886 C 21.163 14.210,20.827 13.851,20.200 13.781 C 20.035 13.762,19.786 13.770,19.646 13.797 M27.979 13.797 C 27.663 13.859,27.407 14.046,27.233 14.340 C 27.103 14.562,27.100 14.687,27.100 20.000 C 27.100 25.313,27.103 25.438,27.233 25.660 C 27.415 25.969,27.660 26.137,28.025 26.205 C 28.637 26.319,29.165 26.115,29.433 25.660 C 29.563 25.440,29.567 25.294,29.588 20.367 C 29.599 17.580,29.589 15.114,29.566 14.886 C 29.496 14.210,29.161 13.851,28.533 13.781 C 28.368 13.762,28.119 13.770,27.979 13.797 M4.646 23.797 C 4.330 23.859,4.074 24.046,3.900 24.340 C 3.771 24.559,3.767 24.687,3.767 28.133 C 3.767 32.094,3.758 32.009,4.208 32.459 C 4.658 32.909,4.572 32.900,8.533 32.900 C 11.980 32.900,12.108 32.896,12.326 32.767 C 12.635 32.585,12.803 32.340,12.872 31.975 C 12.986 31.363,12.781 30.835,12.326 30.567 C 12.111 30.440,11.960 30.432,9.183 30.413 L 6.267 30.392 6.264 27.679 C 6.262 26.187,6.236 24.836,6.205 24.676 C 6.074 23.997,5.442 23.641,4.646 23.797 M34.646 23.797 C 34.330 23.859,34.074 24.046,33.900 24.340 C 33.773 24.556,33.766 24.707,33.746 27.480 L 33.726 30.392 30.813 30.413 C 28.040 30.432,27.889 30.440,27.674 30.567 C 27.365 30.749,27.197 30.993,27.128 31.359 C 27.014 31.970,27.219 32.499,27.674 32.767 C 27.892 32.896,28.020 32.900,31.467 32.900 C 35.395 32.900,35.335 32.906,35.767 32.486 C 36.244 32.023,36.231 32.133,36.255 28.533 C 36.278 24.957,36.259 24.574,36.045 24.256 C 35.781 23.864,35.228 23.683,34.646 23.797 " stroke="none" fill-rule="evenodd" fill="black"></path></svg>