<svg width="40" height="40" viewBox="0 0 40 40" fill="none" xmlns="http://www.w3.org/2000/svg"><path d="M7.694 2.139 C 6.721 2.253,5.864 2.685,5.108 3.441 C 4.303 4.246,3.917 5.056,3.797 6.189 C 3.751 6.615,3.735 11.955,3.747 21.967 C 3.766 36.962,3.768 37.102,3.900 37.326 C 4.082 37.635,4.326 37.803,4.692 37.872 C 5.304 37.986,5.832 37.781,6.100 37.326 C 6.232 37.102,6.234 36.950,6.267 21.600 L 6.300 6.100 6.439 5.800 C 6.638 5.372,7.147 4.896,7.579 4.734 C 7.926 4.604,8.089 4.600,12.503 4.600 L 17.067 4.600 17.067 6.657 L 17.067 8.715 15.650 8.752 C 14.080 8.793,13.732 8.855,12.967 9.232 C 11.806 9.802,10.898 10.918,10.551 12.200 C 10.444 12.595,10.433 13.063,10.433 17.500 C 10.433 21.937,10.444 22.405,10.551 22.800 C 10.987 24.410,12.257 25.680,13.867 26.116 C 14.270 26.225,14.919 26.233,23.333 26.233 C 31.748 26.233,32.396 26.225,32.800 26.116 C 34.410 25.680,35.680 24.410,36.116 22.800 C 36.223 22.405,36.233 21.937,36.233 17.500 C 36.233 13.063,36.223 12.595,36.116 12.200 C 35.769 10.918,34.861 9.802,33.700 9.232 C 32.935 8.855,32.587 8.793,31.017 8.752 L 29.600 8.715 29.600 6.661 L 29.600 4.608 32.517 4.587 C 35.293 4.568,35.444 4.560,35.660 4.433 C 36.115 4.165,36.319 3.637,36.205 3.025 C 36.137 2.660,35.969 2.415,35.660 2.233 C 35.435 2.101,35.306 2.100,21.800 2.092 C 14.302 2.087,7.954 2.108,7.694 2.139 M27.067 6.667 L 27.067 8.733 23.333 8.733 L 19.600 8.733 19.600 6.667 L 19.600 4.600 23.333 4.600 L 27.067 4.600 27.067 6.667 M32.423 11.402 C 32.907 11.583,33.417 12.093,33.598 12.577 C 33.729 12.927,33.733 13.080,33.733 17.500 C 33.733 21.920,33.729 22.073,33.598 22.423 C 33.417 22.907,32.907 23.417,32.423 23.598 C 32.067 23.731,31.941 23.733,23.333 23.733 C 14.726 23.733,14.600 23.731,14.243 23.598 C 13.760 23.417,13.250 22.907,13.069 22.423 C 12.938 22.073,12.933 21.920,12.933 17.500 C 12.933 13.080,12.938 12.927,13.069 12.577 C 13.245 12.106,13.760 11.584,14.224 11.405 C 14.559 11.277,14.769 11.274,23.314 11.270 C 31.945 11.267,32.066 11.268,32.423 11.402 " stroke="none" fill-rule="evenodd" fill="black"></path></svg>