<svg width="40" height="40" viewBox="0 0 40 40" fill="none" xmlns="http://www.w3.org/2000/svg"><path d="M6.028 2.138 C 5.054 2.254,4.197 2.685,3.441 3.441 C 2.637 4.245,2.250 5.055,2.130 6.189 C 2.084 6.616,2.068 11.426,2.081 20.467 C 2.100 33.230,2.109 34.126,2.218 34.500 C 2.690 36.113,3.940 37.351,5.533 37.783 C 5.941 37.893,6.813 37.900,20.000 37.900 C 33.187 37.900,34.059 37.893,34.467 37.783 C 36.076 37.347,37.347 36.076,37.783 34.467 C 37.893 34.059,37.900 33.187,37.900 20.000 C 37.900 6.813,37.893 5.941,37.783 5.533 C 37.351 3.940,36.113 2.690,34.500 2.218 C 34.125 2.109,33.242 2.101,20.300 2.092 C 12.710 2.087,6.287 2.108,6.028 2.138 M18.747 8.350 C 18.766 11.961,18.772 12.108,18.900 12.326 C 19.168 12.781,19.696 12.986,20.308 12.872 C 20.674 12.803,20.918 12.635,21.100 12.326 C 21.228 12.108,21.234 11.961,21.253 8.350 L 21.273 4.600 27.501 4.600 C 33.595 4.600,33.736 4.603,34.090 4.735 C 34.574 4.916,35.084 5.426,35.265 5.910 C 35.399 6.269,35.400 6.369,35.400 20.000 C 35.400 33.631,35.399 33.731,35.265 34.090 C 35.084 34.574,34.574 35.084,34.090 35.265 C 33.731 35.399,33.631 35.400,20.000 35.400 C 6.369 35.400,6.269 35.399,5.910 35.265 C 5.426 35.084,4.916 34.574,4.735 34.090 C 4.601 33.731,4.600 33.631,4.600 20.000 C 4.600 6.369,4.601 6.269,4.735 5.910 C 4.911 5.439,5.427 4.917,5.891 4.739 C 6.223 4.611,6.425 4.607,12.480 4.603 L 18.727 4.600 18.747 8.350 M21.312 23.796 C 20.741 23.911,20.447 24.320,20.447 25.000 C 20.447 25.769,20.791 26.153,21.552 26.233 C 21.780 26.257,23.122 26.267,24.533 26.255 C 26.958 26.235,27.112 26.226,27.326 26.100 C 27.781 25.832,27.986 25.304,27.872 24.692 C 27.803 24.326,27.635 24.082,27.326 23.900 C 27.111 23.773,26.969 23.766,24.333 23.756 C 22.812 23.750,21.452 23.768,21.312 23.796 M21.312 28.797 C 20.742 28.910,20.447 29.320,20.447 30.000 C 20.447 30.770,20.792 31.154,21.552 31.233 C 21.780 31.256,23.872 31.266,26.200 31.254 C 30.293 31.234,30.441 31.229,30.660 31.100 C 30.969 30.918,31.137 30.674,31.205 30.308 C 31.319 29.696,31.115 29.168,30.660 28.900 C 30.440 28.771,30.304 28.766,26.000 28.756 C 23.562 28.751,21.452 28.769,21.312 28.797 " stroke="none" fill-rule="evenodd" fill="black"></path></svg>