<svg width="40" height="40" viewBox="0 0 40 40" fill="none" xmlns="http://www.w3.org/2000/svg"><path d="M7.694 3.805 C 6.720 3.920,5.864 4.352,5.108 5.108 C 3.990 6.225,3.671 7.301,3.755 9.667 C 3.778 10.323,3.835 10.928,3.898 11.167 C 4.219 12.399,5.151 13.538,6.300 14.102 C 7.161 14.525,7.332 14.548,9.817 14.583 L 12.067 14.614 12.067 15.833 L 12.067 17.052 9.817 17.084 C 7.332 17.118,7.160 17.142,6.300 17.565 C 5.139 18.136,4.231 19.252,3.884 20.533 C 3.776 20.931,3.767 21.434,3.767 26.667 C 3.767 31.899,3.776 32.402,3.884 32.800 C 4.320 34.410,5.590 35.680,7.200 36.116 C 7.606 36.226,8.403 36.233,20.000 36.233 C 31.597 36.233,32.394 36.226,32.800 36.116 C 34.410 35.680,35.680 34.410,36.116 32.800 C 36.224 32.402,36.233 31.899,36.233 26.667 C 36.233 21.434,36.224 20.931,36.116 20.533 C 35.769 19.252,34.861 18.136,33.700 17.565 C 32.840 17.142,32.668 17.118,30.183 17.084 L 27.933 17.052 27.933 15.833 L 27.933 14.614 30.183 14.583 C 32.668 14.548,32.840 14.525,33.700 14.102 C 34.862 13.530,35.774 12.409,36.114 11.133 C 36.282 10.503,36.282 7.830,36.114 7.200 C 35.691 5.613,34.446 4.356,32.833 3.885 C 32.459 3.776,31.644 3.768,20.300 3.759 C 13.627 3.753,7.954 3.774,7.694 3.805 M32.423 6.402 C 32.907 6.583,33.417 7.093,33.598 7.577 C 33.716 7.892,33.733 8.096,33.733 9.167 C 33.733 10.238,33.716 10.441,33.598 10.757 C 33.417 11.240,32.907 11.750,32.423 11.931 C 32.065 12.065,31.957 12.067,20.000 12.067 C 8.043 12.067,7.935 12.065,7.577 11.931 C 7.093 11.750,6.583 11.240,6.402 10.757 C 6.284 10.441,6.267 10.238,6.267 9.167 C 6.267 8.096,6.284 7.892,6.402 7.577 C 6.578 7.106,7.093 6.584,7.558 6.405 C 7.894 6.276,8.117 6.274,19.981 6.270 C 31.961 6.267,32.065 6.268,32.423 6.402 M25.400 15.833 L 25.400 17.067 20.000 17.067 L 14.600 17.067 14.600 15.833 L 14.600 14.600 20.000 14.600 L 25.400 14.600 25.400 15.833 M32.423 19.735 C 32.907 19.916,33.417 20.426,33.598 20.910 C 33.730 21.262,33.733 21.409,33.733 26.667 C 33.733 31.924,33.730 32.071,33.598 32.423 C 33.417 32.907,32.907 33.417,32.423 33.598 C 32.065 33.732,31.957 33.733,20.000 33.733 C 8.043 33.733,7.935 33.732,7.577 33.598 C 7.093 33.417,6.583 32.907,6.402 32.423 C 6.270 32.071,6.267 31.924,6.267 26.667 C 6.267 21.409,6.270 21.262,6.402 20.910 C 6.578 20.439,7.093 19.917,7.558 19.739 C 7.894 19.609,8.117 19.607,19.981 19.603 C 31.961 19.600,32.065 19.601,32.423 19.735 M9.311 21.567 C 8.939 21.708,8.544 22.019,8.299 22.364 C 7.729 23.165,7.833 24.284,8.541 24.992 C 8.973 25.424,9.335 25.567,10.000 25.567 C 10.665 25.567,11.027 25.424,11.459 24.992 C 11.891 24.560,12.033 24.198,12.033 23.533 C 12.033 23.076,12.004 22.906,11.879 22.654 C 11.682 22.253,11.278 21.850,10.880 21.655 C 10.490 21.465,9.697 21.420,9.311 21.567 M15.977 21.567 C 15.606 21.708,15.211 22.019,14.965 22.364 C 14.396 23.165,14.499 24.284,15.208 24.992 C 15.640 25.424,16.002 25.567,16.667 25.567 C 17.331 25.567,17.694 25.424,18.125 24.992 C 18.557 24.560,18.700 24.198,18.700 23.533 C 18.700 23.076,18.670 22.906,18.546 22.654 C 18.349 22.253,17.945 21.850,17.546 21.655 C 17.157 21.465,16.364 21.420,15.977 21.567 M22.644 21.567 C 22.272 21.708,21.877 22.019,21.632 22.364 C 21.063 23.165,21.166 24.284,21.875 24.992 C 22.306 25.424,22.669 25.567,23.333 25.567 C 23.998 25.567,24.360 25.424,24.792 24.992 C 25.224 24.560,25.367 24.198,25.367 23.533 C 25.367 23.076,25.337 22.906,25.212 22.654 C 25.015 22.253,24.612 21.850,24.213 21.655 C 23.824 21.465,23.031 21.420,22.644 21.567 M29.311 21.567 C 28.939 21.708,28.544 22.019,28.299 22.364 C 27.729 23.165,27.833 24.284,28.541 24.992 C 28.973 25.424,29.335 25.567,30.000 25.567 C 30.665 25.567,31.027 25.424,31.459 24.992 C 31.891 24.560,32.033 24.198,32.033 23.533 C 32.033 23.076,32.004 22.906,31.879 22.654 C 31.682 22.253,31.278 21.850,30.880 21.655 C 30.490 21.465,29.697 21.420,29.311 21.567 M10.278 23.244 C 10.531 23.473,10.353 23.933,10.012 23.933 C 9.655 23.933,9.471 23.520,9.710 23.255 C 9.848 23.103,10.117 23.098,10.278 23.244 M16.945 23.244 C 17.198 23.473,17.020 23.933,16.678 23.933 C 16.322 23.933,16.138 23.520,16.377 23.255 C 16.514 23.103,16.784 23.098,16.945 23.244 M23.611 23.244 C 23.763 23.381,23.769 23.650,23.623 23.811 C 23.394 24.064,22.933 23.886,22.933 23.545 C 22.933 23.188,23.347 23.004,23.611 23.244 M30.278 23.244 C 30.430 23.381,30.435 23.650,30.290 23.811 C 30.061 24.064,29.600 23.886,29.600 23.545 C 29.600 23.188,30.014 23.004,30.278 23.244 M9.311 28.233 C 8.939 28.374,8.544 28.686,8.299 29.030 C 7.729 29.831,7.833 30.950,8.541 31.659 C 8.973 32.091,9.335 32.233,10.000 32.233 C 10.665 32.233,11.027 32.091,11.459 31.659 C 11.891 31.227,12.033 30.865,12.033 30.200 C 12.033 29.742,12.004 29.573,11.879 29.320 C 11.682 28.920,11.278 28.517,10.880 28.322 C 10.490 28.131,9.697 28.087,9.311 28.233 M15.977 28.233 C 15.606 28.374,15.211 28.686,14.965 29.030 C 14.396 29.831,14.499 30.950,15.208 31.659 C 15.640 32.091,16.002 32.233,16.667 32.233 C 17.331 32.233,17.694 32.091,18.125 31.659 C 18.557 31.227,18.700 30.865,18.700 30.200 C 18.700 29.742,18.670 29.573,18.546 29.320 C 18.349 28.920,17.945 28.517,17.546 28.322 C 17.157 28.131,16.364 28.087,15.977 28.233 M22.644 28.233 C 22.272 28.374,21.877 28.686,21.632 29.030 C 21.063 29.831,21.166 30.950,21.875 31.659 C 22.306 32.091,22.669 32.233,23.333 32.233 C 23.998 32.233,24.360 32.091,24.792 31.659 C 25.224 31.227,25.367 30.865,25.367 30.200 C 25.367 29.742,25.337 29.573,25.212 29.320 C 25.015 28.920,24.612 28.517,24.213 28.322 C 23.824 28.131,23.031 28.087,22.644 28.233 M29.311 28.233 C 28.939 28.374,28.544 28.686,28.299 29.030 C 27.729 29.831,27.833 30.950,28.541 31.659 C 28.973 32.091,29.335 32.233,30.000 32.233 C 30.665 32.233,31.027 32.091,31.459 31.659 C 31.891 31.227,32.033 30.865,32.033 30.200 C 32.033 29.742,32.004 29.573,31.879 29.320 C 31.682 28.920,31.278 28.517,30.880 28.322 C 30.490 28.131,29.697 28.087,29.311 28.233 M10.278 29.910 C 10.531 30.139,10.353 30.600,10.012 30.600 C 9.655 30.600,9.471 30.186,9.710 29.922 C 9.848 29.770,10.117 29.765,10.278 29.910 M16.945 29.910 C 17.198 30.139,17.020 30.600,16.678 30.600 C 16.322 30.600,16.138 30.186,16.377 29.922 C 16.514 29.770,16.784 29.765,16.945 29.910 M23.611 29.910 C 23.763 30.048,23.769 30.317,23.623 30.478 C 23.394 30.731,22.933 30.553,22.933 30.212 C 22.933 29.855,23.347 29.671,23.611 29.910 M30.278 29.910 C 30.430 30.048,30.435 30.317,30.290 30.478 C 30.061 30.731,29.600 30.553,29.600 30.212 C 29.600 29.855,30.014 29.671,30.278 29.910 " stroke="none" fill-rule="evenodd" fill="black"></path></svg>