<svg width="40" height="40" viewBox="0 0 40 40" fill="none" xmlns="http://www.w3.org/2000/svg"><path d="M6.028 2.138 C 5.054 2.254,4.197 2.685,3.441 3.441 C 2.637 4.245,2.250 5.055,2.130 6.189 C 2.084 6.616,2.068 11.426,2.081 20.467 C 2.100 33.230,2.109 34.126,2.218 34.500 C 2.690 36.113,3.940 37.351,5.533 37.783 C 5.941 37.893,6.813 37.900,20.000 37.900 C 33.187 37.900,34.059 37.893,34.467 37.783 C 36.076 37.347,37.347 36.076,37.783 34.467 C 37.893 34.059,37.900 33.187,37.900 20.000 C 37.900 6.813,37.893 5.941,37.783 5.533 C 37.351 3.940,36.113 2.690,34.500 2.218 C 34.125 2.109,33.242 2.101,20.300 2.092 C 12.710 2.087,6.287 2.108,6.028 2.138 M34.090 4.735 C 34.574 4.916,35.084 5.426,35.265 5.910 C 35.399 6.269,35.400 6.369,35.400 20.000 C 35.400 33.631,35.399 33.731,35.265 34.090 C 35.084 34.574,34.574 35.084,34.090 35.265 C 33.731 35.399,33.631 35.400,20.000 35.400 C 6.369 35.400,6.269 35.399,5.910 35.265 C 5.426 35.084,4.916 34.574,4.735 34.090 C 4.601 33.731,4.600 33.631,4.600 20.000 C 4.600 6.369,4.601 6.269,4.735 5.910 C 4.911 5.439,5.427 4.917,5.891 4.739 C 6.228 4.609,6.457 4.607,19.981 4.603 C 33.636 4.600,33.731 4.601,34.090 4.735 M29.867 8.455 C 29.454 8.727,8.508 29.711,8.366 29.994 C 8.130 30.465,8.335 30.990,8.949 31.487 C 9.256 31.736,9.684 31.795,10.006 31.634 C 10.307 31.484,31.359 10.451,31.579 10.080 C 31.803 9.705,31.769 9.298,31.487 8.949 C 30.931 8.263,30.402 8.101,29.867 8.455 M12.694 8.805 C 12.129 8.872,11.473 9.100,10.958 9.408 C 10.476 9.697,9.697 10.476,9.408 10.958 C 8.558 12.378,8.558 14.288,9.408 15.708 C 9.697 16.191,10.476 16.970,10.958 17.258 C 12.378 18.109,14.288 18.109,15.708 17.258 C 16.191 16.970,16.970 16.191,17.258 15.708 C 18.084 14.330,18.108 12.405,17.316 11.055 C 16.368 9.437,14.602 8.577,12.694 8.805 M14.090 11.402 C 14.574 11.583,15.084 12.093,15.265 12.577 C 15.559 13.362,15.379 14.202,14.790 14.790 C 13.489 16.092,11.267 15.174,11.267 13.333 C 11.267 12.764,11.467 12.286,11.876 11.876 C 12.464 11.288,13.305 11.108,14.090 11.402 M26.028 22.138 C 25.053 22.254,24.197 22.686,23.441 23.441 C 22.659 24.223,22.257 25.044,22.137 26.102 C 22.018 27.149,22.232 28.190,22.742 29.042 C 23.030 29.524,23.809 30.303,24.292 30.592 C 25.712 31.442,27.622 31.442,29.042 30.592 C 29.524 30.303,30.303 29.524,30.592 29.042 C 31.417 27.663,31.441 25.739,30.650 24.389 C 29.701 22.771,27.935 21.911,26.028 22.138 M27.423 24.735 C 27.907 24.916,28.417 25.426,28.598 25.910 C 28.892 26.696,28.712 27.536,28.124 28.124 C 26.822 29.426,24.600 28.507,24.600 26.667 C 24.600 26.097,24.800 25.619,25.210 25.209 C 25.798 24.621,26.638 24.441,27.423 24.735 " stroke="none" fill-rule="evenodd" fill="black"></path></svg>