<svg width="40" height="40" viewBox="0 0 40 40" fill="none" xmlns="http://www.w3.org/2000/svg"><path d="M19.217 3.802 C 17.711 3.954,16.256 4.558,15.039 5.537 C 14.017 6.360,13.502 7.069,12.549 8.973 L 11.845 10.380 11.165 10.455 C 10.072 10.574,9.260 10.934,8.464 11.652 C 8.041 12.034,7.571 12.702,7.351 13.233 C 7.275 13.417,7.136 13.882,7.042 14.267 C 6.949 14.652,6.010 18.522,4.957 22.867 L 3.041 30.767 3.042 31.700 C 3.042 32.534,3.061 32.685,3.215 33.118 C 3.616 34.242,4.484 35.240,5.493 35.735 C 6.602 36.278,5.301 36.233,19.967 36.233 C 32.509 36.233,33.052 36.228,33.500 36.109 C 34.789 35.765,35.880 34.886,36.465 33.719 C 36.835 32.982,36.958 32.361,36.915 31.443 C 36.883 30.762,36.722 30.038,34.971 22.700 C 33.921 18.300,32.987 14.403,32.896 14.040 C 32.657 13.091,32.285 12.414,31.667 11.800 C 30.829 10.969,30.020 10.584,28.835 10.455 L 28.155 10.380 27.451 8.973 C 26.488 7.049,25.980 6.353,24.923 5.508 C 23.326 4.230,21.220 3.600,19.217 3.802 M21.046 6.364 C 22.517 6.681,23.748 7.537,24.550 8.800 C 24.817 9.221,25.333 10.231,25.333 10.332 C 25.333 10.378,23.577 10.400,19.966 10.400 L 14.599 10.400 14.908 9.783 C 15.518 8.568,15.989 7.953,16.750 7.382 C 17.448 6.857,18.126 6.541,18.933 6.362 C 19.449 6.247,20.508 6.249,21.046 6.364 M29.391 13.165 C 29.775 13.378,30.126 13.742,30.301 14.112 C 30.466 14.459,34.467 31.345,34.467 31.693 C 34.467 32.205,34.231 32.720,33.808 33.133 C 33.131 33.795,34.549 33.734,19.952 33.734 L 7.137 33.733 6.777 33.574 C 6.288 33.358,5.907 32.997,5.690 32.544 C 5.348 31.830,5.295 32.112,7.456 23.167 C 8.528 18.730,9.468 14.865,9.544 14.578 C 9.754 13.794,10.209 13.282,10.925 13.025 C 11.120 12.955,12.909 12.941,20.100 12.952 L 29.033 12.967 29.391 13.165 " stroke="none" fill-rule="evenodd" fill="black"></path></svg>