<svg width="40" height="40" viewBox="0 0 40 40" fill="none" xmlns="http://www.w3.org/2000/svg"><path d="M16.028 2.138 C 15.463 2.205,14.806 2.434,14.292 2.742 C 13.809 3.030,13.030 3.809,12.742 4.292 C 11.891 5.712,11.891 7.622,12.742 9.042 C 13.030 9.524,13.809 10.303,14.292 10.592 C 15.712 11.442,17.622 11.442,19.042 10.592 C 19.524 10.303,20.303 9.524,20.592 9.042 C 21.417 7.663,21.441 5.739,20.650 4.389 C 19.701 2.771,17.935 1.911,16.028 2.138 M17.423 4.735 C 17.907 4.916,18.417 5.426,18.598 5.910 C 19.111 7.282,18.118 8.733,16.667 8.733 C 15.522 8.733,14.600 7.811,14.600 6.667 C 14.600 6.097,14.800 5.619,15.210 5.209 C 15.798 4.621,16.638 4.441,17.423 4.735 M29.344 12.137 C 28.442 12.257,27.533 12.684,26.882 13.293 C 26.650 13.511,25.647 14.721,24.653 15.984 L 22.846 18.279 22.722 17.791 C 22.246 15.917,20.749 14.431,18.833 13.930 C 18.092 13.737,16.908 13.737,16.167 13.930 C 14.237 14.434,12.808 15.860,12.253 17.833 L 12.103 18.367 12.083 25.165 L 12.063 31.963 11.750 32.365 C 10.600 33.839,9.918 34.667,9.670 34.890 C 9.128 35.378,9.239 35.363,5.900 35.400 C 3.053 35.432,2.888 35.440,2.674 35.567 C 2.219 35.835,2.014 36.363,2.128 36.975 C 2.197 37.340,2.365 37.585,2.674 37.767 C 2.891 37.895,3.020 37.900,5.933 37.900 C 8.605 37.899,9.021 37.885,9.423 37.782 C 10.293 37.560,11.276 36.956,11.805 36.320 C 11.936 36.162,15.667 31.428,20.097 25.800 C 24.527 20.172,28.275 15.437,28.425 15.278 C 28.576 15.119,28.850 14.909,29.033 14.811 L 29.367 14.633 33.233 14.600 C 36.948 14.568,37.109 14.561,37.326 14.433 C 37.781 14.165,37.986 13.637,37.872 13.025 C 37.803 12.660,37.635 12.415,37.326 12.233 C 37.108 12.105,36.971 12.100,33.433 12.090 C 31.417 12.085,29.577 12.106,29.344 12.137 M18.287 16.365 C 19.269 16.663,20.005 17.403,20.305 18.392 C 20.372 18.612,20.399 19.083,20.399 20.041 L 20.400 21.383 17.517 25.045 L 14.633 28.707 14.615 23.737 C 14.601 20.053,14.616 18.689,14.675 18.467 C 14.933 17.490,15.655 16.724,16.628 16.391 C 17.050 16.248,17.857 16.235,18.287 16.365 " stroke="none" fill-rule="evenodd" fill="black"></path></svg>