<svg width="40" height="40" viewBox="0 0 40 40" fill="none" xmlns="http://www.w3.org/2000/svg"><path d="M7.694 2.138 C 6.720 2.254,5.864 2.685,5.108 3.441 C 4.304 4.245,3.917 5.055,3.796 6.189 C 3.751 6.616,3.734 11.426,3.748 20.467 C 3.767 33.230,3.776 34.126,3.885 34.500 C 4.357 36.113,5.607 37.351,7.200 37.783 C 7.606 37.893,8.403 37.900,20.000 37.900 C 31.597 37.900,32.394 37.893,32.800 37.783 C 34.410 37.347,35.680 36.076,36.116 34.467 C 36.226 34.059,36.233 33.187,36.233 20.000 C 36.233 6.813,36.226 5.941,36.116 5.533 C 35.685 3.940,34.446 2.689,32.833 2.219 C 32.459 2.109,31.644 2.101,20.300 2.092 C 13.627 2.087,7.954 2.107,7.694 2.138 M13.733 6.740 C 13.733 9.109,13.702 9.359,13.311 10.100 C 13.040 10.615,12.281 11.374,11.767 11.645 C 10.688 12.213,9.312 12.213,8.233 11.645 C 7.719 11.374,6.960 10.615,6.689 10.100 C 6.331 9.422,6.267 9.035,6.267 7.576 C 6.267 6.008,6.332 5.753,6.876 5.209 C 7.484 4.602,7.449 4.607,10.817 4.603 L 13.733 4.600 13.733 6.740 M23.733 6.740 C 23.733 9.109,23.702 9.359,23.311 10.100 C 23.040 10.615,22.281 11.374,21.767 11.645 C 20.688 12.213,19.312 12.213,18.233 11.645 C 17.719 11.374,16.960 10.615,16.689 10.100 C 16.298 9.359,16.267 9.109,16.267 6.740 L 16.267 4.600 20.000 4.600 L 23.733 4.600 23.733 6.740 M32.423 4.735 C 32.907 4.916,33.417 5.426,33.598 5.910 C 33.717 6.228,33.733 6.429,33.733 7.576 C 33.733 9.035,33.669 9.422,33.311 10.100 C 33.040 10.615,32.281 11.374,31.767 11.645 C 30.688 12.213,29.312 12.213,28.233 11.645 C 27.719 11.374,26.960 10.615,26.689 10.100 C 26.298 9.359,26.267 9.109,26.267 6.740 L 26.267 4.600 29.164 4.600 C 31.912 4.600,32.080 4.607,32.423 4.735 M15.388 12.540 C 15.900 13.105,16.518 13.556,17.300 13.936 C 18.065 14.307,18.535 14.440,19.392 14.529 C 20.552 14.649,21.628 14.456,22.700 13.936 C 23.487 13.554,24.101 13.104,24.622 12.528 L 25.000 12.111 25.378 12.528 C 25.586 12.758,25.953 13.096,26.195 13.279 C 26.720 13.678,27.810 14.220,28.375 14.363 C 29.376 14.616,30.637 14.615,31.625 14.361 C 32.103 14.238,33.010 13.826,33.435 13.539 L 33.733 13.338 33.733 23.533 C 33.733 33.614,33.732 33.732,33.598 34.090 C 33.417 34.574,32.907 35.084,32.423 35.265 C 32.089 35.390,31.908 35.400,29.997 35.400 L 27.933 35.400 27.933 31.083 C 27.932 26.620,27.890 25.602,27.667 24.740 C 26.936 21.907,24.753 19.724,21.926 18.999 C 20.806 18.711,19.194 18.711,18.074 18.999 C 15.247 19.724,13.064 21.907,12.333 24.740 C 12.110 25.602,12.068 26.620,12.067 31.083 L 12.067 35.400 10.003 35.400 C 8.092 35.400,7.911 35.390,7.577 35.265 C 7.093 35.084,6.583 34.574,6.402 34.090 C 6.268 33.732,6.267 33.614,6.267 23.533 L 6.267 13.338 6.565 13.539 C 6.990 13.826,7.897 14.238,8.375 14.361 C 9.363 14.615,10.624 14.616,11.625 14.363 C 12.192 14.219,13.280 13.678,13.808 13.277 C 14.051 13.092,14.411 12.760,14.608 12.539 C 14.805 12.318,14.979 12.136,14.994 12.135 C 15.008 12.134,15.186 12.316,15.388 12.540 M21.667 21.527 C 22.550 21.824,23.133 22.188,23.806 22.861 C 24.474 23.528,24.836 24.108,25.147 25.000 L 25.367 25.633 25.386 30.517 L 25.405 35.400 20.000 35.400 L 14.595 35.400 14.614 30.517 L 14.633 25.633 14.853 25.000 C 15.141 24.172,15.507 23.565,16.084 22.957 C 16.646 22.366,17.300 21.917,17.990 21.649 C 18.806 21.332,19.205 21.267,20.167 21.291 C 20.931 21.311,21.108 21.338,21.667 21.527 " stroke="none" fill-rule="evenodd" fill="black"></path></svg>