<svg width="40" height="40" viewBox="0 0 40 40" fill="none" xmlns="http://www.w3.org/2000/svg"><path d="M25.700 3.276 C 25.553 3.315,21.203 4.561,16.033 6.045 C 9.583 7.896,6.465 8.762,6.096 8.804 C 5.028 8.926,4.197 9.328,3.467 10.074 C 2.628 10.931,2.251 11.715,2.129 12.855 C 2.084 13.280,2.068 17.018,2.081 23.800 C 2.101 33.367,2.111 34.128,2.219 34.500 C 2.688 36.111,3.940 37.351,5.533 37.783 C 5.941 37.893,6.813 37.900,20.000 37.900 C 33.187 37.900,34.059 37.893,34.467 37.783 C 36.076 37.347,37.347 36.076,37.783 34.467 C 37.892 34.061,37.900 33.339,37.900 23.333 C 37.900 13.328,37.892 12.605,37.783 12.200 C 37.436 10.919,36.526 9.801,35.367 9.231 C 34.602 8.856,34.252 8.793,32.693 8.752 L 31.286 8.715 31.244 7.874 C 31.192 6.861,31.087 6.413,30.723 5.671 C 30.507 5.228,30.333 4.994,29.907 4.571 C 29.301 3.968,28.841 3.671,28.122 3.419 C 27.718 3.277,27.489 3.243,26.800 3.226 C 26.342 3.215,25.847 3.237,25.700 3.276 M27.515 5.865 C 27.941 6.049,28.355 6.482,28.572 6.973 C 28.709 7.282,28.733 7.442,28.733 8.035 L 28.733 8.733 22.250 8.727 C 18.354 8.724,15.846 8.698,15.967 8.662 C 16.077 8.629,18.462 7.941,21.267 7.133 C 26.906 5.507,26.754 5.538,27.515 5.865 M34.090 11.402 C 34.574 11.583,35.084 12.093,35.265 12.577 C 35.392 12.917,35.400 13.089,35.400 15.530 L 35.400 18.122 32.450 18.152 C 30.556 18.171,29.393 18.210,29.200 18.259 C 27.372 18.723,25.905 20.207,25.531 21.971 C 25.395 22.609,25.424 23.679,25.595 24.297 C 26.051 25.957,27.322 27.241,29.001 27.739 C 29.476 27.880,29.644 27.888,32.450 27.917 L 35.400 27.946 35.400 30.837 C 35.400 33.579,35.393 33.747,35.265 34.090 C 35.084 34.574,34.574 35.084,34.090 35.265 C 33.731 35.399,33.631 35.400,20.000 35.400 C 6.369 35.400,6.269 35.399,5.910 35.265 C 5.426 35.084,4.916 34.574,4.735 34.090 C 4.601 33.732,4.600 33.615,4.600 23.333 C 4.600 13.106,4.602 12.933,4.733 12.582 C 4.806 12.387,4.980 12.109,5.119 11.965 C 5.336 11.739,5.472 11.674,6.102 11.490 L 6.833 11.276 20.281 11.272 C 33.636 11.267,33.731 11.268,34.090 11.402 M35.400 23.035 L 35.400 25.404 32.550 25.385 L 29.700 25.367 29.320 25.189 C 27.602 24.383,27.455 21.969,29.065 21.011 C 29.609 20.687,29.671 20.681,32.617 20.674 L 35.400 20.667 35.400 23.035 " stroke="none" fill-rule="evenodd" fill="black"></path></svg>