<svg width="40" height="40" viewBox="0 0 40 40" fill="none" xmlns="http://www.w3.org/2000/svg"><path d="M8.100 2.936 C 5.423 3.411,3.119 3.850,2.980 3.911 C 2.708 4.031,2.408 4.335,2.218 4.684 C 2.108 4.886,2.100 5.263,2.100 10.333 L 2.100 15.767 2.246 16.040 C 2.326 16.190,2.495 16.403,2.622 16.514 C 2.870 16.733,2.964 16.771,5.400 17.656 L 7.033 18.249 7.069 26.175 C 7.108 34.986,7.075 34.370,7.565 35.367 C 8.136 36.527,9.252 37.436,10.533 37.783 C 10.937 37.892,11.585 37.900,20.000 37.900 C 28.415 37.900,29.063 37.892,29.467 37.783 C 31.060 37.351,32.315 36.108,32.780 34.500 C 32.887 34.132,32.898 33.464,32.917 26.158 L 32.938 18.215 34.253 17.735 C 37.188 16.662,37.182 16.664,37.417 16.436 C 37.542 16.315,37.702 16.099,37.772 15.958 C 37.895 15.710,37.900 15.490,37.900 10.333 C 37.900 5.362,37.891 4.948,37.783 4.719 C 37.619 4.370,37.261 4.033,36.922 3.909 C 36.763 3.851,34.440 3.412,31.759 2.933 C 27.355 2.146,26.853 2.069,26.568 2.133 C 26.167 2.223,25.947 2.339,25.717 2.581 C 25.616 2.687,25.095 3.703,24.560 4.837 C 24.025 5.972,23.446 7.110,23.273 7.367 C 21.760 9.617,18.261 9.624,16.731 7.378 C 16.561 7.128,15.993 6.012,15.468 4.899 C 14.944 3.786,14.429 2.771,14.324 2.644 C 14.097 2.367,13.679 2.156,13.267 2.107 C 13.052 2.082,11.578 2.319,8.100 2.936 M13.168 5.867 C 14.270 8.223,14.595 8.801,15.196 9.481 C 15.847 10.218,17.326 11.111,18.308 11.362 C 19.330 11.622,20.670 11.622,21.692 11.362 C 22.674 11.111,24.153 10.218,24.804 9.481 C 25.411 8.795,25.571 8.514,26.636 6.267 C 27.325 4.813,27.390 4.702,27.539 4.722 C 27.776 4.754,35.074 6.059,35.250 6.100 L 35.400 6.136 35.400 10.393 L 35.400 14.651 34.483 14.988 C 33.979 15.174,33.064 15.510,32.450 15.736 C 31.835 15.962,31.236 16.212,31.119 16.291 C 30.822 16.491,30.529 16.931,30.462 17.276 C 30.431 17.436,30.405 21.203,30.403 25.647 C 30.400 33.600,30.398 33.734,30.265 34.090 C 30.084 34.574,29.574 35.084,29.090 35.265 C 28.733 35.398,28.607 35.400,20.000 35.400 C 11.411 35.400,11.266 35.398,10.912 35.266 C 10.480 35.104,9.971 34.628,9.773 34.200 C 9.634 33.902,9.633 33.842,9.600 25.567 L 9.567 17.233 9.372 16.882 C 9.253 16.667,9.070 16.461,8.900 16.349 C 8.747 16.249,7.717 15.837,6.611 15.435 L 4.600 14.703 4.600 10.397 L 4.600 6.090 8.583 5.388 C 10.774 5.001,12.586 4.704,12.610 4.726 C 12.634 4.748,12.885 5.262,13.168 5.867 " stroke="none" fill-rule="evenodd" fill="black"></path></svg>