<svg width="40" height="40" viewBox="0 0 40 40" fill="none" xmlns="http://www.w3.org/2000/svg"><path d="M18.567 0.503 C 14.512 1.104,11.220 4.346,10.560 8.390 C 10.433 9.163,10.422 10.618,10.535 11.400 C 10.822 13.374,11.865 15.407,13.310 16.809 C 13.785 17.269,14.703 18.000,14.807 18.000 C 14.840 18.000,14.867 18.030,14.867 18.067 C 14.867 18.103,14.829 18.133,14.783 18.134 C 14.625 18.134,13.097 18.914,12.500 19.300 C 9.119 21.482,6.736 24.742,5.363 29.067 C 4.914 30.479,3.733 34.903,3.733 35.171 C 3.733 35.742,4.269 36.190,5.022 36.248 C 5.375 36.275,5.466 36.257,5.663 36.123 C 5.789 36.037,5.950 35.869,6.019 35.750 C 6.089 35.631,6.474 34.341,6.875 32.883 C 7.913 29.110,8.340 27.920,9.213 26.370 C 10.867 23.433,13.389 21.239,16.267 20.234 C 17.290 19.877,18.337 19.677,19.580 19.600 C 20.174 19.564,20.969 19.490,21.347 19.437 C 25.462 18.856,28.755 15.644,29.442 11.543 C 29.567 10.798,29.567 9.136,29.442 8.390 C 28.757 4.298,25.470 1.085,21.367 0.498 C 20.554 0.382,19.373 0.384,18.567 0.503 M21.450 3.037 C 24.036 3.565,26.118 5.548,26.850 8.181 C 27.015 8.773,27.031 8.938,27.031 9.967 C 27.031 10.996,27.015 11.160,26.850 11.752 C 26.116 14.391,24.072 16.337,21.433 16.905 C 20.712 17.061,19.288 17.061,18.567 16.905 C 15.928 16.337,13.884 14.391,13.150 11.752 C 12.985 11.160,12.969 10.996,12.969 9.967 C 12.969 8.938,12.985 8.773,13.150 8.181 C 13.939 5.342,16.217 3.337,19.106 2.938 C 19.697 2.856,20.789 2.903,21.450 3.037 M27.533 20.470 C 25.287 20.648,23.189 21.623,21.573 23.239 C 17.832 26.979,17.833 33.017,21.575 36.759 C 25.318 40.502,31.349 40.502,35.092 36.759 C 38.835 33.016,38.836 26.994,35.094 23.241 C 33.092 21.233,30.393 20.244,27.533 20.470 M29.605 23.038 C 31.044 23.311,32.299 23.974,33.329 25.004 C 35.719 27.393,36.089 31.091,34.221 33.917 C 32.928 35.875,30.700 37.067,28.333 37.067 C 24.915 37.067,22.013 34.651,21.371 31.271 C 20.947 29.032,21.695 26.646,23.337 25.004 C 24.112 24.230,24.873 23.754,26.105 23.273 C 26.923 22.954,28.577 22.843,29.605 23.038 M23.390 28.489 C 22.290 28.900,21.975 30.298,22.797 31.120 C 23.147 31.470,23.379 31.563,23.900 31.563 C 24.418 31.563,24.761 31.425,25.080 31.089 C 25.621 30.519,25.621 29.481,25.080 28.911 C 24.679 28.489,23.906 28.296,23.390 28.489 M27.733 28.539 C 27.096 28.827,26.772 29.320,26.771 30.000 C 26.771 30.916,27.416 31.562,28.333 31.562 C 28.981 31.562,29.462 31.263,29.773 30.667 C 29.949 30.331,29.939 29.650,29.754 29.300 C 29.472 28.769,28.893 28.403,28.333 28.403 C 28.168 28.403,27.898 28.464,27.733 28.539 M31.830 28.558 C 31.022 28.934,30.659 29.835,31.005 30.600 C 31.294 31.237,31.787 31.562,32.467 31.562 C 33.384 31.562,34.029 30.916,34.029 30.000 C 34.028 28.834,32.870 28.074,31.830 28.558 M24.333 29.203 C 24.388 29.231,24.508 29.335,24.600 29.433 C 24.739 29.581,24.767 29.677,24.767 30.001 C 24.767 30.342,24.742 30.417,24.570 30.596 C 23.913 31.282,22.785 30.647,23.056 29.744 C 23.147 29.438,23.304 29.285,23.646 29.165 C 23.889 29.080,24.117 29.092,24.333 29.203 M28.800 29.253 C 29.459 29.663,29.310 30.653,28.558 30.860 C 28.266 30.941,27.934 30.849,27.709 30.624 C 26.969 29.884,27.911 28.699,28.800 29.253 M32.933 29.253 C 33.592 29.663,33.443 30.653,32.692 30.860 C 32.399 30.941,32.067 30.849,31.842 30.624 C 31.102 29.884,32.044 28.699,32.933 29.253 " stroke="none" fill-rule="evenodd" fill="black"></path></svg>