<svg width="40" height="40" viewBox="0 0 40 40" fill="none" xmlns="http://www.w3.org/2000/svg"><path d="M18.400 0.439 C 17.510 0.544,17.035 0.634,16.443 0.809 C 13.211 1.765,10.692 4.408,9.877 7.700 C 9.653 8.604,9.577 9.397,9.621 10.386 C 9.722 12.672,10.500 14.602,12.021 16.342 C 12.480 16.867,13.266 17.559,13.783 17.894 C 14.038 18.059,14.051 18.109,13.850 18.169 C 13.584 18.249,12.254 18.940,11.703 19.285 C 8.321 21.401,5.799 24.904,4.444 29.367 C 3.826 31.404,2.931 34.790,2.924 35.122 C 2.919 35.344,2.959 35.532,3.043 35.676 C 3.317 36.145,4.316 36.413,4.800 36.148 C 4.928 36.078,5.099 35.903,5.179 35.760 C 5.259 35.617,5.630 34.390,6.003 33.033 C 6.753 30.304,7.009 29.457,7.355 28.567 C 8.204 26.379,9.285 24.702,10.840 23.158 C 12.456 21.554,14.266 20.495,16.288 19.971 C 17.230 19.727,17.632 19.669,18.867 19.598 C 20.581 19.500,21.346 19.366,22.479 18.964 C 23.853 18.477,25.328 17.468,26.312 16.342 C 27.821 14.616,28.607 12.679,28.712 10.427 C 28.873 6.957,27.208 3.774,24.227 1.854 C 23.358 1.295,21.949 0.751,20.884 0.566 C 20.304 0.465,18.825 0.389,18.400 0.439 M19.744 2.933 C 20.933 3.048,22.080 3.436,23.000 4.033 C 23.711 4.494,24.820 5.633,25.226 6.317 C 25.903 7.460,26.218 8.614,26.222 9.967 C 26.225 10.930,26.149 11.413,25.867 12.242 C 25.088 14.532,23.275 16.207,20.876 16.851 C 20.311 17.002,20.104 17.023,19.167 17.023 C 18.230 17.023,18.022 17.002,17.458 16.851 C 15.043 16.203,13.242 14.531,12.447 12.200 C 12.193 11.455,12.111 10.925,12.107 10.000 C 12.101 8.666,12.428 7.464,13.107 6.317 C 13.508 5.641,14.618 4.497,15.319 4.038 C 16.189 3.468,17.438 3.038,18.522 2.934 C 18.803 2.907,19.048 2.882,19.067 2.878 C 19.085 2.874,19.390 2.898,19.744 2.933 M26.100 20.540 C 23.717 20.954,21.728 22.046,20.283 23.733 C 18.817 25.444,18.054 27.372,17.954 29.614 C 17.801 33.062,19.468 36.232,22.439 38.146 C 23.304 38.702,24.700 39.239,25.806 39.439 C 26.656 39.594,28.344 39.594,29.194 39.439 C 32.895 38.768,35.879 35.963,36.791 32.300 C 37.230 30.536,37.124 28.486,36.506 26.779 C 35.320 23.503,32.463 21.129,29.028 20.567 C 28.378 20.460,26.649 20.444,26.100 20.540 M29.209 23.153 C 31.931 23.867,33.941 26.003,34.475 28.748 C 34.600 29.393,34.584 30.735,34.443 31.400 C 34.138 32.838,33.566 33.898,32.533 34.938 C 31.606 35.872,30.824 36.367,29.664 36.754 C 28.367 37.188,26.633 37.188,25.336 36.754 C 24.176 36.367,23.394 35.872,22.467 34.938 C 21.434 33.898,20.862 32.838,20.557 31.400 C 20.415 30.731,20.400 29.395,20.527 28.733 C 21.005 26.237,22.885 24.076,25.252 23.303 C 26.525 22.887,27.983 22.832,29.209 23.153 M27.897 25.467 C 27.732 25.549,26.942 26.290,25.856 27.383 C 23.945 29.306,23.905 29.362,23.911 30.043 C 23.917 30.645,24.064 30.836,25.982 32.745 C 27.949 34.702,28.024 34.755,28.608 34.598 C 28.977 34.498,29.498 33.977,29.598 33.608 C 29.750 33.043,29.665 32.913,28.147 31.383 L 26.774 30.000 28.147 28.617 C 29.665 27.087,29.750 26.957,29.598 26.392 C 29.501 26.034,28.979 25.504,28.625 25.406 C 28.272 25.308,28.207 25.313,27.897 25.467 " stroke="none" fill-rule="evenodd" fill="black"></path></svg>