<svg width="40" height="40" viewBox="0 0 40 40" fill="none" xmlns="http://www.w3.org/2000/svg"><path d="M18.567 0.503 C 14.512 1.104,11.223 4.343,10.559 8.390 C 10.423 9.224,10.423 10.710,10.559 11.544 C 10.880 13.497,11.891 15.432,13.310 16.809 C 13.785 17.269,14.703 18.000,14.807 18.000 C 14.840 18.000,14.867 18.030,14.867 18.067 C 14.867 18.103,14.829 18.133,14.783 18.134 C 14.625 18.134,13.097 18.914,12.500 19.300 C 9.119 21.482,6.736 24.742,5.363 29.067 C 4.914 30.479,3.733 34.903,3.733 35.171 C 3.733 35.742,4.269 36.190,5.022 36.248 C 5.375 36.275,5.466 36.257,5.663 36.123 C 5.789 36.037,5.950 35.869,6.019 35.750 C 6.089 35.631,6.474 34.341,6.875 32.883 C 7.913 29.110,8.340 27.920,9.213 26.370 C 10.867 23.433,13.389 21.239,16.267 20.234 C 17.290 19.877,18.337 19.677,19.580 19.600 C 20.174 19.564,20.969 19.490,21.347 19.437 C 25.462 18.856,28.755 15.644,29.442 11.543 C 29.567 10.798,29.567 9.136,29.442 8.390 C 28.757 4.298,25.470 1.085,21.367 0.498 C 20.554 0.382,19.373 0.384,18.567 0.503 M21.450 3.037 C 24.036 3.565,26.118 5.548,26.850 8.181 C 27.015 8.773,27.031 8.938,27.031 9.967 C 27.031 10.996,27.015 11.160,26.850 11.752 C 26.116 14.391,24.072 16.337,21.433 16.905 C 20.712 17.061,19.288 17.061,18.567 16.905 C 15.928 16.337,13.884 14.391,13.150 11.752 C 12.985 11.160,12.969 10.996,12.969 9.967 C 12.969 8.938,12.985 8.773,13.150 8.181 C 13.939 5.342,16.217 3.337,19.106 2.938 C 19.697 2.856,20.789 2.903,21.450 3.037 M27.533 20.470 C 25.287 20.648,23.189 21.623,21.573 23.239 C 17.832 26.979,17.833 33.017,21.575 36.759 C 25.318 40.502,31.349 40.502,35.092 36.759 C 38.835 33.016,38.836 26.994,35.094 23.241 C 33.092 21.233,30.393 20.244,27.533 20.470 M29.605 23.038 C 31.044 23.311,32.299 23.974,33.329 25.004 C 35.719 27.393,36.089 31.091,34.221 33.917 C 32.928 35.875,30.700 37.067,28.333 37.067 C 24.915 37.067,22.013 34.651,21.371 31.271 C 20.947 29.032,21.695 26.646,23.337 25.004 C 24.112 24.230,24.873 23.754,26.105 23.273 C 26.923 22.954,28.577 22.843,29.605 23.038 M27.863 24.659 C 27.548 24.762,27.413 24.864,27.259 25.112 C 27.133 25.316,27.107 25.452,27.107 25.900 C 27.107 26.702,27.376 27.084,28.025 27.205 C 28.403 27.276,28.889 27.193,29.125 27.017 C 29.454 26.771,29.560 26.496,29.557 25.895 C 29.553 25.272,29.429 24.990,29.064 24.775 C 28.828 24.636,28.137 24.570,27.863 24.659 M27.767 27.744 C 27.512 27.838,27.348 27.981,27.210 28.233 C 27.112 28.411,27.100 28.780,27.100 31.533 C 27.100 34.513,27.105 34.642,27.233 34.860 C 27.480 35.279,27.670 35.367,28.333 35.367 C 28.996 35.367,29.186 35.279,29.433 34.860 C 29.560 34.645,29.568 34.492,29.588 31.900 C 29.600 30.397,29.591 28.980,29.567 28.752 C 29.517 28.279,29.332 27.951,29.031 27.803 C 28.783 27.681,28.032 27.646,27.767 27.744 " stroke="none" fill-rule="evenodd" fill="black"></path></svg>