<svg width="40" height="40" viewBox="0 0 40 40" fill="none" xmlns="http://www.w3.org/2000/svg"><path d="M18.567 0.503 C 14.512 1.104,11.220 4.346,10.560 8.390 C 10.433 9.163,10.422 10.618,10.535 11.400 C 10.822 13.374,11.865 15.407,13.310 16.809 C 13.785 17.269,14.703 18.000,14.807 18.000 C 14.840 18.000,14.867 18.030,14.867 18.067 C 14.867 18.103,14.829 18.133,14.783 18.134 C 14.625 18.134,13.097 18.914,12.500 19.300 C 9.119 21.482,6.736 24.742,5.363 29.067 C 4.914 30.479,3.733 34.903,3.733 35.171 C 3.733 35.742,4.269 36.190,5.022 36.248 C 5.375 36.275,5.466 36.257,5.663 36.123 C 5.789 36.037,5.950 35.869,6.019 35.750 C 6.089 35.631,6.474 34.341,6.875 32.883 C 7.913 29.110,8.340 27.920,9.213 26.370 C 10.867 23.433,13.389 21.239,16.267 20.234 C 17.290 19.877,18.337 19.677,19.580 19.600 C 20.174 19.564,20.969 19.490,21.347 19.437 C 25.462 18.856,28.755 15.644,29.442 11.543 C 29.567 10.798,29.567 9.136,29.442 8.390 C 28.757 4.298,25.470 1.085,21.367 0.498 C 20.554 0.382,19.373 0.384,18.567 0.503 M21.450 3.037 C 24.036 3.565,26.118 5.548,26.850 8.181 C 27.015 8.773,27.031 8.938,27.031 9.967 C 27.031 10.996,27.015 11.160,26.850 11.752 C 26.116 14.391,24.072 16.337,21.433 16.905 C 20.712 17.061,19.288 17.061,18.567 16.905 C 15.928 16.337,13.884 14.391,13.150 11.752 C 12.985 11.160,12.969 10.996,12.969 9.967 C 12.969 8.938,12.985 8.773,13.150 8.181 C 13.939 5.342,16.217 3.337,19.106 2.938 C 19.697 2.856,20.789 2.903,21.450 3.037 M27.533 20.470 C 25.287 20.648,23.189 21.623,21.573 23.239 C 17.832 26.979,17.833 33.017,21.575 36.759 C 25.318 40.502,31.349 40.502,35.092 36.759 C 38.835 33.016,38.836 26.994,35.094 23.241 C 33.092 21.233,30.393 20.244,27.533 20.470 M29.605 23.038 C 31.044 23.311,32.299 23.974,33.329 25.004 C 35.719 27.393,36.089 31.091,34.221 33.917 C 32.928 35.875,30.700 37.067,28.333 37.067 C 24.915 37.067,22.013 34.651,21.371 31.271 C 20.947 29.032,21.695 26.646,23.337 25.004 C 24.112 24.230,24.873 23.754,26.105 23.273 C 26.923 22.954,28.577 22.843,29.605 23.038 M27.979 25.464 C 27.663 25.526,27.407 25.712,27.234 26.007 C 27.116 26.207,27.098 26.380,27.076 27.476 L 27.053 28.719 25.810 28.743 C 24.714 28.764,24.540 28.783,24.340 28.900 C 23.885 29.168,23.681 29.696,23.795 30.308 C 23.863 30.674,24.032 30.918,24.340 31.100 C 24.540 31.217,24.714 31.236,25.810 31.257 L 27.053 31.281 27.076 32.524 C 27.103 33.879,27.148 34.056,27.542 34.350 C 27.918 34.630,28.749 34.630,29.125 34.350 C 29.519 34.056,29.564 33.879,29.590 32.524 L 29.614 31.281 30.857 31.257 C 31.953 31.236,32.127 31.217,32.326 31.100 C 32.781 30.832,32.986 30.304,32.872 29.692 C 32.803 29.326,32.635 29.082,32.326 28.900 C 32.127 28.783,31.953 28.764,30.850 28.743 L 29.600 28.719 29.597 27.676 C 29.594 26.509,29.542 26.133,29.351 25.876 C 29.087 25.522,28.532 25.355,27.979 25.464 " stroke="none" fill-rule="evenodd" fill="black"></path></svg>