<?xml version="1.0" encoding="utf-8"?>
<!-- Generator: Adobe Illustrator 25.4.1, SVG Export Plug-In . SVG Version: 6.00 Build 0)  -->
<svg version="1.1" id="Слой_1" xmlns="http://www.w3.org/2000/svg" xmlns:xlink="http://www.w3.org/1999/xlink" x="0px" y="0px"
	 viewBox="0 0 20 20" style="enable-background:new 0 0 20 20;" xml:space="preserve">
<style type="text/css">
	.st0{fill:#D4A59A;}
</style>
<path class="st0" d="M1.1,11.7l4.8,4.8c0.2,0.2,0.4,0.3,0.7,0.4c0.2,0.1,0.5,0.2,0.8,0.2c0.5,0,1-0.2,1.4-0.6L19,6.3
	c0.2-0.2,0.3-0.4,0.4-0.7c0.1-0.2,0.2-0.5,0.2-0.8s-0.1-0.5-0.2-0.8c-0.1-0.2-0.3-0.5-0.4-0.7c-0.4-0.4-0.9-0.6-1.4-0.6
	c-0.5,0-1.1,0.2-1.4,0.6l-8.8,8.8L4,8.9C3.8,8.6,3.6,8.5,3.3,8.3C3.1,8.2,2.8,8.2,2.5,8.1c-0.3,0-0.6,0-0.8,0.1
	C1.4,8.4,1.2,8.5,1,8.7C0.8,8.9,0.6,9.2,0.5,9.4C0.4,9.7,0.4,10,0.4,10.3c0,0.3,0.1,0.6,0.2,0.8C0.7,11.3,0.9,11.6,1.1,11.7z"/>
</svg>
