<?xml version="1.0" encoding="utf-8"?>
<!-- Generator: Adobe Illustrator 25.4.1, SVG Export Plug-In . SVG Version: 6.00 Build 0)  -->
<svg version="1.1" id="Слой_1" xmlns="http://www.w3.org/2000/svg" xmlns:xlink="http://www.w3.org/1999/xlink" x="0px" y="0px"
	 viewBox="0 0 102 106" style="enable-background:new 0 0 102 106;" xml:space="preserve">
<style type="text/css">
	.st0{fill:#665CA7;}
	.st1{fill:#FFFFFF;}
	.st2{fill:none;stroke:#FFFFFF;stroke-width:1.9269;stroke-linecap:round;stroke-linejoin:round;stroke-miterlimit:3.9998;}
</style>
<g>
	<ellipse class="st0" cx="51" cy="53" rx="50.5" ry="52.5"/>
	<path class="st0" d="M51,1c27.6,0,50,23.3,50,52s-22.4,52-50,52S1,81.7,1,53S23.4,1,51,1 M51,0C22.8,0,0,23.7,0,53s22.8,53,51,53
		s51-23.7,51-53S79.2,0,51,0L51,0z"/>
</g>
<g id="g84" transform="translate(-429.26705,-345.04681)">
	<g id="g82">
		<path id="path72" class="st1" d="M507.9,366.3c-1.9-1.7-9.5-7.3-26.6-7.4c0,0-20.1-1.2-29.9,7.8c-5.5,5.5-7.4,13.4-7.6,23.3
			c-0.2,9.9-0.5,28.4,17.4,33.5v7.7c0,0-0.1,3.1,1.9,3.7c2.5,0.8,3.9-1.6,6.3-4.1c1.3-1.4,3.1-3.4,4.4-5c12.2,1,21.6-1.3,22.7-1.7
			c2.5-0.8,16.4-2.6,18.7-21.1C517.6,383.8,514.2,371.7,507.9,366.3L507.9,366.3z M510,401.5c-1.9,15.5-13.2,16.5-15.3,17.1
			c-0.9,0.3-9.1,2.3-19.5,1.7c0,0-7.7,9.3-10.2,11.8c-0.4,0.4-0.8,0.5-1.1,0.5c-0.4-0.1-0.5-0.6-0.5-1.3c0-1,0.1-12.8,0.1-12.8
			c-15.1-4.2-14.2-20-14.1-28.3c0.2-8.3,1.7-15,6.3-19.6c8.3-7.5,25.4-6.4,25.4-6.4c14.4,0.1,21.3,4.4,22.9,5.9
			C509.2,374.7,511.9,385.6,510,401.5L510,401.5z"/>
		<path id="path74" class="st2" d="M488.3,389.6c-0.2-3.8-2.1-5.8-5.8-6"/>
		<path id="path76" class="st2" d="M493.3,391.2c0.1-3.5-1-6.5-3.1-8.8c-2.2-2.4-5.2-3.7-9-4"/>
		<path id="path78" class="st2" d="M498.3,393.2c0-6.1-1.9-10.9-5.5-14.4c-3.6-3.5-8.1-5.3-13.5-5.3"/>
		<path id="path80" class="st1" d="M482.7,402.5c0,0,1.4,0.1,2.1-0.8l1.4-1.8c0.7-0.9,2.3-1.5,4-0.6c0.9,0.5,2.5,1.5,3.5,2.3
			c1.1,0.8,3.3,2.6,3.3,2.6c1.1,0.9,1.3,2.2,0.6,3.6c-0.7,1.3-1.7,2.5-3,3.6c-1,0.9-2,1.3-3,1.5h-0.4c-0.4,0-0.9-0.1-1.3-0.2
			c-1.5-0.4-4-1.5-8.3-3.8c-2.7-1.5-5-3.1-6.9-4.6c-1-0.8-2.1-1.7-3.1-2.8l-0.4-0.4c-1.1-1.1-2-2.1-2.8-3.1
			c-1.5-1.9-3.1-4.2-4.6-6.9c-2.3-4.2-3.4-6.7-3.8-8.3c-0.1-0.4-0.2-0.8-0.2-1.3v-0.4c0.1-1,0.6-2,1.5-3c1.1-1.2,2.3-2.2,3.6-3
			c1.4-0.7,2.7-0.5,3.6,0.6c0,0,1.8,2.2,2.6,3.3c0.7,1,1.7,2.6,2.3,3.5c0.9,1.6,0.3,3.3-0.5,4l-1.8,1.4c-0.9,0.7-0.8,2.1-0.8,2.1
			S472.8,399.9,482.7,402.5L482.7,402.5z"/>
	</g>
</g>
</svg>
