<?xml version="1.0" encoding="utf-8"?>
<!-- Generator: Adobe Illustrator 25.4.1, SVG Export Plug-In . SVG Version: 6.00 Build 0)  -->
<svg version="1.1" id="Слой_1" xmlns="http://www.w3.org/2000/svg" xmlns:xlink="http://www.w3.org/1999/xlink" x="0px" y="0px"
	 viewBox="0 0 24 24" style="enable-background:new 0 0 24 24;" xml:space="preserve">
<style type="text/css">
	.st0{fill:#FFC147;}
</style>
<g>
	<path class="st0" d="M20,23.7H4c-2,0-3.7-1.6-3.7-3.7v-2.7c0,0,0,0,0,0V4C0.3,2,2,0.3,4,0.3h16c2,0,3.7,1.6,3.7,3.7v10.7
		c0,0,0,0,0,0V20C23.7,22,22,23.7,20,23.7z M2.3,18.3V20c0,0.9,0.7,1.7,1.7,1.7h16c0.9,0,1.7-0.7,1.7-1.7v-4.3h-4.6l1,1
		c0.3,0.3,0.4,0.7,0.2,1.1c-0.2,0.4-0.5,0.6-0.9,0.6H2.3z M3.7,16.3h11.2l-1-1c0,0,0,0,0,0l-3.4-3.4c-0.7-0.6-1.7-0.6-2.4,0
		L3.7,16.3z M4,2.3C3.1,2.3,2.3,3.1,2.3,4v10.9l4.4-4.4c1.4-1.4,3.8-1.4,5.2,0l2.7,2.7l1.4-1.4c1.4-1.4,3.8-1.4,5.2,0l0.4,0.4V4
		c0-0.9-0.7-1.7-1.7-1.7H4z M17.1,13.7h3.2l-0.4-0.4c-0.6-0.6-1.7-0.6-2.4,0L17.1,13.7z M14.7,7.7c-0.6,0-1-0.4-1-1s0.4-1,1-1h0
		c0.6,0,1,0.4,1,1S15.2,7.7,14.7,7.7z"/>
</g>
</svg>
