<?xml version="1.0" encoding="utf-8"?>
<!-- Generator: Adobe Illustrator 25.4.1, SVG Export Plug-In . SVG Version: 6.00 Build 0)  -->
<svg version="1.1" id="Слой_1" xmlns="http://www.w3.org/2000/svg" xmlns:xlink="http://www.w3.org/1999/xlink" x="0px" y="0px"
	 viewBox="0 0 24 24" style="enable-background:new 0 0 24 24;" xml:space="preserve">
<style type="text/css">
	.st0{fill:#FFC147;}
</style>
<g>
	<path class="st0" d="M21.3,7.7H2.7c-1.3,0-2.3-1-2.3-2.3V2.7c0-1.3,1-2.3,2.3-2.3h18.7c1.3,0,2.3,1,2.3,2.3v2.7
		C23.7,6.6,22.6,7.7,21.3,7.7z M2.7,2.3c-0.2,0-0.3,0.1-0.3,0.3v2.7c0,0.2,0.1,0.3,0.3,0.3h18.7c0.2,0,0.3-0.1,0.3-0.3V2.7
		c0-0.2-0.1-0.3-0.3-0.3H2.7z"/>
</g>
<g>
	<path class="st0" d="M10.7,23.7h-8c-1.3,0-2.3-1-2.3-2.3v-8c0-1.3,1-2.3,2.3-2.3h8c1.3,0,2.3,1,2.3,2.3v8
		C13,22.6,12,23.7,10.7,23.7z M2.7,13c-0.2,0-0.3,0.1-0.3,0.3v8c0,0.2,0.1,0.3,0.3,0.3h8c0.2,0,0.3-0.1,0.3-0.3v-8
		c0-0.2-0.1-0.3-0.3-0.3H2.7z"/>
</g>
<g>
	<path class="st0" d="M21.3,23.7h-2.7c-1.3,0-2.3-1-2.3-2.3v-8c0-1.3,1-2.3,2.3-2.3h2.7c1.3,0,2.3,1,2.3,2.3v8
		C23.7,22.6,22.6,23.7,21.3,23.7z M18.7,13c-0.2,0-0.3,0.1-0.3,0.3v8c0,0.2,0.1,0.3,0.3,0.3h2.7c0.2,0,0.3-0.1,0.3-0.3v-8
		c0-0.2-0.1-0.3-0.3-0.3H18.7z"/>
</g>
</svg>
