<svg width="38" height="38" viewBox="0 0 38 38" fill="none" xmlns="http://www.w3.org/2000/svg">
<path d="M18.9381 0C10.7048 0 3.67479 5.32 1.07812 12.6667H36.9248C34.2648 5.32 27.2348 0 18.9381 0Z" fill="#F9F9F9"/>
<path d="M18.9381 38.0007C27.2348 38.0007 34.2648 32.6807 36.8615 25.334H1.07812C3.67479 32.744 10.7048 38.0007 18.9381 38.0007Z" fill="#ED4C5C"/>
<path d="M1.07667 12.666C0.38 14.6293 0 16.7827 0 18.9993C0 21.216 0.38 23.3693 1.07667 25.3327H36.9233C37.62 23.3693 38 21.216 38 18.9993C38 16.7827 37.62 14.6293 36.9233 12.666H1.07667Z" fill="#428BC1"/>
</svg>
