<svg xmlns="http://www.w3.org/2000/svg" viewBox="2.94764e-7 -5.81145e-7 17.41 11.94">
  <path d="m6.32140289.14640873c.17358494.17354775.19289896.44297009.05792379.63785269l-.05784803.06925409-4.61547865 4.61548449 15.2000058.00005924c.2761424 0 .5.22385763.5.5 0 .24545989-.1768751.44960837-.4101243.49194433l-.0898757.00805567-15.2000058-.00005924 4.61547865 4.6156029c.19524122.1952831.1952073.5118656-.00007576.7071068-.17358495.1735478-.44301142.192804-.63786509.0577871l-.06924169-.0578629-5.46788738-5.46905915-.0374811-.04189516-.04218378-.06186087-.02915371-.05921392-.02099102-.06245183-.01144212-.05601449-.005157-.07207924.00282096-.0534276.01379962-.07476341.03013707-.08325616.04212456-.07327049.05760228-.06887361 5.46781162-5.46898348c.19524122-.19528306.51182371-.19531698.70710678-.00007576z" fill="#000000"/>
</svg>