<svg xmlns="http://www.w3.org/2000/svg" viewBox="0 0 24 24" style="enable-background:new 0 0 24 24" xml:space="preserve"><path d="M9.614 4.057c-.357.112-.556.358-.602.746L8.989 5H6.901c-2.227 0-2.309.006-2.579.199-.222.158-.302.369-.302.801 0 .331.013.403.1.558.11.197.294.34.515.401.2.056 14.53.056 14.73 0a.842.842 0 0 0 .515-.401c.087-.156.1-.226.099-.558-.001-.433-.081-.645-.301-.801-.27-.193-.352-.199-2.579-.199H15.01l-.027-.206c-.053-.401-.24-.627-.612-.739-.259-.078-4.507-.076-4.757.002m-4 5a.814.814 0 0 0-.505.396l-.089.167V20.5l.093.271c.226.652.708 1.056 1.421 1.192.262.049 10.67.049 10.932 0 .713-.136 1.195-.54 1.421-1.192l.093-.271V9.62l-.091-.17c-.165-.31-.56-.48-1.015-.439-.435.04-.733.263-.833.624-.026.094-.041 1.955-.041 5.255V20H7.001l-.01-5.19-.011-5.19-.089-.167a.874.874 0 0 0-.213-.254c-.264-.189-.721-.249-1.064-.142M9.5 12.4l-.359.361 1.069 1.069 1.07 1.07-1.07 1.07-1.069 1.069.359.361.359.361 1.07-1.07L12 15.621l1.071 1.07 1.07 1.07.359-.361.359-.361-1.069-1.069-1.07-1.07 1.07-1.07 1.069-1.069-.359-.361-.359-.361-1.07 1.07L12 14.179l-1.071-1.07-1.07-1.07-.359.361" fill-rule="evenodd"/></svg>