<svg xmlns="http://www.w3.org/2000/svg" viewBox="1.01 1.17566 13.72 14.88">
  <path d="M8.37 6.53h2.59c.28 0 .5-.22.5-.5s-.22-.5-.5-.5H8.37c-.28 0-.5.22-.5.5s.22.5.5.5zm2.58 1.26H8.37c-.28 0-.5.22-.5.5s.22.5.5.5h2.59c.28 0 .5-.22.5-.5s-.23-.5-.51-.5zm0 2.26H8.37c-.28 0-.5.22-.5.5s.22.5.5.5h2.59c.28 0 .5-.22.5-.5s-.23-.5-.51-.5z
M14.24 15.06h-.68V1.67a.49.49 0 0 0-.22-.41.5.5 0 0 0-.46-.05L6.09 3.78a.5.5 0 0 0-.32.47v2.73H3.03a.5.5 0 0 0-.5.5v1.6c0 .28.22.5.5.5s.5-.22.5-.5v-1.1h2.23v7.08H4.11c-.28 0-.5.22-.5.5s.22.5.5.5h10.12c.28 0 .5-.22.5-.5s-.22-.5-.49-.5zM6.77 4.59l5.79-2.2v12.67H6.77V4.59z
M4.71 13.01c0-1.08-.65-3.18-1.85-3.18-1.2 0-1.85 2.1-1.85 3.18 0 1.02.54 1.77 1.35 1.99v.56c0 .28.22.5.5.5s.5-.22.5-.5V15c.81-.22 1.35-.97 1.35-1.99zm-2.71 0c0-1.01.61-2.18.85-2.18s.86 1.17.86 2.18c0 .67-.32 1.07-.85 1.07-.54 0-.86-.4-.86-1.07z" fill="#000000"/>
</svg>