<svg xmlns="http://www.w3.org/2000/svg" viewBox="6.06144 8.99937 25.28 20.38">
  <path d="M13.55 9a6.04 6.04 0 0 0-4.35 1.76 6.17 6.17 0 0 0-.97 7.34c.1.18.33.24.51.14a.37.37 0 0 0 .15-.5 5.42 5.42 0 0 1 .84-6.45 5.43 5.43 0 0 1 7.66.09l1.72 1.7a.47.47 0 0 0 .27.12.38.38 0 0 0 .29-.11l1.72-1.71a5.42 5.42 0 0 1 7.66-.09 5.43 5.43 0 0 1-.08 7.67l-3.89 3.87-.53.52-5.16 5.14a2132.17 2132.17 0 0 1-6.41-6.35.38.38 0 1 0-.53.53l1.68 1.67.39.38 4.62 4.57c.06.06.16.09.25.09a.37.37 0 0 0 .25-.1c.06-.04 2.5-2.47 5.02-4.98l.46-.45.45-.46 3.93-3.9a6.18 6.18 0 0 0 .08-8.73 6.18 6.18 0 0 0-8.72.09l-1.47 1.46-1.47-1.46A6.27 6.27 0 0 0 13.55 9zm5.78 6.14a.37.37 0 0 0-.35.26l-1.88 6.14-1.84-3.72a.37.37 0 0 0-.3-.2.39.39 0 0 0-.33.14l-1.5 2.02H6.38a.38.38 0 0 0 0 .75h6.96c.12 0 .23-.06.3-.15l1.23-1.67 1.98 4.02a.37.37 0 0 0 .7-.06l1.83-5.97 1.3 3.61c.06.15.2.25.36.25h2.68a.38.38 0 0 0 0-.75H21.3l-1.6-4.42c-.05-.16-.2-.27-.36-.25z" fill="#000000"/>
</svg>