<svg xmlns="http://www.w3.org/2000/svg" viewBox="8 7 22.45 22.39">
  <path d="M19.23 7a2.13 2.13 0 0 0-2.13 2.13c0 1.04.76 1.9 1.75 2.09v5.8l-3.36-.36c-.9-.17-1.49-.86-1.49-1.76a1.55 1.55 0 0 1 2.93-.7c.1.18.32.26.5.16a.38.38 0 0 0 .17-.5 2.3 2.3 0 0 0-2.05-1.26 2.3 2.3 0 0 0-2.3 2.3 2.5 2.5 0 0 0 2.14 2.5l6.05.67c.72.08 1.26.68 1.26 1.43 0 .44-.2.85-.55 1.12a.38.38 0 0 0 .23.67c.08 0 .16-.03.23-.08a2.16 2.16 0 0 0 .84-1.73 2.16 2.16 0 0 0-1.92-2.15l-1.93-.22v-5.9a2.13 2.13 0 0 0 1.75-2.09A2.13 2.13 0 0 0 19.22 7zm0 .75a1.38 1.38 0 0 1 0 2.75 1.38 1.38 0 0 1-1.38-1.38c0-.75.62-1.37 1.38-1.37zM8.38 8.4a.38.38 0 0 0-.38.38c0 1.24.71 2.3 1.75 2.83a2.48 2.48 0 0 0 2.48 2.44.38.38 0 0 0 0-.75 1.73 1.73 0 0 1-1.7-1.42c.2.05.42.07.65.07h2.45a.38.38 0 0 0 0-.75h-2.46a2.43 2.43 0 0 1-2.4-2.05h4.6c.72 0 1.4.32 1.86.87l.9 1.1a.38.38 0 0 0 .54.05.38.38 0 0 0 .04-.53l-.9-1.1a3.16 3.16 0 0 0-2.45-1.14zm16.7 0c-.94 0-1.83.42-2.43 1.14l-.91 1.1a.38.38 0 0 0 .57.48l.91-1.1a2.42 2.42 0 0 1 1.87-.87h4.58a2.43 2.43 0 0 1-2.4 2.05h-2.44a.38.38 0 0 0 0 .75h2.45c.22 0 .43-.02.64-.07a1.73 1.73 0 0 1-1.7 1.42.38.38 0 0 0 0 .75 2.48 2.48 0 0 0 2.48-2.47v.03a3.18 3.18 0 0 0 1.75-2.83.38.38 0 0 0-.38-.38zm-2.18 4.2a2.3 2.3 0 0 0-2.05 1.25.38.38 0 0 0 .67.35 1.55 1.55 0 0 1 2.93.7c0 .7-.36 1.3-.97 1.59a.37.37 0 0 0-.18.5.37.37 0 0 0 .5.17 2.45 2.45 0 0 0 1.4-2.26 2.3 2.3 0 0 0-2.3-2.3zm-7.58 5.6a.37.37 0 0 0-.37.19 2.18 2.18 0 0 0 1.54 3.24l4.1.6a1.24 1.24 0 0 1 1.06 1.25c0 .28-.1.55-.27.77a.38.38 0 1 0 .59.47 2 2 0 0 0-1.28-3.22l-1.09-.17v-1.7a.38.38 0 0 0-.75 0v1.59l-2.25-.34a1.4 1.4 0 0 1-1.2-1.4c0-.25.07-.5.2-.71a.38.38 0 0 0-.28-.57zm1.07 4.56a.37.37 0 0 0-.3.29 2.07 2.07 0 0 0-.04.43 1.99 1.99 0 0 0 1.7 1.98l1.9.29a1.13 1.13 0 0 1-.05 2.24v-1.01a.38.38 0 0 0-.75 0v.97c-.58-.17-1-.72-1-1.39a.37.37 0 1 0-.75 0c0 1.1.74 1.98 1.75 2.16v.35a.38.38 0 0 0 .75 0v-.32a1.89 1.89 0 0 0 1.75-1.88 1.87 1.87 0 0 0-1.6-1.86l-.15-.03v-1.5a.38.38 0 0 0-.75 0v1.39l-.99-.15a1.25 1.25 0 0 1-1.06-1.25c0-.1.01-.18.03-.27a.38.38 0 0 0-.44-.44z" fill="#000000"/>
</svg>