<svg viewBox="0 0 12.45 18" width="0" height="0" aria-hidden="true" class="m-icon m-icon--small m-icon__location"><path fill="currentColor" d="M6.22 16.25a.82.82 0 0 1-.66-.34C4.47 14.33.98 9.13.98 6.81c0-2.78 2.35-5.05 5.24-5.05s5.24 2.26 5.24 5.05c0 2.32-3.49 7.53-4.56 9.07a.82.82 0 0 1-.68.37zm0-13.5A4.15 4.15 0 0 0 1.98 6.8c0 1.58 2.25 5.41 4.24 8.3 2-2.92 4.24-6.72 4.24-8.3 0-2.23-1.9-4.05-4.24-4.05z"></path><path fill="currentColor" d="M6.22 9.29c-1.37 0-2.49-1.12-2.49-2.49s1.12-2.49 2.49-2.49S8.71 5.43 8.71 6.8 7.6 9.29 6.22 9.29zm0-3.98a1.5 1.5 0 0 0 0 2.98 1.5 1.5 0 0 0 0-2.98z"></path></svg>