<svg xmlns="http://www.w3.org/2000/svg" viewBox="1.17726 1.64007 14.59 14.48">
  <path d="M12.93 10.77c-.91 0-1.71.44-2.22 1.12L6.47 9.77a2.49 2.49 0 0 0 .01-1.54l4.24-2.12a2.78 2.78 0 0 0 2.23 1.13 2.8 2.8 0 1 0-1.98-4.76 2.73 2.73 0 0 0-.82 1.96c0 .27.05.52.12.77L6.03 7.33A2.77 2.77 0 0 0 3.81 6.2a2.8 2.8 0 0 0 0 5.59 2.8 2.8 0 0 0 2.22-1.12l4.23 2.11c-.07.25-.12.51-.12.78a2.8 2.8 0 0 0 5.58 0 2.8 2.8 0 0 0-2.79-2.79zm-1.26-7.59a1.79 1.79 0 0 1 3.06 1.26c0 .99-.8 1.79-1.79 1.79a1.79 1.79 0 0 1-1.27-3.05zm-7.86 7.61a1.8 1.8 0 0 1 0-3.59 1.8 1.8 0 1 1 0 3.59zm9.12 4.56a1.79 1.79 0 1 1 0-3.58 1.79 1.79 0 0 1 0 3.58z" fill="#000000"/>
</svg>