<?xml version="1.0" encoding="utf-8"?>
<!-- Generator: Adobe Illustrator 25.4.1, SVG Export Plug-In . SVG Version: 6.00 Build 0)  -->
<svg version="1.1" id="Слой_1" xmlns="http://www.w3.org/2000/svg" xmlns:xlink="http://www.w3.org/1999/xlink" x="0px" y="0px"
	 viewBox="0 0 17.4 18" style="enable-background:new 0 0 17.4 18;" xml:space="preserve">
<path d="M3.8,17.1c-0.2,0-0.4-0.1-0.5-0.2c-0.3-0.2-0.4-0.6-0.3-1l1.7-5.3L0.5,7.1c-0.3-0.2-0.4-0.6-0.3-1c0.1-0.3,0.5-0.6,0.8-0.6
	h5l1.8-4.7C8,0.5,8.3,0.3,8.7,0.3c0.4,0,0.7,0.2,0.8,0.6l1.8,4.7h5c0.4,0,0.7,0.2,0.8,0.6s0,0.7-0.3,1l-4.1,3.6l1.9,5.3
	c0.1,0.4,0,0.7-0.3,0.9c-0.3,0.3-0.8,0.2-1,0.1c0,0,0,0-0.1,0l-4.5-3.2l-4.3,3.2C4.2,17,4,17.1,3.8,17.1z M8.7,12.6
	c0.1,0,0.2,0,0.3,0.1l4.3,3l-1.8-5c-0.1-0.2,0-0.5,0.2-0.6l4-3.4h-4.8c-0.2,0-0.4-0.1-0.5-0.4L8.7,1.8L7,6.3
	C6.9,6.5,6.7,6.7,6.5,6.7H1.7l4,3.4c0.2,0.1,0.2,0.4,0.2,0.6l-1.6,5l4.1-3C8.4,12.6,8.6,12.6,8.7,12.6z"/>
</svg>
