<svg width="15" height="18" viewBox="0 0 15 18" fill="none" xmlns="http://www.w3.org/2000/svg">
<path d="M13.0657 9.35034L7.91574 14.5087C7.24059 15.1087 6.3617 15.4281 5.45884 15.4015C4.55599 15.3749 3.69741 15.0044 3.05872 14.3657C2.42003 13.727 2.0495 12.8684 2.02292 11.9656C1.99635 11.0627 2.31573 10.1838 2.91574 9.50867L9.58241 2.84201C9.98043 2.46392 10.5084 2.25311 11.0574 2.25311C11.6064 2.25311 12.1344 2.46392 12.5324 2.84201C12.9202 3.235 13.1376 3.7649 13.1376 4.31701C13.1376 4.86912 12.9202 5.39901 12.5324 5.79201L6.78241 11.5337C6.7255 11.595 6.65708 11.6444 6.58106 11.6793C6.50503 11.7141 6.42289 11.7336 6.33931 11.7367C6.17053 11.743 6.00618 11.6819 5.88241 11.567C5.82113 11.5101 5.77165 11.4417 5.73681 11.3657C5.70197 11.2896 5.68244 11.2075 5.67935 11.1239C5.67309 10.9551 5.73415 10.7908 5.84908 10.667L10.1241 6.40034C10.281 6.24342 10.3692 6.03059 10.3692 5.80867C10.3692 5.58675 10.281 5.37393 10.1241 5.21701C9.96716 5.06009 9.75433 4.97193 9.53241 4.97193C9.31049 4.97193 9.09766 5.06009 8.94074 5.21701L4.66574 9.50034C4.45183 9.71259 4.28205 9.96509 4.16619 10.2433C4.05032 10.5215 3.99067 10.8198 3.99067 11.1212C3.99067 11.4225 4.05032 11.7209 4.16619 11.9991C4.28205 12.2773 4.45183 12.5298 4.66574 12.742C5.10272 13.1582 5.68308 13.3904 6.28658 13.3904C6.89007 13.3904 7.47043 13.1582 7.90741 12.742L13.6491 6.99201C14.3115 6.28113 14.6721 5.3409 14.655 4.36939C14.6378 3.39789 14.2443 2.47096 13.5572 1.7839C12.8701 1.09683 11.9432 0.703272 10.9717 0.686131C10.0002 0.66899 9.05995 1.02961 8.34908 1.69201L1.68241 8.35867C0.783408 9.35437 0.303266 10.6585 0.34202 11.9995C0.380774 13.3404 0.935436 14.6147 1.89044 15.5568C2.84545 16.4989 4.12714 17.0362 5.46848 17.0567C6.80982 17.0773 8.10736 16.5795 9.09074 15.667L14.2491 10.517C14.3268 10.4393 14.3884 10.3471 14.4305 10.2455C14.4725 10.144 14.4942 10.0352 14.4942 9.92534C14.4942 9.81546 14.4725 9.70665 14.4305 9.60513C14.3884 9.50361 14.3268 9.41137 14.2491 9.33367C14.1714 9.25597 14.0791 9.19434 13.9776 9.15229C13.8761 9.11024 13.7673 9.0886 13.6574 9.0886C13.5475 9.0886 13.4387 9.11024 13.3372 9.15229C13.2357 9.19434 13.1434 9.25597 13.0657 9.33367V9.35034Z" fill="#999999"/>
</svg>
