<svg width="14" height="18" viewBox="0 0 14 18" fill="none" xmlns="http://www.w3.org/2000/svg">
<path d="M0.333984 9.00033C0.333984 9.22134 0.421782 9.4333 0.578062 9.58958C0.734342 9.74586 0.946304 9.83366 1.16732 9.83366H7.49232L5.57565 11.742C5.49754 11.8195 5.43555 11.9116 5.39324 12.0132C5.35093 12.1147 5.32915 12.2236 5.32915 12.3337C5.32915 12.4437 5.35093 12.5526 5.39324 12.6541C5.43555 12.7557 5.49754 12.8479 5.57565 12.9253C5.65312 13.0034 5.74529 13.0654 5.84684 13.1077C5.94839 13.15 6.05731 13.1718 6.16732 13.1718C6.27733 13.1718 6.38625 13.15 6.4878 13.1077C6.58935 13.0654 6.68151 13.0034 6.75898 12.9253L10.0923 9.59199C10.1682 9.51274 10.2277 9.41929 10.2673 9.31699C10.3507 9.11411 10.3507 8.88654 10.2673 8.68366C10.2277 8.58137 10.1682 8.48791 10.0923 8.40866L6.75898 5.07533C6.68128 4.99763 6.58904 4.93599 6.48752 4.89394C6.38601 4.85189 6.2772 4.83025 6.16732 4.83025C6.05743 4.83025 5.94863 4.85189 5.84711 4.89394C5.74559 4.93599 5.65335 4.99763 5.57565 5.07533C5.49795 5.15302 5.43632 5.24527 5.39427 5.34678C5.35222 5.4483 5.33057 5.55711 5.33057 5.66699C5.33057 5.77688 5.35222 5.88568 5.39427 5.9872C5.43632 6.08872 5.49795 6.18096 5.57565 6.25866L7.49232 8.16699H1.16732C0.946304 8.16699 0.734342 8.25479 0.578062 8.41107C0.421782 8.56735 0.333984 8.77931 0.333984 9.00033ZM11.1673 0.666992H2.83398C2.17094 0.666992 1.53506 0.930384 1.06622 1.39923C0.597377 1.86807 0.333984 2.50395 0.333984 3.16699V5.66699C0.333984 5.88801 0.421782 6.09997 0.578062 6.25625C0.734342 6.41253 0.946304 6.50033 1.16732 6.50033C1.38833 6.50033 1.60029 6.41253 1.75657 6.25625C1.91285 6.09997 2.00065 5.88801 2.00065 5.66699V3.16699C2.00065 2.94598 2.08845 2.73402 2.24473 2.57774C2.40101 2.42146 2.61297 2.33366 2.83398 2.33366H11.1673C11.3883 2.33366 11.6003 2.42146 11.7566 2.57774C11.9129 2.73402 12.0007 2.94598 12.0007 3.16699V14.8337C12.0007 15.0547 11.9129 15.2666 11.7566 15.4229C11.6003 15.5792 11.3883 15.667 11.1673 15.667H2.83398C2.61297 15.667 2.40101 15.5792 2.24473 15.4229C2.08845 15.2666 2.00065 15.0547 2.00065 14.8337V12.3337C2.00065 12.1126 1.91285 11.9007 1.75657 11.7444C1.60029 11.5881 1.38833 11.5003 1.16732 11.5003C0.946304 11.5003 0.734342 11.5881 0.578062 11.7444C0.421782 11.9007 0.333984 12.1126 0.333984 12.3337V14.8337C0.333984 15.4967 0.597377 16.1326 1.06622 16.6014C1.53506 17.0703 2.17094 17.3337 2.83398 17.3337H11.1673C11.8304 17.3337 12.4662 17.0703 12.9351 16.6014C13.4039 16.1326 13.6673 15.4967 13.6673 14.8337V3.16699C13.6673 2.50395 13.4039 1.86807 12.9351 1.39923C12.4662 0.930384 11.8304 0.666992 11.1673 0.666992Z" fill="#443E3E"/>
</svg>
