<svg width="25" height="25" viewBox="0 0 25 25" fill="none" xmlns="http://www.w3.org/2000/svg">
<path d="M1.50003 24.5087H7.86002C8.05744 24.5098 8.25313 24.472 8.43588 24.3974C8.61864 24.3227 8.78486 24.2127 8.92502 24.0737L19.305 13.6787L23.565 9.5087C23.7056 9.36925 23.8172 9.20335 23.8934 9.02056C23.9695 8.83777 24.0087 8.64172 24.0087 8.4437C24.0087 8.24568 23.9695 8.04962 23.8934 7.86683C23.8172 7.68404 23.7056 7.51814 23.565 7.3787L17.205 0.943697C17.0656 0.803105 16.8997 0.691513 16.7169 0.61536C16.5341 0.539207 16.338 0.5 16.14 0.5C15.942 0.5 15.7459 0.539207 15.5632 0.61536C15.3804 0.691513 15.2145 0.803105 15.075 0.943697L10.845 5.1887L0.435025 15.5837C0.296003 15.7239 0.186015 15.8901 0.111368 16.0728C0.0367213 16.2556 -0.00111627 16.4513 2.50714e-05 16.6487V23.0087C2.50714e-05 23.4065 0.158061 23.7881 0.439365 24.0694C0.72067 24.3507 1.1022 24.5087 1.50003 24.5087ZM16.14 4.1237L20.385 8.3687L18.255 10.4987L14.01 6.2537L16.14 4.1237ZM3.00003 17.2637L11.895 8.3687L16.14 12.6137L7.24503 21.5087H3.00003V17.2637Z" fill="#BC4639"/>
</svg>
