<svg width="28" height="28" viewBox="0 0 28 28" fill="none" xmlns="http://www.w3.org/2000/svg">
<path d="M14 0.25C11.2805 0.25 8.62209 1.05642 6.36092 2.56729C4.09974 4.07816 2.33737 6.22562 1.29666 8.7381C0.255958 11.2506 -0.0163382 14.0153 0.514209 16.6825C1.04476 19.3497 2.35432 21.7997 4.27729 23.7227C6.20026 25.6457 8.65028 26.9552 11.3175 27.4858C13.9848 28.0163 16.7494 27.744 19.2619 26.7033C21.7744 25.6626 23.9218 23.9003 25.4327 21.6391C26.9436 19.3779 27.75 16.7195 27.75 14C27.75 10.3533 26.3013 6.85591 23.7227 4.27728C21.1441 1.69866 17.6467 0.25 14 0.25ZM14 25.25C11.775 25.25 9.59989 24.5902 7.74984 23.354C5.89979 22.1179 4.45785 20.3609 3.60636 18.3052C2.75488 16.2495 2.53209 13.9875 2.96617 11.8052C3.40026 9.62295 4.47171 7.61839 6.04505 6.04505C7.61839 4.47171 9.62295 3.40025 11.8052 2.96617C13.9875 2.53208 16.2495 2.75487 18.3052 3.60636C20.3609 4.45784 22.1179 5.89978 23.354 7.74984C24.5902 9.59989 25.25 11.775 25.25 14C25.25 16.9837 24.0647 19.8452 21.955 21.955C19.8452 24.0647 16.9837 25.25 14 25.25Z" fill="#CCCCCC"/>
<path d="M10.3962 21.5V19.4394H9V17.5714H10.3962V16.0693H9V13.6814H10.3962V7.75H14.3752C15.9808 7.75 17.1501 8.10948 17.8831 8.82843C18.6277 9.54739 19 10.5359 19 11.7941C19 12.5387 18.8487 13.2384 18.5462 13.8932C18.2437 14.548 17.7376 15.0743 17.0279 15.4723C16.3298 15.8703 15.3758 16.0693 14.1658 16.0693H13.0314V17.5714H15.719V19.4394H13.0314V21.5H10.3962ZM13.904 13.6814C14.6486 13.6814 15.2362 13.5401 15.6667 13.2577C16.1088 12.9753 16.3298 12.5195 16.3298 11.8904C16.3298 10.7221 15.6318 10.138 14.2356 10.138H13.0314V13.6814H13.904Z" fill="#CCCCCC"/>
</svg>
