<?xml version="1.0" encoding="utf-8"?>
<!-- Generator: Adobe Illustrator 25.4.1, SVG Export Plug-In . SVG Version: 6.00 Build 0)  -->
<svg version="1.1" id="Слой_1" xmlns="http://www.w3.org/2000/svg" xmlns:xlink="http://www.w3.org/1999/xlink" x="0px" y="0px"
	 viewBox="0 0 20 20" style="enable-background:new 0 0 20 20;" xml:space="preserve">
<style type="text/css">
	.st0{fill:#999999;}
</style>
<path class="st0" d="M18.3,19.7l-3.6-3.6c-1.6,1.3-3.6,2-5.7,2c-2.4,0-4.7-0.9-6.4-2.7C0.9,13.7,0,11.5,0,9.1c0-2.4,0.9-4.7,2.7-6.4
	C4.4,0.9,6.6,0,9.1,0c2.4,0,4.7,0.9,6.4,2.7c1.7,1.7,2.7,4,2.7,6.4c0,2.1-0.7,4.1-2,5.7l3.6,3.6L18.3,19.7z M9.1,2
	c-1.9,0-3.7,0.7-5,2.1C2.7,5.4,2,7.2,2,9.1c0,1.9,0.7,3.7,2.1,5c1.3,1.3,3.1,2.1,5,2.1c1.9,0,3.7-0.7,5-2.1c1.3-1.3,2.1-3.1,2.1-5
	c0-1.9-0.7-3.7-2.1-5C12.7,2.7,10.9,2,9.1,2z"/>
</svg>
