<svg width="19" height="20" viewBox="0 0 19 20" fill="none" xmlns="http://www.w3.org/2000/svg">
<path d="M7.00391 16C7.26912 16 7.52348 15.8946 7.71101 15.7071C7.89855 15.5196 8.00391 15.2652 8.00391 15V9C8.00391 8.73478 7.89855 8.48043 7.71101 8.29289C7.52348 8.10536 7.26912 8 7.00391 8C6.73869 8 6.48434 8.10536 6.2968 8.29289C6.10926 8.48043 6.00391 8.73478 6.00391 9V15C6.00391 15.2652 6.10926 15.5196 6.2968 15.7071C6.48434 15.8946 6.73869 16 7.00391 16ZM17.0039 4H13.0039V3C13.0039 2.20435 12.6878 1.44129 12.1252 0.87868C11.5626 0.316071 10.7996 0 10.0039 0H8.00391C7.20826 0 6.44519 0.316071 5.88259 0.87868C5.31998 1.44129 5.00391 2.20435 5.00391 3V4H1.00391C0.73869 4 0.484336 4.10536 0.296799 4.29289C0.109263 4.48043 0.00390625 4.73478 0.00390625 5C0.00390625 5.26522 0.109263 5.51957 0.296799 5.70711C0.484336 5.89464 0.73869 6 1.00391 6H2.00391V17C2.00391 17.7956 2.31998 18.5587 2.88259 19.1213C3.4452 19.6839 4.20826 20 5.00391 20H13.0039C13.7996 20 14.5626 19.6839 15.1252 19.1213C15.6878 18.5587 16.0039 17.7956 16.0039 17V6H17.0039C17.2691 6 17.5235 5.89464 17.711 5.70711C17.8986 5.51957 18.0039 5.26522 18.0039 5C18.0039 4.73478 17.8986 4.48043 17.711 4.29289C17.5235 4.10536 17.2691 4 17.0039 4ZM7.00391 3C7.00391 2.73478 7.10926 2.48043 7.2968 2.29289C7.48434 2.10536 7.73869 2 8.00391 2H10.0039C10.2691 2 10.5235 2.10536 10.711 2.29289C10.8985 2.48043 11.0039 2.73478 11.0039 3V4H7.00391V3ZM14.0039 17C14.0039 17.2652 13.8986 17.5196 13.711 17.7071C13.5235 17.8946 13.2691 18 13.0039 18H5.00391C4.73869 18 4.48434 17.8946 4.2968 17.7071C4.10926 17.5196 4.00391 17.2652 4.00391 17V6H14.0039V17ZM11.0039 16C11.2691 16 11.5235 15.8946 11.711 15.7071C11.8985 15.5196 12.0039 15.2652 12.0039 15V9C12.0039 8.73478 11.8985 8.48043 11.711 8.29289C11.5235 8.10536 11.2691 8 11.0039 8C10.7387 8 10.4843 8.10536 10.2968 8.29289C10.1093 8.48043 10.0039 8.73478 10.0039 9V15C10.0039 15.2652 10.1093 15.5196 10.2968 15.7071C10.4843 15.8946 10.7387 16 11.0039 16Z" fill="#999999"/>
</svg>
