<svg width="18" height="21" viewBox="0 0 18 21" fill="none" xmlns="http://www.w3.org/2000/svg">
<path d="M7.14615 2.24792C7.29556 1.87864 7.55185 1.56238 7.88217 1.3397C8.21249 1.11701 8.60178 0.998047 9.00015 0.998047C9.39852 0.998047 9.78781 1.11701 10.1181 1.3397C10.4484 1.56238 10.7047 1.87864 10.8541 2.24792C12.3329 2.65461 13.6373 3.53548 14.5669 4.75526C15.4966 5.97504 16.0001 7.46627 16.0002 8.99992V13.6969L17.8322 16.4449C17.9326 16.5955 17.9903 16.7706 17.9991 16.9514C18.0079 17.1322 17.9674 17.3121 17.882 17.4717C17.7966 17.6313 17.6695 17.7648 17.5142 17.8578C17.3588 17.9508 17.1812 18 17.0002 17.9999H12.4651C12.3447 18.833 11.9282 19.5949 11.2919 20.1459C10.6555 20.6969 9.84191 21.0001 9.00015 21.0001C8.15839 21.0001 7.34481 20.6969 6.70845 20.1459C6.07209 19.5949 5.65555 18.833 5.53515 17.9999H1.00015C0.819107 18 0.641453 17.9508 0.486141 17.8578C0.330829 17.7648 0.203685 17.6313 0.118276 17.4717C0.032866 17.3121 -0.00760575 17.1322 0.00117785 16.9514C0.00996145 16.7706 0.067671 16.5955 0.16815 16.4449L2.00015 13.6969V8.99992C2.00015 5.77592 4.18015 3.05992 7.14615 2.24792ZM7.58615 17.9999C7.68943 18.2926 7.88093 18.546 8.13427 18.7252C8.38761 18.9045 8.69031 19.0007 9.00065 19.0007C9.31099 19.0007 9.61369 18.9045 9.86703 18.7252C10.1204 18.546 10.3119 18.2926 10.4151 17.9999H7.58515H7.58615ZM9.00015 3.99992C7.67407 3.99992 6.4023 4.52671 5.46462 5.46439C4.52693 6.40207 4.00015 7.67384 4.00015 8.99992V13.9999C4.00019 14.1975 3.94174 14.3906 3.83215 14.5549L2.86915 15.9999H15.1301L14.1671 14.5549C14.0579 14.3905 13.9998 14.1974 14.0001 13.9999V8.99992C14.0001 7.67384 13.4734 6.40207 12.5357 5.46439C11.598 4.52671 10.3262 3.99992 9.00015 3.99992Z" fill="#CCCCCC"/>
</svg>
