<svg width="20" height="18" viewBox="0 0 20 18" fill="none" xmlns="http://www.w3.org/2000/svg">
<path d="M11.707 0.292787L19.707 8.29279C19.8945 8.48032 19.9998 8.73462 19.9998 8.99979C19.9998 9.26495 19.8945 9.51926 19.707 9.70679L11.707 17.7068C11.5671 17.8466 11.389 17.9418 11.195 17.9804C11.0011 18.0189 10.8 17.9991 10.6173 17.9235C10.4346 17.8478 10.2785 17.7197 10.1686 17.5552C10.0587 17.3908 10 17.1975 10 16.9998V13.5448C9.846 13.5548 9.721 13.5648 9.671 13.5708C8.15329 13.6878 6.67413 14.1062 5.31994 14.8014C3.96576 15.4966 2.7637 16.4547 1.784 17.6198C1.65514 17.7825 1.47883 17.9011 1.27953 17.9592C1.08022 18.0172 0.867802 18.0118 0.671726 17.9436C0.475649 17.8755 0.305639 17.748 0.185274 17.5789C0.0649097 17.4098 0.000157856 17.2074 0 16.9998V15.4998C0.00327173 12.7564 1.03015 10.113 2.87969 8.08681C4.72923 6.06065 7.26829 4.79758 10 4.54479V0.999787C10 0.802037 10.0587 0.608738 10.1686 0.444328C10.2785 0.279918 10.4346 0.151779 10.6173 0.076109C10.8 0.000438951 11.0011 -0.0193641 11.195 0.0192035C11.389 0.057771 11.5671 0.152977 11.707 0.292787Z" fill="#4285F4"/>
</svg>
