<svg width="11" height="11" viewBox="0 0 11 11" fill="none" xmlns="http://www.w3.org/2000/svg">
<path d="M10.7079 4.3232C10.6772 4.23414 10.6212 4.15591 10.5469 4.098C10.4726 4.04009 10.383 4.005 10.2892 3.99696L7.5186 3.59282L6.27696 1.07546C6.23709 0.993133 6.17484 0.923705 6.09733 0.875126C6.01983 0.826546 5.93021 0.800781 5.83873 0.800781C5.74726 0.800781 5.65764 0.826546 5.58014 0.875126C5.50263 0.923705 5.44038 0.993133 5.40051 1.07546L4.15887 3.58795L1.3883 3.99696C1.29819 4.00977 1.21346 4.04759 1.14375 4.10611C1.07404 4.16464 1.02212 4.24153 0.9939 4.32807C0.968067 4.41263 0.965749 4.50264 0.987194 4.58842C1.00864 4.6742 1.05304 4.75253 1.11563 4.81499L3.1266 6.76266L2.63968 9.52835C2.6223 9.61964 2.6314 9.71399 2.66591 9.80027C2.70043 9.88655 2.75891 9.96116 2.83445 10.0153C2.90808 10.0679 2.99493 10.099 3.08524 10.105C3.17555 10.111 3.26575 10.0918 3.34571 10.0494L5.83873 8.74928L8.32202 10.0542C8.39035 10.0928 8.46754 10.1129 8.546 10.1127C8.64914 10.113 8.74974 10.0806 8.83328 10.0201C8.90882 9.96602 8.9673 9.89142 9.00182 9.80514C9.03633 9.71886 9.04543 9.62451 9.02805 9.53322L8.54113 6.76753L10.5521 4.81986C10.6224 4.7603 10.6744 4.68201 10.7019 4.5941C10.7295 4.50618 10.7316 4.41224 10.7079 4.3232ZM7.71337 6.27087C7.65627 6.3261 7.61354 6.39447 7.58893 6.47001C7.56432 6.54554 7.55856 6.62596 7.57216 6.70423L7.92274 8.74441L6.09193 7.77058C6.02148 7.73307 5.94289 7.71345 5.86308 7.71345C5.78327 7.71345 5.70468 7.73307 5.63423 7.77058L3.80342 8.74441L4.154 6.70423C4.1676 6.62596 4.16184 6.54554 4.13723 6.47001C4.11262 6.39447 4.0699 6.3261 4.01279 6.27087L2.55204 4.81012L4.60196 4.5131C4.68084 4.50213 4.75583 4.47197 4.82035 4.42528C4.88486 4.37859 4.93694 4.31679 4.97202 4.24529L5.83873 2.39014L6.75414 4.25016C6.78922 4.32166 6.8413 4.38346 6.90582 4.43015C6.97033 4.47684 7.04532 4.50699 7.1242 4.51797L9.17412 4.81499L7.71337 6.27087Z" fill="#FCC02A"/>
</svg>
