<svg xmlns="http://www.w3.org/2000/svg" viewBox="0 0 377.285 377.285"><g fill="#84bd93"><path d="M178.006 51.106c-.041-.036-.088-.07-.13-.106.041.036.089.071.13.106zM176.564 50.024c.083.054.158.109.238.164-.08-.054-.155-.11-.238-.164zM174.818 49.057c.111.053.224.106.33.16-.107-.054-.219-.106-.33-.16zM179.744 53.095c.051.078.094.156.141.234-.047-.078-.09-.155-.141-.234zM180.276 54.046c.035.073.077.148.109.221-.032-.073-.073-.147-.109-.221zM172.941 48.272c.03.011.065.021.095.031-.03-.011-.065-.02-.095-.031zM178.897 52c.068.077.137.154.201.231a8.286 8.286 0 0 0-.201-.231zM118.698 52.976zM170.468 47.534c.142.035.276.073.414.11-.138-.036-.272-.074-.414-.11zM124.894 55.941zM180.622 54.884c-2.185-.792-4.95-1.406-8.452-1.721-3.963-.357-8.86-.754-14.205-.754-14.483 0-26.177 1.761-32.76 3.67 10.346 4.442 25.031 8.951 36.879 10.43 2.278.285 4.4.429 6.306.429 11.59 0 12.206-4.929 12.613-8.19.015-.135.346-1.8-.381-3.864zM121.419 54.354zM116.444 51.69zM167.514 46.948c.173.027.35.053.519.082-.169-.029-.346-.055-.519-.082z"/></g><g fill="#fdd44b"><path d="M199.037 111.188zM193.763 110.592c.26.018.526.031.783.052-.258-.021-.523-.034-.783-.052zM92.491 289.001c-.039-.543-.092-1.075-.121-1.625.029.55.082 1.082.121 1.625zM93.005 294.144c-.08-.613-.166-1.221-.233-1.843.068.622.153 1.23.233 1.843zM204.05 112.252c.252.068.493.149.741.221-.248-.073-.489-.153-.741-.221zM220.12 121.615c-.233-.247-.457-.506-.696-.744.239.238.463.497.696.744zM224.662 127.664c.222.371.446.739.658 1.122-.212-.384-.436-.752-.658-1.122zM208.38 113.697c.153.061.315.113.467.176-.152-.062-.314-.115-.467-.176zM93.763 298.902zM212.217 115.513c.284.156.573.306.851.469-.278-.163-.567-.314-.851-.469zM222.097 123.916c.221.283.45.557.664.85-.214-.292-.442-.567-.664-.85zM215.976 117.913zM111.344 333.854c-.363-.385-.714-.783-1.069-1.177.355.393.706.792 1.069 1.177zM94.757 303.41zM113.175 335.707c.321.316.633.643.96.952-.327-.309-.639-.636-.96-.952zM258.521 223.536c-12.503-14.9-25.431-30.306-25.431-53.933 0-17.672-2.438-30.991-7.612-40.503-6.558-4.086-14.89-6.035-25.184-6.035-31.154 0-44.447 17.705-44.447 59.2 0 23.627-12.928 39.034-25.431 53.933-13.646 16.263-26.536 31.623-26.536 58.73 0 18.247 4.967 32.852 13.138 44.327 19.171 16.344 46.581 22.988 71.626 22.988 44.476 0 96.414-20.946 96.414-79.978-.001-27.106-12.891-42.467-26.537-58.729zM106.196 327.704zM108.694 330.87zM103.847 324.328c-.295-.452-.594-.901-.879-1.363.285.462.584.911.879 1.363zM95.975 307.702c-.171-.535-.324-1.085-.484-1.629.16.544.314 1.093.484 1.629zM97.412 311.798c-.166-.429-.313-.876-.472-1.312.159.436.305.883.472 1.312zM101.617 320.655c-.234-.414-.478-.819-.704-1.241.226.421.47.826.704 1.241zM99.204 315.999c-.048-.103-.103-.201-.151-.304.048.103.103.201.151.304z"/></g><path fill="#3f2d20" d="M270.043 213.868c-11.758-14.012-21.912-26.113-21.912-44.265 0-24.164-4.482-41.901-13.702-54.226-8.678-11.6-21.529-18.207-38.266-19.693V45.602c.068-2.689.279-31.545-20.968-44.501a7.518 7.518 0 0 0-10.336 2.506 7.52 7.52 0 0 0 2.506 10.336c7.923 4.832 11.289 13.887 12.718 21.017-3.689-1.477-8.184-2.626-13.646-3.309-4.557-.569-10.113-.869-16.07-.869-11.175 0-22.534 1.035-31.162 2.841-8.588 1.798-20.143 5.282-21.324 14.748-1.058 8.472 6.812 15.761 24.765 22.939 11.999 4.799 26.747 8.772 37.572 10.125 2.895.361 5.644.544 8.17.544 5.13 0 9.314-.757 12.733-2.012v15.719c-16.737 1.487-29.588 8.091-38.266 19.691-9.22 12.325-13.702 30.062-13.702 54.226 0 18.152-10.154 30.252-21.912 44.265-14.088 16.788-30.056 35.817-30.056 68.397 0 29.424 11.523 54.006 33.325 71.086 19.7 15.434 47.447 23.934 78.131 23.934s58.432-8.5 78.131-23.934c21.802-17.08 33.324-41.662 33.324-71.086.003-32.581-15.965-51.609-30.053-68.397zm-151.279 9.668c12.503-14.9 25.432-30.306 25.432-53.933 0-41.495 13.293-59.2 44.447-59.2 31.154 0 44.447 17.705 44.447 59.2 0 23.627 12.928 39.033 25.431 53.933 13.646 16.263 26.536 31.623 26.536 58.729 0 59.032-51.938 79.979-96.414 79.979s-96.414-20.947-96.414-79.979c-.001-27.106 12.889-42.467 26.535-58.729zm45.808-176.958c18.645 1.678 16.472 11.829 16.429 12.17-.407 3.261-1.024 8.19-12.613 8.19-1.906 0-4.028-.144-6.306-.429-17.088-2.134-40.101-10.57-47.443-16.019 5.555-2.244 18.735-4.666 35.727-4.666 5.346 0 10.243.397 14.206.754z"/></svg>