<svg width="30" height="30" viewBox="0 0 30 30" fill="none" xmlns="http://www.w3.org/2000/svg">
<g clip-path="url(#clip0_869_751)">
<path d="M27.6792 14.979C27.8599 14.5685 28.0422 14.16 28.2081 13.788C29.1579 11.6597 29.1534 11.6415 29.099 11.4181C28.3666 8.41276 25.2719 7.00245 24.4912 6.69059C24.0799 5.72127 23.3109 4.62527 21.8757 3.79765C19.5063 2.43127 18.5907 0.387977 18.5822 0.368539C18.5168 0.217374 18.3793 0.109556 18.2169 0.0822126C18.1644 0.0734006 16.9143 -0.13135 15.4465 0.140528C14.1666 0.377675 13.118 0.904777 12.3403 1.69047C11.5052 1.01687 10.3705 0.769552 9.56364 0.681107C8.76278 0.593311 7.97585 0.630892 7.786 0.695297C7.62752 0.749141 7.50227 0.883979 7.46378 1.04694C7.34728 1.53983 6.98443 2.0946 6.63351 2.63116C6.07867 3.47925 5.50641 4.35463 5.63107 5.29194C3.6608 6.33176 1.57248 8.29503 1.25991 8.59367C1.20367 8.64738 1.16117 8.7138 1.13596 8.78734C1.11957 8.83496 0.733459 9.97139 0.53603 11.4849C0.266291 13.5536 0.475123 15.2574 1.15676 16.5487C1.17704 16.5872 1.19894 16.6241 1.22006 16.6617C0.596807 17.8023 0.837648 18.8422 1.05056 19.7602C1.21644 20.4753 1.35963 21.0928 1.12598 21.7125C1.07272 21.8541 1.08931 22.0149 1.16933 22.1433C1.3435 22.4224 3.61098 24.0423 5.99781 24.2902C6.03779 24.4518 6.0891 24.6151 6.15636 24.7791C6.69953 26.1026 8.01628 27.158 10.0701 27.9159C11.1211 28.3037 11.8637 28.6717 12.5188 28.9963C13.3301 29.3982 14.0306 29.7454 14.9491 29.925C15.2053 29.9751 15.4663 29.9999 15.7308 29.9999C16.9768 29.9999 18.2964 29.4495 19.5214 28.4045C19.7667 28.1951 20.1179 27.9902 20.4895 27.7733C21.7663 27.0281 23.5068 26.0103 23.4075 23.4099C23.631 23.2868 23.8502 23.1545 24.0638 23.0086C24.0951 23.0408 24.131 23.0694 24.1719 23.0928C24.366 23.2034 24.559 23.253 24.7511 23.253C25.6091 23.253 26.448 22.2631 27.264 21.3002C27.8758 20.5783 28.5693 19.7601 29.1333 19.5347C29.2779 19.4768 29.5274 19.3136 29.5734 18.8705C29.6677 17.9641 28.8486 15.9064 27.6792 14.979ZM28.1254 11.5348C28.0217 11.8206 27.6514 12.6508 27.3205 13.392C26.8277 14.4966 26.3977 15.4685 26.0935 16.2179C26.0401 16.0518 25.9852 15.8847 25.9298 15.7166C25.6592 14.8946 25.3793 14.0446 25.2709 13.202C25.1687 12.4077 24.9515 11.7236 24.6233 11.1529C24.9855 10.2046 25.072 9.03738 24.8662 7.93879C25.9181 8.49356 27.6114 9.65034 28.1254 11.5348ZM21.8148 23.1162C20.8296 23.5793 19.713 24.1043 18.5788 25.1001C17.1158 26.3845 15.2634 25.9437 14.0567 24.9556C14.3825 24.7191 14.6891 24.4328 14.9718 24.0988C16.1113 23.9555 17.2794 23.5469 18.3801 22.8867C20.382 21.6863 21.9085 19.7956 22.5685 17.6995C23.4199 14.9954 22.5132 12.0326 21.0801 10.1444C21.5897 10.1567 22.3461 10.2702 22.9992 10.7511C23.7151 11.2784 24.1551 12.1447 24.307 13.3261C24.4272 14.2607 24.7218 15.1553 25.0067 16.0206C25.4483 17.3618 25.8655 18.6286 25.4562 19.6622C24.6083 21.8028 23.3755 22.3823 21.8148 23.1162ZM6.34699 20.3458C5.93282 19.4465 5.41777 18.8541 4.96337 18.3315C4.33778 17.6119 3.84359 17.0436 3.6829 15.8535C3.31079 13.0971 5.04455 10.4364 6.86463 9.33245C7.36568 9.02857 7.83784 8.86658 8.22764 8.85304C7.16916 10.0342 5.99133 11.9855 6.03008 13.9011C6.0534 15.0549 6.51422 16.0055 7.39964 16.7266C7.63322 16.9168 7.87464 17.0842 8.12235 17.2291C7.84529 18.087 7.97294 19.3529 8.47464 20.5131C8.89729 21.4907 9.95798 23.2327 12.3123 23.9153C12.7061 24.0294 13.1155 24.1019 13.5348 24.1353C12.8396 24.6591 12.0471 24.8793 11.1998 24.7761C9.36187 24.5525 7.5024 22.8548 6.34699 20.3458ZM8.90773 4.77268C9.69012 4.18033 11.3076 3.36606 13.3495 4.56741C14.8277 5.43715 16.2607 5.76727 17.4121 6.03248C18.9973 6.39759 19.8396 6.63312 20.1641 7.59921C20.3804 8.24339 19.9556 8.66708 19.7574 8.82291C18.7545 8.09845 17.6804 7.88275 16.7291 8.22849C16.2393 7.7772 15.6562 7.41636 14.9929 7.16327C13.0086 6.40602 10.7302 6.75208 9.0896 8.03514C8.48533 7.77914 7.72568 7.84011 6.91076 8.20976C6.94983 7.02066 7.89421 5.53991 8.90773 4.77268ZM12.583 22.9819C10.6112 22.4102 9.72154 20.9481 9.36666 20.1275C8.94395 19.1498 8.87423 18.21 9.01418 17.6416C9.22878 17.7165 9.44675 17.7757 9.66744 17.8188C10.1784 19.0884 11.4897 20.1095 13.0077 20.3955C13.3036 20.4513 13.5992 20.4788 13.8927 20.4788C15.4369 20.4788 16.922 19.718 18.0669 18.3121C19.3921 16.6849 20.6192 14.4493 18.4051 11.5406C18.2735 10.599 17.9454 9.75595 17.4481 9.04924C18.3397 8.94097 19.16 9.542 19.6053 9.95247C21.2752 11.4921 22.4934 14.7016 21.6414 17.4075C21.0518 19.28 19.681 20.9733 17.8803 22.0531C16.1195 23.109 14.1887 23.4474 12.583 22.9819ZM9.46794 8.98289C10.8328 7.77642 12.914 7.4102 14.6464 8.0713C15.3395 8.33579 16.407 8.93552 17.0217 10.2277C16.2483 9.70904 15.3545 9.38533 14.4236 9.30317C13.1969 9.19516 12.0426 9.53565 11.2557 10.238C9.82729 11.5129 9.30381 13.0799 9.81951 14.5371C10.1848 15.5692 11.0483 16.3941 11.9959 16.6769C11.0161 17.0317 9.52353 17.2029 8.01337 15.9732C7.3594 15.4406 7.01903 14.7369 7.0018 13.8817C6.97562 12.5867 7.83104 10.4298 9.46794 8.98289ZM12.9149 15.9177C12.6255 15.6821 12.4453 15.3479 12.4073 14.9768C12.3694 14.6056 12.4782 14.2418 12.7138 13.9525C12.9494 13.6632 13.2836 13.4829 13.6548 13.445C13.7032 13.44 13.7514 13.4376 13.7995 13.4376C14.1195 13.4376 14.4274 13.5466 14.679 13.7515C15.2762 14.2379 15.3664 15.1195 14.88 15.7168C14.6444 16.0061 14.3102 16.1863 13.9391 16.2243C13.5681 16.2623 13.2041 16.1533 12.9149 15.9177ZM13.7926 17.2037C13.874 17.2037 13.9559 17.1995 14.038 17.1911C14.6675 17.1267 15.2342 16.8211 15.6337 16.3304C16.4585 15.3176 16.3056 13.8226 15.2928 12.9978C14.8022 12.5983 14.1852 12.4136 13.5559 12.4781C12.9264 12.5425 12.3597 12.8481 11.9602 13.3388C11.5606 13.8294 11.376 14.4462 11.4404 15.0757C11.4479 15.1487 11.4589 15.2207 11.4728 15.2919C11.1507 15.0097 10.8845 14.633 10.7358 14.2128C10.3528 13.1307 10.7673 11.9766 11.903 10.9629C12.4904 10.4386 13.3778 10.1866 14.3381 10.2713C15.5913 10.3819 16.7652 11.0245 17.5587 12.0343C19.3387 14.2994 18.7479 15.9368 17.3134 17.6983C15.7656 19.5988 14.0644 19.6056 13.1877 19.4404C12.176 19.2498 11.2864 18.6616 10.799 17.9011C10.9506 17.8939 11.1028 17.8802 11.2555 17.8586C11.7404 17.79 12.4824 17.6102 13.2746 17.1459C13.4434 17.184 13.6169 17.2037 13.7926 17.2037ZM15.5969 1.10123C16.5465 0.921365 17.4122 0.970544 17.8159 1.01111C18.158 1.66022 19.2223 3.38951 21.3902 4.63959C22.9934 5.56408 23.6102 6.87526 23.8454 7.81244C24.0689 8.70363 24.0306 9.55878 23.8853 10.2243C23.7868 10.134 23.6839 10.0483 23.5756 9.96854C22.5587 9.21958 21.383 9.14999 20.7612 9.17695C21.1033 8.73175 21.3508 8.07992 21.0854 7.28981C20.5727 5.76319 19.2091 5.44913 17.6303 5.08544C16.4872 4.82212 15.1916 4.52367 13.8424 3.72981C13.3564 3.44388 12.8897 3.25118 12.4455 3.13047C13.0839 2.0589 14.141 1.37693 15.5969 1.10123ZM7.44694 3.16325C7.77577 2.66051 8.11386 2.14365 8.30864 1.60657C8.98755 1.57553 10.7194 1.63261 11.7287 2.44565C11.6188 2.61256 11.5176 2.78718 11.4261 2.96984C10.0442 2.91152 8.96014 3.51424 8.32121 3.9978C8.06287 4.19335 7.81983 4.41301 7.59506 4.65002C7.28696 4.66156 6.95132 4.7373 6.60053 4.86035C6.67361 4.34698 7.05098 3.76856 7.44694 3.16325ZM2.01982 9.21336C2.29241 8.95976 3.16305 8.1657 4.19652 7.38765C5.30639 6.55206 6.11211 6.10116 6.68709 5.86427C6.12383 6.83249 5.84353 7.89007 5.975 8.75566C3.99838 10.1602 2.31379 12.9773 2.71967 15.9836C2.7936 16.5314 2.93174 16.9812 3.10902 17.3684C2.65545 17.0405 2.29345 16.6192 2.01749 16.0971C0.732357 13.6658 1.8049 9.90433 2.01982 9.21336ZM1.99753 19.5407C1.83587 18.8436 1.69229 18.2235 1.88447 17.5771C2.48323 18.2184 3.25914 18.6747 4.20352 18.9388C4.21233 18.9489 4.22115 18.9591 4.22989 18.9692C4.66168 19.4658 5.10825 19.9793 5.46416 20.7523C5.68142 21.2241 5.92414 21.6727 6.18753 22.0944C6.18098 22.1058 6.17457 22.1174 6.16887 22.1295C6.02658 22.4328 5.91753 22.8392 5.89757 23.2991C4.24395 23.0671 2.71034 22.1203 2.14118 21.7117C2.32384 20.9479 2.15829 20.234 1.99753 19.5407ZM19.9999 26.934C19.5897 27.1734 19.2021 27.3996 18.8909 27.6652C17.6361 28.7356 16.3026 29.1996 15.1358 28.9713C14.3454 28.8168 13.7299 28.5118 12.9506 28.1256C12.2737 27.7902 11.5064 27.41 10.4068 27.0042C8.64388 26.3537 7.4851 25.4567 7.05571 24.4102C6.84338 23.8928 6.83923 23.4306 6.89068 23.0924C7.2197 23.5052 7.57115 23.879 7.94015 24.2067C8.9236 25.08 10.0101 25.6105 11.0823 25.7411C11.2557 25.7622 11.4279 25.7726 11.5984 25.7726C12.1403 25.7726 12.6655 25.6666 13.1612 25.4606C13.1672 25.4669 13.1729 25.4734 13.1794 25.4794C13.941 26.1911 14.9405 26.6808 15.9214 26.8229C16.1295 26.853 16.335 26.868 16.5379 26.868C17.5227 26.868 18.4403 26.5151 19.22 25.8305C20.251 24.9254 21.2562 24.4528 22.2283 23.9958C22.2962 23.9638 22.3639 23.9319 22.4315 23.9C22.3142 25.583 21.1395 26.2688 19.9999 26.934ZM26.5228 20.6719C26.0862 21.1872 25.4878 21.8934 25.055 22.1631C25.5488 21.6326 25.9914 20.9498 26.3596 20.0201C26.637 19.3199 26.6467 18.6016 26.5232 17.8631C26.5575 17.8133 26.5838 17.7571 26.5978 17.6945C26.6683 17.3789 26.9405 16.6948 27.2735 15.9136C28.0907 16.7107 28.6161 18.2236 28.613 18.7039C27.8837 19.0661 27.1926 19.8816 26.5228 20.6719Z" fill="#5C2018"/>
</g>
<defs>
<clipPath id="clip0_869_751">
<rect width="30" height="30" fill="white"/>
</clipPath>
</defs>
</svg>
