<svg width="30" height="30" viewBox="0 0 30 30" fill="none" xmlns="http://www.w3.org/2000/svg">
<g clip-path="url(#clip0_869_745)">
<path d="M9.01679 10.8731C9.14502 10.4321 9.38289 10.0309 9.70821 9.70684L9.04531 9.04395C8.5563 9.53088 8.2156 10.1467 8.06284 10.8196C7.61627 10.9109 7.2182 11.1616 6.943 11.5249C6.66781 11.8883 6.53432 12.3394 6.56747 12.794C6.60063 13.2486 6.79816 13.6755 7.12316 13.9951C7.44817 14.3147 7.8784 14.505 8.33349 14.5305C8.78857 14.556 9.23737 14.4149 9.59602 14.1336C9.95468 13.8523 10.1986 13.4501 10.2824 13.002C10.3661 12.554 10.2838 12.0908 10.0509 11.699C9.81797 11.3072 9.45038 11.0136 9.01679 10.8731ZM8.43926 13.5941C8.23295 13.5943 8.03236 13.5264 7.86862 13.4009C7.70488 13.2754 7.58716 13.0993 7.53373 12.9C7.48029 12.7008 7.49414 12.4894 7.57312 12.2988C7.6521 12.1083 7.79179 11.9491 7.97051 11.846V12.1879H8.90801V11.846C9.08673 11.9491 9.22642 12.1083 9.3054 12.2988C9.38438 12.4894 9.39823 12.7008 9.3448 12.9C9.29137 13.0993 9.17365 13.2754 9.00991 13.4009C8.84617 13.5264 8.64557 13.5943 8.43926 13.5941Z" fill="#5C2018"/>
<path d="M22.9688 19.6879C23.4333 19.6879 23.8813 19.5154 24.2259 19.2039C24.5706 18.8925 24.7873 18.4641 24.8342 18.002C24.8811 17.5398 24.7547 17.0767 24.4796 16.7024C24.2045 16.328 23.8003 16.0692 23.3452 15.9759C23.1924 15.3029 22.8517 14.6871 22.3627 14.2002L21.6998 14.8631C22.0251 15.1872 22.263 15.5884 22.3912 16.0293C21.9663 16.1668 21.6045 16.4515 21.3708 16.8321C21.1372 17.2127 21.047 17.6642 21.1167 18.1054C21.1863 18.5465 21.4111 18.9483 21.7507 19.2384C22.0902 19.5285 22.5222 19.6879 22.9688 19.6879ZM22.5 17.0023V17.3441H23.4375V17.0023C23.6162 17.1054 23.7559 17.2647 23.8349 17.4554C23.9139 17.646 23.9277 17.8574 23.8743 18.0568C23.8209 18.2561 23.7032 18.4323 23.5395 18.5579C23.3757 18.6836 23.1751 18.7516 22.9688 18.7516C22.7624 18.7516 22.5618 18.6836 22.398 18.5579C22.2343 18.4323 22.1166 18.2561 22.0632 18.0568C22.0098 17.8574 22.0236 17.646 22.1026 17.4554C22.1816 17.2647 22.3213 17.1054 22.5 17.0023Z" fill="#5C2018"/>
<path d="M16.875 11.2504C17.3395 11.2504 17.7875 11.0779 18.1322 10.7664C18.4768 10.455 18.6936 10.0266 18.7404 9.56447C18.7873 9.1023 18.661 8.63919 18.3859 8.26487C18.1108 7.89054 17.7065 7.63166 17.2514 7.53838C17.0987 6.8654 16.758 6.24963 16.269 5.7627L15.6061 6.42559C15.9314 6.74966 16.1693 7.15089 16.2975 7.59181C15.8726 7.72934 15.5107 8.01403 15.2771 8.39463C15.0434 8.77523 14.9533 9.22674 15.0229 9.66788C15.0926 10.109 15.3174 10.5108 15.6569 10.8009C15.9965 11.091 16.4284 11.2504 16.875 11.2504ZM16.4063 8.56475V8.90664H17.3438V8.56475C17.5225 8.66794 17.6622 8.82722 17.7411 9.01788C17.8201 9.20855 17.834 9.41995 17.7806 9.61929C17.7272 9.81864 17.6095 9.99478 17.4457 10.1204C17.282 10.2461 17.0814 10.3141 16.875 10.3141C16.6686 10.3141 16.468 10.2461 16.3043 10.1204C16.1406 9.99478 16.0229 9.81864 15.9695 9.61929C15.916 9.41995 15.9299 9.20855 16.0089 9.01788C16.0878 8.82722 16.2275 8.66794 16.4063 8.56475Z" fill="#5C2018"/>
<path d="M23.4235 24.9574C23.446 24.8675 23.4413 24.7729 23.41 24.6856C23.3788 24.5984 23.3223 24.5223 23.2478 24.4671C23.1733 24.4119 23.0841 24.3801 22.9915 24.3756C22.8989 24.371 22.8071 24.3941 22.7276 24.4418L22.3936 24.6422C22.0518 24.8475 21.7383 25.0966 21.4612 25.3832C21.3697 24.9412 21.3964 24.4829 21.5384 24.0545C21.5678 23.9665 21.5703 23.8719 21.5459 23.7824C21.5214 23.693 21.4709 23.6129 21.4009 23.5521C21.3308 23.4914 21.2444 23.4528 21.1524 23.4412C21.0604 23.4296 20.967 23.4455 20.8841 23.487C20.1191 23.8687 19.4826 24.4659 19.053 25.205C18.8517 25.0268 18.6293 24.8738 18.3908 24.7494C18.2419 24.2758 18.1251 23.7927 18.0412 23.3034C18.9104 23.0992 19.7123 22.6746 20.3699 22.0706C20.5759 22.52 20.9188 22.8927 21.3495 23.1355C21.7802 23.3783 22.2766 23.4786 22.7677 23.4222C23.2589 23.3658 23.7196 23.1555 24.0841 22.8214C24.4485 22.4873 24.6979 22.0466 24.7967 21.5622C24.8124 21.5624 24.8281 21.5625 24.8438 21.5625C25.4961 21.5625 26.1336 21.368 26.6749 21.004C27.2162 20.6399 27.6367 20.1228 27.8827 19.5187C28.1287 18.9145 28.1891 18.2507 28.0561 17.6121C27.9231 16.9735 27.6028 16.389 27.136 15.9333C27.8365 15.5434 28.3936 14.9394 28.7257 14.2097C29.0577 13.4801 29.1472 12.6632 28.981 11.879C28.8149 11.0947 28.4018 10.3844 27.8023 9.85208C27.2029 9.31979 26.4487 8.99359 25.6503 8.92133C25.4525 8.23944 25.0381 7.64046 24.4697 7.2149C23.9014 6.78935 23.21 6.56035 22.5 6.5625C22.487 6.5625 22.4741 6.56258 22.4611 6.56273C22.3778 6.06728 22.1631 5.60323 21.8395 5.21892C21.5159 4.83461 21.0952 4.54409 20.6212 4.37762C20.6237 4.32464 20.625 4.27168 20.625 4.21875C20.625 3.52162 20.403 2.8426 19.9911 2.28014C19.5793 1.71768 18.9989 1.30103 18.3343 1.09058C17.6697 0.880129 16.9554 0.886828 16.2948 1.1097C15.6343 1.33258 15.0619 1.76005 14.6606 2.33013C14.2678 2.07465 13.8175 1.92129 13.3504 1.88395C12.8834 1.84661 12.4144 1.92648 11.986 2.11632C11.5576 2.30616 11.1834 2.59995 10.8974 2.97104C10.6113 3.34213 10.4224 3.77877 10.3479 4.24135C9.61199 4.32043 8.90951 4.59028 8.30995 5.02422C7.71039 5.45815 7.23453 6.04111 6.92945 6.71542C6.46962 6.53996 5.96622 6.5137 5.49062 6.64037C5.01502 6.76704 4.59137 7.04021 4.27973 7.42115C3.96808 7.80209 3.78427 8.27147 3.75434 8.76273C3.72441 9.254 3.84988 9.74222 4.11298 10.1582C3.56519 10.548 3.11871 11.0633 2.81091 11.661C2.5031 12.2587 2.34292 12.9214 2.34375 13.5938C2.34373 13.8512 2.36708 14.1082 2.41353 14.3614C1.78973 14.8371 1.33083 15.4965 1.10142 16.2468C0.872016 16.997 0.883658 17.8003 1.13471 18.5436C1.38576 19.2868 1.86358 19.9326 2.50091 20.3901C3.13823 20.8476 3.90298 21.0937 4.6875 21.0938C4.70717 21.0938 4.72687 21.093 4.74656 21.0927C4.81832 21.372 4.9536 21.631 5.14186 21.8495C5.33013 22.068 5.56629 22.24 5.83195 22.3523C6.09761 22.4645 6.38559 22.5139 6.67347 22.4966C6.96135 22.4793 7.24135 22.3958 7.49166 22.2526C8.32698 22.8132 9.33512 23.0571 10.3343 22.9401C11.3336 22.8232 12.2582 22.3531 12.9414 21.6147C13.0659 21.7613 13.1984 21.901 13.3384 22.0329C13.4159 22.8383 13.3357 23.6511 13.1022 24.4258L13.0706 24.5312C12.6322 24.6711 12.2278 24.901 11.8833 25.2061C11.4546 24.4664 10.8184 23.8687 10.0534 23.487C9.97046 23.4455 9.8771 23.4296 9.78512 23.4412C9.69314 23.4528 9.60666 23.4914 9.53663 23.5521C9.46659 23.6129 9.41614 23.693 9.39165 23.7824C9.36716 23.8719 9.36974 23.9665 9.39906 24.0545C9.54112 24.4829 9.56774 24.9412 9.47626 25.3832C9.19916 25.0966 8.88572 24.8475 8.54393 24.6422L8.20994 24.4418C8.13044 24.3941 8.03858 24.371 7.94597 24.3756C7.85337 24.3801 7.76419 24.4119 7.68969 24.4671C7.6152 24.5223 7.55875 24.5984 7.52747 24.6856C7.4962 24.7729 7.49151 24.8675 7.51399 24.9574C7.77831 26.0172 7.66997 27.1357 7.20716 28.125H0.9375V29.0625H29.0625V28.125H23.7303C23.2675 27.1357 23.1592 26.0172 23.4235 24.9574ZM22.3511 25.8289C22.3127 26.611 22.4357 27.3926 22.7126 28.125H21.1255C21.2425 27.2365 21.678 26.4206 22.3511 25.8289ZM20.4707 24.9086C20.4772 25.3862 20.5811 25.8574 20.7759 26.2934C20.4513 26.8554 20.2485 27.4795 20.1808 28.125H19.281L19.4239 26.982C19.522 26.1905 19.892 25.4576 20.4707 24.9086V24.9086ZM18.6512 26.1283C18.5777 26.3691 18.525 26.6159 18.4936 26.8657L18.3362 28.125H17.8125V27.9401C17.8134 27.0402 17.6128 26.1515 17.2255 25.3392C17.7794 25.4246 18.2848 25.7043 18.6512 26.1283ZM16.875 24.375H16.4062C16.3214 24.375 16.2382 24.398 16.1654 24.4416C16.0926 24.4852 16.033 24.5478 15.993 24.6226C15.9529 24.6974 15.934 24.7816 15.9381 24.8664C15.9422 24.9511 15.9692 25.0332 16.0162 25.1038C16.5771 25.9433 16.876 26.9305 16.875 27.9401V28.125H14.0625V27.9401C14.0615 26.9305 14.3604 25.9433 14.9213 25.1038C14.9683 25.0332 14.9953 24.9511 14.9994 24.8664C15.0035 24.7816 14.9846 24.6974 14.9445 24.6226C14.9045 24.5478 14.8449 24.4852 14.7721 24.4416C14.6993 24.398 14.6161 24.375 14.5312 24.375H14.0879C14.3055 23.5113 14.36 22.6146 14.2484 21.7309L14.1666 21.0761C14.0354 20.0349 13.6793 19.0347 13.1228 18.1449C13.6186 17.7805 13.9992 17.2812 14.2192 16.7066L15.3012 17.5722C15.3625 17.6213 15.4352 17.6542 15.5126 17.6678C15.59 17.6814 15.6695 17.6754 15.7439 17.6503C15.8184 17.6252 15.8853 17.5818 15.9386 17.524C15.9918 17.4663 16.0297 17.3961 16.0488 17.3199L16.7981 14.3225C16.8374 14.3125 16.8766 14.3018 16.9154 14.29C17.1482 14.9374 17.6241 15.4686 18.2422 15.771L17.6645 17.3596C16.8412 19.6201 16.7208 22.0767 17.319 24.4068C17.1719 24.3861 17.0235 24.3754 16.875 24.375ZM5.625 20.625C5.6252 20.4606 5.66861 20.2992 5.75089 20.1569C5.83316 20.0147 5.9514 19.8965 6.09375 19.8144V20.1562H7.03125V19.8144C7.17362 19.8967 7.2918 20.0151 7.37392 20.1576C7.45604 20.3001 7.49921 20.4617 7.49908 20.6262C7.49896 20.7906 7.45555 20.9522 7.37321 21.0946C7.29087 21.2369 7.17251 21.3551 7.03002 21.4373C6.88753 21.5194 6.72593 21.5626 6.56146 21.5625C6.39699 21.5624 6.23544 21.519 6.09305 21.4367C5.95066 21.3544 5.83245 21.236 5.75029 21.0935C5.66813 20.9511 5.62492 20.7895 5.625 20.625ZM12.5645 20.5855C12.2639 21.0308 11.8587 21.3954 11.3843 21.6475C10.9099 21.8995 10.3809 22.0313 9.84375 22.0312C9.25728 22.0333 8.6812 21.8764 8.17684 21.5771C8.3198 21.3353 8.40653 21.0644 8.43061 20.7844C8.45469 20.5045 8.41549 20.2228 8.31592 19.9601C8.21636 19.6974 8.05898 19.4604 7.85543 19.2668C7.65188 19.0731 7.40738 18.9278 7.14003 18.8414C7.26825 18.4005 7.50613 17.9993 7.83145 17.6752L7.16855 17.0123C6.67954 17.4992 6.33883 18.115 6.18608 18.788C5.84262 18.8591 5.52588 19.0248 5.27162 19.2664C5.01735 19.508 4.83569 19.8158 4.74713 20.1552C4.72725 20.1556 4.70737 20.1562 4.6875 20.1562C4.0775 20.1562 3.48405 19.9578 2.99662 19.5911C2.50919 19.2243 2.15419 18.7091 1.98515 18.123C1.81611 17.5368 1.84219 16.9117 2.05946 16.3417C2.27673 15.7717 2.67341 15.2878 3.1897 14.9629C3.27424 14.9096 3.33953 14.8306 3.37602 14.7376C3.41252 14.6445 3.41832 14.5423 3.39257 14.4457C3.20056 13.7266 3.25815 12.9637 3.55593 12.2816C3.85371 11.5995 4.37407 11.0386 5.03194 10.6906L5.03278 10.6901C5.50454 10.4421 6.02952 10.3125 6.5625 10.3125V9.375C6.00324 9.3753 5.44958 9.48629 4.93342 9.70158C4.7723 9.46773 4.6865 9.19023 4.6875 8.90625C4.68756 8.67389 4.74518 8.44517 4.85521 8.24052C4.96525 8.03587 5.12426 7.86166 5.31805 7.73347C5.51184 7.60527 5.73437 7.52707 5.96575 7.50587C6.19714 7.48466 6.43018 7.52111 6.64404 7.61195C6.58994 7.88381 6.56263 8.16031 6.5625 8.4375H7.5C7.49976 8.12543 7.54398 7.81492 7.63132 7.51532C7.63175 7.51388 7.63241 7.51255 7.63284 7.5111C7.7887 6.98177 8.07552 6.50028 8.46676 6.11117C8.85801 5.72205 9.34105 5.43786 9.87122 5.28489C10.4014 5.13191 10.9616 5.11508 11.5 5.23596C12.0384 5.35684 12.5376 5.61152 12.9515 5.97645L13.5719 5.27355C12.9354 4.71197 12.1441 4.3558 11.3017 4.25175C11.4001 3.84209 11.6334 3.47742 11.9641 3.21638C12.2948 2.95534 12.7037 2.81309 13.125 2.8125C13.5237 2.81134 13.9122 2.93843 14.2331 3.175C14.1199 3.51133 14.0623 3.86387 14.0625 4.21875H15C14.9993 3.90542 15.0619 3.59518 15.184 3.3066L15.1762 3.30329C15.1912 3.28183 15.2044 3.25915 15.2157 3.23547C15.4398 2.7506 15.8228 2.35682 16.3013 2.11936C16.7798 1.88189 17.3251 1.81497 17.8468 1.92969C18.3685 2.04441 18.8354 2.33387 19.1702 2.75016C19.5049 3.16644 19.6874 3.68457 19.6875 4.21875C19.6875 4.36084 19.6747 4.50263 19.6493 4.64244L19.6493 4.64271C19.5717 5.06642 19.3784 5.46042 19.0908 5.78113L19.7894 6.40638C20.0748 6.0875 20.2951 5.71583 20.4377 5.31233C20.7217 5.43609 20.9705 5.62836 21.1619 5.87191C21.3533 6.11545 21.4813 6.40268 21.5345 6.70785C21.2334 6.79996 20.9474 6.93531 20.6853 7.10967L21.2044 7.89033C21.4762 7.70893 21.7834 7.58716 22.1057 7.53303C22.1068 7.53286 22.1078 7.53286 22.1089 7.53267C22.635 7.44397 23.1756 7.53712 23.6417 7.79678C24.1077 8.05644 24.4715 8.46712 24.6729 8.96116C24.1323 9.05369 23.6189 9.26456 23.1693 9.57868L23.7057 10.3476C24.0414 10.114 24.424 9.95651 24.8269 9.88596C25.2297 9.81541 25.6431 9.83355 26.0382 9.93911C26.4333 10.0447 26.8006 10.2351 27.1146 10.4972C27.4286 10.7592 27.6816 11.0866 27.8561 11.4565C28.0306 11.8264 28.1223 12.2298 28.1249 12.6388C28.1275 13.0478 28.0409 13.4524 27.8712 13.8244C27.7014 14.1965 27.4525 14.5271 27.1419 14.7931C26.8313 15.0591 26.4664 15.2542 26.0727 15.3648L26.0715 15.3652C25.8244 15.4341 25.569 15.4689 25.3125 15.4688V16.4062C25.5852 16.4062 25.857 16.3765 26.1233 16.3177C26.5744 16.612 26.9105 17.0527 27.0749 17.5657C27.2392 18.0786 27.2219 18.6325 27.0259 19.1342C26.8298 19.6359 26.4669 20.0548 25.9982 20.3204C25.5296 20.5859 24.9838 20.682 24.4526 20.5923C24.4516 20.5921 24.4505 20.5921 24.4494 20.592C24.1757 20.5458 23.9124 20.4509 23.6722 20.3117L23.2028 21.1232C23.4132 21.2451 23.6366 21.343 23.8688 21.4152C23.7899 21.7509 23.5905 22.046 23.3083 22.2443C23.0261 22.4426 22.6808 22.5303 22.3382 22.4907C21.9956 22.451 21.6795 22.2868 21.4501 22.0293C21.2206 21.7718 21.0938 21.439 21.0938 21.0941C21.0937 20.9957 21.0627 20.8999 21.0052 20.8202C20.9477 20.7404 20.8666 20.6808 20.7734 20.6497C20.6801 20.6185 20.5794 20.6175 20.4856 20.6468C20.3917 20.676 20.3094 20.734 20.2503 20.8126C19.6718 21.5787 18.8512 22.1267 17.9218 22.3673C17.7903 20.7782 18.0031 19.1794 18.5456 17.68L19.1465 16.0274C19.2327 16.0358 19.3198 16.0406 19.408 16.0406C19.9351 16.0415 20.4504 15.8841 20.8872 15.589L20.3628 14.8119C20.119 14.9759 19.8371 15.0743 19.5442 15.0977C19.2513 15.1211 18.9573 15.0686 18.6906 14.9454C18.4238 14.8221 18.1933 14.6323 18.0213 14.3941C17.8492 14.1559 17.7414 13.8775 17.7082 13.5855C17.6995 13.5078 17.6715 13.4335 17.6268 13.3694C17.582 13.3053 17.5219 13.2534 17.452 13.2184C17.382 13.1834 17.3045 13.1665 17.2263 13.1692C17.1482 13.1719 17.0719 13.1941 17.0045 13.2337C16.7323 13.3931 16.4214 13.4741 16.106 13.468C15.7906 13.4619 15.4831 13.3689 15.2172 13.1991L14.7113 13.9884C15.045 14.2022 15.4226 14.338 15.8159 14.3858L15.3165 16.3838L14.4258 15.6712C14.4268 15.6381 14.4283 15.6051 14.4283 15.5717C14.4293 14.942 14.2432 14.3263 13.8937 13.8025L13.1136 14.3225C13.3395 14.6623 13.469 15.057 13.4883 15.4645C13.5076 15.8721 13.416 16.2772 13.2233 16.6368C13.0305 16.9964 12.7439 17.2971 12.3938 17.5067C12.0438 17.7162 11.6434 17.827 11.2354 17.8271C11.1093 17.8271 10.9833 17.8166 10.8589 17.7958L10.7036 18.7204C10.8794 18.7498 11.0573 18.7646 11.2354 18.7646C11.5949 18.7647 11.9518 18.7038 12.2909 18.5845C12.6493 19.1437 12.9169 19.756 13.0838 20.3989C12.9887 20.3705 12.887 20.3733 12.7935 20.4069C12.7001 20.4405 12.6198 20.5031 12.5645 20.5855L12.5645 20.5855ZM13.712 25.3392C13.3247 26.1515 13.1241 27.0402 13.125 27.9401V28.125H11.7188V27.6562C11.7187 27.0954 11.9198 26.5532 12.2856 26.128C12.6513 25.7028 13.1574 25.423 13.712 25.3392ZM10.4668 24.9085C10.7911 25.2165 11.052 25.5848 11.2351 25.9929C10.9393 26.4974 10.7827 27.0714 10.7812 27.6562V28.125H10.7567C10.689 27.4795 10.4862 26.8554 10.1616 26.2934C10.3564 25.8573 10.4603 25.3861 10.4668 24.9085ZM8.58636 25.8289C9.25953 26.4206 9.69504 27.2365 9.81199 28.125H8.22485C8.50179 27.3926 8.62485 26.611 8.58636 25.8289Z" fill="#5C2018"/>
</g>
<defs>
<clipPath id="clip0_869_745">
<rect width="30" height="30" fill="white"/>
</clipPath>
</defs>
</svg>
