<svg xmlns="http://www.w3.org/2000/svg" viewBox="-0.000498891 1037.1 16 14.26">
  <path d="M2.758 1037.103c-.44.018-.88.146-1.248.343-1.473.79-2.085 2.859-.843 4.837l.843-.53c-1.009-1.606-.448-2.925.5-3.433.472-.254 1.055-.306 1.715-.03.66.273 1.403.878 2.06 2.027 1.403 2.46 1.715 7.877 1.715 11.045H8.5c0-3.168.312-8.586 1.716-11.045.656-1.149 1.4-1.754 2.06-2.028.659-.274 1.242-.222 1.715.031.947.508 1.508 1.827.5 3.432l.842.53c1.242-1.977.63-4.046-.843-4.835a2.94 2.94 0 0 0-1.248-.344c-.439-.018-.886.06-1.341.25-.911.379-1.79 1.172-2.528 2.465-.677 1.187-1.093 2.797-1.372 4.493-.28-1.696-.696-3.306-1.373-4.493-.738-1.293-1.616-2.086-2.527-2.465a3.128 3.128 0 0 0-1.342-.25z" fill="#000"/>
</svg>